<svg width="86" height="111" viewBox="0 0 86 111" fill="none" xmlns="http://www.w3.org/2000/svg">
<g clip-path="url(#clip0_154_2711)">
<rect width="86" height="111" fill="white"/>
<path d="M32.2652 23.5267C32.0365 23.2614 31.814 22.9804 31.5678 22.6696C31.4695 22.5455 31.3674 22.4166 31.2596 22.282C30.8879 21.8178 30.4673 21.311 29.996 20.8492C29.0496 19.9222 27.7736 19.0561 26.0493 19.0782C24.1811 19.1022 22.5163 20.169 21.7139 21.8563C20.9194 23.5272 21.1057 25.5111 22.1348 27.059L32.9553 43.9451L16.5182 54.4779C14.1633 55.9869 13.6546 59.1431 15.1472 61.4724C16.115 62.9827 17.7502 63.8739 19.4224 63.9025L14.117 67.3021C12.5661 68.2553 11.7187 69.9991 11.8374 71.8191C11.9559 73.6356 13.0156 75.2893 14.6165 76.156C16.2204 77.0242 18.1587 76.9829 19.6727 75.9722L34.514 66.462C34.9118 66.207 35.5817 66.2901 35.9622 66.8839L35.9816 66.9142L36.0026 66.9435L39.3792 71.6407C38.4327 70.6715 37.3621 69.6269 35.7679 69.2272C34.0471 68.7957 32.2428 69.0705 30.7634 70.0186L12.2735 81.8668C9.91858 83.3758 9.40992 86.532 10.9025 88.8613C12.3951 91.1906 15.4752 92.0472 17.8301 90.5382L32.683 81.0205C32.8688 80.9015 32.9667 80.8997 33.1723 81.0109C33.4763 81.1752 33.8697 81.5593 34.3 82.1863C35.1441 83.4162 35.7793 85.0548 35.996 85.7395C36.054 85.9228 36.1008 86.1486 36.1715 86.4903C36.2174 86.712 36.2734 86.9826 36.3491 87.3221C36.5241 88.1062 36.7748 89.089 37.195 90.2333C38.0382 92.5296 39.5413 95.4141 42.4155 98.6822C48.3109 105.386 60.6623 109.338 71.7448 104.906C75.5246 103.394 77.9873 101.628 79.2975 99.5343C80.6511 97.3717 80.6405 95.084 79.966 92.8958C79.3075 90.7594 77.9905 88.6212 76.5946 86.5923C76.0257 85.7653 75.4527 84.9681 74.889 84.1838C74.0556 83.0241 73.2423 81.8925 72.4917 80.7339L70.2966 72.6371L67.6906 73.3435L67.9313 74.2314L58.2303 60.4345L32.9611 24.4961L33.0978 24.3593L32.2652 23.5267ZM37.611 54.6611C36.9489 54.4953 36.2744 54.434 35.6109 54.4754L36.9277 53.6317C37.3255 53.3767 37.9954 53.4598 38.3759 54.0536L38.3846 54.0672L38.3936 54.0805L39.2054 55.2832C38.7043 55.0112 38.1693 54.8009 37.611 54.6611Z" fill="#0E1A18" stroke="white" stroke-width="2.7"/>
<path d="M32.251 5.3448L32.2514 5.34271C32.6093 3.69919 31.5703 2.07186 29.9249 1.7106C28.2776 1.34893 26.6504 2.3904 26.289 4.03775L24.7214 11.1827C24.36 12.8299 25.4015 14.457 27.0486 14.8187C28.693 15.1797 30.3219 14.1371 30.6827 12.4927L32.251 5.3448Z" fill="black" stroke="white" stroke-width="2.7"/>
<path d="M44.3561 11.7721C43.4488 10.3545 41.5632 9.93557 40.1417 10.8454L33.9783 14.7902C32.5568 15.7001 32.1475 17.5878 33.0549 19.0054C33.9617 20.4222 35.8476 20.8396 37.2682 19.9303L43.4315 15.9855C44.8521 15.0762 45.2629 13.1889 44.3561 11.7721Z" fill="black" stroke="white" stroke-width="2.7"/>
<path d="M5.63886 36.5572C6.54684 37.9758 8.43519 38.389 9.85395 37.4809L16.0155 33.5372C17.4343 32.6292 17.8498 30.7413 16.9419 29.3227C16.0333 27.9033 14.1453 27.4885 12.7256 28.3972L6.56407 32.3409C5.14439 33.2495 4.73034 35.1377 5.63886 36.5572Z" fill="black" stroke="white" stroke-width="2.7"/>
<path d="M13.3281 18.4761L13.3258 18.4756L6.18164 16.9085C6.18121 16.9084 6.18078 16.9084 6.18035 16.9083C4.53308 16.5446 2.90717 17.5879 2.54563 19.233C2.182 20.8806 3.22582 22.507 4.87145 22.8683L12.0191 24.4376C13.6646 24.7989 15.2896 23.7562 15.6528 22.1137L15.6537 22.1095C16.0118 20.4648 14.9716 18.8397 13.3281 18.4761Z" fill="black" stroke="white" stroke-width="2.7"/>
<path d="M11.1507 2.53017C9.73107 3.4388 9.31666 5.32697 10.2253 6.74661L15.6248 15.1827C16.5334 16.6023 18.4216 17.0167 19.8412 16.1081C20.5116 15.6791 21.0016 14.9982 21.2324 14.2672C21.466 13.5274 21.4704 12.5994 20.9445 11.7778L15.545 3.34172C15.0192 2.5201 14.1747 2.13544 13.405 2.03775C12.6446 1.94123 11.8211 2.10111 11.1507 2.53017Z" fill="black" stroke="white" stroke-width="2.7"/>
<path d="M17.2086 79.8442C17.2086 79.8442 18.9414 83.6855 10.7279 87.4562" stroke="white" stroke-width="0.94" stroke-miterlimit="10" stroke-linecap="round"/>
<path d="M32.7727 26.9255C32.7727 26.9255 29.1151 28.4975 24.9852 19.8564" stroke="white" stroke-width="0.94" stroke-miterlimit="10" stroke-linecap="round"/>
<path d="M22.2578 52.4983C22.2578 52.4983 23.9915 56.3411 15.7785 60.1096" stroke="white" stroke-width="0.94" stroke-miterlimit="10" stroke-linecap="round"/>
<path d="M19.854 65.3274C19.854 65.3274 21.5881 69.1679 13.3738 72.9373" stroke="white" stroke-width="0.94" stroke-miterlimit="10" stroke-linecap="round"/>
</g>
<defs>
<clipPath id="clip0_154_2711">
<rect width="86" height="111" fill="white"/>
</clipPath>
</defs>
</svg>
