<svg width="67" height="75" viewBox="0 0 67 75" fill="none" xmlns="http://www.w3.org/2000/svg">
<path d="M58.8501 25.4511C57.7374 25.4511 56.677 25.6729 55.7103 26.0754C54.8165 22.5711 51.6127 19.9701 47.808 19.9701C46.6953 19.9701 45.6349 20.1919 44.6682 20.5944C43.7744 17.09 40.5706 14.489 36.7668 14.489C35.7487 14.489 34.7739 14.675 33.8757 15.0149V8.87911C33.8757 4.41769 30.2196 0.788086 25.7256 0.788086C21.2317 0.788086 17.5756 4.41769 17.5756 8.87911L17.5756 39.1967L14.6628 36.305C11.4851 33.1504 6.31454 33.1504 3.13687 36.305C1.59714 37.8336 0.750244 39.8649 0.750244 42.0258C0.750244 44.1868 1.59804 46.2189 3.13687 47.7466L22.3002 66.7711C27.2464 71.7665 33.854 74.5178 40.9076 74.5178C54.5499 74.5178 65.8839 64.0592 66.9218 50.6195C66.9731 50.4156 67.0002 50.2036 67.0002 49.9845V33.5421C67.0002 29.0807 63.3441 25.4511 58.8501 25.4511ZM61.7413 49.5247C61.7233 49.6267 61.7107 49.7305 61.7043 49.836C61.0656 60.749 51.9299 69.2979 40.9076 69.2979C35.273 69.2979 29.9943 67.0985 26.0437 63.1049C26.0382 63.0995 26.0328 63.0933 26.0265 63.0879L6.85421 44.0544C6.30824 43.5124 6.00732 42.7915 6.00732 42.0249C6.00732 41.2584 6.30824 40.5375 6.85421 39.9955C7.41821 39.4356 8.1579 39.1565 8.89848 39.1565C9.63907 39.1565 10.3797 39.4364 10.9427 39.9955L18.3441 47.3432C19.0964 48.0901 20.2271 48.3128 21.2091 47.9094C22.1921 47.5051 22.8326 46.5534 22.8326 45.498L22.8326 8.87911C22.8326 7.29597 24.13 6.00888 25.7238 6.00888C27.3185 6.00888 28.615 7.29686 28.615 8.87911L28.615 22.5809V33.5421C28.615 34.984 29.7925 36.1521 31.244 36.1521C32.6954 36.1521 33.873 34.9831 33.873 33.5421L33.873 22.5809C33.873 20.9978 35.1703 19.7107 36.7641 19.7107C38.3588 19.7107 39.6553 20.9986 39.6553 22.5809V28.062L39.6553 33.543C39.6553 34.9849 40.8328 36.153 42.2843 36.153C43.7357 36.153 44.9132 34.984 44.9132 33.543L44.9132 28.062C44.9132 26.4788 46.2106 25.1917 47.8044 25.1917C49.3991 25.1917 50.6956 26.4797 50.6956 28.062L50.6956 33.543V36.2836C50.6956 37.7254 51.8731 38.8935 53.3246 38.8935C54.7769 38.8935 55.9536 37.7245 55.9536 36.2836V33.543C55.9536 31.9608 57.2509 30.6728 58.8447 30.6728C60.4385 30.6728 61.7359 31.9608 61.7359 33.543V49.5247H61.7413Z" fill="#171515"/>
<path d="M61.7403 49.5237C61.7223 49.6256 61.7097 49.7294 61.7034 49.8349C61.0646 60.7479 51.9289 69.2969 40.9066 69.2969C35.2721 69.2969 29.9934 67.0974 26.0427 63.1038C26.0373 63.0984 26.0319 63.0922 26.0256 63.0868L6.85324 44.0533C6.30726 43.5113 6.00634 42.7904 6.00634 42.0239C6.00634 41.2573 6.30726 40.5364 6.85324 39.9944C7.41724 39.4345 8.15692 39.1554 8.8975 39.1554C9.63809 39.1554 10.3787 39.4354 10.9418 39.9944L18.3431 47.3422C19.0954 48.089 20.2261 48.3117 21.2082 47.9083C22.1911 47.504 22.8317 46.5524 22.8317 45.4969L22.8317 8.87804C22.8317 7.2949 24.129 6.00781 25.7228 6.00781C27.3175 6.00781 28.614 7.29579 28.614 8.87804L28.614 22.5798V33.5411C28.614 34.9829 29.7916 36.151 31.243 36.151C32.6944 36.151 33.872 34.982 33.872 33.5411V22.5798C33.872 20.9967 35.1693 19.7096 36.7631 19.7096C38.3578 19.7096 39.6543 20.9976 39.6543 22.5798V28.0609V33.542C39.6543 34.9838 40.8319 36.1519 42.2833 36.1519C43.7347 36.1519 44.9123 34.9829 44.9123 33.542V28.0609C44.9123 26.4778 46.2096 25.1907 47.8034 25.1907C49.3981 25.1907 50.6946 26.4787 50.6946 28.0609V33.542V36.2825C50.6946 37.7243 51.8721 38.8925 53.3236 38.8925C54.7759 38.8925 55.9526 37.7234 55.9526 36.2825V33.542C55.9526 31.9597 57.2499 30.6717 58.8437 30.6717C60.4375 30.6717 61.7349 31.9597 61.7349 33.542L61.7349 49.5237H61.7403Z" fill="white"/>
</svg>
