<svg width="76" height="85" viewBox="0 0 76 85" fill="none" xmlns="http://www.w3.org/2000/svg">
<path d="M66.7428 28.7859C65.4789 28.7859 64.2744 29.0378 63.1764 29.495C62.1612 25.5146 58.5222 22.5602 54.2006 22.5602C52.9368 22.5602 51.7323 22.8122 50.6343 23.2693C49.6191 19.2889 45.9801 16.3346 41.6595 16.3346C40.5031 16.3346 39.3959 16.5459 38.3756 16.9319V9.96262C38.3756 4.89513 34.2229 0.772461 29.1184 0.772461C24.014 0.772461 19.8612 4.89513 19.8612 9.96262L19.8612 44.3988L16.5528 41.1143C12.9434 37.5311 7.07043 37.5311 3.46109 41.1143C1.71219 42.8505 0.750244 45.1577 0.750244 47.6122C0.750244 50.0667 1.71321 52.3749 3.46109 54.1101L25.2277 75.7191C30.8458 81.3931 38.351 84.5181 46.3628 84.5181C61.8583 84.5181 74.732 72.6387 75.9109 57.3733C75.9692 57.1417 75.9999 56.9009 75.9999 56.652V37.976C75.9999 32.9085 71.8472 28.7859 66.7428 28.7859ZM70.0267 56.1298C70.0062 56.2456 69.9919 56.3635 69.9847 56.4833C69.2592 68.8788 58.8824 78.5891 46.3628 78.5891C39.9628 78.5891 33.967 76.0909 29.4797 71.5547C29.4735 71.5486 29.4674 71.5415 29.4602 71.5354L7.68341 49.9163C7.06327 49.3007 6.72147 48.4818 6.72147 47.6112C6.72147 46.7405 7.06327 45.9217 7.68341 45.306C8.32403 44.67 9.16419 44.3531 10.0054 44.3531C10.8466 44.3531 11.6878 44.671 12.3274 45.306L20.7341 53.6519C21.5886 54.5002 22.8729 54.7532 23.9884 54.295C25.1049 53.8358 25.8325 52.7549 25.8325 51.556L25.8325 9.96262C25.8325 8.16441 27.3061 6.70248 29.1164 6.70248C30.9277 6.70248 32.4003 8.16543 32.4003 9.96262V25.5257V37.976C32.4003 39.6137 33.7378 40.9405 35.3864 40.9405C37.035 40.9405 38.3725 39.6127 38.3725 37.976L38.3725 25.5257C38.3725 23.7275 39.8462 22.2656 41.6565 22.2656C43.4678 22.2656 44.9404 23.7285 44.9404 25.5257V31.7514L44.9404 37.977C44.9404 39.6147 46.2779 40.9416 47.9265 40.9416C49.5751 40.9416 50.9126 39.6137 50.9126 37.977L50.9126 31.7514C50.9126 29.9532 52.3862 28.4913 54.1965 28.4913C56.0079 28.4913 57.4805 29.9542 57.4805 31.7514L57.4805 37.977V41.0899C57.4805 42.7276 58.818 44.0544 60.4666 44.0544C62.1162 44.0544 63.4527 42.7265 63.4527 41.0899V37.977C63.4527 36.1799 64.9263 34.7169 66.7366 34.7169C68.5469 34.7169 70.0205 36.1799 70.0205 37.977V56.1298H70.0267Z" fill="#105EFB"/>
<path d="M70.0257 56.1285C70.0052 56.2443 69.9909 56.3621 69.9837 56.482C69.2582 68.8775 58.8815 78.5878 46.3618 78.5878C39.9618 78.5878 33.9661 76.0896 29.4787 71.5534C29.4725 71.5473 29.4664 71.5402 29.4592 71.5341L7.68244 49.915C7.06229 49.2994 6.72049 48.4805 6.72049 47.6099C6.72049 46.7392 7.06229 45.9204 7.68244 45.3047C8.32305 44.6687 9.16322 44.3518 10.0044 44.3518C10.8456 44.3518 11.6868 44.6697 12.3264 45.3047L20.7332 53.6506C21.5877 54.4989 22.872 54.7519 23.9874 54.2937C25.1039 53.8345 25.8315 52.7535 25.8315 51.5547L25.8315 9.96131C25.8315 8.1631 27.3051 6.70117 29.1154 6.70117C30.9267 6.70117 32.3993 8.16412 32.3993 9.96131V25.5244V37.9747C32.3993 39.6124 33.7368 40.9392 35.3854 40.9392C37.034 40.9392 38.3716 39.6114 38.3716 37.9747V25.5244C38.3716 23.7262 39.8452 22.2643 41.6555 22.2643C43.4668 22.2643 44.9394 23.7272 44.9394 25.5244V31.7501V37.9757C44.9394 39.6134 46.2769 40.9402 47.9255 40.9402C49.5741 40.9402 50.9116 39.6124 50.9116 37.9757V31.7501C50.9116 29.9519 52.3853 28.4899 54.1956 28.4899C56.0069 28.4899 57.4795 29.9529 57.4795 31.7501V37.9757L57.4795 41.0886C57.4795 42.7263 58.817 44.0531 60.4656 44.0531C62.1152 44.0531 63.4517 42.7252 63.4517 41.0886L63.4517 37.9757C63.4517 36.1785 64.9253 34.7156 66.7356 34.7156C68.5459 34.7156 70.0196 36.1785 70.0196 37.9757V56.1285H70.0257Z" fill="white"/>
</svg>
