<svg width="84" height="84" viewBox="0 0 84 84" fill="none" xmlns="http://www.w3.org/2000/svg">
<path d="M74.9044 4.935C71.7281 1.75875 67.5019 0 63 0C58.4981 0 54.2719 1.74563 51.0956 4.935L4.935 51.0956C1.75875 54.2719 0 58.4981 0 63C0 67.5019 1.74563 71.7281 4.935 74.9044L9.09563 79.065C12.2719 82.2412 16.4981 84 21 84C25.5019 84 29.7281 82.2544 32.9044 79.065L79.065 32.9044C82.2412 29.7281 84 25.5019 84 21C84 16.4981 82.2544 12.2719 79.065 9.09563L74.9044 4.935ZM25.4756 71.6494C24.2812 72.8437 22.6931 73.5 21 73.5C19.3069 73.5 17.7188 72.8437 16.5244 71.6494L12.3638 67.4887C11.1694 66.2944 10.5131 64.7063 10.5131 63.0131C10.5131 61.32 11.1694 59.7319 12.3638 58.5375L44.205 26.6963L57.33 39.8213L25.4887 71.6625L25.4756 71.6494ZM71.6363 25.4887L64.7325 32.3925L51.6075 19.2675L58.5113 12.3638C59.7056 11.1694 61.2937 10.5131 62.9869 10.5131C64.68 10.5131 66.2681 11.1694 67.4625 12.3638L71.6231 16.5244C72.8175 17.7188 73.4738 19.3069 73.4738 21C73.4738 22.6931 72.8175 24.2812 71.6231 25.4756L71.6363 25.4887Z" fill="#105EFB"/>
<path d="M82.9763 61.3462L78.6319 59.1806L76.4663 54.8362C75.7838 53.4713 73.8412 53.4713 73.1587 54.8362L70.9931 59.1806L66.6487 61.3462C65.2838 62.0287 65.2838 63.9713 66.6487 64.6538L70.9931 66.8194L73.1587 71.1638C73.8412 72.5288 75.7838 72.5288 76.4663 71.1638L78.6319 66.8194L82.9763 64.6538C84.3413 63.9713 84.3413 62.0287 82.9763 61.3462Z" fill="#105EFB"/>
<path d="M10.8412 12.8362C10.1587 11.4713 8.21625 11.4713 7.53375 12.8362L5.36812 17.1806L1.02375 19.3463C-0.34125 20.0288 -0.34125 21.9712 1.02375 22.6537L5.36812 24.8194L7.53375 29.1638C8.21625 30.5288 10.1587 30.5288 10.8412 29.1638L13.0069 24.8194L17.3512 22.6537C18.7162 21.9712 18.7162 20.0288 17.3512 19.3463L13.0069 17.1806L10.8412 12.8362Z" fill="#105EFB"/>
</svg>
