<svg width="86" height="111" viewBox="0 0 86 111" fill="none" xmlns="http://www.w3.org/2000/svg">
<g clip-path="url(#clip0_154_2794)">
<rect width="86" height="111" fill="white"/>
<path d="M32.2654 23.5267C32.0368 23.2614 31.8143 22.9804 31.568 22.6696C31.4697 22.5455 31.3676 22.4166 31.2599 22.282C30.8881 21.8178 30.4676 21.311 29.9962 20.8492C29.0499 19.9222 27.7739 19.0561 26.0496 19.0782C24.1813 19.1022 22.5166 20.169 21.7142 21.8563C20.9197 23.5272 21.1059 25.5111 22.135 27.059L32.9555 43.9451L16.5185 54.4779C14.1636 55.9869 13.6549 59.1431 15.1475 61.4724C16.1153 62.9827 17.7504 63.8739 19.4226 63.9025L14.1172 67.3021C12.5664 68.2553 11.719 69.9991 11.8377 71.8191C11.9561 73.6356 13.0158 75.2893 14.6167 76.156C16.2206 77.0242 18.159 76.9829 19.6729 75.9722L34.5142 66.462C34.912 66.207 35.5819 66.2901 35.9624 66.8839L35.9818 66.9142L36.0029 66.9435L39.3795 71.6407C38.4329 70.6715 37.3623 69.6269 35.7682 69.2272C34.0474 68.7957 32.243 69.0705 30.7636 70.0186L12.2737 81.8668C9.91882 83.3758 9.41016 86.532 10.9028 88.8613C12.3954 91.1906 15.4754 92.0472 17.8303 90.5382L32.6832 81.0205C32.869 80.9015 32.9669 80.8997 33.1725 81.0109C33.4766 81.1752 33.8699 81.5593 34.3003 82.1863C35.1443 83.4162 35.7795 85.0548 35.9962 85.7395C36.0543 85.9228 36.101 86.1486 36.1717 86.4903C36.2176 86.712 36.2736 86.9826 36.3494 87.3221C36.5244 88.1062 36.775 89.089 37.1952 90.2333C38.0385 92.5296 39.5416 95.4141 42.4157 98.6822C48.3112 105.386 60.6625 109.338 71.745 104.906C75.5249 103.394 77.9875 101.628 79.2978 99.5343C80.6514 97.3717 80.6407 95.084 79.9663 92.8958C79.3078 90.7594 77.9907 88.6212 76.5949 86.5923C76.0259 85.7653 75.453 84.9681 74.8893 84.1838C74.0558 83.0241 73.2425 81.8925 72.4919 80.7339L70.2968 72.6371L67.6909 73.3435L67.9316 74.2314L58.2306 60.4345L32.9613 24.4961L33.0981 24.3593L32.2654 23.5267ZM37.6112 54.6611C36.9491 54.4953 36.2747 54.434 35.6111 54.4754L36.9279 53.6317C37.3257 53.3767 37.9956 53.4598 38.3761 54.0536L38.3848 54.0672L38.3939 54.0805L39.2057 55.2832C38.7046 55.0112 38.1695 54.8009 37.6112 54.6611Z" fill="#0E1A18" stroke="white" stroke-width="2.7"/>
<path d="M17.2086 79.8442C17.2086 79.8442 18.9414 83.6855 10.7279 87.4562" stroke="white" stroke-width="0.94" stroke-miterlimit="10" stroke-linecap="round"/>
<path d="M32.7727 26.9255C32.7727 26.9255 29.1151 28.4975 24.9852 19.8564" stroke="white" stroke-width="0.94" stroke-miterlimit="10" stroke-linecap="round"/>
<path d="M22.2578 52.4983C22.2578 52.4983 23.9915 56.3411 15.7785 60.1096" stroke="white" stroke-width="0.94" stroke-miterlimit="10" stroke-linecap="round"/>
<path d="M19.854 65.3274C19.854 65.3274 21.5881 69.1679 13.3738 72.9373" stroke="white" stroke-width="0.94" stroke-miterlimit="10" stroke-linecap="round"/>
</g>
<defs>
<clipPath id="clip0_154_2794">
<rect width="86" height="111" fill="white"/>
</clipPath>
</defs>
</svg>
