<svg width="143" height="77" viewBox="0 0 143 77" fill="none" xmlns="http://www.w3.org/2000/svg">
<path d="M65.5486 11.1781C50.6444 -3.72605 26.0823 -3.72604 11.1781 11.1781C-3.72605 26.0823 -3.72605 50.6444 11.1781 65.5486C25.8439 80.2143 50.8829 80.6913 65.7871 65.7871C72.7342 58.8399 76.5671 49.8419 77.1039 40.6725C77.1525 39.843 77.3203 38.5961 77.3147 37.7653C77.3048 36.2733 77.0613 35.1973 76.8758 33.7133C76.2796 29.3016 72.7026 28.5862 69.6026 31.6863L65.8299 34.3026C65.7006 35.7354 65.4294 37.2903 65.4294 40.1519C65.3102 46.4713 62.9255 52.9099 57.9177 57.9177C48.6175 67.2179 33.9517 67.5756 23.5784 60.5408L65.4294 18.6898C67.9333 16.1859 68.6487 14.2782 67.3371 12.9666L65.5486 11.1781ZM19.0476 19.0476C28.3478 9.74734 42.4173 9.03193 52.9099 15.9475L15.9475 52.9099C9.03194 42.4173 9.74734 28.3478 19.0476 19.0476Z" fill="#171515"/>
<path d="M77.2241 65.7189C92.1283 80.623 116.69 80.623 131.595 65.7189C146.499 50.8147 146.499 26.2526 131.595 11.3484C116.929 -3.31733 91.8899 -3.79427 76.9857 11.1099C68.2816 19.814 64.4661 31.7373 65.8969 43.1837C66.4931 47.5954 70.0701 48.3108 73.1702 45.2107L74.7202 43.6607C76.7472 41.6337 77.3434 39.6067 77.3434 36.7451C77.4626 30.4258 79.8473 23.9871 84.8551 18.9793C94.1553 9.67912 108.821 9.32142 119.194 16.3562L77.3434 58.2072C74.8395 60.7111 74.1241 62.6188 75.4356 63.9304L77.2241 65.7189ZM123.725 57.8495C114.425 67.1497 100.355 67.8651 89.8629 60.9495L126.825 23.9871C133.741 34.4797 133.025 48.5492 123.725 57.8495Z" fill="#171515"/>
</svg>
