<svg width="275" height="77" viewBox="0 0 275 77" fill="none" xmlns="http://www.w3.org/2000/svg">
<path d="M162.424 19.36H156.986V2.56086H162.596C164.242 2.56086 165.656 2.89717 166.837 3.56979C168.018 4.23695 168.923 5.19667 169.552 6.44895C170.186 7.69576 170.504 9.19139 170.504 10.9358C170.504 12.6857 170.184 14.1896 169.544 15.4473C168.91 16.7051 167.991 17.673 166.788 18.3511C165.585 19.0237 164.13 19.36 162.424 19.36ZM159.52 17.1453H162.284C163.564 17.1453 164.628 16.9047 165.475 16.4235C166.323 15.9368 166.957 15.2341 167.378 14.3154C167.799 13.3912 168.01 12.2647 168.01 10.9358C168.01 9.61793 167.799 8.49963 167.378 7.58092C166.963 6.66222 166.342 5.96499 165.516 5.48923C164.691 5.01347 163.665 4.77559 162.44 4.77559H159.52V17.1453Z" fill="#171515"/>
<path d="M178.889 19.6143C177.647 19.6143 176.578 19.3491 175.682 18.8186C174.79 18.2827 174.101 17.5308 173.614 16.5629C173.133 15.5895 172.893 14.4493 172.893 13.1424C172.893 11.8518 173.133 10.7144 173.614 9.73003C174.101 8.74571 174.779 7.97739 175.649 7.42507C176.524 6.87276 177.546 6.5966 178.717 6.5966C179.427 6.5966 180.117 6.71417 180.784 6.94931C181.451 7.18446 182.05 7.55358 182.58 8.05668C183.111 8.55978 183.529 9.21326 183.835 10.0171C184.141 10.8155 184.294 11.7862 184.294 12.9291V13.7986H174.279V11.9612H181.891C181.891 11.3159 181.76 10.7444 181.497 10.2468C181.235 9.74371 180.866 9.34724 180.39 9.05741C179.92 8.76758 179.367 8.62267 178.733 8.62267C178.044 8.62267 177.442 8.79219 176.928 9.13124C176.42 9.46481 176.026 9.90229 175.747 10.4437C175.474 10.9796 175.337 11.562 175.337 12.1909V13.6263C175.337 14.4685 175.485 15.1848 175.78 15.7754C176.081 16.366 176.499 16.8172 177.035 17.1289C177.571 17.4351 178.197 17.5882 178.913 17.5882C179.378 17.5882 179.802 17.5226 180.185 17.3914C180.568 17.2547 180.899 17.0523 181.177 16.7844C181.456 16.5164 181.67 16.1856 181.817 15.7918L184.139 16.2102C183.953 16.8937 183.619 17.4925 183.138 18.0066C182.662 18.5151 182.063 18.9116 181.341 19.196C180.625 19.4749 179.808 19.6143 178.889 19.6143Z" fill="#171515"/>
<path d="M196.457 9.83667L194.234 10.2304C194.141 9.94604 193.993 9.67535 193.791 9.41833C193.594 9.16131 193.326 8.95078 192.987 8.78672C192.648 8.62267 192.224 8.54064 191.716 8.54064C191.021 8.54064 190.442 8.69649 189.977 9.00819C189.512 9.31443 189.28 9.71089 189.28 10.1976C189.28 10.6187 189.435 10.9577 189.747 11.2147C190.059 11.4717 190.562 11.6823 191.256 11.8463L193.258 12.3057C194.417 12.5736 195.281 12.9865 195.85 13.5443C196.419 14.1021 196.703 14.8267 196.703 15.718C196.703 16.4727 196.484 17.1453 196.047 17.7359C195.615 18.321 195.011 18.7804 194.234 19.1139C193.463 19.4475 192.569 19.6143 191.552 19.6143C190.141 19.6143 188.99 19.3135 188.098 18.712C187.207 18.105 186.66 17.2437 186.458 16.1282L188.828 15.7672C188.976 16.3852 189.28 16.8527 189.739 17.1699C190.198 17.4816 190.797 17.6375 191.535 17.6375C192.339 17.6375 192.982 17.4707 193.463 17.1371C193.944 16.798 194.185 16.3852 194.185 15.8985C194.185 15.5047 194.037 15.1739 193.742 14.9059C193.452 14.638 193.006 14.4357 192.405 14.2989L190.272 13.8314C189.096 13.5634 188.227 13.1369 187.664 12.5518C187.106 11.9666 186.827 11.2257 186.827 10.3288C186.827 9.58512 187.035 8.93437 187.45 8.37659C187.866 7.8188 188.44 7.38406 189.173 7.07235C189.906 6.75518 190.745 6.5966 191.691 6.5966C193.053 6.5966 194.125 6.89189 194.907 7.48249C195.689 8.06762 196.205 8.85234 196.457 9.83667Z" fill="#171515"/>
<path d="M199.4 19.36V6.76065H201.852V19.36H199.4ZM200.638 4.81661C200.212 4.81661 199.845 4.67443 199.539 4.39006C199.238 4.10024 199.088 3.75572 199.088 3.35652C199.088 2.95186 199.238 2.60734 199.539 2.32298C199.845 2.03315 200.212 1.88824 200.638 1.88824C201.065 1.88824 201.429 2.03315 201.729 2.32298C202.036 2.60734 202.189 2.95186 202.189 3.35652C202.189 3.75572 202.036 4.10024 201.729 4.39006C201.429 4.67443 201.065 4.81661 200.638 4.81661Z" fill="#171515"/>
<path d="M210.434 24.3473C209.434 24.3473 208.572 24.216 207.851 23.9535C207.134 23.6911 206.549 23.3438 206.095 22.9118C205.641 22.4798 205.302 22.0068 205.078 21.4927L207.186 20.6232C207.334 20.8639 207.531 21.1181 207.777 21.3861C208.028 21.6595 208.367 21.8919 208.794 22.0833C209.226 22.2747 209.781 22.3704 210.459 22.3704C211.389 22.3704 212.157 22.1435 212.764 21.6896C213.371 21.2412 213.674 20.5248 213.674 19.5405V17.0633H213.519C213.371 17.3312 213.158 17.6293 212.879 17.9574C212.605 18.2855 212.228 18.5698 211.747 18.8104C211.266 19.0511 210.639 19.1714 209.868 19.1714C208.873 19.1714 207.976 18.939 207.178 18.4741C206.385 18.0038 205.756 17.3121 205.291 16.3988C204.832 15.4801 204.602 14.3509 204.602 13.0111C204.602 11.6713 204.829 10.523 205.283 9.56598C205.742 8.609 206.371 7.87622 207.17 7.36765C207.968 6.85362 208.873 6.5966 209.885 6.5966C210.667 6.5966 211.298 6.72784 211.78 6.99033C212.261 7.24734 212.636 7.54811 212.903 7.89263C213.177 8.23714 213.387 8.54064 213.535 8.80313H213.716V6.76065H216.119V19.6389C216.119 20.7217 215.867 21.6103 215.364 22.3048C214.861 22.9993 214.18 23.5133 213.322 23.8469C212.469 24.1805 211.506 24.3473 210.434 24.3473ZM210.41 17.1371C211.115 17.1371 211.711 16.973 212.198 16.6449C212.69 16.3113 213.062 15.8356 213.314 15.2177C213.571 14.5942 213.699 13.8478 213.699 12.9783C213.699 12.1307 213.573 11.3842 213.322 10.739C213.07 10.0937 212.701 9.59059 212.214 9.22967C211.728 8.86328 211.126 8.68009 210.41 8.68009C209.672 8.68009 209.056 8.87148 208.564 9.25428C208.072 9.6316 207.7 10.1456 207.449 10.7964C207.203 11.4471 207.08 12.1744 207.08 12.9783C207.08 13.8041 207.205 14.5286 207.457 15.152C207.708 15.7754 208.08 16.2621 208.572 16.6121C209.07 16.9621 209.683 17.1371 210.41 17.1371Z" fill="#171515"/>
<path d="M221.861 11.8791V19.36H219.408V6.76065H221.762V8.81133H221.918C222.208 8.14418 222.662 7.60826 223.28 7.2036C223.903 6.79893 224.688 6.5966 225.634 6.5966C226.493 6.5966 227.245 6.77706 227.89 7.13798C228.535 7.49343 229.035 8.02387 229.391 8.7293C229.746 9.43474 229.924 10.307 229.924 11.346V19.36H227.471V11.6413C227.471 10.728 227.234 10.0144 226.758 9.50036C226.282 8.98085 225.629 8.7211 224.797 8.7211C224.229 8.7211 223.723 8.84414 223.28 9.09022C222.842 9.3363 222.495 9.69722 222.238 10.173C221.987 10.6433 221.861 11.212 221.861 11.8791Z" fill="#171515"/>
<path d="M170.545 30.2921V47.0913H168.215L159.676 34.7708H159.52V47.0913H156.986V30.2921H159.332L167.879 42.629H168.035V30.2921H170.545Z" fill="#171515"/>
<path d="M179.475 47.3456C178.234 47.3456 177.165 47.0803 176.268 46.5499C175.377 46.014 174.688 45.2621 174.201 44.2941C173.72 43.3208 173.479 42.1806 173.479 40.8736C173.479 39.583 173.72 38.4456 174.201 37.4613C174.688 36.477 175.366 35.7086 176.235 35.1563C177.11 34.604 178.133 34.3278 179.303 34.3278C180.014 34.3278 180.703 34.4454 181.37 34.6806C182.037 34.9157 182.636 35.2848 183.167 35.7879C183.697 36.291 184.115 36.9445 184.422 37.7484C184.728 38.5468 184.881 39.5174 184.881 40.6603V41.5298H174.865V39.6924H182.478C182.478 39.0471 182.346 38.4757 182.084 37.9781C181.821 37.4749 181.452 37.0785 180.976 36.7887C180.506 36.4988 179.954 36.3539 179.319 36.3539C178.63 36.3539 178.029 36.5234 177.515 36.8625C177.006 37.1961 176.613 37.6335 176.334 38.1749C176.06 38.7108 175.924 39.2932 175.924 39.9221V41.3576C175.924 42.1997 176.071 42.9161 176.367 43.5067C176.667 44.0973 177.086 44.5484 177.622 44.8601C178.157 45.1664 178.784 45.3195 179.5 45.3195C179.965 45.3195 180.389 45.2539 180.771 45.1226C181.154 44.9859 181.485 44.7836 181.764 44.5156C182.043 44.2477 182.256 43.9168 182.404 43.5231L184.725 43.9414C184.539 44.625 184.206 45.2238 183.724 45.7378C183.249 46.2464 182.65 46.6429 181.928 46.9272C181.212 47.2061 180.394 47.3456 179.475 47.3456Z" fill="#171515"/>
<path d="M195.583 41.8661V34.4919H198.044V47.0913H195.633V44.9093H195.501C195.212 45.582 194.747 46.1425 194.107 46.5909C193.473 47.0338 192.682 47.2553 191.736 47.2553C190.927 47.2553 190.211 47.0776 189.587 46.7221C188.969 46.3612 188.483 45.828 188.127 45.1226C187.777 44.4172 187.602 43.545 187.602 42.506V34.4919H190.055V42.2107C190.055 43.0692 190.293 43.7528 190.768 44.2613C191.244 44.7699 191.862 45.0242 192.622 45.0242C193.082 45.0242 193.538 44.9093 193.992 44.6797C194.451 44.45 194.831 44.1027 195.132 43.6379C195.438 43.1731 195.589 42.5825 195.583 41.8661Z" fill="#171515"/>
<path d="M201.34 47.0913V34.4919H203.71V36.4934H203.842C204.071 35.8153 204.476 35.2821 205.056 34.8938C205.641 34.5001 206.302 34.3032 207.041 34.3032C207.194 34.3032 207.374 34.3087 207.582 34.3196C207.795 34.3306 207.962 34.3442 208.082 34.3607V36.7066C207.984 36.6793 207.809 36.6492 207.557 36.6164C207.306 36.5781 207.054 36.559 206.803 36.559C206.223 36.559 205.706 36.682 205.252 36.9281C204.804 37.1687 204.449 37.505 204.186 37.937C203.924 38.3636 203.792 38.8503 203.792 39.3971V47.0913H201.34Z" fill="#171515"/>
<path d="M213.759 47.3702C212.96 47.3702 212.238 47.2225 211.593 46.9272C210.948 46.6264 210.436 46.1917 210.059 45.623C209.687 45.0543 209.501 44.357 209.501 43.5313C209.501 42.8204 209.638 42.2353 209.912 41.7759C210.185 41.3166 210.554 40.9529 211.019 40.6849C211.484 40.417 212.003 40.2147 212.577 40.0779C213.152 39.9412 213.737 39.8373 214.333 39.7662C215.087 39.6787 215.7 39.6077 216.17 39.553C216.64 39.4928 216.982 39.3971 217.196 39.2659C217.409 39.1346 217.515 38.9214 217.515 38.6261V38.5686C217.515 37.8523 217.313 37.2972 216.908 36.9035C216.509 36.5098 215.913 36.3129 215.12 36.3129C214.294 36.3129 213.644 36.4961 213.168 36.8625C212.698 37.2234 212.372 37.6253 212.192 38.0683L209.887 37.5433C210.16 36.7777 210.56 36.1598 211.085 35.6895C211.615 35.2137 212.225 34.8692 212.914 34.6559C213.603 34.4372 214.327 34.3278 215.087 34.3278C215.591 34.3278 216.124 34.388 216.687 34.5083C217.256 34.6231 217.786 34.8364 218.278 35.1481C218.776 35.4598 219.183 35.9055 219.5 36.4852C219.818 37.0593 219.976 37.8058 219.976 38.7245V47.0913H217.581V45.3687H217.483C217.324 45.6859 217.086 45.9976 216.769 46.3038C216.452 46.61 216.044 46.8643 215.547 47.0667C215.049 47.269 214.453 47.3702 213.759 47.3702ZM214.292 45.4015C214.97 45.4015 215.55 45.2675 216.031 44.9996C216.517 44.7316 216.887 44.3816 217.138 43.9496C217.395 43.5121 217.524 43.0446 217.524 42.547V40.9228C217.436 41.0103 217.267 41.0923 217.015 41.1689C216.769 41.24 216.487 41.3029 216.17 41.3576C215.853 41.4068 215.544 41.4533 215.243 41.497C214.943 41.5353 214.691 41.5681 214.489 41.5954C214.013 41.6556 213.578 41.7568 213.184 41.8989C212.796 42.0411 212.484 42.2462 212.249 42.5142C212.02 42.7766 211.905 43.1266 211.905 43.5641C211.905 44.1711 212.129 44.6305 212.577 44.9422C213.026 45.2484 213.597 45.4015 214.292 45.4015Z" fill="#171515"/>
<path d="M225.696 30.2921V47.0913H223.243V30.2921H225.696Z" fill="#171515"/>
<path d="M158.405 74.8225H155.714L161.76 58.0233H164.688L170.733 74.8225H168.043L163.293 61.0748H163.162L158.405 74.8225ZM158.856 68.2439H167.583V70.3766H158.856V68.2439Z" fill="#171515"/>
<path d="M174.115 74.8225L170.407 62.2231H172.942L175.411 71.4758H175.534L178.011 62.2231H180.546L183.007 71.4348H183.13L185.582 62.2231H188.117L184.417 74.8225H181.916L179.356 65.7257H179.168L176.608 74.8225H174.115Z" fill="#171515"/>
<path d="M194.111 75.1014C193.313 75.1014 192.591 74.9538 191.946 74.6585C191.3 74.3577 190.789 73.9229 190.412 73.3542C190.04 72.7855 189.854 72.0883 189.854 71.2625C189.854 70.5516 189.991 69.9665 190.264 69.5071C190.537 69.0478 190.907 68.6841 191.371 68.4162C191.836 68.1482 192.356 67.9459 192.93 67.8092C193.504 67.6725 194.089 67.5686 194.685 67.4975C195.44 67.41 196.052 67.3389 196.523 67.2842C196.993 67.2241 197.335 67.1284 197.548 66.9971C197.761 66.8659 197.868 66.6526 197.868 66.3573V66.2999C197.868 65.5835 197.666 65.0285 197.261 64.6347C196.862 64.241 196.266 64.0441 195.473 64.0441C194.647 64.0441 193.996 64.2273 193.52 64.5937C193.05 64.9546 192.725 65.3566 192.544 65.7995L190.239 65.2746C190.513 64.509 190.912 63.891 191.437 63.4207C191.967 62.945 192.577 62.6005 193.266 62.3872C193.955 62.1684 194.68 62.0591 195.44 62.0591C195.943 62.0591 196.476 62.1192 197.039 62.2395C197.608 62.3544 198.139 62.5676 198.631 62.8793C199.128 63.1911 199.536 63.6367 199.853 64.2164C200.17 64.7906 200.329 65.537 200.329 66.4557V74.8225H197.934V73.0999H197.835C197.676 73.4171 197.439 73.7288 197.121 74.035C196.804 74.3413 196.397 74.5956 195.899 74.7979C195.402 75.0002 194.806 75.1014 194.111 75.1014ZM194.644 73.1327C195.322 73.1327 195.902 72.9988 196.383 72.7308C196.87 72.4629 197.239 72.1129 197.491 71.6809C197.748 71.2434 197.876 70.7758 197.876 70.2782V68.6541C197.789 68.7416 197.619 68.8236 197.368 68.9001C197.121 68.9712 196.84 69.0341 196.523 69.0888C196.205 69.138 195.896 69.1845 195.596 69.2283C195.295 69.2665 195.043 69.2993 194.841 69.3267C194.365 69.3868 193.931 69.488 193.537 69.6302C193.149 69.7724 192.837 69.9774 192.602 70.2454C192.372 70.5079 192.257 70.8579 192.257 71.2953C192.257 71.9023 192.481 72.3617 192.93 72.6734C193.378 72.9796 193.95 73.1327 194.644 73.1327Z" fill="#171515"/>
<path d="M203.595 74.8225V62.2231H205.966V64.2246H206.097C206.327 63.5465 206.732 63.0133 207.311 62.6251C207.896 62.2313 208.558 62.0345 209.296 62.0345C209.449 62.0345 209.63 62.0399 209.838 62.0509C210.051 62.0618 210.218 62.0755 210.338 62.0919V64.4379C210.24 64.4105 210.065 64.3805 209.813 64.3476C209.562 64.3094 209.31 64.2902 209.058 64.2902C208.479 64.2902 207.962 64.4133 207.508 64.6593C207.06 64.9 206.704 65.2363 206.442 65.6683C206.179 66.0948 206.048 66.5815 206.048 67.1284V74.8225H203.595Z" fill="#171515"/>
<path d="M217.44 75.0768C216.198 75.0768 215.129 74.8116 214.232 74.2811C213.341 73.7452 212.652 72.9933 212.165 72.0254C211.684 71.052 211.443 69.9118 211.443 68.6049C211.443 67.3143 211.684 66.1768 212.165 65.1925C212.652 64.2082 213.33 63.4399 214.199 62.8876C215.074 62.3352 216.097 62.0591 217.267 62.0591C217.978 62.0591 218.667 62.1767 219.334 62.4118C220.002 62.6469 220.6 63.0161 221.131 63.5192C221.661 64.0223 222.08 64.6757 222.386 65.4796C222.692 66.278 222.845 67.2487 222.845 68.3916V69.2611H212.83V67.4237H220.442C220.442 66.7784 220.311 66.2069 220.048 65.7093C219.786 65.2062 219.416 64.8097 218.941 64.5199C218.47 64.2301 217.918 64.0852 217.284 64.0852C216.595 64.0852 215.993 64.2547 215.479 64.5937C214.971 64.9273 214.577 65.3648 214.298 65.9062C214.024 66.4421 213.888 67.0245 213.888 67.6533V69.0888C213.888 69.931 214.035 70.6473 214.331 71.2379C214.631 71.8285 215.05 72.2797 215.586 72.5914C216.122 72.8976 216.748 73.0507 217.464 73.0507C217.929 73.0507 218.353 72.9851 218.736 72.8539C219.118 72.7171 219.449 72.5148 219.728 72.2468C220.007 71.9789 220.22 71.6481 220.368 71.2543L222.689 71.6727C222.503 72.3562 222.17 72.955 221.689 73.4691C221.213 73.9776 220.614 74.3741 219.892 74.6585C219.176 74.9373 218.358 75.0768 217.44 75.0768Z" fill="#171515"/>
<path d="M228.019 67.3416V74.8225H225.566V62.2231H227.921V64.2738H228.076C228.366 63.6067 228.82 63.0708 229.438 62.6661C230.061 62.2614 230.846 62.0591 231.792 62.0591C232.651 62.0591 233.403 62.2395 234.048 62.6005C234.693 62.9559 235.194 63.4864 235.549 64.1918C235.905 64.8972 236.082 65.7694 236.082 66.8085V74.8225H233.63V67.1038C233.63 66.1905 233.392 65.4769 232.916 64.9628C232.44 64.4433 231.787 64.1836 230.956 64.1836C230.387 64.1836 229.881 64.3066 229.438 64.5527C229.001 64.7988 228.653 65.1597 228.396 65.6355C228.145 66.1058 228.019 66.6745 228.019 67.3416Z" fill="#171515"/>
<path d="M244.802 75.0768C243.56 75.0768 242.491 74.8116 241.595 74.2811C240.703 73.7452 240.014 72.9933 239.527 72.0254C239.046 71.052 238.806 69.9118 238.806 68.6049C238.806 67.3143 239.046 66.1768 239.527 65.1925C240.014 64.2082 240.692 63.4399 241.562 62.8876C242.437 62.3352 243.459 62.0591 244.63 62.0591C245.34 62.0591 246.029 62.1767 246.697 62.4118C247.364 62.6469 247.963 63.0161 248.493 63.5192C249.023 64.0223 249.442 64.6757 249.748 65.4796C250.054 66.278 250.207 67.2487 250.207 68.3916V69.2611H240.192V67.4237H247.804C247.804 66.7784 247.673 66.2069 247.41 65.7093C247.148 65.2062 246.779 64.8097 246.303 64.5199C245.833 64.2301 245.28 64.0852 244.646 64.0852C243.957 64.0852 243.355 64.2547 242.841 64.5937C242.333 64.9273 241.939 65.3648 241.66 65.9062C241.387 66.4421 241.25 67.0245 241.25 67.6533V69.0888C241.25 69.931 241.398 70.6473 241.693 71.2379C241.994 71.8285 242.412 72.2797 242.948 72.5914C243.484 72.8976 244.11 73.0507 244.826 73.0507C245.291 73.0507 245.715 72.9851 246.098 72.8539C246.481 72.7171 246.811 72.5148 247.09 72.2468C247.369 71.9789 247.582 71.6481 247.73 71.2543L250.052 71.6727C249.866 72.3562 249.532 72.955 249.051 73.4691C248.575 73.9776 247.976 74.3741 247.254 74.6585C246.538 74.9373 245.72 75.0768 244.802 75.0768Z" fill="#171515"/>
<path d="M262.37 65.2992L260.147 65.6929C260.054 65.4085 259.906 65.1378 259.704 64.8808C259.507 64.6238 259.239 64.4133 258.9 64.2492C258.561 64.0852 258.137 64.0031 257.629 64.0031C256.934 64.0031 256.355 64.159 255.89 64.4707C255.425 64.7769 255.193 65.1734 255.193 65.6601C255.193 66.0811 255.348 66.4202 255.66 66.6772C255.972 66.9342 256.475 67.1448 257.169 67.3088L259.171 67.7682C260.33 68.0361 261.194 68.449 261.763 69.0068C262.332 69.5646 262.616 70.2891 262.616 71.1805C262.616 71.9352 262.397 72.6078 261.96 73.1984C261.528 73.7835 260.924 74.2429 260.147 74.5764C259.376 74.91 258.482 75.0768 257.465 75.0768C256.054 75.0768 254.903 74.776 254.011 74.1745C253.12 73.5675 252.573 72.7062 252.371 71.5906L254.741 71.2297C254.889 71.8477 255.193 72.3152 255.652 72.6324C256.111 72.9441 256.71 73.0999 257.448 73.0999C258.252 73.0999 258.895 72.9331 259.376 72.5996C259.857 72.2605 260.098 71.8477 260.098 71.361C260.098 70.9672 259.95 70.6364 259.655 70.3684C259.365 70.1005 258.919 69.8981 258.318 69.7614L256.185 69.2939C255.009 69.0259 254.14 68.5994 253.577 68.0143C253.019 67.4291 252.74 66.6881 252.74 65.7913C252.74 65.0476 252.948 64.3969 253.363 63.8391C253.779 63.2813 254.353 62.8465 255.086 62.5348C255.819 62.2177 256.658 62.0591 257.604 62.0591C258.966 62.0591 260.038 62.3544 260.82 62.945C261.602 63.5301 262.118 64.3148 262.37 65.2992Z" fill="#171515"/>
<path d="M274.754 65.2992L272.531 65.6929C272.438 65.4085 272.29 65.1378 272.088 64.8808C271.891 64.6238 271.623 64.4133 271.284 64.2492C270.945 64.0852 270.521 64.0031 270.013 64.0031C269.318 64.0031 268.739 64.159 268.274 64.4707C267.809 64.7769 267.577 65.1734 267.577 65.6601C267.577 66.0811 267.732 66.4202 268.044 66.6772C268.356 66.9342 268.859 67.1448 269.553 67.3088L271.555 67.7682C272.714 68.0361 273.578 68.449 274.147 69.0068C274.716 69.5646 275 70.2891 275 71.1805C275 71.9352 274.781 72.6078 274.344 73.1984C273.912 73.7835 273.308 74.2429 272.531 74.5764C271.76 74.91 270.866 75.0768 269.849 75.0768C268.438 75.0768 267.287 74.776 266.395 74.1745C265.504 73.5675 264.957 72.7062 264.755 71.5906L267.125 71.2297C267.273 71.8477 267.577 72.3152 268.036 72.6324C268.495 72.9441 269.094 73.0999 269.832 73.0999C270.636 73.0999 271.279 72.9331 271.76 72.5996C272.241 72.2605 272.482 71.8477 272.482 71.361C272.482 70.9672 272.334 70.6364 272.039 70.3684C271.749 70.1005 271.303 69.8981 270.702 69.7614L268.569 69.2939C267.393 69.0259 266.524 68.5994 265.961 68.0143C265.403 67.4291 265.124 66.6881 265.124 65.7913C265.124 65.0476 265.332 64.3969 265.747 63.8391C266.163 63.2813 266.737 62.8465 267.47 62.5348C268.203 62.2177 269.042 62.0591 269.988 62.0591C271.35 62.0591 272.422 62.3544 273.204 62.945C273.986 63.5301 274.502 64.3148 274.754 65.2992Z" fill="#171515"/>
<path d="M65.5486 11.1781C50.6444 -3.72605 26.0823 -3.72604 11.1781 11.1781C-3.72605 26.0823 -3.72605 50.6444 11.1781 65.5486C25.8439 80.2143 50.8829 80.6913 65.7871 65.7871C72.7342 58.8399 76.5671 49.8419 77.1039 40.6725C77.1525 39.843 77.3203 38.5961 77.3147 37.7653C77.3048 36.2733 77.0613 35.1973 76.8758 33.7133C76.2796 29.3016 72.7026 28.5862 69.6026 31.6863L65.8299 34.3026C65.7006 35.7354 65.4294 37.2903 65.4294 40.1519C65.3102 46.4713 62.9255 52.9099 57.9177 57.9177C48.6175 67.2179 33.9517 67.5756 23.5784 60.5408L65.4294 18.6898C67.9333 16.1859 68.6487 14.2782 67.3371 12.9666L65.5486 11.1781ZM19.0476 19.0476C28.3478 9.74734 42.4173 9.03193 52.9099 15.9475L15.9475 52.9099C9.03194 42.4173 9.74734 28.3478 19.0476 19.0476Z" fill="#171515"/>
<path d="M77.2241 65.7189C92.1283 80.623 116.69 80.623 131.595 65.7189C146.499 50.8147 146.499 26.2526 131.595 11.3484C116.929 -3.31733 91.8899 -3.79427 76.9857 11.1099C68.2816 19.814 64.4661 31.7373 65.8969 43.1837C66.4931 47.5954 70.0701 48.3108 73.1702 45.2107L74.7202 43.6607C76.7472 41.6337 77.3434 39.6067 77.3434 36.7451C77.4626 30.4258 79.8473 23.9871 84.8551 18.9793C94.1553 9.67912 108.821 9.32142 119.194 16.3562L77.3434 58.2072C74.8395 60.7111 74.1241 62.6188 75.4356 63.9304L77.2241 65.7189ZM123.725 57.8495C114.425 67.1497 100.355 67.8651 89.8629 60.9495L126.825 23.9871C133.741 34.4797 133.025 48.5492 123.725 57.8495Z" fill="#171515"/>
</svg>
