<svg width="67" height="37" viewBox="0 0 67 37" fill="none" xmlns="http://www.w3.org/2000/svg">
<g id="Group 1">
<g id="Exclude">
<path d="M30.7605 5.27554C23.7663 -1.75851 12.2398 -1.75851 5.24565 5.27554C-1.74855 12.3096 -1.74855 23.9017 5.24565 30.9358C12.1279 37.8573 23.8782 38.0824 30.8724 31.0483C34.1325 27.7696 35.9312 23.523 36.1831 19.1954C36.2059 18.804 36.2846 18.2155 36.282 17.8234C36.2774 17.1192 36.1631 16.6114 36.0761 15.911C35.7963 13.829 34.1177 13.4913 32.6629 14.9544L30.8925 16.1892C30.8318 16.8654 30.7045 17.5992 30.7045 18.9497C30.6486 21.9322 29.5295 24.9709 27.1794 27.3343C22.8151 31.7236 15.9328 31.8924 11.0648 28.5723L30.7045 8.8207C31.8795 7.63898 32.2153 6.73863 31.5998 6.11963L30.7605 5.27554ZM8.93858 8.98952C13.303 4.60027 19.9055 4.26264 24.8294 7.52644L7.48379 24.9709C4.23848 20.0189 4.5742 13.3788 8.93858 8.98952Z" fill="#171515"/>
<path d="M36.2395 31.0161C43.2337 38.0502 54.7602 38.0502 61.7544 31.0161C68.7485 23.9821 68.7486 12.3899 61.7544 5.35589C54.8721 -1.56562 43.1218 -1.79071 36.1276 5.24334C32.043 9.35123 30.2525 14.9785 30.9239 20.3806C31.2037 22.4627 32.8823 22.8003 34.3371 21.3373L35.0645 20.6057C36.0157 19.6491 36.2955 18.6925 36.2955 17.3419C36.3514 14.3595 37.4705 11.3208 39.8206 8.95733C44.1849 4.56808 51.0672 4.39926 55.9352 7.71933L36.2955 27.471C35.1205 28.6527 34.7847 29.553 35.4002 30.172L36.2395 31.0161ZM58.0614 27.3021C53.697 31.6914 47.0945 32.029 42.1706 28.7652L59.5162 11.3208C62.7615 16.2727 62.4258 22.9129 58.0614 27.3021Z" fill="#171515"/>
</g>
</g>
</svg>
