<svg width="184" height="52" viewBox="0 0 184 52" fill="none" xmlns="http://www.w3.org/2000/svg">
<g id="Group 1">
<g id="Design Neural Awareness">
<path d="M108.677 13.2451H105.038V2.00498H108.792C109.894 2.00498 110.839 2.23 111.63 2.68005C112.42 3.12643 113.026 3.76857 113.446 4.60646C113.871 5.44069 114.083 6.4414 114.083 7.60859C114.083 8.77944 113.869 9.78564 113.441 10.6272C113.016 11.4687 112.402 12.1164 111.597 12.5701C110.792 13.0201 109.819 13.2451 108.677 13.2451ZM106.734 11.7633H108.584C109.44 11.7633 110.152 11.6023 110.719 11.2803C111.286 10.9547 111.71 10.4845 111.992 9.86979C112.274 9.25144 112.415 8.4977 112.415 7.60859C112.415 6.72679 112.274 5.97855 111.992 5.36385C111.714 4.74916 111.299 4.28265 110.746 3.96432C110.194 3.646 109.508 3.48683 108.688 3.48683H106.734V11.7633Z" fill="white"/>
<path d="M119.693 13.4153C118.863 13.4153 118.148 13.2378 117.548 12.8829C116.951 12.5243 116.49 12.0212 116.164 11.3736C115.842 10.7223 115.681 9.95944 115.681 9.08496C115.681 8.22146 115.842 7.4604 116.164 6.8018C116.49 6.1432 116.944 5.62912 117.526 5.25957C118.111 4.89002 118.795 4.70525 119.578 4.70525C120.054 4.70525 120.515 4.78392 120.961 4.94125C121.408 5.09858 121.808 5.34556 122.163 5.68218C122.518 6.0188 122.798 6.45604 123.003 6.99389C123.208 7.5281 123.31 8.17755 123.31 8.94226V9.52403H116.609V8.29464H121.702C121.702 7.86288 121.614 7.48053 121.439 7.14757C121.263 6.81095 121.016 6.54568 120.698 6.35176C120.383 6.15783 120.014 6.06087 119.589 6.06087C119.128 6.06087 118.726 6.1743 118.382 6.40115C118.041 6.62435 117.778 6.91706 117.591 7.27929C117.408 7.63786 117.317 8.02754 117.317 8.44831V9.40877C117.317 9.97224 117.416 10.4516 117.613 10.8467C117.815 11.2419 118.095 11.5437 118.453 11.7523C118.812 11.9572 119.231 12.0596 119.71 12.0596C120.021 12.0596 120.305 12.0157 120.561 11.9279C120.817 11.8365 121.038 11.7011 121.225 11.5218C121.411 11.3425 121.554 11.1211 121.653 10.8577L123.206 11.1376C123.082 11.595 122.858 11.9956 122.536 12.3396C122.218 12.6798 121.817 12.9451 121.335 13.1354C120.855 13.322 120.308 13.4153 119.693 13.4153Z" fill="white"/>
<path d="M131.448 6.87315L129.961 7.13659C129.899 6.94633 129.8 6.76521 129.664 6.59324C129.533 6.42128 129.353 6.28041 129.127 6.17064C128.9 6.06087 128.616 6.00599 128.276 6.00599C127.811 6.00599 127.423 6.11027 127.112 6.31883C126.801 6.52373 126.646 6.789 126.646 7.11464C126.646 7.39637 126.75 7.62323 126.959 7.79519C127.167 7.96716 127.504 8.10803 127.969 8.2178L129.308 8.52515C130.083 8.70443 130.662 8.98068 131.042 9.35389C131.423 9.7271 131.613 10.2119 131.613 10.8083C131.613 11.3132 131.466 11.7633 131.174 12.1584C130.885 12.5499 130.48 12.8573 129.961 13.0805C129.445 13.3037 128.847 13.4153 128.166 13.4153C127.222 13.4153 126.452 13.214 125.856 12.8116C125.259 12.4054 124.893 11.8291 124.758 11.0827L126.344 10.8412C126.443 11.2547 126.646 11.5675 126.953 11.7797C127.261 11.9883 127.661 12.0926 128.155 12.0926C128.693 12.0926 129.123 11.981 129.445 11.7578C129.767 11.5309 129.928 11.2547 129.928 10.929C129.928 10.6656 129.829 10.4442 129.632 10.265C129.438 10.0857 129.139 9.95029 128.737 9.85882L127.31 9.54598C126.523 9.36669 125.942 9.0813 125.565 8.6898C125.191 8.29829 125.005 7.80251 125.005 7.20245C125.005 6.70484 125.144 6.26943 125.422 5.89622C125.7 5.52301 126.084 5.23213 126.575 5.02357C127.065 4.81136 127.626 4.70525 128.259 4.70525C129.171 4.70525 129.888 4.90283 130.411 5.29799C130.934 5.68949 131.28 6.21455 131.448 6.87315Z" fill="white"/>
<path d="M133.417 13.2451V4.81502H135.058V13.2451H133.417ZM134.246 3.51428C133.96 3.51428 133.715 3.41914 133.51 3.22888C133.309 3.03496 133.209 2.80445 133.209 2.53735C133.209 2.26659 133.309 2.03608 133.51 1.84581C133.715 1.65189 133.96 1.55493 134.246 1.55493C134.531 1.55493 134.775 1.65189 134.976 1.84581C135.181 2.03608 135.283 2.26659 135.283 2.53735C135.283 2.80445 135.181 3.03496 134.976 3.22888C134.775 3.41914 134.531 3.51428 134.246 3.51428Z" fill="white"/>
<path d="M140.8 16.5821C140.131 16.5821 139.554 16.4942 139.071 16.3186C138.592 16.143 138.201 15.9106 137.897 15.6216C137.593 15.3325 137.366 15.016 137.216 14.6721L138.627 14.0903C138.726 14.2513 138.857 14.4215 139.022 14.6008C139.19 14.7837 139.417 14.9392 139.703 15.0673C139.992 15.1953 140.363 15.2594 140.817 15.2594C141.439 15.2594 141.953 15.1075 142.359 14.8038C142.765 14.5038 142.968 14.0245 142.968 13.3659V11.7084H142.864C142.765 11.8877 142.622 12.0871 142.436 12.3066C142.253 12.5262 142 12.7164 141.678 12.8774C141.356 13.0384 140.938 13.1189 140.422 13.1189C139.756 13.1189 139.156 12.9634 138.621 12.6524C138.091 12.3377 137.67 11.8749 137.359 11.2638C137.052 10.6491 136.898 9.89358 136.898 8.99714C136.898 8.10071 137.05 7.33234 137.354 6.69204C137.661 6.05173 138.082 5.56143 138.616 5.22116C139.15 4.87722 139.756 4.70525 140.433 4.70525C140.956 4.70525 141.378 4.79306 141.7 4.96869C142.022 5.14066 142.273 5.3419 142.452 5.57241C142.635 5.80292 142.776 6.00599 142.875 6.18162H142.996V4.81502H144.604V13.4317C144.604 14.1562 144.435 14.7508 144.099 15.2155C143.762 15.6801 143.307 16.0241 142.732 16.2473C142.161 16.4705 141.517 16.5821 140.8 16.5821ZM140.784 11.7578C141.256 11.7578 141.655 11.648 141.98 11.4285C142.31 11.2053 142.558 10.887 142.727 10.4735C142.899 10.0564 142.985 9.55696 142.985 8.97519C142.985 8.40806 142.901 7.90862 142.732 7.47687C142.564 7.04512 142.317 6.7085 141.991 6.46701C141.666 6.22187 141.263 6.09929 140.784 6.09929C140.29 6.09929 139.878 6.22735 139.549 6.48348C139.22 6.73594 138.971 7.07988 138.803 7.51529C138.638 7.9507 138.556 8.43733 138.556 8.97519C138.556 9.52769 138.64 10.0125 138.808 10.4296C138.976 10.8467 139.225 11.1724 139.554 11.4065C139.887 11.6407 140.297 11.7578 140.784 11.7578Z" fill="white"/>
<path d="M148.446 8.23975V13.2451H146.805V4.81502H148.38V6.18711H148.484C148.678 5.74072 148.982 5.38215 149.395 5.11139C149.812 4.84063 150.337 4.70525 150.97 4.70525C151.545 4.70525 152.048 4.82599 152.48 5.06748C152.911 5.30531 153.246 5.66022 153.484 6.13222C153.722 6.60422 153.841 7.18782 153.841 7.88301V13.2451H152.2V8.08059C152.2 7.46955 152.04 6.99207 151.722 6.64813C151.404 6.30053 150.967 6.12673 150.41 6.12673C150.03 6.12673 149.691 6.20906 149.395 6.37371C149.102 6.53836 148.87 6.77985 148.698 7.09817C148.53 7.41284 148.446 7.79337 148.446 8.23975Z" fill="white"/>
<path d="M114.11 20.5597V31.7998H112.552L106.838 23.5563H106.734V31.7998H105.038V20.5597H106.608L112.327 28.8142H112.431V20.5597H114.11Z" fill="white"/>
<path d="M120.086 31.97C119.255 31.97 118.54 31.7925 117.94 31.4376C117.344 31.079 116.883 30.5759 116.557 29.9283C116.235 29.277 116.074 28.5141 116.074 27.6397C116.074 26.7762 116.235 26.0151 116.557 25.3565C116.883 24.6979 117.336 24.1838 117.918 23.8143C118.503 23.4447 119.188 23.26 119.971 23.26C120.446 23.26 120.907 23.3386 121.354 23.496C121.8 23.6533 122.201 23.9003 122.556 24.2369C122.911 24.5735 123.19 25.0107 123.395 25.5486C123.6 26.0828 123.703 26.7323 123.703 27.497V28.0787H117.001V26.8493H122.095C122.095 26.4176 122.007 26.0352 121.831 25.7023C121.656 25.3657 121.409 25.1004 121.09 24.9065C120.776 24.7125 120.406 24.6156 119.982 24.6156C119.521 24.6156 119.118 24.729 118.774 24.9559C118.434 25.1791 118.17 25.4718 117.984 25.834C117.801 26.1926 117.709 26.5822 117.709 27.003V27.9635C117.709 28.5269 117.808 29.0063 118.006 29.4014C118.207 29.7966 118.487 30.0984 118.846 30.307C119.204 30.5119 119.623 30.6144 120.102 30.6144C120.413 30.6144 120.697 30.5704 120.953 30.4826C121.209 30.3912 121.431 30.2558 121.617 30.0765C121.804 29.8972 121.946 29.6758 122.045 29.4124L123.598 29.6923C123.474 30.1497 123.251 30.5503 122.929 30.8943C122.611 31.2345 122.21 31.4998 121.727 31.6901C121.248 31.8767 120.701 31.97 120.086 31.97Z" fill="white"/>
<path d="M130.864 28.3038V23.3697H132.51V31.7998H130.897V30.3399H130.809C130.615 30.79 130.304 31.165 129.876 31.4651C129.451 31.7614 128.923 31.9096 128.29 31.9096C127.748 31.9096 127.269 31.7907 126.852 31.5529C126.438 31.3114 126.113 30.9546 125.875 30.4826C125.641 30.0106 125.523 29.427 125.523 28.7318V23.3697H127.165V28.5343C127.165 29.1087 127.324 29.5661 127.642 29.9064C127.96 30.2466 128.374 30.4168 128.882 30.4168C129.19 30.4168 129.495 30.3399 129.799 30.1863C130.106 30.0326 130.361 29.8002 130.562 29.4892C130.767 29.1782 130.867 28.7831 130.864 28.3038Z" fill="white"/>
<path d="M134.715 31.7998V23.3697H136.301V24.7089H136.389C136.543 24.2552 136.813 23.8984 137.201 23.6387C137.593 23.3752 138.036 23.2435 138.53 23.2435C138.632 23.2435 138.753 23.2471 138.892 23.2545C139.034 23.2618 139.146 23.2709 139.227 23.2819V24.8516C139.161 24.8333 139.044 24.8132 138.875 24.7912C138.707 24.7656 138.539 24.7528 138.37 24.7528C137.983 24.7528 137.637 24.8351 137.333 24.9998C137.033 25.1608 136.795 25.3858 136.62 25.6748C136.444 25.9602 136.356 26.2859 136.356 26.6518V31.7998H134.715Z" fill="white"/>
<path d="M143.024 31.9864C142.49 31.9864 142.007 31.8877 141.576 31.6901C141.144 31.4888 140.802 31.198 140.549 30.8174C140.3 30.4369 140.176 29.9704 140.176 29.4179C140.176 28.9422 140.268 28.5507 140.45 28.2434C140.633 27.936 140.88 27.6927 141.191 27.5134C141.502 27.3341 141.85 27.1988 142.234 27.1073C142.618 27.0158 143.01 26.9463 143.409 26.8987C143.914 26.8402 144.323 26.7926 144.638 26.756C144.953 26.7158 145.181 26.6518 145.324 26.5639C145.467 26.4761 145.538 26.3334 145.538 26.1359V26.0974C145.538 25.6181 145.403 25.2467 145.132 24.9833C144.865 24.7199 144.466 24.5881 143.936 24.5881C143.383 24.5881 142.948 24.7107 142.629 24.9559C142.315 25.1973 142.097 25.4663 141.976 25.7626L140.434 25.4114C140.617 24.8991 140.884 24.4857 141.235 24.171C141.59 23.8527 141.998 23.6222 142.459 23.4795C142.92 23.3331 143.405 23.26 143.914 23.26C144.25 23.26 144.607 23.3002 144.984 23.3807C145.364 23.4575 145.719 23.6002 146.049 23.8088C146.382 24.0173 146.654 24.3155 146.866 24.7034C147.079 25.0876 147.185 25.587 147.185 26.2017V31.7998H145.582V30.6473H145.516C145.41 30.8595 145.251 31.0681 145.039 31.273C144.826 31.4779 144.554 31.648 144.221 31.7834C143.888 31.9188 143.489 31.9864 143.024 31.9864ZM143.381 30.6692C143.835 30.6692 144.223 30.5796 144.545 30.4003C144.87 30.221 145.117 29.9869 145.286 29.6978C145.458 29.4051 145.544 29.0923 145.544 28.7593V27.6726C145.485 27.7311 145.372 27.786 145.203 27.8372C145.039 27.8848 144.85 27.9269 144.638 27.9635C144.426 27.9964 144.219 28.0275 144.018 28.0568C143.817 28.0824 143.648 28.1043 143.513 28.1226C143.195 28.1629 142.904 28.2306 142.64 28.3257C142.381 28.4208 142.172 28.5581 142.015 28.7373C141.861 28.913 141.784 29.1471 141.784 29.4398C141.784 29.846 141.934 30.1533 142.234 30.3619C142.534 30.5668 142.917 30.6692 143.381 30.6692Z" fill="white"/>
<path d="M151.011 20.5597V31.7998H149.37V20.5597H151.011Z" fill="white"/>
<path d="M105.988 50.3545H104.188L108.232 39.1144H110.192L114.237 50.3545H112.437L109.259 41.1561H109.171L105.988 50.3545ZM106.29 45.9529H112.129V47.3799H106.29V45.9529Z" fill="white"/>
<path d="M116.499 50.3545L114.019 41.9244H115.714L117.366 48.1153H117.449L119.106 41.9244H120.802L122.449 48.0879H122.531L124.172 41.9244H125.868L123.393 50.3545H121.719L120.006 44.268H119.88L118.168 50.3545H116.499Z" fill="white"/>
<path d="M129.879 50.5411C129.344 50.5411 128.861 50.4424 128.43 50.2448C127.998 50.0435 127.656 49.7527 127.403 49.3721C127.154 48.9916 127.03 48.5251 127.03 47.9726C127.03 47.4969 127.122 47.1054 127.304 46.7981C127.487 46.4907 127.734 46.2474 128.045 46.0681C128.356 45.8889 128.704 45.7535 129.088 45.662C129.472 45.5705 129.864 45.501 130.263 45.4534C130.768 45.3949 131.177 45.3473 131.492 45.3107C131.807 45.2705 132.035 45.2065 132.178 45.1186C132.321 45.0308 132.392 44.8881 132.392 44.6906V44.6521C132.392 44.1728 132.257 43.8014 131.986 43.538C131.719 43.2746 131.32 43.1428 130.79 43.1428C130.237 43.1428 129.802 43.2654 129.483 43.5106C129.169 43.752 128.951 44.021 128.83 44.3174L127.288 43.9661C127.471 43.4538 127.738 43.0404 128.089 42.7257C128.444 42.4074 128.852 42.1769 129.313 42.0342C129.774 41.8878 130.259 41.8147 130.768 41.8147C131.104 41.8147 131.461 41.8549 131.838 41.9354C132.218 42.0122 132.573 42.1549 132.903 42.3635C133.236 42.572 133.508 42.8703 133.72 43.2581C133.933 43.6423 134.039 44.1417 134.039 44.7564V50.3545H132.436V49.202H132.37C132.264 49.4142 132.105 49.6228 131.893 49.8277C131.681 50.0326 131.408 50.2027 131.075 50.3381C130.742 50.4735 130.343 50.5411 129.879 50.5411ZM130.235 49.2239C130.689 49.2239 131.077 49.1343 131.399 48.955C131.724 48.7757 131.971 48.5416 132.14 48.2525C132.312 47.9598 132.398 47.647 132.398 47.314V46.2273C132.339 46.2858 132.226 46.3407 132.057 46.3919C131.893 46.4395 131.704 46.4816 131.492 46.5182C131.28 46.5511 131.073 46.5822 130.872 46.6115C130.671 46.6371 130.502 46.659 130.367 46.6773C130.049 46.7176 129.758 46.7853 129.494 46.8804C129.235 46.9755 129.026 47.1128 128.869 47.292C128.715 47.4677 128.638 47.7018 128.638 47.9945C128.638 48.4007 128.788 48.708 129.088 48.9166C129.388 49.1215 129.771 49.2239 130.235 49.2239Z" fill="white"/>
<path d="M136.224 50.3545V41.9244H137.811V43.2636H137.898C138.052 42.8099 138.323 42.4531 138.711 42.1934C139.102 41.9299 139.545 41.7982 140.039 41.7982C140.141 41.7982 140.262 41.8019 140.401 41.8092C140.544 41.8165 140.655 41.8256 140.736 41.8366V43.4063C140.67 43.388 140.553 43.3679 140.385 43.3459C140.216 43.3203 140.048 43.3075 139.88 43.3075C139.492 43.3075 139.146 43.3898 138.842 43.5545C138.542 43.7155 138.305 43.9405 138.129 44.2295C137.953 44.5149 137.865 44.8406 137.865 45.2065V50.3545H136.224Z" fill="white"/>
<path d="M145.487 50.5247C144.657 50.5247 143.942 50.3472 143.341 49.9923C142.745 49.6337 142.284 49.1306 141.958 48.483C141.636 47.8317 141.475 47.0688 141.475 46.1944C141.475 45.3309 141.636 44.5698 141.958 43.9112C142.284 43.2526 142.738 42.7385 143.319 42.369C143.905 41.9994 144.589 41.8147 145.372 41.8147C145.848 41.8147 146.309 41.8933 146.755 42.0507C147.202 42.208 147.602 42.455 147.957 42.7916C148.312 43.1282 148.592 43.5654 148.797 44.1033C149.002 44.6375 149.104 45.287 149.104 46.0517V46.6334H142.403V45.404H147.496C147.496 44.9723 147.408 44.5899 147.233 44.257C147.057 43.9204 146.81 43.6551 146.492 43.4612C146.177 43.2672 145.808 43.1703 145.383 43.1703C144.922 43.1703 144.52 43.2837 144.176 43.5106C143.835 43.7338 143.572 44.0265 143.385 44.3887C143.202 44.7473 143.111 45.1369 143.111 45.5577V46.5182C143.111 47.0816 143.21 47.561 143.407 47.9561C143.609 48.3513 143.888 48.6532 144.247 48.8617C144.606 49.0666 145.025 49.1691 145.504 49.1691C145.815 49.1691 146.098 49.1251 146.355 49.0373C146.611 48.9459 146.832 48.8105 147.019 48.6312C147.205 48.4519 147.348 48.2305 147.447 47.9671L149 48.247C148.876 48.7044 148.652 49.105 148.33 49.449C148.012 49.7892 147.611 50.0545 147.128 50.2448C146.649 50.4314 146.102 50.5247 145.487 50.5247Z" fill="white"/>
<path d="M152.566 45.3492V50.3545H150.925V41.9244H152.5V43.2965H152.604C152.798 42.8501 153.102 42.4916 153.515 42.2208C153.933 41.95 154.458 41.8147 155.091 41.8147C155.665 41.8147 156.168 41.9354 156.6 42.1769C157.032 42.4147 157.366 42.7696 157.604 43.2416C157.842 43.7136 157.961 44.2972 157.961 44.9924V50.3545H156.32V45.19C156.32 44.579 156.161 44.1015 155.843 43.7575C155.524 43.4099 155.087 43.2361 154.531 43.2361C154.15 43.2361 153.812 43.3185 153.515 43.4831C153.223 43.6478 152.99 43.8893 152.818 44.2076C152.65 44.5222 152.566 44.9028 152.566 45.3492Z" fill="white"/>
<path d="M163.795 50.5247C162.965 50.5247 162.249 50.3472 161.649 49.9923C161.053 49.6337 160.592 49.1306 160.266 48.483C159.944 47.8317 159.783 47.0688 159.783 46.1944C159.783 45.3309 159.944 44.5698 160.266 43.9112C160.592 43.2526 161.046 42.7385 161.627 42.369C162.213 41.9994 162.897 41.8147 163.68 41.8147C164.156 41.8147 164.617 41.8933 165.063 42.0507C165.509 42.208 165.91 42.455 166.265 42.7916C166.62 43.1282 166.9 43.5654 167.105 44.1033C167.31 44.6375 167.412 45.287 167.412 46.0517V46.6334H160.711V45.404H165.804C165.804 44.9723 165.716 44.5899 165.54 44.257C165.365 43.9204 165.118 43.6551 164.8 43.4612C164.485 43.2672 164.115 43.1703 163.691 43.1703C163.23 43.1703 162.827 43.2837 162.483 43.5106C162.143 43.7338 161.88 44.0265 161.693 44.3887C161.51 44.7473 161.419 45.1369 161.419 45.5577V46.5182C161.419 47.0816 161.518 47.561 161.715 47.9561C161.916 48.3513 162.196 48.6532 162.555 48.8617C162.913 49.0666 163.332 49.1691 163.812 49.1691C164.123 49.1691 164.406 49.1251 164.662 49.0373C164.918 48.9459 165.14 48.8105 165.326 48.6312C165.513 48.4519 165.656 48.2305 165.755 47.9671L167.308 48.247C167.183 48.7044 166.96 49.105 166.638 49.449C166.32 49.7892 165.919 50.0545 165.436 50.2448C164.957 50.4314 164.41 50.5247 163.795 50.5247Z" fill="white"/>
<path d="M175.55 43.9826L174.063 44.246C174 44.0557 173.902 43.8746 173.766 43.7027C173.634 43.5307 173.455 43.3898 173.228 43.28C173.001 43.1703 172.718 43.1154 172.378 43.1154C171.913 43.1154 171.525 43.2197 171.214 43.4282C170.903 43.6331 170.748 43.8984 170.748 44.224C170.748 44.5058 170.852 44.7326 171.06 44.9046C171.269 45.0766 171.606 45.2174 172.07 45.3272L173.409 45.6346C174.185 45.8138 174.763 46.0901 175.144 46.4633C175.524 46.8365 175.715 47.3213 175.715 47.9177C175.715 48.4226 175.568 48.8727 175.275 49.2678C174.986 49.6594 174.582 49.9667 174.063 50.1899C173.547 50.4131 172.948 50.5247 172.268 50.5247C171.324 50.5247 170.554 50.3234 169.957 49.921C169.361 49.5148 168.995 48.9385 168.86 48.1921L170.446 47.9506C170.544 48.3641 170.748 48.6769 171.055 48.8891C171.362 49.0977 171.763 49.202 172.257 49.202C172.795 49.202 173.225 49.0904 173.547 48.8672C173.869 48.6403 174.03 48.3641 174.03 48.0385C174.03 47.775 173.931 47.5536 173.733 47.3744C173.539 47.1951 173.241 47.0597 172.839 46.9682L171.412 46.6554C170.625 46.4761 170.043 46.1907 169.666 45.7992C169.293 45.4077 169.107 44.9119 169.107 44.3119C169.107 43.8142 169.246 43.3788 169.524 43.0056C169.802 42.6324 170.186 42.3415 170.676 42.133C171.167 41.9208 171.728 41.8147 172.361 41.8147C173.272 41.8147 173.989 42.0122 174.513 42.4074C175.036 42.7989 175.382 43.324 175.55 43.9826Z" fill="white"/>
<path d="M183.836 43.9826L182.349 44.246C182.286 44.0557 182.188 43.8746 182.052 43.7027C181.92 43.5307 181.741 43.3898 181.514 43.28C181.287 43.1703 181.004 43.1154 180.664 43.1154C180.199 43.1154 179.811 43.2197 179.5 43.4282C179.189 43.6331 179.034 43.8984 179.034 44.224C179.034 44.5058 179.138 44.7326 179.346 44.9046C179.555 45.0766 179.892 45.2174 180.356 45.3272L181.695 45.6346C182.471 45.8138 183.049 46.0901 183.43 46.4633C183.81 46.8365 184.001 47.3213 184.001 47.9177C184.001 48.4226 183.854 48.8727 183.561 49.2678C183.272 49.6594 182.868 49.9667 182.349 50.1899C181.833 50.4131 181.234 50.5247 180.554 50.5247C179.61 50.5247 178.84 50.3234 178.243 49.921C177.647 49.5148 177.281 48.9385 177.146 48.1921L178.732 47.9506C178.831 48.3641 179.034 48.6769 179.341 48.8891C179.648 49.0977 180.049 49.202 180.543 49.202C181.081 49.202 181.511 49.0904 181.833 48.8672C182.155 48.6403 182.316 48.3641 182.316 48.0385C182.316 47.775 182.217 47.5536 182.019 47.3744C181.825 47.1951 181.527 47.0597 181.125 46.9682L179.698 46.6554C178.911 46.4761 178.329 46.1907 177.952 45.7992C177.579 45.4077 177.393 44.9119 177.393 44.3119C177.393 43.8142 177.532 43.3788 177.81 43.0056C178.088 42.6324 178.472 42.3415 178.962 42.133C179.453 41.9208 180.014 41.8147 180.647 41.8147C181.558 41.8147 182.275 42.0122 182.799 42.4074C183.322 42.7989 183.668 43.324 183.836 43.9826Z" fill="white"/>
</g>
<g id="Exclude">
<path d="M43.8579 7.77069C33.8857 -2.20156 17.4514 -2.20156 7.47919 7.77069C-2.49306 17.7429 -2.49306 34.1772 7.47918 44.1494C17.2919 53.9621 34.0453 54.2812 44.0175 44.309C48.6658 39.6607 51.2303 33.6403 51.5895 27.5051C51.622 26.9501 51.7342 26.1158 51.7305 25.5599C51.7239 24.5616 51.561 23.8417 51.4369 22.8487C51.038 19.8969 48.6446 19.4183 46.5704 21.4925L44.0461 23.243C43.9596 24.2017 43.7782 25.2421 43.7782 27.1567C43.6984 31.385 42.1028 35.693 38.7522 39.0437C32.5295 45.2663 22.7168 45.5057 15.7761 40.7988L43.7782 12.7967C45.4535 11.1214 45.9322 9.84492 45.0546 8.96736L43.8579 7.77069ZM12.7445 13.036C18.9672 6.81335 28.381 6.33468 35.4015 10.9618L10.6703 35.693C6.04318 28.6725 6.52185 19.2587 12.7445 13.036Z" fill="white"/>
<path d="M51.6699 44.2634C61.6422 54.2356 78.0764 54.2356 88.0487 44.2634C98.0209 34.2911 98.0209 17.8568 88.0487 7.8846C78.236 -1.92809 61.4826 -2.2472 51.5104 7.72504C45.6866 13.5488 43.1337 21.5266 44.091 29.1853C44.4899 32.1371 46.8832 32.6158 48.9575 30.5415L49.9946 29.5044C51.3508 28.1482 51.7497 26.792 51.7497 24.8773C51.8295 20.6491 53.425 16.3411 56.7757 12.9904C62.9984 6.76771 72.8111 6.52838 79.7518 11.2353L51.7497 39.2373C50.0744 40.9127 49.5957 42.1891 50.4732 43.0667L51.6699 44.2634ZM82.7833 38.998C76.5607 45.2207 67.1468 45.6994 60.1264 41.0722L84.8576 16.3411C89.4847 23.3615 89.006 32.7753 82.7833 38.998Z" fill="white"/>
</g>
</g>
</svg>
