<svg width="190" height="103" viewBox="0 0 190 103" fill="none" xmlns="http://www.w3.org/2000/svg">
<path d="M87.2312 14.9726C67.3969 -4.99087 34.71 -4.99087 14.8757 14.9726C-4.95857 34.9361 -4.95857 67.8359 14.8757 87.7994C34.3927 107.443 67.7143 108.082 87.5485 88.1188C96.7937 78.8134 101.894 66.761 102.609 54.4789C102.673 53.3679 102.897 51.6978 102.889 50.5848C102.876 48.5864 102.552 47.1451 102.305 45.1574C101.512 39.2482 96.7516 38.2899 92.6261 42.4423L87.6055 45.9468C87.4335 47.8659 87.0725 49.9486 87.0725 53.7816C86.9138 62.2461 83.7404 70.8703 77.076 77.5781C64.6994 90.0353 45.1825 90.5144 31.3778 81.0916L87.0725 25.0342C90.4047 21.6803 91.3567 19.125 89.6113 17.3682L87.2312 14.9726ZM25.3482 25.5133C37.7248 13.0561 56.4484 12.0979 70.4117 21.3609L21.2227 70.8703C12.0196 56.816 12.9716 37.9705 25.3482 25.5133Z" fill="white"/>
<path d="M102.769 88.0274C122.603 107.991 155.29 107.991 175.124 88.0274C194.959 68.0639 194.959 35.1641 175.124 15.2006C155.607 -4.44341 122.286 -5.08225 102.451 14.8812C90.8682 26.5399 85.7907 42.5107 87.6947 57.8426C88.4881 63.7518 93.2484 64.7101 97.3739 60.5577L99.4366 58.4815C102.134 55.7664 102.927 53.0514 102.927 49.2184C103.086 40.7539 106.26 32.1297 112.924 25.4219C125.301 12.9647 144.818 12.4856 158.622 21.9084L102.927 77.9658C99.5953 81.3197 98.6433 83.875 100.389 85.6318L102.769 88.0274ZM164.652 77.4867C152.275 89.9439 133.552 90.9021 119.588 81.6391L168.777 32.1297C177.98 46.184 177.028 65.0295 164.652 77.4867Z" fill="white"/>
</svg>
