<svg width="377" height="94" viewBox="0 0 377 94" fill="none" xmlns="http://www.w3.org/2000/svg">
<path fill-rule="evenodd" clip-rule="evenodd" d="M94 47C94 21.0426 72.9574 0 47 0C21.0426 0 0 21.0426 0 47C0 72.9574 21.0426 94 47 94H47.0026C72.9588 93.9986 94 72.9565 94 47ZM20.3423 51.7C20.9398 62.2585 23.5291 71.7892 27.4417 79.1191C16.6225 72.517 9.4 60.602 9.4 47C9.4 33.398 16.6225 21.483 27.4417 14.8808C23.5291 22.2108 20.9398 31.7414 20.3423 42.3H29.759C30.3761 32.6453 32.8565 24.3272 36.2231 18.4209C38.2968 14.7828 40.3988 12.5067 42.3 11.1509V42.3H51.7V11.1509C53.6011 12.5067 55.7032 14.7828 57.7769 18.4209C61.1435 24.3272 63.6239 32.6453 64.241 42.3H73.6577C73.0603 31.7414 70.4709 22.2108 66.5583 14.8809C77.3775 21.4831 84.6 33.3982 84.6 47C84.6 60.6018 77.3775 72.517 66.5583 79.1191C70.4709 71.7892 73.0603 62.2585 73.6577 51.7H64.241C63.6239 61.3547 61.1435 69.6728 57.7769 75.5791C55.7032 79.2171 53.6011 81.4933 51.7 82.849V51.7H42.3V82.849C40.3988 81.4933 38.2968 79.2171 36.2231 75.5791C32.8565 69.6728 30.3761 61.3547 29.759 51.7H20.3423Z" fill="#0D292C"/>
<path d="M113 17.5H121.153L129.435 52.5533H129.564L138.808 17.5H147.026L156.014 52.5533H156.143L164.681 17.5H172.835L160.187 63.339H152.034L142.853 28.2856H142.725L133.351 63.339H125.07L113 17.5Z" fill="#0D292C"/>
<path d="M201.682 55.9563C201.682 56.8551 201.789 57.4971 202.003 57.8823C202.26 58.2675 202.731 58.4601 203.416 58.4601C203.63 58.4601 203.886 58.4601 204.186 58.4601C204.486 58.4601 204.828 58.4173 205.213 58.3317V63.4035C204.956 63.4891 204.614 63.5747 204.186 63.6603C203.801 63.7887 203.394 63.8957 202.966 63.9813C202.538 64.0669 202.11 64.1311 201.682 64.1739C201.254 64.2167 200.89 64.2381 200.591 64.2381C199.093 64.2381 197.851 63.9385 196.867 63.3393C195.883 62.7401 195.241 61.6915 194.941 60.1935C193.486 61.6059 191.688 62.6331 189.548 63.2751C187.451 63.9171 185.418 64.2381 183.449 64.2381C181.951 64.2381 180.517 64.0241 179.148 63.5961C177.778 63.2109 176.559 62.6331 175.489 61.8627C174.461 61.0495 173.627 60.0437 172.985 58.8453C172.386 57.6041 172.086 56.1703 172.086 54.5439C172.086 52.4895 172.45 50.8203 173.177 49.5363C173.948 48.2523 174.932 47.2465 176.131 46.5189C177.372 45.7913 178.741 45.2777 180.239 44.9781C181.78 44.6357 183.321 44.3789 184.862 44.2077C186.188 43.9509 187.451 43.7797 188.649 43.6941C189.848 43.5657 190.896 43.3731 191.795 43.1163C192.737 42.8595 193.464 42.4743 193.978 41.9607C194.534 41.4043 194.813 40.5911 194.813 39.5211C194.813 38.5795 194.577 37.8091 194.106 37.2099C193.678 36.6106 193.122 36.1612 192.437 35.8616C191.795 35.5192 191.068 35.3052 190.254 35.2196C189.441 35.0912 188.671 35.027 187.943 35.027C185.889 35.027 184.198 35.455 182.871 36.311C181.545 37.1671 180.796 38.4939 180.624 40.2915H173.306C173.434 38.1515 173.948 36.3752 174.847 34.9628C175.745 33.5504 176.88 32.4162 178.249 31.5602C179.662 30.7042 181.245 30.105 183 29.7626C184.755 29.4202 186.552 29.249 188.393 29.249C190.019 29.249 191.624 29.4202 193.208 29.7626C194.791 30.105 196.204 30.6614 197.445 31.4318C198.729 32.2022 199.756 33.208 200.527 34.4492C201.297 35.6476 201.682 37.1243 201.682 38.8791V55.9563ZM194.363 46.7115C193.25 47.4391 191.881 47.8885 190.254 48.0597C188.628 48.1881 187.002 48.4021 185.375 48.7017C184.605 48.8301 183.856 49.0227 183.128 49.2795C182.401 49.4935 181.759 49.8145 181.202 50.2425C180.646 50.6277 180.196 51.1627 179.854 51.8475C179.555 52.4895 179.405 53.2813 179.405 54.2229C179.405 55.0361 179.64 55.7209 180.111 56.2773C180.582 56.8337 181.138 57.2831 181.78 57.6255C182.465 57.9251 183.192 58.1391 183.963 58.2675C184.776 58.3959 185.504 58.4601 186.146 58.4601C186.959 58.4601 187.836 58.3531 188.778 58.1391C189.719 57.9251 190.597 57.5613 191.41 57.0477C192.266 56.5341 192.972 55.8921 193.529 55.1217C194.085 54.3085 194.363 53.3241 194.363 52.1685V46.7115Z" fill="#0D292C"/>
<path d="M205.898 30.1475H213.923L222.59 54.9287H222.719L231.129 30.1475H238.769L225.865 65.1366C225.266 66.6346 224.666 68.0684 224.067 69.438C223.511 70.8076 222.804 72.006 221.948 73.0332C221.135 74.1032 220.108 74.9378 218.867 75.537C217.626 76.179 216.042 76.5 214.116 76.5C212.404 76.5 210.713 76.3716 209.044 76.1148V69.9516C209.643 70.0372 210.221 70.1228 210.778 70.2084C211.334 70.3368 211.912 70.401 212.511 70.401C213.367 70.401 214.073 70.294 214.63 70.08C215.186 69.866 215.635 69.545 215.978 69.117C216.363 68.7318 216.684 68.261 216.941 67.7046C217.198 67.1482 217.433 66.5062 217.647 65.7786L218.482 63.2106L205.898 30.1475Z" fill="#0D292C"/>
<path d="M240.857 30.1474H246.314V27.3868C246.314 25.2896 246.571 23.599 247.085 22.315C247.598 20.9882 248.283 19.9824 249.139 19.2976C249.995 18.57 250.958 18.0992 252.028 17.8852C253.141 17.6284 254.297 17.5 255.495 17.5C257.849 17.5 259.561 17.6498 260.631 17.9494V23.6632C260.16 23.5348 259.647 23.4492 259.09 23.4064C258.577 23.3208 257.956 23.278 257.228 23.278C256.244 23.278 255.388 23.5134 254.66 23.9842C253.976 24.455 253.633 25.3752 253.633 26.7448V30.1474H259.861V35.6045H253.633V63.339H246.314V35.6045H240.857V30.1474Z" fill="#0D292C"/>
<path d="M292.183 55.9563C292.183 56.8551 292.29 57.4971 292.504 57.8823C292.761 58.2675 293.232 58.4601 293.916 58.4601C294.13 58.4601 294.386 58.4601 294.686 58.4601C294.986 58.4601 295.329 58.4173 295.714 58.3317V63.4035C295.457 63.4891 295.115 63.5747 294.686 63.6603C294.301 63.7887 293.894 63.8957 293.466 63.9813C293.038 64.0669 292.611 64.1311 292.183 64.1739C291.755 64.2167 291.391 64.2381 291.092 64.2381C289.594 64.2381 288.352 63.9385 287.367 63.3393C286.383 62.7401 285.741 61.6915 285.441 60.1935C283.986 61.6059 282.188 62.6331 280.048 63.2751C277.951 63.9171 275.918 64.2381 273.949 64.2381C272.451 64.2381 271.018 64.0241 269.648 63.5961C268.278 63.2109 267.059 62.6331 265.989 61.8627C264.961 61.0495 264.127 60.0437 263.485 58.8453C262.886 57.6041 262.586 56.1703 262.586 54.5439C262.586 52.4895 262.95 50.8203 263.677 49.5363C264.448 48.2523 265.432 47.2465 266.631 46.5189C267.872 45.7913 269.241 45.2777 270.739 44.9781C272.28 44.6357 273.821 44.3789 275.362 44.2077C276.689 43.9509 277.951 43.7797 279.15 43.6941C280.348 43.5657 281.397 43.3731 282.295 43.1163C283.237 42.8595 283.965 42.4743 284.479 41.9607C285.035 41.4043 285.313 40.5911 285.313 39.5211C285.313 38.5795 285.078 37.8091 284.607 37.2099C284.179 36.6106 283.622 36.1612 282.937 35.8616C282.295 35.5192 281.568 35.3052 280.755 35.2196C279.941 35.0912 279.171 35.027 278.443 35.027C276.389 35.027 274.698 35.455 273.372 36.311C272.045 37.1671 271.296 38.4939 271.125 40.2915H263.806C263.934 38.1515 264.448 36.3752 265.347 34.9628C266.245 33.5504 267.38 32.4162 268.749 31.5602C270.162 30.7042 271.745 30.105 273.5 29.7626C275.255 29.4202 277.052 29.249 278.893 29.249C280.519 29.249 282.124 29.4202 283.708 29.7626C285.291 30.105 286.704 30.6614 287.946 31.4318C289.23 32.2022 290.257 33.208 291.027 34.4492C291.798 35.6476 292.183 37.1243 292.183 38.8791V55.9563ZM284.864 46.7115C283.751 47.4391 282.381 47.8885 280.755 48.0597C279.128 48.1881 277.502 48.4021 275.875 48.7017C275.105 48.8301 274.356 49.0227 273.628 49.2795C272.901 49.4935 272.259 49.8145 271.702 50.2425C271.146 50.6277 270.697 51.1627 270.354 51.8475C270.055 52.4895 269.905 53.2813 269.905 54.2229C269.905 55.0361 270.14 55.7209 270.611 56.2773C271.082 56.8337 271.638 57.2831 272.28 57.6255C272.965 57.9251 273.693 58.1391 274.463 58.2675C275.276 58.3959 276.004 58.4601 276.646 58.4601C277.459 58.4601 278.337 58.3531 279.279 58.1391C280.22 57.9251 281.097 57.5613 281.91 57.0477C282.766 56.5341 283.473 55.8921 284.029 55.1217C284.586 54.3085 284.864 53.3241 284.864 52.1685V46.7115Z" fill="#0D292C"/>
<path d="M300.057 30.1478H306.926V36.5678H307.054C307.268 35.669 307.675 34.7916 308.274 33.9356C308.916 33.0796 309.665 32.3092 310.521 31.6244C311.42 30.8968 312.404 30.319 313.474 29.891C314.544 29.463 315.636 29.249 316.749 29.249C317.605 29.249 318.183 29.2704 318.482 29.3132C318.825 29.356 319.167 29.3988 319.509 29.4416V36.5036C318.996 36.418 318.461 36.3538 317.904 36.311C317.391 36.2254 316.877 36.1826 316.363 36.1826C315.122 36.1826 313.945 36.4394 312.832 36.953C311.762 37.4239 310.821 38.1515 310.008 39.1359C309.194 40.0775 308.552 41.2545 308.082 42.6669C307.611 44.0793 307.375 45.7057 307.375 47.5461V63.3393H300.057V30.1478Z" fill="#0D292C"/>
<path d="M344.291 43.8225C344.205 42.6669 343.948 41.5541 343.52 40.4841C343.135 39.4141 342.579 38.4939 341.851 37.7235C341.166 36.9102 340.31 36.2682 339.283 35.7974C338.299 35.2838 337.186 35.027 335.945 35.027C334.661 35.027 333.484 35.2624 332.414 35.7332C331.386 36.1612 330.488 36.7818 329.717 37.5951C328.99 38.3655 328.39 39.2857 327.92 40.3557C327.492 41.4257 327.256 42.5813 327.213 43.8225H344.291ZM327.213 48.6375C327.213 49.9215 327.385 51.1627 327.727 52.3611C328.112 53.5595 328.669 54.6081 329.396 55.5069C330.124 56.4057 331.044 57.1333 332.157 57.6897C333.27 58.2033 334.596 58.4601 336.137 58.4601C338.277 58.4601 339.989 58.0107 341.273 57.1119C342.6 56.1703 343.584 54.7793 344.226 52.9389H351.16C350.775 54.7365 350.111 56.3415 349.17 57.7539C348.228 59.1663 347.094 60.3647 345.767 61.3491C344.44 62.2907 342.942 62.9969 341.273 63.4677C339.647 63.9813 337.935 64.2381 336.137 64.2381C333.526 64.2381 331.215 63.8101 329.204 62.9541C327.192 62.0981 325.48 60.8997 324.068 59.3589C322.698 57.8181 321.649 55.9777 320.922 53.8377C320.237 51.6977 319.895 49.3437 319.895 46.7757C319.895 44.4217 320.258 42.1961 320.986 40.0989C321.756 37.9589 322.826 36.097 324.196 34.5134C325.608 32.887 327.299 31.603 329.268 30.6614C331.237 29.7198 333.462 29.249 335.945 29.249C338.555 29.249 340.888 29.8054 342.942 30.9182C345.04 31.9882 346.773 33.422 348.143 35.2196C349.512 37.0172 350.497 39.0931 351.096 41.4471C351.738 43.7583 351.909 46.1551 351.609 48.6375H327.213Z" fill="#0D292C"/>
<path d="M357.172 30.1478H364.041V36.5678H364.17C364.384 35.669 364.79 34.7916 365.389 33.9356C366.032 33.0796 366.78 32.3092 367.636 31.6244C368.535 30.8968 369.52 30.319 370.59 29.891C371.66 29.463 372.751 29.249 373.864 29.249C374.72 29.249 375.298 29.2704 375.597 29.3132C375.94 29.356 376.281 29.3988 376.624 29.4416V36.5036C376.11 36.418 375.576 36.3538 375.02 36.311C374.506 36.2254 373.992 36.1826 373.479 36.1826C372.238 36.1826 371.061 36.4394 369.948 36.953C368.878 37.4239 367.936 38.1515 367.123 39.1359C366.31 40.0775 365.668 41.2545 365.197 42.6669C364.726 44.0793 364.491 45.7057 364.491 47.5461V63.3393H357.172V30.1478Z" fill="#0D292C"/>
</svg>
