<svg width="61" height="61" viewBox="0 0 61 61" fill="none" xmlns="http://www.w3.org/2000/svg">
<path d="M30.5002 22.8711C28.05 22.8711 25.6549 23.5977 23.6176 24.9589C21.5803 26.3202 19.9925 28.255 19.0548 30.5186C18.1172 32.7823 17.8719 35.2732 18.3499 37.6763C18.8279 40.0794 20.0078 42.2868 21.7403 44.0194C23.4728 45.7519 25.6802 46.9318 28.0834 47.4098C30.4865 47.8878 32.9774 47.6425 35.241 46.7049C37.5047 45.7672 39.4395 44.1794 40.8008 42.1421C42.162 40.1048 42.8886 37.7097 42.8886 35.2595C42.8886 33.6326 42.5682 32.0217 41.9456 30.5186C41.323 29.0156 40.4105 27.6499 39.2601 26.4996C38.1097 25.3492 36.7441 24.4367 35.241 23.8141C33.738 23.1915 32.1271 22.8711 30.5002 22.8711ZM30.5002 40.0242C29.5578 40.0242 28.6366 39.7448 27.853 39.2212C27.0695 38.6977 26.4588 37.9535 26.0981 37.0829C25.7375 36.2122 25.6431 35.2542 25.827 34.3299C26.0108 33.4056 26.4646 32.5566 27.131 31.8903C27.7974 31.2239 28.6464 30.7701 29.5706 30.5863C30.4949 30.4024 31.453 30.4968 32.3236 30.8574C33.1943 31.218 33.9384 31.8288 34.462 32.6123C34.9855 33.3959 35.265 34.3171 35.265 35.2595C35.265 36.5232 34.763 37.7351 33.8694 38.6287C32.9758 39.5222 31.7639 40.0242 30.5002 40.0242Z" fill="#C6C6C6"/>
<path d="M51.0838 17.5629L54.5621 12.6933C54.8881 12.289 55.1281 11.8223 55.2673 11.3219C55.4065 10.8215 55.442 10.2979 55.3715 9.7833C55.301 9.26869 55.1261 8.77391 54.8576 8.32933C54.589 7.88475 54.2324 7.49975 53.8096 7.19797C53.3868 6.89619 52.9069 6.684 52.3992 6.57441C51.8914 6.46482 51.3667 6.46016 50.8571 6.5607C50.3475 6.66124 49.8638 6.86487 49.4358 7.15909C49.0077 7.4533 48.6443 7.8319 48.3679 8.27163L44.8801 13.1412C41.6045 11.3516 38.0177 10.2034 34.3118 9.75824V3.81181C34.3118 2.80086 33.9102 1.83131 33.1954 1.11645C32.4805 0.401601 31.511 0 30.5 0C29.489 0 28.5195 0.401601 27.8046 1.11645C27.0898 1.83131 26.6882 2.80086 26.6882 3.81181V9.75824C22.9823 10.2034 19.3955 11.3516 16.1199 13.1412L12.6321 8.27163C12.3557 7.8319 11.9923 7.4533 11.5642 7.15909C11.1362 6.86487 10.6525 6.66124 10.1429 6.5607C9.63334 6.46016 9.10857 6.46482 8.60085 6.57441C8.09313 6.684 7.61316 6.89619 7.19041 7.19797C6.76766 7.49975 6.41104 7.88475 6.14245 8.32933C5.87387 8.77391 5.69897 9.26869 5.62851 9.7833C5.55804 10.2979 5.59349 10.8215 5.73269 11.3219C5.87188 11.8223 6.11188 12.289 6.43795 12.6933L9.91622 17.5629C6.87085 20.3547 4.26808 23.5937 2.19731 27.1687C0.758436 29.6256 0 32.4215 0 35.2688C0 38.116 0.758436 40.9119 2.19731 43.3689C6.04723 49.9442 14.8525 60.989 30.5 60.989C46.1475 60.989 54.9528 49.9443 58.8027 43.3498C60.2416 40.8929 61 38.097 61 35.2497C61 32.4025 60.2416 29.6066 58.8027 27.1496C56.7303 23.5814 54.1276 20.3489 51.0838 17.5629ZM52.2273 39.4808C49.1969 44.684 42.3452 53.3654 30.5 53.3654C18.6548 53.3654 11.8031 44.684 8.77268 39.4999C8.0236 38.2122 7.62898 36.749 7.62898 35.2592C7.62898 33.7695 8.0236 32.3063 8.77268 31.0186C11.8031 25.8345 18.6548 17.1531 30.5 17.1531C42.3452 17.1531 49.1969 25.8345 52.2273 31.0186C52.9764 32.3063 53.371 33.7695 53.371 35.2592C53.371 36.749 52.9764 38.2122 52.2273 39.4999V39.4808Z" fill="#C6C6C6"/>
</svg>
