<svg width="61" height="62" viewBox="0 0 61 62" fill="none" xmlns="http://www.w3.org/2000/svg">
<path d="M18.6958 47.2315H11.8079C10.764 47.2315 9.76287 46.8168 9.02474 46.0787C8.2866 45.3406 7.87192 44.3394 7.87192 43.2956V11.8079C7.87192 10.764 8.2866 9.76287 9.02474 9.02474C9.76287 8.2866 10.764 7.87192 11.8079 7.87192H43.2956C44.3394 7.87192 45.3406 8.2866 46.0787 9.02474C46.8168 9.76287 47.2315 10.764 47.2315 11.8079V18.6958C47.2315 19.7397 47.6462 20.7408 48.3843 21.4789C49.1225 22.2171 50.1236 22.6318 51.1675 22.6318C52.2114 22.6318 53.2125 22.2171 53.9506 21.4789C54.6888 20.7408 55.1034 19.7397 55.1034 18.6958V11.8079C55.1034 8.67623 53.8594 5.67285 51.645 3.45845C49.4306 1.24404 46.4272 0 43.2956 0H11.8079C8.67623 0 5.67285 1.24404 3.45845 3.45845C1.24404 5.67285 0 8.67623 0 11.8079V43.2956C0 46.4272 1.24404 49.4306 3.45845 51.645C5.67285 53.8594 8.67623 55.1034 11.8079 55.1034H18.6958C19.7397 55.1034 20.7408 54.6888 21.4789 53.9506C22.2171 53.2125 22.6318 52.2114 22.6318 51.1675C22.6318 50.1236 22.2171 49.1225 21.4789 48.3843C20.7408 47.6462 19.7397 47.2315 18.6958 47.2315Z" fill="#C6C6C6"/>
<path d="M59.8567 54.2877L53.6182 48.0492L56.7374 44.9299C57.6707 43.9959 58.3541 42.8421 58.7245 41.5747C59.095 40.3073 59.1408 38.9671 58.8576 37.6774C58.5743 36.3877 57.9713 35.19 57.1038 34.1945C56.2364 33.199 55.1325 32.4377 53.8937 31.9806L35.1979 25.0927C33.7867 24.5711 32.2557 24.4649 30.786 24.7865C29.3163 25.1081 27.9696 25.8441 26.9053 26.9074C25.8409 27.9707 25.1036 29.3167 24.7805 30.7861C24.4575 32.2554 24.5623 33.7866 25.0825 35.1983L31.9704 53.8941C32.4274 55.1329 33.1888 56.2368 34.1843 57.1042C35.1798 57.9716 36.3775 58.5747 37.6672 58.8579C38.9569 59.1412 40.2971 59.0954 41.5645 58.7249C42.8318 58.3544 43.9856 57.6711 44.9197 56.7378L48.0389 53.6185L54.2774 59.857C55.016 60.5956 56.0177 61.0105 57.0621 61.0105C58.1066 61.0105 59.1083 60.5956 59.8468 59.857C60.5854 59.1185 61.0003 58.1168 61.0003 57.0724C61.0003 56.0279 60.5854 55.0262 59.8468 54.2877H59.8567ZM39.3602 51.1684L32.4722 32.4726L51.168 39.3605L39.3602 51.1684Z" fill="#C6C6C6"/>
</svg>
