<svg width="55" height="54" viewBox="0 0 55 54" fill="none" xmlns="http://www.w3.org/2000/svg">
<path d="M40.0747 47.0323C39.1507 47.0323 38.2646 47.3993 37.6112 48.0527C36.9579 48.706 36.5908 49.5921 36.5908 50.5161C36.5908 51.4401 36.9579 52.3262 37.6112 52.9796C38.2646 53.633 39.1507 54 40.0747 54H47.0424C48.8904 54 50.6627 53.2659 51.9694 51.9592C53.2761 50.6525 54.0102 48.8802 54.0102 47.0323V6.96774C54.0102 5.11978 53.2761 3.34751 51.9694 2.0408C50.6627 0.734099 48.8904 0 47.0424 0H40.0747C39.1507 0 38.2646 0.36705 37.6112 1.0204C36.9579 1.67376 36.5908 2.55989 36.5908 3.48387C36.5908 4.40785 36.9579 5.29399 37.6112 5.94734C38.2646 6.60069 39.1507 6.96774 40.0747 6.96774H47.0424V15.6774H40.0747C39.1507 15.6774 38.2646 16.0445 37.6112 16.6978C36.9579 17.3512 36.5908 18.2373 36.5908 19.1613C36.5908 20.0853 36.9579 20.9714 37.6112 21.6248C38.2646 22.2781 39.1507 22.6452 40.0747 22.6452H47.0424V31.3548H40.0747C39.1507 31.3548 38.2646 31.7219 37.6112 32.3752C36.9579 33.0286 36.5908 33.9147 36.5908 34.8387C36.5908 35.7627 36.9579 36.6488 37.6112 37.3022C38.2646 37.9555 39.1507 38.3226 40.0747 38.3226H47.0424V47.0323H40.0747Z" fill="#C6C6C6"/>
<path d="M21.0794 39.5419C19.1108 40.4346 16.9785 40.9091 14.8171 40.9355C11.5553 40.9021 8.4109 39.7141 5.94196 37.5823C5.61713 37.2597 5.23195 37.0043 4.80841 36.8306C4.38488 36.6569 3.93128 36.5684 3.47351 36.57C3.01575 36.5716 2.56279 36.6634 2.14049 36.8401C1.71819 37.0167 1.33482 37.2748 1.01228 37.5997C0.360875 38.2557 -0.00324497 39.1436 2.17928e-05 40.0681C0.00328856 40.9926 0.373675 41.878 1.0297 42.5294C3.91912 45.1528 7.49071 46.9069 11.3332 47.5897V50.5161C11.3332 51.4401 11.7003 52.3262 12.3537 52.9796C13.007 53.633 13.8931 54 14.8171 54C15.7411 54 16.6272 53.633 17.2806 52.9796C17.9339 52.3262 18.301 51.4401 18.301 50.5161V47.6071C20.218 47.277 22.0872 46.7124 23.8665 45.9261C25.5929 45.1649 27.0964 43.9753 28.2342 42.4702C29.3721 40.9651 30.1067 39.1943 30.3684 37.3257C30.6301 35.4571 30.4103 33.5527 29.7297 31.7929C29.0491 30.0331 27.9303 28.4762 26.4794 27.27C24.3393 25.4825 21.7299 24.3487 18.9629 24.0039L15.2787 23.5161L12.3262 23.0981C10.9309 22.8973 9.61907 22.3123 8.53744 21.4084C7.98404 20.9303 7.55995 20.3205 7.30432 19.6353C7.04868 18.9501 6.96972 18.2115 7.07473 17.4878C7.17973 16.764 7.46532 16.0784 7.90514 15.4941C8.34496 14.9098 8.92485 14.4456 9.59131 14.1445C11.2425 13.4356 13.0202 13.0683 14.8171 13.0645C18.0789 13.0979 21.2233 14.2859 23.6923 16.4177C24.3483 17.0691 25.2362 17.4333 26.1607 17.43C27.0852 17.4267 27.9706 17.0563 28.622 16.4003C29.2734 15.7443 29.6375 14.8564 29.6342 13.9319C29.631 13.0074 29.2606 12.122 28.6045 11.4706C25.7151 8.84718 22.1435 7.09309 18.301 6.41032V3.48387C18.301 2.55989 17.9339 1.67376 17.2806 1.0204C16.6272 0.36705 15.7411 0 14.8171 0C13.8931 0 13.007 0.36705 12.3537 1.0204C11.7003 1.67376 11.3332 2.55989 11.3332 3.48387V6.41032C9.79842 6.68037 8.29939 7.12453 6.86519 7.73419C5.09286 8.50029 3.54588 9.70688 2.37127 11.2393C1.19666 12.7717 0.433448 14.5791 0.15416 16.4896C-0.125129 18.4001 0.0887875 20.3503 0.77558 22.1548C1.46237 23.9594 2.59922 25.5583 4.07809 26.7997C6.15136 28.525 8.66309 29.6407 11.3332 30.0223L14.3207 30.449H14.3816L18.1268 30.9194C19.5739 31.1099 20.935 31.7149 22.0462 32.6613C22.5827 33.1096 22.996 33.6872 23.247 34.3397C23.4981 34.9922 23.5786 35.698 23.481 36.3902C23.3833 37.0825 23.1107 37.7384 22.689 38.296C22.2672 38.8536 21.7102 39.2944 21.0707 39.5768L21.0794 39.5419Z" fill="#C6C6C6"/>
</svg>
