<svg width="60" height="60" viewBox="0 0 60 60" fill="none" xmlns="http://www.w3.org/2000/svg">
<path d="M56.4168 8.61363L44.2317 1.11513C43.0958 0.41674 41.7942 0.0338875 40.461 0.0060313C39.1279 -0.0218249 37.8114 0.306323 36.6473 0.956657C35.4832 1.60699 34.5136 2.55598 33.8384 3.70583C33.1631 4.85567 32.8067 6.16478 32.8059 7.49822V22.4952C32.8067 23.8287 33.1631 25.1378 33.8384 26.2876C34.5136 27.4375 35.4832 28.3864 36.6473 29.0368C37.8114 29.6871 39.1279 30.0153 40.461 29.9874C41.7942 29.9596 43.0958 29.5767 44.2317 28.8783L56.4168 21.3798C57.5082 20.7088 58.4094 19.7694 59.0346 18.6512C59.6597 17.5329 59.988 16.2732 59.988 14.992C59.988 13.7109 59.6597 12.4511 59.0346 11.3329C58.4094 10.2147 57.5082 9.27524 56.4168 8.60425V8.61363ZM40.3044 22.4952V7.49822L52.4895 14.9967L40.3044 22.4952Z" fill="#C6C6C6"/>
<path d="M11.2477 51.5521H16.581L21.9331 56.9042C23.7034 58.7332 26.0942 59.8333 28.6349 59.9879C29.9851 60.0553 31.3344 59.8399 32.5966 59.3557C33.8588 58.8715 35.0059 58.1291 35.9646 57.176L41.5885 51.5521H46.8656C49.8487 51.5521 52.7096 50.3671 54.8189 48.2578C56.9283 46.1484 58.1133 43.2875 58.1133 40.3044V35.6178C58.1133 34.6235 57.7183 33.6698 57.0152 32.9667C56.3121 32.2636 55.3584 31.8686 54.3641 31.8686C53.3697 31.8686 52.4161 32.2636 51.713 32.9667C51.0098 33.6698 50.6148 34.6235 50.6148 35.6178V40.3044C50.6148 41.2988 50.2198 42.2524 49.5167 42.9555C48.8136 43.6586 47.8599 44.0537 46.8656 44.0537H40.7637C39.2726 44.055 37.8432 44.6483 36.7895 45.7033L30.6595 51.8333C30.4497 52.0433 30.2006 52.2099 29.9263 52.3236C29.6521 52.4373 29.3582 52.4958 29.0614 52.4958C28.7645 52.4958 28.4706 52.4373 28.1964 52.3236C27.9221 52.2099 27.673 52.0433 27.4632 51.8333L21.3332 45.7033C20.8104 45.1798 20.1894 44.7646 19.5058 44.4816C18.8222 44.1985 18.0895 44.0531 17.3496 44.0537H11.2477C10.2534 44.0537 9.29974 43.6586 8.59662 42.9555C7.8935 42.2524 7.49849 41.2988 7.49849 40.3044V11.2477C7.49849 10.2534 7.8935 9.29974 8.59662 8.59662C9.29974 7.8935 10.2534 7.49849 11.2477 7.49849H22.4955C23.4898 7.49849 24.4435 7.10348 25.1466 6.40036C25.8497 5.69724 26.2447 4.74361 26.2447 3.74925C26.2447 2.75488 25.8497 1.80125 25.1466 1.09813C24.4435 0.39501 23.4898 0 22.4955 0H11.2477C8.26465 0 5.40375 1.18503 3.29439 3.29439C1.18503 5.40375 0 8.26465 0 11.2477V40.3044C0 43.2875 1.18503 46.1484 3.29439 48.2578C5.40375 50.3671 8.26465 51.5521 11.2477 51.5521Z" fill="#C6C6C6"/>
</svg>
