<svg width="85" height="55" viewBox="0 0 85 55" fill="none" xmlns="http://www.w3.org/2000/svg">
<path id="Vector" d="M84.6398 26.9103L84.6394 26.9093C84.5137 26.6318 81.5474 20.1403 74.9095 13.5846C68.7597 7.51119 58.18 0.268164 42.6939 0.268164C27.2077 0.268164 16.628 7.51119 10.4783 13.5846C3.84029 20.1403 0.874054 26.6318 0.748353 26.9093L0.748348 26.9092L0.747901 26.9103C0.661756 27.1062 0.617285 27.3176 0.617285 27.5313C0.617285 27.745 0.661756 27.9563 0.747901 28.1523L0.747899 28.1523L0.748153 28.1528C0.874061 28.4344 3.84036 34.9224 10.4783 41.4779C16.6425 47.5657 27.2114 54.7908 42.6939 54.7908C58.1764 54.7908 68.7597 47.5514 74.9095 41.4779C81.5474 34.9224 84.5137 28.4344 84.6396 28.1528L84.6398 28.1523C84.726 27.9563 84.7704 27.745 84.7704 27.5313C84.7704 27.3176 84.726 27.1062 84.6398 26.9103ZM72.6885 39.359H72.674L72.6448 39.3878C64.3149 47.5894 54.2329 51.7317 42.6794 51.7317C31.126 51.7317 21.0584 47.5787 12.7139 39.3877C9.17545 35.9026 6.19768 31.9036 3.88375 27.5295C6.202 23.1544 9.18471 19.1553 12.7284 15.6713C21.0729 7.48021 31.1405 3.32725 42.6939 3.32725C54.2472 3.32725 64.3149 7.48023 72.6594 15.6713C76.2026 19.1557 79.1852 23.1547 81.504 27.5295C79.192 31.8925 76.2193 35.8816 72.6885 39.359ZM42.694 11.7045H42.6939C39.5252 11.7045 36.4276 12.6325 33.7927 14.3712C31.1579 16.1099 29.104 18.5813 27.8912 21.4731C26.6783 24.3649 26.361 27.547 26.9793 30.617C27.5976 33.687 29.1238 36.5068 31.3647 38.7199C33.6056 40.9329 36.4604 42.4399 39.5683 43.0504C42.6761 43.6609 45.8974 43.3476 48.825 42.15C51.7526 40.9524 54.255 38.9243 56.0157 36.3218C57.7765 33.7194 58.7163 30.6596 58.7163 27.5295V27.5294C58.7115 23.3334 57.0216 19.3109 54.0177 16.3443C51.0139 13.3778 46.9415 11.7093 42.694 11.7045ZM42.6939 40.2954C40.1368 40.2954 37.6372 39.5465 35.5113 38.1436C33.3853 36.7407 31.7285 34.7469 30.7502 32.4144C29.772 30.0819 29.516 27.5153 30.0147 25.0392C30.5134 22.5631 31.7445 20.2885 33.5523 18.5031C35.3602 16.7176 37.6637 15.5016 40.1716 15.0089C42.6795 14.5163 45.2791 14.7691 47.6414 15.7355C50.0037 16.7019 52.0227 18.3383 53.443 20.4376C54.8633 22.5369 55.6213 25.0049 55.6213 27.5295C55.6213 30.9148 54.2597 34.1617 51.8354 36.5559C49.4111 38.9501 46.1228 40.2954 42.6939 40.2954Z" fill="#7E8085" stroke="#7E8085" stroke-width="0.2"/>
</svg>
