<svg width="76" height="71" viewBox="0 0 76 71" fill="none" xmlns="http://www.w3.org/2000/svg">
<path d="M61.9318 26.0055C62.0072 25.2423 62.0487 24.4681 62.0487 23.6828C62.0487 17.4248 59.5063 11.4231 54.9808 6.99798C50.4553 2.5729 44.3174 0.0869141 37.9174 0.0869141C31.5174 0.0869141 25.3795 2.5729 20.854 6.99798C16.3285 11.4231 13.7861 17.4248 13.7861 23.6828C13.7861 24.4681 13.8275 25.2423 13.903 26.0055C10.8987 27.4046 8.22291 29.3961 6.0436 31.8549C3.86428 34.3137 2.22858 37.1867 1.23926 40.2933C0.249949 43.3999 -0.0715969 46.6729 0.294828 49.9069C0.661253 53.1408 1.70773 56.2657 3.36851 59.0852C5.02929 61.9047 7.26847 64.3579 9.94537 66.2906C12.6223 68.2233 15.679 69.5938 18.9236 70.3159C22.1682 71.0381 25.5304 71.0963 28.7991 70.4868C32.0678 69.8774 35.1722 68.6136 37.9174 66.7747C40.6626 68.6136 43.767 69.8774 47.0357 70.4868C50.3044 71.0963 53.6666 71.0381 56.9112 70.3159C60.1557 69.5938 63.2125 68.2233 65.8894 66.2906C68.5663 64.3579 70.8055 61.9047 72.4663 59.0852C74.1271 56.2657 75.1735 53.1408 75.54 49.9069C75.9064 46.6729 75.5848 43.3999 74.5955 40.2933C73.6062 37.1867 71.9705 34.3137 69.7912 31.8549C67.6119 29.3961 64.9361 27.4046 61.9318 26.0055ZM16.8025 23.6828C16.8025 18.207 19.0271 12.9555 22.9869 9.08358C26.9467 5.21163 32.3174 3.0364 37.9174 3.0364C43.5174 3.0364 48.8881 5.21163 52.8479 9.08358C56.8077 12.9555 59.0323 18.207 59.0323 23.6828C59.0323 24.0773 59.0323 24.4681 58.9946 24.8552C55.487 23.7302 51.7618 23.409 48.107 23.9166C44.4523 24.4242 40.9658 25.747 37.9174 27.7826C34.8689 25.747 31.3825 24.4242 27.7277 23.9166C24.073 23.409 20.3478 23.7302 16.8402 24.8552C16.8025 24.4681 16.8025 24.0773 16.8025 23.6828ZM45.4584 47.2786C45.459 50.2909 44.7841 53.2666 43.4812 55.9962C42.1783 58.7257 40.2791 61.1427 37.9174 63.0768C35.5557 61.1427 33.6565 58.7257 32.3536 55.9962C31.0507 53.2666 30.3758 50.2909 30.3764 47.2786C30.3764 46.8842 30.3764 46.4934 30.4141 46.1062C35.2886 47.6693 40.5462 47.6693 45.4207 46.1062C45.4584 46.4934 45.4584 46.8842 45.4584 47.2786ZM37.9174 44.3292C35.4933 44.3309 33.0873 43.9217 30.8062 43.1199C31.7707 38.5686 34.276 34.4681 37.9174 31.4805C41.5588 34.4681 44.0641 38.5686 45.0286 43.1199C42.7475 43.9217 40.3414 44.3309 37.9174 44.3292ZM28.0009 41.9032C25.2618 40.4742 22.8774 38.4739 21.0165 36.044C19.1556 33.614 17.8638 30.8138 17.2323 27.8416C20.2093 26.7944 23.3893 26.4163 26.5362 26.7355C29.6831 27.0546 32.7161 28.0627 35.41 29.685C31.7166 32.9178 29.1299 37.1836 28.0009 41.9032ZM40.4436 29.7034C43.1375 28.0811 46.1705 27.073 49.3174 26.7539C52.4643 26.4348 55.6443 26.8128 58.6213 27.86C57.9899 30.8323 56.698 33.6325 54.8371 36.0624C52.9762 38.4924 50.5918 40.4926 47.8527 41.9216C46.7186 37.1997 44.1251 32.9337 40.4248 29.7034H40.4436ZM24.3435 67.925C19.6352 67.922 15.0631 66.3802 11.3536 63.5449C7.6442 60.7095 5.01036 56.7432 3.87067 52.2763C2.73099 47.8094 3.15085 43.0982 5.06353 38.8913C6.97622 34.6845 10.272 31.2234 14.4271 29.0582C15.255 32.4908 16.8562 35.6993 19.1139 38.4497C21.3715 41.2 24.2287 43.4228 27.4768 44.9559C27.4014 45.7191 27.3599 46.4933 27.3599 47.2786C27.3594 50.5974 28.0763 53.8788 29.4636 56.9077C30.8509 59.9366 32.8773 62.6445 35.41 64.8539C32.0853 66.8646 28.2527 67.9282 24.3435 67.925ZM51.4913 67.925C47.582 67.9282 43.7495 66.8646 40.4248 64.8539C42.9574 62.6445 44.9839 59.9366 46.3712 56.9077C47.7585 53.8788 48.4754 50.5974 48.4748 47.2786C48.4748 46.4933 48.4334 45.7191 48.358 44.9559C51.6061 43.4228 54.4633 41.2 56.7209 38.4497C58.9786 35.6993 60.5798 32.4908 61.4077 29.0582C65.5628 31.2234 68.8586 34.6845 70.7712 38.8913C72.6839 43.0982 73.1038 47.8094 71.9641 52.2763C70.8244 56.7432 68.1906 60.7095 64.4812 63.5449C60.7717 66.3802 56.1996 67.922 51.4913 67.925Z" fill="#7E8085"/>
</svg>
