<svg width="65" height="57" viewBox="0 0 65 57" fill="none" xmlns="http://www.w3.org/2000/svg">
<path id="Vector" d="M55.4565 38.3876C53.3033 38.3878 51.222 39.1512 49.5941 40.5383C47.9882 41.9065 46.9294 43.7913 46.6055 45.8556H14.9683C11.9742 45.8556 9.10309 44.6855 6.98644 42.6033C4.86983 40.5212 3.68105 37.6975 3.68105 34.7536C3.68105 31.8097 4.86983 28.986 6.98644 26.9038C9.10309 24.8216 11.9742 23.6515 14.9683 23.6515H45.3344C48.3805 23.6515 51.3022 22.4612 53.4566 20.3418C55.6111 18.2224 56.8217 15.3475 56.8217 12.3495C56.8217 9.35148 55.6111 6.47658 53.4566 4.35717C51.3022 2.23782 48.3805 1.04746 45.3344 1.04746H14.9683C14.6068 1.04746 14.2597 1.18874 14.0035 1.44073C13.7473 1.69277 13.6031 2.03497 13.6031 2.39213C13.6031 2.74929 13.7473 3.09149 14.0035 3.34353C14.2597 3.59552 14.6068 3.7368 14.9683 3.7368H45.3344C47.6574 3.7368 49.8849 4.6446 51.527 6.25998C53.1691 7.87531 54.0912 10.0658 54.0912 12.3495C54.0912 14.6332 53.1691 16.8237 51.527 18.439C49.8849 20.0544 47.6574 20.9622 45.3344 20.9622H14.9683C11.2511 20.9622 7.68581 22.4148 5.05684 25.001C2.42781 27.5873 0.950537 31.0953 0.950537 34.7536C0.950537 38.4118 2.42781 41.9199 5.05684 44.5061C7.68581 47.0923 11.2511 48.545 14.9683 48.545H46.6055C46.8628 50.1851 47.5858 51.721 48.6917 52.9753C49.8168 54.2513 51.2908 55.1822 52.9381 55.6572C54.5854 56.1323 56.3367 56.1316 57.9836 55.6552C59.6305 55.1788 61.1038 54.2468 62.2278 52.9698C63.3519 51.6929 64.0793 50.1248 64.3233 48.4523C64.5673 46.7799 64.3175 45.0737 63.6037 43.5371C62.8899 42.0005 61.7424 40.6983 60.298 39.7854C58.8535 38.8726 57.173 38.3874 55.4565 38.3876ZM55.4565 53.3236C54.2247 53.3236 53.0207 52.9643 51.9967 52.2912C50.9728 51.6182 50.175 50.6618 49.7039 49.543C49.2329 48.4244 49.1097 47.1935 49.3498 46.006C49.5899 44.8185 50.1826 43.7275 51.0533 42.871C51.9239 42.0145 53.0334 41.431 54.2415 41.1946C55.4496 40.9582 56.7018 41.0796 57.8397 41.5433C58.9776 42.0069 59.9499 42.792 60.6339 43.799C61.3178 44.8059 61.6828 45.9896 61.6828 47.2003C61.6828 48.8238 61.0272 50.3811 59.8597 51.5296C58.6922 52.6781 57.1083 53.3236 55.4565 53.3236Z" fill="#7E8085" stroke="#7E8085" stroke-width="0.2"/>
</svg>
