<svg width="60" height="77" viewBox="0 0 60 77" fill="none" xmlns="http://www.w3.org/2000/svg">
<g id="Connection">
<path id="Vector" d="M39.893 68.3197L39.8913 68.3219C37.0992 71.7263 33.8422 73.3746 29.9289 73.3746C26.2729 73.3746 22.7664 71.9112 20.1809 69.3062C17.5955 66.7011 16.1428 63.1677 16.1428 59.4833C16.1428 55.8148 15.38 53.2328 14.2441 51.2083C13.1095 49.1861 11.6055 47.7261 10.138 46.3017C8.53372 44.743 6.91455 43.1689 5.69318 40.7489C4.47218 38.3296 3.64529 35.0572 3.64529 30.1015C3.64529 23.0774 6.41464 16.3411 11.3439 11.3746C16.2731 6.40803 22.9583 3.61799 29.9289 3.61799C36.8995 3.61799 43.5848 6.40803 48.514 11.3746C53.4432 16.3411 56.2126 23.0774 56.2126 30.1015C56.2126 30.4989 56.3692 30.8801 56.6483 31.1613C56.9274 31.4425 57.3061 31.6006 57.7012 31.6006C58.0962 31.6006 58.475 31.4425 58.7541 31.1613C59.0332 30.8801 59.1898 30.4989 59.1898 30.1015C59.1898 22.2827 56.1072 14.784 50.6198 9.25501C45.1323 3.72602 37.6896 0.619727 29.9289 0.619727C22.1682 0.619727 14.7255 3.72602 9.23811 9.25501C3.75072 14.784 0.668066 22.2827 0.668066 30.1015C0.668066 35.6734 1.64926 39.4219 3.06917 42.201C4.48867 44.9792 6.3433 46.7811 8.07193 48.4599L8.1416 48.3882L8.07195 48.4599C9.44812 49.7957 10.7183 51.0305 11.6474 52.6912C12.5749 54.3492 13.1656 56.4384 13.1656 59.4833V59.4834C13.1702 63.9611 14.9376 68.2542 18.0803 71.4207C21.2229 74.5871 25.4841 76.3682 29.9288 76.3729C34.7216 76.3729 38.8488 74.3036 42.1844 70.2326L42.186 70.2306C42.4253 69.9231 42.536 69.5338 42.4946 69.1455C42.4532 68.7572 42.263 68.4004 41.9641 68.1511C41.6653 67.9018 41.2815 67.7798 40.8945 67.8113C40.5075 67.8429 40.1482 68.0254 39.893 68.3197ZM46.5941 51.191L46.5939 51.1909C46.2523 50.9923 45.8463 50.9384 45.4651 51.0411C45.084 51.1438 44.7591 51.3946 44.5615 51.7382L44.5614 51.7385C44.1144 52.5209 43.4234 53.1326 42.5961 53.4786C41.7688 53.8245 40.8512 53.8855 39.986 53.652C39.1208 53.4184 38.3562 52.9035 37.8111 52.187C37.266 51.4705 36.971 50.5925 36.972 49.6895V49.6894C36.972 45.9946 38.8387 43.4837 40.8403 40.7946L40.8404 40.7946L40.8569 40.7724C43.0345 37.8422 45.3037 34.7889 45.3037 30.1015C45.3037 25.9934 43.684 22.0534 40.8008 19.1484C37.9175 16.2433 34.0068 14.611 29.9289 14.611C25.8511 14.611 21.9403 16.2433 19.0571 19.1484C16.1738 22.0534 14.5542 25.9934 14.5542 30.1015C14.5542 30.4989 14.7108 30.8801 14.9899 31.1613C15.269 31.4425 15.6478 31.6006 16.0428 31.6006C16.4379 31.6006 16.8166 31.4425 17.0957 31.1613C17.3748 30.8801 17.5314 30.4989 17.5314 30.1015C17.5314 26.7881 18.8378 23.6106 21.1628 21.2679C23.4879 18.9253 26.6412 17.6093 29.9289 17.6093C33.2167 17.6093 36.37 18.9253 38.695 21.2679C41.0201 23.6106 42.3265 26.7881 42.3265 30.1015C42.3265 33.7963 40.4598 36.3072 38.4581 38.9962L38.4581 38.9963L38.4416 39.0185C36.264 41.9486 33.9948 45.0019 33.9948 49.6894C33.9948 51.2511 34.5063 52.7693 35.4501 54.0084C36.3938 55.2476 37.7171 56.1385 39.2148 56.5429C40.7124 56.9472 42.3007 56.8424 43.7332 56.2446C45.1656 55.6468 46.3622 54.5895 47.1373 53.2369L47.1373 53.2369C47.3342 52.8929 47.3876 52.4845 47.2858 52.101C47.1841 51.7175 46.9354 51.3902 46.5941 51.191Z" fill="#7E8085" stroke="#7E8085" stroke-width="0.2"/>
</g>
</svg>
