<svg width="72" height="63" viewBox="0 0 72 63" fill="none" xmlns="http://www.w3.org/2000/svg">
<path id="Vector" d="M16.7482 12.0703L16.7481 12.07C16.6502 11.7815 16.4638 11.5309 16.2153 11.3534C15.9669 11.176 15.6687 11.0805 15.3629 11.0805C15.0572 11.0805 14.759 11.176 14.5106 11.3534C14.2621 11.5309 14.0757 11.7815 13.9778 12.07L13.9777 12.0703L0.358549 52.7134L0.358508 52.7135C0.285605 52.932 0.265855 53.1646 0.300892 53.3922C0.335928 53.6198 0.424743 53.8359 0.560001 54.0226C0.695257 54.2093 0.873085 54.3614 1.07884 54.4664C1.2846 54.5714 1.51243 54.6263 1.74362 54.6267H1.74378H28.9821H28.9823C29.2135 54.6263 29.4413 54.5714 29.6471 54.4664C29.8528 54.3614 30.0306 54.2093 30.1659 54.0226C30.3012 53.8359 30.39 53.6198 30.425 53.3922C30.46 53.1646 30.4403 52.932 30.3674 52.7135L30.3673 52.7134L16.7482 12.0703ZM63.13 16.5933V16.5932C63.13 13.3579 62.1656 10.1953 60.3587 7.50538C58.5519 4.81544 55.9838 2.71897 52.9793 1.48099C49.9748 0.24302 46.6688 -0.0808818 43.4793 0.550225C40.2897 1.18133 37.3599 2.73912 35.0603 5.02668C32.7606 7.31425 31.1945 10.2288 30.56 13.4019C29.9255 16.575 30.2512 19.864 31.4958 22.853C32.7403 25.8419 34.848 28.3966 37.552 30.1939C40.256 31.9911 43.435 32.9504 46.687 32.9504H46.6871C51.0465 32.9459 55.2261 31.2212 58.3088 28.1547C61.3915 25.0882 63.1255 20.9302 63.13 16.5933ZM26.9535 51.7172H3.77242L15.3629 17.1281L26.9535 51.7172ZM33.1679 16.5932C33.1679 13.9336 33.9607 11.3337 35.4461 9.12224C36.9316 6.91079 39.0429 5.18709 41.5133 4.1692C43.9837 3.15131 46.702 2.88497 49.3246 3.4039C51.9472 3.92282 54.3561 5.20367 56.2467 7.08441C58.1374 8.96514 59.4249 11.3613 59.9464 13.9698C60.4681 16.5783 60.2004 19.282 59.1772 21.7392C58.154 24.1964 56.4213 26.2967 54.1981 27.7744C51.9748 29.2521 49.361 30.0409 46.687 30.0409C43.1014 30.0409 39.6626 28.6239 37.1273 26.1019C34.5921 23.58 33.1679 20.1596 33.1679 16.5932ZM69.8396 40.879H39.8774C39.4899 40.879 39.1181 41.0322 38.8439 41.3049C38.5697 41.5777 38.4155 41.9478 38.4155 42.3338V61.3006C38.4155 61.6866 38.5697 62.0566 38.8439 62.3294C39.1181 62.6022 39.4899 62.7553 39.8774 62.7553H69.8396C70.2272 62.7553 70.599 62.6022 70.8732 62.3294C71.1474 62.0566 71.3015 61.6866 71.3015 61.3006V42.3338C71.3015 41.9478 71.1474 41.5777 70.8732 41.3049C70.599 41.0322 70.2272 40.879 69.8396 40.879ZM68.3777 59.8458H41.3394V43.7886H68.3777V59.8458Z" fill="#7E8085" stroke="#7E8085" stroke-width="0.2"/>
</svg>
