<svg width="64" height="81" viewBox="0 0 64 81" fill="none" xmlns="http://www.w3.org/2000/svg">
<path d="M13.9177 35.4272C16.7128 35.4272 18.9787 33.1613 18.9787 30.3662C18.9787 27.5711 16.7128 25.3052 13.9177 25.3052C11.1226 25.3052 8.85669 27.5711 8.85669 30.3662C8.85669 33.1613 11.1226 35.4272 13.9177 35.4272Z" fill="#105EFB"/>
<path d="M8.85674 75.6998C8.83122 76.9883 9.28389 78.2405 10.1274 79.2149C10.9709 80.1892 12.1454 80.8166 13.4243 80.9759C14.1292 81.0449 14.8407 80.9653 15.5129 80.7421C16.185 80.5188 16.8029 80.157 17.3264 79.68C17.85 79.203 18.2675 78.6213 18.5522 77.9728C18.8368 77.3242 18.9821 76.6231 18.9787 75.9149V73.3844H24.0397C26.7242 73.3844 29.2988 72.318 31.197 70.4197C33.0953 68.5215 34.1617 65.9469 34.1617 63.2624V55.595C36.1722 55.3399 38.0598 54.4872 39.5802 53.1473C41.1006 51.8074 42.1837 50.0419 42.6895 48.0794C43.0133 46.737 43.0682 45.3438 42.8511 43.9801C42.6339 42.6163 42.149 41.3091 41.4242 40.1337L34.1617 27.633C34.1083 20.2857 31.152 13.2576 25.9377 8.08111C20.7233 2.90466 13.6737 -0.000194306 6.32624 9.74826e-09H5.06099C3.71873 9.74826e-09 2.43145 0.533211 1.48233 1.48233C0.533211 2.43145 0 3.71873 0 5.06099C0 6.40325 0.533211 7.69053 1.48233 8.63965C2.43145 9.58877 3.71873 10.122 5.06099 10.122H6.32624C11.0241 10.122 15.5296 11.9882 18.8516 15.3101C22.1735 18.6321 24.0397 23.1376 24.0397 27.8355V30.366L32.8965 45.5489H26.5702C25.8991 45.5489 25.2554 45.8155 24.7809 46.2901C24.3063 46.7647 24.0397 47.4083 24.0397 48.0794V63.2624H11.3872C10.7161 63.2624 10.0725 63.529 9.5979 64.0036C9.12334 64.4781 8.85674 65.1218 8.85674 65.7929V75.6998Z" fill="#105EFB"/>
<path d="M58.2014 65.7929C60.9965 65.7929 63.2624 63.527 63.2624 60.7319C63.2624 57.9368 60.9965 55.6709 58.2014 55.6709C55.4063 55.6709 53.1404 57.9368 53.1404 60.7319C53.1404 63.527 55.4063 65.7929 58.2014 65.7929Z" fill="#105EFB"/>
<path d="M58.2014 46.8144C60.9965 46.8144 63.2624 44.5485 63.2624 41.7534C63.2624 38.9583 60.9965 36.6924 58.2014 36.6924C55.4063 36.6924 53.1404 38.9583 53.1404 41.7534C53.1404 44.5485 55.4063 46.8144 58.2014 46.8144Z" fill="#105EFB"/>
<path d="M58.2014 27.8354C60.9965 27.8354 63.2624 25.5695 63.2624 22.7744C63.2624 19.9793 60.9965 17.7134 58.2014 17.7134C55.4063 17.7134 53.1404 19.9793 53.1404 22.7744C53.1404 25.5695 55.4063 27.8354 58.2014 27.8354Z" fill="#105EFB"/>
</svg>
