<svg width="183" height="189" viewBox="0 0 183 189" fill="none" xmlns="http://www.w3.org/2000/svg">
<g id="Group 518">
<path id="Vector" d="M21.3153 178.238C21.3112 181.079 22.4436 183.803 24.4596 185.806C26.4769 187.807 29.2091 188.919 32.0503 188.894C34.8914 188.87 37.6048 187.71 39.5853 185.674C41.5659 187.71 44.2792 188.87 47.1203 188.894C49.9614 188.919 52.6939 187.807 54.711 185.806C56.7269 183.803 57.8593 181.079 57.8553 178.238V170.625H79.1706V164.535H57.8553V163.251C60.5713 162.071 62.8836 160.123 64.5067 157.646C66.1298 155.169 66.993 152.271 66.9903 149.31V126.473C66.9889 125.502 66.8951 124.535 66.7103 123.582L88.3057 106.81V133.911L85.2607 182.632C85.2131 183.469 85.5121 184.289 86.0885 184.898C86.6649 185.508 87.4669 185.852 88.3057 185.851H98.9634C100.464 185.851 101.741 184.758 101.972 183.275L106.576 153.811L111.18 183.275C111.411 184.758 112.687 185.851 114.188 185.851H124.846C125.687 185.852 126.492 185.506 127.068 184.894C127.645 184.281 127.943 183.457 127.891 182.617L124.846 134.084V104.748L157.622 66.0155L157.586 65.9856C159.052 64.1341 159.855 61.8436 159.864 59.481V52.0382C165.321 48.8885 169.104 43.4849 170.198 37.2807C171.292 31.0751 169.585 24.7049 165.535 19.8777C161.484 15.0519 155.507 12.2637 149.206 12.2637C142.905 12.2637 136.928 15.0518 132.877 19.8777C128.828 24.7049 127.12 31.0751 128.215 37.2807C129.309 43.4849 133.092 48.8884 138.549 52.0382V59.481C138.553 60.8322 138.817 62.1699 139.325 63.4218L121.71 79.865C120.02 81.4447 117.792 82.3228 115.48 82.3188H115.252C118.185 79.9167 119.995 76.4069 120.246 72.6237C120.498 68.8391 119.17 65.121 116.579 62.352C113.988 59.5829 110.365 58.0113 106.573 58.0113C102.781 58.0113 99.1592 59.5828 96.5683 62.352C93.9773 65.121 92.649 68.8391 92.9006 72.6237C93.1521 76.4069 94.9601 79.9168 97.8952 82.3188H95.3708C90.0651 82.3256 84.9522 84.3008 81.0198 87.8611L56.1566 110.48C55.3912 104.926 51.8949 100.124 46.8433 97.6908C41.7916 95.2589 35.8581 95.5185 31.039 98.3841C26.2198 101.248 23.1559 106.338 22.88 111.937C19.7778 112.9 17.0659 114.83 15.141 117.445C13.2148 120.061 12.1776 123.224 12.1803 126.472V149.31C12.1776 152.271 13.0408 155.169 14.6639 157.646C16.287 160.122 18.5995 162.07 21.3153 163.25V164.535H0V170.625H21.3153L21.3153 178.238ZM36.5405 178.238C36.5405 180.761 34.496 182.806 31.9729 182.806C29.4499 182.806 27.4054 180.761 27.4054 178.238V153.878C27.4054 151.355 29.4499 149.31 31.9729 149.31C34.496 149.31 36.5405 151.355 36.5405 153.878V178.238ZM51.7657 178.238C51.7657 180.761 49.7212 182.806 47.1982 182.806C44.6751 182.806 42.6306 180.761 42.6306 178.238V153.878C42.6306 151.355 44.6751 149.31 47.1982 149.31C49.7212 149.31 51.7657 151.355 51.7657 153.878V178.238ZM153.773 59.4814C153.773 62.0044 151.728 64.0489 149.205 64.0489C146.682 64.0489 144.638 62.0044 144.638 59.4814V57.9588H153.773V59.4814ZM134.37 30.0913C135.015 27.3045 136.437 24.7599 138.469 22.7477C140.502 20.7372 143.063 19.3438 145.856 18.7293C146.943 18.4968 148.051 18.3772 149.163 18.3731C153.826 18.3704 158.233 20.5047 161.122 24.1643C164.012 27.8253 165.064 32.6062 163.979 37.141C162.894 41.6759 159.791 45.4646 155.558 47.4194C154.477 47.9169 153.785 48.9962 153.785 50.1844V51.8686H144.65V50.1912C144.65 49.0017 143.958 47.9223 142.877 47.4261C139.679 45.9594 137.085 43.4335 135.535 40.2743C133.984 37.1151 133.574 33.5181 134.37 30.091L134.37 30.0913ZM106.575 64.1864C108.593 64.1864 110.531 64.9884 111.958 66.4158C113.385 67.8432 114.187 69.7803 114.187 71.7991C114.187 73.8178 113.385 75.7535 111.958 77.1824C110.531 78.6097 108.594 79.4117 106.575 79.4117C104.556 79.4117 102.619 78.6097 101.191 77.1824C99.7641 75.7536 98.9621 73.8178 98.9621 71.7991C98.9621 69.7803 99.7641 67.8433 101.191 66.4158C102.619 64.9884 104.556 64.1864 106.575 64.1864ZM85.107 92.3678C87.9196 89.823 91.5765 88.4135 95.369 88.4093H115.466C119.323 88.4134 123.037 86.9493 125.852 84.3133L143.115 68.2086C144.135 68.9074 145.268 69.4226 146.465 69.7312L119.474 101.668C119.01 102.218 118.756 102.915 118.754 103.635V134.274L121.605 179.762H116.79L109.583 133.616C109.351 132.135 108.075 131.042 106.574 131.042C105.073 131.042 103.797 132.135 103.566 133.616L96.3584 179.762H91.5434L94.394 134.086V100.591C94.394 99.4283 93.732 98.368 92.688 97.8568C91.644 97.3443 90.4002 97.4721 89.4826 98.1845L64.2087 117.807C63.306 116.492 62.2023 115.325 60.938 114.352L85.107 92.3678ZM39.5845 102.112C42.4107 102.112 45.1213 103.235 47.1209 105.233C49.1192 107.233 50.2421 109.943 50.2421 112.77C50.2421 115.596 49.1192 118.306 47.1209 120.306C45.1212 122.304 42.4106 123.427 39.5845 123.427C36.7583 123.427 34.0477 122.304 32.0481 120.306C30.0498 118.306 28.9269 115.596 28.9269 112.77C28.9269 109.943 30.0498 107.233 32.0481 105.233C34.0478 103.235 36.7583 102.112 39.5845 102.112ZM18.2692 149.308V126.471C18.2719 124.699 18.7926 122.968 19.7659 121.487C20.7392 120.007 22.1244 118.843 23.7502 118.139C25.251 122.59 28.5544 126.203 32.8512 128.098C37.1484 129.991 42.0448 129.991 46.342 128.098C50.6392 126.203 53.9424 122.59 55.443 118.139C57.0634 118.847 58.4432 120.012 59.4124 121.491C60.3816 122.972 60.8982 124.702 60.8995 126.471V149.309C60.8995 151.905 59.7916 154.379 57.8545 156.108V153.876C57.8531 151.095 56.7602 148.424 54.8094 146.44V134.083H48.7194V143.373C48.2164 143.285 47.708 143.233 47.1968 143.218C44.3285 143.22 41.5825 144.382 39.5842 146.44C37.5859 144.382 34.8399 143.22 31.9716 143.218C31.4605 143.233 30.9521 143.285 30.4491 143.373V134.083H24.359V146.44C22.4083 148.424 21.3153 151.095 21.314 153.876V156.108C19.3768 154.379 18.2689 151.905 18.2689 149.309L18.2692 149.308Z" fill="#286EFB"/>
<path id="Vector_2" d="M146.161 0.10498H152.251V6.19507H146.161V0.10498Z" fill="#286EFB"/>
<path id="Vector_3" d="M176.613 30.5552H182.703V36.6453H176.613V30.5552Z" fill="#286EFB"/>
<path id="Vector_4" d="M115.711 30.5552H121.801V36.6453H115.711V30.5552Z" fill="#286EFB"/>
<path id="Vector_5" d="M166.434 55.1313L170.74 50.8262L175.045 55.1327L170.739 59.4379L166.434 55.1313Z" fill="#286EFB"/>
<path id="Vector_6" d="M123.368 12.0688L127.675 7.76221L131.981 12.0688L127.675 16.3753L123.368 12.0688Z" fill="#286EFB"/>
<path id="Vector_7" d="M166.434 12.0707L170.739 7.76416L175.045 12.0693L170.74 16.3759L166.434 12.0707Z" fill="#286EFB"/>
<path id="Vector_8" d="M123.368 55.1352L127.673 50.8286L131.98 55.1338L127.675 59.4403L123.368 55.1352Z" fill="#286EFB"/>
</g>
</svg>
