<svg width="176" height="177" viewBox="0 0 176 177" fill="none" xmlns="http://www.w3.org/2000/svg">
<g id="Group 333">
<g id="Group 331">
<path id="Vector" d="M125.655 144.022C125.666 138.567 123.975 133.245 120.819 128.796C117.662 124.346 113.198 120.992 108.046 119.2C108.082 118.709 108.122 118.221 108.122 117.722C108.121 116.983 108.082 116.245 108.005 115.509C108.569 115.008 109.068 114.437 109.487 113.809C111.1 111.369 111.377 108.279 110.22 105.592L104.908 93.1922C104.446 92.1211 103.39 91.4258 102.224 91.4258C101.057 91.4258 100.001 92.1211 99.5393 93.1922L96.8454 99.4748C94.0041 98.0215 90.8573 97.2649 87.6666 97.2662C82.2436 97.2727 77.0447 99.4304 73.2094 103.265C69.3755 107.1 67.2177 112.299 67.211 117.722C67.211 118.221 67.2515 118.709 67.2867 119.2C62.1349 120.992 57.6707 124.346 54.5137 128.796C51.358 133.245 49.6672 138.567 49.6778 144.022V170.322H0V176.166H175.334V170.322H125.656L125.655 144.022ZM99.5912 107.893L102.221 101.756L104.851 107.893C105.237 108.776 105.146 109.795 104.61 110.596C104.057 111.363 103.168 111.818 102.224 111.818C101.278 111.818 100.39 111.363 99.8378 110.596C99.2977 109.796 99.2051 108.776 99.5912 107.893ZM87.6662 103.112C90.0666 103.108 92.4293 103.705 94.5386 104.851L94.2203 105.593C93.0684 108.282 93.3436 111.369 94.9548 113.81C96.5646 116.253 99.2937 117.723 102.219 117.723H102.277C102.277 121.598 100.738 125.314 97.9985 128.055C95.2576 130.795 91.5409 132.334 87.6662 132.334C83.7915 132.334 80.0751 130.795 77.3339 128.055C74.5943 125.314 73.055 121.598 73.055 117.723C73.055 113.848 74.5944 110.132 77.3339 107.391C80.0747 104.651 83.7915 103.112 87.6662 103.112ZM57.5085 170.323L70.3833 146.577L75.8417 148.886L64.9787 170.323L57.5085 170.323ZM110.352 170.323L99.4881 148.885L104.946 146.576L117.823 170.323L110.352 170.323ZM119.809 161.726L108.818 141.461C108.101 140.139 106.499 139.577 105.113 140.163L94.3269 144.721C93.582 145.038 93.0028 145.65 92.7262 146.41C92.4483 147.171 92.4992 148.012 92.8658 148.734L103.805 170.323H71.5245L82.4687 148.734C82.8353 148.012 82.8861 147.171 82.6096 146.41C82.333 145.65 81.7525 145.038 81.0075 144.721L70.2214 140.163C68.8372 139.577 67.2339 140.139 66.5163 141.461L55.5201 161.726V144.023C55.5161 139.905 56.762 135.881 59.0905 132.484C61.4205 129.088 64.7249 126.477 68.5682 124.996C70.5394 130.194 74.5446 134.365 79.6583 136.544C84.7734 138.724 90.5554 138.724 95.6704 136.544C100.784 134.365 104.789 130.194 106.761 124.996C110.604 126.477 113.908 129.088 116.238 132.484C118.567 135.881 119.813 139.905 119.809 144.023L119.809 161.726Z" fill="#B5B6B9"/>
<path id="Vector_2" d="M117.746 116.867L121.879 112.734L127.722 118.577L123.589 122.71L117.746 116.867Z" fill="#B5B6B9"/>
<path id="Vector_3" d="M47.6104 118.58L53.4535 112.737L57.5863 116.87L51.7432 122.713L47.6104 118.58Z" fill="#B5B6B9"/>
<path id="Vector_4" d="M61.3662 27.133C61.3662 34.1086 64.1371 40.7984 69.0695 45.7298C74.0009 50.6625 80.6906 53.4331 87.6662 53.4331C94.6418 53.4331 101.332 50.6622 106.263 45.7298C111.196 40.7984 113.966 34.1086 113.966 27.133C113.966 20.1574 111.195 13.4677 106.263 8.53633C101.332 3.60361 94.6418 0.833008 87.6662 0.833008C80.6933 0.840835 74.0086 3.61433 69.0775 8.54434C64.1475 13.4757 61.3742 20.1601 61.3662 27.133ZM93.5107 46.712C89.6988 47.8613 85.6337 47.8613 81.8218 46.712V35.8997C81.8218 34.286 83.1303 32.9775 84.744 32.9775H90.5885C91.3634 32.9775 92.107 33.2854 92.6549 33.8333C93.2028 34.3812 93.5107 35.1248 93.5107 35.8997V46.712ZM84.744 21.2886C84.744 20.1066 85.4563 19.0408 86.5482 18.5895C87.6401 18.1368 88.8964 18.3859 89.7327 19.2222C90.5689 20.0584 90.8181 21.3147 90.3654 22.4066C89.914 23.4985 88.8482 24.2108 87.6662 24.2108C86.0525 24.2108 84.744 22.9023 84.744 21.2886ZM108.122 27.133C108.117 33.8178 104.843 40.0783 99.3551 43.8953V35.8997C99.3486 34.1085 98.7929 32.363 97.7649 30.8969C96.7356 29.4318 95.2836 28.3151 93.6006 27.7007C95.3435 26.0974 96.3637 23.8587 96.4289 21.4922C96.4955 19.1257 95.6018 16.8323 93.9503 15.1365C92.3 13.4392 90.0338 12.4817 87.6663 12.4817C85.2988 12.4817 83.0325 13.4392 81.3824 15.1365C79.7308 16.8324 78.8371 19.1257 78.9037 21.4922C78.9689 23.8587 79.9891 26.0973 81.732 27.7007C80.0491 28.3151 78.5971 29.4318 77.5677 30.8969C76.5397 32.3632 75.984 34.1087 75.9775 35.8997V43.8953C70.1056 39.8055 66.796 32.9448 67.2525 25.8035C67.7091 18.6623 71.863 12.2791 78.2084 8.97082C84.5538 5.66113 92.1659 5.909 98.2829 9.6231C104.4 13.3372 108.131 19.9774 108.122 27.133Z" fill="#B5B6B9"/>
<path id="Vector_5" d="M0 73.8889C0 80.8645 2.77091 87.5542 7.70332 92.4856C12.6347 97.4183 19.3244 100.189 26.3 100.189C33.2756 100.189 39.9654 97.418 44.8967 92.4856C49.8295 87.5542 52.6001 80.8645 52.6001 73.8889C52.6001 66.9133 49.8292 60.2236 44.8967 55.2922C39.9654 50.3595 33.2756 47.5889 26.3 47.5889C19.3271 47.5967 12.6424 50.3702 7.71134 55.3002C2.78129 60.2316 0.00801525 66.916 0 73.8889ZM26.3 53.4333C31.7257 53.4333 36.9283 55.5885 40.7639 59.425C44.6005 63.2603 46.7556 68.4629 46.7556 73.8889C46.7556 79.3149 44.6005 84.5171 40.7639 88.3527C36.9286 92.1894 31.726 94.3445 26.3 94.3445C20.874 94.3445 15.6718 92.1893 11.8362 88.3527C7.99955 84.5174 5.84445 79.3149 5.84445 73.8889C5.85097 68.4659 8.00874 63.267 11.8429 59.4317C15.6782 55.5978 20.877 53.44 26.3 53.4333Z" fill="#B5B6B9"/>
<path id="Vector_6" d="M27.759 79.7331H24.8368C24.0293 79.7331 23.3757 79.0796 23.3757 78.272H17.5312C17.5312 79.9562 18.1131 81.5869 19.1789 82.8915C20.2434 84.196 21.7254 85.0923 23.3756 85.4289V88.4998H29.22V85.4289C31.6048 84.9397 33.589 83.2946 34.5114 81.0428C35.435 78.7912 35.1755 76.2264 33.8213 74.2042C32.4659 72.1834 30.1934 70.9689 27.7591 70.9662H24.8369C24.0293 70.9662 23.3758 70.3127 23.3758 69.5051C23.3758 68.6976 24.0293 68.044 24.8369 68.044H27.7591C28.1466 68.044 28.5184 68.198 28.7923 68.4719C29.0663 68.7458 29.2202 69.1177 29.2202 69.5051H35.0647C35.0647 67.8209 34.4828 66.1902 33.417 64.8857C32.3525 63.5811 30.8705 62.6849 29.2204 62.3483V59.2773H23.3759V62.3483C20.9912 62.8375 19.0069 64.4825 18.0845 66.7343C17.1609 68.986 17.4205 71.5508 18.7746 73.573C20.1301 75.5938 22.4025 76.8083 24.8368 76.8109H27.759C28.5666 76.8109 29.2202 77.4645 29.2202 78.272C29.2202 79.0796 28.5666 79.7331 27.759 79.7331Z" fill="#B5B6B9"/>
<path id="Vector_7" d="M149.033 47.5889C142.058 47.5889 135.368 50.3598 130.437 55.2922C125.504 60.2236 122.733 66.9133 122.733 73.8889C122.733 80.8645 125.504 87.5542 130.437 92.4856C135.368 97.4183 142.058 100.189 149.033 100.189C156.009 100.189 162.699 97.418 167.63 92.4856C172.563 87.5542 175.333 80.8645 175.333 73.8889C175.326 66.916 172.552 60.2313 167.622 55.3002C162.691 50.3702 156.006 47.5969 149.033 47.5889ZM149.033 94.3445C143.608 94.3445 138.405 92.1893 134.57 88.3527C130.733 84.5174 128.578 79.3149 128.578 73.8889C128.578 68.4629 130.733 63.2607 134.57 59.425C138.405 55.5884 143.607 53.4333 149.033 53.4333C154.459 53.4333 159.662 55.5885 163.497 59.425C167.334 63.2603 169.489 68.4629 169.489 73.8889C169.482 79.3119 167.325 84.5108 163.491 88.3461C159.655 92.18 154.456 94.3378 149.033 94.3445Z" fill="#B5B6B9"/>
<path id="Vector_8" d="M146.111 75.2477L138.646 80.2155L141.889 85.0777L150.655 79.2333C151.465 78.6932 151.953 77.7839 151.956 76.8107V59.2773H146.112L146.111 75.2477Z" fill="#B5B6B9"/>
</g>
</g>
</svg>
