<svg width="190" height="188" viewBox="0 0 190 188" fill="none" xmlns="http://www.w3.org/2000/svg">
<path d="M82.3896 135.648C82.3896 137.321 83.0574 138.926 84.2457 140.109C85.4339 141.292 87.0467 141.957 88.7273 141.957H91.8961V160.885C91.8961 164.231 93.2315 167.44 95.6081 169.808C97.9861 172.174 101.21 173.503 104.571 173.503H131.297L139.881 187.747L145.312 184.498L138.687 173.503H148.935C152.296 173.503 155.52 172.174 157.898 169.808C160.274 167.44 161.61 164.231 161.61 160.885V82.0199C161.61 80.2778 163.029 78.8653 164.779 78.8653C166.528 78.8653 167.947 80.2778 167.947 82.0199V133.059C167.943 135.194 168.375 137.307 169.215 139.271C169.263 139.378 169.317 139.485 169.373 139.587L184.193 165.597L189.708 162.486L174.983 136.637C174.517 135.501 174.281 134.286 174.285 133.059V82.02C174.285 79.5104 173.284 77.102 171.501 75.3279C169.719 73.5537 167.3 72.5564 164.779 72.5564C163.697 72.5662 162.625 72.7634 161.61 73.1366V72.5564C161.61 69.2103 160.275 66.0006 157.898 63.6334C155.52 61.2674 152.296 59.938 148.935 59.938H104.572C101.211 59.938 97.9864 61.2674 95.6085 63.6334C93.2319 66.0007 91.8965 69.2103 91.8965 72.5564V91.4839H88.7277C87.0471 91.4839 85.4344 92.1486 84.2461 93.3316C83.0578 94.5146 82.3901 96.12 82.3901 97.7931L82.3896 135.648ZM148.935 167.194H104.571C102.318 167.187 100.238 165.985 99.1151 164.039H154.39C153.267 165.985 151.187 167.187 148.934 167.194H148.935ZM104.571 66.2468H148.935C151.188 66.2539 153.268 67.4551 154.391 69.4014H99.1159C100.239 67.4551 102.319 66.2538 104.572 66.2468H104.571ZM98.2337 75.7106H155.272V157.73H98.2337V141.957C100.755 141.957 103.174 140.96 104.956 139.185C106.738 137.411 107.74 135.003 107.74 132.493C107.73 130.863 107.294 129.264 106.472 127.853C109.228 126.128 110.903 123.115 110.909 119.875V116.72C110.899 115.09 110.463 113.491 109.641 112.08C112.397 110.355 114.072 107.342 114.078 104.102V100.948C114.078 98.4379 113.076 96.0296 111.293 94.2554C109.511 92.4813 107.092 91.4839 104.571 91.4839H98.2337V75.7106ZM88.7273 97.7927H104.571C105.412 97.7927 106.218 98.1251 106.812 98.7166C107.406 99.3081 107.74 100.111 107.74 100.947V104.102C107.74 104.938 107.406 105.741 106.812 106.333C106.218 106.924 105.412 107.257 104.571 107.257H88.7273V97.7927ZM88.7273 113.566H101.402C102.243 113.566 103.049 113.898 103.643 114.49C104.237 115.081 104.571 115.884 104.571 116.72V119.875C104.571 120.711 104.237 121.514 103.643 122.106C103.049 122.697 102.243 123.029 101.402 123.029H88.7273V113.566ZM88.7273 129.339H98.2337C99.9836 129.339 101.402 130.751 101.402 132.493C101.402 134.235 99.9836 135.648 98.2337 135.648H88.7273V129.339Z" fill="#B5B6B9"/>
<path d="M120.414 126.184H133.089V129.339C133.089 130.615 133.862 131.764 135.046 132.252C136.23 132.741 137.592 132.471 138.499 131.569L151.174 118.951C152.41 117.719 152.41 115.722 151.174 114.49L138.499 101.871C137.592 100.97 136.23 100.699 135.046 101.188C133.862 101.677 133.089 102.826 133.089 104.102V107.257H120.414C118.664 107.257 117.245 108.669 117.245 110.411V123.029C117.245 123.866 117.579 124.669 118.173 125.26C118.767 125.852 119.574 126.184 120.414 126.184ZM123.583 113.566H136.258C137.579 113.567 138.763 112.75 139.227 111.518L144.453 116.72L139.227 121.923C138.763 120.691 137.579 119.874 136.258 119.875H123.583V113.566Z" fill="#B5B6B9"/>
<path d="M41.1945 82.0194C52.1198 82.0194 62.5982 77.6989 70.3236 70.0082C78.0489 62.3174 82.3889 51.886 82.3889 41.0097C82.3889 30.1334 78.0489 19.702 70.3236 12.0112C62.5982 4.32053 52.1198 0 41.1945 0C30.2692 0 19.7907 4.32053 12.0654 12.0112C4.34 19.702 0 30.1334 0 41.0097C0.0127317 51.8817 4.35702 62.3059 12.0795 69.9941C19.802 77.6823 30.2731 82.0068 41.1945 82.0194ZM41.1945 6.30918C50.4391 6.30918 59.3048 9.96527 65.842 16.4727C72.3791 22.9806 76.0513 31.8062 76.0513 41.0097C76.0513 50.2132 72.3788 59.0388 65.842 65.5467C59.3048 72.0545 50.4394 75.7102 41.1945 75.7102C31.9495 75.7102 23.0841 72.0541 16.547 65.5467C10.0098 59.0388 6.33761 50.2132 6.33761 41.0097C6.34893 31.8091 10.0243 22.9907 16.5586 16.4843C23.0943 9.97933 31.9528 6.32072 41.1945 6.30918Z" fill="#B5B6B9"/>
<path d="M27.7492 58.856L41.194 45.4701L54.6387 58.856L59.1203 54.3945L45.6741 41.01L59.1203 27.6256L54.6387 23.1641L41.194 36.55L27.7492 23.1641L23.2676 27.6256L36.7138 41.01L23.2676 54.3945L27.7492 58.856Z" fill="#B5B6B9"/>
<path d="M38.0273 91.4834H44.365V97.7926H38.0273V91.4834Z" fill="#B5B6B9"/>
<path d="M38.0273 104.101H44.365V110.41H38.0273V104.101Z" fill="#B5B6B9"/>
<path d="M38.0273 116.72H44.365V123.029H38.0273V116.72Z" fill="#B5B6B9"/>
<path d="M63.376 116.72H69.7136V123.029H63.376V116.72Z" fill="#B5B6B9"/>
<path d="M50.7021 116.72H57.0398V123.029H50.7021V116.72Z" fill="#B5B6B9"/>
</svg>
