<svg width="79" height="79" viewBox="0 0 79 79" fill="none" xmlns="http://www.w3.org/2000/svg">
<path d="M19.761 9.87259C22.4872 9.87259 24.6973 7.66254 24.6973 4.9363C24.6973 2.21005 22.4872 0 19.761 0C17.0348 0 14.8247 2.21005 14.8247 4.9363C14.8247 7.66254 17.0348 9.87259 19.761 9.87259Z" fill="#C6C6C6"/>
<path d="M39.5059 9.87259C42.2321 9.87259 44.4422 7.66254 44.4422 4.9363C44.4422 2.21005 42.2321 0 39.5059 0C36.7796 0 34.5696 2.21005 34.5696 4.9363C34.5696 7.66254 36.7796 9.87259 39.5059 9.87259Z" fill="#C6C6C6"/>
<path d="M59.2511 9.87259C61.9774 9.87259 64.1874 7.66254 64.1874 4.9363C64.1874 2.21005 61.9774 0 59.2511 0C56.5249 0 54.3148 2.21005 54.3148 4.9363C54.3148 7.66254 56.5249 9.87259 59.2511 9.87259Z" fill="#C6C6C6"/>
<path d="M4.95181 78.9807C6.25711 78.9784 7.50839 78.4593 8.4319 77.5368L16.91 69.1081H42.7515C45.3816 69.1051 47.9849 68.58 50.4105 67.5631C52.8361 66.5463 55.0357 65.058 56.8816 63.1845L75.2076 44.4266L75.6519 43.97L75.8247 43.7355C77.7899 41.1951 78.9002 38.0976 78.9962 34.8872C79.0406 32.9146 78.6904 30.953 77.9661 29.1177C77.2418 27.2824 76.158 25.6103 74.7784 24.1997C73.3988 22.7891 71.7513 21.6684 69.9325 20.9034C68.1137 20.1384 66.1604 19.7446 64.1874 19.7451C62.0534 19.7502 59.9454 20.2134 58.0059 21.1033C56.0664 21.9932 54.3405 23.2892 52.9449 24.9035L48.3912 29.3339C47.3321 26.5221 45.4428 24.0991 42.9741 22.3864C40.5054 20.6738 37.5742 19.7526 34.5696 19.7451H19.7607C17.5468 19.7448 15.3546 20.1806 13.3091 21.0276C11.2637 21.8745 9.40513 23.1161 7.83954 24.6814L1.54576 30.9752C0.846761 31.6455 0.354296 32.502 0.126578 33.4433C-0.040815 34.1682 -0.0421988 34.9216 0.12253 35.647C0.287258 36.3725 0.613838 37.0514 1.07786 37.6329C1.54188 38.2144 2.13133 38.6835 2.80217 39.0052C3.473 39.3268 4.20786 39.4926 4.95181 39.4903C5.60024 39.4908 6.24242 39.3636 6.84167 39.1158C7.44091 38.8681 7.98547 38.5047 8.44424 38.0464L14.4048 32.0859C15.1876 31.3032 16.1169 30.6824 17.1396 30.2589C18.1623 29.8355 19.2585 29.6176 20.3654 29.6177H34.3721C35.5285 29.5977 36.657 29.9735 37.5705 30.6827C38.484 31.392 39.1277 32.3921 39.3948 33.5174C39.5494 34.2371 39.5411 34.9823 39.3704 35.6984C39.1997 36.4145 38.871 37.0834 38.4084 37.656C37.9458 38.2287 37.361 38.6906 36.6968 39.008C36.0325 39.3254 35.3057 39.4902 34.5696 39.4903H27.3749C26.1182 39.4654 24.8968 39.9069 23.9464 40.7297C22.9961 41.5524 22.3842 42.698 22.2288 43.9453C22.1615 44.6328 22.2392 45.3268 22.4569 45.9824C22.6746 46.6381 23.0275 47.2407 23.4928 47.7513C23.9581 48.2619 24.5254 48.6692 25.1579 48.9468C25.7905 49.2244 26.4743 49.3662 27.1651 49.3629H37.9633C40.536 49.362 43.0067 48.3569 44.8494 46.5615L60.2383 31.5922C61.0238 30.5449 62.1932 29.8525 63.4893 29.6673C64.7853 29.4822 66.1018 29.8195 67.1491 30.605C68.1965 31.3905 68.8889 32.5599 69.074 33.8559C69.2592 35.1519 68.9219 36.4684 68.1364 37.5158L49.8104 56.2614C48.8913 57.2024 47.7933 57.9502 46.5811 58.4609C45.3689 58.9717 44.0669 59.235 42.7515 59.2355H15.1946C13.6657 59.2442 12.2021 59.8563 11.1222 60.9385L1.48406 70.5766C0.802764 71.2668 0.339834 72.1423 0.153061 73.0939C-0.0337125 74.0455 0.0639447 75.031 0.433842 75.9274C0.80374 76.8239 1.42949 77.5915 2.23298 78.1345C3.03646 78.6775 3.98209 78.9718 4.95181 78.9807Z" fill="#C6C6C6"/>
</svg>
