<svg width="79" height="79" viewBox="0 0 79 79" fill="none" xmlns="http://www.w3.org/2000/svg">
<path d="M60.4844 12.3437V20.9844C60.4844 22.2939 61.0046 23.5497 61.9305 24.4757C62.8565 25.4017 64.1124 25.9219 65.4219 25.9219C66.7314 25.9219 67.9872 25.4017 68.9132 24.4757C69.8392 23.5497 70.3594 22.2939 70.3594 20.9844V12.3437C70.3594 9.06998 69.0589 5.9303 66.744 3.6154C64.4291 1.3005 61.2894 0 58.0156 0H12.3437C9.06998 0 5.9303 1.3005 3.6154 3.6154C1.3005 5.9303 0 9.06998 0 12.3437V46.9062C0 50.18 1.3005 53.3197 3.6154 55.6346C5.9303 57.9495 9.06998 59.25 12.3437 59.25H19.75C21.0595 59.25 22.3154 58.7298 23.2413 57.8038C24.1673 56.8779 24.6875 55.622 24.6875 54.3125C24.6875 53.003 24.1673 51.7471 23.2413 50.8211C22.3154 49.8952 21.0595 49.375 19.75 49.375H12.3437C11.689 49.375 11.0611 49.1149 10.5981 48.6519C10.1351 48.1889 9.875 47.561 9.875 46.9062V12.3437C9.875 11.689 10.1351 11.0611 10.5981 10.5981C11.0611 10.1351 11.689 9.875 12.3437 9.875H58.0156C58.6704 9.875 59.2983 10.1351 59.7613 10.5981C60.2243 11.0611 60.4844 11.689 60.4844 12.3437Z" fill="#C6C6C6"/>
<path d="M4.9375 69.125C3.62799 69.125 2.37212 69.6452 1.44616 70.5712C0.5202 71.4971 0 72.753 0 74.0625C0 75.372 0.5202 76.6279 1.44616 77.5538C2.37212 78.4798 3.62799 79 4.9375 79H24.6875C25.997 79 27.2529 78.4798 28.1788 77.5538C29.1048 76.6279 29.625 75.372 29.625 74.0625C29.625 72.753 29.1048 71.4971 28.1788 70.5712C27.2529 69.6452 25.997 69.125 24.6875 69.125H4.9375Z" fill="#C6C6C6"/>
<path d="M56.1641 79C60.6806 79 65.0957 77.6607 68.851 75.1514C72.6064 72.6422 75.5333 69.0757 77.2617 64.903C78.9901 60.7303 79.4423 56.1387 78.5612 51.709C77.6801 47.2793 75.5051 43.2103 72.3115 40.0166C69.1178 36.823 65.0489 34.6481 60.6191 33.7669C56.1894 32.8858 51.5978 33.338 47.4251 35.0664C43.2524 36.7948 39.6859 39.7218 37.1767 43.4771C34.6674 47.2324 33.3281 51.6475 33.3281 56.1641C33.3347 62.2185 35.7427 68.0231 40.0238 72.3043C44.305 76.5854 50.1096 78.9935 56.1641 79ZM43.2031 56.1641C43.2083 54.4685 43.5481 52.7906 44.203 51.2266L61.1386 68.1252C59.1699 68.9467 57.0287 69.2692 54.9053 69.0638C52.7819 68.8585 50.7422 68.1317 48.9674 66.9481C47.1926 65.7645 45.7377 64.1608 44.7321 62.2794C43.7265 60.398 43.2013 58.2973 43.2031 56.1641ZM69.125 56.1641C69.1198 57.8596 68.78 59.5375 68.1251 61.1016L51.1895 44.203C53.1582 43.3814 55.2994 43.0589 57.4228 43.2643C59.5462 43.4696 61.5859 44.1964 63.3607 45.38C65.1355 46.5636 66.5904 48.1674 67.596 50.0487C68.6016 51.9301 69.1268 54.0308 69.125 56.1641Z" fill="#C6C6C6"/>
</svg>
