<svg width="79" height="79" viewBox="0 0 79 79" fill="none" xmlns="http://www.w3.org/2000/svg">
<path d="M9.12209 46.9059C8.43439 46.8385 7.74022 46.9162 7.08445 47.134C6.42868 47.3518 5.82593 47.7047 5.31517 48.1701C4.80441 48.6355 4.39702 49.2029 4.11934 49.8357C3.84166 50.4684 3.69989 51.1524 3.70318 51.8434V62.9527C3.70318 66.2265 5.00368 69.3662 7.31858 71.6811C9.63348 73.996 12.7732 75.2965 16.0469 75.2965H26.9465C28.2035 75.3214 29.4252 74.8798 30.3758 74.0568C31.3264 73.2339 31.9384 72.088 32.0938 70.8404C32.1612 70.1527 32.0835 69.4585 31.8657 68.8028C31.6479 68.147 31.2949 67.5442 30.8295 67.0335C30.3641 66.5227 29.7967 66.1153 29.164 65.8376C28.5313 65.56 27.8473 65.4182 27.1563 65.4215H16.0469C15.3922 65.4215 14.7642 65.1614 14.3013 64.6984C13.8383 64.2354 13.5782 63.6075 13.5782 62.9527V52.0532C13.6031 50.7961 13.1614 49.5744 12.3385 48.6239C11.5156 47.6733 10.3697 47.0612 9.12209 46.9059Z" fill="#C6C6C6"/>
<path d="M69.8779 32.0938C70.5656 32.1612 71.2598 32.0835 71.9156 31.8657C72.5713 31.6479 73.1741 31.2949 73.6849 30.8295C74.1956 30.3641 74.603 29.7967 74.8807 29.164C75.1584 28.5313 75.3001 27.8473 75.2968 27.1563V16.0469C75.2968 12.7732 73.9963 9.63348 71.6814 7.31858C69.3665 5.00368 66.2269 3.70318 62.9531 3.70318H51.8437C51.1527 3.69989 50.4688 3.84166 49.836 4.11934C49.2033 4.39702 48.6359 4.80441 48.1705 5.31517C47.7051 5.82593 47.3521 6.42868 47.1343 7.08445C46.9166 7.74022 46.8388 8.43439 46.9062 9.12209C47.0616 10.3697 47.6737 11.5156 48.6242 12.3385C49.5748 13.1614 50.7965 13.6031 52.0536 13.5782H62.9531C63.6078 13.5782 64.2358 13.8383 64.6988 14.3013C65.1617 14.7642 65.4218 15.3922 65.4218 16.0469V26.9465C65.3969 28.2035 65.8386 29.4252 66.6615 30.3758C67.4844 31.3264 68.6303 31.9384 69.8779 32.0938Z" fill="#C6C6C6"/>
<path d="M17.2812 34.5625C20.1529 34.5655 22.9794 33.8483 25.5022 32.4764L32.5134 39.5L39.5 46.4866L46.5236 53.5102C45.1031 56.1418 44.3898 59.097 44.4535 62.0868C44.5172 65.0767 45.3557 67.9988 46.887 70.5676C48.4183 73.1363 50.59 75.2637 53.1897 76.7417C55.7894 78.2198 58.7282 78.9979 61.7188 79C63.0283 79 64.2841 78.4798 65.2101 77.5538C66.1361 76.6279 66.6562 75.372 66.6562 74.0625C66.6562 72.753 66.1361 71.4971 65.2101 70.5712C64.2841 69.6452 63.0283 69.125 61.7188 69.125C60.2539 69.125 58.822 68.6906 57.6041 67.8768C56.3861 67.063 55.4368 65.9063 54.8763 64.553C54.3157 63.1997 54.169 61.7105 54.4548 60.2739C54.7406 58.8372 55.446 57.5175 56.4817 56.4817C57.5175 55.446 58.8372 54.7406 60.2739 54.4548C61.7105 54.169 63.1997 54.3157 64.553 54.8763C65.9063 55.4368 67.063 56.3861 67.8768 57.6041C68.6906 58.822 69.125 60.2539 69.125 61.7188C69.125 63.0283 69.6452 64.2841 70.5712 65.2101C71.4971 66.1361 72.753 66.6562 74.0625 66.6562C75.372 66.6562 76.6279 66.1361 77.5538 65.2101C78.4798 64.2841 79 63.0283 79 61.7188C78.9991 58.7265 78.2212 55.7857 76.7425 53.1843C75.2638 50.5829 73.135 48.4101 70.5644 46.8784C67.9938 45.3468 65.0696 44.5089 62.078 44.4467C59.0863 44.3845 56.1298 45.1001 53.4978 46.5236L46.4866 39.5L39.5 32.5134L32.4764 25.4898C33.8969 22.8582 34.6102 19.903 34.5465 16.9132C34.4828 13.9233 33.6443 11.0012 32.113 8.43244C30.5817 5.8637 28.41 3.7363 25.8103 2.25825C23.2106 0.780204 20.2718 0.00209322 17.2812 0C15.9717 0 14.7159 0.5202 13.7899 1.44616C12.864 2.37212 12.3438 3.62799 12.3438 4.9375C12.3438 6.24701 12.864 7.50288 13.7899 8.42884C14.7159 9.3548 15.9717 9.875 17.2812 9.875C18.7461 9.875 20.178 10.3094 21.3959 11.1232C22.6139 11.937 23.5632 13.0937 24.1237 14.447C24.6843 15.8003 24.831 17.2895 24.5452 18.7261C24.2594 20.1628 23.554 21.4825 22.5183 22.5183C21.4825 23.554 20.1628 24.2594 18.7261 24.5452C17.2895 24.831 15.8003 24.6843 14.447 24.1237C13.0937 23.5632 11.937 22.6139 11.1232 21.3959C10.3094 20.178 9.875 18.7461 9.875 17.2812C9.875 15.9717 9.3548 14.7159 8.42884 13.7899C7.50288 12.864 6.24701 12.3438 4.9375 12.3438C3.62799 12.3438 2.37212 12.864 1.44616 13.7899C0.5202 14.7159 0 15.9717 0 17.2812C0 21.8645 1.8207 26.2601 5.06156 29.5009C8.30242 32.7418 12.698 34.5625 17.2812 34.5625Z" fill="#C6C6C6"/>
</svg>
