<svg width="79" height="79" viewBox="0 0 79 79" fill="none" xmlns="http://www.w3.org/2000/svg">
<path d="M55.547 16.0469C55.547 12.8731 54.6059 9.77061 52.8426 7.13172C51.0793 4.49282 48.5731 2.43605 45.6409 1.2215C42.7087 0.00695286 39.4822 -0.310829 36.3693 0.308343C33.2565 0.927516 30.3972 2.45583 28.153 4.70003C25.9087 6.94422 24.3804 9.8035 23.7612 12.9163C23.142 16.0291 23.4598 19.2556 24.6744 22.1878C25.889 25.1199 27.9458 27.6261 30.5847 29.3894C33.2236 31.1526 36.3261 32.0938 39.5 32.0938C41.6073 32.0938 43.694 31.6787 45.6409 30.8723C47.5878 30.0658 49.3568 28.8838 50.8469 27.3937C52.337 25.9036 53.5191 24.1346 54.3255 22.1878C55.1319 20.2409 55.547 18.1542 55.547 16.0469ZM33.328 16.0469C33.328 14.8262 33.69 13.6329 34.3682 12.618C35.0463 11.603 36.0103 10.8119 37.1381 10.3448C38.2658 9.87768 39.5068 9.75545 40.704 9.9936C41.9013 10.2317 43.001 10.8196 43.8642 11.6827C44.7273 12.5459 45.3152 13.6456 45.5533 14.8428C45.7915 16.04 45.6692 17.281 45.2021 18.4088C44.7349 19.5365 43.9439 20.5004 42.9289 21.1786C41.9139 21.8568 40.7207 22.2188 39.5 22.2188C37.8631 22.2188 36.2932 21.5685 35.1357 20.4111C33.9783 19.2536 33.328 17.6838 33.328 16.0469Z" fill="#C6C6C6"/>
<path d="M71.4331 58.5459C73.4305 56.2158 74.7178 53.3619 75.1424 50.3225C75.567 47.283 75.1111 44.1856 73.8287 41.3974C72.5464 38.6092 70.4914 36.2472 67.9074 34.5915C65.3234 32.9357 62.3188 32.0557 59.2498 32.0557C56.1809 32.0557 53.1762 32.9357 50.5922 34.5915C48.0082 36.2472 45.9533 38.6092 44.6709 41.3974C43.3886 44.1856 42.9327 47.283 43.3573 50.3225C43.7819 53.3619 45.0692 56.2158 47.0666 58.5459C43.786 61.1128 41.4011 64.6512 40.2528 68.6553C40.1823 68.7926 40.0753 68.9079 39.9436 68.9884C39.8118 69.0688 39.6604 69.1114 39.506 69.1114C39.3516 69.1114 39.2002 69.0688 39.0685 68.9884C38.9367 68.9079 38.8297 68.7926 38.7592 68.6553C37.6109 64.6512 35.226 61.1128 31.9455 58.5459C33.9428 56.2158 35.2301 53.3619 35.6547 50.3225C36.0793 47.283 35.6235 44.1856 34.3411 41.3974C33.0588 38.6092 31.0038 36.2472 28.4198 34.5915C25.8358 32.9357 22.8312 32.0557 19.7622 32.0557C16.6932 32.0557 13.6886 32.9357 11.1046 34.5915C8.52062 36.2472 6.46563 38.6092 5.18329 41.3974C3.90095 44.1856 3.44506 47.283 3.86967 50.3225C4.29428 53.3619 5.58158 56.2158 7.57893 58.5459C5.22306 60.3893 3.31671 62.7438 2.00378 65.4316C0.690849 68.1194 0.00564248 71.0704 -0.00012207 74.0617C-0.00012207 75.3712 0.520078 76.6271 1.44604 77.553C2.372 78.479 3.62787 78.9992 4.93737 78.9992C6.24688 78.9992 7.50275 78.479 8.42871 77.553C9.35467 76.6271 9.87487 75.3712 9.87487 74.0617C9.86895 71.6749 10.7278 69.3667 12.2924 67.5642C13.857 65.7616 16.0216 64.5868 18.3856 64.2571C20.7496 63.9273 23.153 64.465 25.1512 65.7705C27.1494 67.076 28.607 69.0611 29.2545 71.3585C29.9116 73.5655 31.2638 75.5014 33.1098 76.8779C34.9559 78.2544 37.1971 78.998 39.4998 78.998C41.8026 78.998 44.0438 78.2544 45.8899 76.8779C47.7359 75.5014 49.0881 73.5655 49.7451 71.3585C50.3926 69.0611 51.8503 67.076 53.8485 65.7705C55.8467 64.465 58.2501 63.9273 60.6141 64.2571C62.9781 64.5868 65.1427 65.7616 66.7073 67.5642C68.2719 69.3667 69.1307 71.6749 69.1248 74.0617C69.1248 75.3712 69.645 76.6271 70.571 77.553C71.4969 78.479 72.7528 78.9992 74.0623 78.9992C75.3718 78.9992 76.6277 78.479 77.5537 77.553C78.4796 76.6271 78.9998 75.3712 78.9998 74.0617C78.9955 71.0714 78.3122 68.1211 77.0015 65.4333C75.6907 62.7455 73.7867 60.3905 71.4331 58.5459ZM19.7499 54.312C18.5292 54.312 17.3359 53.95 16.321 53.2719C15.306 52.5937 14.5149 51.6298 14.0478 50.502C13.5807 49.3743 13.4584 48.1334 13.6966 46.9361C13.9347 45.7389 14.5225 44.6392 15.3857 43.7761C16.2488 42.9129 17.3486 42.3251 18.5458 42.087C19.743 41.8489 20.984 41.9711 22.1117 42.4382C23.2395 42.9053 24.2034 43.6964 24.8816 44.7113C25.5598 45.7263 25.9217 46.9195 25.9217 48.1402C25.9217 49.7771 25.2715 51.3469 24.114 52.5043C22.9566 53.6618 21.3867 54.312 19.7499 54.312ZM59.2498 54.312C58.0291 54.312 56.8359 53.95 55.8209 53.2719C54.806 52.5937 54.0149 51.6298 53.5478 50.502C53.0806 49.3743 52.9584 48.1334 53.1965 46.9361C53.4347 45.7389 54.0225 44.6392 54.8857 43.7761C55.7488 42.9129 56.8485 42.3251 58.0458 42.087C59.243 41.8489 60.4839 41.9711 61.6117 42.4382C62.7395 42.9053 63.7034 43.6964 64.3815 44.7113C65.0597 45.7263 65.4217 46.9195 65.4217 48.1402C65.4217 49.7771 64.7715 51.3469 63.614 52.5043C62.4566 53.6618 60.8867 54.312 59.2498 54.312Z" fill="#C6C6C6"/>
</svg>
