<svg width="78" height="76" viewBox="0 0 78 76" fill="none" xmlns="http://www.w3.org/2000/svg">
<path d="M23.9061 58.7836H15.0986C13.7638 58.7836 12.4836 58.2675 11.5398 57.3489C10.596 56.4302 10.0657 55.1842 10.0657 53.885V14.6959C10.0657 13.3967 10.596 12.1507 11.5398 11.232C12.4836 10.3134 13.7638 9.79727 15.0986 9.79727H55.3614C56.6962 9.79727 57.9763 10.3134 58.9202 11.232C59.864 12.1507 60.3943 13.3967 60.3943 14.6959V23.2685C60.3943 24.5677 60.9245 25.8137 61.8684 26.7324C62.8122 27.6511 64.0923 28.1672 65.4271 28.1672C66.7619 28.1672 68.042 27.6511 68.9859 26.7324C69.9297 25.8137 70.46 24.5677 70.46 23.2685V14.6959C70.46 10.7983 68.8692 7.06035 66.0377 4.30433C63.2062 1.54831 59.3658 0 55.3614 0H15.0986C11.0942 0 7.2538 1.54831 4.42227 4.30433C1.59074 7.06035 0 10.7983 0 14.6959V53.885C0 57.7826 1.59074 61.5206 4.42227 64.2766C7.2538 67.0326 11.0942 68.5809 15.0986 68.5809H23.9061C25.2409 68.5809 26.521 68.0648 27.4648 67.1461C28.4087 66.2275 28.9389 64.9815 28.9389 63.6823C28.9389 62.3831 28.4087 61.1371 27.4648 60.2184C26.521 59.2997 25.2409 58.7836 23.9061 58.7836Z" fill="#C6C6C6"/>
<path d="M76.5383 67.5653L68.5612 59.801L72.5497 55.9188C73.7431 54.7563 74.6169 53.3203 75.0907 51.7429C75.5644 50.1656 75.6229 48.4976 75.2607 46.8924C74.8986 45.2873 74.1274 43.7967 73.0183 42.5577C71.9091 41.3187 70.4975 40.3711 68.9135 39.8023L45.0074 31.2297C43.203 30.5805 41.2453 30.4483 39.366 30.8486C37.4868 31.2488 35.7647 32.1649 34.4038 33.4883C33.0429 34.8116 32.1 36.4868 31.6869 38.3156C31.2739 40.1443 31.4078 42.05 32.073 43.8069L40.8805 67.0754C41.4649 68.6172 42.4384 69.9911 43.7114 71.0707C44.9843 72.1503 46.5158 72.9009 48.1649 73.2534C49.814 73.6059 51.5277 73.549 53.1483 73.0879C54.7689 72.6267 56.2442 71.7763 57.4386 70.6147L61.4271 66.7325L69.4042 74.4969C70.3486 75.4161 71.6294 75.9324 72.9649 75.9324C74.3005 75.9324 75.5813 75.4161 76.5257 74.4969C77.4701 73.5777 78.0006 72.331 78.0006 71.0311C78.0006 69.7312 77.4701 68.4845 76.5257 67.5653H76.5383ZM50.3297 63.6831L41.5222 40.4146L65.4282 48.9872L50.3297 63.6831Z" fill="#C6C6C6"/>
</svg>
