<svg width="74" height="77" viewBox="0 0 74 77" fill="none" xmlns="http://www.w3.org/2000/svg">
<path d="M17.931 33.4263C15.227 33.4208 12.5569 34.0281 10.1214 35.2027C7.68578 36.3773 5.54808 38.0885 3.86884 40.2079C2.18961 42.3273 1.01252 44.7997 0.426012 47.4393C-0.160495 50.0789 -0.141168 52.8171 0.482544 55.4482C1.10626 58.0793 2.31813 60.5348 4.02712 62.6303C5.7361 64.7257 7.89775 66.4067 10.3497 67.5467C12.8016 68.6868 15.48 69.2564 18.1836 69.2127C20.8872 69.169 23.5458 68.5131 25.9596 67.2944L33.6423 74.977C34.0856 75.4204 34.6119 75.7721 35.1912 76.012C35.7705 76.252 36.3913 76.3755 37.0183 76.3755C37.6453 76.3755 38.2662 76.252 38.8455 76.012C39.4247 75.7721 39.9511 75.4204 40.3944 74.977C40.8378 74.5337 41.1894 74.0074 41.4294 73.4281C41.6693 72.8488 41.7928 72.228 41.7928 71.601C41.7928 70.974 41.6693 70.3531 41.4294 69.7739C41.1894 69.1946 40.8378 68.6682 40.3944 68.2249L33.0339 60.8643C34.7391 58.1597 35.6885 55.0476 35.7834 51.8517C35.8783 48.6558 35.1152 45.4928 33.5734 42.6918C32.0316 39.8908 29.7675 37.554 27.0165 35.9245C24.2656 34.295 21.1283 33.4324 17.931 33.4263ZM17.931 59.6714C16.2794 59.6714 14.6649 59.1816 13.2916 58.264C11.9183 57.3465 10.848 56.0422 10.2159 54.5164C9.5839 52.9905 9.41853 51.3114 9.74074 49.6915C10.063 48.0717 10.8583 46.5837 12.0262 45.4158C13.194 44.248 14.682 43.4526 16.3019 43.1304C17.9217 42.8082 19.6008 42.9736 21.1267 43.6056C22.6526 44.2377 23.9568 45.308 24.8744 46.6813C25.7919 48.0545 26.2817 49.6691 26.2817 51.3207C26.2817 53.5354 25.4019 55.6595 23.8358 57.2255C22.2698 58.7916 20.1457 59.6714 17.931 59.6714Z" fill="#C6C6C6"/>
<path d="M73.9998 4.79457C74.003 4.12678 73.8659 3.46576 73.5976 2.85425C73.3292 2.24274 72.9355 1.69437 72.4419 1.2446C71.9482 0.794831 71.3657 0.453677 70.732 0.243203C70.0982 0.0327297 69.4273 -0.0423771 68.7627 0.022741C67.5569 0.172917 66.4495 0.764427 65.6542 1.68311C64.8589 2.60179 64.432 3.78251 64.4561 4.99738V12.692C60.6478 8.57703 55.9259 5.41443 50.6711 3.45911C45.4163 1.50379 39.7756 0.81044 34.2037 1.43496C28.6318 2.05948 23.2846 3.98438 18.593 7.05452C13.9015 10.1247 9.99696 14.2541 7.1941 19.1101C6.77342 19.8386 6.55284 20.6655 6.5547 21.5067C6.55656 22.348 6.78081 23.1739 7.20471 23.9006C7.62861 24.6273 8.2371 25.229 8.9685 25.6447C9.6999 26.0604 10.5282 26.2754 11.3695 26.2678C12.2199 26.2609 13.0535 26.0301 13.7865 25.5987C14.5194 25.1673 15.1259 24.5505 15.5448 23.8103C17.6055 20.2758 20.464 17.272 23.892 15.0388C27.3201 12.8055 31.2228 11.4046 35.2886 10.948C39.3544 10.4913 43.4707 10.9915 47.3087 12.4087C51.1468 13.8259 54.6004 16.1207 57.3938 19.1101H50.3434C49.1285 19.086 47.9478 19.5128 47.0291 20.3081C46.1105 21.1034 45.5189 22.2109 45.3688 23.4167C45.3037 24.0813 45.3788 24.7522 45.5892 25.3859C45.7997 26.0197 46.1409 26.6022 46.5906 27.0958C47.0404 27.5895 47.5888 27.9832 48.2003 28.2515C48.8118 28.5199 49.4728 28.6569 50.1406 28.6537H64.4561C66.9872 28.6537 69.4147 27.6482 71.2045 25.8585C72.9943 24.0687 73.9998 21.6412 73.9998 19.1101V4.79457Z" fill="#C6C6C6"/>
<path d="M63.9089 42.2773C63.157 45.8988 61.6482 49.3205 59.4812 52.318C57.3143 55.3155 54.5383 57.8212 51.3351 59.6707C50.6187 60.0745 50.0212 60.6596 49.6024 61.3674C49.1836 62.0751 48.9583 62.8805 48.9492 63.7029V64.0965C48.9486 64.8982 49.1572 65.6862 49.5545 66.3825C49.9518 67.0787 50.524 67.6593 51.2145 68.0666C51.905 68.4739 52.6898 68.6939 53.4914 68.7048C54.293 68.7157 55.0836 68.5171 55.7849 68.1287C60.2839 65.5927 64.1807 62.1131 67.2078 57.9287C70.2349 53.7444 72.3205 48.9544 73.3214 43.8878C73.4532 43.2275 73.4437 42.5467 73.2937 41.8903C73.1436 41.2338 72.8563 40.6166 72.4507 40.0791C72.045 39.5416 71.5302 39.0961 70.9401 38.7718C70.35 38.4475 69.6979 38.2517 69.0267 38.1974C67.8227 38.1356 66.6377 38.5164 65.695 39.2679C64.7523 40.0194 64.117 41.0898 63.9089 42.2773Z" fill="#C6C6C6"/>
</svg>
