<svg width="69" height="72" viewBox="0 0 69 72" fill="none" xmlns="http://www.w3.org/2000/svg">
<path d="M43.3961 23.3767H55.6411C59.1839 23.3767 62.5816 21.9693 65.0868 19.4641C67.5919 16.959 68.9993 13.5613 68.9993 10.0185V7.79209C68.9993 6.61115 68.5302 5.47858 67.6951 4.64353C66.8601 3.80848 65.7275 3.33936 64.5466 3.33936C63.3656 3.33936 62.2331 3.80848 61.398 4.64353C60.563 5.47858 60.0939 6.61115 60.0939 7.79209V10.0185C60.0939 11.1994 59.6247 12.332 58.7897 13.167C57.9546 14.0021 56.8221 14.4712 55.6411 14.4712H43.3961C42.2152 14.4712 41.0826 14.9403 40.2475 15.7754C39.4125 16.6104 38.9434 17.743 38.9434 18.9239C38.9434 20.1049 39.4125 21.2374 40.2475 22.0725C41.0826 22.9075 42.2152 23.3767 43.3961 23.3767Z" fill="#C6C6C6"/>
<path d="M61.2083 36.735C61.2083 35.554 60.7392 34.4215 59.9041 33.5864C59.0691 32.7514 57.9365 32.2822 56.7556 32.2822H35.6051C34.4241 32.2822 33.2916 32.7514 32.4565 33.5864C31.6215 34.4215 31.1523 35.554 31.1523 36.735C31.1523 37.9159 31.6215 39.0485 32.4565 39.8835C33.2916 40.7186 34.4241 41.1877 35.6051 41.1877H56.7556C57.9365 41.1877 59.0691 40.7186 59.9041 39.8835C60.7392 39.0485 61.2083 37.9159 61.2083 36.735Z" fill="#C6C6C6"/>
<path d="M64.5466 70.1306C65.7275 70.1306 66.8601 69.6614 67.6951 68.8264C68.5302 67.9913 68.9993 66.8588 68.9993 65.6778V63.4515C68.9993 59.9087 67.5919 56.5109 65.0868 54.0058C62.5816 51.5006 59.1839 50.0933 55.6411 50.0933H43.3961C42.2152 50.0933 41.0826 50.5624 40.2475 51.3974C39.4125 52.2325 38.9434 53.3651 38.9434 54.546C38.9434 55.7269 39.4125 56.8595 40.2475 57.6946C41.0826 58.5296 42.2152 58.9987 43.3961 58.9987H55.6411C56.8221 58.9987 57.9546 59.4679 58.7897 60.3029C59.6247 61.138 60.0939 62.2705 60.0939 63.4515V65.6778C60.0939 66.8588 60.563 67.9913 61.398 68.8264C62.2331 69.6614 63.3656 70.1306 64.5466 70.1306Z" fill="#C6C6C6"/>
<path d="M8.88801 48.9801V55.6592C8.88801 58.0211 9.82626 60.2862 11.4964 61.9563C13.1665 63.6264 15.4316 64.5647 17.7935 64.5647H22.2462V66.791C22.2432 67.4142 22.3711 68.031 22.6215 68.6016C22.8719 69.1722 23.2393 69.6839 23.6999 70.1036C24.1606 70.5233 24.7041 70.8416 25.2955 71.038C25.8869 71.2344 26.5129 71.3045 27.1331 71.2438C28.2583 71.1036 29.2916 70.5517 30.0337 69.6944C30.7759 68.8372 31.1741 67.7354 31.1517 66.6018V57.8856C31.1517 57.2951 30.9171 56.7288 30.4996 56.3113C30.0821 55.8937 29.5158 55.6592 28.9253 55.6592H20.0199C19.4294 55.6592 18.8631 55.4246 18.4456 55.0071C18.028 54.5896 17.7935 54.0233 17.7935 53.4328V42.301C17.7935 41.7105 17.5589 41.1442 17.1414 40.7267C16.7239 40.3092 16.1576 40.0746 15.5671 40.0746H8.88801L17.7935 26.7164V24.3787C17.7934 22.3373 18.1973 20.3161 18.9819 18.4315C19.7664 16.5469 20.9161 14.8362 22.3648 13.3979C23.8134 11.9596 25.5323 10.8222 27.4225 10.0512C29.3127 9.28017 31.3367 8.89078 33.3781 8.90547C33.9503 8.93248 34.5221 8.84357 35.0592 8.6441C35.5962 8.44462 36.0874 8.13868 36.5033 7.74465C36.9191 7.35061 37.2511 6.87661 37.4792 6.35109C37.7073 5.82558 37.8269 5.25938 37.8308 4.6865V4.45274C37.8308 3.2718 37.3617 2.13923 36.5266 1.30418C35.6916 0.469127 34.559 4.47469e-07 33.3781 4.47469e-07C26.965 -0.00122464 20.8073 2.51316 16.228 7.00291C11.6488 11.4927 9.01336 17.5995 8.88801 24.0114L1.61892 34.9206C0.88568 35.9858 0.385678 37.1939 0.151643 38.4657C-0.0823919 39.7376 -0.0451816 41.0445 0.260839 42.301C0.754607 44.2133 1.8701 45.9073 3.43183 47.1164C4.99357 48.3255 6.91294 48.9811 8.88801 48.9801Z" fill="#C6C6C6"/>
</svg>
