<svg width="63" height="65" viewBox="0 0 63 65" fill="none" xmlns="http://www.w3.org/2000/svg">
<path d="M15.0307 28.0196C12.7641 28.0149 10.5259 28.524 8.48425 29.5086C6.44263 30.4932 4.65069 31.9277 3.24307 33.7042C1.83545 35.4808 0.848747 37.5533 0.357105 39.766C-0.134536 41.9786 -0.118334 44.274 0.404494 46.4795C0.927321 48.685 1.94318 50.7433 3.37574 52.4999C4.8083 54.2564 6.62031 55.6654 8.67562 56.6211C10.7309 57.5768 12.9761 58.0542 15.2424 58.0176C17.5088 57.9809 19.7373 57.4312 21.7607 56.4096L28.2007 62.8496C28.5723 63.2212 29.0135 63.516 29.4991 63.7171C29.9847 63.9183 30.5051 64.0218 31.0307 64.0218C31.5563 64.0218 32.0767 63.9183 32.5623 63.7171C33.0479 63.516 33.4891 63.2212 33.8607 62.8496C34.2323 62.4779 34.5271 62.0367 34.7283 61.5511C34.9294 61.0656 35.0329 60.5451 35.0329 60.0196C35.0329 59.494 34.9294 58.9735 34.7283 58.488C34.5271 58.0024 34.2323 57.5612 33.8607 57.1896L27.6907 51.0196C29.1201 48.7524 29.916 46.1437 29.9955 43.4647C30.0751 40.7857 29.4354 38.1343 28.143 35.7864C26.8506 33.4384 24.9527 31.4796 22.6467 30.1137C20.3407 28.7478 17.7109 28.0247 15.0307 28.0196ZM15.0307 50.0196C13.6462 50.0196 12.2929 49.609 11.1417 48.8399C9.99056 48.0707 9.09335 46.9774 8.56354 45.6983C8.03373 44.4193 7.8951 43.0118 8.1652 41.6539C8.4353 40.2961 9.10198 39.0488 10.081 38.0698C11.0599 37.0908 12.3072 36.4242 13.6651 36.1541C15.0229 35.884 16.4304 36.0226 17.7095 36.5524C18.9886 37.0822 20.0818 37.9794 20.851 39.1306C21.6202 40.2817 22.0307 41.6351 22.0307 43.0196C22.0307 44.8761 21.2932 46.6566 19.9804 47.9693C18.6677 49.2821 16.8872 50.0196 15.0307 50.0196Z" fill="#C6C6C6"/>
<path d="M62.0306 4.01906C62.0333 3.45928 61.9184 2.90518 61.6935 2.39258C61.4685 1.87998 61.1385 1.42031 60.7247 1.04329C60.3109 0.666269 59.8226 0.380296 59.2914 0.203866C58.7601 0.0274357 58.1977 -0.0355227 57.6406 0.0190627C56.6299 0.144948 55.7016 0.640783 55.0349 1.41087C54.3682 2.18095 54.0105 3.1707 54.0306 4.18906V10.6391C50.8383 7.18971 46.8801 4.53866 42.4753 2.89961C38.0705 1.26055 33.3421 0.679354 28.6715 1.20286C24.0008 1.72636 19.5185 3.33992 15.5858 5.91347C11.6531 8.48702 8.38012 11.9486 6.03062 16.0191C5.67799 16.6298 5.49308 17.3229 5.49464 18.0281C5.4962 18.7333 5.68418 19.4256 6.03951 20.0347C6.39485 20.6439 6.90492 21.1482 7.51801 21.4967C8.13111 21.8452 8.82544 22.0254 9.53062 22.0191C10.2435 22.0132 10.9423 21.8198 11.5567 21.4581C12.1711 21.0965 12.6795 20.5795 13.0306 19.9591C14.758 16.9962 17.1541 14.4783 20.0277 12.6063C22.9013 10.7342 26.1728 9.55994 29.5809 9.17716C32.9891 8.79437 36.4395 9.21369 39.6568 10.4016C42.8741 11.5896 45.7691 13.5132 48.1106 16.0191H42.2006C41.1823 15.9989 40.1925 16.3567 39.4224 17.0233C38.6523 17.69 38.1565 18.6183 38.0306 19.6291C37.976 20.1862 38.039 20.7485 38.2154 21.2798C38.3919 21.8111 38.6778 22.2994 39.0548 22.7132C39.4319 23.1269 39.8915 23.457 40.4041 23.6819C40.9167 23.9069 41.4708 24.0217 42.0306 24.0191H54.0306C56.1524 24.0191 58.1872 23.1762 59.6875 21.6759C61.1878 20.1756 62.0306 18.1408 62.0306 16.0191V4.01906Z" fill="#C6C6C6"/>
<path d="M53.5708 35.4391C52.9405 38.4748 51.6757 41.3431 49.8593 43.8558C48.0428 46.3684 45.7158 48.4688 43.0308 50.0191C42.4302 50.3576 41.9293 50.8481 41.5783 51.4414C41.2272 52.0346 41.0384 52.7098 41.0308 53.3991V53.7291C41.0302 54.4011 41.2051 55.0616 41.5381 55.6453C41.8712 56.229 42.3508 56.7156 42.9296 57.057C43.5084 57.3984 44.1663 57.5828 44.8383 57.592C45.5102 57.6011 46.1729 57.4347 46.7608 57.1091C50.5321 54.9833 53.7986 52.0665 56.336 48.5589C58.8735 45.0514 60.6218 41.0362 61.4608 36.7891C61.5713 36.2356 61.5634 35.6649 61.4376 35.1147C61.3118 34.5644 61.0709 34.047 60.7309 33.5965C60.3909 33.1459 59.9593 32.7724 59.4647 32.5006C58.97 32.2287 58.4234 32.0646 57.8608 32.0191C56.8515 31.9673 55.8581 32.2865 55.0679 32.9165C54.2777 33.5464 53.7452 34.4437 53.5708 35.4391Z" fill="#C6C6C6"/>
</svg>
