<svg width="62" height="65" viewBox="0 0 62 65" fill="none" xmlns="http://www.w3.org/2000/svg">
<path d="M38.9844 21H49.9844C53.167 21 56.2192 19.7357 58.4697 17.4853C60.7201 15.2348 61.9844 12.1826 61.9844 9V7C61.9844 5.93913 61.563 4.92172 60.8128 4.17157C60.0627 3.42143 59.0452 3 57.9844 3C56.9235 3 55.9061 3.42143 55.1559 4.17157C54.4058 4.92172 53.9844 5.93913 53.9844 7V9C53.9844 10.0609 53.563 11.0783 52.8128 11.8284C52.0627 12.5786 51.0452 13 49.9844 13H38.9844C37.9235 13 36.9061 13.4214 36.1559 14.1716C35.4058 14.9217 34.9844 15.9391 34.9844 17C34.9844 18.0609 35.4058 19.0783 36.1559 19.8284C36.9061 20.5786 37.9235 21 38.9844 21Z" fill="#C6C6C6"/>
<path d="M54.9844 33C54.9844 31.9391 54.563 30.9217 53.8128 30.1716C53.0627 29.4214 52.0452 29 50.9844 29H31.9844C30.9235 29 29.9061 29.4214 29.1559 30.1716C28.4058 30.9217 27.9844 31.9391 27.9844 33C27.9844 34.0609 28.4058 35.0783 29.1559 35.8284C29.9061 36.5786 30.9235 37 31.9844 37H50.9844C52.0452 37 53.0627 36.5786 53.8128 35.8284C54.563 35.0783 54.9844 34.0609 54.9844 33Z" fill="#C6C6C6"/>
<path d="M57.9844 63C59.0452 63 60.0627 62.5786 60.8128 61.8284C61.563 61.0783 61.9844 60.0609 61.9844 59V57C61.9844 53.8174 60.7201 50.7652 58.4697 48.5147C56.2192 46.2643 53.167 45 49.9844 45H38.9844C37.9235 45 36.9061 45.4214 36.1559 46.1716C35.4058 46.9217 34.9844 47.9391 34.9844 49C34.9844 50.0609 35.4058 51.0783 36.1559 51.8284C36.9061 52.5786 37.9235 53 38.9844 53H49.9844C51.0452 53 52.0627 53.4214 52.8128 54.1716C53.563 54.9217 53.9844 55.9391 53.9844 57V59C53.9844 60.0609 54.4058 61.0783 55.1559 61.8284C55.9061 62.5786 56.9235 63 57.9844 63Z" fill="#C6C6C6"/>
<path d="M7.98432 44V50C7.98432 52.1217 8.82717 54.1566 10.3275 55.6569C11.8278 57.1571 13.8626 58 15.9843 58H19.9843V60C19.9817 60.5598 20.0965 61.1139 20.3215 61.6265C20.5464 62.1391 20.8764 62.5988 21.2902 62.9758C21.704 63.3528 22.1923 63.6388 22.7236 63.8152C23.2548 63.9916 23.8172 64.0546 24.3743 64C25.3851 63.8741 26.3134 63.3783 26.98 62.6082C27.6467 61.8381 28.0045 60.8484 27.9843 59.83V52C27.9843 51.4696 27.7736 50.9609 27.3985 50.5858C27.0235 50.2107 26.5148 50 25.9843 50H17.9843C17.4539 50 16.9452 49.7893 16.5701 49.4142C16.195 49.0391 15.9843 48.5304 15.9843 48V38C15.9843 37.4696 15.7736 36.9609 15.3985 36.5858C15.0235 36.2107 14.5148 36 13.9843 36H7.98432L15.9843 24V21.9C15.9843 20.0662 16.3471 18.2505 17.0519 16.5575C17.7567 14.8645 18.7895 13.3277 20.0908 12.0357C21.3922 10.7436 22.9363 9.72187 24.6343 9.02923C26.3323 8.3366 28.1505 7.98681 29.9843 8C30.4984 8.02426 31.0121 7.9444 31.4945 7.7652C31.9769 7.58601 32.4182 7.31118 32.7918 6.95721C33.1654 6.60324 33.4636 6.17743 33.6685 5.70534C33.8734 5.23326 33.9808 4.72463 33.9843 4.21V4C33.9843 2.93913 33.5629 1.92172 32.8127 1.17157C32.0626 0.421429 31.0452 4.01972e-07 29.9843 4.01972e-07C24.2233 -0.00110013 18.6917 2.25763 14.578 6.29089C10.4644 10.3241 8.09692 15.8101 7.98432 21.57L1.45432 31.37C0.795628 32.3269 0.346464 33.4122 0.136225 34.5547C-0.0740146 35.6972 -0.0405878 36.8713 0.234318 38C0.677882 39.7179 1.67995 41.2396 3.0829 42.3258C4.48585 43.4119 6.21006 44.0009 7.98432 44Z" fill="#C6C6C6"/>
</svg>
