<svg width="65" height="64" viewBox="0 0 65 64" fill="none" xmlns="http://www.w3.org/2000/svg">
<path d="M54.0024 40H42.0024C40.9416 40 39.9242 40.4214 39.174 41.1716C38.4239 41.9217 38.0024 42.9391 38.0024 44C38.0024 45.0609 38.4239 46.0783 39.174 46.8284C39.9242 47.5786 40.9416 48 42.0024 48H54.0024C55.3157 48 56.616 47.7413 57.8293 47.2388C59.0425 46.7362 60.1449 45.9997 61.0735 45.0711C62.0021 44.1425 62.7387 43.0401 63.2412 41.8268C63.7438 40.6136 64.0024 39.3132 64.0024 38V10C64.0024 8.68678 63.7438 7.38642 63.2412 6.17317C62.7387 4.95991 62.0021 3.85752 61.0735 2.92893C60.1449 2.00035 59.0425 1.26375 57.8293 0.761204C56.616 0.258657 55.3157 0 54.0024 0H17.0024C14.3503 0 11.8067 1.05357 9.93137 2.92893C8.05601 4.8043 7.00244 7.34784 7.00244 10V36C7.00244 37.0609 7.42387 38.0783 8.17402 38.8284C8.92416 39.5786 9.94158 40 11.0024 40C12.0633 40 13.0807 39.5786 13.8309 38.8284C14.581 38.0783 15.0024 37.0609 15.0024 36V10C15.0024 9.46957 15.2132 8.96086 15.5882 8.58579C15.9633 8.21071 16.472 8 17.0024 8H54.0024C54.5329 8 55.0416 8.21071 55.4167 8.58579C55.7917 8.96086 56.0024 9.46957 56.0024 10V38C56.0024 38.5304 55.7917 39.0391 55.4167 39.4142C55.0416 39.7893 54.5329 40 54.0024 40Z" fill="#C6C6C6"/>
<path d="M34.0024 64H60.0024C61.0633 64 62.0807 63.5786 62.8309 62.8284C63.581 62.0783 64.0024 61.0609 64.0024 60C64.0024 58.9391 63.581 57.9217 62.8309 57.1716C62.0807 56.4214 61.0633 56 60.0024 56H34.0024C32.9416 56 31.9242 56.4214 31.174 57.1716C30.4239 57.9217 30.0024 58.9391 30.0024 60C30.0024 61.0609 30.4239 62.0783 31.174 62.8284C31.9242 63.5786 32.9416 64 34.0024 64Z" fill="#C6C6C6"/>
<path d="M16.5322 60.1303L28.8322 47.8303C29.5828 47.0797 30.0044 46.0617 30.0044 45.0003C30.0044 43.9388 29.5828 42.9208 28.8322 42.1703C28.0817 41.4197 27.0637 40.998 26.0022 40.998C24.9408 40.998 23.9228 41.4197 23.1722 42.1703L12.0022 53.3403L6.83222 48.1703C6.46058 47.7986 6.01938 47.5038 5.53381 47.3027C5.04824 47.1016 4.5278 46.998 4.00222 46.998C3.47664 46.998 2.95621 47.1016 2.47064 47.3027C1.98507 47.5038 1.54386 47.7986 1.17222 48.1703C0.800583 48.5419 0.505782 48.9831 0.304651 49.4687C0.103521 49.9543 0 50.4747 0 51.0003C0 51.5259 0.103521 52.0463 0.304651 52.5319C0.505782 53.0174 0.800583 53.4586 1.17222 53.8303L7.47222 60.1303C8.67371 61.3278 10.3009 62.0002 11.9972 62.0002C13.6936 62.0002 15.3207 61.3278 16.5222 60.1303H16.5322Z" fill="#C6C6C6"/>
</svg>
