<svg width="80" height="81" viewBox="0 0 80 81" fill="none" xmlns="http://www.w3.org/2000/svg">
<path d="M7.52612 4.13305C7.07781 3.71171 6.49001 3.47551 5.87837 3.47091C5.26673 3.46631 4.67552 3.69364 4.22108 4.10819C3.76664 4.52273 3.48187 5.09447 3.42278 5.71091C3.3637 6.32735 3.5346 6.94387 3.90184 7.43915L24.1007 29.9496L1.67339 52.6584C1.14148 53.1938 0.719717 53.8308 0.432486 54.5323C0.145255 55.2339 -0.00173699 55.9861 1.54873e-05 56.7456V75.2143C1.54873e-05 76.7488 0.602021 78.2204 1.6736 79.3054C2.74517 80.3904 4.19854 81 5.71398 81H23.9538C24.7044 81.0014 25.4478 80.8524 26.1413 80.5616C26.8347 80.2708 27.4645 79.8439 27.9944 79.3056L49.1646 57.8573L69.2084 80.1735C69.6457 80.6601 70.256 80.9509 70.9051 80.9819C71.5541 81.0129 72.1888 80.7816 72.6694 80.3388C73.15 79.896 73.4372 79.278 73.4678 78.6208C73.4984 77.9635 73.27 77.3209 72.8326 76.8343L7.52612 4.13305ZM34.9858 42.0871L13.8768 63.4446L5.90989 55.3777L27.3985 33.6235L34.9858 42.0871ZM4.8977 75.2143V61.3617L19.3948 76.0408H5.71398C5.49749 76.0408 5.28986 75.9537 5.13678 75.7987C4.9837 75.6437 4.8977 75.4335 4.8977 75.2143ZM25.3047 75.0118L17.3419 66.949L38.2836 45.7445L45.8668 54.1957L25.3047 75.0118ZM78.3262 20.1635L60.0864 1.6948C59.5558 1.15748 58.9259 0.731261 58.2326 0.440466C57.5393 0.149671 56.7963 0 56.0458 0C55.2954 0 54.5524 0.149671 53.8591 0.440466C53.1658 0.731261 52.5358 1.15748 52.0052 1.6948L34.998 18.9155C34.5447 19.3815 34.2916 20.01 34.2938 20.6641C34.296 21.3183 34.5535 21.945 35.01 22.4078C35.4666 22.8707 36.0852 23.132 36.7312 23.1351C37.3773 23.1381 37.9983 22.8826 38.4591 22.4241L41.6303 19.2089L49.5972 27.2758L45.8791 31.0365C45.6515 31.2669 45.4711 31.5404 45.3479 31.8414C45.2248 32.1424 45.1614 32.465 45.1614 32.7908C45.1614 33.1166 45.2248 33.4392 45.3479 33.7402C45.4711 34.0412 45.6515 34.3147 45.8791 34.5451C46.1066 34.7755 46.3767 34.9582 46.674 35.0829C46.9712 35.2076 47.2899 35.2717 47.6116 35.2717C47.9334 35.2717 48.252 35.2076 48.5493 35.0829C48.8465 34.9582 49.1167 34.7755 49.3442 34.5451L53.0583 30.7803L61.0251 38.8471L56.7642 43.1616C56.5339 43.3913 56.3508 43.6649 56.2254 43.9666C56.1001 44.2683 56.035 44.5922 56.0338 44.9195C56.0327 45.2468 56.0956 45.5711 56.2189 45.8737C56.3421 46.1763 56.5234 46.4511 56.7521 46.6825C56.9808 46.9138 57.2525 47.0969 57.5515 47.2214C57.8504 47.3459 58.1708 47.4092 58.494 47.4077C58.8173 47.4061 59.1371 47.3398 59.4349 47.2125C59.7327 47.0853 60.0027 46.8995 60.2293 46.6661L78.3262 28.3461C78.8569 27.8089 79.2778 27.171 79.565 26.4691C79.8522 25.7671 80 25.0147 80 24.2548C80 23.495 79.8522 22.7426 79.565 22.0406C79.2778 21.3386 78.8569 20.7008 78.3262 20.1635ZM74.8611 24.8375L64.4862 35.3427L54.7928 25.5236L45.0954 15.7044L55.4704 5.2034C55.6233 5.04946 55.8302 4.96305 56.0458 4.96305C56.2615 4.96305 56.4684 5.04946 56.6213 5.2034L74.8611 23.668C74.937 23.7448 74.9972 23.8359 75.0383 23.9363C75.0794 24.0366 75.1005 24.1441 75.1005 24.2528C75.1005 24.3614 75.0794 24.4689 75.0383 24.5693C74.9972 24.6696 74.937 24.7608 74.8611 24.8375Z" fill="#D3D3D3"/>
</svg>
