<svg width="90" height="90" viewBox="0 0 90 90" fill="none" xmlns="http://www.w3.org/2000/svg">
<path d="M49.4118 67.9412C49.4118 68.8137 49.153 69.6667 48.6683 70.3922C48.1835 71.1177 47.4945 71.6832 46.6883 72.0171C45.8822 72.351 44.9951 72.4384 44.1393 72.2681C43.2835 72.0979 42.4974 71.6777 41.8804 71.0607C41.2634 70.4438 40.8432 69.6576 40.673 68.8018C40.5028 67.9461 40.5902 67.059 40.9241 66.2529C41.258 65.4467 41.8235 64.7577 42.549 64.2729C43.2745 63.7881 44.1274 63.5294 45 63.5294C46.1701 63.5294 47.2922 63.9942 48.1196 64.8216C48.947 65.6489 49.4118 66.7711 49.4118 67.9412ZM45 21.1765C35.7353 21.1765 28.2353 27.9044 28.2353 36.1765V37.9412C28.2353 38.6432 28.5142 39.3165 29.0106 39.8129C29.507 40.3093 30.1803 40.5882 30.8824 40.5882C31.5844 40.5882 32.2577 40.3093 32.7541 39.8129C33.2505 39.3165 33.5294 38.6432 33.5294 37.9412V36.1765C33.5294 30.825 38.6735 26.4706 45 26.4706C51.3265 26.4706 56.4706 30.825 56.4706 36.1765C56.4706 41.5279 51.3265 45.8823 45 45.8823C44.298 45.8823 43.6247 46.1612 43.1283 46.6576C42.6318 47.1541 42.353 47.8274 42.353 48.5294V52.0588C42.353 52.7609 42.6318 53.4341 43.1283 53.9306C43.6247 54.427 44.298 54.7059 45 54.7059C45.7021 54.7059 46.3753 54.427 46.8718 53.9306C47.3682 53.4341 47.6471 52.7609 47.6471 52.0588V50.9912C55.6368 49.8529 61.7647 43.6412 61.7647 36.1765C61.7647 27.9044 54.2647 21.1765 45 21.1765ZM90 45C90 53.9001 87.3608 62.6004 82.4161 70.0006C77.4715 77.4009 70.4434 83.1686 62.2208 86.5746C53.9981 89.9805 44.9501 90.8716 36.2209 89.1353C27.4918 87.399 19.4736 83.1131 13.1802 76.8198C6.88685 70.5264 2.60102 62.5082 0.864683 53.779C-0.871652 45.0499 0.0194971 36.0019 3.42544 27.7792C6.83138 19.5566 12.5991 12.5285 19.9994 7.58386C27.3996 2.6392 36.0999 0 45 0C56.9305 0.0140111 68.3682 4.75957 76.8043 13.1957C85.2404 21.6318 89.986 33.0695 90 45ZM84.7059 45C84.7059 37.1469 82.3772 29.4702 78.0142 22.9406C73.6513 16.411 67.4501 11.3218 60.1948 8.31655C52.9395 5.3113 44.956 4.52499 37.2538 6.05705C29.5516 7.58911 22.4767 11.3707 16.9237 16.9237C11.3708 22.4767 7.58913 29.5516 6.05707 37.2538C4.52501 44.9559 5.31132 52.9395 8.31657 60.1948C11.3218 67.4501 16.411 73.6513 22.9406 78.0142C29.4702 82.3771 37.1469 84.7059 45 84.7059C55.5271 84.6942 65.6196 80.5071 73.0634 73.0634C80.5072 65.6196 84.6942 55.5271 84.7059 45Z" fill="#D3D3D3"/>
</svg>
