<svg width="94" height="94" viewBox="0 0 94 94" fill="none" xmlns="http://www.w3.org/2000/svg">
<path d="M63.6988 34.2086L50.9075 47L63.6988 59.7914C63.9705 60.0445 64.1883 60.3497 64.3394 60.6888C64.4905 61.028 64.5718 61.3941 64.5783 61.7653C64.5849 62.1365 64.5166 62.5052 64.3776 62.8495C64.2385 63.1937 64.0315 63.5065 63.769 63.769C63.5065 64.0315 63.1938 64.2385 62.8495 64.3775C62.5052 64.5166 62.1365 64.5849 61.7653 64.5783C61.3941 64.5718 61.028 64.4905 60.6888 64.3394C60.3497 64.1883 60.0445 63.9704 59.7914 63.6988L47 50.9074L34.2086 63.6988C33.6845 64.1872 32.9914 64.453 32.2751 64.4404C31.5589 64.4278 30.8755 64.1376 30.3689 63.6311C29.8624 63.1245 29.5722 62.4411 29.5596 61.7249C29.547 61.0086 29.8128 60.3155 30.3012 59.7914L43.0926 47L30.3012 34.2086C29.8128 33.6845 29.547 32.9913 29.5596 32.2751C29.5722 31.5588 29.8624 30.8755 30.3689 30.3689C30.8755 29.8624 31.5589 29.5722 32.2751 29.5596C32.9914 29.5469 33.6845 29.8128 34.2086 30.3012L47 43.0925L59.7914 30.3012C60.3155 29.8128 61.0087 29.5469 61.7249 29.5596C62.4412 29.5722 63.1245 29.8624 63.6311 30.3689C64.1376 30.8755 64.4278 31.5588 64.4404 32.2751C64.4531 32.9913 64.1872 33.6845 63.6988 34.2086ZM94 47C94 56.2957 91.2435 65.3827 86.0791 73.1118C80.9146 80.8409 73.5742 86.865 64.9861 90.4223C56.398 93.9796 46.9479 94.9104 37.8308 93.0969C28.7137 91.2834 20.3391 86.8071 13.766 80.234C7.19293 73.6609 2.71662 65.2863 0.903113 56.1692C-0.910392 47.0521 0.0203638 37.602 3.57768 29.0139C7.135 20.4257 13.1591 13.0854 20.8882 7.92093C28.6173 2.7565 37.7043 0 47 0C59.4607 0.0146338 71.4068 4.9711 80.2179 13.7821C89.0289 22.5932 93.9854 34.5393 94 47ZM88.4706 47C88.4706 38.7979 86.0384 30.78 81.4815 23.9602C76.9247 17.1404 70.4479 11.825 62.8701 8.68617C55.2924 5.54736 46.954 4.7261 38.9095 6.32626C30.865 7.92641 23.4756 11.8761 17.6759 17.6759C11.8761 23.4756 7.92643 30.865 6.32628 38.9095C4.72613 46.954 5.54738 55.2923 8.68619 62.8701C11.825 70.4479 17.1404 76.9247 23.9602 81.4815C30.78 86.0384 38.7979 88.4706 47 88.4706C57.9949 88.4584 68.5361 84.0852 76.3107 76.3106C84.0853 68.536 88.4584 57.9949 88.4706 47Z" fill="#D3D3D3"/>
</svg>
