<svg width="98" height="125" viewBox="0 0 98 125" fill="none" xmlns="http://www.w3.org/2000/svg">
<path d="M78.9512 110.118H83.1066V124.662H78.9512V110.118Z" fill="#C5C5C5"/>
<path d="M89.3404 81.0297H85.2221C87.7497 79.7617 89.5677 77.4178 90.1667 74.6546C90.7659 71.8914 90.0823 69.0049 88.308 66.804C86.5326 64.603 83.8567 63.323 81.0296 63.323C78.2025 63.323 75.5265 64.603 73.7513 66.804C71.9769 69.0051 71.2932 71.8916 71.8925 74.6546C72.4917 77.4178 74.3098 79.7617 76.8372 81.0297H72.7188C70.9213 81.0334 69.1728 81.6168 67.7324 82.6918L61.4186 87.4268L53.5234 89.4025C52.5949 89.6307 51.9428 90.4627 51.9419 91.418V97.6511C51.9419 98.2753 52.222 98.8662 52.7052 99.2604C53.1885 99.6555 53.8239 99.8123 54.4351 99.6871L64.8236 97.6094C65.0044 97.575 65.1797 97.5157 65.3448 97.4331L70.6412 94.7794V124.66H74.7966V91.4171C74.8003 90.6955 74.4292 90.023 73.8161 89.6418C73.2031 89.2605 72.436 89.2244 71.7904 89.5472L63.7292 93.58L56.0973 95.1151V93.0374L62.8331 91.352V91.353C63.1021 91.2862 63.3553 91.1656 63.577 90.9996L70.2256 86.0131C70.9472 85.4779 71.821 85.1867 72.7188 85.1839H89.3403C90.4422 85.1839 91.4996 85.6217 92.2788 86.4008C93.0579 87.1799 93.4957 88.2374 93.4957 89.3393V108.038H91.418V91.417H87.2626V124.66H91.418V112.194H95.5734C96.1244 112.194 96.6531 111.975 97.0426 111.585C97.4322 111.196 97.6511 110.667 97.6511 110.116V89.3393C97.6511 87.1354 96.7755 85.0215 95.2172 83.4624C93.658 81.9041 91.5441 81.0285 89.3403 81.0285L89.3404 81.0297ZM81.0297 77.9131C79.6523 77.9131 78.3306 77.3659 77.3565 76.392C76.3825 75.4181 75.8354 74.0963 75.8354 72.7189C75.8354 71.3414 76.3826 70.0198 77.3565 69.0457C78.3304 68.0717 79.6522 67.5246 81.0297 67.5246C82.4071 67.5246 83.7288 68.0718 84.7028 69.0457C85.6768 70.0196 86.2239 71.3414 86.2239 72.7189C86.2239 74.0963 85.6767 75.418 84.7028 76.392C83.7289 77.366 82.4071 77.9131 81.0297 77.9131Z" fill="#C5C5C5"/>
<path d="M70.6413 58.1752V6.23295C70.6413 4.58009 69.9846 2.99389 68.8159 1.8254C67.6472 0.656907 66.061 0 64.4083 0H6.23295C4.58009 0 2.99389 0.656693 1.8254 1.8254C0.656907 2.99411 0 4.5803 0 6.23295V58.1752C0 59.8281 0.656693 61.4143 1.8254 62.5828C2.99411 63.7513 4.5803 64.4082 6.23295 64.4082H34.5513L48.5136 76.3736C49.1768 76.9403 50.1238 77.0321 50.8835 76.6027C51.6431 76.1741 52.054 75.3171 51.9131 74.4563L50.2398 64.4084H64.408C66.0608 64.4084 67.647 63.7517 68.8155 62.583C69.984 61.4143 70.6409 59.8281 70.6409 58.1754L70.6413 58.1752ZM47.7867 60.2529C47.1763 60.2529 46.5966 60.5219 46.2024 60.9876C45.8073 61.4532 45.6375 62.0691 45.7377 62.671L46.8768 69.4958L36.6711 60.7538C36.2955 60.4301 35.8159 60.252 35.3206 60.253H6.23295C5.08559 60.253 4.15526 59.3226 4.15526 58.1753V6.233C4.15526 5.08564 5.08559 4.15531 6.23295 4.15531H64.4083C64.9593 4.15531 65.488 4.37421 65.8775 4.76378C66.2671 5.15334 66.486 5.68205 66.486 6.233V58.1753C66.486 58.7262 66.2671 59.2549 65.8775 59.6445C65.488 60.0341 64.9593 60.253 64.4083 60.253L47.7867 60.2529Z" fill="#C5C5C5"/>
<path d="M44.4718 19.8651C41.3218 17.3042 37.2436 16.1763 33.2254 16.755C29.2073 17.3338 25.613 19.5664 23.3138 22.9121C21.0135 26.2577 20.2167 30.4131 21.1164 34.3719C22.0152 38.3307 24.5288 41.7338 28.0479 43.7585V48.8257C28.0479 51.4237 29.4336 53.8243 31.6837 55.1236C33.9339 56.4222 36.7053 56.4222 38.9556 55.1236C41.2058 53.8241 42.5915 51.4237 42.5915 48.8257V43.7502C46.743 41.3582 49.4488 37.0748 49.8244 32.2987C50.2001 27.5219 48.1975 22.8674 44.4716 19.8568L44.4718 19.8651ZM38.4363 48.8245C38.4363 50.5461 37.0413 51.9411 35.3198 51.9411C33.5982 51.9411 32.2032 50.5461 32.2032 48.8245V47.7857H38.4363V48.8245ZM39.6477 40.5974C38.9093 40.9359 38.4363 41.6733 38.4363 42.4858V43.6304H32.2032V42.4858C32.2032 41.6742 31.7311 40.9378 30.9937 40.5992C28.3418 39.386 26.3216 37.1134 25.4276 34.3365C24.5335 31.5604 24.8479 28.5365 26.293 26.0034C27.739 23.4703 30.1832 21.6616 33.0278 21.0188C33.7717 20.8593 34.5304 20.7777 35.291 20.7758C38.4781 20.7619 41.4953 22.2135 43.4728 24.7132C45.4513 27.2119 46.171 30.4816 45.4253 33.5806C44.6805 36.6805 42.5517 39.2647 39.6541 40.5908L39.6477 40.5974Z" fill="#C5C5C5"/>
<path d="M33.2434 8.31079H37.3988V12.4662H33.2434V8.31079Z" fill="#C5C5C5"/>
<path d="M54.0198 29.0881H58.1752V33.2435H54.0198V29.0881Z" fill="#C5C5C5"/>
<path d="M12.4668 29.0881H16.6222V33.2435H12.4668V29.0881Z" fill="#C5C5C5"/>
<path d="M47.0745 45.8563L50.0129 42.9178L52.9514 45.8563L50.0129 48.7947L47.0745 45.8563Z" fill="#C5C5C5"/>
<path d="M17.6909 16.4732L20.6294 13.5348L23.5678 16.4732L20.6294 19.4117L17.6909 16.4732Z" fill="#C5C5C5"/>
<path d="M47.0745 16.4752L50.0129 13.5367L52.9514 16.4752L50.0129 19.4136L47.0745 16.4752Z" fill="#C5C5C5"/>
<path d="M17.6895 45.8563L20.6279 42.9178L23.5664 45.8563L20.6279 48.7947L17.6895 45.8563Z" fill="#C5C5C5"/>
</svg>
