<svg width="29" height="31" viewBox="0 0 29 31" fill="none" xmlns="http://www.w3.org/2000/svg">
<path d="M28.3815 26.4569C28.7704 26.8458 28.9888 27.3733 28.9888 27.9232C28.9888 28.4732 28.7704 29.0007 28.3815 29.3896C27.9926 29.7785 27.4651 29.997 26.9151 29.997C26.3652 29.997 25.8377 29.7785 25.4488 29.3896L14.4961 18.4335L3.54004 29.3861C3.15115 29.775 2.62369 29.9935 2.07371 29.9935C1.52373 29.9935 0.996272 29.775 0.607376 29.3861C0.21848 28.9972 8.19537e-09 28.4698 0 27.9198C-8.19537e-09 27.3698 0.21848 26.8424 0.607376 26.4535L11.5635 15.5008L0.610825 4.5447C0.221929 4.1558 0.00345027 3.62835 0.00345028 3.07836C0.00345028 2.52838 0.221929 2.00093 0.610825 1.61203C0.999721 1.22313 1.52718 1.00465 2.07716 1.00465C2.62714 1.00465 3.1546 1.22313 3.54349 1.61203L14.4961 12.5681L25.4523 1.6103C25.8411 1.22141 26.3686 1.00293 26.9186 1.00293C27.4686 1.00293 27.996 1.22141 28.3849 1.6103C28.7738 1.9992 28.9923 2.52666 28.9923 3.07664C28.9923 3.62662 28.7738 4.15408 28.3849 4.54297L17.4288 15.5008L28.3815 26.4569Z" fill="white"/>
</svg>
