<svg width="37" height="37" viewBox="0 0 37 37" fill="none" xmlns="http://www.w3.org/2000/svg">
<rect width="37" height="37" rx="18.5" fill="#C6C6C6"/>
<path d="M18.4136 30.1823C18.183 30.1841 17.9549 30.1405 17.7425 30.0539C17.5301 29.9672 17.3374 29.8393 17.1755 29.6775C17.0137 29.5156 16.8858 29.3229 16.7991 29.1105C16.7125 28.8981 16.6689 28.67 16.6707 28.4394L16.788 12.8207L12.3047 17.3039C11.9731 17.6355 11.5254 17.8237 11.0599 17.8271C10.5945 17.8306 10.1495 17.649 9.82282 17.3223C9.49614 16.9956 9.31455 16.5506 9.318 16.0852C9.32145 15.6197 9.50965 15.172 9.84121 14.8404L17.342 7.33968C17.6735 7.00812 18.1213 6.81992 18.5867 6.81647C19.0521 6.81302 19.4972 6.99461 19.8238 7.32129L27.2143 14.7117C27.541 15.0384 27.7226 15.4834 27.7191 15.9489C27.7157 16.4143 27.5275 16.8621 27.1959 17.1936C26.8643 17.5252 26.4166 17.7134 25.9512 17.7168C25.4857 17.7203 25.0407 17.5387 24.714 17.212L20.2967 12.7947L20.1826 28.4134C20.181 28.644 20.134 28.8727 20.0442 29.0865C19.9544 29.3002 19.8236 29.4948 19.6593 29.6591C19.4951 29.8234 19.3005 29.9541 19.0867 30.0439C18.873 30.1337 18.6443 30.1807 18.4136 30.1823Z" fill="#171515"/>
</svg>
