<svg width="206" height="23" viewBox="0 0 206 23" fill="none" xmlns="http://www.w3.org/2000/svg">
<path d="M0.473877 22.0819L5.1755 15.9662L16.7181 0.314248H17.407L12.4274 6.80467L5.38097 16.3046L1.1628 22.0819H0.473877Z" fill="black"/>
<path d="M42.3051 4.37529C42.3292 6.11574 41.5436 7.57014 39.9482 8.7385C38.3609 9.87463 36.5237 10.4427 34.4368 10.4427H31.9832L30.69 15.7607C30.3677 17.0741 30.6658 17.7671 31.5844 17.8396L31.5119 18.1418H26.5081L26.5806 17.8396C27.5395 17.7187 28.1841 17.0258 28.5144 15.7607L31.6569 2.6711C31.955 1.42217 31.6488 0.737273 30.7383 0.616409L30.8229 0.314248H37.0354C38.6952 0.314248 39.9845 0.672812 40.903 1.38994C41.8216 2.09901 42.2889 3.09413 42.3051 4.37529ZM34.2071 10.0922C35.7703 10.0922 37.124 9.508 38.2682 8.33965C39.4204 7.18741 39.9965 5.87401 39.9965 4.39947C39.9965 3.29557 39.6662 2.39714 39.0055 1.70419C38.3447 1.01123 37.4544 0.664754 36.3344 0.664754H34.328L32.1041 9.8988C32.7648 10.0277 33.4658 10.0922 34.2071 10.0922Z" fill="black"/>
<path d="M49.0976 18.4681C47.1799 18.4681 45.6772 17.8879 44.5894 16.7276C43.5177 15.5593 42.9819 14.0001 42.9819 12.0502C42.9819 10.1083 43.4291 8.21878 44.3235 6.38164C45.2018 4.55256 46.4547 3.02564 48.0824 1.80088C49.6778 0.600293 51.4344 0 53.3521 0C55.2134 0 56.6597 0.576121 57.6911 1.72836C58.7467 2.85643 59.2744 4.38335 59.2744 6.30912C59.2744 8.24296 58.8192 10.1325 57.9087 11.9777C56.974 13.8793 55.721 15.4304 54.1498 16.6309C52.5463 17.8557 50.8623 18.4681 49.0976 18.4681ZM49.8712 17.9242C51.2571 17.9242 52.4939 17.3682 53.5817 16.2563C54.6856 15.1282 55.4954 13.7665 56.0111 12.1711C56.551 10.5515 56.8209 8.86339 56.8209 7.10683C56.8209 5.22134 56.4583 3.65011 55.7331 2.39312C55.024 1.1603 53.9443 0.54389 52.4939 0.54389C51.4626 0.54389 50.4876 0.854108 49.569 1.47455C48.6585 2.09498 47.9011 2.93298 47.2968 3.98853C46.7086 5.02796 46.2493 6.1802 45.9189 7.44525C45.5966 8.70224 45.4354 9.96729 45.4354 11.2404C45.4354 13.7785 46.0639 15.6761 47.3209 16.9331C48.0058 17.5938 48.8559 17.9242 49.8712 17.9242Z" fill="black"/>
<path d="M71.8564 0.314248H76.6789L76.6064 0.616409C76.0343 0.656697 75.5388 0.801734 75.1198 1.05152C74.7008 1.30131 74.2898 1.71628 73.8869 2.29642C73.1779 3.33586 71.9007 5.48322 70.0555 8.7385C69.5963 9.52815 69.1249 10.3259 68.6414 11.1316L67.3482 13.3918C67.2193 13.6093 66.9171 14.1693 66.4417 15.0718C65.8615 16.1918 65.5715 17.1426 65.5715 17.9242C64.943 18.0692 64.2903 18.315 63.6135 18.6615L62.3806 4.48407C62.2678 3.11427 62.0906 2.15139 61.8488 1.59541C61.6152 1.03943 61.2042 0.7131 60.616 0.616409L60.6885 0.314248H66.2604L66.1879 0.616409C65.366 0.785619 64.8463 1.1885 64.6287 1.82505C64.4676 2.23599 64.4353 3.05384 64.532 4.2786L65.5715 15.8937C65.8615 15.2168 66.7116 13.6738 68.1217 11.2646C68.7502 10.1929 69.2458 9.32671 69.6083 8.66598C69.7937 8.30339 70.0394 7.88036 70.3456 7.3969C70.5632 7.05848 70.8049 6.64754 71.0708 6.16409C71.3206 5.76926 71.7235 5.05213 72.2794 4.0127C72.8274 2.99744 73.1013 2.24405 73.1013 1.75253C73.1013 1.01929 72.6622 0.640581 71.7839 0.616409L71.8564 0.314248Z" fill="black"/>
<path d="M80.051 18.311L80.9333 10.9624H81.2355C81.2758 13.2024 81.7552 14.9509 82.6738 16.2079C83.5924 17.4649 84.8695 18.0934 86.5052 18.0934C87.601 18.0934 88.576 17.7228 89.4301 16.9815C90.2762 16.2402 90.6871 15.2974 90.6629 14.1532C90.6629 13.7906 90.5783 13.4361 90.4091 13.0896C90.248 12.7351 90.0586 12.4329 89.841 12.1831C89.6235 11.9253 89.3092 11.6433 88.8983 11.3371C88.4954 11.0309 88.1489 10.7892 87.8589 10.6119C87.5688 10.4346 87.1659 10.1929 86.6502 9.88671C86.1345 9.58052 85.7558 9.35491 85.5141 9.20987C84.6761 8.68612 83.9993 8.06972 83.4836 7.36064C82.976 6.65157 82.7221 5.88207 82.7221 5.05213C82.7221 3.73068 83.2983 2.56635 84.4505 1.55915C85.6108 0.519717 86.9725 0 88.5357 0C89.3092 0 90.1593 0.165181 91.086 0.495544C92.0126 0.825907 92.5645 0.991088 92.7418 0.991088C93.1769 0.991088 93.5314 0.709071 93.8054 0.145037H94.0109L93.2857 5.95862H92.9473C92.9473 4.24234 92.5162 2.8806 91.654 1.8734C90.7999 0.874253 89.7202 0.37468 88.4148 0.37468C87.3674 0.37468 86.4528 0.701014 85.6712 1.35368C84.8735 2.02246 84.4747 2.84837 84.4747 3.8314C84.4747 4.40349 84.6197 4.9353 84.9098 5.42681C85.2079 5.91027 85.5906 6.3333 86.058 6.69589C86.5334 7.05848 87.0571 7.40899 87.6292 7.74741C88.2013 8.08583 88.7734 8.42828 89.3455 8.77476C89.9176 9.11318 90.4373 9.47174 90.9047 9.85045C91.3801 10.2211 91.7628 10.6602 92.0529 11.1679C92.351 11.6755 92.5001 12.2275 92.5001 12.8237C92.5242 14.3386 91.9199 15.664 90.6871 16.8002C89.4785 17.9121 88.0361 18.4681 86.3602 18.4681C85.2804 18.4681 84.1564 18.2183 82.988 17.7187C82.5126 17.5012 82.142 17.3682 81.8761 17.3199C81.1831 17.1265 80.6392 17.4569 80.2444 18.311H80.051Z" fill="black"/>
<path d="M100.09 6.18826L97.0687 15.5432C96.6659 16.7276 96.7062 17.3199 97.1896 17.3199C97.52 17.3199 97.9712 17.0379 98.5433 16.4738C99.1154 15.9017 99.6955 15.1524 100.284 14.2257L100.55 14.2862C98.8978 17.0741 97.3467 18.4681 95.8964 18.4681C95.3726 18.4681 95.0221 18.2465 94.8448 17.8033C94.6756 17.3602 94.7079 16.6954 94.9415 15.8091L98.0115 6.18826H95.703L95.7997 5.76523H98.1324L99.1718 2.52607L101.396 2.07887L100.211 5.76523C101.299 5.74106 102.363 5.58394 103.402 5.29386L103.027 6.18826H100.09Z" fill="black"/>
<path d="M111.669 17.199C111.903 17.199 112.249 16.9452 112.709 16.4376C113.168 15.9219 113.643 15.2531 114.135 14.4312L114.34 14.5521C113.631 15.7607 112.902 16.7156 112.153 17.4166C111.411 18.1176 110.787 18.4681 110.279 18.4681C109.159 18.4681 108.93 17.5173 109.59 15.6157L110.279 13.6819L110.207 13.6577C109.433 15.1322 108.599 16.3046 107.705 17.1748C106.818 18.037 105.944 18.4681 105.082 18.4681C104.3 18.4681 103.684 18.1659 103.233 17.5616C102.782 16.9492 102.556 16.1354 102.556 15.1201C102.556 13.7101 102.927 12.2436 103.668 10.7207C104.433 9.20584 105.425 7.94885 106.641 6.94971C107.842 5.9425 109.071 5.4389 110.328 5.4389C111.367 5.4389 112.1 6.05934 112.527 7.30021L114.606 5.66854H114.836C114.143 7.35259 113.301 9.76988 112.31 12.9204C111.842 14.4675 111.544 15.4142 111.415 15.7607C111.117 16.7196 111.202 17.199 111.669 17.199ZM106.146 17.0781C106.879 17.0781 107.745 16.4819 108.744 15.2894C109.768 14.0726 110.585 12.5135 111.198 10.6119C111.641 9.38714 111.814 8.28324 111.718 7.30021C111.645 6.30912 111.206 5.81358 110.4 5.81358C109.643 5.81358 108.793 6.30912 107.85 7.30021C106.931 8.2913 106.142 9.51203 105.481 10.9624C104.836 12.4128 104.514 13.7342 104.514 14.9268C104.514 15.5714 104.655 16.0911 104.937 16.4859C105.227 16.8807 105.63 17.0781 106.146 17.0781Z" fill="black"/>
<path d="M121.435 6.18826L118.413 15.5432C118.011 16.7276 118.051 17.3199 118.534 17.3199C118.865 17.3199 119.316 17.0379 119.888 16.4738C120.46 15.9017 121.04 15.1524 121.628 14.2257L121.894 14.2862C120.242 17.0741 118.691 18.4681 117.241 18.4681C116.717 18.4681 116.367 18.2465 116.189 17.8033C116.02 17.3602 116.053 16.6954 116.286 15.8091L119.356 6.18826H117.048L117.144 5.76523H119.477L120.516 2.52607L122.74 2.07887L121.556 5.76523C122.644 5.74106 123.707 5.58394 124.747 5.29386L124.372 6.18826H121.435Z" fill="black"/>
<path d="M129.243 11.6755L126.33 12.4974C126.161 13.2629 126.076 13.9236 126.076 14.4796C126.076 15.3901 126.262 16.1112 126.632 16.643C127.011 17.1668 127.527 17.4287 128.179 17.4287C129.646 17.4287 131.04 16.4456 132.361 14.4796L132.567 14.5763C131.995 15.5996 131.225 16.5343 130.258 17.3803C129.348 18.17 128.357 18.5648 127.285 18.5648C126.302 18.5648 125.52 18.178 124.94 17.4045C124.36 16.5907 124.07 15.6318 124.07 14.5279C124.07 13.142 124.384 11.74 125.013 10.3218C125.609 8.95203 126.467 7.79576 127.587 6.85301C128.683 5.92639 129.831 5.46307 131.032 5.46307C131.813 5.46307 132.506 5.7048 133.111 6.18826C133.723 6.6556 134.029 7.26395 134.029 8.01331C134.029 8.85936 133.638 9.56441 132.857 10.1284C132.075 10.6844 130.871 11.2001 129.243 11.6755ZM131.032 5.81358C130.274 5.81358 129.416 6.49042 128.457 7.8441C127.506 9.19778 126.822 10.6683 126.403 12.2557C127.45 11.885 128.268 11.5708 128.856 11.3129C129.444 11.0551 130.02 10.7408 130.584 10.3702C131.817 9.58858 132.434 8.59749 132.434 7.3969C132.434 6.89733 132.305 6.51057 132.047 6.23661C131.789 5.95459 131.451 5.81358 131.032 5.81358Z" fill="black"/>
<path d="M135.056 18.1418L138.296 8.06166C138.618 7.02222 138.578 6.50251 138.175 6.50251C137.877 6.50251 137.462 6.77647 136.93 7.32439C136.398 7.8723 135.814 8.62972 135.177 9.59664L134.984 9.49995C136.692 6.79258 138.227 5.4389 139.589 5.4389C140.628 5.4389 140.89 6.24063 140.374 7.8441L139.311 11.1074L138.151 14.5763L138.223 14.6004C140.036 10.628 141.47 8.06972 142.526 6.92553C143.066 6.35344 143.533 5.96265 143.928 5.75315C144.331 5.54365 144.782 5.4389 145.282 5.4389C145.692 5.4389 146.039 5.56379 146.321 5.81358C146.611 6.06337 146.804 6.46625 146.901 7.02222C146.998 7.57014 146.893 8.28324 146.587 9.16152L144.834 14.5763L144.907 14.6004C145.632 12.997 146.301 11.6312 146.913 10.5031C147.534 9.36699 148.069 8.4726 148.521 7.81993C148.972 7.16726 149.411 6.65963 149.838 6.29704C150.273 5.93444 150.648 5.70077 150.962 5.59602C151.276 5.49127 151.627 5.4389 152.014 5.4389C152.417 5.4389 152.755 5.56379 153.029 5.81358C153.311 6.06337 153.496 6.46625 153.585 7.02222C153.682 7.57014 153.577 8.28324 153.271 9.16152L151.289 15.3498C151.127 15.8655 151.015 16.3086 150.95 16.6793C150.878 17.1063 150.982 17.3199 151.264 17.3199C151.579 17.3199 152.002 17.0177 152.533 16.4134C153.097 15.7768 153.633 15.0315 154.141 14.1774L154.358 14.2862C153.714 15.4304 152.989 16.4174 152.183 17.2474C151.377 18.0773 150.644 18.4923 149.983 18.4923C148.831 18.4923 148.565 17.5495 149.185 15.664L150.974 10.201C151.853 7.68698 151.792 6.42999 150.793 6.42999C149.423 6.42999 147.05 10.3339 143.674 18.1418H141.619L144.266 10.201C145.145 7.68698 145.084 6.42999 144.085 6.42999C142.788 6.42999 140.415 10.3339 136.966 18.1418H135.056Z" fill="black"/>
<path d="M161.054 11.6755L158.142 12.4974C157.972 13.2629 157.888 13.9236 157.888 14.4796C157.888 15.3901 158.073 16.1112 158.444 16.643C158.822 17.1668 159.338 17.4287 159.991 17.4287C161.457 17.4287 162.851 16.4456 164.173 14.4796L164.378 14.5763C163.806 15.5996 163.037 16.5343 162.07 17.3803C161.159 18.17 160.168 18.5648 159.096 18.5648C158.113 18.5648 157.332 18.178 156.752 17.4045C156.171 16.5907 155.881 15.6318 155.881 14.5279C155.881 13.142 156.196 11.74 156.824 10.3218C157.42 8.95203 158.279 7.79576 159.399 6.85301C160.494 5.92639 161.643 5.46307 162.843 5.46307C163.625 5.46307 164.318 5.7048 164.922 6.18826C165.534 6.6556 165.841 7.26395 165.841 8.01331C165.841 8.85936 165.45 9.56441 164.668 10.1284C163.887 10.6844 162.682 11.2001 161.054 11.6755ZM162.843 5.81358C162.086 5.81358 161.228 6.49042 160.269 7.8441C159.318 9.19778 158.633 10.6683 158.214 12.2557C159.262 11.885 160.079 11.5708 160.668 11.3129C161.256 11.0551 161.832 10.7408 162.396 10.3702C163.629 9.58858 164.245 8.59749 164.245 7.3969C164.245 6.89733 164.116 6.51057 163.858 6.23661C163.601 5.95459 163.262 5.81358 162.843 5.81358Z" fill="black"/>
<path d="M174.881 18.4923C174.309 18.4923 173.959 18.2344 173.83 17.7187C173.701 17.203 173.806 16.5181 174.144 15.664L175.981 10.5394C176.513 9.11318 176.771 8.07374 176.755 7.42108C176.739 6.76035 176.436 6.42999 175.848 6.42999C174.349 6.42999 171.94 10.3339 168.62 18.1418H166.844C168.89 11.7762 169.938 8.5008 169.986 8.31547C170.083 8.04151 170.155 7.79979 170.204 7.59029C170.26 7.38079 170.292 7.19143 170.301 7.02222C170.317 6.84496 170.3 6.71201 170.252 6.62337C170.204 6.52668 170.123 6.47833 170.01 6.47833C169.72 6.47833 169.285 6.77244 168.705 7.36064C168.133 7.94079 167.561 8.67807 166.989 9.57246L166.795 9.47577C168.447 6.78452 169.958 5.4389 171.328 5.4389C172.327 5.4389 172.589 6.28092 172.113 7.96497C171.896 8.64987 171.392 10.0882 170.603 12.2798L169.793 14.5763L169.865 14.6004C171.606 10.7166 173.048 8.16641 174.192 6.94971C174.732 6.36956 175.204 5.97473 175.606 5.76523C176.017 5.54768 176.473 5.4389 176.972 5.4389C177.278 5.4389 177.556 5.51545 177.806 5.66854C178.056 5.81358 178.265 6.03919 178.435 6.34538C178.612 6.64352 178.693 7.06654 178.676 7.61446C178.66 8.16238 178.527 8.79087 178.278 9.49995L176.271 15.3498C175.925 16.3328 175.776 16.9251 175.824 17.1265C175.848 17.2957 175.957 17.3803 176.15 17.3803C176.392 17.3803 176.803 17.0902 177.383 16.5101C178.028 15.8413 178.584 15.1242 179.051 14.3587L179.269 14.4796C178.672 15.4706 177.939 16.4013 177.069 17.2715C176.255 18.0854 175.526 18.4923 174.881 18.4923Z" fill="black"/>
<path d="M186.46 6.18826L183.438 15.5432C183.036 16.7276 183.076 17.3199 183.559 17.3199C183.89 17.3199 184.341 17.0379 184.913 16.4738C185.485 15.9017 186.065 15.1524 186.653 14.2257L186.919 14.2862C185.268 17.0741 183.716 18.4681 182.266 18.4681C181.742 18.4681 181.392 18.2465 181.215 17.8033C181.045 17.3602 181.078 16.6954 181.311 15.8091L184.381 6.18826H182.073L182.169 5.76523H184.502L185.542 2.52607L187.765 2.07887L186.581 5.76523C187.669 5.74106 188.732 5.58394 189.772 5.29386L189.397 6.18826H186.46Z" fill="black"/>
<path d="M205.629 13.6577H205.98L203.357 18.4923C202.849 18.2586 201.737 18.1418 200.021 18.1418H193.228L199.791 13.1621C202.37 11.2283 203.659 9.51203 203.659 8.01331C203.659 7.33647 203.474 6.79661 203.103 6.39373C202.732 5.99085 202.241 5.78941 201.629 5.78941C200.67 5.78941 199.852 6.05531 199.175 6.58711C198.514 7.1028 198.184 7.67892 198.184 8.31547C198.184 8.5008 198.236 8.77476 198.341 9.13735C198.454 9.49995 198.51 9.72153 198.51 9.80211C198.51 10.1405 198.377 10.4306 198.111 10.6723C197.846 10.9141 197.539 11.0349 197.193 11.0349C196.484 11.0349 196.129 10.6159 196.129 9.77793C196.129 8.81908 196.705 7.86022 197.858 6.90136C199.026 5.92639 200.38 5.4389 201.919 5.4389C203.071 5.4389 203.977 5.69272 204.638 6.20035C205.299 6.69992 205.629 7.35662 205.629 8.17044C205.581 9.0326 205.23 9.86254 204.578 10.6602C203.933 11.4499 202.958 12.2839 201.653 13.1621C200.605 13.847 199.771 14.3668 199.151 14.7213C198.522 15.0758 197.555 15.6036 196.25 16.3046H201.375C202.43 16.3046 203.232 16.1233 203.78 15.7607C204.36 15.3901 204.977 14.6891 205.629 13.6577Z" fill="black"/>
</svg>
