<svg width="202" height="23" viewBox="0 0 202 23" fill="none" xmlns="http://www.w3.org/2000/svg">
<path d="M0.473877 22.9402L5.1755 16.8245L16.7181 1.17252H17.407L12.4274 7.66294L5.38097 17.1629L1.1628 22.9402H0.473877Z" fill="black"/>
<path d="M42.3051 5.23357C42.3292 6.97402 41.5436 8.42842 39.9482 9.59678C38.3609 10.7329 36.5237 11.301 34.4368 11.301H31.9832L30.69 16.619C30.3677 17.9324 30.6658 18.6253 31.5844 18.6979L31.5119 19H26.5081L26.5806 18.6979C27.5395 18.577 28.1841 17.884 28.5144 16.619L31.6569 3.52938C31.955 2.28045 31.6488 1.59555 30.7383 1.47468L30.8229 1.17252H37.0354C38.6952 1.17252 39.9845 1.53109 40.903 2.24822C41.8216 2.95729 42.2889 3.95241 42.3051 5.23357ZM34.2071 10.9505C35.7703 10.9505 37.124 10.3663 38.2682 9.19792C39.4204 8.04568 39.9965 6.73229 39.9965 5.25774C39.9965 4.15385 39.6662 3.25542 39.0055 2.56247C38.3447 1.86951 37.4544 1.52303 36.3344 1.52303H34.328L32.1041 10.7571C32.7648 10.886 33.4658 10.9505 34.2071 10.9505Z" fill="black"/>
<path d="M49.0976 19.3264C47.1799 19.3264 45.6772 18.7462 44.5894 17.5859C43.5177 16.4176 42.9819 14.8584 42.9819 12.9085C42.9819 10.9666 43.4291 9.07706 44.3235 7.23992C45.2018 5.41084 46.4547 3.88392 48.0824 2.65916C49.6778 1.45857 51.4344 0.858276 53.3521 0.858276C55.2134 0.858276 56.6597 1.4344 57.6911 2.58664C58.7467 3.71471 59.2744 5.24163 59.2744 7.1674C59.2744 9.10123 58.8192 10.9907 57.9087 12.8359C56.974 14.7375 55.721 16.2886 54.1498 17.4892C52.5463 18.714 50.8623 19.3264 49.0976 19.3264ZM49.8712 18.7825C51.2571 18.7825 52.4939 18.2265 53.5817 17.1145C54.6856 15.9865 55.4954 14.6247 56.0111 13.0293C56.551 11.4097 56.8209 9.72167 56.8209 7.96511C56.8209 6.07962 56.4583 4.50838 55.7331 3.25139C55.024 2.01858 53.9443 1.40217 52.4939 1.40217C51.4626 1.40217 50.4876 1.71238 49.569 2.33282C48.6585 2.95326 47.9011 3.79125 47.2968 4.8468C46.7086 5.88624 46.2493 7.03848 45.9189 8.30353C45.5966 9.56052 45.4354 10.8256 45.4354 12.0987C45.4354 14.6368 46.0639 16.5344 47.3209 17.7914C48.0058 18.4521 48.8559 18.7825 49.8712 18.7825Z" fill="black"/>
<path d="M71.8564 1.17252H76.6789L76.6064 1.47468C76.0343 1.51497 75.5388 1.66001 75.1198 1.9098C74.7008 2.15958 74.2898 2.57455 73.8869 3.1547C73.1779 4.19413 71.9007 6.34149 70.0555 9.59678C69.5963 10.3864 69.1249 11.1841 68.6414 11.9899L67.3482 14.2501C67.2193 14.4676 66.9171 15.0276 66.4417 15.9301C65.8615 17.0501 65.5715 18.0009 65.5715 18.7825C64.943 18.9275 64.2903 19.1733 63.6135 19.5197L62.3806 5.34235C62.2678 3.97255 62.0906 3.00966 61.8488 2.45369C61.6152 1.89771 61.2042 1.57138 60.616 1.47468L60.6885 1.17252H66.2604L66.1879 1.47468C65.366 1.6439 64.8463 2.04678 64.6287 2.68333C64.4676 3.09427 64.4353 3.91212 64.532 5.13688L65.5715 16.752C65.8615 16.0751 66.7116 14.5321 68.1217 12.1228C68.7502 11.0512 69.2458 10.185 69.6083 9.52426C69.7937 9.16166 70.0394 8.73864 70.3456 8.25518C70.5632 7.91676 70.8049 7.50582 71.0708 7.02236C71.3206 6.62754 71.7235 5.91041 72.2794 4.87098C72.8274 3.85571 73.1013 3.10233 73.1013 2.61081C73.1013 1.87757 72.6622 1.49886 71.7839 1.47468L71.8564 1.17252Z" fill="black"/>
<path d="M80.051 19.1692L80.9333 11.8207H81.2355C81.2758 14.0607 81.7552 15.8092 82.6738 17.0662C83.5924 18.3232 84.8695 18.9517 86.5052 18.9517C87.601 18.9517 88.576 18.581 89.4301 17.8397C90.2762 17.0984 90.6871 16.1557 90.6629 15.0115C90.6629 14.6489 90.5783 14.2944 90.4091 13.9479C90.248 13.5934 90.0586 13.2912 89.841 13.0414C89.6235 12.7836 89.3092 12.5016 88.8983 12.1954C88.4954 11.8892 88.1489 11.6474 87.8589 11.4702C87.5688 11.2929 87.1659 11.0512 86.6502 10.745C86.1345 10.4388 85.7558 10.2132 85.5141 10.0681C84.6761 9.5444 83.9993 8.92799 83.4836 8.21892C82.976 7.50985 82.7221 6.74035 82.7221 5.91041C82.7221 4.58896 83.2983 3.42463 84.4505 2.41743C85.6108 1.37799 86.9725 0.858276 88.5357 0.858276C89.3092 0.858276 90.1593 1.02346 91.086 1.35382C92.0126 1.68418 92.5645 1.84936 92.7418 1.84936C93.1769 1.84936 93.5314 1.56735 93.8054 1.00331H94.0109L93.2857 6.81689H92.9473C92.9473 5.10062 92.5162 3.73888 91.654 2.73168C90.7999 1.73253 89.7202 1.23296 88.4148 1.23296C87.3674 1.23296 86.4528 1.55929 85.6712 2.21196C84.8735 2.88074 84.4747 3.70665 84.4747 4.68968C84.4747 5.26177 84.6197 5.79357 84.9098 6.28509C85.2079 6.76855 85.5906 7.19157 86.058 7.55417C86.5334 7.91676 87.0571 8.26727 87.6292 8.60569C88.2013 8.94411 88.7734 9.28656 89.3455 9.63303C89.9176 9.97146 90.4373 10.33 90.9047 10.7087C91.3801 11.0794 91.7628 11.5185 92.0529 12.0262C92.351 12.5338 92.5001 13.0857 92.5001 13.682C92.5242 15.1968 91.9199 16.5223 90.6871 17.6584C89.4785 18.7704 88.0361 19.3264 86.3602 19.3264C85.2804 19.3264 84.1564 19.0766 82.988 18.577C82.5126 18.3594 82.142 18.2265 81.8761 18.1782C81.1831 17.9848 80.6392 18.3151 80.2444 19.1692H80.051Z" fill="black"/>
<path d="M100.09 7.04654L97.0687 16.4014C96.6659 17.5859 96.7062 18.1782 97.1896 18.1782C97.52 18.1782 97.9712 17.8961 98.5433 17.3321C99.1154 16.76 99.6955 16.0106 100.284 15.084L100.55 15.1445C98.8978 17.9324 97.3467 19.3264 95.8964 19.3264C95.3726 19.3264 95.0221 19.1048 94.8448 18.6616C94.6756 18.2184 94.7079 17.5537 94.9415 16.6673L98.0115 7.04654H95.703L95.7997 6.62351H98.1324L99.1718 3.38434L101.396 2.93714L100.211 6.62351C101.299 6.59934 102.363 6.44221 103.402 6.15214L103.027 7.04654H100.09Z" fill="black"/>
<path d="M111.669 18.0573C111.903 18.0573 112.249 17.8035 112.709 17.2958C113.168 16.7802 113.643 16.1114 114.135 15.2895L114.34 15.4104C113.631 16.619 112.902 17.5738 112.153 18.2748C111.411 18.9759 110.787 19.3264 110.279 19.3264C109.159 19.3264 108.93 18.3756 109.59 16.474L110.279 14.5401L110.207 14.516C109.433 15.9905 108.599 17.1629 107.705 18.0331C106.818 18.8953 105.944 19.3264 105.082 19.3264C104.3 19.3264 103.684 19.0242 103.233 18.4199C102.782 17.8075 102.556 16.9937 102.556 15.9784C102.556 14.5683 102.927 13.1018 103.668 11.579C104.433 10.0641 105.425 8.80713 106.641 7.80798C107.842 6.80078 109.071 6.29718 110.328 6.29718C111.367 6.29718 112.1 6.91761 112.527 8.15849L114.606 6.52682H114.836C114.143 8.21086 113.301 10.6282 112.31 13.7787C111.842 15.3258 111.544 16.2725 111.415 16.619C111.117 17.5779 111.202 18.0573 111.669 18.0573ZM106.146 17.9364C106.879 17.9364 107.745 17.3402 108.744 16.1476C109.768 14.9309 110.585 13.3718 111.198 11.4702C111.641 10.2454 111.814 9.14152 111.718 8.15849C111.645 7.1674 111.206 6.67186 110.4 6.67186C109.643 6.67186 108.793 7.1674 107.85 8.15849C106.931 9.14958 106.142 10.3703 105.481 11.8207C104.836 13.2711 104.514 14.5925 104.514 15.785C104.514 16.4296 104.655 16.9494 104.937 17.3442C105.227 17.739 105.63 17.9364 106.146 17.9364Z" fill="black"/>
<path d="M121.435 7.04654L118.413 16.4014C118.011 17.5859 118.051 18.1782 118.534 18.1782C118.865 18.1782 119.316 17.8961 119.888 17.3321C120.46 16.76 121.04 16.0106 121.628 15.084L121.894 15.1445C120.242 17.9324 118.691 19.3264 117.241 19.3264C116.717 19.3264 116.367 19.1048 116.189 18.6616C116.02 18.2184 116.053 17.5537 116.286 16.6673L119.356 7.04654H117.048L117.144 6.62351H119.477L120.516 3.38434L122.74 2.93714L121.556 6.62351C122.644 6.59934 123.707 6.44221 124.747 6.15214L124.372 7.04654H121.435Z" fill="black"/>
<path d="M129.243 12.5338L126.33 13.3557C126.161 14.1211 126.076 14.7819 126.076 15.3378C126.076 16.2483 126.262 16.9695 126.632 17.5013C127.011 18.0251 127.527 18.2869 128.179 18.2869C129.646 18.2869 131.04 17.3039 132.361 15.3378L132.567 15.4345C131.995 16.4578 131.225 17.3925 130.258 18.2386C129.348 19.0282 128.357 19.4231 127.285 19.4231C126.302 19.4231 125.52 19.0363 124.94 18.2628C124.36 17.4489 124.07 16.4901 124.07 15.3862C124.07 14.0003 124.384 12.5982 125.013 11.1801C125.609 9.8103 126.467 8.65403 127.587 7.71129C128.683 6.78466 129.831 6.32135 131.032 6.32135C131.813 6.32135 132.506 6.56308 133.111 7.04654C133.723 7.51388 134.029 8.12223 134.029 8.87159C134.029 9.71764 133.638 10.4227 132.857 10.9867C132.075 11.5427 130.871 12.0584 129.243 12.5338ZM131.032 6.67186C130.274 6.67186 129.416 7.3487 128.457 8.70238C127.506 10.0561 126.822 11.5266 126.403 13.1139C127.45 12.7433 128.268 12.429 128.856 12.1712C129.444 11.9133 130.02 11.5991 130.584 11.2284C131.817 10.4469 132.434 9.45577 132.434 8.25518C132.434 7.75561 132.305 7.36884 132.047 7.09488C131.789 6.81286 131.451 6.67186 131.032 6.67186Z" fill="black"/>
<path d="M135.056 19L138.296 8.91994C138.618 7.8805 138.578 7.36078 138.175 7.36078C137.877 7.36078 137.462 7.63474 136.93 8.18266C136.398 8.73058 135.814 9.488 135.177 10.4549L134.984 10.3582C136.692 7.65086 138.227 6.29718 139.589 6.29718C140.628 6.29718 140.89 7.09891 140.374 8.70238L139.311 11.9657L138.151 15.4345L138.223 15.4587C140.036 11.4863 141.47 8.92799 142.526 7.78381C143.066 7.21172 143.533 6.82092 143.928 6.61142C144.331 6.40193 144.782 6.29718 145.282 6.29718C145.692 6.29718 146.039 6.42207 146.321 6.67186C146.611 6.92164 146.804 7.32452 146.901 7.8805C146.998 8.42842 146.893 9.14152 146.587 10.0198L144.834 15.4345L144.907 15.4587C145.632 13.8552 146.301 12.4895 146.913 11.3614C147.534 10.2253 148.069 9.33087 148.521 8.67821C148.972 8.02554 149.411 7.51791 149.838 7.15531C150.273 6.79272 150.648 6.55905 150.962 6.4543C151.276 6.34955 151.627 6.29718 152.014 6.29718C152.417 6.29718 152.755 6.42207 153.029 6.67186C153.311 6.92164 153.496 7.32452 153.585 7.8805C153.682 8.42842 153.577 9.14152 153.271 10.0198L151.289 16.2081C151.127 16.7237 151.015 17.1669 150.95 17.5376C150.878 17.9646 150.982 18.1782 151.264 18.1782C151.579 18.1782 152.002 17.876 152.533 17.2717C153.097 16.6351 153.633 15.8898 154.141 15.0357L154.358 15.1445C153.714 16.2886 152.989 17.2757 152.183 18.1056C151.377 18.9356 150.644 19.3505 149.983 19.3505C148.831 19.3505 148.565 18.4078 149.185 16.5223L150.974 11.0592C151.853 8.54526 151.792 7.28827 150.793 7.28827C149.423 7.28827 147.05 11.1922 143.674 19H141.619L144.266 11.0592C145.145 8.54526 145.084 7.28827 144.085 7.28827C142.788 7.28827 140.415 11.1922 136.966 19H135.056Z" fill="black"/>
<path d="M161.054 12.5338L158.142 13.3557C157.972 14.1211 157.888 14.7819 157.888 15.3378C157.888 16.2483 158.073 16.9695 158.444 17.5013C158.822 18.0251 159.338 18.2869 159.991 18.2869C161.457 18.2869 162.851 17.3039 164.173 15.3378L164.378 15.4345C163.806 16.4578 163.037 17.3925 162.07 18.2386C161.159 19.0282 160.168 19.4231 159.096 19.4231C158.113 19.4231 157.332 19.0363 156.752 18.2628C156.171 17.4489 155.881 16.4901 155.881 15.3862C155.881 14.0003 156.196 12.5982 156.824 11.1801C157.42 9.8103 158.279 8.65403 159.399 7.71129C160.494 6.78466 161.643 6.32135 162.843 6.32135C163.625 6.32135 164.318 6.56308 164.922 7.04654C165.534 7.51388 165.841 8.12223 165.841 8.87159C165.841 9.71764 165.45 10.4227 164.668 10.9867C163.887 11.5427 162.682 12.0584 161.054 12.5338ZM162.843 6.67186C162.086 6.67186 161.228 7.3487 160.269 8.70238C159.318 10.0561 158.633 11.5266 158.214 13.1139C159.262 12.7433 160.079 12.429 160.668 12.1712C161.256 11.9133 161.832 11.5991 162.396 11.2284C163.629 10.4469 164.245 9.45577 164.245 8.25518C164.245 7.75561 164.116 7.36884 163.858 7.09488C163.601 6.81286 163.262 6.67186 162.843 6.67186Z" fill="black"/>
<path d="M174.881 19.3505C174.309 19.3505 173.959 19.0927 173.83 18.577C173.701 18.0613 173.806 17.3764 174.144 16.5223L175.981 11.3977C176.513 9.97145 176.771 8.93202 176.755 8.27935C176.739 7.61863 176.436 7.28827 175.848 7.28827C174.349 7.28827 171.94 11.1922 168.62 19H166.844C168.89 12.6345 169.938 9.35908 169.986 9.17375C170.083 8.89979 170.155 8.65806 170.204 8.44856C170.26 8.23907 170.292 8.04971 170.301 7.8805C170.317 7.70323 170.3 7.57028 170.252 7.48165C170.204 7.38496 170.123 7.33661 170.01 7.33661C169.72 7.33661 169.285 7.63071 168.705 8.21892C168.133 8.79907 167.561 9.53634 166.989 10.4307L166.795 10.334C168.447 7.6428 169.958 6.29718 171.328 6.29718C172.327 6.29718 172.589 7.1392 172.113 8.82324C171.896 9.50814 171.392 10.9464 170.603 13.1381L169.793 15.4345L169.865 15.4587C171.606 11.5749 173.048 9.02468 174.192 7.80798C174.732 7.22783 175.204 6.83301 175.606 6.62351C176.017 6.40595 176.473 6.29718 176.972 6.29718C177.278 6.29718 177.556 6.37372 177.806 6.52682C178.056 6.67186 178.265 6.89747 178.435 7.20366C178.612 7.50179 178.693 7.92482 178.676 8.47274C178.66 9.02066 178.527 9.64915 178.278 10.3582L176.271 16.2081C175.925 17.1911 175.776 17.7833 175.824 17.9848C175.848 18.154 175.957 18.2386 176.15 18.2386C176.392 18.2386 176.803 17.9485 177.383 17.3684C178.028 16.6996 178.584 15.9824 179.051 15.217L179.269 15.3378C178.672 16.3289 177.939 17.2596 177.069 18.1298C176.255 18.9436 175.526 19.3505 174.881 19.3505Z" fill="black"/>
<path d="M186.46 7.04654L183.438 16.4014C183.036 17.5859 183.076 18.1782 183.559 18.1782C183.89 18.1782 184.341 17.8961 184.913 17.3321C185.485 16.76 186.065 16.0106 186.653 15.084L186.919 15.1445C185.268 17.9324 183.716 19.3264 182.266 19.3264C181.742 19.3264 181.392 19.1048 181.215 18.6616C181.045 18.2184 181.078 17.5537 181.311 16.6673L184.381 7.04654H182.073L182.169 6.62351H184.502L185.542 3.38434L187.765 2.93714L186.581 6.62351C187.669 6.59934 188.732 6.44221 189.772 6.15214L189.397 7.04654H186.46Z" fill="black"/>
<path d="M196.407 9.43965L196.504 9.05289L201.157 6.17631L198.607 16.619C198.43 17.3522 198.446 17.8679 198.655 18.1661C198.865 18.4642 199.235 18.6334 199.767 18.6737L199.695 19H194.22L194.316 18.6737C195.501 18.6012 196.254 17.9163 196.576 16.619L197.966 10.8538C198.168 10.0158 198.14 9.47591 197.882 9.23418C197.624 8.9844 197.132 9.05289 196.407 9.43965Z" fill="black"/>
</svg>
