<svg width="88" height="28" viewBox="0 0 88 28" fill="none" xmlns="http://www.w3.org/2000/svg">
<path d="M17.2328 9.94888C17.2328 11.6634 16.7924 13.2914 15.9115 14.8329C15.0071 16.3901 13.8234 17.6366 12.3606 18.5726C10.8742 19.5242 9.30909 20 7.66536 20H0.610696L0.681478 19.7051C1.08258 19.6657 1.46009 19.4731 1.814 19.127C2.16791 18.781 2.41958 18.313 2.56901 17.7232L5.63626 4.89972C5.95871 3.67282 5.65985 3.01218 4.73968 2.91781L4.82226 2.59929H10.7562C12.7224 2.59929 14.2953 3.26779 15.475 4.60479C16.6469 5.92607 17.2328 7.70743 17.2328 9.94888ZM7.71255 19.6343C9.15179 19.6343 10.4495 19.1034 11.6056 18.0417C12.7617 17.0035 13.6465 15.6823 14.2599 14.0779C14.8734 12.4813 15.1801 10.8651 15.1801 9.22925C15.1644 7.46755 14.8695 6.09516 14.2953 5.11207C13.7291 4.12898 12.8404 3.488 11.6292 3.18914C11.0472 3.03971 9.93433 2.965 8.2906 2.965L4.38577 19.304C5.43964 19.5242 6.54857 19.6343 7.71255 19.6343ZM26.9418 19.0798C27.1699 19.0798 27.5081 18.8321 27.9564 18.3366C28.4047 17.8333 28.8687 17.1805 29.3484 16.3783L29.549 16.4963C28.8569 17.676 28.1451 18.6079 27.4137 19.2922C26.6901 19.9764 26.0806 20.3185 25.5851 20.3185C24.4919 20.3185 24.2678 19.3905 24.9127 17.5344L25.5851 15.6469L25.5144 15.6233C24.7593 17.0625 23.9453 18.2068 23.0724 19.0562C22.2072 19.8978 21.3539 20.3185 20.5124 20.3185C19.7495 20.3185 19.1479 20.0236 18.7074 19.4337C18.267 18.836 18.0468 18.0417 18.0468 17.0507C18.0468 15.6744 18.4086 14.243 19.1321 12.7566C19.8793 11.278 20.8466 10.0511 22.0342 9.07589C23.2061 8.0928 24.4054 7.60125 25.6323 7.60125C26.6469 7.60125 27.3626 8.20684 27.7794 9.41801L29.8085 7.8254H30.0327C29.3563 9.46913 28.5344 11.8285 27.5671 14.9037C27.1109 16.4137 26.8199 17.3378 26.6941 17.676C26.4031 18.6119 26.4857 19.0798 26.9418 19.0798ZM21.5505 18.9619C22.2662 18.9619 23.1117 18.3799 24.0869 17.2159C25.0857 16.0283 25.884 14.5065 26.4817 12.6504C26.9143 11.455 27.0834 10.3775 26.989 9.41801C26.9182 8.45064 26.4896 7.96696 25.7031 7.96696C24.9638 7.96696 24.1341 8.45064 23.2139 9.41801C22.3174 10.3854 21.5466 11.5769 20.9017 12.9925C20.2725 14.4082 19.9579 15.698 19.9579 16.862C19.9579 17.4912 20.0956 17.9984 20.3708 18.3838C20.654 18.7692 21.0472 18.9619 21.5505 18.9619ZM38.9277 20.3421C38.3693 20.3421 38.0271 20.0904 37.9013 19.5871C37.7755 19.0838 37.8777 18.4153 38.208 17.5816L40.0012 12.5796C40.5203 11.1876 40.7719 10.173 40.7562 9.53598C40.7405 8.89107 40.4456 8.56862 39.8714 8.56862C38.4086 8.56862 36.057 12.3791 32.8168 20H31.0826C33.0802 13.7869 34.1026 10.5899 34.1498 10.409C34.2442 10.1416 34.315 9.90562 34.3622 9.70114C34.4172 9.49665 34.4487 9.31183 34.4566 9.14667C34.4723 8.97365 34.4566 8.84388 34.4094 8.75737C34.3622 8.66299 34.2835 8.6158 34.1734 8.6158C33.8903 8.6158 33.4656 8.90287 32.8993 9.47699C32.3409 10.0433 31.7826 10.7629 31.2242 11.6359L31.0354 11.5415C32.6477 8.91466 34.1223 7.60125 35.4593 7.60125C36.4345 7.60125 36.6901 8.42312 36.2261 10.0668C36.0138 10.7353 35.5222 12.1392 34.7515 14.2784L33.9611 16.5199L34.0319 16.5435C35.7306 12.7527 37.1384 10.2635 38.2552 9.07589C38.7822 8.50963 39.2422 8.12426 39.6355 7.91978C40.0366 7.70743 40.4809 7.60125 40.9686 7.60125C41.2674 7.60125 41.5388 7.67597 41.7826 7.8254C42.0264 7.96696 42.2308 8.18718 42.396 8.48604C42.569 8.77703 42.6477 9.18993 42.6319 9.72473C42.6162 10.2595 42.4865 10.873 42.2426 11.5651L40.2843 17.2749C39.9461 18.2344 39.8006 18.8124 39.8478 19.009C39.8714 19.1742 39.9776 19.2568 40.1664 19.2568C40.4023 19.2568 40.8034 18.9737 41.3697 18.4074C41.9988 17.7546 42.5415 17.0547 42.9977 16.3075L43.21 16.4255C42.628 17.3928 41.9123 18.3012 41.0629 19.1506C40.2686 19.9449 39.5568 20.3421 38.9277 20.3421ZM51.5977 5.08847C51.3461 5.33228 51.0393 5.45418 50.6776 5.45418C50.3158 5.45418 50.0091 5.33228 49.7574 5.08847C49.5136 4.8368 49.3917 4.53401 49.3917 4.1801C49.3917 3.81832 49.5136 3.51159 49.7574 3.25992C50.0091 3.00825 50.3158 2.88242 50.6776 2.88242C51.0393 2.88242 51.3461 3.00825 51.5977 3.25992C51.8494 3.51159 51.9752 3.81832 51.9752 4.1801C51.9752 4.53401 51.8494 4.8368 51.5977 5.08847ZM44.956 11.6123C46.7255 8.93826 48.271 7.60125 49.5922 7.60125C50.1978 7.60125 50.4888 7.89225 50.4652 8.47424C50.4495 8.93039 50.3119 9.53598 50.0523 10.291L47.5867 17.6288C47.398 18.1715 47.3036 18.5686 47.3036 18.8203C47.3036 19.072 47.4294 19.1978 47.6811 19.1978C47.9721 19.1978 48.3771 18.9147 48.8962 18.3484C49.4231 17.7821 49.9461 17.0586 50.4652 16.1777L50.6776 16.2839C49.954 17.6052 49.2029 18.604 48.4243 19.2804C47.6457 19.9567 46.9654 20.2949 46.3834 20.2949C45.3374 20.2949 45.0936 19.4298 45.652 17.6996L48.0468 10.4797C48.3457 9.59889 48.4833 9.09948 48.4597 8.98151C48.4361 8.82422 48.3378 8.74557 48.1648 8.74557C47.5671 8.74557 46.5682 9.73653 45.1683 11.7184L44.956 11.6123ZM57.1896 13.6886L54.3465 14.4908C54.1813 15.2379 54.0987 15.8828 54.0987 16.4255C54.0987 17.3142 54.2796 18.0181 54.6414 18.5372C55.011 19.0484 55.5144 19.304 56.1514 19.304C57.5828 19.304 58.9434 18.3445 60.2332 16.4255L60.4338 16.5199C59.8754 17.5187 59.1243 18.431 58.1805 19.2568C57.2918 20.0275 56.3244 20.4129 55.2784 20.4129C54.3189 20.4129 53.5561 20.0354 52.9898 19.2804C52.4235 18.486 52.1404 17.5501 52.1404 16.4727C52.1404 15.1199 52.4471 13.7515 53.0606 12.3673C53.6426 11.0303 54.4802 9.90169 55.5734 8.98151C56.643 8.07707 57.7637 7.62485 58.9355 7.62485C59.6984 7.62485 60.3748 7.86079 60.9646 8.33267C61.5624 8.78883 61.8612 9.38261 61.8612 10.114C61.8612 10.9398 61.4798 11.628 60.7169 12.1785C59.954 12.7212 58.7782 13.2245 57.1896 13.6886ZM58.9355 7.96696C58.1962 7.96696 57.3587 8.6276 56.4228 9.94888C55.4947 11.2701 54.8262 12.7055 54.4172 14.2548C55.4397 13.893 56.2379 13.5863 56.8121 13.3346C57.3862 13.083 57.9485 12.7762 58.499 12.4145C59.7023 11.6516 60.304 10.6842 60.304 9.51238C60.304 9.02477 60.1782 8.64726 59.9265 8.37986C59.6748 8.1046 59.3445 7.96696 58.9355 7.96696ZM63.56 20.4129C63.0173 20.4129 62.6477 20.1966 62.4511 19.7641C62.2544 19.3315 62.2702 18.6866 62.4983 17.8293L66.58 4.89972C66.9261 4.06606 67.0205 3.47227 66.8632 3.11836C66.7059 2.76444 66.2497 2.63468 65.4947 2.72905L65.5891 2.45772L69.5765 1.58474L64.5038 17.5344C64.1105 18.7456 64.1852 19.3512 64.7279 19.3512C65.3728 19.3512 66.2655 18.4153 67.4058 16.5435L67.5946 16.6378C66.871 17.8962 66.1554 18.84 65.4475 19.4691C64.7397 20.0983 64.1105 20.4129 63.56 20.4129ZM70.0248 20.4129C69.4821 20.4129 69.1125 20.1966 68.9159 19.7641C68.7193 19.3315 68.735 18.6866 68.9631 17.8293L73.0449 4.89972C73.3909 4.06606 73.4853 3.47227 73.328 3.11836C73.1707 2.76444 72.7145 2.63468 71.9595 2.72905L72.0539 2.45772L76.0413 1.58474L70.9686 17.5344C70.5753 18.7456 70.65 19.3512 71.1927 19.3512C71.8376 19.3512 72.7303 18.4153 73.8707 16.5435L74.0594 16.6378C73.3359 17.8962 72.6202 18.84 71.9123 19.4691C71.2045 20.0983 70.5753 20.4129 70.0248 20.4129ZM84.1813 19.0798C84.4094 19.0798 84.7476 18.8321 85.1959 18.3366C85.6442 17.8333 86.1082 17.1805 86.5879 16.3783L86.7885 16.4963C86.0964 17.676 85.3846 18.6079 84.6532 19.2922C83.9296 19.9764 83.3201 20.3185 82.8246 20.3185C81.7315 20.3185 81.5073 19.3905 82.1522 17.5344L82.8246 15.6469L82.7539 15.6233C81.9989 17.0625 81.1849 18.2068 80.3119 19.0562C79.4467 19.8978 78.5934 20.3185 77.7519 20.3185C76.989 20.3185 76.3874 20.0236 75.9469 19.4337C75.5065 18.836 75.2863 18.0417 75.2863 17.0507C75.2863 15.6744 75.6481 14.243 76.3716 12.7566C77.1188 11.278 78.0861 10.0511 79.2737 9.07589C80.4456 8.0928 81.6449 7.60125 82.8718 7.60125C83.8864 7.60125 84.6021 8.20684 85.0189 9.41801L87.048 7.8254H87.2722C86.5958 9.46913 85.7739 11.8285 84.8066 14.9037C84.3504 16.4137 84.0594 17.3378 83.9336 17.676C83.6426 18.6119 83.7252 19.0798 84.1813 19.0798ZM78.79 18.9619C79.5057 18.9619 80.3512 18.3799 81.3264 17.2159C82.3252 16.0283 83.1235 14.5065 83.7212 12.6504C84.1538 11.455 84.3229 10.3775 84.2285 9.41801C84.1577 8.45064 83.7291 7.96696 82.9426 7.96696C82.2033 7.96696 81.3736 8.45064 80.4534 9.41801C79.5569 10.3854 78.7861 11.5769 78.1412 12.9925C77.512 14.4082 77.1974 15.698 77.1974 16.862C77.1974 17.4912 77.3351 17.9984 77.6103 18.3838C77.8935 18.7692 78.2867 18.9619 78.79 18.9619Z" fill="white"/>
<path d="M1 26.0283H87.3783V27.2316H1V26.0283Z" fill="white"/>
<a href="https://drive.google.com/file/d/1x1R21MARRtUds5a9F2Vlv0cDSm0SU_I7/view?usp=drive_link">
<rect fill="black" fill-opacity="0" y="-0.0798321" width="86.3783" height="28.1597"/>
</a>
<path d="M88 27.1659H1V28.8341H88V27.1659Z" fill="white" mask="url(#path-1-inside-1_382_5257)"/>
</svg>
