<svg width="79" height="28" viewBox="0 0 79 28" fill="none" xmlns="http://www.w3.org/2000/svg">
<path d="M6.96029 20.3185C5.24577 20.3185 3.86945 19.6657 2.8313 18.3602C1.80102 17.0311 1.27409 15.3952 1.25049 13.4526C1.25049 12.1156 1.5061 10.7707 2.0173 9.41801C2.52851 8.05741 3.21667 6.85804 4.08179 5.81989C4.96264 4.74242 5.98899 3.88517 7.16084 3.24813C8.33268 2.61108 9.52812 2.29256 10.7472 2.29256C11.4786 2.29256 12.1982 2.45379 12.906 2.77624C13.5981 3.08297 14.0818 3.23633 14.3571 3.23633C14.7188 3.23633 15.1278 3.06724 15.584 2.72905L15.1475 9.09948H14.8289C14.8054 7.20408 14.479 5.6508 13.8498 4.43963C13.2206 3.22846 12.2532 2.62288 10.9477 2.62288C9.59497 2.62288 8.34448 3.11443 7.19623 4.09752C6.04798 5.08061 5.14747 6.31537 4.49469 7.8018C3.85765 9.30397 3.55093 10.7865 3.57452 12.2493C3.57452 12.9099 3.62564 13.5352 3.72788 14.125C3.83012 14.7149 3.99922 15.2851 4.23516 15.8356C4.47896 16.3783 4.77782 16.8502 5.13174 17.2513C5.49351 17.6445 5.94967 17.9591 6.5002 18.195C7.0586 18.431 7.67991 18.549 8.36414 18.549C9.37869 18.549 10.3657 18.2304 11.3252 17.5934C12.2926 16.9485 13.1223 16.0126 13.8144 14.7857L14.0385 14.8565C13.315 16.453 12.3162 17.7664 11.0421 18.7967C9.75226 19.8112 8.39167 20.3185 6.96029 20.3185ZM24.3846 19.0798C24.6127 19.0798 24.9509 18.8321 25.3991 18.3366C25.8474 17.8333 26.3115 17.1805 26.7912 16.3783L26.9918 16.4963C26.2997 17.676 25.5879 18.6079 24.8565 19.2922C24.1329 19.9764 23.5234 20.3185 23.0279 20.3185C21.9347 20.3185 21.7106 19.3905 22.3555 17.5344L23.0279 15.6469L22.9571 15.6233C22.2021 17.0625 21.3881 18.2068 20.5151 19.0562C19.65 19.8978 18.7967 20.3185 17.9552 20.3185C17.1923 20.3185 16.5906 20.0236 16.1502 19.4337C15.7098 18.836 15.4896 18.0417 15.4896 17.0507C15.4896 15.6744 15.8514 14.243 16.5749 12.7566C17.3221 11.278 18.2894 10.0511 19.477 9.07589C20.6488 8.0928 21.8482 7.60125 23.0751 7.60125C24.0897 7.60125 24.8054 8.20684 25.2222 9.41801L27.2513 7.8254H27.4754C26.7991 9.46913 25.9772 11.8285 25.0098 14.9037C24.5537 16.4137 24.2627 17.3378 24.1369 17.676C23.8459 18.6119 23.9284 19.0798 24.3846 19.0798ZM18.9933 18.9619C19.709 18.9619 20.5545 18.3799 21.5297 17.2159C22.5285 16.0283 23.3268 14.5065 23.9245 12.6504C24.3571 11.455 24.5262 10.3775 24.4318 9.41801C24.361 8.45064 23.9324 7.96696 23.1459 7.96696C22.4066 7.96696 21.5769 8.45064 20.6567 9.41801C19.7601 10.3854 18.9894 11.5769 18.3445 12.9925C17.7153 14.4082 17.4007 15.698 17.4007 16.862C17.4007 17.4912 17.5383 17.9984 17.8136 18.3838C18.0967 18.7692 18.49 18.9619 18.9933 18.9619ZM28.549 20L31.7106 10.1612C32.0252 9.14667 31.9859 8.6394 31.5926 8.6394C31.3016 8.6394 30.8966 8.9068 30.3775 9.4416C29.8584 9.9764 29.2883 10.7157 28.6669 11.6595L28.4782 11.5651C30.1455 8.92253 31.6437 7.60125 32.9729 7.60125C33.9874 7.60125 34.243 8.38379 33.7397 9.94888L32.7015 13.1341L31.569 16.5199L31.6398 16.5435C33.4094 12.6661 34.8093 10.1691 35.8396 9.0523C36.3665 8.4939 36.8227 8.11246 37.208 7.90798C37.6013 7.70349 38.0417 7.60125 38.5293 7.60125C38.9304 7.60125 39.2686 7.72316 39.5439 7.96696C39.827 8.21077 40.0157 8.60401 40.1101 9.14667C40.2045 9.68147 40.1023 10.3775 39.8034 11.2348L38.0928 16.5199L38.1636 16.5435C38.8714 14.9784 39.5242 13.6453 40.1219 12.5442C40.7275 11.4353 41.2505 10.5623 41.6909 9.92528C42.1314 9.28824 42.56 8.79276 42.9768 8.43885C43.4015 8.08493 43.7672 7.85686 44.0739 7.75462C44.3807 7.65237 44.7228 7.60125 45.1003 7.60125C45.4935 7.60125 45.8238 7.72316 46.0912 7.96696C46.3665 8.21077 46.5474 8.60401 46.6339 9.14667C46.7283 9.68147 46.6261 10.3775 46.3272 11.2348L44.3925 17.2749C44.2352 17.7782 44.1251 18.2108 44.0621 18.5726C43.9914 18.9894 44.0936 19.1978 44.3689 19.1978C44.6756 19.1978 45.0885 18.9029 45.6076 18.313C46.1581 17.6917 46.6811 16.9642 47.1766 16.1306L47.3889 16.2367C46.7598 17.3535 46.0519 18.3169 45.2655 19.127C44.479 19.9371 43.7633 20.3421 43.1184 20.3421C41.9937 20.3421 41.7342 19.4219 42.3398 17.5816L44.0857 12.2493C44.943 9.79551 44.884 8.56862 43.9088 8.56862C42.5718 8.56862 40.2556 12.3791 36.9603 20H34.9548L37.5384 12.2493C38.3956 9.79551 38.3366 8.56862 37.3614 8.56862C36.0952 8.56862 33.779 12.3791 30.4129 20H28.549ZM55.7649 5.08847C55.5132 5.33228 55.2065 5.45418 54.8447 5.45418C54.4829 5.45418 54.1762 5.33228 53.9245 5.08847C53.6807 4.8368 53.5588 4.53401 53.5588 4.1801C53.5588 3.81832 53.6807 3.51159 53.9245 3.25992C54.1762 3.00825 54.4829 2.88242 54.8447 2.88242C55.2065 2.88242 55.5132 3.00825 55.7649 3.25992C56.0165 3.51159 56.1424 3.81832 56.1424 4.1801C56.1424 4.53401 56.0165 4.8368 55.7649 5.08847ZM49.1231 11.6123C50.8927 8.93826 52.4381 7.60125 53.7594 7.60125C54.3649 7.60125 54.6559 7.89225 54.6323 8.47424C54.6166 8.93039 54.479 9.53598 54.2194 10.291L51.7539 17.6288C51.5651 18.1715 51.4707 18.5686 51.4707 18.8203C51.4707 19.072 51.5966 19.1978 51.8482 19.1978C52.1392 19.1978 52.5443 18.9147 53.0633 18.3484C53.5903 17.7821 54.1133 17.0586 54.6323 16.1777L54.8447 16.2839C54.1211 17.6052 53.3701 18.604 52.5914 19.2804C51.8128 19.9567 51.1325 20.2949 50.5506 20.2949C49.5045 20.2949 49.2607 19.4298 49.8191 17.6996L52.2139 10.4797C52.5128 9.59889 52.6504 9.09948 52.6268 8.98151C52.6032 8.82422 52.5049 8.74557 52.3319 8.74557C51.7342 8.74557 50.7354 9.73653 49.3355 11.7184L49.1231 11.6123ZM57.3457 20.4129C56.803 20.4129 56.4334 20.1966 56.2368 19.7641C56.0401 19.3315 56.0559 18.6866 56.2839 17.8293L60.3657 4.89972C60.7118 4.06606 60.8062 3.47227 60.6489 3.11836C60.4916 2.76444 60.0354 2.63468 59.2804 2.72905L59.3748 2.45772L63.3622 1.58474L58.2894 17.5344C57.8962 18.7456 57.9709 19.3512 58.5136 19.3512C59.1585 19.3512 60.0511 18.4153 61.1915 16.5435L61.3803 16.6378C60.6567 17.8962 59.941 18.84 59.2332 19.4691C58.5254 20.0983 57.8962 20.4129 57.3457 20.4129ZM63.8105 20.4129C63.2678 20.4129 62.8982 20.1966 62.7016 19.7641C62.5049 19.3315 62.5207 18.6866 62.7487 17.8293L66.8305 4.89972C67.1766 4.06606 67.271 3.47227 67.1137 3.11836C66.9564 2.76444 66.5002 2.63468 65.7452 2.72905L65.8396 2.45772L69.827 1.58474L64.7543 17.5344C64.361 18.7456 64.4357 19.3512 64.9784 19.3512C65.6233 19.3512 66.516 18.4153 67.6563 16.5435L67.8451 16.6378C67.1215 17.8962 66.4058 18.84 65.698 19.4691C64.9902 20.0983 64.361 20.4129 63.8105 20.4129ZM74.2863 13.6886L71.4432 14.4908C71.278 15.2379 71.1955 15.8828 71.1955 16.4255C71.1955 17.3142 71.3764 18.0181 71.7381 18.5372C72.1078 19.0484 72.6111 19.304 73.2482 19.304C74.6795 19.304 76.0401 18.3445 77.33 16.4255L77.5305 16.5199C76.9721 17.5187 76.221 18.431 75.2773 19.2568C74.3885 20.0275 73.4212 20.4129 72.3752 20.4129C71.4157 20.4129 70.6528 20.0354 70.0865 19.2804C69.5203 18.486 69.2371 17.5501 69.2371 16.4727C69.2371 15.1199 69.5439 13.7515 70.1573 12.3673C70.7393 11.0303 71.5769 9.90169 72.6701 8.98151C73.7397 8.07707 74.8604 7.62485 76.0323 7.62485C76.7952 7.62485 77.4715 7.86079 78.0614 8.33267C78.6591 8.78883 78.958 9.38261 78.958 10.114C78.958 10.9398 78.5765 11.628 77.8136 12.1785C77.0508 12.7212 75.875 13.2245 74.2863 13.6886ZM76.0323 7.96696C75.293 7.96696 74.4554 8.6276 73.5195 9.94888C72.5915 11.2701 71.923 12.7055 71.514 14.2548C72.5364 13.893 73.3347 13.5863 73.9088 13.3346C74.4829 13.083 75.0452 12.7762 75.5958 12.4145C76.7991 11.6516 77.4007 10.6842 77.4007 9.51238C77.4007 9.02477 77.2749 8.64726 77.0232 8.37986C76.7716 8.1046 76.4412 7.96696 76.0323 7.96696Z" fill="white"/>
<path d="M0 26.0283H78.9933V27.2316H0V26.0283Z" fill="white"/>
<a href="https://drive.google.com/file/d/1ZqHhf_Leih8T3g9CRlOiS-uO4m9iP665/view?usp=drive_link">
<rect fill="black" fill-opacity="0" y="-0.0798321" width="78.9933" height="28.1597"/>
</a>
<path d="M79 27.1659H0V28.8341H79V27.1659Z" fill="white" mask="url(#path-1-inside-1_382_5259)"/>
</svg>
