<svg width="67" height="29" viewBox="0 0 67 29" fill="none" xmlns="http://www.w3.org/2000/svg">
<path d="M4.36576 20.4801C3.30402 20.4801 2.46643 20.1734 1.85298 19.56C1.23953 18.9465 0.92494 18.1876 0.909211 17.2831C0.909211 16.4809 1.12549 15.781 1.55805 15.1832C2.02993 14.5698 2.56474 14.2631 3.16246 14.2631C3.88601 14.2631 4.24779 14.5777 4.24779 15.2068C4.24779 15.4742 4.17307 15.718 4.02364 15.9383C3.88208 16.1506 3.70512 16.3354 3.49277 16.4927C3.28829 16.65 3.07988 16.8112 2.86753 16.9764C2.66305 17.1416 2.48609 17.3421 2.33666 17.5781C2.19509 17.814 2.12431 18.0775 2.12431 18.3685C2.12431 18.8168 2.317 19.2179 2.70237 19.5718C3.08774 19.9178 3.56356 20.0908 4.12982 20.0908C6.01735 20.0908 7.28751 18.746 7.94028 16.0562L10.571 5.15572C10.7834 4.5344 10.7991 4.04286 10.6182 3.68108C10.4373 3.3193 10.0441 3.11089 9.43851 3.05583L9.50929 2.76091H14.5584L14.5113 3.03224C13.654 3.07943 13.0759 3.70861 12.7771 4.91977L10.4767 14.5108C10.2486 15.4389 9.94185 16.2646 9.55648 16.9882C9.17897 17.7039 8.77787 18.278 8.35318 18.7106C7.93635 19.1353 7.47626 19.4892 6.97292 19.7723C6.47744 20.0476 6.02128 20.2324 5.60445 20.3268C5.18762 20.429 4.77473 20.4801 4.36576 20.4801ZM21.9552 19.2414C22.1833 19.2414 22.5215 18.9937 22.9698 18.4982C23.4181 17.9949 23.8821 17.3421 24.3618 16.5399L24.5624 16.6579C23.8703 17.8376 23.1585 18.7696 22.4271 19.4538C21.7036 20.138 21.094 20.4801 20.5986 20.4801C19.5054 20.4801 19.2812 19.5521 19.9261 17.696L20.5986 15.8085L20.5278 15.7849C19.7728 17.2241 18.9588 18.3685 18.0858 19.2179C17.2207 20.0594 16.3673 20.4801 15.5258 20.4801C14.7629 20.4801 14.1613 20.1852 13.7209 19.5954C13.2804 18.9976 13.0602 18.2033 13.0602 17.2123C13.0602 15.836 13.422 14.4046 14.1456 12.9182C14.8927 11.4396 15.8601 10.2127 17.0476 9.23751C18.2195 8.25442 19.4189 7.76287 20.6457 7.76287C21.6603 7.76287 22.376 8.36846 22.7928 9.57963L24.8219 7.98702H25.0461C24.3697 9.63075 23.5478 11.9902 22.5805 15.0653C22.1243 16.5753 21.8333 17.4994 21.7075 17.8376C21.4165 18.7735 21.4991 19.2414 21.9552 19.2414ZM16.564 19.1235C17.2796 19.1235 18.1251 18.5415 19.1003 17.3775C20.0992 16.1899 20.8974 14.6681 21.4951 12.812C21.9277 11.6166 22.0968 10.5391 22.0024 9.57963C21.9316 8.61227 21.503 8.12858 20.7165 8.12858C19.9772 8.12858 19.1475 8.61227 18.2273 9.57963C17.3308 10.547 16.56 11.7385 15.9151 13.1541C15.2859 14.5698 14.9713 15.8596 14.9713 17.0236C14.9713 17.6528 15.109 18.16 15.3842 18.5454C15.6674 18.9308 16.0606 19.1235 16.564 19.1235ZM26.1196 20.1616L29.2812 10.3228C29.5958 9.30829 29.5565 8.80102 29.1633 8.80102C28.8723 8.80102 28.4672 9.06842 27.9482 9.60322C27.4291 10.138 26.8589 10.8773 26.2376 11.8211L26.0488 11.7267C27.7161 9.08415 29.2144 7.76287 30.5435 7.76287C31.5581 7.76287 31.8137 8.54542 31.3103 10.1105L30.2722 13.2957L29.1397 16.6815L29.2104 16.7051C30.98 12.8278 32.3799 10.3307 33.4102 9.21392C33.9371 8.65552 34.3933 8.27408 34.7787 8.0696C35.1719 7.86512 35.6123 7.76287 36.0999 7.76287C36.501 7.76287 36.8392 7.88478 37.1145 8.12858C37.3976 8.37239 37.5864 8.76563 37.6808 9.30829C37.7751 9.8431 37.6729 10.5391 37.374 11.3964L35.6635 16.6815L35.7342 16.7051C36.4421 15.14 37.0948 13.8069 37.6926 12.7059C38.2981 11.5969 38.8211 10.7239 39.2616 10.0869C39.702 9.44986 40.1306 8.95438 40.5474 8.60047C40.9721 8.24656 41.3379 8.01848 41.6446 7.91624C41.9513 7.814 42.2934 7.76287 42.6709 7.76287C43.0642 7.76287 43.3945 7.88478 43.6619 8.12858C43.9371 8.37239 44.118 8.76563 44.2045 9.30829C44.2989 9.8431 44.1967 10.5391 43.8978 11.3964L41.9631 17.4365C41.8058 17.9398 41.6957 18.3724 41.6328 18.7342C41.562 19.151 41.6642 19.3594 41.9395 19.3594C42.2462 19.3594 42.6591 19.0645 43.1782 18.4746C43.7287 17.8533 44.2517 17.1258 44.7472 16.2922L44.9596 16.3983C44.3304 17.5151 43.6226 18.4786 42.8361 19.2886C42.0496 20.0987 41.3339 20.5037 40.689 20.5037C39.5644 20.5037 39.3048 19.5836 39.9104 17.7432L41.6564 12.4109C42.5136 9.95713 42.4546 8.73024 41.4794 8.73024C40.1424 8.73024 37.8263 12.5407 34.5309 20.1616H32.5254L35.109 12.4109C35.9662 9.95713 35.9073 8.73024 34.932 8.73024C33.6658 8.73024 31.3496 12.5407 27.9835 20.1616H26.1196ZM51.4952 13.8502L48.6521 14.6524C48.4869 15.3995 48.4043 16.0444 48.4043 16.5871C48.4043 17.4758 48.5852 18.1797 48.947 18.6988C49.3166 19.21 49.82 19.4656 50.457 19.4656C51.8884 19.4656 53.249 18.5061 54.5388 16.5871L54.7394 16.6815C54.181 17.6803 53.4299 18.5926 52.4861 19.4184C51.5974 20.1891 50.63 20.5745 49.584 20.5745C48.6245 20.5745 47.8616 20.197 47.2954 19.442C46.7291 18.6477 46.446 17.7118 46.446 16.6343C46.446 15.2816 46.7527 13.9131 47.3662 12.5289C47.9482 11.1919 48.7858 10.0633 49.879 9.14313C50.9486 8.23869 52.0693 7.78647 53.2411 7.78647C54.004 7.78647 54.6804 8.02241 55.2702 8.49429C55.8679 8.95045 56.1668 9.54424 56.1668 10.2757C56.1668 11.1015 55.7854 11.7896 55.0225 12.3401C54.2596 12.8828 53.0838 13.3862 51.4952 13.8502ZM53.2411 8.12858C52.5018 8.12858 51.6642 8.78922 50.7283 10.1105C49.8003 11.4318 49.1318 12.8671 48.7228 14.4164C49.7453 14.0547 50.5435 13.7479 51.1176 13.4963C51.6918 13.2446 52.2541 12.9379 52.8046 12.5761C54.0079 11.8132 54.6096 10.8458 54.6096 9.674C54.6096 9.18639 54.4838 8.80888 54.2321 8.54148C53.9804 8.26622 53.6501 8.12858 53.2411 8.12858ZM59.5054 20.4801C58.5537 20.4801 57.783 20.2206 57.1931 19.7015C56.6112 19.1825 56.3438 18.5297 56.3909 17.7432C56.4067 17.4129 56.5325 17.118 56.7685 16.8584C57.0044 16.5989 57.2875 16.4691 57.6178 16.4691C57.9482 16.4691 58.2077 16.5753 58.3965 16.7877C58.5852 17 58.6639 17.2713 58.6324 17.6017C58.6088 17.7668 58.5262 18.0067 58.3847 18.3213C58.2431 18.6359 58.1723 18.8639 58.1723 19.0055C58.1566 19.3437 58.2903 19.619 58.5734 19.8313C58.8644 20.0358 59.2655 20.138 59.7767 20.138C60.3823 20.138 60.9289 19.906 61.4165 19.442C61.9198 18.9858 62.1833 18.4353 62.2069 17.7904C62.2384 17.3264 62.0889 16.7877 61.7586 16.1742C61.4362 15.5529 61.0311 14.967 60.5435 14.4164C60.0638 13.8738 59.6666 13.2682 59.352 12.5997C59.0374 11.9312 58.8959 11.3177 58.9273 10.7593C58.9981 9.87849 59.4228 9.17066 60.2014 8.63586C61.0115 8.05387 61.9159 7.76287 62.9147 7.76287C63.827 7.76287 64.5585 8.03814 65.109 8.58867C65.6831 9.1392 65.9584 9.75265 65.9348 10.429C65.9191 10.7672 65.805 11.07 65.5927 11.3374C65.3803 11.5969 65.1169 11.7267 64.8023 11.7267C64.1338 11.7267 63.8113 11.3885 63.8349 10.7121C63.8585 10.4447 63.9686 10.2049 64.1652 9.99253C64.3933 9.70153 64.5073 9.48132 64.5073 9.33189C64.5231 9.00157 64.3736 8.70664 64.0591 8.44711C63.7445 8.18757 63.3552 8.0578 62.8911 8.0578C62.262 8.0578 61.7272 8.23869 61.2867 8.60047C60.8463 8.96225 60.6222 9.44199 60.6143 10.0397C60.5828 10.4565 60.7323 10.9717 61.0626 11.5851C61.4008 12.1907 61.8255 12.8042 62.3367 13.4255C62.8322 14.0075 63.2451 14.6249 63.5754 15.2776C63.9057 15.9304 64.0551 16.4888 64.0237 16.9528C63.9529 17.928 63.5007 18.7578 62.667 19.442C61.8491 20.1341 60.7952 20.4801 59.5054 20.4801Z" fill="white"/>
<path d="M66.3457 27.3275H1.3457V28.9958H66.3457V27.3275Z" fill="white" mask="url(#path-1-inside-1_1139_6088)"/>
</svg>
