<svg width="50" height="28" viewBox="0 0 50 28" fill="none" xmlns="http://www.w3.org/2000/svg">
<path d="M15.9351 2.1156L16.2183 6.71647H15.8879C15.7464 5.23004 15.3492 4.23122 14.6964 3.72001C14.0751 3.21667 12.7971 2.965 10.8624 2.965H8.21982L6.58003 9.8309H9.34055C10.2057 9.8309 10.8742 9.67754 11.3461 9.37082C11.8258 9.05623 12.164 8.57255 12.3606 7.91978H12.6673L11.6292 12.3201H11.3107C11.4444 11.5415 11.3578 10.9949 11.0511 10.6803C10.7444 10.3578 10.1388 10.1966 9.23437 10.1966H6.48565L4.33858 19.127C5.07 19.4652 6.03343 19.6343 7.22887 19.6343C8.80968 19.6343 10.1152 19.3118 11.1455 18.6669C12.2072 17.9984 13.1903 16.8738 14.0948 15.293H14.4605L11.9477 20.3657C11.2556 20.1219 10.2568 20 8.95124 20H0.610696L0.705073 19.6815C1.17696 19.6422 1.5584 19.4809 1.84939 19.1978C2.14039 18.9068 2.36453 18.4585 2.52183 17.8529L5.65985 4.78175C5.80928 4.16043 5.80535 3.70428 5.64806 3.41328C5.49863 3.11443 5.18797 2.9414 4.71608 2.89421L4.79866 2.59929H12.5494C13.9021 2.59929 15.0307 2.43806 15.9351 2.1156ZM16.9851 20.4129C16.4424 20.4129 16.0728 20.1966 15.8761 19.7641C15.6795 19.3315 15.6952 18.6866 15.9233 17.8293L20.0051 4.89972C20.3512 4.06606 20.4455 3.47227 20.2883 3.11836C20.131 2.76444 19.6748 2.63468 18.9198 2.72905L19.0142 2.45772L23.0016 1.58474L17.9288 17.5344C17.5356 18.7456 17.6103 19.3512 18.153 19.3512C18.7979 19.3512 19.6905 18.4153 20.8309 16.5435L21.0197 16.6378C20.2961 17.8962 19.5804 18.84 18.8726 19.4691C18.1648 20.0983 17.5356 20.4129 16.9851 20.4129ZM29.3012 5.08847C29.0496 5.33228 28.7428 5.45418 28.3811 5.45418C28.0193 5.45418 27.7126 5.33228 27.4609 5.08847C27.2171 4.8368 27.0952 4.53401 27.0952 4.1801C27.0952 3.81832 27.2171 3.51159 27.4609 3.25992C27.7126 3.00825 28.0193 2.88242 28.3811 2.88242C28.7428 2.88242 29.0496 3.00825 29.3012 3.25992C29.5529 3.51159 29.6787 3.81832 29.6787 4.1801C29.6787 4.53401 29.5529 4.8368 29.3012 5.08847ZM22.6595 11.6123C24.429 8.93826 25.9745 7.60125 27.2957 7.60125C27.9013 7.60125 28.1923 7.89225 28.1687 8.47424C28.153 8.93039 28.0153 9.53598 27.7558 10.291L25.2902 17.6288C25.1015 18.1715 25.0071 18.5686 25.0071 18.8203C25.0071 19.072 25.1329 19.1978 25.3846 19.1978C25.6756 19.1978 26.0806 18.9147 26.5997 18.3484C27.1266 17.7821 27.6496 17.0586 28.1687 16.1777L28.3811 16.2839C27.6575 17.6052 26.9064 18.604 26.1278 19.2804C25.3492 19.9567 24.6689 20.2949 24.0869 20.2949C23.0409 20.2949 22.7971 19.4298 23.3555 17.6996L25.7503 10.4797C26.0492 9.59889 26.1868 9.09948 26.1632 8.98151C26.1396 8.82422 26.0413 8.74557 25.8683 8.74557C25.2706 8.74557 24.2717 9.73653 22.8718 11.7184L22.6595 11.6123ZM32.2859 20.3185C31.3343 20.3185 30.5635 20.059 29.9737 19.5399C29.3917 19.0208 29.1243 18.3681 29.1715 17.5816C29.1872 17.2513 29.313 16.9563 29.549 16.6968C29.7849 16.4373 30.068 16.3075 30.3984 16.3075C30.7287 16.3075 30.9882 16.4137 31.177 16.626C31.3657 16.8384 31.4444 17.1097 31.4129 17.44C31.3893 17.6052 31.3067 17.8451 31.1652 18.1597C31.0236 18.4742 30.9528 18.7023 30.9528 18.8439C30.9371 19.1821 31.0708 19.4573 31.3539 19.6697C31.6449 19.8742 32.046 19.9764 32.5572 19.9764C33.1628 19.9764 33.7094 19.7444 34.197 19.2804C34.7004 18.8242 34.9638 18.2737 34.9874 17.6288C35.0189 17.1648 34.8695 16.626 34.5391 16.0126C34.2167 15.3913 33.8117 14.8053 33.324 14.2548C32.8443 13.7121 32.4471 13.1066 32.1325 12.4381C31.8179 11.7696 31.6764 11.1561 31.7078 10.5977C31.7786 9.71687 32.2033 9.00904 32.9819 8.47424C33.792 7.89225 34.6964 7.60125 35.6953 7.60125C36.6076 7.60125 37.339 7.87652 37.8895 8.42705C38.4636 8.97758 38.7389 9.59103 38.7153 10.2674C38.6996 10.6056 38.5855 10.9084 38.3732 11.1758C38.1608 11.4353 37.8974 11.5651 37.5828 11.5651C36.9143 11.5651 36.5918 11.2269 36.6154 10.5505C36.639 10.2831 36.7491 10.0433 36.9457 9.8309C37.1738 9.53991 37.2879 9.3197 37.2879 9.17027C37.3036 8.83995 37.1542 8.54502 36.8396 8.28548C36.525 8.02595 36.1357 7.89618 35.6717 7.89618C35.0425 7.89618 34.5077 8.07707 34.0673 8.43885C33.6268 8.80062 33.4027 9.28037 33.3948 9.87809C33.3634 10.2949 33.5128 10.8101 33.8431 11.4235C34.1813 12.0291 34.606 12.6425 35.1172 13.2639C35.6127 13.8458 36.0256 14.4632 36.3559 15.116C36.6862 15.7688 36.8356 16.3272 36.8042 16.7912C36.7334 17.7664 36.2812 18.5961 35.4475 19.2804C34.6296 19.9725 33.5757 20.3185 32.2859 20.3185ZM44.3779 13.6886L41.5348 14.4908C41.3697 15.2379 41.2871 15.8828 41.2871 16.4255C41.2871 17.3142 41.468 18.0181 41.8297 18.5372C42.1994 19.0484 42.7027 19.304 43.3398 19.304C44.7712 19.304 46.1318 18.3445 47.4216 16.4255L47.6221 16.5199C47.0637 17.5187 46.3126 18.431 45.3689 19.2568C44.4802 20.0275 43.5128 20.4129 42.4668 20.4129C41.5073 20.4129 40.7444 20.0354 40.1782 19.2804C39.6119 18.486 39.3288 17.5501 39.3288 16.4727C39.3288 15.1199 39.6355 13.7515 40.2489 12.3673C40.8309 11.0303 41.6685 9.90169 42.7617 8.98151C43.8313 8.07707 44.952 7.62485 46.1239 7.62485C46.8868 7.62485 47.5631 7.86079 48.153 8.33267C48.7507 8.78883 49.0496 9.38261 49.0496 10.114C49.0496 10.9398 48.6681 11.628 47.9052 12.1785C47.1424 12.7212 45.9666 13.2245 44.3779 13.6886ZM46.1239 7.96696C45.3846 7.96696 44.547 8.6276 43.6111 9.94888C42.6831 11.2701 42.0146 12.7055 41.6056 14.2548C42.628 13.893 43.4263 13.5863 44.0004 13.3346C44.5745 13.083 45.1369 12.7762 45.6874 12.4145C46.8907 11.6516 47.4923 10.6842 47.4923 9.51238C47.4923 9.02477 47.3665 8.64726 47.1148 8.37986C46.8632 8.1046 46.5329 7.96696 46.1239 7.96696Z" fill="white"/>
<path d="M1 26.0283H49.085V27.2316H1V26.0283Z" fill="white"/>
<a href="https://drive.google.com/file/d/1ZqE383ae6cKE-CLHrXnjbNk0exQfKihp/view?usp=drive_link">
<rect fill="black" fill-opacity="0" y="-0.0798321" width="48.085" height="28.1597"/>
</a>
<path d="M50 27.1659H1V28.8341H50V27.1659Z" fill="white" mask="url(#path-1-inside-1_382_5263)"/>
</svg>
