<svg width="63" height="28" viewBox="0 0 63 28" fill="none" xmlns="http://www.w3.org/2000/svg">
<path d="M6.06371 20.3185C4.6166 20.3185 3.44082 19.6972 2.53638 18.4546C1.67126 17.212 1.2269 15.6508 1.2033 13.7711C1.17971 11.9465 1.60834 10.1416 2.48919 8.35627C3.3779 6.57097 4.56154 5.11207 6.04011 3.97955C7.52655 2.85489 9.0877 2.29256 10.7236 2.29256C11.5415 2.29256 12.3555 2.45379 13.1656 2.77624C13.9363 3.08297 14.4514 3.23633 14.711 3.23633C15.1042 3.23633 15.4935 3.06724 15.8789 2.72905L15.289 9.37082H14.9587C14.9587 8.63153 14.9194 7.95123 14.8407 7.32992C14.7621 6.70861 14.6205 6.10302 14.416 5.51317C14.2194 4.92331 13.9638 4.4239 13.6492 4.01494C13.3425 3.60597 12.9375 3.27958 12.4341 3.03578C11.9308 2.78411 11.3527 2.65827 10.7 2.65827C9.42588 2.65827 8.21864 3.22846 7.07826 4.36885C5.94574 5.49351 5.06882 6.90129 4.4475 8.59221C3.81046 10.2831 3.50374 11.9504 3.52733 13.5942C3.52733 15.3716 3.88911 16.8305 4.61266 17.9709C5.32835 19.0956 6.24066 19.6579 7.34959 19.6579C8.36414 19.6579 9.30398 19.2804 10.1691 18.5254C11.0264 17.7703 11.5926 16.803 11.8679 15.6233L12.2454 14.0071C12.4027 13.3622 12.3791 12.8981 12.1746 12.615C11.978 12.3319 11.5612 12.1903 10.9241 12.1903L10.9713 11.9072H16.0912L16.0205 12.1903C15.1081 12.1903 14.5026 12.7566 14.2037 13.8891L12.6583 20.3185H12.3752C12.4145 19.8545 12.3319 19.4731 12.1274 19.1742C11.9229 18.8675 11.6241 18.7141 11.2308 18.7141C11.0499 18.7141 10.7825 18.8006 10.4286 18.9737C10.0826 19.1388 9.72081 19.3197 9.3433 19.5163C8.97366 19.7129 8.48998 19.8938 7.89226 20.059C7.29454 20.232 6.68502 20.3185 6.06371 20.3185ZM25.7059 19.0798C25.9339 19.0798 26.2721 18.8321 26.7204 18.3366C27.1687 17.8333 27.6327 17.1805 28.1125 16.3783L28.313 16.4963C27.6209 17.676 26.9092 18.6079 26.1778 19.2922C25.4542 19.9764 24.8447 20.3185 24.3492 20.3185C23.256 20.3185 23.0319 19.3905 23.6768 17.5344L24.3492 15.6469L24.2784 15.6233C23.5234 17.0625 22.7094 18.2068 21.8364 19.0562C20.9713 19.8978 20.118 20.3185 19.2765 20.3185C18.5136 20.3185 17.9119 20.0236 17.4715 19.4337C17.0311 18.836 16.8109 18.0417 16.8109 17.0507C16.8109 15.6744 17.1726 14.243 17.8962 12.7566C18.6433 11.278 19.6107 10.0511 20.7983 9.07589C21.9701 8.0928 23.1695 7.60125 24.3964 7.60125C25.4109 7.60125 26.1266 8.20684 26.5435 9.41801L28.5726 7.8254H28.7967C28.1203 9.46913 27.2985 11.8285 26.3311 14.9037C25.875 16.4137 25.584 17.3378 25.4581 17.676C25.1671 18.6119 25.2497 19.0798 25.7059 19.0798ZM20.3146 18.9619C21.0303 18.9619 21.8757 18.3799 22.851 17.2159C23.8498 16.0283 24.6481 14.5065 25.2458 12.6504C25.6783 11.455 25.8474 10.3775 25.7531 9.41801C25.6823 8.45064 25.2536 7.96696 24.4672 7.96696C23.7279 7.96696 22.8982 8.45064 21.978 9.41801C21.0814 10.3854 20.3107 11.5769 19.6658 12.9925C19.0366 14.4082 18.722 15.698 18.722 16.862C18.722 17.4912 18.8596 17.9984 19.1349 18.3838C19.418 18.7692 19.8113 18.9619 20.3146 18.9619ZM34.5773 13.6886L31.7342 14.4908C31.569 15.2379 31.4864 15.8828 31.4864 16.4255C31.4864 17.3142 31.6673 18.0181 32.0291 18.5372C32.3988 19.0484 32.9021 19.304 33.5391 19.304C34.9705 19.304 36.3311 18.3445 37.6209 16.4255L37.8215 16.5199C37.2631 17.5187 36.512 18.431 35.5682 19.2568C34.6795 20.0275 33.7122 20.4129 32.6662 20.4129C31.7067 20.4129 30.9438 20.0354 30.3775 19.2804C29.8113 18.486 29.5281 17.5501 29.5281 16.4727C29.5281 15.1199 29.8349 13.7515 30.4483 12.3673C31.0303 11.0303 31.8679 9.90169 32.9611 8.98151C34.0307 8.07707 35.1514 7.62485 36.3233 7.62485C37.0861 7.62485 37.7625 7.86079 38.3524 8.33267C38.9501 8.78883 39.2489 9.38261 39.2489 10.114C39.2489 10.9398 38.8675 11.628 38.1046 12.1785C37.3417 12.7212 36.166 13.2245 34.5773 13.6886ZM36.3233 7.96696C35.584 7.96696 34.7464 8.6276 33.8105 9.94888C32.8824 11.2701 32.2139 12.7055 31.805 14.2548C32.8274 13.893 33.6257 13.5863 34.1998 13.3346C34.7739 13.083 35.3362 12.7762 35.8868 12.4145C37.0901 11.6516 37.6917 10.6842 37.6917 9.51238C37.6917 9.02477 37.5659 8.64726 37.3142 8.37986C37.0625 8.1046 36.7322 7.96696 36.3233 7.96696ZM40.9477 20.4129C40.405 20.4129 40.0354 20.1966 39.8388 19.7641C39.6422 19.3315 39.6579 18.6866 39.886 17.8293L43.9678 4.89972C44.3138 4.06606 44.4082 3.47227 44.2509 3.11836C44.0936 2.76444 43.6375 2.63468 42.8824 2.72905L42.9768 2.45772L46.9642 1.58474L41.8915 17.5344C41.4982 18.7456 41.573 19.3512 42.1156 19.3512C42.7605 19.3512 43.6532 18.4153 44.7936 16.5435L44.9823 16.6378C44.2588 17.8962 43.5431 18.84 42.8353 19.4691C42.1274 20.0983 41.4982 20.4129 40.9477 20.4129ZM47.4125 20.4129C46.8699 20.4129 46.5002 20.1966 46.3036 19.7641C46.107 19.3315 46.1227 18.6866 46.3508 17.8293L50.4326 4.89972C50.7786 4.06606 50.873 3.47227 50.7157 3.11836C50.5584 2.76444 50.1023 2.63468 49.3472 2.72905L49.4416 2.45772L53.429 1.58474L48.3563 17.5344C47.9631 18.7456 48.0378 19.3512 48.5804 19.3512C49.2253 19.3512 50.118 18.4153 51.2584 16.5435L51.4471 16.6378C50.7236 17.8962 50.0079 18.84 49.3001 19.4691C48.5922 20.0983 47.9631 20.4129 47.4125 20.4129ZM57.8883 13.6886L55.0452 14.4908C54.8801 15.2379 54.7975 15.8828 54.7975 16.4255C54.7975 17.3142 54.9784 18.0181 55.3402 18.5372C55.7098 19.0484 56.2132 19.304 56.8502 19.304C58.2816 19.304 59.6422 18.3445 60.932 16.4255L61.1325 16.5199C60.5741 17.5187 59.8231 18.431 58.8793 19.2568C57.9906 20.0275 57.0232 20.4129 55.9772 20.4129C55.0177 20.4129 54.2548 20.0354 53.6886 19.2804C53.1223 18.486 52.8392 17.5501 52.8392 16.4727C52.8392 15.1199 53.1459 13.7515 53.7594 12.3673C54.3413 11.0303 55.1789 9.90169 56.2721 8.98151C57.3417 8.07707 58.4625 7.62485 59.6343 7.62485C60.3972 7.62485 61.0736 7.86079 61.6634 8.33267C62.2611 8.78883 62.56 9.38261 62.56 10.114C62.56 10.9398 62.1786 11.628 61.4157 12.1785C60.6528 12.7212 59.477 13.2245 57.8883 13.6886ZM59.6343 7.96696C58.895 7.96696 58.0574 8.6276 57.1215 9.94888C56.1935 11.2701 55.525 12.7055 55.116 14.2548C56.1384 13.893 56.9367 13.5863 57.5108 13.3346C58.085 13.083 58.6473 12.7762 59.1978 12.4145C60.4011 11.6516 61.0028 10.6842 61.0028 9.51238C61.0028 9.02477 60.8769 8.64726 60.6253 8.37986C60.3736 8.1046 60.0433 7.96696 59.6343 7.96696Z" fill="white"/>
<path d="M0 26.0283H62.5954V27.2316H0V26.0283Z" fill="white"/>
<a href="https://drive.google.com/file/d/1ZtNrtMJRuwciUoss1gNLpeGCtcR-WvHF/view?usp=drive_link">
<rect fill="black" fill-opacity="0" y="-0.0798321" width="62.5954" height="28.1597"/>
</a>
<path d="M63 27.1659H0V28.8341H63V27.1659Z" fill="white" mask="url(#path-1-inside-1_382_5261)"/>
</svg>
