<svg width="89" height="28" viewBox="0 0 89 28" fill="none" xmlns="http://www.w3.org/2000/svg">
<path d="M15.9351 2.1156L16.2183 6.71647H15.8879C15.7464 5.23004 15.3492 4.23122 14.6964 3.72001C14.0751 3.21667 12.7971 2.965 10.8624 2.965H8.21982L6.58003 9.8309H9.34055C10.2057 9.8309 10.8742 9.67754 11.3461 9.37082C11.8258 9.05623 12.164 8.57255 12.3606 7.91978H12.6673L11.6292 12.3201H11.3107C11.4444 11.5415 11.3578 10.9949 11.0511 10.6803C10.7444 10.3578 10.1388 10.1966 9.23437 10.1966H6.48565L4.33858 19.127C5.07 19.4652 6.03343 19.6343 7.22887 19.6343C8.80968 19.6343 10.1152 19.3118 11.1455 18.6669C12.2072 17.9984 13.1903 16.8738 14.0948 15.293H14.4605L11.9477 20.3657C11.2556 20.1219 10.2568 20 8.95124 20H0.610696L0.705073 19.6815C1.17696 19.6422 1.5584 19.4809 1.84939 19.1978C2.14039 18.9068 2.36453 18.4585 2.52183 17.8529L5.65985 4.78175C5.80928 4.16043 5.80535 3.70428 5.64806 3.41328C5.49863 3.11443 5.18797 2.9414 4.71608 2.89421L4.79866 2.59929H12.5494C13.9021 2.59929 15.0307 2.43806 15.9351 2.1156ZM24.1105 20.3421C23.5521 20.3421 23.21 20.0904 23.0842 19.5871C22.9583 19.0838 23.0606 18.4153 23.3909 17.5816L25.184 12.5796C25.7031 11.1876 25.9548 10.173 25.9391 9.53598C25.9233 8.89107 25.6284 8.56862 25.0543 8.56862C23.5914 8.56862 21.2399 12.3791 17.9996 20H16.2654C18.2631 13.7869 19.2855 10.5899 19.3327 10.409C19.4271 10.1416 19.4978 9.90562 19.545 9.70114C19.6001 9.49665 19.6315 9.31183 19.6394 9.14667C19.6551 8.97365 19.6394 8.84388 19.5922 8.75737C19.545 8.66299 19.4664 8.6158 19.3563 8.6158C19.0731 8.6158 18.6485 8.90287 18.0822 9.47699C17.5238 10.0433 16.9654 10.7629 16.407 11.6359L16.2183 11.5415C17.8305 8.91466 19.3052 7.60125 20.6422 7.60125C21.6174 7.60125 21.873 8.42312 21.409 10.0668C21.1966 10.7353 20.7051 12.1392 19.9343 14.2784L19.1439 16.5199L19.2147 16.5435C20.9135 12.7527 22.3213 10.2635 23.4381 9.07589C23.965 8.50963 24.4251 8.12426 24.8183 7.91978C25.2194 7.70743 25.6638 7.60125 26.1514 7.60125C26.4503 7.60125 26.7216 7.67597 26.9654 7.8254C27.2092 7.96696 27.4137 8.18718 27.5789 8.48604C27.7519 8.77703 27.8305 9.18993 27.8148 9.72473C27.7991 10.2595 27.6693 10.873 27.4255 11.5651L25.4672 17.2749C25.129 18.2344 24.9835 18.8124 25.0307 19.009C25.0543 19.1742 25.1605 19.2568 25.3492 19.2568C25.5851 19.2568 25.9862 18.9737 26.5525 18.4074C27.1817 17.7546 27.7244 17.0547 28.1805 16.3075L28.3929 16.4255C27.8109 17.3928 27.0952 18.3012 26.2458 19.1506C25.4514 19.9449 24.7397 20.3421 24.1105 20.3421ZM32.3331 20.3185C31.3815 20.3185 30.6107 20.059 30.0209 19.5399C29.4389 19.0208 29.1715 18.3681 29.2187 17.5816C29.2344 17.2513 29.3602 16.9563 29.5962 16.6968C29.8321 16.4373 30.1152 16.3075 30.4455 16.3075C30.7759 16.3075 31.0354 16.4137 31.2242 16.626C31.4129 16.8384 31.4916 17.1097 31.4601 17.44C31.4365 17.6052 31.3539 17.8451 31.2124 18.1597C31.0708 18.4742 31 18.7023 31 18.8439C30.9843 19.1821 31.118 19.4573 31.4011 19.6697C31.6921 19.8742 32.0932 19.9764 32.6044 19.9764C33.21 19.9764 33.7566 19.7444 34.2442 19.2804C34.7476 18.8242 35.011 18.2737 35.0346 17.6288C35.0661 17.1648 34.9166 16.626 34.5863 16.0126C34.2639 15.3913 33.8588 14.8053 33.3712 14.2548C32.8915 13.7121 32.4943 13.1066 32.1797 12.4381C31.8651 11.7696 31.7236 11.1561 31.755 10.5977C31.8258 9.71687 32.2505 9.00904 33.0291 8.47424C33.8392 7.89225 34.7436 7.60125 35.7424 7.60125C36.6548 7.60125 37.3862 7.87652 37.9367 8.42705C38.5108 8.97758 38.7861 9.59103 38.7625 10.2674C38.7468 10.6056 38.6327 10.9084 38.4204 11.1758C38.208 11.4353 37.9446 11.5651 37.63 11.5651C36.9615 11.5651 36.639 11.2269 36.6626 10.5505C36.6862 10.2831 36.7963 10.0433 36.9929 9.8309C37.221 9.53991 37.3351 9.3197 37.3351 9.17027C37.3508 8.83995 37.2014 8.54502 36.8868 8.28548C36.5722 8.02595 36.1829 7.89618 35.7188 7.89618C35.0897 7.89618 34.5549 8.07707 34.1144 8.43885C33.674 8.80062 33.4499 9.28037 33.442 9.87809C33.4106 10.2949 33.56 10.8101 33.8903 11.4235C34.2285 12.0291 34.6532 12.6425 35.1644 13.2639C35.6599 13.8458 36.0728 14.4632 36.4031 15.116C36.7334 15.7688 36.8828 16.3272 36.8514 16.7912C36.7806 17.7664 36.3284 18.5961 35.4947 19.2804C34.6768 19.9725 33.6229 20.3185 32.3331 20.3185ZM46.4306 20.3421C45.8958 20.3421 45.5694 20.0983 45.4515 19.6107C45.3335 19.1231 45.4357 18.4467 45.7582 17.5816L47.6693 12.3201C47.9996 11.4156 48.2041 10.696 48.2828 10.1612C48.3693 9.62642 48.3457 9.24891 48.212 9.0287C48.0861 8.80849 47.8541 8.69838 47.5159 8.69838C47.2249 8.65906 46.7845 8.91466 46.1947 9.46519C45.6127 10.0157 44.9678 10.869 44.2599 12.0252C43.1196 13.8341 41.8809 16.4923 40.5439 20H38.6799L43.4577 4.60479C43.6937 3.81832 43.7409 3.29138 43.5993 3.02398C43.4577 2.74872 43.0881 2.64254 42.4904 2.70546L42.5966 2.41053L46.3598 1.58474L42.1129 15.1632L42.1837 15.2104C43.5049 12.4813 44.6964 10.5269 45.7582 9.34722C46.8278 8.18324 47.8266 7.60125 48.7546 7.60125C49.085 7.60125 49.3681 7.6681 49.604 7.8018C49.84 7.9355 50.0287 8.14392 50.1703 8.42705C50.3119 8.71018 50.359 9.11128 50.3119 9.63035C50.2725 10.1416 50.131 10.7471 49.8872 11.4471L47.7873 17.5108C47.4412 18.5254 47.4884 19.0326 47.9288 19.0326C48.4636 19.0326 49.376 18.0889 50.6658 16.2013L50.8781 16.2367C50.2096 17.4007 49.4861 18.372 48.7074 19.1506C47.9131 19.9449 47.1542 20.3421 46.4306 20.3421ZM52.5297 20C53.2297 17.908 54.2521 14.7424 55.597 10.5033C55.7621 9.9764 55.8801 9.54384 55.9509 9.20566C56.0374 8.76523 55.9509 8.54502 55.6913 8.54502C55.1801 8.54502 54.2206 9.5753 52.8128 11.6359L52.6241 11.5179C54.3937 8.79669 55.884 7.43609 57.0952 7.43609C58.1648 7.43609 58.3496 8.41919 57.6497 10.3854L55.6677 15.871L55.7621 15.8946C57.3193 12.269 58.5777 9.94101 59.5372 8.91073C60.0091 8.39952 60.4062 8.05348 60.7287 7.87259C61.059 7.6917 61.4247 7.60125 61.8258 7.60125C62.337 7.60125 62.7421 7.75462 63.0409 8.06134C63.3398 8.36806 63.4971 8.76523 63.5128 9.25285C63.5521 9.70114 63.4342 10.0983 63.1589 10.4444C62.8836 10.7904 62.5454 10.9634 62.1443 10.9634C61.5388 10.9634 61.2242 10.6882 61.2006 10.1376C61.1927 10.0039 61.236 9.81517 61.3303 9.57137C61.4326 9.32756 61.4837 9.17813 61.4837 9.12308C61.4837 8.81635 61.35 8.6394 61.0826 8.59221C60.6736 8.52929 60.1821 8.80849 59.608 9.4298L59.4782 9.58317C58.8962 10.2989 58.153 11.5651 57.2485 13.3818C56.3441 15.1986 55.3964 17.4046 54.4054 20H52.5297ZM71.9123 19.0798C72.1404 19.0798 72.4786 18.8321 72.9269 18.3366C73.3752 17.8333 73.8392 17.1805 74.3189 16.3783L74.5195 16.4963C73.8274 17.676 73.1156 18.6079 72.3842 19.2922C71.6607 19.9764 71.0511 20.3185 70.5557 20.3185C69.4625 20.3185 69.2383 19.3905 69.8832 17.5344L70.5557 15.6469L70.4849 15.6233C69.7299 17.0625 68.9159 18.2068 68.0429 19.0562C67.1778 19.8978 66.3244 20.3185 65.4829 20.3185C64.72 20.3185 64.1184 20.0236 63.678 19.4337C63.2375 18.836 63.0173 18.0417 63.0173 17.0507C63.0173 15.6744 63.3791 14.243 64.1027 12.7566C64.8498 11.278 65.8172 10.0511 67.0047 9.07589C68.1766 8.0928 69.376 7.60125 70.6029 7.60125C71.6174 7.60125 72.3331 8.20684 72.7499 9.41801L74.779 7.8254H75.0032C74.3268 9.46913 73.5049 11.8285 72.5376 14.9037C72.0814 16.4137 71.7904 17.3378 71.6646 17.676C71.3736 18.6119 71.4562 19.0798 71.9123 19.0798ZM66.5211 18.9619C67.2368 18.9619 68.0822 18.3799 69.0574 17.2159C70.0563 16.0283 70.8545 14.5065 71.4522 12.6504C71.8848 11.455 72.0539 10.3775 71.9595 9.41801C71.8887 8.45064 71.4601 7.96696 70.6736 7.96696C69.9344 7.96696 69.1046 8.45064 68.1845 9.41801C67.2879 10.3854 66.5171 11.5769 65.8722 12.9925C65.243 14.4082 64.9285 15.698 64.9285 16.862C64.9285 17.4912 65.0661 17.9984 65.3414 18.3838C65.6245 18.7692 66.0177 18.9619 66.5211 18.9619ZM82.7893 20.3421C82.2545 20.3421 81.9281 20.0983 81.8101 19.6107C81.6921 19.1231 81.7944 18.4467 82.1168 17.5816L84.028 12.3201C84.3583 11.4156 84.5628 10.696 84.6414 10.1612C84.7279 9.62642 84.7043 9.24891 84.5706 9.0287C84.4448 8.80849 84.2128 8.69838 83.8746 8.69838C83.5836 8.65906 83.1432 8.91466 82.5533 9.46519C81.9713 10.0157 81.3264 10.869 80.6186 12.0252C79.4782 13.8341 78.2395 16.4923 76.9025 20H75.0386L79.8164 4.60479C80.0523 3.81832 80.0995 3.29138 79.958 3.02398C79.8164 2.74872 79.4468 2.64254 78.849 2.70546L78.9552 2.41053L82.7185 1.58474L78.4715 15.1632L78.5423 15.2104C79.8636 12.4813 81.0551 10.5269 82.1168 9.34722C83.1864 8.18324 84.1853 7.60125 85.1133 7.60125C85.4436 7.60125 85.7267 7.6681 85.9627 7.8018C86.1986 7.9355 86.3874 8.14392 86.5289 8.42705C86.6705 8.71018 86.7177 9.11128 86.6705 9.63035C86.6312 10.1416 86.4896 10.7471 86.2458 11.4471L84.1459 17.5108C83.7999 18.5254 83.8471 19.0326 84.2875 19.0326C84.8223 19.0326 85.7346 18.0889 87.0244 16.2013L87.2368 16.2367C86.5683 17.4007 85.8447 18.372 85.0661 19.1506C84.2718 19.9449 83.5128 20.3421 82.7893 20.3421Z" fill="white"/>
<path d="M1 26.0283H88.0744V27.2316H1V26.0283Z" fill="white"/>
<a href="https://drive.google.com/file/d/1ZrxPPN5ilEpVRZcT0xISVSVi96wdvpdM/view?usp=drive_link">
<rect fill="black" fill-opacity="0" y="-0.0798321" width="87.0744" height="28.1597"/>
</a>
<path d="M89 27.1659H1V28.8341H89V27.1659Z" fill="white" mask="url(#path-1-inside-1_382_5265)"/>
</svg>
