<svg width="59" height="58" viewBox="0 0 59 58" fill="none" xmlns="http://www.w3.org/2000/svg">
<circle cx="29.6656" cy="28.7696" r="28.7696" fill="white"/>
<path d="M37.8053 27.0276C38.0094 27.2315 38.1713 27.4736 38.2817 27.74C38.3922 28.0065 38.4491 28.2922 38.4491 28.5806C38.4491 28.8691 38.3922 29.1547 38.2817 29.4212C38.1713 29.6877 38.0094 29.9298 37.8053 30.1336L26.8299 41.109C26.6259 41.313 26.3838 41.4748 26.1174 41.5851C25.8509 41.6955 25.5653 41.7523 25.2769 41.7523C24.9884 41.7523 24.7028 41.6955 24.4364 41.5851C24.1699 41.4748 23.9278 41.313 23.7238 41.109C23.5199 40.9051 23.3581 40.663 23.2477 40.3965C23.1374 40.13 23.0806 39.8444 23.0806 39.556C23.0806 39.2676 23.1374 38.982 23.2477 38.7155C23.3581 38.4491 23.5199 38.207 23.7238 38.003L33.149 28.5806L23.7238 19.1583C23.312 18.7464 23.0806 18.1877 23.0806 17.6052C23.0806 17.0227 23.312 16.4641 23.7238 16.0522C24.1357 15.6403 24.6944 15.4089 25.2769 15.4089C25.8594 15.4089 26.418 15.6403 26.8299 16.0522L37.8053 27.0276Z" fill="#6A6E77"/>
</svg>
