<svg width="37" height="17" viewBox="0 0 37 17" fill="none" xmlns="http://www.w3.org/2000/svg">
<path d="M7.37345 9.38224L7.39023 9.31515H7.71463C9.12533 9.31515 10.3695 8.90951 11.4453 8.09779C12.5426 7.28466 13.0948 6.25947 13.0948 5.0246C13.0948 3.92951 12.6656 3.06364 11.8082 2.43221L11.8082 2.43218C10.9342 1.78994 9.85004 1.4703 8.55887 1.4703H4.1806H4.14213L4.13248 1.50754L4.06376 1.7726L4.04885 1.83009L4.10807 1.83464C4.4786 1.86315 4.71264 2.00839 4.82738 2.26204C4.94461 2.52117 4.94312 2.90492 4.80981 3.42187L4.80961 3.42268L2.25726 14.0542L2.2572 14.0545C2.13428 14.5785 1.93161 14.9747 1.6524 15.2475L1.65199 15.2479C1.37773 15.5222 1.07078 15.6733 0.730342 15.7048L0.69489 15.7081L0.686582 15.7427L0.627681 15.9881L0.612964 16.0494H0.676025H4.74016H4.77935L4.7885 16.0113L4.8474 15.7659L4.8606 15.7109L4.80435 15.7049C4.45141 15.667 4.2258 15.5149 4.11338 15.2536C3.99869 14.987 3.99745 14.5975 4.12099 14.0773L5.2604 9.31515H6.53251L8.66983 14.6145L8.66986 14.6146C8.86193 15.0882 9.11272 15.4473 9.42424 15.6881C9.7364 15.9294 10.1065 16.0494 10.532 16.0494H12.2205H12.2597L12.2689 16.0113L12.3278 15.7659L12.342 15.7066L12.2811 15.7046C11.8991 15.6919 11.5697 15.5681 11.2907 15.3336C11.0114 15.0922 10.7402 14.6719 10.4796 14.066C10.4796 14.066 10.4796 14.0659 10.4795 14.0658L8.6047 9.60937L8.59405 9.58408L8.56698 9.5796L7.37345 9.38224ZM9.94631 7.73898L9.94629 7.73901C9.1772 8.54687 8.21852 8.95066 7.06672 8.95066C6.794 8.95066 6.23289 8.91331 5.38121 8.83815L7.0666 1.85442H7.92078C8.91195 1.85442 9.68669 2.14236 10.2513 2.71335L10.2515 2.71355C10.8165 3.2786 11.1008 4.02758 11.1008 4.9657L11.1008 4.96664C11.1201 5.98597 10.7369 6.90954 9.94631 7.73898ZM14.5754 15.2237L14.5754 15.2238L14.5762 15.2249C15.1293 15.9512 15.8902 16.3143 16.8533 16.3145C17.5321 16.3343 18.2058 16.131 18.8734 15.7079L18.8735 15.7079C19.5464 15.2791 20.1236 14.7348 20.6049 14.0755C21.0922 13.4104 21.4805 12.6665 21.77 11.8441L21.7701 11.844C22.0596 11.0148 22.1918 10.2203 22.1655 9.46091C22.1654 8.36022 21.895 7.45259 21.3505 6.74197C20.7976 6.00278 20.0465 5.6326 19.102 5.6326C18.1526 5.6326 17.2646 5.98816 16.439 6.69481C15.6215 7.38709 14.9758 8.25706 14.5018 9.30382C14.0279 10.3504 13.7906 11.411 13.7906 12.4853C13.7906 13.5797 14.0511 14.4936 14.5754 15.2237ZM20.1453 11.2798L20.1451 11.2802C19.7084 12.4599 19.1123 13.5053 18.357 14.4169C17.6006 15.3298 16.8902 15.7733 16.2257 15.7733C15.8582 15.7733 15.5797 15.6101 15.3853 15.2778C15.1884 14.9348 15.0876 14.4603 15.0876 13.8498C15.0876 12.9809 15.3082 11.9399 15.752 10.7259C16.2216 9.49326 16.8147 8.43463 17.5308 7.54932C18.2808 6.62325 18.9846 6.17379 19.642 6.17379C20.0157 6.17379 20.301 6.34322 20.5021 6.689L20.5027 6.68992C20.712 7.03247 20.8193 7.513 20.8193 8.1365C20.8193 9.05143 20.5954 10.0989 20.1453 11.2798ZM23.1875 14.1785L23.1874 14.1785L23.1869 14.1807C22.9963 14.8967 22.9793 15.4477 23.1504 15.824C23.2359 16.0122 23.3603 16.1555 23.5239 16.2512C23.6871 16.3467 23.8861 16.393 24.1184 16.393C24.5949 16.393 25.13 16.1214 25.7221 15.5951C26.3167 15.0666 26.9153 14.2763 27.5188 13.2267L27.5451 13.181L27.498 13.1575L27.3409 13.0789L27.3 13.0585L27.2762 13.0975C26.8025 13.8751 26.3817 14.4557 26.0139 14.8414C25.6436 15.2296 25.3365 15.4101 25.0903 15.4101C24.9869 15.4101 24.9121 15.3815 24.8594 15.3298C24.806 15.2774 24.769 15.1951 24.7543 15.0758C24.7246 14.8353 24.7877 14.4663 24.951 13.9634L24.9511 13.9631L29.1723 0.69085L29.1984 0.6088L29.1143 0.627214L25.7963 1.35365L25.7691 1.3596L25.7599 1.38589L25.6814 1.61167L25.6551 1.68727L25.7345 1.67734C26.0456 1.63846 26.29 1.64652 26.4706 1.69791C26.6497 1.74886 26.7635 1.84137 26.8217 1.97215C26.8816 2.10702 26.8958 2.29321 26.8573 2.53561C26.8188 2.77739 26.7287 3.07037 26.5856 3.41523L26.5854 3.41515L26.5841 3.41932L23.1875 14.1785ZM32.8492 10.7956L32.8496 10.7955C34.1735 10.4088 35.1582 9.98808 35.7997 9.53173L35.8 9.53153C36.4457 9.06557 36.7728 8.47883 36.7728 7.77329C36.7728 7.14883 36.5166 6.64041 36.0076 6.25178C35.508 5.85222 34.9343 5.65224 34.2885 5.65224C33.2995 5.65224 32.3559 6.03423 31.4588 6.79284C30.5432 7.56353 29.8416 8.50886 29.3543 9.62819C28.8414 10.7856 28.5844 11.9312 28.5844 13.0645C28.5844 13.9703 28.8226 14.7595 29.3004 15.4298L29.3004 15.4298L29.3011 15.4307C29.7819 16.0718 30.4316 16.393 31.2454 16.393C32.1292 16.393 32.9455 16.067 33.6929 15.4188L33.693 15.4187C34.4822 14.7281 35.111 13.9646 35.5787 13.128L35.6047 13.0815L35.5564 13.0588L35.3896 12.9803L35.3509 12.9621L35.3271 12.9975C34.2572 14.5893 33.1381 15.3708 31.9718 15.3708C31.4576 15.3708 31.0539 15.1657 30.7558 14.7537C30.4626 14.3329 30.3134 13.7584 30.3134 13.0252C30.3134 12.5854 30.3793 12.0622 30.512 11.4551L32.8492 10.7956ZM33.8987 9.64555L33.898 9.646C33.4421 9.94559 32.9766 10.1995 32.5016 10.4077C32.0422 10.6091 31.4089 10.8533 30.6013 11.1405C30.942 9.89183 31.4876 8.73328 32.2382 7.66459C32.6261 7.11695 32.9919 6.7088 33.3352 6.43798C33.6787 6.16705 33.9961 6.03636 34.2885 6.03636C34.6164 6.03636 34.8774 6.14608 35.0765 6.36378L35.077 6.3643C35.2752 6.5749 35.3776 6.87528 35.3776 7.27263C35.3776 8.22688 34.8892 9.01759 33.8987 9.64555Z" fill="#6A6E77" stroke="#53596D" stroke-width="0.0994342"/>
</svg>
