<svg width="49" height="20" viewBox="0 0 49 20" fill="none" xmlns="http://www.w3.org/2000/svg">
<mask id="path-1-outside-1_254_4769" maskUnits="userSpaceOnUse" x="-0.715332" y="-0.735352" width="50" height="21" fill="black">
<rect fill="white" x="-0.715332" y="-0.735352" width="50" height="21"/>
<path d="M0.284668 15.137L1.00129 9.16843H1.24671C1.27943 10.9878 1.66883 12.408 2.4149 13.4289C3.16097 14.4498 4.19828 14.9603 5.52681 14.9603C6.41686 14.9603 7.20874 14.6593 7.90246 14.0572C8.58963 13.4551 8.9234 12.6894 8.90377 11.7601C8.90377 11.4656 8.83505 11.1776 8.69762 10.8962C8.56673 10.6082 8.41293 10.3628 8.23623 10.1599C8.05953 9.9505 7.80429 9.72144 7.47052 9.47275C7.1433 9.22406 6.86188 9.02773 6.62628 8.88375C6.39068 8.73977 6.06346 8.54343 5.64461 8.29474C5.22576 8.04605 4.91817 7.86281 4.72184 7.74501C4.04121 7.31961 3.49147 6.81896 3.07262 6.24304C2.66032 5.66713 2.45417 5.04213 2.45417 4.36805C2.45417 3.29475 2.9221 2.34907 3.85796 1.53101C4.80037 0.686768 5.90639 0.264648 7.17602 0.264648C7.80429 0.264648 8.49474 0.398811 9.24735 0.667135C9.99997 0.935459 10.4483 1.06962 10.5922 1.06962C10.9456 1.06962 11.2336 0.840564 11.4561 0.382449H11.623L11.034 5.1043H10.7591C10.7591 3.71032 10.409 2.60431 9.70874 1.78624C9.01502 0.974726 8.13806 0.568967 7.07785 0.568967C6.22707 0.568967 5.48427 0.834019 4.84945 1.36412C4.20155 1.90732 3.8776 2.57813 3.8776 3.37656C3.8776 3.84121 3.9954 4.27315 4.231 4.67237C4.47314 5.06503 4.78401 5.40862 5.16359 5.70312C5.54971 5.99763 5.97511 6.28231 6.43976 6.55718C6.90442 6.83205 7.36908 7.11019 7.83374 7.3916C8.2984 7.66647 8.72052 7.9577 9.1001 8.26529C9.48623 8.56634 9.79709 8.92301 10.0327 9.33532C10.2748 9.74762 10.3959 10.1959 10.3959 10.6802C10.4155 11.9106 9.92471 12.9871 8.9234 13.9099C7.94173 14.8131 6.77026 15.2646 5.40901 15.2646C4.53204 15.2646 3.61909 15.0618 2.67014 14.656C2.28401 14.4793 1.98296 14.3713 1.767 14.332C1.20417 14.175 0.762416 14.4433 0.441736 15.137H0.284668Z"/>
<path d="M14.6073 15.2646C13.7631 15.2646 13.0922 14.9603 12.5949 14.3517C12.0975 13.7365 11.8422 12.9348 11.8292 11.9466C11.803 11.1023 11.947 10.2385 12.2611 9.35495C12.5818 8.47144 13.0104 7.68283 13.5471 6.98912C14.0837 6.2954 14.7284 5.73257 15.481 5.30064C16.2336 4.86216 17.0026 4.656 17.7879 4.68218C18.4424 4.68218 18.979 4.88506 19.3979 5.29082C19.8167 5.69003 20.0294 6.21359 20.036 6.8615C20.0687 7.38506 19.9574 7.8399 19.7022 8.22603C19.4535 8.61215 19.1492 8.80521 18.7892 8.80521C18.5602 8.80521 18.3737 8.7365 18.2297 8.59906C18.0922 8.45508 18.017 8.26202 18.0039 8.01987C18.0039 7.79736 18.0693 7.60103 18.2002 7.43087C18.3311 7.26071 18.4718 7.12982 18.6223 7.0382C18.7794 6.94003 18.9234 6.80914 19.0543 6.64553C19.1852 6.48192 19.2506 6.29213 19.2506 6.07616C19.2506 5.74239 19.1394 5.47734 18.9168 5.281C18.6943 5.07812 18.3835 4.97996 17.9843 4.9865C17.2971 5.00613 16.6001 5.34972 15.8933 6.01726C15.2127 6.65862 14.6433 7.5094 14.1852 8.56961C13.7401 9.5971 13.5176 10.6148 13.5176 11.6226C13.5242 12.4341 13.7107 13.0591 14.0772 13.4976C14.4502 13.9361 14.9607 14.1553 15.6086 14.1553C16.0536 14.1553 16.5379 13.9655 17.0615 13.586C17.585 13.1998 18.0399 12.6926 18.426 12.0644L18.5831 12.1233C18.2231 12.9413 17.6734 13.671 16.9339 14.3124C16.1878 14.9472 15.4123 15.2646 14.6073 15.2646Z"/>
<path d="M23.6878 15.2646C22.7388 15.2646 21.9928 14.908 21.4496 14.1946C20.9325 13.4747 20.674 12.5716 20.674 11.4852C20.674 10.4184 20.9096 9.36477 21.3808 8.32419C21.852 7.28362 22.4934 6.41975 23.3049 5.73257C24.123 5.03231 25 4.68218 25.9358 4.68218C26.8651 4.68218 27.6014 5.0454 28.1446 5.77184C28.6812 6.4721 28.9496 7.3687 28.9496 8.46163C28.9757 9.21424 28.8448 10.0029 28.5569 10.8275C28.2689 11.6455 27.8828 12.3851 27.3985 13.046C26.9208 13.7005 26.3481 14.2404 25.6806 14.6658C25.0196 15.0847 24.3553 15.2843 23.6878 15.2646ZM23.0595 14.8229C23.7467 14.8229 24.4698 14.3648 25.229 13.4485C25.9882 12.5323 26.587 11.4819 27.0255 10.2974C27.477 9.11281 27.7028 8.05914 27.7028 7.13637C27.7028 6.5081 27.5948 6.01726 27.3789 5.66386C27.1695 5.30391 26.8684 5.12394 26.4757 5.12394C25.7951 5.12394 25.0785 5.58859 24.3259 6.51791C23.606 7.40796 23.0104 8.47144 22.5392 9.70835C22.0942 10.9256 21.8717 11.9727 21.8717 12.8497C21.8717 13.4649 21.9731 13.9492 22.176 14.3026C22.3789 14.6494 22.6734 14.8229 23.0595 14.8229Z"/>
<path d="M35.4777 4.68218C36.5575 4.68218 37.4312 5.00941 38.0988 5.66386C38.7663 6.31831 39.1001 7.23781 39.1001 8.42236C39.1001 10.1697 38.4751 11.747 37.2251 13.154C35.9751 14.5611 34.5287 15.2646 32.8861 15.2646C32.3756 15.2646 31.8782 15.1894 31.3939 15.0388L30.5693 17.6305C30.4057 18.2456 30.3959 18.6481 30.5399 18.8379C30.6904 19.0343 31.0765 19.1488 31.6982 19.1815L31.6197 19.4269H27.3003L27.3592 19.2011C27.7912 19.1553 28.1151 19.0343 28.3311 18.8379C28.5471 18.6416 28.7303 18.3013 28.8808 17.817L32.8664 5.40862C32.3887 5.59187 31.6982 5.89946 30.7951 6.33139L30.8933 5.94854C32.3331 5.43153 33.6485 4.80326 34.8396 4.06373H34.9378L34.712 4.77053C34.9803 4.71163 35.2355 4.68218 35.4777 4.68218ZM32.5621 14.9407C33.3736 14.9669 34.1655 14.6494 34.9378 13.9885C35.71 13.3209 36.3219 12.4832 36.7735 11.4754C37.2251 10.461 37.4378 9.46294 37.4116 8.48126C37.4116 6.14488 36.4855 4.9865 34.6334 5.00613L31.5019 14.7542C31.8619 14.8785 32.2153 14.9407 32.5621 14.9407Z"/>
<path d="M44.6171 9.74762L42.2512 10.4152C42.1138 11.0369 42.0451 11.5735 42.0451 12.0251C42.0451 12.7646 42.1956 13.3504 42.4967 13.7823C42.8042 14.2077 43.2231 14.4204 43.7532 14.4204C44.9443 14.4204 46.0765 13.622 47.1498 12.0251L47.3167 12.1036C46.852 12.9348 46.227 13.694 45.4417 14.3811C44.7022 15.0225 43.8972 15.3432 43.0268 15.3432C42.2283 15.3432 41.5935 15.029 41.1223 14.4008C40.6511 13.7398 40.4155 12.961 40.4155 12.0644C40.4155 10.9387 40.6707 9.79998 41.1812 8.64815C41.6655 7.53558 42.3625 6.59645 43.2722 5.83074C44.1622 5.07812 45.0948 4.70182 46.07 4.70182C46.7048 4.70182 47.2676 4.89815 47.7584 5.29082C48.2558 5.6704 48.5045 6.16451 48.5045 6.77315C48.5045 7.46032 48.1871 8.03296 47.5523 8.49108C46.9175 8.94265 45.9391 9.3615 44.6171 9.74762ZM46.07 4.9865C45.4548 4.9865 44.7578 5.53624 43.979 6.63571C43.2067 7.73519 42.6505 8.92956 42.3101 10.2188C43.1609 9.91778 43.8252 9.66254 44.3029 9.45312C44.7807 9.24369 45.2486 8.98846 45.7067 8.68741C46.708 8.0526 47.2087 7.24762 47.2087 6.27249C47.2087 5.86674 47.104 5.5526 46.8946 5.33009C46.6851 5.10103 46.4103 4.9865 46.07 4.9865Z"/>
</mask>
<path d="M0.284668 15.137L1.00129 9.16843H1.24671C1.27943 10.9878 1.66883 12.408 2.4149 13.4289C3.16097 14.4498 4.19828 14.9603 5.52681 14.9603C6.41686 14.9603 7.20874 14.6593 7.90246 14.0572C8.58963 13.4551 8.9234 12.6894 8.90377 11.7601C8.90377 11.4656 8.83505 11.1776 8.69762 10.8962C8.56673 10.6082 8.41293 10.3628 8.23623 10.1599C8.05953 9.9505 7.80429 9.72144 7.47052 9.47275C7.1433 9.22406 6.86188 9.02773 6.62628 8.88375C6.39068 8.73977 6.06346 8.54343 5.64461 8.29474C5.22576 8.04605 4.91817 7.86281 4.72184 7.74501C4.04121 7.31961 3.49147 6.81896 3.07262 6.24304C2.66032 5.66713 2.45417 5.04213 2.45417 4.36805C2.45417 3.29475 2.9221 2.34907 3.85796 1.53101C4.80037 0.686768 5.90639 0.264648 7.17602 0.264648C7.80429 0.264648 8.49474 0.398811 9.24735 0.667135C9.99997 0.935459 10.4483 1.06962 10.5922 1.06962C10.9456 1.06962 11.2336 0.840564 11.4561 0.382449H11.623L11.034 5.1043H10.7591C10.7591 3.71032 10.409 2.60431 9.70874 1.78624C9.01502 0.974726 8.13806 0.568967 7.07785 0.568967C6.22707 0.568967 5.48427 0.834019 4.84945 1.36412C4.20155 1.90732 3.8776 2.57813 3.8776 3.37656C3.8776 3.84121 3.9954 4.27315 4.231 4.67237C4.47314 5.06503 4.78401 5.40862 5.16359 5.70312C5.54971 5.99763 5.97511 6.28231 6.43976 6.55718C6.90442 6.83205 7.36908 7.11019 7.83374 7.3916C8.2984 7.66647 8.72052 7.9577 9.1001 8.26529C9.48623 8.56634 9.79709 8.92301 10.0327 9.33532C10.2748 9.74762 10.3959 10.1959 10.3959 10.6802C10.4155 11.9106 9.92471 12.9871 8.9234 13.9099C7.94173 14.8131 6.77026 15.2646 5.40901 15.2646C4.53204 15.2646 3.61909 15.0618 2.67014 14.656C2.28401 14.4793 1.98296 14.3713 1.767 14.332C1.20417 14.175 0.762416 14.4433 0.441736 15.137H0.284668Z" fill="#6A6E77"/>
<path d="M14.6073 15.2646C13.7631 15.2646 13.0922 14.9603 12.5949 14.3517C12.0975 13.7365 11.8422 12.9348 11.8292 11.9466C11.803 11.1023 11.947 10.2385 12.2611 9.35495C12.5818 8.47144 13.0104 7.68283 13.5471 6.98912C14.0837 6.2954 14.7284 5.73257 15.481 5.30064C16.2336 4.86216 17.0026 4.656 17.7879 4.68218C18.4424 4.68218 18.979 4.88506 19.3979 5.29082C19.8167 5.69003 20.0294 6.21359 20.036 6.8615C20.0687 7.38506 19.9574 7.8399 19.7022 8.22603C19.4535 8.61215 19.1492 8.80521 18.7892 8.80521C18.5602 8.80521 18.3737 8.7365 18.2297 8.59906C18.0922 8.45508 18.017 8.26202 18.0039 8.01987C18.0039 7.79736 18.0693 7.60103 18.2002 7.43087C18.3311 7.26071 18.4718 7.12982 18.6223 7.0382C18.7794 6.94003 18.9234 6.80914 19.0543 6.64553C19.1852 6.48192 19.2506 6.29213 19.2506 6.07616C19.2506 5.74239 19.1394 5.47734 18.9168 5.281C18.6943 5.07812 18.3835 4.97996 17.9843 4.9865C17.2971 5.00613 16.6001 5.34972 15.8933 6.01726C15.2127 6.65862 14.6433 7.5094 14.1852 8.56961C13.7401 9.5971 13.5176 10.6148 13.5176 11.6226C13.5242 12.4341 13.7107 13.0591 14.0772 13.4976C14.4502 13.9361 14.9607 14.1553 15.6086 14.1553C16.0536 14.1553 16.5379 13.9655 17.0615 13.586C17.585 13.1998 18.0399 12.6926 18.426 12.0644L18.5831 12.1233C18.2231 12.9413 17.6734 13.671 16.9339 14.3124C16.1878 14.9472 15.4123 15.2646 14.6073 15.2646Z" fill="#6A6E77"/>
<path d="M23.6878 15.2646C22.7388 15.2646 21.9928 14.908 21.4496 14.1946C20.9325 13.4747 20.674 12.5716 20.674 11.4852C20.674 10.4184 20.9096 9.36477 21.3808 8.32419C21.852 7.28362 22.4934 6.41975 23.3049 5.73257C24.123 5.03231 25 4.68218 25.9358 4.68218C26.8651 4.68218 27.6014 5.0454 28.1446 5.77184C28.6812 6.4721 28.9496 7.3687 28.9496 8.46163C28.9757 9.21424 28.8448 10.0029 28.5569 10.8275C28.2689 11.6455 27.8828 12.3851 27.3985 13.046C26.9208 13.7005 26.3481 14.2404 25.6806 14.6658C25.0196 15.0847 24.3553 15.2843 23.6878 15.2646ZM23.0595 14.8229C23.7467 14.8229 24.4698 14.3648 25.229 13.4485C25.9882 12.5323 26.587 11.4819 27.0255 10.2974C27.477 9.11281 27.7028 8.05914 27.7028 7.13637C27.7028 6.5081 27.5948 6.01726 27.3789 5.66386C27.1695 5.30391 26.8684 5.12394 26.4757 5.12394C25.7951 5.12394 25.0785 5.58859 24.3259 6.51791C23.606 7.40796 23.0104 8.47144 22.5392 9.70835C22.0942 10.9256 21.8717 11.9727 21.8717 12.8497C21.8717 13.4649 21.9731 13.9492 22.176 14.3026C22.3789 14.6494 22.6734 14.8229 23.0595 14.8229Z" fill="#6A6E77"/>
<path d="M35.4777 4.68218C36.5575 4.68218 37.4312 5.00941 38.0988 5.66386C38.7663 6.31831 39.1001 7.23781 39.1001 8.42236C39.1001 10.1697 38.4751 11.747 37.2251 13.154C35.9751 14.5611 34.5287 15.2646 32.8861 15.2646C32.3756 15.2646 31.8782 15.1894 31.3939 15.0388L30.5693 17.6305C30.4057 18.2456 30.3959 18.6481 30.5399 18.8379C30.6904 19.0343 31.0765 19.1488 31.6982 19.1815L31.6197 19.4269H27.3003L27.3592 19.2011C27.7912 19.1553 28.1151 19.0343 28.3311 18.8379C28.5471 18.6416 28.7303 18.3013 28.8808 17.817L32.8664 5.40862C32.3887 5.59187 31.6982 5.89946 30.7951 6.33139L30.8933 5.94854C32.3331 5.43153 33.6485 4.80326 34.8396 4.06373H34.9378L34.712 4.77053C34.9803 4.71163 35.2355 4.68218 35.4777 4.68218ZM32.5621 14.9407C33.3736 14.9669 34.1655 14.6494 34.9378 13.9885C35.71 13.3209 36.3219 12.4832 36.7735 11.4754C37.2251 10.461 37.4378 9.46294 37.4116 8.48126C37.4116 6.14488 36.4855 4.9865 34.6334 5.00613L31.5019 14.7542C31.8619 14.8785 32.2153 14.9407 32.5621 14.9407Z" fill="#6A6E77"/>
<path d="M44.6171 9.74762L42.2512 10.4152C42.1138 11.0369 42.0451 11.5735 42.0451 12.0251C42.0451 12.7646 42.1956 13.3504 42.4967 13.7823C42.8042 14.2077 43.2231 14.4204 43.7532 14.4204C44.9443 14.4204 46.0765 13.622 47.1498 12.0251L47.3167 12.1036C46.852 12.9348 46.227 13.694 45.4417 14.3811C44.7022 15.0225 43.8972 15.3432 43.0268 15.3432C42.2283 15.3432 41.5935 15.029 41.1223 14.4008C40.6511 13.7398 40.4155 12.961 40.4155 12.0644C40.4155 10.9387 40.6707 9.79998 41.1812 8.64815C41.6655 7.53558 42.3625 6.59645 43.2722 5.83074C44.1622 5.07812 45.0948 4.70182 46.07 4.70182C46.7048 4.70182 47.2676 4.89815 47.7584 5.29082C48.2558 5.6704 48.5045 6.16451 48.5045 6.77315C48.5045 7.46032 48.1871 8.03296 47.5523 8.49108C46.9175 8.94265 45.9391 9.3615 44.6171 9.74762ZM46.07 4.9865C45.4548 4.9865 44.7578 5.53624 43.979 6.63571C43.2067 7.73519 42.6505 8.92956 42.3101 10.2188C43.1609 9.91778 43.8252 9.66254 44.3029 9.45312C44.7807 9.24369 45.2486 8.98846 45.7067 8.68741C46.708 8.0526 47.2087 7.24762 47.2087 6.27249C47.2087 5.86674 47.104 5.5526 46.8946 5.33009C46.6851 5.10103 46.4103 4.9865 46.07 4.9865Z" fill="#6A6E77"/>
<path d="M0.284668 15.137L1.00129 9.16843H1.24671C1.27943 10.9878 1.66883 12.408 2.4149 13.4289C3.16097 14.4498 4.19828 14.9603 5.52681 14.9603C6.41686 14.9603 7.20874 14.6593 7.90246 14.0572C8.58963 13.4551 8.9234 12.6894 8.90377 11.7601C8.90377 11.4656 8.83505 11.1776 8.69762 10.8962C8.56673 10.6082 8.41293 10.3628 8.23623 10.1599C8.05953 9.9505 7.80429 9.72144 7.47052 9.47275C7.1433 9.22406 6.86188 9.02773 6.62628 8.88375C6.39068 8.73977 6.06346 8.54343 5.64461 8.29474C5.22576 8.04605 4.91817 7.86281 4.72184 7.74501C4.04121 7.31961 3.49147 6.81896 3.07262 6.24304C2.66032 5.66713 2.45417 5.04213 2.45417 4.36805C2.45417 3.29475 2.9221 2.34907 3.85796 1.53101C4.80037 0.686768 5.90639 0.264648 7.17602 0.264648C7.80429 0.264648 8.49474 0.398811 9.24735 0.667135C9.99997 0.935459 10.4483 1.06962 10.5922 1.06962C10.9456 1.06962 11.2336 0.840564 11.4561 0.382449H11.623L11.034 5.1043H10.7591C10.7591 3.71032 10.409 2.60431 9.70874 1.78624C9.01502 0.974726 8.13806 0.568967 7.07785 0.568967C6.22707 0.568967 5.48427 0.834019 4.84945 1.36412C4.20155 1.90732 3.8776 2.57813 3.8776 3.37656C3.8776 3.84121 3.9954 4.27315 4.231 4.67237C4.47314 5.06503 4.78401 5.40862 5.16359 5.70312C5.54971 5.99763 5.97511 6.28231 6.43976 6.55718C6.90442 6.83205 7.36908 7.11019 7.83374 7.3916C8.2984 7.66647 8.72052 7.9577 9.1001 8.26529C9.48623 8.56634 9.79709 8.92301 10.0327 9.33532C10.2748 9.74762 10.3959 10.1959 10.3959 10.6802C10.4155 11.9106 9.92471 12.9871 8.9234 13.9099C7.94173 14.8131 6.77026 15.2646 5.40901 15.2646C4.53204 15.2646 3.61909 15.0618 2.67014 14.656C2.28401 14.4793 1.98296 14.3713 1.767 14.332C1.20417 14.175 0.762416 14.4433 0.441736 15.137H0.284668Z" stroke="#53596D" stroke-width="0.198868" mask="url(#path-1-outside-1_254_4769)"/>
<path d="M14.6073 15.2646C13.7631 15.2646 13.0922 14.9603 12.5949 14.3517C12.0975 13.7365 11.8422 12.9348 11.8292 11.9466C11.803 11.1023 11.947 10.2385 12.2611 9.35495C12.5818 8.47144 13.0104 7.68283 13.5471 6.98912C14.0837 6.2954 14.7284 5.73257 15.481 5.30064C16.2336 4.86216 17.0026 4.656 17.7879 4.68218C18.4424 4.68218 18.979 4.88506 19.3979 5.29082C19.8167 5.69003 20.0294 6.21359 20.036 6.8615C20.0687 7.38506 19.9574 7.8399 19.7022 8.22603C19.4535 8.61215 19.1492 8.80521 18.7892 8.80521C18.5602 8.80521 18.3737 8.7365 18.2297 8.59906C18.0922 8.45508 18.017 8.26202 18.0039 8.01987C18.0039 7.79736 18.0693 7.60103 18.2002 7.43087C18.3311 7.26071 18.4718 7.12982 18.6223 7.0382C18.7794 6.94003 18.9234 6.80914 19.0543 6.64553C19.1852 6.48192 19.2506 6.29213 19.2506 6.07616C19.2506 5.74239 19.1394 5.47734 18.9168 5.281C18.6943 5.07812 18.3835 4.97996 17.9843 4.9865C17.2971 5.00613 16.6001 5.34972 15.8933 6.01726C15.2127 6.65862 14.6433 7.5094 14.1852 8.56961C13.7401 9.5971 13.5176 10.6148 13.5176 11.6226C13.5242 12.4341 13.7107 13.0591 14.0772 13.4976C14.4502 13.9361 14.9607 14.1553 15.6086 14.1553C16.0536 14.1553 16.5379 13.9655 17.0615 13.586C17.585 13.1998 18.0399 12.6926 18.426 12.0644L18.5831 12.1233C18.2231 12.9413 17.6734 13.671 16.9339 14.3124C16.1878 14.9472 15.4123 15.2646 14.6073 15.2646Z" stroke="#53596D" stroke-width="0.198868" mask="url(#path-1-outside-1_254_4769)"/>
<path d="M23.6878 15.2646C22.7388 15.2646 21.9928 14.908 21.4496 14.1946C20.9325 13.4747 20.674 12.5716 20.674 11.4852C20.674 10.4184 20.9096 9.36477 21.3808 8.32419C21.852 7.28362 22.4934 6.41975 23.3049 5.73257C24.123 5.03231 25 4.68218 25.9358 4.68218C26.8651 4.68218 27.6014 5.0454 28.1446 5.77184C28.6812 6.4721 28.9496 7.3687 28.9496 8.46163C28.9757 9.21424 28.8448 10.0029 28.5569 10.8275C28.2689 11.6455 27.8828 12.3851 27.3985 13.046C26.9208 13.7005 26.3481 14.2404 25.6806 14.6658C25.0196 15.0847 24.3553 15.2843 23.6878 15.2646ZM23.0595 14.8229C23.7467 14.8229 24.4698 14.3648 25.229 13.4485C25.9882 12.5323 26.587 11.4819 27.0255 10.2974C27.477 9.11281 27.7028 8.05914 27.7028 7.13637C27.7028 6.5081 27.5948 6.01726 27.3789 5.66386C27.1695 5.30391 26.8684 5.12394 26.4757 5.12394C25.7951 5.12394 25.0785 5.58859 24.3259 6.51791C23.606 7.40796 23.0104 8.47144 22.5392 9.70835C22.0942 10.9256 21.8717 11.9727 21.8717 12.8497C21.8717 13.4649 21.9731 13.9492 22.176 14.3026C22.3789 14.6494 22.6734 14.8229 23.0595 14.8229Z" stroke="#53596D" stroke-width="0.198868" mask="url(#path-1-outside-1_254_4769)"/>
<path d="M35.4777 4.68218C36.5575 4.68218 37.4312 5.00941 38.0988 5.66386C38.7663 6.31831 39.1001 7.23781 39.1001 8.42236C39.1001 10.1697 38.4751 11.747 37.2251 13.154C35.9751 14.5611 34.5287 15.2646 32.8861 15.2646C32.3756 15.2646 31.8782 15.1894 31.3939 15.0388L30.5693 17.6305C30.4057 18.2456 30.3959 18.6481 30.5399 18.8379C30.6904 19.0343 31.0765 19.1488 31.6982 19.1815L31.6197 19.4269H27.3003L27.3592 19.2011C27.7912 19.1553 28.1151 19.0343 28.3311 18.8379C28.5471 18.6416 28.7303 18.3013 28.8808 17.817L32.8664 5.40862C32.3887 5.59187 31.6982 5.89946 30.7951 6.33139L30.8933 5.94854C32.3331 5.43153 33.6485 4.80326 34.8396 4.06373H34.9378L34.712 4.77053C34.9803 4.71163 35.2355 4.68218 35.4777 4.68218ZM32.5621 14.9407C33.3736 14.9669 34.1655 14.6494 34.9378 13.9885C35.71 13.3209 36.3219 12.4832 36.7735 11.4754C37.2251 10.461 37.4378 9.46294 37.4116 8.48126C37.4116 6.14488 36.4855 4.9865 34.6334 5.00613L31.5019 14.7542C31.8619 14.8785 32.2153 14.9407 32.5621 14.9407Z" stroke="#53596D" stroke-width="0.198868" mask="url(#path-1-outside-1_254_4769)"/>
<path d="M44.6171 9.74762L42.2512 10.4152C42.1138 11.0369 42.0451 11.5735 42.0451 12.0251C42.0451 12.7646 42.1956 13.3504 42.4967 13.7823C42.8042 14.2077 43.2231 14.4204 43.7532 14.4204C44.9443 14.4204 46.0765 13.622 47.1498 12.0251L47.3167 12.1036C46.852 12.9348 46.227 13.694 45.4417 14.3811C44.7022 15.0225 43.8972 15.3432 43.0268 15.3432C42.2283 15.3432 41.5935 15.029 41.1223 14.4008C40.6511 13.7398 40.4155 12.961 40.4155 12.0644C40.4155 10.9387 40.6707 9.79998 41.1812 8.64815C41.6655 7.53558 42.3625 6.59645 43.2722 5.83074C44.1622 5.07812 45.0948 4.70182 46.07 4.70182C46.7048 4.70182 47.2676 4.89815 47.7584 5.29082C48.2558 5.6704 48.5045 6.16451 48.5045 6.77315C48.5045 7.46032 48.1871 8.03296 47.5523 8.49108C46.9175 8.94265 45.9391 9.3615 44.6171 9.74762ZM46.07 4.9865C45.4548 4.9865 44.7578 5.53624 43.979 6.63571C43.2067 7.73519 42.6505 8.92956 42.3101 10.2188C43.1609 9.91778 43.8252 9.66254 44.3029 9.45312C44.7807 9.24369 45.2486 8.98846 45.7067 8.68741C46.708 8.0526 47.2087 7.24762 47.2087 6.27249C47.2087 5.86674 47.104 5.5526 46.8946 5.33009C46.6851 5.10103 46.4103 4.9865 46.07 4.9865Z" stroke="#53596D" stroke-width="0.198868" mask="url(#path-1-outside-1_254_4769)"/>
</svg>
