<svg width="47" height="17" viewBox="0 0 47 17" fill="none" xmlns="http://www.w3.org/2000/svg">
<mask id="path-1-outside-1_254_4768" maskUnits="userSpaceOnUse" x="-0.615845" y="0.0585938" width="47" height="17" fill="black">
<rect fill="white" x="-0.615845" y="0.0585938" width="47" height="17"/>
<path d="M10.1813 1.51998C11.2087 1.51998 12.0792 1.36618 12.7925 1.05859L12.5864 5.56448H12.3311C12.318 4.90348 12.2755 4.37992 12.2035 3.9938C12.1381 3.60767 12.0072 3.23464 11.8108 2.87469C11.4182 2.14825 10.5379 1.78503 9.17014 1.78503H8.267L5.31216 14.105C5.2009 14.5762 5.20745 14.9558 5.33179 15.2438C5.46268 15.5317 5.70483 15.6954 6.05823 15.7346L5.99933 15.9997H1.9352L1.9941 15.7543C2.3475 15.7215 2.66164 15.571 2.93651 15.3027C3.21792 15.0278 3.4208 14.6286 3.54515 14.105L6.49999 1.78503H5.61648C4.27486 1.78503 3.22119 2.14825 2.45549 2.87469C2.089 3.24118 1.77813 3.62076 1.5229 4.01343C1.27421 4.39956 1.00261 4.91657 0.708108 5.56448H0.384155L2.35732 1.05859C3.10994 1.36618 3.90182 1.51998 4.73297 1.51998H10.1813Z"/>
<path d="M15.1289 10.7477L12.7631 11.4153C12.6256 12.037 12.5569 12.5736 12.5569 13.0252C12.5569 13.7647 12.7074 14.3505 13.0085 14.7824C13.3161 15.2078 13.7349 15.4205 14.265 15.4205C15.4561 15.4205 16.5883 14.6221 17.6616 13.0252L17.8285 13.1037C17.3638 13.9349 16.7388 14.694 15.9535 15.3812C15.214 16.0226 14.409 16.3433 13.5386 16.3433C12.7402 16.3433 12.1053 16.0291 11.6341 15.4009C11.1629 14.7399 10.9273 13.9611 10.9273 13.0645C10.9273 11.9388 11.1826 10.8001 11.693 9.64824C12.1773 8.53568 12.8743 7.59654 13.784 6.83084C14.6741 6.07822 15.6066 5.70191 16.5818 5.70191C17.2166 5.70191 17.7794 5.89825 18.2703 6.29092C18.7676 6.6705 19.0163 7.16461 19.0163 7.77324C19.0163 8.46042 18.6989 9.03306 18.0641 9.49117C17.4293 9.94274 16.4509 10.3616 15.1289 10.7477ZM16.5818 5.9866C15.9666 5.9866 15.2696 6.53634 14.4908 7.63581C13.7186 8.73529 13.1623 9.92966 12.822 11.2189C13.6728 10.9179 14.337 10.6626 14.8148 10.4532C15.2925 10.2438 15.7604 9.98856 16.2186 9.68751C17.2199 9.05269 17.7205 8.24772 17.7205 7.27259C17.7205 6.86683 17.6158 6.5527 17.4064 6.33018C17.197 6.10113 16.9221 5.9866 16.5818 5.9866Z"/>
<path d="M26.8305 15.234C27.0202 15.234 27.3017 15.0278 27.6747 14.6155C28.0477 14.1967 28.4339 13.6535 28.8331 12.9859L29 13.0841C28.424 14.0658 27.8318 14.8413 27.2231 15.4107C26.621 15.98 26.1138 16.2647 25.7015 16.2647C24.7918 16.2647 24.6053 15.4925 25.142 13.948L25.7015 12.3773L25.6426 12.3577C25.0144 13.5553 24.337 14.5075 23.6106 15.2143C22.8907 15.9146 22.1806 16.2647 21.4803 16.2647C20.8455 16.2647 20.3449 16.0193 19.9784 15.5285C19.6119 15.0311 19.4286 14.3701 19.4286 13.5455C19.4286 12.4002 19.7297 11.2091 20.3318 9.97219C20.9535 8.74183 21.7585 7.72089 22.7467 6.90937C23.7218 6.09131 24.7199 5.68228 25.7408 5.68228C26.585 5.68228 27.1806 6.18621 27.5274 7.19406L29.2159 5.8688H29.4024C28.8396 7.2366 28.1557 9.19995 27.3507 11.7588C26.9712 13.0154 26.729 13.7844 26.6243 14.0658C26.3822 14.8446 26.4509 15.234 26.8305 15.234ZM22.3442 15.1358C22.9398 15.1358 23.6433 14.6515 24.4548 13.6829C25.286 12.6947 25.9502 11.4283 26.4476 9.88384C26.8076 8.88908 26.9483 7.99249 26.8697 7.19406C26.8108 6.38908 26.4541 5.9866 25.7997 5.9866C25.1845 5.9866 24.4941 6.38908 23.7284 7.19406C22.9823 7.99903 22.3409 8.99052 21.8043 10.1685C21.2807 11.3465 21.0189 12.4198 21.0189 13.3884C21.0189 13.912 21.1335 14.3341 21.3625 14.6548C21.5981 14.9755 21.9254 15.1358 22.3442 15.1358Z"/>
<path d="M30.2958 15.9997L32.9267 7.81251C33.1884 6.96827 33.1557 6.54615 32.8285 6.54615C32.5863 6.54615 32.2493 6.76867 31.8174 7.21369C31.3854 7.65872 30.9109 8.2739 30.3939 9.05924L30.2369 8.9807C31.6243 6.78175 32.871 5.68228 33.977 5.68228C34.8213 5.68228 35.034 6.33346 34.6151 7.63581L33.7513 10.2863L32.8089 13.1037L32.8678 13.1234C34.3403 9.89693 35.5052 7.81906 36.3625 6.88974C36.801 6.42508 37.1806 6.10767 37.5013 5.93751C37.8285 5.76736 38.195 5.68228 38.6007 5.68228C38.9345 5.68228 39.2159 5.78372 39.445 5.9866C39.6806 6.18948 39.8376 6.5167 39.9162 6.96827C39.9947 7.4133 39.9096 7.99249 39.6609 8.70584L38.2375 13.1037L38.2964 13.1234C38.8854 11.821 39.4286 10.7117 39.926 9.79549C40.4299 8.87272 40.8651 8.14628 41.2316 7.61618C41.5981 7.08607 41.9548 6.67377 42.3016 6.37927C42.655 6.08477 42.9594 5.89497 43.2146 5.8099C43.4698 5.72482 43.7545 5.68228 44.0687 5.68228C44.3959 5.68228 44.6707 5.78372 44.8933 5.9866C45.1223 6.18948 45.2728 6.5167 45.3448 6.96827C45.4234 7.4133 45.3383 7.99249 45.0896 8.70584L43.4796 13.732C43.3488 14.1509 43.2571 14.5108 43.2048 14.8118C43.1459 15.1587 43.231 15.3321 43.46 15.3321C43.7153 15.3321 44.0588 15.0867 44.4908 14.5959C44.9489 14.0789 45.3841 13.4735 45.7964 12.7798L45.9731 12.8681C45.4495 13.7975 44.8605 14.5992 44.2061 15.2732C43.5516 15.9473 42.9561 16.2844 42.4194 16.2844C41.4836 16.2844 41.2676 15.5187 41.7715 13.9872L43.2244 9.55008C43.9378 7.50819 43.8887 6.48725 43.0772 6.48725C41.9646 6.48725 40.0372 9.65806 37.2951 15.9997H35.6263L37.7761 9.55008C38.4895 7.50819 38.4404 6.48725 37.6289 6.48725C36.5752 6.48725 34.6479 9.65806 31.8468 15.9997H30.2958Z"/>
</mask>
<path d="M10.1813 1.51998C11.2087 1.51998 12.0792 1.36618 12.7925 1.05859L12.5864 5.56448H12.3311C12.318 4.90348 12.2755 4.37992 12.2035 3.9938C12.1381 3.60767 12.0072 3.23464 11.8108 2.87469C11.4182 2.14825 10.5379 1.78503 9.17014 1.78503H8.267L5.31216 14.105C5.2009 14.5762 5.20745 14.9558 5.33179 15.2438C5.46268 15.5317 5.70483 15.6954 6.05823 15.7346L5.99933 15.9997H1.9352L1.9941 15.7543C2.3475 15.7215 2.66164 15.571 2.93651 15.3027C3.21792 15.0278 3.4208 14.6286 3.54515 14.105L6.49999 1.78503H5.61648C4.27486 1.78503 3.22119 2.14825 2.45549 2.87469C2.089 3.24118 1.77813 3.62076 1.5229 4.01343C1.27421 4.39956 1.00261 4.91657 0.708108 5.56448H0.384155L2.35732 1.05859C3.10994 1.36618 3.90182 1.51998 4.73297 1.51998H10.1813Z" fill="#6A6E77"/>
<path d="M15.1289 10.7477L12.7631 11.4153C12.6256 12.037 12.5569 12.5736 12.5569 13.0252C12.5569 13.7647 12.7074 14.3505 13.0085 14.7824C13.3161 15.2078 13.7349 15.4205 14.265 15.4205C15.4561 15.4205 16.5883 14.6221 17.6616 13.0252L17.8285 13.1037C17.3638 13.9349 16.7388 14.694 15.9535 15.3812C15.214 16.0226 14.409 16.3433 13.5386 16.3433C12.7402 16.3433 12.1053 16.0291 11.6341 15.4009C11.1629 14.7399 10.9273 13.9611 10.9273 13.0645C10.9273 11.9388 11.1826 10.8001 11.693 9.64824C12.1773 8.53568 12.8743 7.59654 13.784 6.83084C14.6741 6.07822 15.6066 5.70191 16.5818 5.70191C17.2166 5.70191 17.7794 5.89825 18.2703 6.29092C18.7676 6.6705 19.0163 7.16461 19.0163 7.77324C19.0163 8.46042 18.6989 9.03306 18.0641 9.49117C17.4293 9.94274 16.4509 10.3616 15.1289 10.7477ZM16.5818 5.9866C15.9666 5.9866 15.2696 6.53634 14.4908 7.63581C13.7186 8.73529 13.1623 9.92966 12.822 11.2189C13.6728 10.9179 14.337 10.6626 14.8148 10.4532C15.2925 10.2438 15.7604 9.98856 16.2186 9.68751C17.2199 9.05269 17.7205 8.24772 17.7205 7.27259C17.7205 6.86683 17.6158 6.5527 17.4064 6.33018C17.197 6.10113 16.9221 5.9866 16.5818 5.9866Z" fill="#6A6E77"/>
<path d="M26.8305 15.234C27.0202 15.234 27.3017 15.0278 27.6747 14.6155C28.0477 14.1967 28.4339 13.6535 28.8331 12.9859L29 13.0841C28.424 14.0658 27.8318 14.8413 27.2231 15.4107C26.621 15.98 26.1138 16.2647 25.7015 16.2647C24.7918 16.2647 24.6053 15.4925 25.142 13.948L25.7015 12.3773L25.6426 12.3577C25.0144 13.5553 24.337 14.5075 23.6106 15.2143C22.8907 15.9146 22.1806 16.2647 21.4803 16.2647C20.8455 16.2647 20.3449 16.0193 19.9784 15.5285C19.6119 15.0311 19.4286 14.3701 19.4286 13.5455C19.4286 12.4002 19.7297 11.2091 20.3318 9.97219C20.9535 8.74183 21.7585 7.72089 22.7467 6.90937C23.7218 6.09131 24.7199 5.68228 25.7408 5.68228C26.585 5.68228 27.1806 6.18621 27.5274 7.19406L29.2159 5.8688H29.4024C28.8396 7.2366 28.1557 9.19995 27.3507 11.7588C26.9712 13.0154 26.729 13.7844 26.6243 14.0658C26.3822 14.8446 26.4509 15.234 26.8305 15.234ZM22.3442 15.1358C22.9398 15.1358 23.6433 14.6515 24.4548 13.6829C25.286 12.6947 25.9502 11.4283 26.4476 9.88384C26.8076 8.88908 26.9483 7.99249 26.8697 7.19406C26.8108 6.38908 26.4541 5.9866 25.7997 5.9866C25.1845 5.9866 24.4941 6.38908 23.7284 7.19406C22.9823 7.99903 22.3409 8.99052 21.8043 10.1685C21.2807 11.3465 21.0189 12.4198 21.0189 13.3884C21.0189 13.912 21.1335 14.3341 21.3625 14.6548C21.5981 14.9755 21.9254 15.1358 22.3442 15.1358Z" fill="#6A6E77"/>
<path d="M30.2958 15.9997L32.9267 7.81251C33.1884 6.96827 33.1557 6.54615 32.8285 6.54615C32.5863 6.54615 32.2493 6.76867 31.8174 7.21369C31.3854 7.65872 30.9109 8.2739 30.3939 9.05924L30.2369 8.9807C31.6243 6.78175 32.871 5.68228 33.977 5.68228C34.8213 5.68228 35.034 6.33346 34.6151 7.63581L33.7513 10.2863L32.8089 13.1037L32.8678 13.1234C34.3403 9.89693 35.5052 7.81906 36.3625 6.88974C36.801 6.42508 37.1806 6.10767 37.5013 5.93751C37.8285 5.76736 38.195 5.68228 38.6007 5.68228C38.9345 5.68228 39.2159 5.78372 39.445 5.9866C39.6806 6.18948 39.8376 6.5167 39.9162 6.96827C39.9947 7.4133 39.9096 7.99249 39.6609 8.70584L38.2375 13.1037L38.2964 13.1234C38.8854 11.821 39.4286 10.7117 39.926 9.79549C40.4299 8.87272 40.8651 8.14628 41.2316 7.61618C41.5981 7.08607 41.9548 6.67377 42.3016 6.37927C42.655 6.08477 42.9594 5.89497 43.2146 5.8099C43.4698 5.72482 43.7545 5.68228 44.0687 5.68228C44.3959 5.68228 44.6707 5.78372 44.8933 5.9866C45.1223 6.18948 45.2728 6.5167 45.3448 6.96827C45.4234 7.4133 45.3383 7.99249 45.0896 8.70584L43.4796 13.732C43.3488 14.1509 43.2571 14.5108 43.2048 14.8118C43.1459 15.1587 43.231 15.3321 43.46 15.3321C43.7153 15.3321 44.0588 15.0867 44.4908 14.5959C44.9489 14.0789 45.3841 13.4735 45.7964 12.7798L45.9731 12.8681C45.4495 13.7975 44.8605 14.5992 44.2061 15.2732C43.5516 15.9473 42.9561 16.2844 42.4194 16.2844C41.4836 16.2844 41.2676 15.5187 41.7715 13.9872L43.2244 9.55008C43.9378 7.50819 43.8887 6.48725 43.0772 6.48725C41.9646 6.48725 40.0372 9.65806 37.2951 15.9997H35.6263L37.7761 9.55008C38.4895 7.50819 38.4404 6.48725 37.6289 6.48725C36.5752 6.48725 34.6479 9.65806 31.8468 15.9997H30.2958Z" fill="#6A6E77"/>
<path d="M10.1813 1.51998C11.2087 1.51998 12.0792 1.36618 12.7925 1.05859L12.5864 5.56448H12.3311C12.318 4.90348 12.2755 4.37992 12.2035 3.9938C12.1381 3.60767 12.0072 3.23464 11.8108 2.87469C11.4182 2.14825 10.5379 1.78503 9.17014 1.78503H8.267L5.31216 14.105C5.2009 14.5762 5.20745 14.9558 5.33179 15.2438C5.46268 15.5317 5.70483 15.6954 6.05823 15.7346L5.99933 15.9997H1.9352L1.9941 15.7543C2.3475 15.7215 2.66164 15.571 2.93651 15.3027C3.21792 15.0278 3.4208 14.6286 3.54515 14.105L6.49999 1.78503H5.61648C4.27486 1.78503 3.22119 2.14825 2.45549 2.87469C2.089 3.24118 1.77813 3.62076 1.5229 4.01343C1.27421 4.39956 1.00261 4.91657 0.708108 5.56448H0.384155L2.35732 1.05859C3.10994 1.36618 3.90182 1.51998 4.73297 1.51998H10.1813Z" stroke="#53596D" stroke-width="0.198868" mask="url(#path-1-outside-1_254_4768)"/>
<path d="M15.1289 10.7477L12.7631 11.4153C12.6256 12.037 12.5569 12.5736 12.5569 13.0252C12.5569 13.7647 12.7074 14.3505 13.0085 14.7824C13.3161 15.2078 13.7349 15.4205 14.265 15.4205C15.4561 15.4205 16.5883 14.6221 17.6616 13.0252L17.8285 13.1037C17.3638 13.9349 16.7388 14.694 15.9535 15.3812C15.214 16.0226 14.409 16.3433 13.5386 16.3433C12.7402 16.3433 12.1053 16.0291 11.6341 15.4009C11.1629 14.7399 10.9273 13.9611 10.9273 13.0645C10.9273 11.9388 11.1826 10.8001 11.693 9.64824C12.1773 8.53568 12.8743 7.59654 13.784 6.83084C14.6741 6.07822 15.6066 5.70191 16.5818 5.70191C17.2166 5.70191 17.7794 5.89825 18.2703 6.29092C18.7676 6.6705 19.0163 7.16461 19.0163 7.77324C19.0163 8.46042 18.6989 9.03306 18.0641 9.49117C17.4293 9.94274 16.4509 10.3616 15.1289 10.7477ZM16.5818 5.9866C15.9666 5.9866 15.2696 6.53634 14.4908 7.63581C13.7186 8.73529 13.1623 9.92966 12.822 11.2189C13.6728 10.9179 14.337 10.6626 14.8148 10.4532C15.2925 10.2438 15.7604 9.98856 16.2186 9.68751C17.2199 9.05269 17.7205 8.24772 17.7205 7.27259C17.7205 6.86683 17.6158 6.5527 17.4064 6.33018C17.197 6.10113 16.9221 5.9866 16.5818 5.9866Z" stroke="#53596D" stroke-width="0.198868" mask="url(#path-1-outside-1_254_4768)"/>
<path d="M26.8305 15.234C27.0202 15.234 27.3017 15.0278 27.6747 14.6155C28.0477 14.1967 28.4339 13.6535 28.8331 12.9859L29 13.0841C28.424 14.0658 27.8318 14.8413 27.2231 15.4107C26.621 15.98 26.1138 16.2647 25.7015 16.2647C24.7918 16.2647 24.6053 15.4925 25.142 13.948L25.7015 12.3773L25.6426 12.3577C25.0144 13.5553 24.337 14.5075 23.6106 15.2143C22.8907 15.9146 22.1806 16.2647 21.4803 16.2647C20.8455 16.2647 20.3449 16.0193 19.9784 15.5285C19.6119 15.0311 19.4286 14.3701 19.4286 13.5455C19.4286 12.4002 19.7297 11.2091 20.3318 9.97219C20.9535 8.74183 21.7585 7.72089 22.7467 6.90937C23.7218 6.09131 24.7199 5.68228 25.7408 5.68228C26.585 5.68228 27.1806 6.18621 27.5274 7.19406L29.2159 5.8688H29.4024C28.8396 7.2366 28.1557 9.19995 27.3507 11.7588C26.9712 13.0154 26.729 13.7844 26.6243 14.0658C26.3822 14.8446 26.4509 15.234 26.8305 15.234ZM22.3442 15.1358C22.9398 15.1358 23.6433 14.6515 24.4548 13.6829C25.286 12.6947 25.9502 11.4283 26.4476 9.88384C26.8076 8.88908 26.9483 7.99249 26.8697 7.19406C26.8108 6.38908 26.4541 5.9866 25.7997 5.9866C25.1845 5.9866 24.4941 6.38908 23.7284 7.19406C22.9823 7.99903 22.3409 8.99052 21.8043 10.1685C21.2807 11.3465 21.0189 12.4198 21.0189 13.3884C21.0189 13.912 21.1335 14.3341 21.3625 14.6548C21.5981 14.9755 21.9254 15.1358 22.3442 15.1358Z" stroke="#53596D" stroke-width="0.198868" mask="url(#path-1-outside-1_254_4768)"/>
<path d="M30.2958 15.9997L32.9267 7.81251C33.1884 6.96827 33.1557 6.54615 32.8285 6.54615C32.5863 6.54615 32.2493 6.76867 31.8174 7.21369C31.3854 7.65872 30.9109 8.2739 30.3939 9.05924L30.2369 8.9807C31.6243 6.78175 32.871 5.68228 33.977 5.68228C34.8213 5.68228 35.034 6.33346 34.6151 7.63581L33.7513 10.2863L32.8089 13.1037L32.8678 13.1234C34.3403 9.89693 35.5052 7.81906 36.3625 6.88974C36.801 6.42508 37.1806 6.10767 37.5013 5.93751C37.8285 5.76736 38.195 5.68228 38.6007 5.68228C38.9345 5.68228 39.2159 5.78372 39.445 5.9866C39.6806 6.18948 39.8376 6.5167 39.9162 6.96827C39.9947 7.4133 39.9096 7.99249 39.6609 8.70584L38.2375 13.1037L38.2964 13.1234C38.8854 11.821 39.4286 10.7117 39.926 9.79549C40.4299 8.87272 40.8651 8.14628 41.2316 7.61618C41.5981 7.08607 41.9548 6.67377 42.3016 6.37927C42.655 6.08477 42.9594 5.89497 43.2146 5.8099C43.4698 5.72482 43.7545 5.68228 44.0687 5.68228C44.3959 5.68228 44.6707 5.78372 44.8933 5.9866C45.1223 6.18948 45.2728 6.5167 45.3448 6.96827C45.4234 7.4133 45.3383 7.99249 45.0896 8.70584L43.4796 13.732C43.3488 14.1509 43.2571 14.5108 43.2048 14.8118C43.1459 15.1587 43.231 15.3321 43.46 15.3321C43.7153 15.3321 44.0588 15.0867 44.4908 14.5959C44.9489 14.0789 45.3841 13.4735 45.7964 12.7798L45.9731 12.8681C45.4495 13.7975 44.8605 14.5992 44.2061 15.2732C43.5516 15.9473 42.9561 16.2844 42.4194 16.2844C41.4836 16.2844 41.2676 15.5187 41.7715 13.9872L43.2244 9.55008C43.9378 7.50819 43.8887 6.48725 43.0772 6.48725C41.9646 6.48725 40.0372 9.65806 37.2951 15.9997H35.6263L37.7761 9.55008C38.4895 7.50819 38.4404 6.48725 37.6289 6.48725C36.5752 6.48725 34.6479 9.65806 31.8468 15.9997H30.2958Z" stroke="#53596D" stroke-width="0.198868" mask="url(#path-1-outside-1_254_4768)"/>
</svg>
