<svg width="76" height="17" viewBox="0 0 76 17" fill="none" xmlns="http://www.w3.org/2000/svg">
<mask id="path-1-outside-1_254_4770" maskUnits="userSpaceOnUse" x="-0.615845" y="-0.324219" width="76" height="17" fill="black">
<rect fill="white" x="-0.615845" y="-0.324219" width="76" height="17"/>
<path d="M10.1813 1.52002C11.2087 1.52002 12.0792 1.36623 12.7925 1.05863L12.5864 5.56452H12.3311C12.318 4.90352 12.2755 4.37997 12.2035 3.99384C12.1381 3.60771 12.0072 3.23468 11.8108 2.87473C11.4182 2.14829 10.5379 1.78507 9.17014 1.78507H8.267L5.31216 14.1051C5.2009 14.5763 5.20745 14.9559 5.33179 15.2438C5.46268 15.5318 5.70483 15.6954 6.05823 15.7347L5.99933 15.9997H1.9352L1.9941 15.7543C2.3475 15.7216 2.66164 15.5711 2.93651 15.3027C3.21792 15.0279 3.4208 14.6286 3.54515 14.1051L6.49999 1.78507H5.61648C4.27486 1.78507 3.22119 2.14829 2.45549 2.87473C2.089 3.24122 1.77813 3.6208 1.5229 4.01347C1.27421 4.3996 1.00261 4.91661 0.708108 5.56452H0.384155L2.35732 1.05863C3.10994 1.36623 3.90182 1.52002 4.73297 1.52002H10.1813Z"/>
<path d="M17.6616 3.59135C17.4522 3.79423 17.197 3.89567 16.8959 3.89567C16.5949 3.89567 16.3396 3.79423 16.1302 3.59135C15.9273 3.38193 15.8259 3.12997 15.8259 2.83546C15.8259 2.53442 15.9273 2.27918 16.1302 2.06976C16.3396 1.86033 16.5949 1.75562 16.8959 1.75562C17.197 1.75562 17.4522 1.86033 17.6616 2.06976C17.871 2.27918 17.9758 2.53442 17.9758 2.83546C17.9758 3.12997 17.871 3.38193 17.6616 3.59135ZM12.1348 9.02001C13.6073 6.79488 14.8933 5.68232 15.9928 5.68232C16.4967 5.68232 16.7388 5.92447 16.7192 6.40876C16.7061 6.78834 16.5916 7.29227 16.3756 7.92054L14.3239 14.0265C14.1669 14.4781 14.0883 14.8086 14.0883 15.018C14.0883 15.2275 14.193 15.3322 14.4025 15.3322C14.6446 15.3322 14.9816 15.0966 15.4136 14.6254C15.8521 14.1542 16.2873 13.5521 16.7192 12.8191L16.8959 12.9074C16.2938 14.0069 15.6688 14.8381 15.0209 15.4009C14.373 15.9637 13.8069 16.2451 13.3226 16.2451C12.4522 16.2451 12.2493 15.5252 12.714 14.0855L14.7068 8.0776C14.9555 7.34462 15.07 6.92905 15.0504 6.83088C15.0307 6.69999 14.9489 6.63454 14.8049 6.63454C14.3076 6.63454 13.4764 7.45915 12.3115 9.10836L12.1348 9.02001Z"/>
<path d="M18.3979 15.9997L21.0288 7.81255C21.2905 6.96831 21.2578 6.54619 20.9306 6.54619C20.6884 6.54619 20.3514 6.76871 19.9195 7.21373C19.4875 7.65876 19.0131 8.27394 18.496 9.05928L18.339 8.98074C19.7264 6.78179 20.9731 5.68232 22.0792 5.68232C22.9234 5.68232 23.1361 6.3335 22.7172 7.63585L21.8534 10.2864L20.911 13.1038L20.9699 13.1234C22.4424 9.89697 23.6073 7.8191 24.4646 6.88978C24.9031 6.42512 25.2827 6.10771 25.6034 5.93755C25.9306 5.7674 26.2971 5.68232 26.7028 5.68232C27.0366 5.68232 27.318 5.78376 27.5471 5.98664C27.7827 6.18952 27.9397 6.51674 28.0183 6.96831C28.0968 7.41334 28.0117 7.99253 27.763 8.70588L26.3396 13.1038L26.3985 13.1234C26.9875 11.8211 27.5307 10.7118 28.0281 9.79553C28.532 8.87276 28.9672 8.14632 29.3337 7.61622C29.7002 7.08611 30.0569 6.67381 30.4038 6.37931C30.7572 6.08481 31.0615 5.89502 31.3167 5.80994C31.5719 5.72486 31.8566 5.68232 32.1708 5.68232C32.498 5.68232 32.7729 5.78376 32.9954 5.98664C33.2244 6.18952 33.375 6.51674 33.4469 6.96831C33.5255 7.41334 33.4404 7.99253 33.1917 8.70588L31.5818 13.732C31.4509 14.1509 31.3592 14.5108 31.3069 14.8119C31.248 15.1587 31.3331 15.3322 31.5621 15.3322C31.8174 15.3322 32.1609 15.0868 32.5929 14.5959C33.051 14.0789 33.4862 13.4735 33.8985 12.7798L34.0752 12.8682C33.5517 13.7975 32.9626 14.5992 32.3082 15.2733C31.6537 15.9474 31.0582 16.2844 30.5216 16.2844C29.5857 16.2844 29.3697 15.5187 29.8736 13.9873L31.3265 9.55012C32.0399 7.50823 31.9908 6.48729 31.1793 6.48729C30.0667 6.48729 28.1394 9.6581 25.3972 15.9997H23.7284L25.8782 9.55012C26.5916 7.50823 26.5425 6.48729 25.731 6.48729C24.6773 6.48729 22.75 9.6581 19.9489 15.9997H18.3979Z"/>
<path d="M39.5137 10.7478L37.1479 11.4153C37.0104 12.037 36.9417 12.5737 36.9417 13.0252C36.9417 13.7648 37.0922 14.3505 37.3933 14.7824C37.7009 15.2078 38.1197 15.4205 38.6498 15.4205C39.8409 15.4205 40.9731 14.6221 42.0464 13.0252L42.2133 13.1038C41.7486 13.9349 41.1236 14.6941 40.3383 15.3813C39.5988 16.0226 38.7938 16.3433 37.9234 16.3433C37.1249 16.3433 36.4901 16.0292 36.0189 15.4009C35.5477 14.7399 35.3121 13.9611 35.3121 13.0645C35.3121 11.9389 35.5674 10.8001 36.0778 9.64828C36.5621 8.53572 37.2591 7.59658 38.1688 6.83088C39.0588 6.07826 39.9914 5.70195 40.9666 5.70195C41.6014 5.70195 42.1642 5.89829 42.655 6.29096C43.1524 6.67054 43.4011 7.16465 43.4011 7.77329C43.4011 8.46046 43.0837 9.0331 42.4489 9.49121C41.8141 9.94278 40.8357 10.3616 39.5137 10.7478ZM40.9666 5.98664C40.3514 5.98664 39.6544 6.53638 38.8756 7.63585C38.1033 8.73533 37.5471 9.9297 37.2068 11.219C38.0575 10.9179 38.7218 10.6627 39.1996 10.4533C39.6773 10.2438 40.1452 9.9886 40.6033 9.68755C41.6047 9.05273 42.1053 8.24776 42.1053 7.27263C42.1053 6.86687 42.0006 6.55274 41.7912 6.33022C41.5817 6.10117 41.3069 5.98664 40.9666 5.98664Z"/>
<path d="M44.8147 16.3433C44.3632 16.3433 44.0556 16.1633 43.892 15.8034C43.7283 15.4434 43.7414 14.9068 43.9312 14.1934L47.3278 3.43429C47.6158 2.74057 47.6943 2.24646 47.5634 1.95196C47.4325 1.65746 47.0529 1.54947 46.4247 1.62801L46.5032 1.40222L49.8213 0.675781L45.6001 13.948C45.2728 14.9559 45.335 15.4598 45.7866 15.4598C46.3232 15.4598 47.066 14.681 48.015 13.1234L48.1721 13.2019C47.57 14.2491 46.9744 15.0344 46.3854 15.558C45.7964 16.0815 45.2728 16.3433 44.8147 16.3433Z"/>
<path d="M55.0634 3.59135C54.854 3.79423 54.5987 3.89567 54.2977 3.89567C53.9967 3.89567 53.7414 3.79423 53.532 3.59135C53.3291 3.38193 53.2277 3.12997 53.2277 2.83546C53.2277 2.53442 53.3291 2.27918 53.532 2.06976C53.7414 1.86033 53.9967 1.75562 54.2977 1.75562C54.5987 1.75562 54.854 1.86033 55.0634 2.06976C55.2728 2.27918 55.3775 2.53442 55.3775 2.83546C55.3775 3.12997 55.2728 3.38193 55.0634 3.59135ZM49.5366 9.02001C51.0091 6.79488 52.2951 5.68232 53.3946 5.68232C53.8985 5.68232 54.1406 5.92447 54.121 6.40876C54.1079 6.78834 53.9934 7.29227 53.7774 7.92054L51.7257 14.0265C51.5686 14.4781 51.4901 14.8086 51.4901 15.018C51.4901 15.2275 51.5948 15.3322 51.8042 15.3322C52.0464 15.3322 52.3834 15.0966 52.8154 14.6254C53.2539 14.1542 53.6891 13.5521 54.121 12.8191L54.2977 12.9074C53.6956 14.0069 53.0706 14.8381 52.4227 15.4009C51.7748 15.9637 51.2087 16.2451 50.7244 16.2451C49.854 16.2451 49.6511 15.5252 50.1158 14.0855L52.1086 8.0776C52.3573 7.34462 52.4718 6.92905 52.4522 6.83088C52.4325 6.69999 52.3507 6.63454 52.2067 6.63454C51.7094 6.63454 50.8782 7.45915 49.7133 9.10836L49.5366 9.02001Z"/>
<path d="M62.3082 16.2844C61.8435 16.2844 61.5588 16.075 61.4541 15.6561C61.3494 15.2373 61.4345 14.681 61.7093 13.9873L63.2015 9.82498C63.6334 8.66661 63.8428 7.82237 63.8298 7.29226C63.8167 6.75562 63.5713 6.48729 63.0935 6.48729C61.8762 6.48729 59.9194 9.6581 57.2231 15.9997H55.78C57.4423 10.8296 58.2931 8.16923 58.3324 8.0187C58.4109 7.79619 58.4698 7.59986 58.5091 7.4297C58.5549 7.25954 58.5811 7.10575 58.5876 6.96831C58.6007 6.82433 58.5876 6.71635 58.5483 6.64436C58.5091 6.56583 58.4436 6.52656 58.352 6.52656C58.1164 6.52656 57.763 6.76543 57.2918 7.24318C56.8271 7.71438 56.3625 8.31321 55.8978 9.03965L55.7408 8.96111C57.0824 6.77525 58.3095 5.68232 59.422 5.68232C60.2336 5.68232 60.4463 6.36622 60.0601 7.73402C59.8834 8.2903 59.4744 9.45849 58.833 11.2386L58.1753 13.1038L58.2342 13.1234C59.6478 9.96896 60.8193 7.89763 61.7486 6.90941C62.1871 6.43821 62.5699 6.11753 62.8972 5.94737C63.2309 5.77067 63.6007 5.68232 64.0065 5.68232C64.2551 5.68232 64.4809 5.74449 64.6838 5.86884C64.8867 5.98664 65.0568 6.16988 65.1943 6.41858C65.3383 6.66072 65.4037 7.00431 65.3906 7.44933C65.3775 7.89436 65.2695 8.40483 65.0667 8.98074L63.4371 13.732C63.1557 14.5305 63.0346 15.0115 63.0739 15.1751C63.0935 15.3125 63.1819 15.3813 63.3389 15.3813C63.5353 15.3813 63.869 15.1457 64.3402 14.6745C64.8638 14.1313 65.3154 13.5488 65.6949 12.9271L65.8716 13.0252C65.3873 13.8302 64.7918 14.5861 64.085 15.2929C63.424 15.9539 62.8317 16.2844 62.3082 16.2844Z"/>
<path d="M71.3199 10.7478L68.9541 11.4153C68.8167 12.037 68.7479 12.5737 68.7479 13.0252C68.7479 13.7648 68.8985 14.3505 69.1995 14.7824C69.5071 15.2078 69.926 15.4205 70.4561 15.4205C71.6472 15.4205 72.7794 14.6221 73.8527 13.0252L74.0195 13.1038C73.5549 13.9349 72.9299 14.6941 72.1445 15.3813C71.405 16.0226 70.6 16.3433 69.7296 16.3433C68.9312 16.3433 68.2964 16.0292 67.8252 15.4009C67.354 14.7399 67.1184 13.9611 67.1184 13.0645C67.1184 11.9389 67.3736 10.8001 67.8841 9.64828C68.3684 8.53572 69.0654 7.59658 69.975 6.83088C70.8651 6.07826 71.7977 5.70195 72.7728 5.70195C73.4076 5.70195 73.9705 5.89829 74.4613 6.29096C74.9587 6.67054 75.2074 7.16465 75.2074 7.77329C75.2074 8.46046 74.89 9.0331 74.2551 9.49121C73.6203 9.94278 72.6419 10.3616 71.3199 10.7478ZM72.7728 5.98664C72.1576 5.98664 71.4606 6.53638 70.6818 7.63585C69.9096 8.73533 69.3533 9.9297 69.013 11.219C69.8638 10.9179 70.5281 10.6627 71.0058 10.4533C71.4835 10.2438 71.9515 9.9886 72.4096 9.68755C73.4109 9.05273 73.9116 8.24776 73.9116 7.27263C73.9116 6.86687 73.8068 6.55274 73.5974 6.33022C73.388 6.10117 73.1131 5.98664 72.7728 5.98664Z"/>
</mask>
<path d="M10.1813 1.52002C11.2087 1.52002 12.0792 1.36623 12.7925 1.05863L12.5864 5.56452H12.3311C12.318 4.90352 12.2755 4.37997 12.2035 3.99384C12.1381 3.60771 12.0072 3.23468 11.8108 2.87473C11.4182 2.14829 10.5379 1.78507 9.17014 1.78507H8.267L5.31216 14.1051C5.2009 14.5763 5.20745 14.9559 5.33179 15.2438C5.46268 15.5318 5.70483 15.6954 6.05823 15.7347L5.99933 15.9997H1.9352L1.9941 15.7543C2.3475 15.7216 2.66164 15.5711 2.93651 15.3027C3.21792 15.0279 3.4208 14.6286 3.54515 14.1051L6.49999 1.78507H5.61648C4.27486 1.78507 3.22119 2.14829 2.45549 2.87473C2.089 3.24122 1.77813 3.6208 1.5229 4.01347C1.27421 4.3996 1.00261 4.91661 0.708108 5.56452H0.384155L2.35732 1.05863C3.10994 1.36623 3.90182 1.52002 4.73297 1.52002H10.1813Z" fill="#6A6E77"/>
<path d="M17.6616 3.59135C17.4522 3.79423 17.197 3.89567 16.8959 3.89567C16.5949 3.89567 16.3396 3.79423 16.1302 3.59135C15.9273 3.38193 15.8259 3.12997 15.8259 2.83546C15.8259 2.53442 15.9273 2.27918 16.1302 2.06976C16.3396 1.86033 16.5949 1.75562 16.8959 1.75562C17.197 1.75562 17.4522 1.86033 17.6616 2.06976C17.871 2.27918 17.9758 2.53442 17.9758 2.83546C17.9758 3.12997 17.871 3.38193 17.6616 3.59135ZM12.1348 9.02001C13.6073 6.79488 14.8933 5.68232 15.9928 5.68232C16.4967 5.68232 16.7388 5.92447 16.7192 6.40876C16.7061 6.78834 16.5916 7.29227 16.3756 7.92054L14.3239 14.0265C14.1669 14.4781 14.0883 14.8086 14.0883 15.018C14.0883 15.2275 14.193 15.3322 14.4025 15.3322C14.6446 15.3322 14.9816 15.0966 15.4136 14.6254C15.8521 14.1542 16.2873 13.5521 16.7192 12.8191L16.8959 12.9074C16.2938 14.0069 15.6688 14.8381 15.0209 15.4009C14.373 15.9637 13.8069 16.2451 13.3226 16.2451C12.4522 16.2451 12.2493 15.5252 12.714 14.0855L14.7068 8.0776C14.9555 7.34462 15.07 6.92905 15.0504 6.83088C15.0307 6.69999 14.9489 6.63454 14.8049 6.63454C14.3076 6.63454 13.4764 7.45915 12.3115 9.10836L12.1348 9.02001Z" fill="#6A6E77"/>
<path d="M18.3979 15.9997L21.0288 7.81255C21.2905 6.96831 21.2578 6.54619 20.9306 6.54619C20.6884 6.54619 20.3514 6.76871 19.9195 7.21373C19.4875 7.65876 19.0131 8.27394 18.496 9.05928L18.339 8.98074C19.7264 6.78179 20.9731 5.68232 22.0792 5.68232C22.9234 5.68232 23.1361 6.3335 22.7172 7.63585L21.8534 10.2864L20.911 13.1038L20.9699 13.1234C22.4424 9.89697 23.6073 7.8191 24.4646 6.88978C24.9031 6.42512 25.2827 6.10771 25.6034 5.93755C25.9306 5.7674 26.2971 5.68232 26.7028 5.68232C27.0366 5.68232 27.318 5.78376 27.5471 5.98664C27.7827 6.18952 27.9397 6.51674 28.0183 6.96831C28.0968 7.41334 28.0117 7.99253 27.763 8.70588L26.3396 13.1038L26.3985 13.1234C26.9875 11.8211 27.5307 10.7118 28.0281 9.79553C28.532 8.87276 28.9672 8.14632 29.3337 7.61622C29.7002 7.08611 30.0569 6.67381 30.4038 6.37931C30.7572 6.08481 31.0615 5.89502 31.3167 5.80994C31.5719 5.72486 31.8566 5.68232 32.1708 5.68232C32.498 5.68232 32.7729 5.78376 32.9954 5.98664C33.2244 6.18952 33.375 6.51674 33.4469 6.96831C33.5255 7.41334 33.4404 7.99253 33.1917 8.70588L31.5818 13.732C31.4509 14.1509 31.3592 14.5108 31.3069 14.8119C31.248 15.1587 31.3331 15.3322 31.5621 15.3322C31.8174 15.3322 32.1609 15.0868 32.5929 14.5959C33.051 14.0789 33.4862 13.4735 33.8985 12.7798L34.0752 12.8682C33.5517 13.7975 32.9626 14.5992 32.3082 15.2733C31.6537 15.9474 31.0582 16.2844 30.5216 16.2844C29.5857 16.2844 29.3697 15.5187 29.8736 13.9873L31.3265 9.55012C32.0399 7.50823 31.9908 6.48729 31.1793 6.48729C30.0667 6.48729 28.1394 9.6581 25.3972 15.9997H23.7284L25.8782 9.55012C26.5916 7.50823 26.5425 6.48729 25.731 6.48729C24.6773 6.48729 22.75 9.6581 19.9489 15.9997H18.3979Z" fill="#6A6E77"/>
<path d="M39.5137 10.7478L37.1479 11.4153C37.0104 12.037 36.9417 12.5737 36.9417 13.0252C36.9417 13.7648 37.0922 14.3505 37.3933 14.7824C37.7009 15.2078 38.1197 15.4205 38.6498 15.4205C39.8409 15.4205 40.9731 14.6221 42.0464 13.0252L42.2133 13.1038C41.7486 13.9349 41.1236 14.6941 40.3383 15.3813C39.5988 16.0226 38.7938 16.3433 37.9234 16.3433C37.1249 16.3433 36.4901 16.0292 36.0189 15.4009C35.5477 14.7399 35.3121 13.9611 35.3121 13.0645C35.3121 11.9389 35.5674 10.8001 36.0778 9.64828C36.5621 8.53572 37.2591 7.59658 38.1688 6.83088C39.0588 6.07826 39.9914 5.70195 40.9666 5.70195C41.6014 5.70195 42.1642 5.89829 42.655 6.29096C43.1524 6.67054 43.4011 7.16465 43.4011 7.77329C43.4011 8.46046 43.0837 9.0331 42.4489 9.49121C41.8141 9.94278 40.8357 10.3616 39.5137 10.7478ZM40.9666 5.98664C40.3514 5.98664 39.6544 6.53638 38.8756 7.63585C38.1033 8.73533 37.5471 9.9297 37.2068 11.219C38.0575 10.9179 38.7218 10.6627 39.1996 10.4533C39.6773 10.2438 40.1452 9.9886 40.6033 9.68755C41.6047 9.05273 42.1053 8.24776 42.1053 7.27263C42.1053 6.86687 42.0006 6.55274 41.7912 6.33022C41.5817 6.10117 41.3069 5.98664 40.9666 5.98664Z" fill="#6A6E77"/>
<path d="M44.8147 16.3433C44.3632 16.3433 44.0556 16.1633 43.892 15.8034C43.7283 15.4434 43.7414 14.9068 43.9312 14.1934L47.3278 3.43429C47.6158 2.74057 47.6943 2.24646 47.5634 1.95196C47.4325 1.65746 47.0529 1.54947 46.4247 1.62801L46.5032 1.40222L49.8213 0.675781L45.6001 13.948C45.2728 14.9559 45.335 15.4598 45.7866 15.4598C46.3232 15.4598 47.066 14.681 48.015 13.1234L48.1721 13.2019C47.57 14.2491 46.9744 15.0344 46.3854 15.558C45.7964 16.0815 45.2728 16.3433 44.8147 16.3433Z" fill="#6A6E77"/>
<path d="M55.0634 3.59135C54.854 3.79423 54.5987 3.89567 54.2977 3.89567C53.9967 3.89567 53.7414 3.79423 53.532 3.59135C53.3291 3.38193 53.2277 3.12997 53.2277 2.83546C53.2277 2.53442 53.3291 2.27918 53.532 2.06976C53.7414 1.86033 53.9967 1.75562 54.2977 1.75562C54.5987 1.75562 54.854 1.86033 55.0634 2.06976C55.2728 2.27918 55.3775 2.53442 55.3775 2.83546C55.3775 3.12997 55.2728 3.38193 55.0634 3.59135ZM49.5366 9.02001C51.0091 6.79488 52.2951 5.68232 53.3946 5.68232C53.8985 5.68232 54.1406 5.92447 54.121 6.40876C54.1079 6.78834 53.9934 7.29227 53.7774 7.92054L51.7257 14.0265C51.5686 14.4781 51.4901 14.8086 51.4901 15.018C51.4901 15.2275 51.5948 15.3322 51.8042 15.3322C52.0464 15.3322 52.3834 15.0966 52.8154 14.6254C53.2539 14.1542 53.6891 13.5521 54.121 12.8191L54.2977 12.9074C53.6956 14.0069 53.0706 14.8381 52.4227 15.4009C51.7748 15.9637 51.2087 16.2451 50.7244 16.2451C49.854 16.2451 49.6511 15.5252 50.1158 14.0855L52.1086 8.0776C52.3573 7.34462 52.4718 6.92905 52.4522 6.83088C52.4325 6.69999 52.3507 6.63454 52.2067 6.63454C51.7094 6.63454 50.8782 7.45915 49.7133 9.10836L49.5366 9.02001Z" fill="#6A6E77"/>
<path d="M62.3082 16.2844C61.8435 16.2844 61.5588 16.075 61.4541 15.6561C61.3494 15.2373 61.4345 14.681 61.7093 13.9873L63.2015 9.82498C63.6334 8.66661 63.8428 7.82237 63.8298 7.29226C63.8167 6.75562 63.5713 6.48729 63.0935 6.48729C61.8762 6.48729 59.9194 9.6581 57.2231 15.9997H55.78C57.4423 10.8296 58.2931 8.16923 58.3324 8.0187C58.4109 7.79619 58.4698 7.59986 58.5091 7.4297C58.5549 7.25954 58.5811 7.10575 58.5876 6.96831C58.6007 6.82433 58.5876 6.71635 58.5483 6.64436C58.5091 6.56583 58.4436 6.52656 58.352 6.52656C58.1164 6.52656 57.763 6.76543 57.2918 7.24318C56.8271 7.71438 56.3625 8.31321 55.8978 9.03965L55.7408 8.96111C57.0824 6.77525 58.3095 5.68232 59.422 5.68232C60.2336 5.68232 60.4463 6.36622 60.0601 7.73402C59.8834 8.2903 59.4744 9.45849 58.833 11.2386L58.1753 13.1038L58.2342 13.1234C59.6478 9.96896 60.8193 7.89763 61.7486 6.90941C62.1871 6.43821 62.5699 6.11753 62.8972 5.94737C63.2309 5.77067 63.6007 5.68232 64.0065 5.68232C64.2551 5.68232 64.4809 5.74449 64.6838 5.86884C64.8867 5.98664 65.0568 6.16988 65.1943 6.41858C65.3383 6.66072 65.4037 7.00431 65.3906 7.44933C65.3775 7.89436 65.2695 8.40483 65.0667 8.98074L63.4371 13.732C63.1557 14.5305 63.0346 15.0115 63.0739 15.1751C63.0935 15.3125 63.1819 15.3813 63.3389 15.3813C63.5353 15.3813 63.869 15.1457 64.3402 14.6745C64.8638 14.1313 65.3154 13.5488 65.6949 12.9271L65.8716 13.0252C65.3873 13.8302 64.7918 14.5861 64.085 15.2929C63.424 15.9539 62.8317 16.2844 62.3082 16.2844Z" fill="#6A6E77"/>
<path d="M71.3199 10.7478L68.9541 11.4153C68.8167 12.037 68.7479 12.5737 68.7479 13.0252C68.7479 13.7648 68.8985 14.3505 69.1995 14.7824C69.5071 15.2078 69.926 15.4205 70.4561 15.4205C71.6472 15.4205 72.7794 14.6221 73.8527 13.0252L74.0195 13.1038C73.5549 13.9349 72.9299 14.6941 72.1445 15.3813C71.405 16.0226 70.6 16.3433 69.7296 16.3433C68.9312 16.3433 68.2964 16.0292 67.8252 15.4009C67.354 14.7399 67.1184 13.9611 67.1184 13.0645C67.1184 11.9389 67.3736 10.8001 67.8841 9.64828C68.3684 8.53572 69.0654 7.59658 69.975 6.83088C70.8651 6.07826 71.7977 5.70195 72.7728 5.70195C73.4076 5.70195 73.9705 5.89829 74.4613 6.29096C74.9587 6.67054 75.2074 7.16465 75.2074 7.77329C75.2074 8.46046 74.89 9.0331 74.2551 9.49121C73.6203 9.94278 72.6419 10.3616 71.3199 10.7478ZM72.7728 5.98664C72.1576 5.98664 71.4606 6.53638 70.6818 7.63585C69.9096 8.73533 69.3533 9.9297 69.013 11.219C69.8638 10.9179 70.5281 10.6627 71.0058 10.4533C71.4835 10.2438 71.9515 9.9886 72.4096 9.68755C73.4109 9.05273 73.9116 8.24776 73.9116 7.27263C73.9116 6.86687 73.8068 6.55274 73.5974 6.33022C73.388 6.10117 73.1131 5.98664 72.7728 5.98664Z" fill="#6A6E77"/>
<path d="M10.1813 1.52002C11.2087 1.52002 12.0792 1.36623 12.7925 1.05863L12.5864 5.56452H12.3311C12.318 4.90352 12.2755 4.37997 12.2035 3.99384C12.1381 3.60771 12.0072 3.23468 11.8108 2.87473C11.4182 2.14829 10.5379 1.78507 9.17014 1.78507H8.267L5.31216 14.1051C5.2009 14.5763 5.20745 14.9559 5.33179 15.2438C5.46268 15.5318 5.70483 15.6954 6.05823 15.7347L5.99933 15.9997H1.9352L1.9941 15.7543C2.3475 15.7216 2.66164 15.5711 2.93651 15.3027C3.21792 15.0279 3.4208 14.6286 3.54515 14.1051L6.49999 1.78507H5.61648C4.27486 1.78507 3.22119 2.14829 2.45549 2.87473C2.089 3.24122 1.77813 3.6208 1.5229 4.01347C1.27421 4.3996 1.00261 4.91661 0.708108 5.56452H0.384155L2.35732 1.05863C3.10994 1.36623 3.90182 1.52002 4.73297 1.52002H10.1813Z" stroke="#53596D" stroke-width="0.198868" mask="url(#path-1-outside-1_254_4770)"/>
<path d="M17.6616 3.59135C17.4522 3.79423 17.197 3.89567 16.8959 3.89567C16.5949 3.89567 16.3396 3.79423 16.1302 3.59135C15.9273 3.38193 15.8259 3.12997 15.8259 2.83546C15.8259 2.53442 15.9273 2.27918 16.1302 2.06976C16.3396 1.86033 16.5949 1.75562 16.8959 1.75562C17.197 1.75562 17.4522 1.86033 17.6616 2.06976C17.871 2.27918 17.9758 2.53442 17.9758 2.83546C17.9758 3.12997 17.871 3.38193 17.6616 3.59135ZM12.1348 9.02001C13.6073 6.79488 14.8933 5.68232 15.9928 5.68232C16.4967 5.68232 16.7388 5.92447 16.7192 6.40876C16.7061 6.78834 16.5916 7.29227 16.3756 7.92054L14.3239 14.0265C14.1669 14.4781 14.0883 14.8086 14.0883 15.018C14.0883 15.2275 14.193 15.3322 14.4025 15.3322C14.6446 15.3322 14.9816 15.0966 15.4136 14.6254C15.8521 14.1542 16.2873 13.5521 16.7192 12.8191L16.8959 12.9074C16.2938 14.0069 15.6688 14.8381 15.0209 15.4009C14.373 15.9637 13.8069 16.2451 13.3226 16.2451C12.4522 16.2451 12.2493 15.5252 12.714 14.0855L14.7068 8.0776C14.9555 7.34462 15.07 6.92905 15.0504 6.83088C15.0307 6.69999 14.9489 6.63454 14.8049 6.63454C14.3076 6.63454 13.4764 7.45915 12.3115 9.10836L12.1348 9.02001Z" stroke="#53596D" stroke-width="0.198868" mask="url(#path-1-outside-1_254_4770)"/>
<path d="M18.3979 15.9997L21.0288 7.81255C21.2905 6.96831 21.2578 6.54619 20.9306 6.54619C20.6884 6.54619 20.3514 6.76871 19.9195 7.21373C19.4875 7.65876 19.0131 8.27394 18.496 9.05928L18.339 8.98074C19.7264 6.78179 20.9731 5.68232 22.0792 5.68232C22.9234 5.68232 23.1361 6.3335 22.7172 7.63585L21.8534 10.2864L20.911 13.1038L20.9699 13.1234C22.4424 9.89697 23.6073 7.8191 24.4646 6.88978C24.9031 6.42512 25.2827 6.10771 25.6034 5.93755C25.9306 5.7674 26.2971 5.68232 26.7028 5.68232C27.0366 5.68232 27.318 5.78376 27.5471 5.98664C27.7827 6.18952 27.9397 6.51674 28.0183 6.96831C28.0968 7.41334 28.0117 7.99253 27.763 8.70588L26.3396 13.1038L26.3985 13.1234C26.9875 11.8211 27.5307 10.7118 28.0281 9.79553C28.532 8.87276 28.9672 8.14632 29.3337 7.61622C29.7002 7.08611 30.0569 6.67381 30.4038 6.37931C30.7572 6.08481 31.0615 5.89502 31.3167 5.80994C31.5719 5.72486 31.8566 5.68232 32.1708 5.68232C32.498 5.68232 32.7729 5.78376 32.9954 5.98664C33.2244 6.18952 33.375 6.51674 33.4469 6.96831C33.5255 7.41334 33.4404 7.99253 33.1917 8.70588L31.5818 13.732C31.4509 14.1509 31.3592 14.5108 31.3069 14.8119C31.248 15.1587 31.3331 15.3322 31.5621 15.3322C31.8174 15.3322 32.1609 15.0868 32.5929 14.5959C33.051 14.0789 33.4862 13.4735 33.8985 12.7798L34.0752 12.8682C33.5517 13.7975 32.9626 14.5992 32.3082 15.2733C31.6537 15.9474 31.0582 16.2844 30.5216 16.2844C29.5857 16.2844 29.3697 15.5187 29.8736 13.9873L31.3265 9.55012C32.0399 7.50823 31.9908 6.48729 31.1793 6.48729C30.0667 6.48729 28.1394 9.6581 25.3972 15.9997H23.7284L25.8782 9.55012C26.5916 7.50823 26.5425 6.48729 25.731 6.48729C24.6773 6.48729 22.75 9.6581 19.9489 15.9997H18.3979Z" stroke="#53596D" stroke-width="0.198868" mask="url(#path-1-outside-1_254_4770)"/>
<path d="M39.5137 10.7478L37.1479 11.4153C37.0104 12.037 36.9417 12.5737 36.9417 13.0252C36.9417 13.7648 37.0922 14.3505 37.3933 14.7824C37.7009 15.2078 38.1197 15.4205 38.6498 15.4205C39.8409 15.4205 40.9731 14.6221 42.0464 13.0252L42.2133 13.1038C41.7486 13.9349 41.1236 14.6941 40.3383 15.3813C39.5988 16.0226 38.7938 16.3433 37.9234 16.3433C37.1249 16.3433 36.4901 16.0292 36.0189 15.4009C35.5477 14.7399 35.3121 13.9611 35.3121 13.0645C35.3121 11.9389 35.5674 10.8001 36.0778 9.64828C36.5621 8.53572 37.2591 7.59658 38.1688 6.83088C39.0588 6.07826 39.9914 5.70195 40.9666 5.70195C41.6014 5.70195 42.1642 5.89829 42.655 6.29096C43.1524 6.67054 43.4011 7.16465 43.4011 7.77329C43.4011 8.46046 43.0837 9.0331 42.4489 9.49121C41.8141 9.94278 40.8357 10.3616 39.5137 10.7478ZM40.9666 5.98664C40.3514 5.98664 39.6544 6.53638 38.8756 7.63585C38.1033 8.73533 37.5471 9.9297 37.2068 11.219C38.0575 10.9179 38.7218 10.6627 39.1996 10.4533C39.6773 10.2438 40.1452 9.9886 40.6033 9.68755C41.6047 9.05273 42.1053 8.24776 42.1053 7.27263C42.1053 6.86687 42.0006 6.55274 41.7912 6.33022C41.5817 6.10117 41.3069 5.98664 40.9666 5.98664Z" stroke="#53596D" stroke-width="0.198868" mask="url(#path-1-outside-1_254_4770)"/>
<path d="M44.8147 16.3433C44.3632 16.3433 44.0556 16.1633 43.892 15.8034C43.7283 15.4434 43.7414 14.9068 43.9312 14.1934L47.3278 3.43429C47.6158 2.74057 47.6943 2.24646 47.5634 1.95196C47.4325 1.65746 47.0529 1.54947 46.4247 1.62801L46.5032 1.40222L49.8213 0.675781L45.6001 13.948C45.2728 14.9559 45.335 15.4598 45.7866 15.4598C46.3232 15.4598 47.066 14.681 48.015 13.1234L48.1721 13.2019C47.57 14.2491 46.9744 15.0344 46.3854 15.558C45.7964 16.0815 45.2728 16.3433 44.8147 16.3433Z" stroke="#53596D" stroke-width="0.198868" mask="url(#path-1-outside-1_254_4770)"/>
<path d="M55.0634 3.59135C54.854 3.79423 54.5987 3.89567 54.2977 3.89567C53.9967 3.89567 53.7414 3.79423 53.532 3.59135C53.3291 3.38193 53.2277 3.12997 53.2277 2.83546C53.2277 2.53442 53.3291 2.27918 53.532 2.06976C53.7414 1.86033 53.9967 1.75562 54.2977 1.75562C54.5987 1.75562 54.854 1.86033 55.0634 2.06976C55.2728 2.27918 55.3775 2.53442 55.3775 2.83546C55.3775 3.12997 55.2728 3.38193 55.0634 3.59135ZM49.5366 9.02001C51.0091 6.79488 52.2951 5.68232 53.3946 5.68232C53.8985 5.68232 54.1406 5.92447 54.121 6.40876C54.1079 6.78834 53.9934 7.29227 53.7774 7.92054L51.7257 14.0265C51.5686 14.4781 51.4901 14.8086 51.4901 15.018C51.4901 15.2275 51.5948 15.3322 51.8042 15.3322C52.0464 15.3322 52.3834 15.0966 52.8154 14.6254C53.2539 14.1542 53.6891 13.5521 54.121 12.8191L54.2977 12.9074C53.6956 14.0069 53.0706 14.8381 52.4227 15.4009C51.7748 15.9637 51.2087 16.2451 50.7244 16.2451C49.854 16.2451 49.6511 15.5252 50.1158 14.0855L52.1086 8.0776C52.3573 7.34462 52.4718 6.92905 52.4522 6.83088C52.4325 6.69999 52.3507 6.63454 52.2067 6.63454C51.7094 6.63454 50.8782 7.45915 49.7133 9.10836L49.5366 9.02001Z" stroke="#53596D" stroke-width="0.198868" mask="url(#path-1-outside-1_254_4770)"/>
<path d="M62.3082 16.2844C61.8435 16.2844 61.5588 16.075 61.4541 15.6561C61.3494 15.2373 61.4345 14.681 61.7093 13.9873L63.2015 9.82498C63.6334 8.66661 63.8428 7.82237 63.8298 7.29226C63.8167 6.75562 63.5713 6.48729 63.0935 6.48729C61.8762 6.48729 59.9194 9.6581 57.2231 15.9997H55.78C57.4423 10.8296 58.2931 8.16923 58.3324 8.0187C58.4109 7.79619 58.4698 7.59986 58.5091 7.4297C58.5549 7.25954 58.5811 7.10575 58.5876 6.96831C58.6007 6.82433 58.5876 6.71635 58.5483 6.64436C58.5091 6.56583 58.4436 6.52656 58.352 6.52656C58.1164 6.52656 57.763 6.76543 57.2918 7.24318C56.8271 7.71438 56.3625 8.31321 55.8978 9.03965L55.7408 8.96111C57.0824 6.77525 58.3095 5.68232 59.422 5.68232C60.2336 5.68232 60.4463 6.36622 60.0601 7.73402C59.8834 8.2903 59.4744 9.45849 58.833 11.2386L58.1753 13.1038L58.2342 13.1234C59.6478 9.96896 60.8193 7.89763 61.7486 6.90941C62.1871 6.43821 62.5699 6.11753 62.8972 5.94737C63.2309 5.77067 63.6007 5.68232 64.0065 5.68232C64.2551 5.68232 64.4809 5.74449 64.6838 5.86884C64.8867 5.98664 65.0568 6.16988 65.1943 6.41858C65.3383 6.66072 65.4037 7.00431 65.3906 7.44933C65.3775 7.89436 65.2695 8.40483 65.0667 8.98074L63.4371 13.732C63.1557 14.5305 63.0346 15.0115 63.0739 15.1751C63.0935 15.3125 63.1819 15.3813 63.3389 15.3813C63.5353 15.3813 63.869 15.1457 64.3402 14.6745C64.8638 14.1313 65.3154 13.5488 65.6949 12.9271L65.8716 13.0252C65.3873 13.8302 64.7918 14.5861 64.085 15.2929C63.424 15.9539 62.8317 16.2844 62.3082 16.2844Z" stroke="#53596D" stroke-width="0.198868" mask="url(#path-1-outside-1_254_4770)"/>
<path d="M71.3199 10.7478L68.9541 11.4153C68.8167 12.037 68.7479 12.5737 68.7479 13.0252C68.7479 13.7648 68.8985 14.3505 69.1995 14.7824C69.5071 15.2078 69.926 15.4205 70.4561 15.4205C71.6472 15.4205 72.7794 14.6221 73.8527 13.0252L74.0195 13.1038C73.5549 13.9349 72.9299 14.6941 72.1445 15.3813C71.405 16.0226 70.6 16.3433 69.7296 16.3433C68.9312 16.3433 68.2964 16.0292 67.8252 15.4009C67.354 14.7399 67.1184 13.9611 67.1184 13.0645C67.1184 11.9389 67.3736 10.8001 67.8841 9.64828C68.3684 8.53572 69.0654 7.59658 69.975 6.83088C70.8651 6.07826 71.7977 5.70195 72.7728 5.70195C73.4076 5.70195 73.9705 5.89829 74.4613 6.29096C74.9587 6.67054 75.2074 7.16465 75.2074 7.77329C75.2074 8.46046 74.89 9.0331 74.2551 9.49121C73.6203 9.94278 72.6419 10.3616 71.3199 10.7478ZM72.7728 5.98664C72.1576 5.98664 71.4606 6.53638 70.6818 7.63585C69.9096 8.73533 69.3533 9.9297 69.013 11.219C69.8638 10.9179 70.5281 10.6627 71.0058 10.4533C71.4835 10.2438 71.9515 9.9886 72.4096 9.68755C73.4109 9.05273 73.9116 8.24776 73.9116 7.27263C73.9116 6.86687 73.8068 6.55274 73.5974 6.33022C73.388 6.10117 73.1131 5.98664 72.7728 5.98664Z" stroke="#53596D" stroke-width="0.198868" mask="url(#path-1-outside-1_254_4770)"/>
</svg>
