<svg width="66" height="17" viewBox="0 0 66 17" fill="none" xmlns="http://www.w3.org/2000/svg">
<mask id="path-1-outside-1_254_4771" maskUnits="userSpaceOnUse" x="-0.615845" y="-0.324219" width="66" height="17" fill="black">
<rect fill="white" x="-0.615845" y="-0.324219" width="66" height="17"/>
<path d="M10.1813 1.52002C11.2087 1.52002 12.0792 1.36623 12.7925 1.05863L12.5864 5.56452H12.3311C12.318 4.90352 12.2755 4.37997 12.2035 3.99384C12.1381 3.60771 12.0072 3.23468 11.8108 2.87473C11.4182 2.14829 10.5379 1.78507 9.17014 1.78507H8.267L5.31216 14.1051C5.2009 14.5763 5.20745 14.9559 5.33179 15.2438C5.46268 15.5318 5.70483 15.6954 6.05823 15.7347L5.99933 15.9997H1.9352L1.9941 15.7543C2.3475 15.7216 2.66164 15.5711 2.93651 15.3027C3.21792 15.0279 3.4208 14.6286 3.54515 14.1051L6.49999 1.78507H5.61648C4.27486 1.78507 3.22119 2.14829 2.45549 2.87473C2.089 3.24122 1.77813 3.6208 1.5229 4.01347C1.27421 4.3996 1.00261 4.91661 0.708108 5.56452H0.384155L2.35732 1.05863C3.10994 1.36623 3.90182 1.52002 4.73297 1.52002H10.1813Z"/>
<path d="M14.0687 16.2648C13.1197 16.2648 12.3737 15.9081 11.8305 15.1947C11.3135 14.4748 11.055 13.5717 11.055 12.4853C11.055 11.4186 11.2906 10.3649 11.7618 9.32433C12.233 8.28376 12.8743 7.41988 13.6858 6.73271C14.5039 6.03245 15.3809 5.68232 16.3167 5.68232C17.246 5.68232 17.9823 6.04554 18.5255 6.77198C19.0621 7.47224 19.3305 8.36883 19.3305 9.46177C19.3566 10.2144 19.2258 11.003 18.9378 11.8276C18.6498 12.6457 18.2637 13.3852 17.7794 14.0462C17.3017 14.7006 16.729 15.2406 16.0615 15.6659C15.4005 16.0848 14.7362 16.2844 14.0687 16.2648ZM13.4404 15.823C14.1276 15.823 14.8508 15.3649 15.6099 14.4487C16.3691 13.5324 16.9679 12.482 17.4064 11.2975C17.858 10.1129 18.0837 9.05928 18.0837 8.1365C18.0837 7.50823 17.9758 7.0174 17.7598 6.66399C17.5504 6.30405 17.2493 6.12407 16.8566 6.12407C16.176 6.12407 15.4594 6.58873 14.7068 7.51805C13.9869 8.4081 13.3913 9.47158 12.9201 10.7085C12.4751 11.9258 12.2526 12.9729 12.2526 13.8498C12.2526 14.465 12.354 14.9493 12.5569 15.3027C12.7598 15.6496 13.0543 15.823 13.4404 15.823Z"/>
<path d="M23.8069 16.2648C22.858 16.2648 22.1119 15.9081 21.5687 15.1947C21.0517 14.4748 20.7932 13.5717 20.7932 12.4853C20.7932 11.4186 21.0288 10.3649 21.5 9.32433C21.9712 8.28376 22.6125 7.41988 23.424 6.73271C24.2421 6.03245 25.1191 5.68232 26.0549 5.68232C26.9843 5.68232 27.7205 6.04554 28.2637 6.77198C28.8004 7.47224 29.0687 8.36883 29.0687 9.46177C29.0949 10.2144 28.964 11.003 28.676 11.8276C28.388 12.6457 28.0019 13.3852 27.5176 14.0462C27.0399 14.7006 26.4672 15.2406 25.7997 15.6659C25.1387 16.0848 24.4744 16.2844 23.8069 16.2648ZM23.1786 15.823C23.8658 15.823 24.589 15.3649 25.3481 14.4487C26.1073 13.5324 26.7061 12.482 27.1446 11.2975C27.5962 10.1129 27.8219 9.05928 27.8219 8.1365C27.8219 7.50823 27.714 7.0174 27.498 6.66399C27.2886 6.30405 26.9875 6.12407 26.5949 6.12407C25.9142 6.12407 25.1976 6.58873 24.445 7.51805C23.7251 8.4081 23.1295 9.47158 22.6583 10.7085C22.2133 11.9258 21.9908 12.9729 21.9908 13.8498C21.9908 14.465 22.0922 14.9493 22.2951 15.3027C22.498 15.6496 22.7925 15.823 23.1786 15.823Z"/>
<path d="M31.0713 16.3433C30.6197 16.3433 30.3121 16.1633 30.1485 15.8034C29.9849 15.4434 29.998 14.9068 30.1878 14.1934L33.5844 3.43429C33.8723 2.74057 33.9509 2.24646 33.82 1.95196C33.6891 1.65746 33.3095 1.54947 32.6812 1.62801L32.7598 1.40222L36.0778 0.675781L31.8566 13.948C31.5294 14.9559 31.5916 15.4598 32.0431 15.4598C32.5798 15.4598 33.3226 14.681 34.2715 13.1234L34.4286 13.2019C33.8265 14.2491 33.231 15.0344 32.642 15.558C32.053 16.0815 31.5294 16.3433 31.0713 16.3433Z"/>
<path d="M42.7041 5.64305C43.424 5.64305 43.9868 5.91792 44.3926 6.46766C44.7984 7.01085 45.0012 7.73402 45.0012 8.63716C45.0012 9.74972 44.6937 10.8983 44.0785 12.0828C43.496 13.2412 42.691 14.2327 41.6636 15.0573C40.6819 15.8623 39.6838 16.2648 38.6694 16.2648C38.015 16.2648 37.4194 16.0881 36.8828 15.7347C36.3527 15.3747 35.9404 14.933 35.6459 14.4094L39.0523 3.25758C39.2683 2.68821 39.3141 2.26282 39.1897 1.98141C39.0719 1.69345 38.7643 1.58219 38.267 1.64764L38.3259 1.40222L41.4181 0.675781L38.7087 9.4225C39.2519 8.33611 39.8736 7.43952 40.5739 6.73271C41.2807 6.00627 41.9908 5.64305 42.7041 5.64305ZM37.4424 14.2327C37.4424 15.3845 37.8154 15.9604 38.5615 15.9604C39.3075 15.9604 40.0602 15.5121 40.8193 14.6156C41.5916 13.7059 42.2067 12.6588 42.6649 11.4742C43.1361 10.2635 43.3717 9.21962 43.3717 8.34266C43.3717 7.05339 42.9299 6.40876 42.0464 6.40876C41.4247 6.40876 40.7408 6.8996 39.9947 7.88127C39.2552 8.83022 38.6433 9.92642 38.159 11.1699C37.6812 12.3872 37.4424 13.4081 37.4424 14.2327Z"/>
<path d="M49.2519 16.2648C48.3029 16.2648 47.5569 15.9081 47.0137 15.1947C46.4967 14.4748 46.2382 13.5717 46.2382 12.4853C46.2382 11.4186 46.4738 10.3649 46.945 9.32433C47.4162 8.28376 48.0575 7.41988 48.869 6.73271C49.6871 6.03245 50.5641 5.68232 51.4999 5.68232C52.4292 5.68232 53.1655 6.04554 53.7087 6.77198C54.2453 7.47224 54.5137 8.36883 54.5137 9.46177C54.5398 10.2144 54.409 11.003 54.121 11.8276C53.833 12.6457 53.4469 13.3852 52.9626 14.0462C52.4849 14.7006 51.9122 15.2406 51.2447 15.6659C50.5837 16.0848 49.9194 16.2844 49.2519 16.2648ZM48.6236 15.823C49.3108 15.823 50.034 15.3649 50.7931 14.4487C51.5523 13.5324 52.1511 12.482 52.5896 11.2975C53.0412 10.1129 53.2669 9.05928 53.2669 8.1365C53.2669 7.50823 53.159 7.0174 52.943 6.66399C52.7336 6.30405 52.4325 6.12407 52.0398 6.12407C51.3592 6.12407 50.6426 6.58873 49.89 7.51805C49.1701 8.4081 48.5745 9.47158 48.1033 10.7085C47.6583 11.9258 47.4358 12.9729 47.4358 13.8498C47.4358 14.465 47.5372 14.9493 47.7401 15.3027C47.943 15.6496 48.2375 15.823 48.6236 15.823Z"/>
<path d="M65.2532 6.81124C65.2663 7.19083 65.1714 7.51478 64.9685 7.7831C64.7656 8.04488 64.5104 8.17577 64.2028 8.17577C63.9934 8.17577 63.833 8.1136 63.7218 7.98925C63.6105 7.86491 63.5451 7.73075 63.5254 7.58677C63.5058 7.43624 63.46 7.29881 63.388 7.17446C63.3226 7.05012 63.2244 6.98795 63.0935 6.98795C62.5699 6.98795 61.7126 8.11687 60.5215 10.3747L60.8847 13.0645C60.9764 13.8433 61.0811 14.3669 61.1989 14.6352C61.3167 14.9035 61.513 15.0377 61.7879 15.0377C62.0758 15.0377 62.3671 14.8217 62.6616 14.3898C62.9561 13.9578 63.1949 13.3361 63.3782 12.5246L63.5647 12.5442C63.3945 13.5259 63.0379 14.4029 62.4947 15.1751C61.9777 15.9146 61.4541 16.2844 60.924 16.2844C60.4921 16.2844 60.1681 16.1306 59.9521 15.823C59.7427 15.5154 59.5922 15.0246 59.5006 14.3505L59.1374 11.6607C58.3389 13.3361 57.6779 14.5272 57.1544 15.234C56.6374 15.9343 56.1138 16.2844 55.5837 16.2844C55.2107 16.2844 54.9096 16.1633 54.6806 15.9212C54.4515 15.679 54.337 15.3714 54.337 14.9984C54.337 14.6515 54.4384 14.3636 54.6413 14.1345C54.8376 13.9055 55.0765 13.7909 55.3579 13.7909C55.587 13.7909 55.7669 13.8466 55.8978 13.9578C56.0353 14.0691 56.1203 14.1902 56.1531 14.3211C56.1858 14.4519 56.2414 14.573 56.32 14.6843C56.3985 14.7955 56.5065 14.8512 56.6439 14.8512C57.0824 14.8512 57.8939 13.647 59.0785 11.2386L58.676 8.30339C58.604 7.72093 58.5124 7.31517 58.4011 7.08611C58.2964 6.85051 58.1393 6.73271 57.9299 6.73271C57.2689 6.73271 56.6864 7.50823 56.1825 9.05928L56.0058 9.00038C56.176 8.45064 56.3723 7.96635 56.5948 7.5475C56.8173 7.12865 57.0268 6.8047 57.2231 6.57564C57.426 6.34659 57.6354 6.16334 57.8514 6.02591C58.0739 5.88193 58.2604 5.7903 58.4109 5.75104C58.5614 5.70523 58.7021 5.68232 58.833 5.68232C59.2388 5.68232 59.5398 5.81975 59.7362 6.09462C59.9391 6.36295 60.0798 6.84397 60.1583 7.53768L60.4823 10.0311C61.2414 8.47355 61.8959 7.36098 62.4456 6.69344C62.9953 6.01936 63.5287 5.68232 64.0457 5.68232C64.4057 5.68232 64.6936 5.78376 64.9096 5.98664C65.1321 6.18952 65.2466 6.46439 65.2532 6.81124Z"/>
</mask>
<path d="M10.1813 1.52002C11.2087 1.52002 12.0792 1.36623 12.7925 1.05863L12.5864 5.56452H12.3311C12.318 4.90352 12.2755 4.37997 12.2035 3.99384C12.1381 3.60771 12.0072 3.23468 11.8108 2.87473C11.4182 2.14829 10.5379 1.78507 9.17014 1.78507H8.267L5.31216 14.1051C5.2009 14.5763 5.20745 14.9559 5.33179 15.2438C5.46268 15.5318 5.70483 15.6954 6.05823 15.7347L5.99933 15.9997H1.9352L1.9941 15.7543C2.3475 15.7216 2.66164 15.5711 2.93651 15.3027C3.21792 15.0279 3.4208 14.6286 3.54515 14.1051L6.49999 1.78507H5.61648C4.27486 1.78507 3.22119 2.14829 2.45549 2.87473C2.089 3.24122 1.77813 3.6208 1.5229 4.01347C1.27421 4.3996 1.00261 4.91661 0.708108 5.56452H0.384155L2.35732 1.05863C3.10994 1.36623 3.90182 1.52002 4.73297 1.52002H10.1813Z" fill="#6A6E77"/>
<path d="M14.0687 16.2648C13.1197 16.2648 12.3737 15.9081 11.8305 15.1947C11.3135 14.4748 11.055 13.5717 11.055 12.4853C11.055 11.4186 11.2906 10.3649 11.7618 9.32433C12.233 8.28376 12.8743 7.41988 13.6858 6.73271C14.5039 6.03245 15.3809 5.68232 16.3167 5.68232C17.246 5.68232 17.9823 6.04554 18.5255 6.77198C19.0621 7.47224 19.3305 8.36883 19.3305 9.46177C19.3566 10.2144 19.2258 11.003 18.9378 11.8276C18.6498 12.6457 18.2637 13.3852 17.7794 14.0462C17.3017 14.7006 16.729 15.2406 16.0615 15.6659C15.4005 16.0848 14.7362 16.2844 14.0687 16.2648ZM13.4404 15.823C14.1276 15.823 14.8508 15.3649 15.6099 14.4487C16.3691 13.5324 16.9679 12.482 17.4064 11.2975C17.858 10.1129 18.0837 9.05928 18.0837 8.1365C18.0837 7.50823 17.9758 7.0174 17.7598 6.66399C17.5504 6.30405 17.2493 6.12407 16.8566 6.12407C16.176 6.12407 15.4594 6.58873 14.7068 7.51805C13.9869 8.4081 13.3913 9.47158 12.9201 10.7085C12.4751 11.9258 12.2526 12.9729 12.2526 13.8498C12.2526 14.465 12.354 14.9493 12.5569 15.3027C12.7598 15.6496 13.0543 15.823 13.4404 15.823Z" fill="#6A6E77"/>
<path d="M23.8069 16.2648C22.858 16.2648 22.1119 15.9081 21.5687 15.1947C21.0517 14.4748 20.7932 13.5717 20.7932 12.4853C20.7932 11.4186 21.0288 10.3649 21.5 9.32433C21.9712 8.28376 22.6125 7.41988 23.424 6.73271C24.2421 6.03245 25.1191 5.68232 26.0549 5.68232C26.9843 5.68232 27.7205 6.04554 28.2637 6.77198C28.8004 7.47224 29.0687 8.36883 29.0687 9.46177C29.0949 10.2144 28.964 11.003 28.676 11.8276C28.388 12.6457 28.0019 13.3852 27.5176 14.0462C27.0399 14.7006 26.4672 15.2406 25.7997 15.6659C25.1387 16.0848 24.4744 16.2844 23.8069 16.2648ZM23.1786 15.823C23.8658 15.823 24.589 15.3649 25.3481 14.4487C26.1073 13.5324 26.7061 12.482 27.1446 11.2975C27.5962 10.1129 27.8219 9.05928 27.8219 8.1365C27.8219 7.50823 27.714 7.0174 27.498 6.66399C27.2886 6.30405 26.9875 6.12407 26.5949 6.12407C25.9142 6.12407 25.1976 6.58873 24.445 7.51805C23.7251 8.4081 23.1295 9.47158 22.6583 10.7085C22.2133 11.9258 21.9908 12.9729 21.9908 13.8498C21.9908 14.465 22.0922 14.9493 22.2951 15.3027C22.498 15.6496 22.7925 15.823 23.1786 15.823Z" fill="#6A6E77"/>
<path d="M31.0713 16.3433C30.6197 16.3433 30.3121 16.1633 30.1485 15.8034C29.9849 15.4434 29.998 14.9068 30.1878 14.1934L33.5844 3.43429C33.8723 2.74057 33.9509 2.24646 33.82 1.95196C33.6891 1.65746 33.3095 1.54947 32.6812 1.62801L32.7598 1.40222L36.0778 0.675781L31.8566 13.948C31.5294 14.9559 31.5916 15.4598 32.0431 15.4598C32.5798 15.4598 33.3226 14.681 34.2715 13.1234L34.4286 13.2019C33.8265 14.2491 33.231 15.0344 32.642 15.558C32.053 16.0815 31.5294 16.3433 31.0713 16.3433Z" fill="#6A6E77"/>
<path d="M42.7041 5.64305C43.424 5.64305 43.9868 5.91792 44.3926 6.46766C44.7984 7.01085 45.0012 7.73402 45.0012 8.63716C45.0012 9.74972 44.6937 10.8983 44.0785 12.0828C43.496 13.2412 42.691 14.2327 41.6636 15.0573C40.6819 15.8623 39.6838 16.2648 38.6694 16.2648C38.015 16.2648 37.4194 16.0881 36.8828 15.7347C36.3527 15.3747 35.9404 14.933 35.6459 14.4094L39.0523 3.25758C39.2683 2.68821 39.3141 2.26282 39.1897 1.98141C39.0719 1.69345 38.7643 1.58219 38.267 1.64764L38.3259 1.40222L41.4181 0.675781L38.7087 9.4225C39.2519 8.33611 39.8736 7.43952 40.5739 6.73271C41.2807 6.00627 41.9908 5.64305 42.7041 5.64305ZM37.4424 14.2327C37.4424 15.3845 37.8154 15.9604 38.5615 15.9604C39.3075 15.9604 40.0602 15.5121 40.8193 14.6156C41.5916 13.7059 42.2067 12.6588 42.6649 11.4742C43.1361 10.2635 43.3717 9.21962 43.3717 8.34266C43.3717 7.05339 42.9299 6.40876 42.0464 6.40876C41.4247 6.40876 40.7408 6.8996 39.9947 7.88127C39.2552 8.83022 38.6433 9.92642 38.159 11.1699C37.6812 12.3872 37.4424 13.4081 37.4424 14.2327Z" fill="#6A6E77"/>
<path d="M49.2519 16.2648C48.3029 16.2648 47.5569 15.9081 47.0137 15.1947C46.4967 14.4748 46.2382 13.5717 46.2382 12.4853C46.2382 11.4186 46.4738 10.3649 46.945 9.32433C47.4162 8.28376 48.0575 7.41988 48.869 6.73271C49.6871 6.03245 50.5641 5.68232 51.4999 5.68232C52.4292 5.68232 53.1655 6.04554 53.7087 6.77198C54.2453 7.47224 54.5137 8.36883 54.5137 9.46177C54.5398 10.2144 54.409 11.003 54.121 11.8276C53.833 12.6457 53.4469 13.3852 52.9626 14.0462C52.4849 14.7006 51.9122 15.2406 51.2447 15.6659C50.5837 16.0848 49.9194 16.2844 49.2519 16.2648ZM48.6236 15.823C49.3108 15.823 50.034 15.3649 50.7931 14.4487C51.5523 13.5324 52.1511 12.482 52.5896 11.2975C53.0412 10.1129 53.2669 9.05928 53.2669 8.1365C53.2669 7.50823 53.159 7.0174 52.943 6.66399C52.7336 6.30405 52.4325 6.12407 52.0398 6.12407C51.3592 6.12407 50.6426 6.58873 49.89 7.51805C49.1701 8.4081 48.5745 9.47158 48.1033 10.7085C47.6583 11.9258 47.4358 12.9729 47.4358 13.8498C47.4358 14.465 47.5372 14.9493 47.7401 15.3027C47.943 15.6496 48.2375 15.823 48.6236 15.823Z" fill="#6A6E77"/>
<path d="M65.2532 6.81124C65.2663 7.19083 65.1714 7.51478 64.9685 7.7831C64.7656 8.04488 64.5104 8.17577 64.2028 8.17577C63.9934 8.17577 63.833 8.1136 63.7218 7.98925C63.6105 7.86491 63.5451 7.73075 63.5254 7.58677C63.5058 7.43624 63.46 7.29881 63.388 7.17446C63.3226 7.05012 63.2244 6.98795 63.0935 6.98795C62.5699 6.98795 61.7126 8.11687 60.5215 10.3747L60.8847 13.0645C60.9764 13.8433 61.0811 14.3669 61.1989 14.6352C61.3167 14.9035 61.513 15.0377 61.7879 15.0377C62.0758 15.0377 62.3671 14.8217 62.6616 14.3898C62.9561 13.9578 63.1949 13.3361 63.3782 12.5246L63.5647 12.5442C63.3945 13.5259 63.0379 14.4029 62.4947 15.1751C61.9777 15.9146 61.4541 16.2844 60.924 16.2844C60.4921 16.2844 60.1681 16.1306 59.9521 15.823C59.7427 15.5154 59.5922 15.0246 59.5006 14.3505L59.1374 11.6607C58.3389 13.3361 57.6779 14.5272 57.1544 15.234C56.6374 15.9343 56.1138 16.2844 55.5837 16.2844C55.2107 16.2844 54.9096 16.1633 54.6806 15.9212C54.4515 15.679 54.337 15.3714 54.337 14.9984C54.337 14.6515 54.4384 14.3636 54.6413 14.1345C54.8376 13.9055 55.0765 13.7909 55.3579 13.7909C55.587 13.7909 55.7669 13.8466 55.8978 13.9578C56.0353 14.0691 56.1203 14.1902 56.1531 14.3211C56.1858 14.4519 56.2414 14.573 56.32 14.6843C56.3985 14.7955 56.5065 14.8512 56.6439 14.8512C57.0824 14.8512 57.8939 13.647 59.0785 11.2386L58.676 8.30339C58.604 7.72093 58.5124 7.31517 58.4011 7.08611C58.2964 6.85051 58.1393 6.73271 57.9299 6.73271C57.2689 6.73271 56.6864 7.50823 56.1825 9.05928L56.0058 9.00038C56.176 8.45064 56.3723 7.96635 56.5948 7.5475C56.8173 7.12865 57.0268 6.8047 57.2231 6.57564C57.426 6.34659 57.6354 6.16334 57.8514 6.02591C58.0739 5.88193 58.2604 5.7903 58.4109 5.75104C58.5614 5.70523 58.7021 5.68232 58.833 5.68232C59.2388 5.68232 59.5398 5.81975 59.7362 6.09462C59.9391 6.36295 60.0798 6.84397 60.1583 7.53768L60.4823 10.0311C61.2414 8.47355 61.8959 7.36098 62.4456 6.69344C62.9953 6.01936 63.5287 5.68232 64.0457 5.68232C64.4057 5.68232 64.6936 5.78376 64.9096 5.98664C65.1321 6.18952 65.2466 6.46439 65.2532 6.81124Z" fill="#6A6E77"/>
<path d="M10.1813 1.52002C11.2087 1.52002 12.0792 1.36623 12.7925 1.05863L12.5864 5.56452H12.3311C12.318 4.90352 12.2755 4.37997 12.2035 3.99384C12.1381 3.60771 12.0072 3.23468 11.8108 2.87473C11.4182 2.14829 10.5379 1.78507 9.17014 1.78507H8.267L5.31216 14.1051C5.2009 14.5763 5.20745 14.9559 5.33179 15.2438C5.46268 15.5318 5.70483 15.6954 6.05823 15.7347L5.99933 15.9997H1.9352L1.9941 15.7543C2.3475 15.7216 2.66164 15.5711 2.93651 15.3027C3.21792 15.0279 3.4208 14.6286 3.54515 14.1051L6.49999 1.78507H5.61648C4.27486 1.78507 3.22119 2.14829 2.45549 2.87473C2.089 3.24122 1.77813 3.6208 1.5229 4.01347C1.27421 4.3996 1.00261 4.91661 0.708108 5.56452H0.384155L2.35732 1.05863C3.10994 1.36623 3.90182 1.52002 4.73297 1.52002H10.1813Z" stroke="#53596D" stroke-width="0.198868" mask="url(#path-1-outside-1_254_4771)"/>
<path d="M14.0687 16.2648C13.1197 16.2648 12.3737 15.9081 11.8305 15.1947C11.3135 14.4748 11.055 13.5717 11.055 12.4853C11.055 11.4186 11.2906 10.3649 11.7618 9.32433C12.233 8.28376 12.8743 7.41988 13.6858 6.73271C14.5039 6.03245 15.3809 5.68232 16.3167 5.68232C17.246 5.68232 17.9823 6.04554 18.5255 6.77198C19.0621 7.47224 19.3305 8.36883 19.3305 9.46177C19.3566 10.2144 19.2258 11.003 18.9378 11.8276C18.6498 12.6457 18.2637 13.3852 17.7794 14.0462C17.3017 14.7006 16.729 15.2406 16.0615 15.6659C15.4005 16.0848 14.7362 16.2844 14.0687 16.2648ZM13.4404 15.823C14.1276 15.823 14.8508 15.3649 15.6099 14.4487C16.3691 13.5324 16.9679 12.482 17.4064 11.2975C17.858 10.1129 18.0837 9.05928 18.0837 8.1365C18.0837 7.50823 17.9758 7.0174 17.7598 6.66399C17.5504 6.30405 17.2493 6.12407 16.8566 6.12407C16.176 6.12407 15.4594 6.58873 14.7068 7.51805C13.9869 8.4081 13.3913 9.47158 12.9201 10.7085C12.4751 11.9258 12.2526 12.9729 12.2526 13.8498C12.2526 14.465 12.354 14.9493 12.5569 15.3027C12.7598 15.6496 13.0543 15.823 13.4404 15.823Z" stroke="#53596D" stroke-width="0.198868" mask="url(#path-1-outside-1_254_4771)"/>
<path d="M23.8069 16.2648C22.858 16.2648 22.1119 15.9081 21.5687 15.1947C21.0517 14.4748 20.7932 13.5717 20.7932 12.4853C20.7932 11.4186 21.0288 10.3649 21.5 9.32433C21.9712 8.28376 22.6125 7.41988 23.424 6.73271C24.2421 6.03245 25.1191 5.68232 26.0549 5.68232C26.9843 5.68232 27.7205 6.04554 28.2637 6.77198C28.8004 7.47224 29.0687 8.36883 29.0687 9.46177C29.0949 10.2144 28.964 11.003 28.676 11.8276C28.388 12.6457 28.0019 13.3852 27.5176 14.0462C27.0399 14.7006 26.4672 15.2406 25.7997 15.6659C25.1387 16.0848 24.4744 16.2844 23.8069 16.2648ZM23.1786 15.823C23.8658 15.823 24.589 15.3649 25.3481 14.4487C26.1073 13.5324 26.7061 12.482 27.1446 11.2975C27.5962 10.1129 27.8219 9.05928 27.8219 8.1365C27.8219 7.50823 27.714 7.0174 27.498 6.66399C27.2886 6.30405 26.9875 6.12407 26.5949 6.12407C25.9142 6.12407 25.1976 6.58873 24.445 7.51805C23.7251 8.4081 23.1295 9.47158 22.6583 10.7085C22.2133 11.9258 21.9908 12.9729 21.9908 13.8498C21.9908 14.465 22.0922 14.9493 22.2951 15.3027C22.498 15.6496 22.7925 15.823 23.1786 15.823Z" stroke="#53596D" stroke-width="0.198868" mask="url(#path-1-outside-1_254_4771)"/>
<path d="M31.0713 16.3433C30.6197 16.3433 30.3121 16.1633 30.1485 15.8034C29.9849 15.4434 29.998 14.9068 30.1878 14.1934L33.5844 3.43429C33.8723 2.74057 33.9509 2.24646 33.82 1.95196C33.6891 1.65746 33.3095 1.54947 32.6812 1.62801L32.7598 1.40222L36.0778 0.675781L31.8566 13.948C31.5294 14.9559 31.5916 15.4598 32.0431 15.4598C32.5798 15.4598 33.3226 14.681 34.2715 13.1234L34.4286 13.2019C33.8265 14.2491 33.231 15.0344 32.642 15.558C32.053 16.0815 31.5294 16.3433 31.0713 16.3433Z" stroke="#53596D" stroke-width="0.198868" mask="url(#path-1-outside-1_254_4771)"/>
<path d="M42.7041 5.64305C43.424 5.64305 43.9868 5.91792 44.3926 6.46766C44.7984 7.01085 45.0012 7.73402 45.0012 8.63716C45.0012 9.74972 44.6937 10.8983 44.0785 12.0828C43.496 13.2412 42.691 14.2327 41.6636 15.0573C40.6819 15.8623 39.6838 16.2648 38.6694 16.2648C38.015 16.2648 37.4194 16.0881 36.8828 15.7347C36.3527 15.3747 35.9404 14.933 35.6459 14.4094L39.0523 3.25758C39.2683 2.68821 39.3141 2.26282 39.1897 1.98141C39.0719 1.69345 38.7643 1.58219 38.267 1.64764L38.3259 1.40222L41.4181 0.675781L38.7087 9.4225C39.2519 8.33611 39.8736 7.43952 40.5739 6.73271C41.2807 6.00627 41.9908 5.64305 42.7041 5.64305ZM37.4424 14.2327C37.4424 15.3845 37.8154 15.9604 38.5615 15.9604C39.3075 15.9604 40.0602 15.5121 40.8193 14.6156C41.5916 13.7059 42.2067 12.6588 42.6649 11.4742C43.1361 10.2635 43.3717 9.21962 43.3717 8.34266C43.3717 7.05339 42.9299 6.40876 42.0464 6.40876C41.4247 6.40876 40.7408 6.8996 39.9947 7.88127C39.2552 8.83022 38.6433 9.92642 38.159 11.1699C37.6812 12.3872 37.4424 13.4081 37.4424 14.2327Z" stroke="#53596D" stroke-width="0.198868" mask="url(#path-1-outside-1_254_4771)"/>
<path d="M49.2519 16.2648C48.3029 16.2648 47.5569 15.9081 47.0137 15.1947C46.4967 14.4748 46.2382 13.5717 46.2382 12.4853C46.2382 11.4186 46.4738 10.3649 46.945 9.32433C47.4162 8.28376 48.0575 7.41988 48.869 6.73271C49.6871 6.03245 50.5641 5.68232 51.4999 5.68232C52.4292 5.68232 53.1655 6.04554 53.7087 6.77198C54.2453 7.47224 54.5137 8.36883 54.5137 9.46177C54.5398 10.2144 54.409 11.003 54.121 11.8276C53.833 12.6457 53.4469 13.3852 52.9626 14.0462C52.4849 14.7006 51.9122 15.2406 51.2447 15.6659C50.5837 16.0848 49.9194 16.2844 49.2519 16.2648ZM48.6236 15.823C49.3108 15.823 50.034 15.3649 50.7931 14.4487C51.5523 13.5324 52.1511 12.482 52.5896 11.2975C53.0412 10.1129 53.2669 9.05928 53.2669 8.1365C53.2669 7.50823 53.159 7.0174 52.943 6.66399C52.7336 6.30405 52.4325 6.12407 52.0398 6.12407C51.3592 6.12407 50.6426 6.58873 49.89 7.51805C49.1701 8.4081 48.5745 9.47158 48.1033 10.7085C47.6583 11.9258 47.4358 12.9729 47.4358 13.8498C47.4358 14.465 47.5372 14.9493 47.7401 15.3027C47.943 15.6496 48.2375 15.823 48.6236 15.823Z" stroke="#53596D" stroke-width="0.198868" mask="url(#path-1-outside-1_254_4771)"/>
<path d="M65.2532 6.81124C65.2663 7.19083 65.1714 7.51478 64.9685 7.7831C64.7656 8.04488 64.5104 8.17577 64.2028 8.17577C63.9934 8.17577 63.833 8.1136 63.7218 7.98925C63.6105 7.86491 63.5451 7.73075 63.5254 7.58677C63.5058 7.43624 63.46 7.29881 63.388 7.17446C63.3226 7.05012 63.2244 6.98795 63.0935 6.98795C62.5699 6.98795 61.7126 8.11687 60.5215 10.3747L60.8847 13.0645C60.9764 13.8433 61.0811 14.3669 61.1989 14.6352C61.3167 14.9035 61.513 15.0377 61.7879 15.0377C62.0758 15.0377 62.3671 14.8217 62.6616 14.3898C62.9561 13.9578 63.1949 13.3361 63.3782 12.5246L63.5647 12.5442C63.3945 13.5259 63.0379 14.4029 62.4947 15.1751C61.9777 15.9146 61.4541 16.2844 60.924 16.2844C60.4921 16.2844 60.1681 16.1306 59.9521 15.823C59.7427 15.5154 59.5922 15.0246 59.5006 14.3505L59.1374 11.6607C58.3389 13.3361 57.6779 14.5272 57.1544 15.234C56.6374 15.9343 56.1138 16.2844 55.5837 16.2844C55.2107 16.2844 54.9096 16.1633 54.6806 15.9212C54.4515 15.679 54.337 15.3714 54.337 14.9984C54.337 14.6515 54.4384 14.3636 54.6413 14.1345C54.8376 13.9055 55.0765 13.7909 55.3579 13.7909C55.587 13.7909 55.7669 13.8466 55.8978 13.9578C56.0353 14.0691 56.1203 14.1902 56.1531 14.3211C56.1858 14.4519 56.2414 14.573 56.32 14.6843C56.3985 14.7955 56.5065 14.8512 56.6439 14.8512C57.0824 14.8512 57.8939 13.647 59.0785 11.2386L58.676 8.30339C58.604 7.72093 58.5124 7.31517 58.4011 7.08611C58.2964 6.85051 58.1393 6.73271 57.9299 6.73271C57.2689 6.73271 56.6864 7.50823 56.1825 9.05928L56.0058 9.00038C56.176 8.45064 56.3723 7.96635 56.5948 7.5475C56.8173 7.12865 57.0268 6.8047 57.2231 6.57564C57.426 6.34659 57.6354 6.16334 57.8514 6.02591C58.0739 5.88193 58.2604 5.7903 58.4109 5.75104C58.5614 5.70523 58.7021 5.68232 58.833 5.68232C59.2388 5.68232 59.5398 5.81975 59.7362 6.09462C59.9391 6.36295 60.0798 6.84397 60.1583 7.53768L60.4823 10.0311C61.2414 8.47355 61.8959 7.36098 62.4456 6.69344C62.9953 6.01936 63.5287 5.68232 64.0457 5.68232C64.4057 5.68232 64.6936 5.78376 64.9096 5.98664C65.1321 6.18952 65.2466 6.46439 65.2532 6.81124Z" stroke="#53596D" stroke-width="0.198868" mask="url(#path-1-outside-1_254_4771)"/>
</svg>
