<svg width="33" height="25" viewBox="0 0 33 25" fill="none" xmlns="http://www.w3.org/2000/svg">
<path d="M27.8604 0.994263H2.05287C1.50842 0.994263 0.986261 1.19948 0.601273 1.56477C0.216284 1.93006 0 2.42551 0 2.9421V22.9771C0 23.4937 0.216284 23.9891 0.601273 24.3544C0.986261 24.7197 1.50842 24.9249 2.05287 24.9249H27.8604C28.4049 24.9249 28.927 24.7197 29.312 24.3544C29.697 23.9891 29.9133 23.4937 29.9133 22.9771V2.9421C29.9133 2.42551 29.697 1.93006 29.312 1.56477C28.927 1.19948 28.4049 0.994263 27.8604 0.994263ZM28.1537 22.9771C28.1537 23.0509 28.1228 23.1216 28.0678 23.1738C28.0128 23.226 27.9382 23.2553 27.8604 23.2553H2.05287C1.97509 23.2553 1.9005 23.226 1.8455 23.1738C1.7905 23.1216 1.75961 23.0509 1.75961 22.9771V2.9421C1.75961 2.8683 1.7905 2.79753 1.8455 2.74534C1.9005 2.69316 1.97509 2.66384 2.05287 2.66384H27.8604C27.9382 2.66384 28.0128 2.69316 28.0678 2.74534C28.1228 2.79753 28.1537 2.8683 28.1537 2.9421V22.9771ZM7.62496 6.83779C7.62496 7.11297 7.53896 7.38196 7.37783 7.61076C7.21671 7.83956 6.9877 8.01789 6.71976 8.1232C6.45182 8.2285 6.15699 8.25606 5.87255 8.20237C5.58811 8.14869 5.32683 8.01618 5.12176 7.8216C4.91669 7.62702 4.77703 7.37911 4.72046 7.10922C4.66388 6.83933 4.69292 6.55959 4.8039 6.30536C4.91488 6.05113 5.10283 5.83383 5.34396 5.68095C5.5851 5.52807 5.8686 5.44647 6.15862 5.44647C6.54752 5.44647 6.92048 5.59306 7.19548 5.85398C7.47047 6.1149 7.62496 6.46879 7.62496 6.83779ZM13.4903 6.83779C13.4903 7.11297 13.4043 7.38196 13.2432 7.61076C13.0821 7.83956 12.8531 8.01789 12.5851 8.1232C12.3172 8.2285 12.0223 8.25606 11.7379 8.20237C11.4535 8.14869 11.1922 8.01618 10.9871 7.8216C10.782 7.62702 10.6424 7.37911 10.5858 7.10922C10.5292 6.83933 10.5583 6.55959 10.6693 6.30536C10.7802 6.05113 10.9682 5.83383 11.2093 5.68095C11.4505 5.52807 11.734 5.44647 12.024 5.44647C12.4129 5.44647 12.7858 5.59306 13.0608 5.85398C13.3358 6.1149 13.4903 6.46879 13.4903 6.83779Z" fill="#505050"/>
</svg>
