<svg width="33" height="35" viewBox="0 0 33 35" fill="none" xmlns="http://www.w3.org/2000/svg">
<path d="M23.8147 32.9716H15.5579C17.0265 31.6848 18.4022 30.2912 19.6742 28.8017C23.7634 23.9938 25.9248 18.9394 25.9248 14.1716C25.9248 10.6568 24.5592 7.28596 22.1282 4.80063C19.6973 2.31531 16.4003 0.919067 12.9624 0.919067C9.52458 0.919067 6.22753 2.31531 3.79661 4.80063C1.36568 7.28596 0 10.6568 0 14.1716C0 18.9348 2.16141 23.9938 6.2506 28.8017C7.52268 30.2912 8.89837 31.6848 10.3669 32.9716H2.11016C1.87031 32.9716 1.64029 33.069 1.47069 33.2424C1.30109 33.4158 1.20581 33.651 1.20581 33.8962C1.20581 34.1414 1.30109 34.3766 1.47069 34.55C1.64029 34.7234 1.87031 34.8208 2.11016 34.8208H23.8147C24.0545 34.8208 24.2846 34.7234 24.4542 34.55C24.6238 34.3766 24.719 34.1414 24.719 33.8962C24.719 33.651 24.6238 33.4158 24.4542 33.2424C24.2846 33.069 24.0545 32.9716 23.8147 32.9716ZM1.80871 14.1716C1.80871 11.1472 2.98383 8.24674 5.07556 6.1082C7.16728 3.96967 10.0043 2.76825 12.9624 2.76825C15.9206 2.76825 18.7576 3.96967 20.8493 6.1082C22.941 8.24674 24.1161 11.1472 24.1161 14.1716C24.1161 23.3589 15.2233 30.9575 12.9624 32.742C10.7015 30.9575 1.80871 23.3589 1.80871 14.1716ZM18.69 14.1716C18.69 13.0134 18.3541 11.8813 17.7247 10.9183C17.0954 9.9553 16.2009 9.20476 15.1543 8.76155C14.1077 8.31834 12.9561 8.20238 11.845 8.42832C10.734 8.65427 9.71343 9.21198 8.91241 10.0309C8.1114 10.8499 7.5659 11.8933 7.3449 13.0292C7.1239 14.1651 7.23732 15.3425 7.67083 16.4125C8.10434 17.4825 8.83845 18.397 9.78035 19.0404C10.7222 19.6839 11.8296 20.0273 12.9624 20.0273C14.4815 20.0273 15.9383 19.4104 17.0124 18.3122C18.0866 17.214 18.69 15.7246 18.69 14.1716ZM9.04355 14.1716C9.04355 13.3791 9.27339 12.6045 9.704 11.9456C10.1346 11.2868 10.7467 10.7732 11.4627 10.47C12.1788 10.1667 12.9668 10.0874 13.727 10.242C14.4871 10.3966 15.1854 10.7782 15.7335 11.3385C16.2816 11.8988 16.6548 12.6127 16.806 13.3899C16.9572 14.1671 16.8796 14.9727 16.583 15.7048C16.2864 16.4369 15.7841 17.0627 15.1396 17.5029C14.4952 17.9431 13.7375 18.1781 12.9624 18.1781C11.9231 18.1781 10.9263 17.756 10.1914 17.0046C9.45643 16.2533 9.04355 15.2342 9.04355 14.1716Z" fill="#505050"/>
</svg>
