<svg width="33" height="28" viewBox="0 0 33 28" fill="none" xmlns="http://www.w3.org/2000/svg">
<path d="M25.6511 18.7366V9.18245C25.652 8.87074 25.5741 8.56424 25.4254 8.29342C25.2767 8.0226 25.0622 7.79691 24.8034 7.63879L16.7733 2.82599C16.5241 2.67685 16.2415 2.59834 15.9538 2.59834C15.6661 2.59834 15.3834 2.67685 15.1342 2.82599L7.10568 7.63879C6.84654 7.79671 6.63177 8.02231 6.48277 8.29314C6.33376 8.56397 6.25571 8.87058 6.25637 9.18245V18.7366C6.25555 19.0483 6.33336 19.3548 6.48209 19.6257C6.63082 19.8965 6.84526 20.1222 7.10411 20.2803L15.1342 25.0931C15.3835 25.2419 15.6661 25.3202 15.9538 25.3202C16.2414 25.3202 16.524 25.2419 16.7733 25.0931L24.8018 20.2803C25.061 20.1224 25.2757 19.8968 25.4247 19.6259C25.5737 19.3551 25.6518 19.0485 25.6511 18.7366ZM15.9538 4.58392L22.928 8.76529L15.9538 12.9434L8.97946 8.76529L15.9538 4.58392ZM8.13329 10.507L15.0153 14.6299V22.7735L8.13329 18.6473V10.507ZM16.8922 22.7735V14.6299L23.7742 10.507V18.6473L16.8922 22.7735ZM31.9075 0.973921V7.46673C31.9075 7.72503 31.8086 7.97275 31.6326 8.15539C31.4566 8.33804 31.2179 8.44065 30.9691 8.44065C30.7202 8.44065 30.4815 8.33804 30.3055 8.15539C30.1295 7.97275 30.0306 7.72503 30.0306 7.46673V1.94784H24.7127C24.4638 1.94784 24.2251 1.84523 24.0491 1.66259C23.8731 1.47994 23.7742 1.23222 23.7742 0.973921C23.7742 0.715621 23.8731 0.4679 24.0491 0.285255C24.2251 0.102609 24.4638 0 24.7127 0H30.9691C31.2179 0 31.4566 0.102609 31.6326 0.285255C31.8086 0.4679 31.9075 0.715621 31.9075 0.973921ZM8.13329 26.9451C8.13329 27.2034 8.03441 27.4512 7.85842 27.6338C7.68242 27.8165 7.44372 27.9191 7.19483 27.9191H0.938456C0.689562 27.9191 0.450862 27.8165 0.274867 27.6338C0.0988727 27.4512 0 27.2034 0 26.9451V20.4523C0 20.194 0.0988727 19.9463 0.274867 19.7637C0.450862 19.581 0.689562 19.4784 0.938456 19.4784C1.18735 19.4784 1.42605 19.581 1.60204 19.7637C1.77804 19.9463 1.87691 20.194 1.87691 20.4523V25.9712H7.19483C7.44372 25.9712 7.68242 26.0738 7.85842 26.2565C8.03441 26.4391 8.13329 26.6868 8.13329 26.9451ZM31.9075 20.4523V26.9451C31.9075 27.2034 31.8086 27.4512 31.6326 27.6338C31.4566 27.8165 31.2179 27.9191 30.9691 27.9191H24.7127C24.4638 27.9191 24.2251 27.8165 24.0491 27.6338C23.8731 27.4512 23.7742 27.2034 23.7742 26.9451C23.7742 26.6868 23.8731 26.4391 24.0491 26.2565C24.2251 26.0738 24.4638 25.9712 24.7127 25.9712H30.0306V20.4523C30.0306 20.194 30.1295 19.9463 30.3055 19.7637C30.4815 19.581 30.7202 19.4784 30.9691 19.4784C31.2179 19.4784 31.4566 19.581 31.6326 19.7637C31.8086 19.9463 31.9075 20.194 31.9075 20.4523ZM0 7.46673V0.973921C0 0.715621 0.0988727 0.4679 0.274867 0.285255C0.450862 0.102609 0.689562 0 0.938456 0H7.19483C7.44372 0 7.68242 0.102609 7.85842 0.285255C8.03441 0.4679 8.13329 0.715621 8.13329 0.973921C8.13329 1.23222 8.03441 1.47994 7.85842 1.66259C7.68242 1.84523 7.44372 1.94784 7.19483 1.94784H1.87691V7.46673C1.87691 7.72503 1.77804 7.97275 1.60204 8.15539C1.42605 8.33804 1.18735 8.44065 0.938456 8.44065C0.689562 8.44065 0.450862 8.33804 0.274867 8.15539C0.0988727 7.97275 0 7.72503 0 7.46673Z" fill="#505050"/>
</svg>
