<svg width="33" height="28" viewBox="0 0 33 28" fill="none" xmlns="http://www.w3.org/2000/svg">
<path d="M29.877 0.731567H20.5948C19.6698 0.732226 18.7598 0.957266 17.9487 1.38595C17.1376 1.81463 16.4516 2.43316 15.9538 3.18453C15.4559 2.43316 14.7699 1.81463 13.9588 1.38595C13.1477 0.957266 12.2377 0.732226 11.3127 0.731567H2.03048C1.49196 0.731567 0.975502 0.937728 0.594713 1.3047C0.213925 1.67166 0 2.16938 0 2.68835V20.5789C0 21.0979 0.213925 21.5956 0.594713 21.9626C0.975502 22.3295 1.49196 22.5357 2.03048 22.5357H11.3127C12.3128 22.5357 13.2719 22.9186 13.9791 23.6001C14.6863 24.2816 15.0835 25.2059 15.0835 26.1697C15.0835 26.3921 15.1752 26.6054 15.3384 26.7627C15.5016 26.92 15.723 27.0083 15.9538 27.0083C16.1845 27.0083 16.4059 26.92 16.5691 26.7627C16.7323 26.6054 16.824 26.3921 16.824 26.1697C16.824 25.2059 17.2212 24.2816 17.9284 23.6001C18.6356 22.9186 19.5947 22.5357 20.5948 22.5357H29.877C30.4155 22.5357 30.932 22.3295 31.3128 21.9626C31.6936 21.5956 31.9075 21.0979 31.9075 20.5789V2.68835C31.9075 2.16938 31.6936 1.67166 31.3128 1.3047C30.932 0.937728 30.4155 0.731567 29.877 0.731567ZM11.3127 20.8585H2.03048C1.95355 20.8585 1.87977 20.829 1.82537 20.7766C1.77097 20.7242 1.74041 20.6531 1.74041 20.5789V2.68835C1.74041 2.61421 1.77097 2.54311 1.82537 2.49068C1.87977 2.43826 1.95355 2.40881 2.03048 2.40881H11.3127C12.3128 2.40881 13.2719 2.79168 13.9791 3.47319C14.6863 4.1547 15.0835 5.07903 15.0835 6.04283V22.2995C14.0635 21.3729 12.7144 20.8573 11.3127 20.8585ZM30.1671 20.5789C30.1671 20.6531 30.1365 20.7242 30.0821 20.7766C30.0277 20.829 29.954 20.8585 29.877 20.8585H20.5948C19.1929 20.8579 17.8438 21.3739 16.824 22.3009V6.04283C16.824 5.07903 17.2212 4.1547 17.9284 3.47319C18.6356 2.79168 19.5947 2.40881 20.5948 2.40881H29.877C29.954 2.40881 30.0277 2.43826 30.0821 2.49068C30.1365 2.54311 30.1671 2.61421 30.1671 2.68835V20.5789ZM27.2664 7.16099C27.2664 7.38341 27.1747 7.59671 27.0115 7.75398C26.8483 7.91126 26.627 7.99961 26.3962 7.99961H20.5948C20.3641 7.99961 20.1427 7.91126 19.9795 7.75398C19.8163 7.59671 19.7246 7.38341 19.7246 7.16099C19.7246 6.93857 19.8163 6.72527 19.9795 6.568C20.1427 6.41073 20.3641 6.32237 20.5948 6.32237H26.3962C26.627 6.32237 26.8483 6.41073 27.0115 6.568C27.1747 6.72527 27.2664 6.93857 27.2664 7.16099ZM27.2664 11.6336C27.2664 11.856 27.1747 12.0694 27.0115 12.2266C26.8483 12.3839 26.627 12.4723 26.3962 12.4723H20.5948C20.3641 12.4723 20.1427 12.3839 19.9795 12.2266C19.8163 12.0694 19.7246 11.856 19.7246 11.6336C19.7246 11.4112 19.8163 11.1979 19.9795 11.0406C20.1427 10.8834 20.3641 10.795 20.5948 10.795H26.3962C26.627 10.795 26.8483 10.8834 27.0115 11.0406C27.1747 11.1979 27.2664 11.4112 27.2664 11.6336ZM27.2664 16.1063C27.2664 16.3287 27.1747 16.542 27.0115 16.6993C26.8483 16.8565 26.627 16.9449 26.3962 16.9449H20.5948C20.3641 16.9449 20.1427 16.8565 19.9795 16.6993C19.8163 16.542 19.7246 16.3287 19.7246 16.1063C19.7246 15.8839 19.8163 15.6706 19.9795 15.5133C20.1427 15.356 20.3641 15.2677 20.5948 15.2677H26.3962C26.627 15.2677 26.8483 15.356 27.0115 15.5133C27.1747 15.6706 27.2664 15.8839 27.2664 16.1063Z" fill="#505050"/>
</svg>
