<svg width="22" height="28" viewBox="0 0 22 28" fill="none" xmlns="http://www.w3.org/2000/svg">
<path d="M20.5651 21.9395C20.8469 22.2212 21.0052 22.6034 21.0052 23.002C21.0052 23.4005 20.8469 23.7827 20.5651 24.0645C20.2833 24.3462 19.9011 24.5046 19.5026 24.5046C19.1041 24.5046 18.7219 24.3462 18.4401 24.0645L10.5039 16.1257L2.5651 24.062C2.28331 24.3438 1.90112 24.5021 1.5026 24.5021C1.10409 24.5021 0.721895 24.3438 0.440102 24.062C0.15831 23.7802 5.93833e-09 23.398 0 22.9995C-5.93833e-09 22.6009 0.15831 22.2188 0.440102 21.937L8.37885 14.0007L0.442602 6.06196C0.160809 5.78016 0.00250005 5.39797 0.00250006 4.99946C0.00250006 4.60094 0.160809 4.21875 0.442602 3.93696C0.724394 3.65516 1.10659 3.49686 1.5051 3.49686C1.90362 3.49686 2.28581 3.65516 2.5676 3.93696L10.5039 11.8757L18.4426 3.93571C18.7244 3.65391 19.1066 3.49561 19.5051 3.49561C19.9036 3.49561 20.2858 3.65391 20.5676 3.93571C20.8494 4.2175 21.0077 4.59969 21.0077 4.99821C21.0077 5.39672 20.8494 5.77892 20.5676 6.06071L12.6289 14.0007L20.5651 21.9395Z" fill="#2A2E3A"/>
</svg>
