<svg width="300" height="32" viewBox="0 0 300 32" fill="none" xmlns="http://www.w3.org/2000/svg">
<path d="M45.5062 16L41.0245 13.4125V18.5875L45.5062 16ZM0 16.4482H41.4727V15.5518H0V16.4482Z" fill="#171515"/>
<path d="M70.8077 4.17695L71.0977 8.89066H70.7593C70.6143 7.36777 70.2074 6.34445 69.5386 5.82071C68.902 5.30502 67.5927 5.04717 65.6105 5.04717H62.9031L61.2231 12.0815H64.0513C64.9377 12.0815 65.6226 11.9244 66.106 11.6101C66.5976 11.2878 66.944 10.7923 67.1455 10.1235H67.4597L66.3961 14.6317H66.0698C66.2068 13.834 66.1181 13.274 65.8039 12.9517C65.4896 12.6213 64.8692 12.4562 63.9426 12.4562H61.1264L58.9267 21.6056C59.676 21.9521 60.6631 22.1253 61.8879 22.1253C63.5075 22.1253 64.845 21.795 65.9006 21.1342C66.9883 20.4493 67.9956 19.2971 68.9222 17.6775H69.2969L66.7224 22.8747C66.0134 22.6249 64.9901 22.5 63.6525 22.5H55.1074L55.2041 22.1737C55.6875 22.1334 56.0783 21.9682 56.3764 21.6781C56.6746 21.38 56.9042 20.9207 57.0654 20.3003L60.2804 6.90849C60.4335 6.27193 60.4294 5.80459 60.2683 5.50646C60.1152 5.20027 59.7969 5.023 59.3135 4.97466L59.3981 4.67249H67.3389C68.7248 4.67249 69.881 4.50731 70.8077 4.17695ZM79.1836 22.8505C78.6115 22.8505 78.261 22.5927 78.1321 22.077C78.0031 21.5613 78.1079 20.8764 78.4463 20.0223L80.2834 14.8976C80.8152 13.4714 81.0731 12.432 81.057 11.7793C81.0409 11.1186 80.7387 10.7882 80.1505 10.7882C78.6518 10.7882 76.2425 14.6922 72.9228 22.5H71.1461C73.1927 16.1345 74.2402 12.859 74.2886 12.6737C74.3853 12.3998 74.4578 12.158 74.5061 11.9485C74.5625 11.739 74.5948 11.5497 74.6028 11.3805C74.6189 11.2032 74.6028 11.0703 74.5545 10.9816C74.5061 10.8849 74.4255 10.8366 74.3127 10.8366C74.0227 10.8366 73.5875 11.1307 73.0074 11.7189C72.4353 12.299 71.8632 13.0363 71.2911 13.9307L71.0977 13.834C72.7496 11.1428 74.2604 9.79715 75.6302 9.79715C76.6293 9.79715 76.8912 10.6392 76.4158 12.3232C76.1982 13.0081 75.6946 14.4464 74.905 16.6381L74.0952 18.9345L74.1677 18.9587C75.9081 15.0749 77.3505 12.5247 78.4946 11.308C79.0345 10.7278 79.5059 10.333 79.9088 10.1235C80.3197 9.90592 80.775 9.79715 81.2745 9.79715C81.5807 9.79715 81.8587 9.87369 82.1085 10.0268C82.3583 10.1718 82.5678 10.3974 82.737 10.7036C82.9143 11.0018 82.9948 11.4248 82.9787 11.9727C82.9626 12.5206 82.8296 13.1491 82.5799 13.8582L80.5735 19.708C80.227 20.6911 80.078 21.2833 80.1263 21.4847C80.1505 21.6539 80.2593 21.7386 80.4526 21.7386C80.6944 21.7386 81.1053 21.4485 81.6855 20.8683C82.3301 20.1995 82.8861 19.4824 83.3534 18.7169L83.571 18.8378C82.9747 19.8289 82.2414 20.7596 81.3712 21.6298C80.5574 22.4436 79.8282 22.8505 79.1836 22.8505ZM97.2649 10.0268C96.3302 12.4844 95.182 15.8645 93.8203 20.1673C93.5382 21.0939 93.639 21.5573 94.1224 21.5573C94.3803 21.5573 94.7388 21.3196 95.1981 20.8442C95.6574 20.3688 96.165 19.6677 96.721 18.7411L96.9144 18.8378C96.1731 20.127 95.4036 21.1141 94.6059 21.799C93.8162 22.4839 93.1515 22.8263 92.6116 22.8263C92.0395 22.8263 91.7011 22.5483 91.5963 21.9924C91.4916 21.4364 91.6165 20.7797 91.971 20.0223L92.7083 18.0643L92.6116 18.0159C90.9437 21.2229 89.2596 22.8263 87.5595 22.8263C86.7457 22.8263 86.1091 22.5161 85.6498 21.8957C85.1905 21.2752 84.9609 20.4534 84.9609 19.43C84.9609 17.9555 85.3074 16.4689 86.0003 14.9701C86.6852 13.4634 87.6078 12.2265 88.7681 11.2596C89.9365 10.2846 91.125 9.79715 92.3336 9.79715C93.5423 9.79715 94.3843 10.4176 94.8597 11.6585L94.9806 11.0179L96.3221 7.02935C96.6767 6.13495 96.7734 5.51855 96.6122 5.18012C96.4591 4.83365 95.9918 4.70875 95.2102 4.80545L95.3069 4.52746L99.3921 3.63306L97.2649 10.0268ZM93.6027 15.0306C94.0378 13.7816 94.1667 12.6495 93.9895 11.6343C93.8203 10.6593 93.3529 10.1718 92.5874 10.1718C91.8381 10.1718 91.0202 10.6513 90.1339 11.6101C89.2637 12.5529 88.5224 13.7494 87.91 15.1998C87.2976 16.6502 86.9914 18.028 86.9914 19.3334C86.9914 19.978 87.1284 20.5017 87.4024 20.9046C87.6844 21.3075 88.0752 21.5089 88.5747 21.5089C89.2838 21.5089 90.1419 20.9086 91.1492 19.708C92.1725 18.4913 92.9903 16.9322 93.6027 15.0306ZM110.028 10.5465L107.007 19.9014C106.604 21.0859 106.644 21.6781 107.127 21.6781C107.458 21.6781 107.909 21.3961 108.481 20.8321C109.053 20.26 109.633 19.5106 110.222 18.584L110.487 18.6444C108.836 21.4324 107.285 22.8263 105.834 22.8263C105.31 22.8263 104.96 22.6047 104.783 22.1616C104.613 21.7184 104.646 21.0537 104.879 20.1673L107.949 10.5465H105.641L105.737 10.1235H108.07L109.11 6.88431L111.334 6.43712L110.149 10.1235C111.237 10.0993 112.3 9.94218 113.34 9.65211L112.965 10.5465H110.028ZM116.531 22.8263C115.362 22.8263 114.444 22.3872 113.775 21.5089C113.138 20.6226 112.82 19.5106 112.82 18.1731C112.82 16.8597 113.11 15.5624 113.69 14.2812C114.271 13.0001 115.06 11.9364 116.059 11.0904C117.067 10.2282 118.146 9.79715 119.298 9.79715C120.443 9.79715 121.349 10.2443 122.018 11.1387C122.679 12.0009 123.009 13.1048 123.009 14.4504C123.041 15.3771 122.88 16.348 122.526 17.3633C122.171 18.3705 121.696 19.281 121.099 20.0948C120.511 20.9006 119.806 21.5653 118.984 22.0891C118.17 22.6047 117.353 22.8505 116.531 22.8263ZM115.757 22.2824C116.603 22.2824 117.494 21.7184 118.428 20.5903C119.363 19.4623 120.1 18.169 120.64 16.7106C121.196 15.2522 121.474 13.9549 121.474 12.8188C121.474 12.0452 121.341 11.4409 121.075 11.0058C120.817 10.5626 120.447 10.341 119.963 10.341C119.125 10.341 118.243 10.9131 117.316 12.0573C116.43 13.1531 115.697 14.4625 115.117 15.9854C114.569 17.4841 114.295 18.7733 114.295 19.8531C114.295 20.6105 114.42 21.2068 114.669 21.6419C114.919 22.0689 115.282 22.2824 115.757 22.2824ZM144.97 4.17695L145.26 8.89066H144.922C144.777 7.36777 144.37 6.34445 143.701 5.82071C143.064 5.30502 141.755 5.04717 139.773 5.04717H137.066L135.386 12.0815H138.214C139.1 12.0815 139.785 11.9244 140.268 11.6101C140.76 11.2878 141.106 10.7923 141.308 10.1235H141.622L140.559 14.6317H140.232C140.369 13.834 140.281 13.274 139.966 12.9517C139.652 12.6213 139.032 12.4562 138.105 12.4562H135.289L133.089 21.6056C133.838 21.9521 134.826 22.1253 136.05 22.1253C137.67 22.1253 139.007 21.795 140.063 21.1342C141.151 20.4493 142.158 19.2971 143.085 17.6775H143.459L140.885 22.8747C140.176 22.6249 139.152 22.5 137.815 22.5H129.27L129.366 22.1737C129.85 22.1334 130.241 21.9682 130.539 21.6781C130.837 21.38 131.067 20.9207 131.228 20.3003L134.443 6.90849C134.596 6.27193 134.592 5.80459 134.431 5.50646C134.278 5.20027 133.959 5.023 133.476 4.97466L133.56 4.67249H141.501C142.887 4.67249 144.043 4.50731 144.97 4.17695ZM153.346 22.8505C152.774 22.8505 152.423 22.5927 152.294 22.077C152.166 21.5613 152.27 20.8764 152.609 20.0223L154.446 14.8976C154.978 13.4714 155.236 12.432 155.219 11.7793C155.203 11.1186 154.901 10.7882 154.313 10.7882C152.814 10.7882 150.405 14.6922 147.085 22.5H145.309C147.355 16.1345 148.403 12.859 148.451 12.6737C148.548 12.3998 148.62 12.158 148.669 11.9485C148.725 11.739 148.757 11.5497 148.765 11.3805C148.781 11.2032 148.765 11.0703 148.717 10.9816C148.669 10.8849 148.588 10.8366 148.475 10.8366C148.185 10.8366 147.75 11.1307 147.17 11.7189C146.598 12.299 146.026 13.0363 145.454 13.9307L145.26 13.834C146.912 11.1428 148.423 9.79715 149.793 9.79715C150.792 9.79715 151.054 10.6392 150.578 12.3232C150.361 13.0081 149.857 14.4464 149.067 16.6381L148.258 18.9345L148.33 18.9587C150.071 15.0749 151.513 12.5247 152.657 11.308C153.197 10.7278 153.668 10.333 154.071 10.1235C154.482 9.90592 154.937 9.79715 155.437 9.79715C155.743 9.79715 156.021 9.87369 156.271 10.0268C156.521 10.1718 156.73 10.3974 156.899 10.7036C157.077 11.0018 157.157 11.4248 157.141 11.9727C157.125 12.5206 156.992 13.1491 156.742 13.8582L154.736 19.708C154.389 20.6911 154.24 21.2833 154.289 21.4847C154.313 21.6539 154.422 21.7386 154.615 21.7386C154.857 21.7386 155.268 21.4485 155.848 20.8683C156.492 20.1995 157.048 19.4824 157.516 18.7169L157.733 18.8378C157.137 19.8289 156.404 20.7596 155.534 21.6298C154.72 22.4436 153.991 22.8505 153.346 22.8505ZM171.427 10.0268C170.493 12.4844 169.344 15.8645 167.983 20.1673C167.701 21.0939 167.801 21.5573 168.285 21.5573C168.543 21.5573 168.901 21.3196 169.361 20.8442C169.82 20.3688 170.327 19.6677 170.883 18.7411L171.077 18.8378C170.336 20.127 169.566 21.1141 168.768 21.799C167.979 22.4839 167.314 22.8263 166.774 22.8263C166.202 22.8263 165.864 22.5483 165.759 21.9924C165.654 21.4364 165.779 20.7797 166.133 20.0223L166.871 18.0643L166.774 18.0159C165.106 21.2229 163.422 22.8263 161.722 22.8263C160.908 22.8263 160.272 22.5161 159.812 21.8957C159.353 21.2752 159.123 20.4534 159.123 19.43C159.123 17.9555 159.47 16.4689 160.163 14.9701C160.848 13.4634 161.77 12.2265 162.931 11.2596C164.099 10.2846 165.287 9.79715 166.496 9.79715C167.705 9.79715 168.547 10.4176 169.022 11.6585L169.143 11.0179L170.485 7.02935C170.839 6.13495 170.936 5.51855 170.775 5.18012C170.622 4.83365 170.154 4.70875 169.373 4.80545L169.469 4.52746L173.555 3.63306L171.427 10.0268ZM167.765 15.0306C168.2 13.7816 168.329 12.6495 168.152 11.6343C167.983 10.6593 167.515 10.1718 166.75 10.1718C166.001 10.1718 165.183 10.6513 164.296 11.6101C163.426 12.5529 162.685 13.7494 162.072 15.1998C161.46 16.6502 161.154 18.028 161.154 19.3334C161.154 19.978 161.291 20.5017 161.565 20.9046C161.847 21.3075 162.238 21.5089 162.737 21.5089C163.446 21.5089 164.304 20.9086 165.312 19.708C166.335 18.4913 167.153 16.9322 167.765 15.0306ZM190.27 18.3423C190.375 19.5187 190.516 20.4171 190.693 21.0375C190.83 21.3921 190.999 21.658 191.201 21.8352C191.41 22.0125 191.68 22.1253 192.011 22.1737L191.938 22.5H186.366L186.439 22.1737C187.277 22.0045 187.804 21.6016 188.022 20.965C188.191 20.538 188.215 19.7201 188.095 18.5115L187.901 16.2876H181.785C180.303 18.8338 179.561 20.4252 179.561 21.0617C179.561 21.7788 179.997 22.1495 180.867 22.1737L180.794 22.5H175.948L176.02 22.1737C176.584 22.1334 177.076 21.9883 177.495 21.7386C177.914 21.4888 178.337 21.0738 178.764 20.4937C179.247 19.8088 180.528 17.6735 182.607 14.0878C182.712 13.9106 182.913 13.552 183.212 13.0121C183.518 12.4642 183.776 12.013 183.985 11.6585C184.122 11.4248 184.287 11.1428 184.481 10.8124C184.682 10.482 184.843 10.2121 184.964 10.0026C185.093 9.78506 185.198 9.60376 185.278 9.45873C185.367 9.30563 185.46 9.13642 185.556 8.9511C185.653 8.76577 185.762 8.55627 185.883 8.3226C186.012 8.08087 186.112 7.88749 186.185 7.74245C186.781 6.59021 187.079 5.64344 187.079 4.90214C187.772 4.71681 188.425 4.46702 189.037 4.15278L190.27 18.3423ZM181.979 15.9129H187.877L187.079 6.88431C186.91 7.27914 185.556 9.69643 183.018 14.1362C182.575 14.9178 182.229 15.51 181.979 15.9129ZM200.785 9.79715C202.115 9.79715 203.19 10.2 204.012 11.0058C204.834 11.8116 205.245 12.9437 205.245 14.4021C205.245 16.5535 204.476 18.4954 202.937 20.2277C201.398 21.9601 199.617 22.8263 197.594 22.8263C196.966 22.8263 196.354 22.7337 195.757 22.5483L194.742 25.7392C194.541 26.4966 194.529 26.9921 194.706 27.2258C194.891 27.4675 195.367 27.6085 196.132 27.6488L196.035 27.951H190.717L190.79 27.673C191.322 27.6166 191.72 27.4675 191.986 27.2258C192.252 26.9841 192.478 26.5651 192.663 25.9688L197.57 10.6915C196.982 10.9172 196.132 11.2959 195.02 11.8277L195.141 11.3563C196.914 10.7197 198.533 9.94621 200 9.0357H200.121L199.843 9.90592C200.173 9.83341 200.487 9.79715 200.785 9.79715ZM197.196 22.4275C198.195 22.4597 199.17 22.0689 200.121 21.2551C201.071 20.4332 201.825 19.4018 202.381 18.161C202.937 16.912 203.199 15.6832 203.166 14.4746C203.166 11.598 202.026 10.1718 199.746 10.196L195.89 22.1978C196.333 22.3509 196.769 22.4275 197.196 22.4275ZM213.259 9.79715C214.588 9.79715 215.664 10.2 216.486 11.0058C217.307 11.8116 217.718 12.9437 217.718 14.4021C217.718 16.5535 216.949 18.4954 215.41 20.2277C213.871 21.9601 212.09 22.8263 210.068 22.8263C209.439 22.8263 208.827 22.7337 208.231 22.5483L207.215 25.7392C207.014 26.4966 207.002 26.9921 207.179 27.2258C207.364 27.4675 207.84 27.6085 208.605 27.6488L208.509 27.951H203.19L203.263 27.673C203.795 27.6166 204.194 27.4675 204.46 27.2258C204.725 26.9841 204.951 26.5651 205.136 25.9688L210.044 10.6915C209.455 10.9172 208.605 11.2959 207.493 11.8277L207.614 11.3563C209.387 10.7197 211.006 9.94621 212.473 9.0357H212.594L212.316 9.90592C212.646 9.83341 212.96 9.79715 213.259 9.79715ZM209.669 22.4275C210.668 22.4597 211.643 22.0689 212.594 21.2551C213.545 20.4332 214.298 19.4018 214.854 18.161C215.41 16.912 215.672 15.6832 215.64 14.4746C215.64 11.598 214.499 10.1718 212.219 10.196L208.363 22.1978C208.807 22.3509 209.242 22.4275 209.669 22.4275ZM220.16 22.923C219.604 22.923 219.225 22.7014 219.024 22.2583C218.822 21.8151 218.838 21.1544 219.072 20.2761L223.254 7.02935C223.609 6.17524 223.705 5.56689 223.544 5.2043C223.383 4.8417 222.916 4.70875 222.142 4.80545L222.239 4.52746L226.324 3.63306L221.127 19.9739C220.724 21.2148 220.8 21.8352 221.356 21.8352C222.017 21.8352 222.932 20.8764 224.1 18.9587L224.293 19.0554C223.552 20.3446 222.819 21.3115 222.094 21.9561C221.369 22.6007 220.724 22.923 220.16 22.923ZM232.778 7.22273C232.52 7.47252 232.206 7.59741 231.835 7.59741C231.465 7.59741 231.15 7.47252 230.893 7.22273C230.643 6.96489 230.518 6.65467 230.518 6.29208C230.518 5.92143 230.643 5.60718 230.893 5.34934C231.15 5.09149 231.465 4.96257 231.835 4.96257C232.206 4.96257 232.52 5.09149 232.778 5.34934C233.036 5.60718 233.165 5.92143 233.165 6.29208C233.165 6.65467 233.036 6.96489 232.778 7.22273ZM225.973 13.9065C227.786 11.1669 229.37 9.79715 230.723 9.79715C231.344 9.79715 231.642 10.0953 231.618 10.6915C231.602 11.1589 231.461 11.7793 231.195 12.5529L228.669 20.0706C228.475 20.6266 228.379 21.0335 228.379 21.2914C228.379 21.5492 228.508 21.6781 228.765 21.6781C229.064 21.6781 229.479 21.388 230.01 20.8079C230.55 20.2277 231.086 19.4864 231.618 18.584L231.835 18.6928C231.094 20.0465 230.325 21.0698 229.527 21.7627C228.729 22.4557 228.032 22.8022 227.436 22.8022C226.364 22.8022 226.114 21.9158 226.687 20.1431L229.14 12.7462C229.446 11.8438 229.587 11.3321 229.563 11.2113C229.539 11.0501 229.438 10.9695 229.261 10.9695C228.649 10.9695 227.625 11.9848 226.191 14.0153L225.973 13.9065ZM236.779 22.8263C235.739 22.8263 234.913 22.4517 234.301 21.7023C233.689 20.9449 233.374 19.9578 233.358 18.7411C233.326 17.7017 233.503 16.6381 233.89 15.5503C234.285 14.4625 234.813 13.4916 235.473 12.6375C236.134 11.7834 236.928 11.0904 237.854 10.5586C238.781 10.0187 239.728 9.76492 240.695 9.79715C241.5 9.79715 242.161 10.0469 242.677 10.5465C243.193 11.038 243.454 11.6826 243.463 12.4803C243.503 13.1249 243.366 13.685 243.052 14.1604C242.745 14.6358 242.371 14.8735 241.928 14.8735C241.646 14.8735 241.416 14.7888 241.239 14.6196C241.069 14.4424 240.977 14.2047 240.961 13.9065C240.961 13.6326 241.041 13.3908 241.202 13.1814C241.364 12.9719 241.537 12.8107 241.722 12.6979C241.915 12.577 242.093 12.4159 242.254 12.2144C242.415 12.013 242.496 11.7793 242.496 11.5134C242.496 11.1025 242.359 10.7761 242.085 10.5344C241.811 10.2846 241.428 10.1638 240.936 10.1718C240.09 10.196 239.232 10.619 238.362 11.4409C237.524 12.2306 236.823 13.278 236.259 14.5834C235.711 15.8484 235.437 17.1014 235.437 18.3423C235.445 19.3414 235.675 20.1109 236.126 20.6508C236.585 21.1906 237.214 21.4606 238.012 21.4606C238.559 21.4606 239.156 21.2269 239.8 20.7596C240.445 20.2842 241.005 19.6597 241.48 18.8862L241.674 18.9587C241.231 19.9659 240.554 20.8643 239.643 21.6539C238.725 22.4355 237.77 22.8263 236.779 22.8263ZM253.035 21.5573C253.269 21.5573 253.615 21.3034 254.074 20.7958C254.534 20.2801 255.009 19.6113 255.501 18.7895L255.706 18.9103C254.997 20.119 254.268 21.0738 253.518 21.7748C252.777 22.4758 252.153 22.8263 251.645 22.8263C250.525 22.8263 250.295 21.8755 250.956 19.9739L251.645 18.0401L251.573 18.0159C250.799 19.4905 249.965 20.6629 249.071 21.5331C248.184 22.3953 247.31 22.8263 246.448 22.8263C245.666 22.8263 245.05 22.5242 244.599 21.9199C244.147 21.3075 243.922 20.4937 243.922 19.4784C243.922 18.0683 244.292 16.6018 245.034 15.0789C245.799 13.5641 246.79 12.3071 248.007 11.308C249.208 10.3007 250.436 9.79715 251.693 9.79715C252.733 9.79715 253.466 10.4176 253.893 11.6585L255.972 10.0268H256.202C255.509 11.7108 254.667 14.1281 253.676 17.2787C253.208 18.8257 252.91 19.7725 252.781 20.119C252.483 21.0778 252.568 21.5573 253.035 21.5573ZM247.511 21.4364C248.245 21.4364 249.111 20.8401 250.11 19.6476C251.133 18.4309 251.951 16.8717 252.564 14.9701C253.007 13.7454 253.18 12.6415 253.083 11.6585C253.011 10.6674 252.572 10.1718 251.766 10.1718C251.008 10.1718 250.158 10.6674 249.216 11.6585C248.297 12.6495 247.507 13.8703 246.847 15.3207C246.202 16.771 245.88 18.0925 245.88 19.285C245.88 19.9296 246.021 20.4493 246.303 20.8442C246.593 21.239 246.996 21.4364 247.511 21.4364ZM262.801 10.5465L259.779 19.9014C259.376 21.0859 259.417 21.6781 259.9 21.6781C260.23 21.6781 260.682 21.3961 261.254 20.8321C261.826 20.26 262.406 19.5106 262.994 18.584L263.26 18.6444C261.608 21.4324 260.057 22.8263 258.607 22.8263C258.083 22.8263 257.733 22.6047 257.555 22.1616C257.386 21.7184 257.418 21.0537 257.652 20.1673L260.722 10.5465H258.413L258.51 10.1235H260.843L261.882 6.88431L264.106 6.43712L262.922 10.1235C264.009 10.0993 265.073 9.94218 266.113 9.65211L265.738 10.5465H262.801ZM272.736 7.22273C272.478 7.47252 272.164 7.59741 271.793 7.59741C271.423 7.59741 271.108 7.47252 270.85 7.22273C270.601 6.96489 270.476 6.65467 270.476 6.29208C270.476 5.92143 270.601 5.60718 270.85 5.34934C271.108 5.09149 271.423 4.96257 271.793 4.96257C272.164 4.96257 272.478 5.09149 272.736 5.34934C272.994 5.60718 273.123 5.92143 273.123 6.29208C273.123 6.65467 272.994 6.96489 272.736 7.22273ZM265.931 13.9065C267.744 11.1669 269.328 9.79715 270.681 9.79715C271.302 9.79715 271.6 10.0953 271.576 10.6915C271.559 11.1589 271.418 11.7793 271.153 12.5529L268.627 20.0706C268.433 20.6266 268.336 21.0335 268.336 21.2914C268.336 21.5492 268.465 21.6781 268.723 21.6781C269.021 21.6781 269.436 21.388 269.968 20.8079C270.508 20.2277 271.044 19.4864 271.576 18.584L271.793 18.6928C271.052 20.0465 270.282 21.0698 269.485 21.7627C268.687 22.4557 267.99 22.8022 267.394 22.8022C266.322 22.8022 266.072 21.9158 266.644 20.1431L269.098 12.7462C269.404 11.8438 269.545 11.3321 269.521 11.2113C269.497 11.0501 269.396 10.9695 269.219 10.9695C268.606 10.9695 267.583 11.9848 266.149 14.0153L265.931 13.9065ZM277.16 22.8263C275.991 22.8263 275.073 22.3872 274.404 21.5089C273.767 20.6226 273.449 19.5106 273.449 18.1731C273.449 16.8597 273.739 15.5624 274.319 14.2812C274.899 13.0001 275.689 11.9364 276.688 11.0904C277.695 10.2282 278.775 9.79715 279.927 9.79715C281.072 9.79715 281.978 10.2443 282.647 11.1387C283.308 12.0009 283.638 13.1048 283.638 14.4504C283.67 15.3771 283.509 16.348 283.154 17.3633C282.8 18.3705 282.324 19.281 281.728 20.0948C281.14 20.9006 280.435 21.5653 279.613 22.0891C278.799 22.6047 277.981 22.8505 277.16 22.8263ZM276.386 22.2824C277.232 22.2824 278.122 21.7184 279.057 20.5903C279.992 19.4623 280.729 18.169 281.269 16.7106C281.825 15.2522 282.103 13.9549 282.103 12.8188C282.103 12.0452 281.97 11.4409 281.704 11.0058C281.446 10.5626 281.076 10.341 280.592 10.341C279.754 10.341 278.872 10.9131 277.945 12.0573C277.059 13.1531 276.326 14.4625 275.745 15.9854C275.198 17.4841 274.924 18.7733 274.924 19.8531C274.924 20.6105 275.048 21.2068 275.298 21.6419C275.548 22.0689 275.911 22.2824 276.386 22.2824ZM293.404 22.8505C292.832 22.8505 292.481 22.5927 292.352 22.077C292.223 21.5613 292.328 20.8764 292.666 20.0223L294.504 14.8976C295.035 13.4714 295.293 12.432 295.277 11.7793C295.261 11.1186 294.959 10.7882 294.371 10.7882C292.872 10.7882 290.463 14.6922 287.143 22.5H285.366C287.413 16.1345 288.46 12.859 288.509 12.6737C288.605 12.3998 288.678 12.158 288.726 11.9485C288.783 11.739 288.815 11.5497 288.823 11.3805C288.839 11.2032 288.823 11.0703 288.775 10.9816C288.726 10.8849 288.646 10.8366 288.533 10.8366C288.243 10.8366 287.808 11.1307 287.228 11.7189C286.655 12.299 286.083 13.0363 285.511 13.9307L285.318 13.834C286.97 11.1428 288.48 9.79715 289.85 9.79715C290.849 9.79715 291.111 10.6392 290.636 12.3232C290.418 13.0081 289.915 14.4464 289.125 16.6381L288.315 18.9345L288.388 18.9587C290.128 15.0749 291.571 12.5247 292.715 11.308C293.255 10.7278 293.726 10.333 294.129 10.1235C294.54 9.90592 294.995 9.79715 295.495 9.79715C295.801 9.79715 296.079 9.87369 296.329 10.0268C296.578 10.1718 296.788 10.3974 296.957 10.7036C297.134 11.0018 297.215 11.4248 297.199 11.9727C297.183 12.5206 297.05 13.1491 296.8 13.8582L294.794 19.708C294.447 20.6911 294.298 21.2833 294.346 21.4847C294.371 21.6539 294.479 21.7386 294.673 21.7386C294.915 21.7386 295.325 21.4485 295.906 20.8683C296.55 20.1995 297.106 19.4824 297.574 18.7169L297.791 18.8378C297.195 19.8289 296.462 20.7596 295.591 21.6298C294.778 22.4436 294.048 22.8505 293.404 22.8505Z" fill="#171515"/>
<path d="M299.506 31.07H0V32.93H299.506V31.07Z" fill="black" mask="url(#path-1-inside-1_1415_24270)"/>
</svg>
