<svg width="263" height="32" viewBox="0 0 263 32" fill="none" xmlns="http://www.w3.org/2000/svg">
<path d="M45.5062 16L41.0245 13.4125V18.5875L45.5062 16ZM0 16.4482H41.4727V15.5518H0V16.4482Z" fill="#171515"/>
<path d="M73.1283 4.67249H77.0926L77.0443 4.97466C76.5125 5.01494 76.0693 5.20833 75.7148 5.5548C75.3602 5.90128 75.1346 6.3928 75.0379 7.02935L73.0074 20.2036C72.814 21.4606 73.1444 22.1253 73.9985 22.1978L73.926 22.5H68.8738L68.9464 22.1978C69.3895 22.1576 69.7763 21.9682 70.1067 21.6298C70.4451 21.2914 70.6626 20.8482 70.7593 20.3003L72.9591 6.65467L69.321 13.2901C69.0874 13.7494 68.7812 14.3014 68.4025 14.946C67.9996 15.655 67.7337 16.1425 67.6048 16.4084L66.94 17.6292C66.803 17.887 66.6258 18.2214 66.4082 18.6323C66.1906 19.0352 66.0214 19.3656 65.9006 19.6234C65.3365 20.824 65.0465 21.666 65.0303 22.1495C64.3132 22.3429 63.6283 22.6249 62.9756 22.9955L62.0208 6.43712L57.706 19.8289C57.1903 21.2873 57.71 22.077 59.2651 22.1978L59.1926 22.5H54.3218L54.3943 22.1978C54.9905 22.1576 55.5425 21.944 56.0501 21.5573C56.5577 21.1624 56.9365 20.5944 57.1862 19.8531L61.344 7.24691C61.5776 6.55395 61.5696 6.01409 61.3198 5.62732C61.07 5.2325 60.6188 5.01494 59.9661 4.97466L60.0386 4.67249H64.1239L65.0303 20.3003L68.9705 13.0967C71.1703 9.08405 72.4595 6.59827 72.8382 5.63941C72.9832 5.2607 73.0799 4.9384 73.1283 4.67249ZM80.8032 22.8263C79.6348 22.8263 78.7162 22.3872 78.0474 21.5089C77.4109 20.6226 77.0926 19.5106 77.0926 18.1731C77.0926 16.8597 77.3827 15.5624 77.9628 14.2812C78.543 13.0001 79.3326 11.9364 80.3318 11.0904C81.339 10.2282 82.4187 9.79715 83.571 9.79715C84.7151 9.79715 85.6216 10.2443 86.2904 11.1387C86.9511 12.0009 87.2815 13.1048 87.2815 14.4504C87.3137 15.3771 87.1526 16.348 86.798 17.3633C86.4435 18.3705 85.9681 19.281 85.3718 20.0948C84.7836 20.9006 84.0786 21.5653 83.2567 22.0891C82.4429 22.6047 81.625 22.8505 80.8032 22.8263ZM80.0296 22.2824C80.8757 22.2824 81.766 21.7184 82.7007 20.5903C83.6354 19.4623 84.3727 18.169 84.9125 16.7106C85.4685 15.2522 85.7465 13.9549 85.7465 12.8188C85.7465 12.0452 85.6136 11.4409 85.3477 11.0058C85.0898 10.5626 84.7192 10.341 84.2357 10.341C83.3977 10.341 82.5154 10.9131 81.5888 12.0573C80.7024 13.1531 79.9692 14.4625 79.389 15.9854C78.8411 17.4841 78.5672 18.7733 78.5672 19.8531C78.5672 20.6105 78.6921 21.2068 78.9418 21.6419C79.1916 22.0689 79.5542 22.2824 80.0296 22.2824ZM97.4462 9.7488C98.3325 9.7488 99.0255 10.0872 99.5251 10.7641C100.025 11.4328 100.274 12.3232 100.274 13.4352C100.274 14.805 99.8957 16.2191 99.1383 17.6775C98.4212 19.1037 97.4301 20.3244 96.165 21.3397C94.9564 22.3308 93.7276 22.8263 92.4787 22.8263C91.6729 22.8263 90.9397 22.6088 90.2789 22.1737C89.6263 21.7305 89.1186 21.1866 88.756 20.542L92.95 6.81179C93.2159 6.11078 93.2723 5.58704 93.1192 5.24056C92.9742 4.88602 92.5955 4.74904 91.9831 4.82962L92.0556 4.52746L95.8629 3.63306L92.527 14.4021C93.1958 13.0645 93.9613 11.9606 94.8234 11.0904C95.6937 10.196 96.5679 9.7488 97.4462 9.7488ZM90.9679 20.3244C90.9679 21.7426 91.4271 22.4517 92.3457 22.4517C93.2643 22.4517 94.1909 21.8997 95.1256 20.7958C96.0764 19.6758 96.8338 18.3866 97.3978 16.9281C97.978 15.4375 98.2681 14.1523 98.2681 13.0726C98.2681 11.4852 97.7242 10.6915 96.6364 10.6915C95.8709 10.6915 95.0289 11.2959 94.1103 12.5045C93.1998 13.6729 92.4464 15.0225 91.8502 16.5535C91.262 18.0522 90.9679 19.3092 90.9679 20.3244ZM108.457 7.22273C108.199 7.47252 107.885 7.59741 107.514 7.59741C107.144 7.59741 106.829 7.47252 106.571 7.22273C106.322 6.96489 106.197 6.65467 106.197 6.29208C106.197 5.92143 106.322 5.60718 106.571 5.34934C106.829 5.09149 107.144 4.96257 107.514 4.96257C107.885 4.96257 108.199 5.09149 108.457 5.34934C108.715 5.60718 108.844 5.92143 108.844 6.29208C108.844 6.65467 108.715 6.96489 108.457 7.22273ZM101.652 13.9065C103.465 11.1669 105.049 9.79715 106.402 9.79715C107.023 9.79715 107.321 10.0953 107.297 10.6915C107.281 11.1589 107.14 11.7793 106.874 12.5529L104.348 20.0706C104.154 20.6266 104.057 21.0335 104.057 21.2914C104.057 21.5492 104.186 21.6781 104.444 21.6781C104.742 21.6781 105.157 21.388 105.689 20.8079C106.229 20.2277 106.765 19.4864 107.297 18.584L107.514 18.6928C106.773 20.0465 106.003 21.0698 105.206 21.7627C104.408 22.4557 103.711 22.8022 103.115 22.8022C102.043 22.8022 101.793 21.9158 102.365 20.1431L104.819 12.7462C105.125 11.8438 105.266 11.3321 105.242 11.2113C105.218 11.0501 105.117 10.9695 104.94 10.9695C104.327 10.9695 103.304 11.9848 101.87 14.0153L101.652 13.9065ZM110.077 22.923C109.521 22.923 109.142 22.7014 108.94 22.2583C108.739 21.8151 108.755 21.1544 108.989 20.2761L113.171 7.02935C113.525 6.17524 113.622 5.56689 113.461 5.2043C113.3 4.8417 112.832 4.70875 112.059 4.80545L112.155 4.52746L116.241 3.63306L111.043 19.9739C110.641 21.2148 110.717 21.8352 111.273 21.8352C111.934 21.8352 112.848 20.8764 114.017 18.9587L114.21 19.0554C113.469 20.3446 112.736 21.3115 112.01 21.9561C111.285 22.6007 110.641 22.923 110.077 22.923ZM120.809 16.0338L117.896 16.8556C117.727 17.6211 117.643 18.2818 117.643 18.8378C117.643 19.7483 117.828 20.4695 118.199 21.0013C118.577 21.525 119.093 21.7869 119.746 21.7869C121.212 21.7869 122.606 20.8039 123.928 18.8378L124.133 18.9345C123.561 19.9578 122.791 20.8925 121.825 21.7386C120.914 22.5282 119.923 22.923 118.851 22.923C117.868 22.923 117.087 22.5363 116.507 21.7627C115.926 20.9489 115.636 19.99 115.636 18.8862C115.636 17.5002 115.951 16.0982 116.579 14.6801C117.175 13.3103 118.033 12.154 119.153 11.2113C120.249 10.2846 121.397 9.82132 122.598 9.82132C123.38 9.82132 124.073 10.063 124.677 10.5465C125.289 11.0138 125.596 11.6222 125.596 12.3716C125.596 13.2176 125.205 13.9227 124.423 14.4867C123.642 15.0427 122.437 15.5584 120.809 16.0338ZM122.598 10.1718C121.841 10.1718 120.983 10.8487 120.024 12.2023C119.073 13.556 118.388 15.0265 117.969 16.6139C119.016 16.2433 119.834 15.929 120.423 15.6712C121.011 15.4133 121.587 15.0991 122.151 14.7284C123.384 13.9468 124 12.9557 124 11.7552C124 11.2556 123.871 10.8688 123.613 10.5949C123.355 10.3128 123.017 10.1718 122.598 10.1718ZM126.744 15.3448L126.889 14.7284L129.366 14.8493H131.941L133.802 14.7284L133.657 15.3448L131.276 15.224H128.533L126.744 15.3448ZM149.164 4.15278L149.515 8.91484H149.188C149.1 8.17353 148.979 7.59741 148.826 7.18647C148.681 6.77554 148.439 6.40086 148.1 6.06244C147.448 5.38559 146.118 5.04717 144.112 5.04717H141.683L140.003 12.0815H142.698C143.56 12.0815 144.209 11.9244 144.644 11.6101C145.087 11.2878 145.429 10.7681 145.671 10.051H145.997L144.91 14.5592H144.583C144.696 13.8421 144.595 13.3143 144.281 12.9759C143.975 12.6294 143.415 12.4562 142.601 12.4562H139.93L138.069 20.1673C137.916 20.7394 137.936 21.2068 138.129 21.5693C138.331 21.9319 138.657 22.1334 139.108 22.1737L139.036 22.5H133.887L133.959 22.1737C134.95 22.077 135.587 21.4082 135.869 20.1673L139.011 7.02935C139.334 5.78042 139.028 5.09552 138.093 4.97466L138.178 4.67249H145.695C147.17 4.67249 148.326 4.49926 149.164 4.15278ZM155.642 7.22273C155.385 7.47252 155.07 7.59741 154.7 7.59741C154.329 7.59741 154.015 7.47252 153.757 7.22273C153.507 6.96489 153.382 6.65467 153.382 6.29208C153.382 5.92143 153.507 5.60718 153.757 5.34934C154.015 5.09149 154.329 4.96257 154.7 4.96257C155.07 4.96257 155.385 5.09149 155.642 5.34934C155.9 5.60718 156.029 5.92143 156.029 6.29208C156.029 6.65467 155.9 6.96489 155.642 7.22273ZM148.838 13.9065C150.651 11.1669 152.234 9.79715 153.588 9.79715C154.208 9.79715 154.506 10.0953 154.482 10.6915C154.466 11.1589 154.325 11.7793 154.059 12.5529L151.533 20.0706C151.34 20.6266 151.243 21.0335 151.243 21.2914C151.243 21.5492 151.372 21.6781 151.63 21.6781C151.928 21.6781 152.343 21.388 152.875 20.8079C153.414 20.2277 153.95 19.4864 154.482 18.584L154.7 18.6928C153.958 20.0465 153.189 21.0698 152.391 21.7627C151.593 22.4557 150.896 22.8022 150.3 22.8022C149.229 22.8022 148.979 21.9158 149.551 20.1431L152.004 12.7462C152.311 11.8438 152.452 11.3321 152.427 11.2113C152.403 11.0501 152.303 10.9695 152.125 10.9695C151.513 10.9695 150.49 11.9848 149.055 14.0153L148.838 13.9065ZM156.38 22.5C157.097 20.3567 158.144 17.1135 159.522 12.7704C159.691 12.2306 159.812 11.7874 159.885 11.4409C159.973 10.9897 159.885 10.7641 159.619 10.7641C159.095 10.7641 158.112 11.8196 156.67 13.9307L156.476 13.8098C158.289 11.0219 159.816 9.62794 161.057 9.62794C162.153 9.62794 162.342 10.6351 161.625 12.6495L159.595 18.2697L159.691 18.2939C161.287 14.5794 162.576 12.1943 163.559 11.1387C164.042 10.615 164.449 10.2605 164.78 10.0751C165.118 9.88981 165.493 9.79715 165.904 9.79715C166.428 9.79715 166.843 9.95427 167.149 10.2685C167.455 10.5828 167.616 10.9897 167.632 11.4892C167.672 11.9485 167.552 12.3554 167.27 12.71C166.988 13.0645 166.641 13.2418 166.23 13.2418C165.61 13.2418 165.287 12.9598 165.263 12.3957C165.255 12.2588 165.299 12.0654 165.396 11.8156C165.501 11.5658 165.553 11.4127 165.553 11.3563C165.553 11.0421 165.416 10.8608 165.142 10.8124C164.723 10.7479 164.22 11.034 163.632 11.6705L163.499 11.8277C162.902 12.5609 162.141 13.8582 161.214 15.7195C160.288 17.5808 159.317 19.841 158.301 22.5H156.38ZM169.917 22.8263C168.942 22.8263 168.152 22.5604 167.548 22.0286C166.951 21.4968 166.677 20.828 166.726 20.0223C166.742 19.6839 166.871 19.3817 167.112 19.1158C167.354 18.8499 167.644 18.7169 167.983 18.7169C168.321 18.7169 168.587 18.8257 168.78 19.0433C168.974 19.2608 169.054 19.5388 169.022 19.8772C168.998 20.0465 168.913 20.2922 168.768 20.6145C168.623 20.9368 168.551 21.1705 168.551 21.3155C168.535 21.662 168.672 21.944 168.962 22.1616C169.26 22.3711 169.671 22.4758 170.194 22.4758C170.815 22.4758 171.375 22.2381 171.875 21.7627C172.39 21.2954 172.66 20.7314 172.684 20.0706C172.717 19.5952 172.563 19.0433 172.225 18.4148C171.895 17.7782 171.48 17.1779 170.98 16.6139C170.489 16.0579 170.082 15.4375 169.759 14.7526C169.437 14.0677 169.292 13.4392 169.324 12.8671C169.397 11.9646 169.832 11.2395 170.63 10.6915C171.46 10.0953 172.386 9.79715 173.409 9.79715C174.344 9.79715 175.094 10.0792 175.658 10.6432C176.246 11.2072 176.528 11.8357 176.504 12.5287C176.488 12.8752 176.371 13.1854 176.153 13.4593C175.936 13.7252 175.666 13.8582 175.343 13.8582C174.658 13.8582 174.328 13.5117 174.352 12.8188C174.376 12.5448 174.489 12.299 174.691 12.0815C174.924 11.7834 175.041 11.5577 175.041 11.4046C175.057 11.0662 174.904 10.7641 174.582 10.4982C174.26 10.2323 173.861 10.0993 173.385 10.0993C172.741 10.0993 172.193 10.2846 171.742 10.6553C171.29 11.0259 171.061 11.5175 171.053 12.1298C171.02 12.5569 171.173 13.0847 171.512 13.7132C171.858 14.3336 172.294 14.9621 172.817 15.5986C173.325 16.1949 173.748 16.8274 174.086 17.4962C174.425 18.165 174.578 18.7371 174.546 19.2125C174.473 20.2116 174.01 21.0617 173.156 21.7627C172.318 22.4718 171.238 22.8263 169.917 22.8263ZM182.982 10.5465L179.96 19.9014C179.557 21.0859 179.598 21.6781 180.081 21.6781C180.412 21.6781 180.863 21.3961 181.435 20.8321C182.007 20.26 182.587 19.5106 183.175 18.584L183.441 18.6444C181.789 21.4324 180.238 22.8263 178.788 22.8263C178.264 22.8263 177.914 22.6047 177.736 22.1616C177.567 21.7184 177.599 21.0537 177.833 20.1673L180.903 10.5465H178.595L178.691 10.1235H181.024L182.063 6.88431L184.287 6.43712L183.103 10.1235C184.191 10.0993 185.254 9.94218 186.294 9.65211L185.919 10.5465H182.982ZM207.747 12.2023C207.747 13.9589 207.296 15.6268 206.393 17.2061C205.467 18.8015 204.254 20.0787 202.755 21.0375C201.232 22.0125 199.629 22.5 197.945 22.5H190.717L190.79 22.1978C191.201 22.1576 191.588 21.9601 191.95 21.6056C192.313 21.2511 192.571 20.7716 192.724 20.1673L195.866 7.02935C196.196 5.77236 195.89 5.09552 194.948 4.99883L195.032 4.67249H201.112C203.126 4.67249 204.738 5.35739 205.946 6.72719C207.147 8.08087 207.747 9.90592 207.747 12.2023ZM197.993 22.1253C199.468 22.1253 200.797 21.5814 201.982 20.4937C203.166 19.43 204.073 18.0764 204.701 16.4326C205.33 14.7969 205.644 13.1411 205.644 11.4651C205.628 9.66017 205.326 8.25411 204.738 7.24691C204.157 6.2397 203.247 5.58301 202.006 5.27682C201.41 5.12372 200.27 5.04717 198.586 5.04717L194.585 21.7869C195.665 22.0125 196.801 22.1253 197.993 22.1253ZM213.923 16.0338L211.01 16.8556C210.841 17.6211 210.757 18.2818 210.757 18.8378C210.757 19.7483 210.942 20.4695 211.313 21.0013C211.691 21.525 212.207 21.7869 212.86 21.7869C214.326 21.7869 215.72 20.8039 217.042 18.8378L217.247 18.9345C216.675 19.9578 215.905 20.8925 214.939 21.7386C214.028 22.5282 213.037 22.923 211.965 22.923C210.982 22.923 210.201 22.5363 209.62 21.7627C209.04 20.9489 208.75 19.99 208.75 18.8862C208.75 17.5002 209.065 16.0982 209.693 14.6801C210.289 13.3103 211.147 12.154 212.267 11.2113C213.363 10.2846 214.511 9.82132 215.712 9.82132C216.494 9.82132 217.187 10.063 217.791 10.5465C218.403 11.0138 218.709 11.6222 218.709 12.3716C218.709 13.2176 218.319 13.9227 217.537 14.4867C216.756 15.0427 215.551 15.5584 213.923 16.0338ZM215.712 10.1718C214.955 10.1718 214.096 10.8487 213.138 12.2023C212.187 13.556 211.502 15.0265 211.083 16.6139C212.13 16.2433 212.948 15.929 213.536 15.6712C214.125 15.4133 214.701 15.0991 215.265 14.7284C216.498 13.9468 217.114 12.9557 217.114 11.7552C217.114 11.2556 216.985 10.8688 216.727 10.5949C216.469 10.3128 216.131 10.1718 215.712 10.1718ZM222.13 22.8263C221.155 22.8263 220.365 22.5604 219.761 22.0286C219.165 21.4968 218.891 20.828 218.939 20.0223C218.955 19.6839 219.084 19.3817 219.326 19.1158C219.568 18.8499 219.858 18.7169 220.196 18.7169C220.535 18.7169 220.8 18.8257 220.994 19.0433C221.187 19.2608 221.268 19.5388 221.236 19.8772C221.211 20.0465 221.127 20.2922 220.982 20.6145C220.837 20.9368 220.764 21.1705 220.764 21.3155C220.748 21.662 220.885 21.944 221.175 22.1616C221.473 22.3711 221.884 22.4758 222.408 22.4758C223.028 22.4758 223.588 22.2381 224.088 21.7627C224.604 21.2954 224.874 20.7314 224.898 20.0706C224.93 19.5952 224.777 19.0433 224.438 18.4148C224.108 17.7782 223.693 17.1779 223.194 16.6139C222.702 16.0579 222.295 15.4375 221.973 14.7526C221.651 14.0677 221.505 13.4392 221.538 12.8671C221.61 11.9646 222.045 11.2395 222.843 10.6915C223.673 10.0953 224.6 9.79715 225.623 9.79715C226.558 9.79715 227.307 10.0792 227.871 10.6432C228.459 11.2072 228.741 11.8357 228.717 12.5287C228.701 12.8752 228.584 13.1854 228.367 13.4593C228.149 13.7252 227.879 13.8582 227.557 13.8582C226.872 13.8582 226.542 13.5117 226.566 12.8188C226.59 12.5448 226.703 12.299 226.904 12.0815C227.138 11.7834 227.255 11.5577 227.255 11.4046C227.271 11.0662 227.118 10.7641 226.795 10.4982C226.473 10.2323 226.074 10.0993 225.599 10.0993C224.954 10.0993 224.406 10.2846 223.955 10.6553C223.504 11.0259 223.274 11.5175 223.266 12.1298C223.234 12.5569 223.387 13.0847 223.725 13.7132C224.072 14.3336 224.507 14.9621 225.031 15.5986C225.538 16.1949 225.961 16.8274 226.3 17.4962C226.638 18.165 226.791 18.7371 226.759 19.2125C226.687 20.2116 226.223 21.0617 225.369 21.7627C224.531 22.4718 223.451 22.8263 222.13 22.8263ZM236.404 7.22273C236.146 7.47252 235.832 7.59741 235.461 7.59741C235.091 7.59741 234.776 7.47252 234.519 7.22273C234.269 6.96489 234.144 6.65467 234.144 6.29208C234.144 5.92143 234.269 5.60718 234.519 5.34934C234.776 5.09149 235.091 4.96257 235.461 4.96257C235.832 4.96257 236.146 5.09149 236.404 5.34934C236.662 5.60718 236.791 5.92143 236.791 6.29208C236.791 6.65467 236.662 6.96489 236.404 7.22273ZM229.599 13.9065C231.412 11.1669 232.996 9.79715 234.349 9.79715C234.97 9.79715 235.268 10.0953 235.244 10.6915C235.228 11.1589 235.087 11.7793 234.821 12.5529L232.295 20.0706C232.101 20.6266 232.005 21.0335 232.005 21.2914C232.005 21.5492 232.133 21.6781 232.391 21.6781C232.689 21.6781 233.104 21.388 233.636 20.8079C234.176 20.2277 234.712 19.4864 235.244 18.584L235.461 18.6928C234.72 20.0465 233.95 21.0698 233.153 21.7627C232.355 22.4557 231.658 22.8022 231.062 22.8022C229.99 22.8022 229.74 21.9158 230.312 20.1431L232.766 12.7462C233.072 11.8438 233.213 11.3321 233.189 11.2113C233.165 11.0501 233.064 10.9695 232.887 10.9695C232.275 10.9695 231.251 11.9848 229.817 14.0153L229.599 13.9065ZM249.143 10.051C249.159 10.3974 249.067 10.6714 248.865 10.8728C248.672 11.0743 248.402 11.171 248.055 11.1629C247.886 11.1549 247.648 11.0421 247.342 10.8245C247.044 10.6069 246.851 10.4982 246.762 10.4982C246.375 10.474 246.061 10.7681 245.819 11.3805C246.222 12.0493 246.424 12.7865 246.424 13.5923C246.448 14.9057 246.001 16.1184 245.082 17.2303C244.188 18.3181 243.076 18.862 241.746 18.862C240.884 18.862 240.147 18.58 239.534 18.0159C238.624 18.3221 238.181 18.721 238.205 19.2125C238.221 19.5187 238.362 19.7846 238.628 20.0102C238.902 20.2277 239.418 20.4816 240.175 20.7716L243.692 22.2583C244.587 22.645 245.227 23.0519 245.614 23.479C246.009 23.9061 246.21 24.4379 246.218 25.0744C246.242 25.9527 245.807 26.694 244.913 27.2983C244.027 27.9107 242.846 28.2169 241.372 28.2169C239.462 28.2169 237.959 27.9228 236.863 27.3346C235.776 26.7544 235.224 26.0413 235.207 25.1953C235.199 24.5426 235.477 23.9544 236.041 23.4307C236.597 22.915 237.335 22.5564 238.253 22.355C237.689 22.0891 237.29 21.807 237.057 21.5089C236.823 21.2108 236.702 20.816 236.694 20.3244C236.686 19.7362 236.932 19.2205 237.431 18.7774C237.939 18.3261 238.584 18.024 239.365 17.8709C238.713 17.1457 238.374 16.215 238.35 15.0789C238.326 13.7494 238.753 12.5367 239.631 11.4409C240.509 10.3451 241.617 9.79715 242.955 9.79715C244.131 9.79715 245.03 10.2443 245.65 11.1387C245.852 10.4941 246.162 9.97844 246.581 9.59168C247.008 9.19685 247.467 9.00347 247.959 9.01153C248.345 9.01959 248.64 9.12031 248.841 9.31369C249.042 9.50707 249.143 9.75283 249.143 10.051ZM241.19 18.4631C242.028 18.4631 242.854 17.7379 243.668 16.2876C244.506 14.7969 244.913 13.4191 244.889 12.154C244.889 10.8648 244.474 10.2202 243.644 10.2202C242.749 10.2202 241.891 10.9373 241.069 12.3716C240.28 13.7736 239.885 15.1112 239.885 16.3843C239.909 17.7702 240.344 18.4631 241.19 18.4631ZM242.858 24.2525L239.269 22.8022L238.543 22.5C237.963 22.7417 237.516 23.0922 237.202 23.5515C236.896 24.0189 236.751 24.5104 236.767 25.0261C236.807 25.9285 237.226 26.6255 238.024 27.117C238.821 27.6166 239.97 27.8664 241.468 27.8664C242.379 27.8664 243.116 27.7093 243.68 27.395C244.244 27.0808 244.53 26.6295 244.538 26.0413C244.562 25.3403 244.002 24.744 242.858 24.2525ZM256.878 22.8505C256.306 22.8505 255.956 22.5927 255.827 22.077C255.698 21.5613 255.803 20.8764 256.141 20.0223L257.978 14.8976C258.51 13.4714 258.768 12.432 258.752 11.7793C258.736 11.1186 258.434 10.7882 257.845 10.7882C256.347 10.7882 253.937 14.6922 250.618 22.5H248.841C250.888 16.1345 251.935 12.859 251.983 12.6737C252.08 12.3998 252.153 12.158 252.201 11.9485C252.257 11.739 252.29 11.5497 252.298 11.3805C252.314 11.2032 252.298 11.0703 252.249 10.9816C252.201 10.8849 252.12 10.8366 252.008 10.8366C251.718 10.8366 251.282 11.1307 250.702 11.7189C250.13 12.299 249.558 13.0363 248.986 13.9307L248.793 13.834C250.444 11.1428 251.955 9.79715 253.325 9.79715C254.324 9.79715 254.586 10.6392 254.111 12.3232C253.893 13.0081 253.39 14.4464 252.6 16.6381L251.79 18.9345L251.863 18.9587C253.603 15.0749 255.045 12.5247 256.19 11.308C256.729 10.7278 257.201 10.333 257.604 10.1235C258.015 9.90592 258.47 9.79715 258.969 9.79715C259.276 9.79715 259.554 9.87369 259.803 10.0268C260.053 10.1718 260.263 10.3974 260.432 10.7036C260.609 11.0018 260.69 11.4248 260.674 11.9727C260.658 12.5206 260.525 13.1491 260.275 13.8582L258.268 19.708C257.922 20.6911 257.773 21.2833 257.821 21.4847C257.845 21.6539 257.954 21.7386 258.148 21.7386C258.389 21.7386 258.8 21.4485 259.38 20.8683C260.025 20.1995 260.581 19.4824 261.048 18.7169L261.266 18.8378C260.67 19.8289 259.936 20.7596 259.066 21.6298C258.252 22.4436 257.523 22.8505 256.878 22.8505Z" fill="#171515"/>
<path d="M262.506 31.07H0V32.93H262.506V31.07Z" fill="black" mask="url(#path-1-inside-1_1052_4818)"/>
</svg>
