<svg width="266" height="32" viewBox="0 0 266 32" fill="none" xmlns="http://www.w3.org/2000/svg">
<path d="M45.5062 16L41.0245 13.4125V18.5875L45.5062 16ZM0 16.4482H41.4727V15.5518H0V16.4482Z" fill="#171515"/>
<path d="M76.1282 4.67249H80.0926L80.0443 4.97466C79.5125 5.01494 79.0693 5.20833 78.7147 5.5548C78.3602 5.90128 78.1346 6.3928 78.0379 7.02935L76.0074 20.2036C75.814 21.4606 76.1444 22.1253 76.9985 22.1978L76.926 22.5H71.8738L71.9463 22.1978C72.3895 22.1576 72.7763 21.9682 73.1066 21.6298C73.4451 21.2914 73.6626 20.8482 73.7593 20.3003L75.959 6.65467L72.321 13.2901C72.0873 13.7494 71.7812 14.3014 71.4024 14.946C70.9996 15.655 70.7337 16.1425 70.6047 16.4084L69.94 17.6292C69.803 17.887 69.6257 18.2214 69.4082 18.6323C69.1906 19.0352 69.0214 19.3656 68.9006 19.6234C68.3365 20.824 68.0464 21.666 68.0303 22.1495C67.3132 22.3429 66.6283 22.6249 65.9756 22.9955L65.0208 6.43712L60.7059 19.8289C60.1903 21.2873 60.71 22.077 62.2651 22.1978L62.1926 22.5H57.3217L57.3943 22.1978C57.9905 22.1576 58.5425 21.944 59.0501 21.5573C59.5577 21.1624 59.9364 20.5944 60.1862 19.8531L64.344 7.24691C64.5776 6.55395 64.5696 6.01409 64.3198 5.62732C64.07 5.2325 63.6188 5.01494 62.9661 4.97466L63.0386 4.67249H67.1238L68.0303 20.3003L71.9705 13.0967C74.1702 9.08405 75.4595 6.59827 75.8382 5.63941C75.9832 5.2607 76.0799 4.9384 76.1282 4.67249ZM83.8031 22.8263C82.6348 22.8263 81.7162 22.3872 81.0474 21.5089C80.4109 20.6226 80.0926 19.5106 80.0926 18.1731C80.0926 16.8597 80.3827 15.5624 80.9628 14.2812C81.543 13.0001 82.3326 11.9364 83.3318 11.0904C84.339 10.2282 85.4187 9.79715 86.5709 9.79715C87.7151 9.79715 88.6216 10.2443 89.2904 11.1387C89.9511 12.0009 90.2815 13.1048 90.2815 14.4504C90.3137 15.3771 90.1526 16.348 89.798 17.3633C89.4435 18.3705 88.9681 19.281 88.3718 20.0948C87.7836 20.9006 87.0786 21.5653 86.2567 22.0891C85.4429 22.6047 84.625 22.8505 83.8031 22.8263ZM83.0296 22.2824C83.8757 22.2824 84.766 21.7184 85.7007 20.5903C86.6354 19.4623 87.3727 18.169 87.9125 16.7106C88.4685 15.2522 88.7465 13.9549 88.7465 12.8188C88.7465 12.0452 88.6135 11.4409 88.3476 11.0058C88.0898 10.5626 87.7191 10.341 87.2357 10.341C86.3977 10.341 85.5154 10.9131 84.5888 12.0573C83.7024 13.1531 82.9692 14.4625 82.389 15.9854C81.8411 17.4841 81.5671 18.7733 81.5671 19.8531C81.5671 20.6105 81.692 21.2068 81.9418 21.6419C82.1916 22.0689 82.5542 22.2824 83.0296 22.2824ZM100.446 9.7488C101.333 9.7488 102.025 10.0872 102.525 10.7641C103.025 11.4328 103.274 12.3232 103.274 13.4352C103.274 14.805 102.896 16.2191 102.138 17.6775C101.421 19.1037 100.43 20.3244 99.165 21.3397C97.9564 22.3308 96.7276 22.8263 95.4786 22.8263C94.6729 22.8263 93.9396 22.6088 93.2789 22.1737C92.6262 21.7305 92.1186 21.1866 91.756 20.542L95.95 6.81179C96.2159 6.11078 96.2723 5.58704 96.1192 5.24056C95.9742 4.88602 95.5955 4.74904 94.9831 4.82962L95.0556 4.52746L98.8628 3.63306L95.527 14.4021C96.1958 13.0645 96.9612 11.9606 97.8234 11.0904C98.6936 10.196 99.5679 9.7488 100.446 9.7488ZM93.9678 20.3244C93.9678 21.7426 94.4271 22.4517 95.3457 22.4517C96.2643 22.4517 97.1909 21.8997 98.1256 20.7958C99.0764 19.6758 99.8338 18.3866 100.398 16.9281C100.978 15.4375 101.268 14.1523 101.268 13.0726C101.268 11.4852 100.724 10.6915 99.6364 10.6915C98.8709 10.6915 98.0289 11.2959 97.1103 12.5045C96.1998 13.6729 95.4464 15.0225 94.8501 16.5535C94.2619 18.0522 93.9678 19.3092 93.9678 20.3244ZM111.457 7.22273C111.199 7.47252 110.885 7.59741 110.514 7.59741C110.144 7.59741 109.829 7.47252 109.571 7.22273C109.322 6.96489 109.197 6.65467 109.197 6.29208C109.197 5.92143 109.322 5.60718 109.571 5.34934C109.829 5.09149 110.144 4.96257 110.514 4.96257C110.885 4.96257 111.199 5.09149 111.457 5.34934C111.715 5.60718 111.844 5.92143 111.844 6.29208C111.844 6.65467 111.715 6.96489 111.457 7.22273ZM104.652 13.9065C106.465 11.1669 108.049 9.79715 109.402 9.79715C110.023 9.79715 110.321 10.0953 110.297 10.6915C110.281 11.1589 110.14 11.7793 109.874 12.5529L107.348 20.0706C107.154 20.6266 107.057 21.0335 107.057 21.2914C107.057 21.5492 107.186 21.6781 107.444 21.6781C107.742 21.6781 108.157 21.388 108.689 20.8079C109.229 20.2277 109.765 19.4864 110.297 18.584L110.514 18.6928C109.773 20.0465 109.003 21.0698 108.206 21.7627C107.408 22.4557 106.711 22.8022 106.115 22.8022C105.043 22.8022 104.793 21.9158 105.365 20.1431L107.819 12.7462C108.125 11.8438 108.266 11.3321 108.242 11.2113C108.218 11.0501 108.117 10.9695 107.94 10.9695C107.327 10.9695 106.304 11.9848 104.87 14.0153L104.652 13.9065ZM113.077 22.923C112.521 22.923 112.142 22.7014 111.94 22.2583C111.739 21.8151 111.755 21.1544 111.989 20.2761L116.171 7.02935C116.525 6.17524 116.622 5.56689 116.461 5.2043C116.3 4.8417 115.832 4.70875 115.059 4.80545L115.155 4.52746L119.241 3.63306L114.043 19.9739C113.641 21.2148 113.717 21.8352 114.273 21.8352C114.934 21.8352 115.848 20.8764 117.017 18.9587L117.21 19.0554C116.469 20.3446 115.736 21.3115 115.01 21.9561C114.285 22.6007 113.641 22.923 113.077 22.923ZM123.809 16.0338L120.896 16.8556C120.727 17.6211 120.643 18.2818 120.643 18.8378C120.643 19.7483 120.828 20.4695 121.199 21.0013C121.577 21.525 122.093 21.7869 122.746 21.7869C124.212 21.7869 125.606 20.8039 126.928 18.8378L127.133 18.9345C126.561 19.9578 125.791 20.8925 124.825 21.7386C123.914 22.5282 122.923 22.923 121.851 22.923C120.868 22.923 120.087 22.5363 119.506 21.7627C118.926 20.9489 118.636 19.99 118.636 18.8862C118.636 17.5002 118.951 16.0982 119.579 14.6801C120.175 13.3103 121.033 12.154 122.153 11.2113C123.249 10.2846 124.397 9.82132 125.598 9.82132C126.38 9.82132 127.073 10.063 127.677 10.5465C128.289 11.0138 128.596 11.6222 128.596 12.3716C128.596 13.2176 128.205 13.9227 127.423 14.4867C126.642 15.0427 125.437 15.5584 123.809 16.0338ZM125.598 10.1718C124.841 10.1718 123.983 10.8487 123.024 12.2023C122.073 13.556 121.388 15.0265 120.969 16.6139C122.016 16.2433 122.834 15.929 123.423 15.6712C124.011 15.4133 124.587 15.0991 125.151 14.7284C126.384 13.9468 127 12.9557 127 11.7552C127 11.2556 126.871 10.8688 126.613 10.5949C126.355 10.3128 126.017 10.1718 125.598 10.1718ZM129.744 15.3448L129.889 14.7284L132.366 14.8493H134.941L136.802 14.7284L136.657 15.3448L134.276 15.224H131.533L129.744 15.3448ZM152.164 4.15278L152.515 8.91484H152.188C152.1 8.17353 151.979 7.59741 151.826 7.18647C151.681 6.77554 151.439 6.40086 151.1 6.06244C150.448 5.38559 149.118 5.04717 147.112 5.04717H144.683L143.003 12.0815H145.698C146.56 12.0815 147.209 11.9244 147.644 11.6101C148.087 11.2878 148.429 10.7681 148.671 10.051H148.997L147.91 14.5592H147.583C147.696 13.8421 147.595 13.3143 147.281 12.9759C146.975 12.6294 146.415 12.4562 145.601 12.4562H142.93L141.069 20.1673C140.916 20.7394 140.936 21.2068 141.129 21.5693C141.331 21.9319 141.657 22.1334 142.108 22.1737L142.036 22.5H136.887L136.959 22.1737C137.95 22.077 138.587 21.4082 138.869 20.1673L142.011 7.02935C142.334 5.78042 142.028 5.09552 141.093 4.97466L141.177 4.67249H148.695C150.17 4.67249 151.326 4.49926 152.164 4.15278ZM158.642 7.22273C158.385 7.47252 158.07 7.59741 157.7 7.59741C157.329 7.59741 157.015 7.47252 156.757 7.22273C156.507 6.96489 156.382 6.65467 156.382 6.29208C156.382 5.92143 156.507 5.60718 156.757 5.34934C157.015 5.09149 157.329 4.96257 157.7 4.96257C158.07 4.96257 158.385 5.09149 158.642 5.34934C158.9 5.60718 159.029 5.92143 159.029 6.29208C159.029 6.65467 158.9 6.96489 158.642 7.22273ZM151.838 13.9065C153.651 11.1669 155.234 9.79715 156.588 9.79715C157.208 9.79715 157.506 10.0953 157.482 10.6915C157.466 11.1589 157.325 11.7793 157.059 12.5529L154.533 20.0706C154.34 20.6266 154.243 21.0335 154.243 21.2914C154.243 21.5492 154.372 21.6781 154.63 21.6781C154.928 21.6781 155.343 21.388 155.875 20.8079C156.414 20.2277 156.95 19.4864 157.482 18.584L157.7 18.6928C156.958 20.0465 156.189 21.0698 155.391 21.7627C154.593 22.4557 153.896 22.8022 153.3 22.8022C152.229 22.8022 151.979 21.9158 152.551 20.1431L155.004 12.7462C155.311 11.8438 155.452 11.3321 155.427 11.2113C155.403 11.0501 155.303 10.9695 155.125 10.9695C154.513 10.9695 153.49 11.9848 152.055 14.0153L151.838 13.9065ZM159.38 22.5C160.097 20.3567 161.144 17.1135 162.522 12.7704C162.691 12.2306 162.812 11.7874 162.885 11.4409C162.973 10.9897 162.885 10.7641 162.619 10.7641C162.095 10.7641 161.112 11.8196 159.67 13.9307L159.476 13.8098C161.289 11.0219 162.816 9.62794 164.057 9.62794C165.153 9.62794 165.342 10.6351 164.625 12.6495L162.595 18.2697L162.691 18.2939C164.287 14.5794 165.576 12.1943 166.559 11.1387C167.042 10.615 167.449 10.2605 167.78 10.0751C168.118 9.88981 168.493 9.79715 168.904 9.79715C169.428 9.79715 169.843 9.95427 170.149 10.2685C170.455 10.5828 170.616 10.9897 170.632 11.4892C170.672 11.9485 170.552 12.3554 170.27 12.71C169.988 13.0645 169.641 13.2418 169.23 13.2418C168.61 13.2418 168.287 12.9598 168.263 12.3957C168.255 12.2588 168.299 12.0654 168.396 11.8156C168.501 11.5658 168.553 11.4127 168.553 11.3563C168.553 11.0421 168.416 10.8608 168.142 10.8124C167.723 10.7479 167.22 11.034 166.632 11.6705L166.499 11.8277C165.902 12.5609 165.141 13.8582 164.214 15.7195C163.288 17.5808 162.317 19.841 161.301 22.5H159.38ZM172.916 22.8263C171.942 22.8263 171.152 22.5604 170.548 22.0286C169.951 21.4968 169.677 20.828 169.726 20.0223C169.742 19.6839 169.871 19.3817 170.112 19.1158C170.354 18.8499 170.644 18.7169 170.983 18.7169C171.321 18.7169 171.587 18.8257 171.78 19.0433C171.974 19.2608 172.054 19.5388 172.022 19.8772C171.998 20.0465 171.913 20.2922 171.768 20.6145C171.623 20.9368 171.551 21.1705 171.551 21.3155C171.535 21.662 171.672 21.944 171.962 22.1616C172.26 22.3711 172.671 22.4758 173.194 22.4758C173.815 22.4758 174.375 22.2381 174.874 21.7627C175.39 21.2954 175.66 20.7314 175.684 20.0706C175.717 19.5952 175.563 19.0433 175.225 18.4148C174.895 17.7782 174.48 17.1779 173.98 16.6139C173.489 16.0579 173.082 15.4375 172.759 14.7526C172.437 14.0677 172.292 13.4392 172.324 12.8671C172.397 11.9646 172.832 11.2395 173.63 10.6915C174.46 10.0953 175.386 9.79715 176.409 9.79715C177.344 9.79715 178.094 10.0792 178.658 10.6432C179.246 11.2072 179.528 11.8357 179.504 12.5287C179.487 12.8752 179.371 13.1854 179.153 13.4593C178.936 13.7252 178.666 13.8582 178.343 13.8582C177.658 13.8582 177.328 13.5117 177.352 12.8188C177.376 12.5448 177.489 12.299 177.691 12.0815C177.924 11.7834 178.041 11.5577 178.041 11.4046C178.057 11.0662 177.904 10.7641 177.582 10.4982C177.26 10.2323 176.861 10.0993 176.385 10.0993C175.741 10.0993 175.193 10.2846 174.742 10.6553C174.29 11.0259 174.061 11.5175 174.053 12.1298C174.02 12.5569 174.173 13.0847 174.512 13.7132C174.858 14.3336 175.293 14.9621 175.817 15.5986C176.325 16.1949 176.748 16.8274 177.086 17.4962C177.425 18.165 177.578 18.7371 177.546 19.2125C177.473 20.2116 177.01 21.0617 176.156 21.7627C175.318 22.4718 174.238 22.8263 172.916 22.8263ZM185.982 10.5465L182.96 19.9014C182.557 21.0859 182.598 21.6781 183.081 21.6781C183.412 21.6781 183.863 21.3961 184.435 20.8321C185.007 20.26 185.587 19.5106 186.175 18.584L186.441 18.6444C184.789 21.4324 183.238 22.8263 181.788 22.8263C181.264 22.8263 180.914 22.6047 180.736 22.1616C180.567 21.7184 180.599 21.0537 180.833 20.1673L183.903 10.5465H181.595L181.691 10.1235H184.024L185.063 6.88431L187.287 6.43712L186.103 10.1235C187.191 10.0993 188.254 9.94218 189.294 9.65211L188.919 10.5465H185.982ZM210.747 12.2023C210.747 13.9589 210.296 15.6268 209.393 17.2061C208.467 18.8015 207.254 20.0787 205.755 21.0375C204.232 22.0125 202.629 22.5 200.945 22.5H193.717L193.79 22.1978C194.201 22.1576 194.587 21.9601 194.95 21.6056C195.313 21.2511 195.571 20.7716 195.724 20.1673L198.866 7.02935C199.196 5.77236 198.89 5.09552 197.948 4.99883L198.032 4.67249H204.112C206.126 4.67249 207.738 5.35739 208.946 6.72719C210.147 8.08087 210.747 9.90592 210.747 12.2023ZM200.993 22.1253C202.468 22.1253 203.797 21.5814 204.982 20.4937C206.166 19.43 207.073 18.0764 207.701 16.4326C208.33 14.7969 208.644 13.1411 208.644 11.4651C208.628 9.66017 208.326 8.25411 207.738 7.24691C207.157 6.2397 206.247 5.58301 205.006 5.27682C204.41 5.12372 203.27 5.04717 201.586 5.04717L197.585 21.7869C198.665 22.0125 199.801 22.1253 200.993 22.1253ZM216.923 16.0338L214.01 16.8556C213.841 17.6211 213.757 18.2818 213.757 18.8378C213.757 19.7483 213.942 20.4695 214.313 21.0013C214.691 21.525 215.207 21.7869 215.86 21.7869C217.326 21.7869 218.72 20.8039 220.042 18.8378L220.247 18.9345C219.675 19.9578 218.905 20.8925 217.939 21.7386C217.028 22.5282 216.037 22.923 214.965 22.923C213.982 22.923 213.201 22.5363 212.62 21.7627C212.04 20.9489 211.75 19.99 211.75 18.8862C211.75 17.5002 212.064 16.0982 212.693 14.6801C213.289 13.3103 214.147 12.154 215.267 11.2113C216.363 10.2846 217.511 9.82132 218.712 9.82132C219.494 9.82132 220.187 10.063 220.791 10.5465C221.403 11.0138 221.709 11.6222 221.709 12.3716C221.709 13.2176 221.319 13.9227 220.537 14.4867C219.756 15.0427 218.551 15.5584 216.923 16.0338ZM218.712 10.1718C217.955 10.1718 217.096 10.8487 216.138 12.2023C215.187 13.556 214.502 15.0265 214.083 16.6139C215.13 16.2433 215.948 15.929 216.536 15.6712C217.125 15.4133 217.701 15.0991 218.265 14.7284C219.498 13.9468 220.114 12.9557 220.114 11.7552C220.114 11.2556 219.985 10.8688 219.727 10.5949C219.469 10.3128 219.131 10.1718 218.712 10.1718ZM225.13 22.8263C224.155 22.8263 223.365 22.5604 222.761 22.0286C222.165 21.4968 221.891 20.828 221.939 20.0223C221.955 19.6839 222.084 19.3817 222.326 19.1158C222.568 18.8499 222.858 18.7169 223.196 18.7169C223.535 18.7169 223.8 18.8257 223.994 19.0433C224.187 19.2608 224.268 19.5388 224.236 19.8772C224.211 20.0465 224.127 20.2922 223.982 20.6145C223.837 20.9368 223.764 21.1705 223.764 21.3155C223.748 21.662 223.885 21.944 224.175 22.1616C224.473 22.3711 224.884 22.4758 225.408 22.4758C226.028 22.4758 226.588 22.2381 227.088 21.7627C227.604 21.2954 227.874 20.7314 227.898 20.0706C227.93 19.5952 227.777 19.0433 227.438 18.4148C227.108 17.7782 226.693 17.1779 226.194 16.6139C225.702 16.0579 225.295 15.4375 224.973 14.7526C224.651 14.0677 224.505 13.4392 224.538 12.8671C224.61 11.9646 225.045 11.2395 225.843 10.6915C226.673 10.0953 227.6 9.79715 228.623 9.79715C229.558 9.79715 230.307 10.0792 230.871 10.6432C231.459 11.2072 231.741 11.8357 231.717 12.5287C231.701 12.8752 231.584 13.1854 231.367 13.4593C231.149 13.7252 230.879 13.8582 230.557 13.8582C229.872 13.8582 229.541 13.5117 229.566 12.8188C229.59 12.5448 229.703 12.299 229.904 12.0815C230.138 11.7834 230.255 11.5577 230.255 11.4046C230.271 11.0662 230.118 10.7641 229.795 10.4982C229.473 10.2323 229.074 10.0993 228.599 10.0993C227.954 10.0993 227.406 10.2846 226.955 10.6553C226.504 11.0259 226.274 11.5175 226.266 12.1298C226.234 12.5569 226.387 13.0847 226.725 13.7132C227.072 14.3336 227.507 14.9621 228.031 15.5986C228.538 16.1949 228.961 16.8274 229.3 17.4962C229.638 18.165 229.791 18.7371 229.759 19.2125C229.687 20.2116 229.223 21.0617 228.369 21.7627C227.531 22.4718 226.451 22.8263 225.13 22.8263ZM239.404 7.22273C239.146 7.47252 238.832 7.59741 238.461 7.59741C238.091 7.59741 237.776 7.47252 237.519 7.22273C237.269 6.96489 237.144 6.65467 237.144 6.29208C237.144 5.92143 237.269 5.60718 237.519 5.34934C237.776 5.09149 238.091 4.96257 238.461 4.96257C238.832 4.96257 239.146 5.09149 239.404 5.34934C239.662 5.60718 239.791 5.92143 239.791 6.29208C239.791 6.65467 239.662 6.96489 239.404 7.22273ZM232.599 13.9065C234.412 11.1669 235.996 9.79715 237.349 9.79715C237.97 9.79715 238.268 10.0953 238.244 10.6915C238.228 11.1589 238.087 11.7793 237.821 12.5529L235.295 20.0706C235.101 20.6266 235.005 21.0335 235.005 21.2914C235.005 21.5492 235.133 21.6781 235.391 21.6781C235.689 21.6781 236.104 21.388 236.636 20.8079C237.176 20.2277 237.712 19.4864 238.244 18.584L238.461 18.6928C237.72 20.0465 236.95 21.0698 236.153 21.7627C235.355 22.4557 234.658 22.8022 234.062 22.8022C232.99 22.8022 232.74 21.9158 233.312 20.1431L235.766 12.7462C236.072 11.8438 236.213 11.3321 236.189 11.2113C236.165 11.0501 236.064 10.9695 235.887 10.9695C235.274 10.9695 234.251 11.9848 232.817 14.0153L232.599 13.9065ZM252.143 10.051C252.159 10.3974 252.067 10.6714 251.865 10.8728C251.672 11.0743 251.402 11.171 251.055 11.1629C250.886 11.1549 250.648 11.0421 250.342 10.8245C250.044 10.6069 249.851 10.4982 249.762 10.4982C249.375 10.474 249.061 10.7681 248.819 11.3805C249.222 12.0493 249.424 12.7865 249.424 13.5923C249.448 14.9057 249.001 16.1184 248.082 17.2303C247.188 18.3181 246.076 18.862 244.746 18.862C243.884 18.862 243.147 18.58 242.534 18.0159C241.624 18.3221 241.181 18.721 241.205 19.2125C241.221 19.5187 241.362 19.7846 241.628 20.0102C241.902 20.2277 242.418 20.4816 243.175 20.7716L246.692 22.2583C247.587 22.645 248.227 23.0519 248.614 23.479C249.009 23.9061 249.21 24.4379 249.218 25.0744C249.242 25.9527 248.807 26.694 247.913 27.2983C247.027 27.9107 245.846 28.2169 244.372 28.2169C242.462 28.2169 240.959 27.9228 239.863 27.3346C238.776 26.7544 238.224 26.0413 238.207 25.1953C238.199 24.5426 238.477 23.9544 239.041 23.4307C239.597 22.915 240.335 22.5564 241.253 22.355C240.689 22.0891 240.29 21.807 240.057 21.5089C239.823 21.2108 239.702 20.816 239.694 20.3244C239.686 19.7362 239.932 19.2205 240.431 18.7774C240.939 18.3261 241.584 18.024 242.365 17.8709C241.713 17.1457 241.374 16.215 241.35 15.0789C241.326 13.7494 241.753 12.5367 242.631 11.4409C243.509 10.3451 244.617 9.79715 245.955 9.79715C247.131 9.79715 248.03 10.2443 248.65 11.1387C248.852 10.4941 249.162 9.97844 249.581 9.59168C250.008 9.19685 250.467 9.00347 250.959 9.01153C251.345 9.01959 251.64 9.12031 251.841 9.31369C252.042 9.50707 252.143 9.75283 252.143 10.051ZM244.19 18.4631C245.028 18.4631 245.854 17.7379 246.668 16.2876C247.506 14.7969 247.913 13.4191 247.889 12.154C247.889 10.8648 247.474 10.2202 246.644 10.2202C245.749 10.2202 244.891 10.9373 244.069 12.3716C243.28 13.7736 242.885 15.1112 242.885 16.3843C242.909 17.7702 243.344 18.4631 244.19 18.4631ZM245.858 24.2525L242.269 22.8022L241.543 22.5C240.963 22.7417 240.516 23.0922 240.202 23.5515C239.896 24.0189 239.751 24.5104 239.767 25.0261C239.807 25.9285 240.226 26.6255 241.024 27.117C241.821 27.6166 242.97 27.8664 244.468 27.8664C245.379 27.8664 246.116 27.7093 246.68 27.395C247.244 27.0808 247.53 26.6295 247.538 26.0413C247.562 25.3403 247.002 24.744 245.858 24.2525ZM259.878 22.8505C259.306 22.8505 258.956 22.5927 258.827 22.077C258.698 21.5613 258.803 20.8764 259.141 20.0223L260.978 14.8976C261.51 13.4714 261.768 12.432 261.752 11.7793C261.736 11.1186 261.434 10.7882 260.845 10.7882C259.347 10.7882 256.937 14.6922 253.618 22.5H251.841C253.888 16.1345 254.935 12.859 254.983 12.6737C255.08 12.3998 255.153 12.158 255.201 11.9485C255.257 11.739 255.29 11.5497 255.298 11.3805C255.314 11.2032 255.298 11.0703 255.249 10.9816C255.201 10.8849 255.12 10.8366 255.008 10.8366C254.718 10.8366 254.282 11.1307 253.702 11.7189C253.13 12.299 252.558 13.0363 251.986 13.9307L251.793 13.834C253.444 11.1428 254.955 9.79715 256.325 9.79715C257.324 9.79715 257.586 10.6392 257.111 12.3232C256.893 13.0081 256.39 14.4464 255.6 16.6381L254.79 18.9345L254.863 18.9587C256.603 15.0749 258.045 12.5247 259.19 11.308C259.729 10.7278 260.201 10.333 260.604 10.1235C261.015 9.90592 261.47 9.79715 261.969 9.79715C262.276 9.79715 262.554 9.87369 262.803 10.0268C263.053 10.1718 263.263 10.3974 263.432 10.7036C263.609 11.0018 263.69 11.4248 263.674 11.9727C263.657 12.5206 263.525 13.1491 263.275 13.8582L261.268 19.708C260.922 20.6911 260.773 21.2833 260.821 21.4847C260.845 21.6539 260.954 21.7386 261.148 21.7386C261.389 21.7386 261.8 21.4485 262.38 20.8683C263.025 20.1995 263.581 19.4824 264.048 18.7169L264.266 18.8378C263.67 19.8289 262.936 20.7596 262.066 21.6298C261.252 22.4436 260.523 22.8505 259.878 22.8505Z" fill="#171515"/>
<path d="M265.506 31.07H0V32.93H265.506V31.07Z" fill="black" mask="url(#path-1-inside-1_958_4886)"/>
</svg>
