<svg width="259" height="32" viewBox="0 0 259 32" fill="none" xmlns="http://www.w3.org/2000/svg">
<path d="M45.5062 16L41.0245 13.4125V18.5875L45.5062 16ZM0 16.4482H41.4727V15.5518H0V16.4482Z" fill="#171515"/>
<path d="M67.1213 20.1431C67.4436 20.8925 67.782 21.4203 68.1366 21.7265C68.4911 22.0246 68.9101 22.1817 69.3936 22.1978L69.321 22.5H67.2422C66.2188 22.5 65.4735 21.9239 65.0062 20.7716L62.3592 14.2087H60.7034L59.2893 20.119C58.9831 21.4082 59.2812 22.1011 60.1837 22.1978L60.1112 22.5H55.1074L55.1799 22.1978C55.615 22.1576 56.0058 21.9642 56.3523 21.6177C56.7068 21.2712 56.9606 20.7716 57.1137 20.119L60.2562 7.02935C60.5866 5.74819 60.2804 5.07135 59.3376 4.99883L59.4222 4.67249H64.8128C66.3921 4.67249 67.7135 5.06329 68.7771 5.84488C69.8166 6.61035 70.3363 7.65785 70.3363 8.98736C70.3363 10.4861 69.6675 11.731 68.3299 12.7221C67.0165 13.7132 65.4977 14.2087 63.7734 14.2087H63.3262L63.2778 14.4021L64.8128 14.6559L67.1213 20.1431ZM62.9273 5.023L60.8243 13.7373C61.912 13.834 62.6292 13.8824 62.9756 13.8824C64.4099 13.8824 65.6065 13.3788 66.5653 12.3716C67.5484 11.3402 68.0278 10.1879 68.0036 8.91484C68.0036 7.74648 67.6491 6.80777 66.94 6.09869C66.2309 5.38157 65.26 5.023 64.0272 5.023H62.9273ZM76.3312 16.0338L73.4183 16.8556C73.2491 17.6211 73.1645 18.2818 73.1645 18.8378C73.1645 19.7483 73.3498 20.4695 73.7205 21.0013C74.0992 21.525 74.6149 21.7869 75.2676 21.7869C76.7341 21.7869 78.128 20.8039 79.4495 18.8378L79.6549 18.9345C79.0828 19.9578 78.3133 20.8925 77.3464 21.7386C76.4359 22.5282 75.4448 22.923 74.3732 22.923C73.3901 22.923 72.6085 22.5363 72.0284 21.7627C71.4482 20.9489 71.1582 19.99 71.1582 18.8862C71.1582 17.5002 71.4724 16.0982 72.1009 14.6801C72.6972 13.3103 73.5553 12.154 74.6753 11.2113C75.7712 10.2846 76.9194 9.82132 78.12 9.82132C78.9016 9.82132 79.5945 10.063 80.1988 10.5465C80.8112 11.0138 81.1174 11.6222 81.1174 12.3716C81.1174 13.2176 80.7266 13.9227 79.945 14.4867C79.1634 15.0427 77.9588 15.5584 76.3312 16.0338ZM78.12 10.1718C77.3625 10.1718 76.5044 10.8487 75.5456 12.2023C74.5948 13.556 73.9099 15.0265 73.4909 16.6139C74.5383 16.2433 75.3562 15.929 75.9444 15.6712C76.5326 15.4133 77.1087 15.0991 77.6728 14.7284C78.9056 13.9468 79.522 12.9557 79.522 11.7552C79.522 11.2556 79.3931 10.8688 79.1352 10.5949C78.8774 10.3128 78.539 10.1718 78.12 10.1718ZM84.5379 22.8263C83.5629 22.8263 82.7732 22.5604 82.1689 22.0286C81.5727 21.4968 81.2987 20.828 81.347 20.0223C81.3632 19.6839 81.4921 19.3817 81.7338 19.1158C81.9755 18.8499 82.2656 18.7169 82.604 18.7169C82.9425 18.7169 83.2084 18.8257 83.4017 19.0433C83.5951 19.2608 83.6757 19.5388 83.6435 19.8772C83.6193 20.0465 83.5347 20.2922 83.3897 20.6145C83.2446 20.9368 83.1721 21.1705 83.1721 21.3155C83.156 21.662 83.293 21.944 83.583 22.1616C83.8812 22.3711 84.2921 22.4758 84.8159 22.4758C85.4363 22.4758 85.9963 22.2381 86.4959 21.7627C87.0116 21.2954 87.2815 20.7314 87.3057 20.0706C87.3379 19.5952 87.1848 19.0433 86.8464 18.4148C86.516 17.7782 86.101 17.1779 85.6015 16.6139C85.11 16.0579 84.703 15.4375 84.3807 14.7526C84.0584 14.0677 83.9134 13.4392 83.9456 12.8671C84.0181 11.9646 84.4533 11.2395 85.251 10.6915C86.0809 10.0953 87.0075 9.79715 88.0308 9.79715C88.9655 9.79715 89.7149 10.0792 90.2789 10.6432C90.8671 11.2072 91.1492 11.8357 91.125 12.5287C91.1089 12.8752 90.992 13.1854 90.7745 13.4593C90.5569 13.7252 90.287 13.8582 89.9647 13.8582C89.2798 13.8582 88.9494 13.5117 88.9736 12.8188C88.9978 12.5448 89.1106 12.299 89.312 12.0815C89.5457 11.7834 89.6625 11.5577 89.6625 11.4046C89.6786 11.0662 89.5255 10.7641 89.2032 10.4982C88.8809 10.2323 88.4821 10.0993 88.0067 10.0993C87.3621 10.0993 86.8141 10.2846 86.3629 10.6553C85.9117 11.0259 85.682 11.5175 85.674 12.1298C85.6418 12.5569 85.7949 13.0847 86.1333 13.7132C86.4798 14.3336 86.9149 14.9621 87.4386 15.5986C87.9462 16.1949 88.3693 16.8274 88.7077 17.4962C89.0461 18.165 89.1992 18.7371 89.167 19.2125C89.0945 20.2116 88.6311 21.0617 87.777 21.7627C86.939 22.4718 85.8593 22.8263 84.5379 22.8263ZM98.3889 9.79715C99.7184 9.79715 100.794 10.2 101.616 11.0058C102.438 11.8116 102.849 12.9437 102.849 14.4021C102.849 16.5535 102.079 18.4954 100.54 20.2277C99.0013 21.9601 97.2206 22.8263 95.1981 22.8263C94.5696 22.8263 93.9572 22.7337 93.361 22.5483L92.3457 25.7392C92.1443 26.4966 92.1322 26.9921 92.3095 27.2258C92.4948 27.4675 92.9702 27.6085 93.7357 27.6488L93.639 27.951H88.3209L88.3934 27.673C88.9252 27.6166 89.3241 27.4675 89.59 27.2258C89.8559 26.9841 90.0815 26.5651 90.2668 25.9688L95.1739 10.6915C94.5857 10.9172 93.7357 11.2959 92.6237 11.8277L92.7446 11.3563C94.5172 10.7197 96.1368 9.94621 97.6033 9.0357H97.7242L97.4462 9.90592C97.7766 9.83341 98.0908 9.79715 98.3889 9.79715ZM94.7993 22.4275C95.7984 22.4597 96.7734 22.0689 97.7242 21.2551C98.675 20.4332 99.4284 19.4018 99.9843 18.161C100.54 16.912 100.802 15.6832 100.77 14.4746C100.77 11.598 99.6298 10.1718 97.3495 10.196L93.4939 22.1978C93.9371 22.3509 94.3722 22.4275 94.7993 22.4275ZM108.336 22.8263C107.168 22.8263 106.249 22.3872 105.58 21.5089C104.944 20.6226 104.626 19.5106 104.626 18.1731C104.626 16.8597 104.916 15.5624 105.496 14.2812C106.076 13.0001 106.866 11.9364 107.865 11.0904C108.872 10.2282 109.952 9.79715 111.104 9.79715C112.248 9.79715 113.155 10.2443 113.823 11.1387C114.484 12.0009 114.814 13.1048 114.814 14.4504C114.847 15.3771 114.685 16.348 114.331 17.3633C113.976 18.3705 113.501 19.281 112.905 20.0948C112.317 20.9006 111.612 21.5653 110.79 22.0891C109.976 22.6047 109.158 22.8505 108.336 22.8263ZM107.563 22.2824C108.409 22.2824 109.299 21.7184 110.234 20.5903C111.168 19.4623 111.906 18.169 112.445 16.7106C113.001 15.2522 113.279 13.9549 113.279 12.8188C113.279 12.0452 113.146 11.4409 112.881 11.0058C112.623 10.5626 112.252 10.341 111.769 10.341C110.931 10.341 110.048 10.9131 109.122 12.0573C108.235 13.1531 107.502 14.4625 106.922 15.9854C106.374 17.4841 106.1 18.7733 106.1 19.8531C106.1 20.6105 106.225 21.2068 106.475 21.6419C106.725 22.0689 107.087 22.2824 107.563 22.2824ZM124.58 22.8505C124.008 22.8505 123.658 22.5927 123.529 22.077C123.4 21.5613 123.505 20.8764 123.843 20.0223L125.68 14.8976C126.212 13.4714 126.47 12.432 126.454 11.7793C126.438 11.1186 126.135 10.7882 125.547 10.7882C124.048 10.7882 121.639 14.6922 118.319 22.5H116.543C118.589 16.1345 119.637 12.859 119.685 12.6737C119.782 12.3998 119.854 12.158 119.903 11.9485C119.959 11.739 119.991 11.5497 119.999 11.3805C120.016 11.2032 119.999 11.0703 119.951 10.9816C119.903 10.8849 119.822 10.8366 119.709 10.8366C119.419 10.8366 118.984 11.1307 118.404 11.7189C117.832 12.299 117.26 13.0363 116.688 13.9307L116.494 13.834C118.146 11.1428 119.657 9.79715 121.027 9.79715C122.026 9.79715 122.288 10.6392 121.812 12.3232C121.595 13.0081 121.091 14.4464 120.302 16.6381L119.492 18.9345L119.564 18.9587C121.305 15.0749 122.747 12.5247 123.891 11.308C124.431 10.7278 124.903 10.333 125.305 10.1235C125.716 9.90592 126.172 9.79715 126.671 9.79715C126.977 9.79715 127.255 9.87369 127.505 10.0268C127.755 10.1718 127.964 10.3974 128.134 10.7036C128.311 11.0018 128.392 11.4248 128.375 11.9727C128.359 12.5206 128.226 13.1491 127.977 13.8582L125.97 19.708C125.624 20.6911 125.475 21.2833 125.523 21.4847C125.547 21.6539 125.656 21.7386 125.849 21.7386C126.091 21.7386 126.502 21.4485 127.082 20.8683C127.727 20.1995 128.283 19.4824 128.75 18.7169L128.968 18.8378C128.371 19.8289 127.638 20.7596 126.768 21.6298C125.954 22.4436 125.225 22.8505 124.58 22.8505ZM133.005 22.8263C132.03 22.8263 131.24 22.5604 130.636 22.0286C130.039 21.4968 129.765 20.828 129.814 20.0223C129.83 19.6839 129.959 19.3817 130.2 19.1158C130.442 18.8499 130.732 18.7169 131.071 18.7169C131.409 18.7169 131.675 18.8257 131.868 19.0433C132.062 19.2608 132.142 19.5388 132.11 19.8772C132.086 20.0465 132.001 20.2922 131.856 20.6145C131.711 20.9368 131.639 21.1705 131.639 21.3155C131.623 21.662 131.76 21.944 132.05 22.1616C132.348 22.3711 132.759 22.4758 133.282 22.4758C133.903 22.4758 134.463 22.2381 134.963 21.7627C135.478 21.2954 135.748 20.7314 135.772 20.0706C135.805 19.5952 135.651 19.0433 135.313 18.4148C134.983 17.7782 134.568 17.1779 134.068 16.6139C133.577 16.0579 133.17 15.4375 132.847 14.7526C132.525 14.0677 132.38 13.4392 132.412 12.8671C132.485 11.9646 132.92 11.2395 133.718 10.6915C134.548 10.0953 135.474 9.79715 136.497 9.79715C137.432 9.79715 138.182 10.0792 138.746 10.6432C139.334 11.2072 139.616 11.8357 139.592 12.5287C139.576 12.8752 139.459 13.1854 139.241 13.4593C139.024 13.7252 138.754 13.8582 138.431 13.8582C137.746 13.8582 137.416 13.5117 137.44 12.8188C137.464 12.5448 137.577 12.299 137.779 12.0815C138.012 11.7834 138.129 11.5577 138.129 11.4046C138.145 11.0662 137.992 10.7641 137.67 10.4982C137.348 10.2323 136.949 10.0993 136.473 10.0993C135.829 10.0993 135.281 10.2846 134.83 10.6553C134.378 11.0259 134.149 11.5175 134.141 12.1298C134.108 12.5569 134.261 13.0847 134.6 13.7132C134.946 14.3336 135.382 14.9621 135.905 15.5986C136.413 16.1949 136.836 16.8274 137.174 17.4962C137.513 18.165 137.666 18.7371 137.634 19.2125C137.561 20.2116 137.098 21.0617 136.244 21.7627C135.406 22.4718 134.326 22.8263 133.005 22.8263ZM147.279 7.22273C147.021 7.47252 146.707 7.59741 146.336 7.59741C145.965 7.59741 145.651 7.47252 145.393 7.22273C145.143 6.96489 145.018 6.65467 145.018 6.29208C145.018 5.92143 145.143 5.60718 145.393 5.34934C145.651 5.09149 145.965 4.96257 146.336 4.96257C146.707 4.96257 147.021 5.09149 147.279 5.34934C147.536 5.60718 147.665 5.92143 147.665 6.29208C147.665 6.65467 147.536 6.96489 147.279 7.22273ZM140.474 13.9065C142.287 11.1669 143.87 9.79715 145.224 9.79715C145.844 9.79715 146.142 10.0953 146.118 10.6915C146.102 11.1589 145.961 11.7793 145.695 12.5529L143.169 20.0706C142.976 20.6266 142.879 21.0335 142.879 21.2914C142.879 21.5492 143.008 21.6781 143.266 21.6781C143.564 21.6781 143.979 21.388 144.511 20.8079C145.051 20.2277 145.586 19.4864 146.118 18.584L146.336 18.6928C145.595 20.0465 144.825 21.0698 144.027 21.7627C143.23 22.4557 142.533 22.8022 141.936 22.8022C140.865 22.8022 140.615 21.9158 141.187 20.1431L143.641 12.7462C143.947 11.8438 144.088 11.3321 144.064 11.2113C144.039 11.0501 143.939 10.9695 143.761 10.9695C143.149 10.9695 142.126 11.9848 140.691 14.0153L140.474 13.9065ZM158.193 9.79715C158.563 9.79715 158.849 10.0228 159.051 10.474C159.252 10.9252 159.353 11.5336 159.353 12.299C159.353 13.8622 159.079 15.4536 158.531 17.0732C158.015 18.6686 157.242 20.0303 156.21 21.1584C155.195 22.2704 154.079 22.8263 152.863 22.8263C151.912 22.8263 151.17 22.5242 150.639 21.9199C150.107 21.3155 149.861 20.4856 149.901 19.43C149.926 17.6251 151.469 15.0588 154.53 11.731H150.856C149.011 11.731 148.088 12.3353 148.088 13.5439C148.088 14.0032 148.254 14.2329 148.584 14.2329C148.616 14.2329 148.749 14.1362 148.983 13.9428C149.216 13.7414 149.43 13.6406 149.623 13.6406C149.833 13.6406 150.002 13.7172 150.131 13.8703C150.268 14.0153 150.336 14.1926 150.336 14.4021C150.336 14.668 150.236 14.8976 150.034 15.091C149.841 15.2763 149.579 15.369 149.249 15.369C148.838 15.369 148.503 15.1958 148.246 14.8493C147.996 14.4947 147.871 14.0435 147.871 13.4956C147.871 12.3998 148.233 11.5658 148.959 10.9937C149.684 10.4136 150.739 10.1235 152.125 10.1235H154.772C155.256 10.1235 155.578 10.0308 155.739 9.84549L155.932 9.97844L154.917 11.8035C153.692 13.2458 152.81 14.4424 152.27 15.3932C151.73 16.344 151.461 17.2867 151.461 18.2214C151.461 20.0666 152.303 20.9892 153.987 20.9892C155.155 20.9892 156.235 20.256 157.226 18.7895C158.217 17.331 158.712 15.8927 158.712 14.4746C158.712 14.0798 158.628 13.6769 158.459 13.266C158.297 12.855 158.116 12.5126 157.915 12.2386C157.721 11.9646 157.54 11.6947 157.371 11.4288C157.21 11.1549 157.129 10.9413 157.129 10.7882C157.129 10.4901 157.222 10.2524 157.407 10.0751C157.6 9.88981 157.862 9.79715 158.193 9.79715ZM165.916 16.0338L163.003 16.8556C162.834 17.6211 162.749 18.2818 162.749 18.8378C162.749 19.7483 162.935 20.4695 163.305 21.0013C163.684 21.525 164.2 21.7869 164.852 21.7869C166.319 21.7869 167.713 20.8039 169.034 18.8378L169.24 18.9345C168.668 19.9578 167.898 20.8925 166.931 21.7386C166.021 22.5282 165.03 22.923 163.958 22.923C162.975 22.923 162.193 22.5363 161.613 21.7627C161.033 20.9489 160.743 19.99 160.743 18.8862C160.743 17.5002 161.057 16.0982 161.686 14.6801C162.282 13.3103 163.14 12.154 164.26 11.2113C165.356 10.2846 166.504 9.82132 167.705 9.82132C168.486 9.82132 169.179 10.063 169.784 10.5465C170.396 11.0138 170.702 11.6222 170.702 12.3716C170.702 13.2176 170.311 13.9227 169.53 14.4867C168.748 15.0427 167.544 15.5584 165.916 16.0338ZM167.705 10.1718C166.947 10.1718 166.089 10.8487 165.13 12.2023C164.179 13.556 163.495 15.0265 163.076 16.6139C164.123 16.2433 164.941 15.929 165.529 15.6712C166.117 15.4133 166.693 15.0991 167.257 14.7284C168.49 13.9468 169.107 12.9557 169.107 11.7552C169.107 11.2556 168.978 10.8688 168.72 10.5949C168.462 10.3128 168.124 10.1718 167.705 10.1718ZM198.646 4.67249H203.468L203.372 4.97466C202.268 4.99883 201.293 5.66761 200.447 6.98101C198.167 10.8164 196.962 12.855 196.833 13.0967L195.443 15.4657C194.653 16.8758 194.242 17.613 194.21 17.6775C194.138 17.8145 194.005 18.0683 193.811 18.439C193.618 18.8015 193.461 19.0997 193.34 19.3334C192.76 20.4292 192.458 21.3598 192.434 22.1253C191.571 22.3509 190.886 22.6168 190.379 22.923L189.46 12.0815L188.868 13.0967L187.853 14.8009L186.91 16.4084L186.137 17.7742C185.814 18.3302 185.585 18.7653 185.448 19.0795C185.166 19.6275 184.932 20.1794 184.747 20.7354C184.561 21.2914 184.473 21.7305 184.481 22.0528C183.627 22.3429 182.958 22.6168 182.474 22.8747L181.29 9.20491C181.121 7.39194 180.947 6.31222 180.77 5.96574C180.496 5.45006 180.033 5.11969 179.38 4.97466L179.453 4.67249H185.206L185.121 4.97466C184.283 5.14387 183.755 5.54675 183.538 6.1833C183.385 6.61841 183.345 7.43626 183.417 8.63685L184.481 20.1673C184.803 19.4099 186.124 17.0289 188.445 13.0242L189.388 11.3563L189.206 9.20491L189.086 7.76662L189.013 7.15022C189.005 6.97295 188.993 6.83597 188.977 6.73928C188.961 6.64258 188.924 6.52172 188.868 6.37668C188.82 6.23165 188.787 6.13495 188.771 6.08661C188.61 5.48229 188.163 5.11164 187.43 4.97466L187.502 4.67249H193.147L193.074 4.97466C192.252 5.11969 191.733 5.52257 191.515 6.1833C191.362 6.52978 191.322 7.34763 191.394 8.63685L192.434 20.2761C192.861 19.3414 194.178 16.9241 196.386 13.0242C196.434 12.9437 196.535 12.7664 196.688 12.4924C196.849 12.2104 196.99 11.9727 197.111 11.7793L197.848 10.5223C198.283 9.76492 198.686 9.03973 199.057 8.34677C199.605 7.28317 199.879 6.53784 199.879 6.11078C199.879 5.37754 199.432 4.99883 198.537 4.97466L198.646 4.67249ZM204.302 16.0338L201.39 16.8556C201.22 17.6211 201.136 18.2818 201.136 18.8378C201.136 19.7483 201.321 20.4695 201.692 21.0013C202.07 21.525 202.586 21.7869 203.239 21.7869C204.705 21.7869 206.099 20.8039 207.421 18.8378L207.626 18.9345C207.054 19.9578 206.285 20.8925 205.318 21.7386C204.407 22.5282 203.416 22.923 202.344 22.923C201.361 22.923 200.58 22.5363 200 21.7627C199.42 20.9489 199.129 19.99 199.129 18.8862C199.129 17.5002 199.444 16.0982 200.072 14.6801C200.668 13.3103 201.527 12.154 202.647 11.2113C203.742 10.2846 204.891 9.82132 206.091 9.82132C206.873 9.82132 207.566 10.063 208.17 10.5465C208.782 11.0138 209.089 11.6222 209.089 12.3716C209.089 13.2176 208.698 13.9227 207.916 14.4867C207.135 15.0427 205.93 15.5584 204.302 16.0338ZM206.091 10.1718C205.334 10.1718 204.476 10.8487 203.517 12.2023C202.566 13.556 201.881 15.0265 201.462 16.6139C202.51 16.2433 203.327 15.929 203.916 15.6712C204.504 15.4133 205.08 15.0991 205.644 14.7284C206.877 13.9468 207.493 12.9557 207.493 11.7552C207.493 11.2556 207.364 10.8688 207.106 10.5949C206.849 10.3128 206.51 10.1718 206.091 10.1718ZM218.528 9.7488C219.415 9.7488 220.107 10.0872 220.607 10.7641C221.107 11.4328 221.356 12.3232 221.356 13.4352C221.356 14.805 220.978 16.2191 220.22 17.6775C219.503 19.1037 218.512 20.3244 217.247 21.3397C216.038 22.3308 214.81 22.8263 213.561 22.8263C212.755 22.8263 212.022 22.6088 211.361 22.1737C210.708 21.7305 210.201 21.1866 209.838 20.542L214.032 6.81179C214.298 6.11078 214.354 5.58704 214.201 5.24056C214.056 4.88602 213.677 4.74904 213.065 4.82962L213.138 4.52746L216.945 3.63306L213.609 14.4021C214.278 13.0645 215.043 11.9606 215.905 11.0904C216.776 10.196 217.65 9.7488 218.528 9.7488ZM212.05 20.3244C212.05 21.7426 212.509 22.4517 213.428 22.4517C214.346 22.4517 215.273 21.8997 216.208 20.7958C217.158 19.6758 217.916 18.3866 218.48 16.9281C219.06 15.4375 219.35 14.1523 219.35 13.0726C219.35 11.4852 218.806 10.6915 217.718 10.6915C216.953 10.6915 216.111 11.2959 215.192 12.5045C214.282 13.6729 213.528 15.0225 212.932 16.5535C212.344 18.0522 212.05 19.3092 212.05 20.3244ZM224.982 22.8263C224.007 22.8263 223.218 22.5604 222.613 22.0286C222.017 21.4968 221.743 20.828 221.792 20.0223C221.808 19.6839 221.937 19.3817 222.178 19.1158C222.42 18.8499 222.71 18.7169 223.049 18.7169C223.387 18.7169 223.653 18.8257 223.846 19.0433C224.04 19.2608 224.12 19.5388 224.088 19.8772C224.064 20.0465 223.979 20.2922 223.834 20.6145C223.689 20.9368 223.617 21.1705 223.617 21.3155C223.6 21.662 223.737 21.944 224.028 22.1616C224.326 22.3711 224.737 22.4758 225.26 22.4758C225.881 22.4758 226.441 22.2381 226.94 21.7627C227.456 21.2954 227.726 20.7314 227.75 20.0706C227.782 19.5952 227.629 19.0433 227.291 18.4148C226.96 17.7782 226.546 17.1779 226.046 16.6139C225.554 16.0579 225.148 15.4375 224.825 14.7526C224.503 14.0677 224.358 13.4392 224.39 12.8671C224.463 11.9646 224.898 11.2395 225.695 10.6915C226.525 10.0953 227.452 9.79715 228.475 9.79715C229.41 9.79715 230.159 10.0792 230.723 10.6432C231.312 11.2072 231.594 11.8357 231.569 12.5287C231.553 12.8752 231.437 13.1854 231.219 13.4593C231.001 13.7252 230.731 13.8582 230.409 13.8582C229.724 13.8582 229.394 13.5117 229.418 12.8188C229.442 12.5448 229.555 12.299 229.756 12.0815C229.99 11.7834 230.107 11.5577 230.107 11.4046C230.123 11.0662 229.97 10.7641 229.648 10.4982C229.325 10.2323 228.927 10.0993 228.451 10.0993C227.807 10.0993 227.259 10.2846 226.807 10.6553C226.356 11.0259 226.127 11.5175 226.118 12.1298C226.086 12.5569 226.239 13.0847 226.578 13.7132C226.924 14.3336 227.359 14.9621 227.883 15.5986C228.391 16.1949 228.814 16.8274 229.152 17.4962C229.491 18.165 229.644 18.7371 229.611 19.2125C229.539 20.2116 229.076 21.0617 228.222 21.7627C227.384 22.4718 226.304 22.8263 224.982 22.8263ZM239.256 7.22273C238.999 7.47252 238.684 7.59741 238.314 7.59741C237.943 7.59741 237.629 7.47252 237.371 7.22273C237.121 6.96489 236.996 6.65467 236.996 6.29208C236.996 5.92143 237.121 5.60718 237.371 5.34934C237.629 5.09149 237.943 4.96257 238.314 4.96257C238.684 4.96257 238.999 5.09149 239.256 5.34934C239.514 5.60718 239.643 5.92143 239.643 6.29208C239.643 6.65467 239.514 6.96489 239.256 7.22273ZM232.452 13.9065C234.265 11.1669 235.848 9.79715 237.202 9.79715C237.822 9.79715 238.12 10.0953 238.096 10.6915C238.08 11.1589 237.939 11.7793 237.673 12.5529L235.147 20.0706C234.954 20.6266 234.857 21.0335 234.857 21.2914C234.857 21.5492 234.986 21.6781 235.244 21.6781C235.542 21.6781 235.957 21.388 236.489 20.8079C237.029 20.2277 237.564 19.4864 238.096 18.584L238.314 18.6928C237.572 20.0465 236.803 21.0698 236.005 21.7627C235.207 22.4557 234.51 22.8022 233.914 22.8022C232.843 22.8022 232.593 21.9158 233.165 20.1431L235.618 12.7462C235.925 11.8438 236.066 11.3321 236.041 11.2113C236.017 11.0501 235.917 10.9695 235.739 10.9695C235.127 10.9695 234.104 11.9848 232.669 14.0153L232.452 13.9065ZM245.662 10.5465L242.641 19.9014C242.238 21.0859 242.278 21.6781 242.762 21.6781C243.092 21.6781 243.543 21.3961 244.115 20.8321C244.687 20.26 245.267 19.5106 245.856 18.584L246.122 18.6444C244.47 21.4324 242.919 22.8263 241.468 22.8263C240.945 22.8263 240.594 22.6047 240.417 22.1616C240.248 21.7184 240.28 21.0537 240.513 20.1673L243.583 10.5465H241.275L241.372 10.1235H243.704L244.744 6.88431L246.968 6.43712L245.783 10.1235C246.871 10.0993 247.935 9.94218 248.974 9.65211L248.599 10.5465H245.662ZM253.47 16.0338L250.557 16.8556C250.388 17.6211 250.303 18.2818 250.303 18.8378C250.303 19.7483 250.489 20.4695 250.859 21.0013C251.238 21.525 251.754 21.7869 252.406 21.7869C253.873 21.7869 255.267 20.8039 256.588 18.8378L256.794 18.9345C256.222 19.9578 255.452 20.8925 254.485 21.7386C253.575 22.5282 252.584 22.923 251.512 22.923C250.529 22.923 249.747 22.5363 249.167 21.7627C248.587 20.9489 248.297 19.99 248.297 18.8862C248.297 17.5002 248.611 16.0982 249.24 14.6801C249.836 13.3103 250.694 12.154 251.814 11.2113C252.91 10.2846 254.058 9.82132 255.259 9.82132C256.04 9.82132 256.733 10.063 257.338 10.5465C257.95 11.0138 258.256 11.6222 258.256 12.3716C258.256 13.2176 257.866 13.9227 257.084 14.4867C256.302 15.0427 255.098 15.5584 253.47 16.0338ZM255.259 10.1718C254.501 10.1718 253.643 10.8487 252.684 12.2023C251.734 13.556 251.049 15.0265 250.63 16.6139C251.677 16.2433 252.495 15.929 253.083 15.6712C253.672 15.4133 254.248 15.0991 254.812 14.7284C256.045 13.9468 256.661 12.9557 256.661 11.7552C256.661 11.2556 256.532 10.8688 256.274 10.5949C256.016 10.3128 255.678 10.1718 255.259 10.1718Z" fill="#171515"/>
<path d="M258.506 31.07H0V32.93H258.506V31.07Z" fill="black" mask="url(#path-1-inside-1_1175_19394)"/>
</svg>
