<svg width="305" height="46" viewBox="0 0 305 46" fill="none" xmlns="http://www.w3.org/2000/svg">
<path d="M61.3399 23L53.8399 18.6699V27.3301L61.3399 23ZM0 23.75H54.5899V22.25H0V23.75Z" fill="#105EFB"/>
<path d="M83.7567 31.9399C80.9436 31.9399 78.9831 31.0927 77.8753 29.3983C76.7783 27.704 76.6208 25.2548 77.4028 22.0507L80.1724 10.4835C80.3788 9.73404 80.3517 9.13124 80.091 8.67507C79.8303 8.20804 79.3687 7.94193 78.7062 7.87677L78.8039 7.46947H85.9235L85.8583 7.87677C84.4246 7.97452 83.5231 8.83256 83.1539 10.4509L80.3517 22.0507C79.5914 24.8312 79.5859 27.0577 80.3354 28.7304C81.0848 30.403 82.513 31.2393 84.6201 31.2393C86.3797 31.2393 87.9654 30.4899 89.3774 28.991C90.7893 27.4922 91.8483 25.2711 92.5543 22.3277L95.2587 11.0537C95.704 9.06607 94.9818 8.0071 93.0919 7.87677L93.1897 7.46947H99.739L99.625 7.87677C97.822 7.97452 96.6544 9.03349 96.1222 11.0537L93.1897 22.3277C91.4953 28.7358 88.351 31.9399 83.7567 31.9399ZM113.88 7.46947H120.495L120.397 7.87677C118.79 8.03969 116.797 9.48423 114.418 12.2104L109.123 18.3524L112.691 28.1602C113.039 29.1377 113.44 29.8491 113.897 30.2944C114.353 30.7397 114.918 30.995 115.591 31.0601L115.493 31.5H108.243L108.357 31.0601C109.693 30.7994 109.949 29.4907 109.123 27.1338L106.81 20.6496L101.71 26.5636C100.592 27.9212 100.081 28.9748 100.179 29.7242C100.287 30.4628 100.977 30.9081 102.248 31.0601L102.15 31.5H94.3627L94.4767 31.0601C95.5085 30.9298 96.5838 30.4628 97.7025 29.659C98.8429 28.8444 100.233 27.4922 101.873 25.6023L106.614 20.1283L103.486 11.3795C102.965 9.9567 102.541 9.05521 102.215 8.67507C101.846 8.24062 101.319 7.97452 100.635 7.87677L100.749 7.46947H107.787L107.689 7.87677C106.277 8.24605 105.919 9.41363 106.614 11.3795L108.944 17.8148L113.848 12.1778C115.966 9.71232 115.944 8.27863 113.783 7.87677L113.88 7.46947ZM114.402 36.8112L120.739 28.5675L136.298 7.46947H137.227L130.514 16.2182L121.016 29.0236L115.33 36.8112H114.402ZM143.548 31.9399C140.735 31.9399 138.774 31.0927 137.667 29.3983C136.57 27.704 136.412 25.2548 137.194 22.0507L139.964 10.4835C140.17 9.73404 140.143 9.13124 139.882 8.67507C139.622 8.20804 139.16 7.94193 138.497 7.87677L138.595 7.46947H145.715L145.65 7.87677C144.216 7.97452 143.314 8.83256 142.945 10.4509L140.143 22.0507C139.383 24.8312 139.377 27.0577 140.127 28.7304C140.876 30.403 142.304 31.2393 144.411 31.2393C146.171 31.2393 147.757 30.4899 149.169 28.991C150.581 27.4922 151.64 25.2711 152.345 22.3277L155.05 11.0537C155.495 9.06607 154.773 8.0071 152.883 7.87677L152.981 7.46947H159.53L159.416 7.87677C157.613 7.97452 156.446 9.03349 155.913 11.0537L152.981 22.3277C151.287 28.7358 148.142 31.9399 143.548 31.9399ZM155.767 31.5L155.865 31.0601C157.157 30.9298 158.026 30.0283 158.471 28.3557L162.74 10.5161C163.174 8.88686 162.751 8.0071 161.469 7.87677L161.567 7.46947H168.377L168.279 7.87677C167.616 7.93107 167.079 8.15373 166.666 8.54473C166.253 8.92488 165.944 9.58198 165.737 10.5161L161.436 28.4045C161.23 29.154 161.241 29.7676 161.469 30.2455C161.708 30.7234 162.121 30.995 162.707 31.0601L162.609 31.5H155.767ZM196.79 17.6193C196.79 19.9871 196.182 22.2353 194.965 24.3642C193.716 26.5147 192.081 28.2362 190.061 29.5287C188.008 30.8429 185.847 31.5 183.577 31.5H173.834L173.932 31.0927C174.486 31.0384 175.008 30.7723 175.496 30.2944C175.985 29.8165 176.333 29.1703 176.539 28.3557L180.775 10.6464C181.22 8.95203 180.807 8.03969 179.537 7.90935L179.651 7.46947H187.846C190.561 7.46947 192.733 8.39268 194.362 10.2391C195.981 12.0638 196.79 14.5239 196.79 17.6193ZM183.642 30.995C185.63 30.995 187.422 30.2618 189.019 28.7955C190.615 27.3619 191.837 25.5372 192.684 23.3215C193.531 21.1166 193.955 18.8847 193.955 16.6255C193.933 14.1926 193.526 12.2973 192.733 10.9396C191.951 9.58198 190.724 8.69679 189.051 8.28406C188.247 8.0777 186.711 7.97452 184.441 7.97452L179.048 30.5388C180.503 30.8429 182.035 30.995 183.642 30.995ZM205.115 22.7838L201.189 23.8917C200.96 24.9235 200.846 25.8141 200.846 26.5636C200.846 27.7909 201.096 28.763 201.596 29.4798C202.106 30.1858 202.801 30.5388 203.681 30.5388C205.658 30.5388 207.537 29.2137 209.318 26.5636L209.595 26.6939C208.824 28.0733 207.787 29.3332 206.483 30.4736C205.256 31.538 203.92 32.0702 202.476 32.0702C201.151 32.0702 200.097 31.5489 199.315 30.5062C198.533 29.4092 198.142 28.1167 198.142 26.6287C198.142 24.7606 198.566 22.8707 199.413 20.9592C200.216 19.1127 201.373 17.5541 202.883 16.2834C204.36 15.0343 205.908 14.4098 207.526 14.4098C208.58 14.4098 209.514 14.7357 210.328 15.3873C211.154 16.0173 211.566 16.8373 211.566 17.8474C211.566 18.9878 211.04 19.9382 209.986 20.6985C208.933 21.4479 207.309 22.143 205.115 22.7838ZM207.526 14.8823C206.505 14.8823 205.348 15.7946 204.056 17.6193C202.774 19.444 201.851 21.4262 201.286 23.5659C202.698 23.0662 203.801 22.6426 204.594 22.2951C205.386 21.9475 206.163 21.5239 206.923 21.0243C208.585 19.9708 209.416 18.6348 209.416 17.0165C209.416 16.3431 209.242 15.8218 208.895 15.4525C208.547 15.0723 208.091 14.8823 207.526 14.8823ZM216.177 31.9399C214.863 31.9399 213.798 31.5815 212.984 30.8646C212.18 30.1478 211.811 29.2463 211.876 28.1602C211.898 27.704 212.072 27.2967 212.397 26.9383C212.723 26.5799 213.114 26.4006 213.57 26.4006C214.027 26.4006 214.385 26.5473 214.646 26.8405C214.906 27.1338 215.015 27.5085 214.971 27.9647C214.939 28.1927 214.825 28.524 214.629 28.9585C214.434 29.3929 214.336 29.7079 214.336 29.9034C214.314 30.3704 214.499 30.7506 214.89 31.0438C215.292 31.3262 215.846 31.4674 216.552 31.4674C217.388 31.4674 218.143 31.147 218.816 30.5062C219.512 29.8762 219.875 29.116 219.908 28.2253C219.951 27.5845 219.745 26.8405 219.289 25.9933C218.844 25.1353 218.284 24.3261 217.611 23.5659C216.948 22.8164 216.4 21.9801 215.965 21.0569C215.531 20.1337 215.335 19.2865 215.379 18.5154C215.477 17.2989 216.063 16.3214 217.138 15.5828C218.257 14.7791 219.506 14.3772 220.885 14.3772C222.145 14.3772 223.155 14.7574 223.916 15.5177C224.709 16.2779 225.089 17.1251 225.056 18.0592C225.034 18.5262 224.877 18.9444 224.584 19.3137C224.29 19.6721 223.927 19.8513 223.492 19.8513C222.569 19.8513 222.124 19.3843 222.156 18.4502C222.189 18.0809 222.341 17.7496 222.612 17.4564C222.927 17.0545 223.085 16.7504 223.085 16.544C223.107 16.0879 222.9 15.6806 222.466 15.3222C222.031 14.9637 221.494 14.7845 220.853 14.7845C219.984 14.7845 219.245 15.0343 218.637 15.534C218.029 16.0336 217.719 16.6961 217.709 17.5216C217.665 18.0972 217.871 18.8086 218.328 19.6558C218.795 20.4921 219.381 21.3393 220.087 22.1973C220.771 23.0011 221.342 23.8537 221.798 24.7552C222.254 25.6566 222.46 26.4278 222.417 27.0686C222.319 28.4154 221.695 29.5613 220.543 30.5062C219.414 31.462 217.958 31.9399 216.177 31.9399ZM235.418 10.9071C235.07 11.2438 234.647 11.4121 234.147 11.4121C233.647 11.4121 233.224 11.2438 232.876 10.9071C232.54 10.5595 232.371 10.1413 232.371 9.65258C232.371 9.15296 232.54 8.72938 232.876 8.38182C233.224 8.03426 233.647 7.86048 234.147 7.86048C234.647 7.86048 235.07 8.03426 235.418 8.38182C235.765 8.72938 235.939 9.15296 235.939 9.65258C235.939 10.1413 235.765 10.5595 235.418 10.9071ZM226.245 19.9165C228.689 16.2236 230.824 14.3772 232.648 14.3772C233.485 14.3772 233.886 14.7791 233.854 15.5828C233.832 16.2128 233.642 17.0491 233.284 18.0918L229.879 28.2253C229.618 28.9748 229.488 29.5233 229.488 29.8708C229.488 30.2184 229.661 30.3922 230.009 30.3922C230.411 30.3922 230.97 30.0011 231.687 29.2191C232.415 28.4371 233.137 27.4379 233.854 26.2214L234.147 26.3681C233.148 28.1927 232.111 29.5721 231.035 30.5062C229.96 31.4403 229.021 31.9073 228.217 31.9073C226.772 31.9073 226.436 30.7126 227.207 28.3231L230.514 18.3524C230.927 17.136 231.117 16.4463 231.084 16.2834C231.052 16.0662 230.916 15.9575 230.677 15.9575C229.851 15.9575 228.472 17.3261 226.539 20.0631L226.245 19.9165ZM252.589 14.7194C252.611 15.1864 252.486 15.5557 252.215 15.8272C251.954 16.0987 251.59 16.2291 251.123 16.2182C250.895 16.2074 250.575 16.0553 250.162 15.762C249.76 15.4688 249.499 15.3222 249.38 15.3222C248.859 15.2896 248.435 15.686 248.109 16.5115C248.652 17.413 248.924 18.4068 248.924 19.4929C248.956 21.2633 248.354 22.8979 247.115 24.3967C245.91 25.863 244.411 26.5961 242.619 26.5961C241.457 26.5961 240.463 26.216 239.637 25.4557C238.41 25.8684 237.813 26.4061 237.845 27.0686C237.867 27.4813 238.057 27.8398 238.416 28.1439C238.785 28.4371 239.48 28.7793 240.501 29.1703L245.242 31.1742C246.447 31.6955 247.311 32.244 247.832 32.8196C248.364 33.3953 248.636 34.1121 248.647 34.9702C248.679 36.154 248.093 37.1533 246.887 37.9679C245.693 38.7933 244.101 39.2061 242.114 39.2061C239.54 39.2061 237.514 38.8096 236.037 38.0168C234.571 37.2347 233.827 36.2735 233.805 35.1331C233.794 34.2533 234.169 33.4605 234.929 32.7545C235.678 32.0594 236.672 31.576 237.91 31.3045C237.15 30.9461 236.613 30.5659 236.298 30.1641C235.983 29.7622 235.82 29.23 235.809 28.5675C235.798 27.7746 236.129 27.0795 236.803 26.4821C237.487 25.8739 238.356 25.4666 239.409 25.2602C238.53 24.2827 238.073 23.0282 238.041 21.4968C238.008 19.7047 238.584 18.0701 239.768 16.5929C240.952 15.1158 242.445 14.3772 244.248 14.3772C245.834 14.3772 247.045 14.98 247.881 16.1856C248.153 15.3167 248.571 14.6216 249.136 14.1003C249.711 13.5681 250.33 13.3074 250.993 13.3183C251.514 13.3291 251.911 13.4649 252.182 13.7256C252.454 13.9862 252.589 14.3175 252.589 14.7194ZM241.869 26.0585C242.999 26.0585 244.112 25.081 245.209 23.126C246.339 21.1166 246.887 19.2594 246.855 17.5541C246.855 15.8163 246.295 14.9474 245.177 14.9474C243.971 14.9474 242.814 15.9141 241.706 17.8474C240.642 19.7373 240.11 21.5402 240.11 23.2563C240.142 25.1244 240.729 26.0585 241.869 26.0585ZM244.118 33.8623L239.279 31.9073L238.301 31.5C237.519 31.8258 236.917 32.2983 236.493 32.9174C236.08 33.5473 235.885 34.2099 235.907 34.905C235.961 36.1215 236.526 37.061 237.601 37.7235C238.676 38.3969 240.224 38.7336 242.244 38.7336C243.471 38.7336 244.465 38.5218 245.226 38.0982C245.986 37.6746 246.371 37.0664 246.382 36.2735C246.415 35.3286 245.66 34.5249 244.118 33.8623ZM263.016 31.9725C262.245 31.9725 261.773 31.6249 261.599 30.9298C261.425 30.2347 261.566 29.3115 262.022 28.1602L264.499 21.2524C265.216 19.33 265.563 17.9289 265.542 17.0491C265.52 16.1585 265.112 15.7132 264.32 15.7132C262.299 15.7132 259.052 20.9754 254.577 31.5H252.182C254.941 22.9196 256.353 18.5045 256.418 18.2547C256.548 17.8854 256.646 17.5596 256.711 17.2772C256.787 16.9948 256.831 16.7396 256.842 16.5115C256.863 16.2725 256.842 16.0933 256.776 15.9738C256.711 15.8435 256.603 15.7783 256.451 15.7783C256.06 15.7783 255.473 16.1748 254.691 16.9676C253.92 17.7496 253.149 18.7435 252.378 19.9491L252.117 19.8187C254.344 16.1911 256.38 14.3772 258.226 14.3772C259.573 14.3772 259.926 15.5122 259.285 17.7822C258.992 18.7054 258.313 20.6442 257.249 23.5984L256.157 26.6939L256.255 26.7265C258.601 21.4914 260.545 18.0538 262.088 16.4137C262.815 15.6317 263.451 15.0995 263.994 14.8171C264.548 14.5239 265.161 14.3772 265.835 14.3772C266.247 14.3772 266.622 14.4804 266.959 14.6868C267.296 14.8823 267.578 15.1864 267.806 15.5991C268.045 16.001 268.154 16.5712 268.132 17.3098C268.11 18.0483 267.931 18.8955 267.594 19.8513L264.89 27.7366C264.423 29.0616 264.222 29.86 264.287 30.1315C264.32 30.3596 264.466 30.4736 264.727 30.4736C265.053 30.4736 265.607 30.0826 266.389 29.3006C267.258 28.3991 268.007 27.4325 268.637 26.4006L268.93 26.5636C268.126 27.8995 267.138 29.154 265.965 30.327C264.868 31.424 263.885 31.9725 263.016 31.9725ZM277.972 22.7838L274.046 23.8917C273.818 24.9235 273.704 25.8141 273.704 26.5636C273.704 27.7909 273.954 28.763 274.453 29.4798C274.964 30.1858 275.659 30.5388 276.539 30.5388C278.515 30.5388 280.394 29.2137 282.176 26.5636L282.452 26.6939C281.681 28.0733 280.644 29.3332 279.341 30.4736C278.113 31.538 276.777 32.0702 275.333 32.0702C274.008 32.0702 272.954 31.5489 272.172 30.5062C271.39 29.4092 270.999 28.1167 270.999 26.6287C270.999 24.7606 271.423 22.8707 272.27 20.9592C273.074 19.1127 274.231 17.5541 275.74 16.2834C277.217 15.0343 278.765 14.4098 280.383 14.4098C281.437 14.4098 282.371 14.7357 283.186 15.3873C284.011 16.0173 284.424 16.8373 284.424 17.8474C284.424 18.9878 283.897 19.9382 282.843 20.6985C281.79 21.4479 280.166 22.143 277.972 22.7838ZM280.383 14.8823C279.362 14.8823 278.206 15.7946 276.913 17.6193C275.632 19.444 274.708 21.4262 274.144 23.5659C275.556 23.0662 276.658 22.6426 277.451 22.2951C278.244 21.9475 279.02 21.5239 279.781 21.0243C281.442 19.9708 282.273 18.6348 282.273 17.0165C282.273 16.3431 282.099 15.8218 281.752 15.4525C281.404 15.0723 280.948 14.8823 280.383 14.8823ZM285.581 31.5C286.547 28.6109 287.959 24.2393 289.816 18.385C290.044 17.6573 290.207 17.06 290.305 16.5929C290.425 15.9847 290.305 15.6806 289.947 15.6806C289.241 15.6806 287.916 17.1034 285.972 19.9491L285.711 19.7861C288.155 16.0281 290.213 14.1491 291.885 14.1491C293.363 14.1491 293.618 15.5068 292.651 18.2221L289.914 25.7978L290.044 25.8304C292.195 20.8234 293.933 17.6085 295.258 16.1856C295.91 15.4796 296.458 15.0018 296.903 14.7519C297.36 14.5021 297.865 14.3772 298.419 14.3772C299.125 14.3772 299.684 14.589 300.097 15.0126C300.509 15.4362 300.727 15.9847 300.748 16.6581C300.803 17.2772 300.64 17.8257 300.26 18.3036C299.879 18.7815 299.412 19.0204 298.858 19.0204C298.022 19.0204 297.588 18.6403 297.555 17.88C297.544 17.6953 297.604 17.4347 297.734 17.098C297.875 16.7613 297.946 16.5549 297.946 16.4789C297.946 16.0553 297.761 15.8109 297.392 15.7457C296.827 15.6589 296.149 16.0444 295.356 16.9025L295.176 17.1143C294.373 18.1026 293.346 19.8513 292.097 22.3603C290.848 24.8692 289.539 27.9158 288.171 31.5H285.581Z" fill="#105EFB"/>
<path d="M77.8753 29.3983L77.7913 29.4527L77.7916 29.4531L77.8753 29.3983ZM77.4028 22.0507L77.5 22.0744L77.5001 22.074L77.4028 22.0507ZM80.1724 10.4835L80.076 10.4569L80.0752 10.4602L80.1724 10.4835ZM80.091 8.67507L80.0037 8.72381L80.0042 8.72468L80.091 8.67507ZM78.7062 7.87677L78.6089 7.85343L78.5821 7.96505L78.6964 7.97629L78.7062 7.87677ZM78.8039 7.46947V7.36947H78.7251L78.7067 7.44613L78.8039 7.46947ZM85.9235 7.46947L86.0222 7.48527L86.0408 7.36947H85.9235V7.46947ZM85.8583 7.87677L85.8651 7.97654L85.9445 7.97112L85.9571 7.89257L85.8583 7.87677ZM83.1539 10.4509L83.2511 10.4744L83.2514 10.4731L83.1539 10.4509ZM80.3517 22.0507L80.4482 22.0771L80.4489 22.0742L80.3517 22.0507ZM80.3354 28.7304L80.2441 28.7713L80.3354 28.7304ZM92.5543 22.3277L92.457 22.3043L92.457 22.3043L92.5543 22.3277ZM95.2587 11.0537L95.356 11.077L95.3563 11.0755L95.2587 11.0537ZM93.0919 7.87677L92.9947 7.85343L92.9671 7.9684L93.085 7.97653L93.0919 7.87677ZM93.1897 7.46947V7.36947H93.1108L93.0924 7.44613L93.1897 7.46947ZM99.739 7.46947L99.8353 7.49643L99.8708 7.36947H99.739V7.46947ZM99.625 7.87677L99.6304 7.97662L99.7019 7.97274L99.7213 7.90373L99.625 7.87677ZM96.1222 11.0537L96.0255 11.0282L96.0254 11.0285L96.1222 11.0537ZM93.1897 22.3277L93.2863 22.3532L93.2864 22.3528L93.1897 22.3277ZM83.7567 31.8399C80.9629 31.8399 79.0417 30.9995 77.959 29.3436L77.7916 29.4531C78.9246 31.1859 80.9242 32.0399 83.7567 32.0399V31.8399ZM77.9592 29.344C76.8844 27.6838 76.7205 25.2681 77.5 22.0744L77.3057 22.027C76.5211 25.2415 76.6722 27.7242 77.7913 29.4527L77.9592 29.344ZM77.5001 22.074L80.2697 10.5068L80.0752 10.4602L77.3056 22.0274L77.5001 22.074ZM80.2689 10.51C80.4789 9.74717 80.4569 9.1138 80.1778 8.62546L80.0042 8.72468C80.2464 9.14868 80.2787 9.72092 80.076 10.4569L80.2689 10.51ZM80.1783 8.62633C79.8977 8.12362 79.4021 7.84474 78.716 7.77725L78.6964 7.97629C79.3353 8.03913 79.7629 8.29245 80.0037 8.72381L80.1783 8.62633ZM78.8034 7.9001L78.9012 7.49281L78.7067 7.44613L78.6089 7.85343L78.8034 7.9001ZM78.8039 7.56947H85.9235V7.36947H78.8039V7.56947ZM85.8247 7.45367L85.7596 7.86097L85.9571 7.89257L86.0222 7.48527L85.8247 7.45367ZM85.8515 7.777C85.1152 7.8272 84.5082 8.07364 84.038 8.52118C83.569 8.96759 83.244 9.60657 83.0564 10.4286L83.2514 10.4731C83.4331 9.67687 83.7434 9.07767 84.1759 8.66604C84.6072 8.25554 85.1677 8.02408 85.8651 7.97654L85.8515 7.777ZM83.0567 10.4274L80.2545 22.0272L80.4489 22.0742L83.2511 10.4744L83.0567 10.4274ZM80.2552 22.0243C79.4921 24.8151 79.4811 27.0684 80.2441 28.7713L80.4266 28.6895C79.6908 27.0471 79.6906 24.8473 80.4481 22.0771L80.2552 22.0243ZM80.2441 28.7713C80.6264 29.6245 81.1841 30.2686 81.9181 30.6984C82.6512 31.1277 83.5536 31.3393 84.6201 31.3393V31.1393C83.5796 31.1393 82.7143 30.9328 82.0192 30.5258C81.3249 30.1193 80.7938 29.5089 80.4266 28.6895L80.2441 28.7713ZM84.6201 31.3393C86.4119 31.3393 88.0228 30.5748 89.4501 29.0596L89.3046 28.9225C87.908 30.405 86.3474 31.1393 84.6201 31.1393V31.3393ZM89.4501 29.0596C90.8784 27.5435 91.9433 25.3039 92.6515 22.351L92.457 22.3043C91.7533 25.2382 90.7002 27.4409 89.3046 28.9225L89.4501 29.0596ZM92.6515 22.351L95.356 11.077L95.1615 11.0304L92.457 22.3043L92.6515 22.351ZM95.3563 11.0755C95.5815 10.0702 95.5175 9.27522 95.1336 8.7124C94.7482 8.1473 94.0592 7.84324 93.0988 7.777L93.085 7.97653C94.0145 8.04063 94.6315 8.33122 94.9684 8.82509C95.3068 9.32125 95.3812 10.0495 95.1611 11.0318L95.3563 11.0755ZM93.1891 7.9001L93.2869 7.49281L93.0924 7.44613L92.9947 7.85343L93.1891 7.9001ZM93.1897 7.56947H99.739V7.36947H93.1897V7.56947ZM99.6427 7.44251L99.5287 7.8498L99.7213 7.90373L99.8353 7.49643L99.6427 7.44251ZM99.6195 7.77691C98.6986 7.82684 97.9331 8.12311 97.3299 8.67024C96.7278 9.21633 96.295 10.0054 96.0255 11.0282L96.2189 11.0792C96.4816 10.0818 96.8987 9.33126 97.4642 8.81838C98.0286 8.30654 98.7483 8.02444 99.6304 7.97662L99.6195 7.77691ZM96.0254 11.0285L93.0929 22.3025L93.2864 22.3528L96.219 11.0789L96.0254 11.0285ZM93.093 22.3021C92.2483 25.4968 91.0448 27.8817 89.4893 29.4668C87.9364 31.0492 86.0277 31.8399 83.7567 31.8399V32.0399C86.08 32.0399 88.0406 31.2286 89.632 29.6069C91.2208 27.9879 92.4367 25.5666 93.2863 22.3532L93.093 22.3021ZM113.88 7.46947V7.36947H113.802L113.783 7.44613L113.88 7.46947ZM120.495 7.46947L120.592 7.49281L120.622 7.36947H120.495V7.46947ZM120.397 7.87677L120.407 7.97626L120.478 7.9691L120.494 7.9001L120.397 7.87677ZM114.418 12.2104L114.343 12.1447L114.342 12.1451L114.418 12.2104ZM109.123 18.3524L109.047 18.2872L109.009 18.3316L109.029 18.3866L109.123 18.3524ZM112.691 28.1602L112.785 28.1267L112.785 28.126L112.691 28.1602ZM115.591 31.0601L115.689 31.0818L115.713 30.9715L115.601 30.9606L115.591 31.0601ZM115.493 31.5V31.6H115.573L115.591 31.5217L115.493 31.5ZM108.243 31.5L108.147 31.4749L108.114 31.6H108.243V31.5ZM108.357 31.0601L108.338 30.962L108.276 30.974L108.261 31.035L108.357 31.0601ZM109.123 27.1338L109.218 27.1007L109.217 27.1002L109.123 27.1338ZM106.81 20.6496L106.904 20.616L106.846 20.4542L106.734 20.5843L106.81 20.6496ZM101.71 26.5636L101.635 26.4982L101.633 26.5L101.71 26.5636ZM100.179 29.7242L100.08 29.7371L100.08 29.7387L100.179 29.7242ZM102.248 31.0601L102.346 31.0818L102.37 30.974L102.26 30.9608L102.248 31.0601ZM102.15 31.5V31.6H102.23L102.248 31.5217L102.15 31.5ZM94.3627 31.5L94.2659 31.4749L94.2334 31.6H94.3627V31.5ZM94.4767 31.0601L94.4642 30.9609L94.3969 30.9694L94.3799 31.035L94.4767 31.0601ZM97.7025 29.659L97.6444 29.5776L97.6442 29.5778L97.7025 29.659ZM101.873 25.6023L101.949 25.6679L101.949 25.6678L101.873 25.6023ZM106.614 20.1283L106.69 20.1937L106.728 20.1496L106.708 20.0946L106.614 20.1283ZM103.486 11.3795L103.58 11.3459L103.58 11.3451L103.486 11.3795ZM102.215 8.67507L102.139 8.73983L102.139 8.74015L102.215 8.67507ZM100.635 7.87677L100.539 7.8498L100.508 7.95963L100.621 7.97576L100.635 7.87677ZM100.749 7.46947V7.36947H100.673L100.653 7.44251L100.749 7.46947ZM107.787 7.46947L107.884 7.49281L107.914 7.36947H107.787V7.46947ZM107.689 7.87677L107.715 7.97351L107.773 7.95836L107.787 7.9001L107.689 7.87677ZM106.614 11.3795L106.52 11.4129L106.52 11.4136L106.614 11.3795ZM108.944 17.8148L108.85 17.8489L108.908 18.0087L109.019 17.8805L108.944 17.8148ZM113.848 12.1778L113.923 12.2435L113.924 12.243L113.848 12.1778ZM113.783 7.87677L113.685 7.85343L113.661 7.95583L113.764 7.97508L113.783 7.87677ZM113.88 7.56947H120.495V7.36947H113.88V7.56947ZM120.398 7.44613L120.3 7.85343L120.494 7.9001L120.592 7.49281L120.398 7.44613ZM120.387 7.77728C119.559 7.86121 118.642 8.27376 117.638 9.0014C116.633 9.72964 115.535 10.7783 114.343 12.1447L114.493 12.2762C115.68 10.9164 116.767 9.87964 117.755 9.16334C118.745 8.44643 119.628 8.05524 120.407 7.97626L120.387 7.77728ZM114.342 12.1451L109.047 18.2872L109.199 18.4177L114.494 12.2757L114.342 12.1451ZM109.029 18.3866L112.597 28.1944L112.785 28.126L109.217 18.3183L109.029 18.3866ZM112.597 28.1937C112.947 29.1776 113.355 29.9053 113.827 30.366L113.966 30.2228C113.526 29.7928 113.131 29.0978 112.785 28.1267L112.597 28.1937ZM113.827 30.366C114.3 30.8282 114.887 31.0924 115.581 31.1597L115.601 30.9606C114.948 30.8975 114.405 30.6512 113.966 30.2228L113.827 30.366ZM115.493 31.0384L115.396 31.4783L115.591 31.5217L115.689 31.0818L115.493 31.0384ZM115.493 31.4H108.243V31.6H115.493V31.4ZM108.34 31.5251L108.454 31.0852L108.261 31.035L108.147 31.4749L108.34 31.5251ZM108.377 31.1583C108.726 31.0902 109.011 30.952 109.227 30.7393C109.443 30.5264 109.582 30.2452 109.649 29.9022C109.782 29.2209 109.632 28.2836 109.218 27.1007L109.029 27.1668C109.44 28.3408 109.575 29.2364 109.453 29.8639C109.392 30.1752 109.268 30.4174 109.087 30.5969C108.904 30.7765 108.657 30.8997 108.338 30.962L108.377 31.1583ZM109.217 27.1002L106.904 20.616L106.715 20.6832L109.029 27.1674L109.217 27.1002ZM106.734 20.5843L101.635 26.4983L101.786 26.6289L106.885 20.7149L106.734 20.5843ZM101.633 26.5C101.071 27.1822 100.658 27.7918 100.398 28.3284C100.139 28.8638 100.027 29.3352 100.08 29.7371L100.278 29.7113C100.233 29.3638 100.327 28.9337 100.578 28.4156C100.829 27.8986 101.231 27.3026 101.787 26.6272L101.633 26.5ZM100.08 29.7387C100.139 30.1396 100.357 30.4596 100.723 30.6961C101.086 30.9303 101.593 31.0825 102.236 31.1594L102.26 30.9608C101.632 30.8857 101.159 30.7392 100.832 30.5281C100.509 30.3193 100.327 30.0474 100.278 29.7096L100.08 29.7387ZM102.15 31.0384L102.053 31.4783L102.248 31.5217L102.346 31.0818L102.15 31.0384ZM102.15 31.4H94.3627V31.6H102.15V31.4ZM94.4595 31.5251L94.5735 31.0852L94.3799 31.035L94.2659 31.4749L94.4595 31.5251ZM94.4893 31.1593C95.5421 31.0263 96.6329 30.5506 97.7609 29.7402L97.6442 29.5778C96.5348 30.3749 95.475 30.8332 94.4642 30.9609L94.4893 31.1593ZM97.7606 29.7404C98.9106 28.919 100.307 27.5598 101.949 25.6679L101.798 25.5368C100.159 27.4246 98.7753 28.7699 97.6444 29.5776L97.7606 29.7404ZM101.949 25.6678L106.69 20.1937L106.539 20.0628L101.798 25.5369L101.949 25.6678ZM106.708 20.0946L103.58 11.3459L103.392 11.4132L106.52 20.1619L106.708 20.0946ZM103.58 11.3451C103.319 10.6322 103.081 10.0481 102.868 9.59376C102.655 9.14124 102.463 8.81071 102.291 8.60999L102.139 8.74015C102.293 8.91957 102.476 9.22986 102.687 9.67882C102.897 10.1259 103.132 10.704 103.392 11.4139L103.58 11.3451ZM102.292 8.6103C101.903 8.15349 101.352 7.87821 100.649 7.77777L100.621 7.97576C101.286 8.07083 101.789 8.32774 102.139 8.73983L102.292 8.6103ZM100.731 7.90373L100.845 7.49643L100.653 7.44251L100.539 7.8498L100.731 7.90373ZM100.749 7.56947H107.787V7.36947H100.749V7.56947ZM107.69 7.44613L107.592 7.85343L107.787 7.9001L107.884 7.49281L107.69 7.44613ZM107.664 7.78002C106.932 7.97144 106.458 8.37625 106.266 9.00007C106.077 9.61439 106.17 10.4226 106.52 11.4129L106.708 11.3462C106.363 10.3706 106.287 9.61203 106.457 9.05876C106.624 8.515 107.035 8.15138 107.715 7.97351L107.664 7.78002ZM106.52 11.4136L108.85 17.8489L109.038 17.7808L106.708 11.3455L106.52 11.4136ZM109.019 17.8805L113.923 12.2435L113.772 12.1122L108.868 17.7492L109.019 17.8805ZM113.924 12.243C114.456 11.6234 114.856 11.0655 115.123 10.5695C115.389 10.0746 115.526 9.6342 115.52 9.25192C115.514 8.86468 115.362 8.54331 115.067 8.29509C114.775 8.05009 114.35 7.88051 113.801 7.77845L113.764 7.97508C114.296 8.07396 114.684 8.23429 114.938 8.44817C115.189 8.65884 115.315 8.92534 115.32 9.25495C115.325 9.58951 115.205 9.99497 114.947 10.4748C114.69 10.9536 114.299 11.4995 113.772 12.1127L113.924 12.243ZM113.88 7.9001L113.978 7.49281L113.783 7.44613L113.685 7.85343L113.88 7.9001ZM114.402 36.8112L114.322 36.7502L114.199 36.9112H114.402V36.8112ZM120.739 28.5675L120.819 28.6284L120.82 28.6268L120.739 28.5675ZM136.298 7.46947V7.36947H136.247L136.218 7.41012L136.298 7.46947ZM137.227 7.46947L137.306 7.53034L137.429 7.36947H137.227V7.46947ZM130.514 16.2182L130.435 16.1573L130.434 16.1586L130.514 16.2182ZM121.016 29.0236L120.936 28.9641L120.935 28.9647L121.016 29.0236ZM115.33 36.8112V36.9112H115.381L115.411 36.8701L115.33 36.8112ZM114.481 36.8721L120.819 28.6284L120.66 28.5065L114.322 36.7502L114.481 36.8721ZM120.82 28.6268L136.378 7.52882L136.218 7.41012L120.659 28.5081L120.82 28.6268ZM136.298 7.56947H137.227V7.36947H136.298V7.56947ZM137.147 7.4086L130.435 16.1573L130.594 16.2791L137.306 7.53034L137.147 7.4086ZM130.434 16.1586L120.936 28.9641L121.097 29.0832L130.595 16.2778L130.434 16.1586ZM120.935 28.9647L115.25 36.7522L115.411 36.8701L121.097 29.0826L120.935 28.9647ZM115.33 36.7112H114.402V36.9112H115.33V36.7112ZM137.667 29.3983L137.583 29.4527L137.583 29.4531L137.667 29.3983ZM137.194 22.0507L137.291 22.0744L137.291 22.074L137.194 22.0507ZM139.964 10.4835L139.867 10.4569L139.866 10.4602L139.964 10.4835ZM139.882 8.67507L139.795 8.72381L139.795 8.72468L139.882 8.67507ZM138.497 7.87677L138.4 7.85343L138.373 7.96505L138.488 7.97629L138.497 7.87677ZM138.595 7.46947V7.36947H138.516L138.498 7.44613L138.595 7.46947ZM145.715 7.46947L145.813 7.48527L145.832 7.36947H145.715V7.46947ZM145.65 7.87677L145.656 7.97654L145.736 7.97112L145.748 7.89257L145.65 7.87677ZM142.945 10.4509L143.042 10.4744L143.043 10.4731L142.945 10.4509ZM140.143 22.0507L140.239 22.0771L140.24 22.0742L140.143 22.0507ZM140.127 28.7304L140.035 28.7713L140.127 28.7304ZM152.345 22.3277L152.248 22.3043V22.3043L152.345 22.3277ZM155.05 11.0537L155.147 11.077L155.148 11.0755L155.05 11.0537ZM152.883 7.87677L152.786 7.85343L152.758 7.9684L152.876 7.97653L152.883 7.87677ZM152.981 7.46947V7.36947H152.902L152.884 7.44613L152.981 7.46947ZM159.53 7.46947L159.627 7.49643L159.662 7.36947H159.53V7.46947ZM159.416 7.87677L159.422 7.97662L159.493 7.97274L159.512 7.90373L159.416 7.87677ZM155.913 11.0537L155.817 11.0282L155.817 11.0285L155.913 11.0537ZM152.981 22.3277L153.078 22.3532L153.078 22.3528L152.981 22.3277ZM143.548 31.8399C140.754 31.8399 138.833 30.9995 137.75 29.3436L137.583 29.4531C138.716 31.1859 140.715 32.0399 143.548 32.0399V31.8399ZM137.75 29.344C136.676 27.6838 136.512 25.2681 137.291 22.0744L137.097 22.027C136.312 25.2415 136.463 27.7242 137.583 29.4527L137.75 29.344ZM137.291 22.074L140.061 10.5068L139.866 10.4602L137.097 22.0274L137.291 22.074ZM140.06 10.51C140.27 9.74717 140.248 9.1138 139.969 8.62546L139.795 8.72468C140.038 9.14868 140.07 9.72092 139.867 10.4569L140.06 10.51ZM139.97 8.62633C139.689 8.12362 139.193 7.84474 138.507 7.77725L138.488 7.97629C139.127 8.03913 139.554 8.29245 139.795 8.72381L139.97 8.62633ZM138.595 7.9001L138.692 7.49281L138.498 7.44613L138.4 7.85343L138.595 7.9001ZM138.595 7.56947H145.715V7.36947H138.595V7.56947ZM145.616 7.45367L145.551 7.86097L145.748 7.89257L145.813 7.48527L145.616 7.45367ZM145.643 7.777C144.906 7.8272 144.299 8.07364 143.829 8.52118C143.36 8.96759 143.035 9.60657 142.848 10.4286L143.043 10.4731C143.224 9.67687 143.535 9.07767 143.967 8.66604C144.398 8.25554 144.959 8.02408 145.656 7.97654L145.643 7.777ZM142.848 10.4274L140.046 22.0272L140.24 22.0742L143.042 10.4744L142.848 10.4274ZM140.046 22.0243C139.283 24.8151 139.272 27.0684 140.035 28.7713L140.218 28.6895C139.482 27.0471 139.482 24.8473 140.239 22.0771L140.046 22.0243ZM140.035 28.7713C140.418 29.6245 140.975 30.2686 141.709 30.6984C142.442 31.1277 143.345 31.3393 144.411 31.3393V31.1393C143.371 31.1393 142.506 30.9328 141.81 30.5258C141.116 30.1193 140.585 29.5089 140.218 28.6895L140.035 28.7713ZM144.411 31.3393C146.203 31.3393 147.814 30.5748 149.241 29.0596L149.096 28.9225C147.699 30.405 146.139 31.1393 144.411 31.1393V31.3393ZM149.241 29.0596C150.67 27.5435 151.734 25.3039 152.443 22.351L152.248 22.3043C151.545 25.2382 150.491 27.4409 149.096 28.9225L149.241 29.0596ZM152.443 22.351L155.147 11.077L154.953 11.0304L152.248 22.3043L152.443 22.351ZM155.148 11.0755C155.373 10.0702 155.309 9.27522 154.925 8.7124C154.539 8.1473 153.85 7.84324 152.89 7.777L152.876 7.97653C153.806 8.04063 154.423 8.33122 154.76 8.82509C155.098 9.32125 155.172 10.0495 154.952 11.0318L155.148 11.0755ZM152.98 7.9001L153.078 7.49281L152.884 7.44613L152.786 7.85343L152.98 7.9001ZM152.981 7.56947H159.53V7.36947H152.981V7.56947ZM159.434 7.44251L159.32 7.8498L159.512 7.90373L159.627 7.49643L159.434 7.44251ZM159.411 7.77691C158.49 7.82684 157.724 8.12311 157.121 8.67024C156.519 9.21633 156.086 10.0054 155.817 11.0282L156.01 11.0792C156.273 10.0818 156.69 9.33126 157.255 8.81838C157.82 8.30654 158.54 8.02444 159.422 7.97662L159.411 7.77691ZM155.817 11.0285L152.884 22.3025L153.078 22.3528L156.01 11.0789L155.817 11.0285ZM152.884 22.3021C152.039 25.4968 150.836 27.8817 149.28 29.4668C147.728 31.0492 145.819 31.8399 143.548 31.8399V32.0399C145.871 32.0399 147.832 31.2286 149.423 29.6069C151.012 27.9879 152.228 25.5666 153.078 22.3532L152.884 22.3021ZM155.767 31.5L155.669 31.4783L155.642 31.6H155.767V31.5ZM155.865 31.0601L155.855 30.9606L155.783 30.9679L155.767 31.0384L155.865 31.0601ZM158.471 28.3557L158.568 28.3814L158.569 28.3789L158.471 28.3557ZM162.74 10.5161L162.643 10.4903L162.642 10.4928L162.74 10.5161ZM161.469 7.87677L161.372 7.85343L161.345 7.96468L161.459 7.97625L161.469 7.87677ZM161.567 7.46947V7.36947H161.488L161.469 7.44613L161.567 7.46947ZM168.377 7.46947L168.474 7.49281L168.504 7.36947H168.377V7.46947ZM168.279 7.87677L168.287 7.97643L168.359 7.97052L168.376 7.9001L168.279 7.87677ZM166.666 8.54473L166.734 8.6183L166.735 8.61733L166.666 8.54473ZM165.737 10.5161L165.835 10.5394L165.835 10.5376L165.737 10.5161ZM161.436 28.4045L161.533 28.4311L161.534 28.4279L161.436 28.4045ZM161.469 30.2455L161.379 30.2886L161.38 30.2902L161.469 30.2455ZM162.707 31.0601L162.805 31.0818L162.829 30.973L162.718 30.9607L162.707 31.0601ZM162.609 31.5V31.6H162.69L162.707 31.5217L162.609 31.5ZM155.864 31.5217L155.962 31.0818L155.767 31.0384L155.669 31.4783L155.864 31.5217ZM155.875 31.1596C156.543 31.0922 157.106 30.8241 157.558 30.3557C158.007 29.8889 158.342 29.2282 158.568 28.3814L158.375 28.3299C158.155 29.1558 157.833 29.7821 157.414 30.2169C156.996 30.6499 156.478 30.8977 155.855 30.9606L155.875 31.1596ZM158.569 28.3789L162.837 10.5393L162.642 10.4928L158.374 28.3324L158.569 28.3789ZM162.836 10.5418C163.056 9.71943 163.065 9.06328 162.838 8.59096C162.606 8.10988 162.142 7.8447 161.479 7.77728L161.459 7.97625C162.078 8.03917 162.466 8.27903 162.658 8.67772C162.854 9.08516 162.858 9.68349 162.643 10.4903L162.836 10.5418ZM161.566 7.9001L161.664 7.49281L161.469 7.44613L161.372 7.85343L161.566 7.9001ZM161.567 7.56947H168.377V7.36947H161.567V7.56947ZM168.279 7.44613L168.182 7.85343L168.376 7.9001L168.474 7.49281L168.279 7.44613ZM168.271 7.7771C167.59 7.83294 167.029 8.06291 166.597 8.47214L166.735 8.61733C167.128 8.24455 167.643 8.02921 168.287 7.97643L168.271 7.7771ZM166.598 8.47118C166.163 8.87191 165.848 9.55302 165.64 10.4945L165.835 10.5376C166.04 9.61095 166.343 8.97785 166.734 8.61829L166.598 8.47118ZM165.64 10.4927L161.339 28.3812L161.534 28.4279L165.835 10.5394L165.64 10.4927ZM161.34 28.378C161.13 29.14 161.136 29.7808 161.379 30.2886L161.559 30.2025C161.345 29.7545 161.33 29.1679 161.533 28.4311L161.34 28.378ZM161.38 30.2902C161.635 30.8021 162.08 31.0911 162.696 31.1595L162.718 30.9607C162.161 30.8988 161.78 30.6448 161.558 30.2008L161.38 30.2902ZM162.61 31.0384L162.512 31.4783L162.707 31.5217L162.805 31.0818L162.61 31.0384ZM162.609 31.4H155.767V31.6H162.609V31.4ZM194.965 24.3642L195.052 24.4144L195.052 24.4138L194.965 24.3642ZM190.061 29.5287L190.007 29.4444L190.007 29.4445L190.061 29.5287ZM173.834 31.5L173.737 31.4767L173.708 31.6H173.834V31.5ZM173.932 31.0927L173.922 30.9932L173.852 31.0001L173.835 31.0694L173.932 31.0927ZM175.496 30.2944L175.426 30.2229L175.496 30.2944ZM176.539 28.3557L176.636 28.3802L176.636 28.3789L176.539 28.3557ZM180.775 10.6464L180.678 10.621L180.678 10.6231L180.775 10.6464ZM179.537 7.90935L179.44 7.88425L179.411 7.99695L179.526 8.00883L179.537 7.90935ZM179.651 7.46947V7.36947H179.573L179.554 7.44437L179.651 7.46947ZM194.362 10.2391L194.287 10.3053L194.287 10.3054L194.362 10.2391ZM189.019 28.7955L188.952 28.7211L188.951 28.7219L189.019 28.7955ZM192.684 23.3215L192.591 23.2856L192.591 23.2858L192.684 23.3215ZM193.955 16.6255H194.055L194.055 16.6246L193.955 16.6255ZM192.733 10.9396L192.646 10.9896L192.647 10.9901L192.733 10.9396ZM189.051 8.28406L189.026 8.38093L189.027 8.38115L189.051 8.28406ZM184.441 7.97452V7.87452H184.362L184.343 7.95127L184.441 7.97452ZM179.048 30.5388L178.951 30.5155L178.927 30.6156L179.027 30.6367L179.048 30.5388ZM196.69 17.6193C196.69 19.969 196.086 22.2003 194.878 24.3145L195.052 24.4138C196.277 22.2704 196.89 20.0051 196.89 17.6193H196.69ZM194.879 24.3139C193.637 26.4512 192.014 28.1609 190.007 29.4444L190.115 29.6129C192.149 28.3115 193.795 26.5781 195.052 24.4144L194.879 24.3139ZM190.007 29.4445C187.969 30.7492 185.827 31.4 183.577 31.4V31.6C185.868 31.6 188.047 30.9366 190.115 29.6129L190.007 29.4445ZM183.577 31.4H173.834V31.6H183.577V31.4ZM173.932 31.5233L174.029 31.116L173.835 31.0694L173.737 31.4767L173.932 31.5233ZM173.942 31.1922C174.523 31.1352 175.065 30.856 175.566 30.3659L175.426 30.2229C174.95 30.6886 174.449 30.9416 173.922 30.9932L173.942 31.1922ZM175.566 30.3659C176.071 29.8725 176.426 29.2086 176.636 28.3802L176.442 28.3311C176.239 29.132 175.899 29.7605 175.426 30.2229L175.566 30.3659ZM176.636 28.3789L180.872 10.6697L180.678 10.6231L176.442 28.3324L176.636 28.3789ZM180.872 10.6718C181.096 9.81739 181.111 9.13795 180.89 8.65014C180.665 8.15238 180.206 7.87752 179.547 7.80987L179.526 8.00883C180.138 8.07152 180.521 8.31799 180.708 8.73258C180.9 9.15712 180.899 9.78102 180.678 10.621L180.872 10.6718ZM179.633 7.93445L179.747 7.49457L179.554 7.44437L179.44 7.88425L179.633 7.93445ZM179.651 7.56947H187.846V7.36947H179.651V7.56947ZM187.846 7.56947C190.535 7.56947 192.679 8.48271 194.287 10.3053L194.437 10.1729C192.787 8.30264 190.586 7.36947 187.846 7.36947V7.56947ZM194.287 10.3054C195.886 12.1073 196.69 14.5415 196.69 17.6193H196.89C196.89 14.5062 196.076 12.0202 194.437 10.1727L194.287 10.3054ZM183.642 31.095C185.657 31.095 187.473 30.3507 189.086 28.8692L188.951 28.7219C187.371 30.1729 185.602 30.895 183.642 30.895V31.095ZM189.085 28.87C190.695 27.4246 191.925 25.5861 192.778 23.3572L192.591 23.2858C191.749 25.4882 190.535 27.2991 188.952 28.7211L189.085 28.87ZM192.778 23.3573C193.629 21.1416 194.055 18.8975 194.055 16.6255H193.855C193.855 18.8718 193.434 21.0917 192.591 23.2856L192.778 23.3573ZM194.055 16.6246C194.033 14.183 193.625 12.268 192.819 10.8892L192.647 10.9901C193.427 12.3266 193.833 14.2022 193.855 16.6264L194.055 16.6246ZM192.82 10.8897C192.023 9.50598 190.771 8.60551 189.075 8.18698L189.027 8.38115C190.676 8.78807 191.879 9.65799 192.646 10.9896L192.82 10.8897ZM189.076 8.18721C188.258 7.97725 186.709 7.87452 184.441 7.87452V8.07452C186.712 8.07452 188.236 8.17815 189.026 8.38092L189.076 8.18721ZM184.343 7.95127L178.951 30.5155L179.145 30.562L184.538 7.99776L184.343 7.95127ZM179.027 30.6367C180.49 30.9423 182.028 31.095 183.642 31.095V30.895C182.041 30.895 180.517 30.7435 179.068 30.4409L179.027 30.6367ZM205.115 22.7838L205.142 22.8801L205.143 22.8798L205.115 22.7838ZM201.189 23.8917L201.161 23.7954L201.104 23.8117L201.091 23.8701L201.189 23.8917ZM201.596 29.4798L201.514 29.537L201.515 29.5384L201.596 29.4798ZM209.318 26.5636L209.361 26.4731L209.283 26.4365L209.235 26.5078L209.318 26.5636ZM209.595 26.6939L209.682 26.7427L209.735 26.6491L209.638 26.6034L209.595 26.6939ZM206.483 30.4736L206.549 30.5492L206.549 30.5489L206.483 30.4736ZM199.315 30.5062L199.234 30.5643L199.235 30.5662L199.315 30.5062ZM199.413 20.9592L199.504 20.9997L199.504 20.9991L199.413 20.9592ZM202.883 16.2834L202.947 16.3599L202.947 16.3597L202.883 16.2834ZM210.328 15.3873L210.266 15.4654L210.268 15.4668L210.328 15.3873ZM209.986 20.6985L210.044 20.78L210.045 20.7796L209.986 20.6985ZM204.056 17.6193L203.974 17.5615L203.974 17.5618L204.056 17.6193ZM201.286 23.5659L201.19 23.5403L201.141 23.7232L201.32 23.6601L201.286 23.5659ZM206.923 21.0243L206.87 20.9398L206.868 20.9407L206.923 21.0243ZM208.895 15.4525L208.821 15.52L208.822 15.521L208.895 15.4525ZM205.088 22.6876L201.161 23.7954L201.216 23.9879L205.142 22.8801L205.088 22.6876ZM201.091 23.8701C200.862 24.9064 200.746 25.8046 200.746 26.5636H200.946C200.946 25.8237 201.059 24.9406 201.286 23.9133L201.091 23.8701ZM200.746 26.5636C200.746 27.8033 200.999 28.7978 201.514 29.537L201.678 29.4226C201.194 28.7281 200.946 27.7784 200.946 26.5636H200.746ZM201.515 29.5384C202.044 30.2707 202.77 30.6388 203.681 30.6388V30.4388C202.833 30.4388 202.168 30.1009 201.677 29.4212L201.515 29.5384ZM203.681 30.6388C205.708 30.6388 207.613 29.2797 209.401 26.6193L209.235 26.5078C207.461 29.1477 205.608 30.4388 203.681 30.4388V30.6388ZM209.276 26.654L209.553 26.7844L209.638 26.6034L209.361 26.4731L209.276 26.654ZM209.508 26.6451C208.743 28.0136 207.713 29.2647 206.418 30.3984L206.549 30.5489C207.86 29.4016 208.905 28.133 209.682 26.7427L209.508 26.6451ZM206.418 30.3981C205.206 31.4488 203.893 31.9702 202.476 31.9702V32.1702C203.947 32.1702 205.306 31.6272 206.549 30.5492L206.418 30.3981ZM202.476 31.9702C201.181 31.9702 200.158 31.4632 199.395 30.4462L199.235 30.5662C200.036 31.6345 201.12 32.1702 202.476 32.1702V31.9702ZM199.396 30.4481C198.628 29.3699 198.242 28.0982 198.242 26.6287H198.042C198.042 28.1353 198.438 29.4485 199.234 30.5642L199.396 30.4481ZM198.242 26.6287C198.242 24.7761 198.662 22.9 199.504 20.9997L199.321 20.9186C198.469 22.8414 198.042 24.7451 198.042 26.6287H198.242ZM199.504 20.9991C200.302 19.1665 201.45 17.6205 202.947 16.3599L202.819 16.2069C201.297 17.4878 200.131 19.059 199.321 20.9192L199.504 20.9991ZM202.947 16.3597C204.41 15.1228 205.936 14.5098 207.526 14.5098V14.3098C205.88 14.3098 204.31 14.9458 202.818 16.207L202.947 16.3597ZM207.526 14.5098C208.557 14.5098 209.469 14.8281 210.266 15.4654L210.391 15.3092C209.558 14.6432 208.602 14.3098 207.526 14.3098V14.5098ZM210.268 15.4668C211.069 16.0785 211.466 16.8695 211.466 17.8474H211.666C211.666 16.8051 211.238 15.9561 210.389 15.3078L210.268 15.4668ZM211.466 17.8474C211.466 18.9509 210.959 19.8729 209.928 20.6174L210.045 20.7796C211.12 20.0035 211.666 19.0248 211.666 17.8474H211.466ZM209.928 20.617C208.888 21.3568 207.277 22.0482 205.087 22.6879L205.143 22.8798C207.341 22.2379 208.977 21.539 210.044 20.78L209.928 20.617ZM207.526 14.7823C206.985 14.7823 206.419 15.0239 205.831 15.488C205.242 15.9523 204.624 16.645 203.974 17.5615L204.138 17.6771C204.781 16.769 205.387 16.0931 205.955 15.6451C206.523 15.1968 207.046 14.9823 207.526 14.9823V14.7823ZM203.974 17.5618C202.686 19.3961 201.757 21.3891 201.19 23.5403L201.383 23.5914C201.945 21.4632 202.863 19.4919 204.138 17.6768L203.974 17.5618ZM201.32 23.6601C202.733 23.1602 203.838 22.7357 204.634 22.3867L204.553 22.2035C203.764 22.5496 202.664 22.9723 201.253 23.4716L201.32 23.6601ZM204.634 22.3867C205.432 22.0367 206.213 21.6104 206.978 21.1079L206.868 20.9407C206.113 21.4374 205.341 21.8583 204.553 22.2035L204.634 22.3867ZM206.977 21.1088C208.66 20.0415 209.516 18.6768 209.516 17.0165H209.316C209.316 18.5928 208.51 19.9001 206.87 20.9399L206.977 21.1088ZM209.516 17.0165C209.516 16.3262 209.338 15.7772 208.967 15.384L208.822 15.521C209.147 15.8663 209.316 16.36 209.316 17.0165H209.516ZM208.968 15.385C208.6 14.982 208.116 14.7823 207.526 14.7823V14.9823C208.066 14.9823 208.494 15.1627 208.821 15.52L208.968 15.385ZM212.984 30.8646L212.917 30.9392L212.918 30.9397L212.984 30.8646ZM211.876 28.1602L211.976 28.1662L211.976 28.1649L211.876 28.1602ZM214.971 27.9647L215.071 27.9788L215.071 27.9741L214.971 27.9647ZM214.336 29.9034L214.436 29.908V29.9034H214.336ZM214.89 31.0438L214.83 31.1239L214.833 31.1256L214.89 31.0438ZM218.816 30.5062L218.749 30.4321L218.747 30.4338L218.816 30.5062ZM219.908 28.2253L219.808 28.2186L219.808 28.2217L219.908 28.2253ZM219.289 25.9933L219.2 26.0394L219.201 26.0408L219.289 25.9933ZM217.611 23.5659L217.536 23.6321L217.536 23.6322L217.611 23.5659ZM215.965 21.0569L215.875 21.0995L215.965 21.0569ZM215.379 18.5154L215.279 18.5074L215.279 18.5097L215.379 18.5154ZM217.138 15.5828L217.195 15.6653L217.197 15.664L217.138 15.5828ZM223.916 15.5177L223.845 15.5884L223.847 15.5898L223.916 15.5177ZM225.056 18.0592L225.156 18.0638L225.156 18.0627L225.056 18.0592ZM224.584 19.3137L224.661 19.377L224.662 19.3759L224.584 19.3137ZM222.156 18.4502L222.056 18.4414L222.056 18.4467L222.156 18.4502ZM222.612 17.4564L222.686 17.5246L222.691 17.5181L222.612 17.4564ZM223.085 16.5441L222.985 16.5393V16.5441H223.085ZM217.709 17.5216L217.808 17.5291L217.809 17.5229L217.709 17.5216ZM218.328 19.6558L218.24 19.7032L218.24 19.7046L218.328 19.6558ZM220.087 22.1973L220.01 22.2609L220.011 22.2622L220.087 22.1973ZM222.417 27.0686L222.517 27.0758L222.517 27.0754L222.417 27.0686ZM220.543 30.5062L220.48 30.4289L220.479 30.4299L220.543 30.5062ZM216.177 31.8399C214.882 31.8399 213.843 31.4871 213.05 30.7895L212.918 30.9397C213.754 31.6758 214.844 32.0399 216.177 32.0399V31.8399ZM213.05 30.79C212.27 30.0938 211.913 29.2221 211.976 28.1662L211.776 28.1542C211.709 29.2705 212.09 30.2018 212.917 30.9392L213.05 30.79ZM211.976 28.1649C211.996 27.7334 212.16 27.3479 212.471 27.0055L212.323 26.871C211.983 27.2455 211.799 27.6745 211.776 28.1554L211.976 28.1649ZM212.471 27.0055C212.78 26.6665 213.144 26.5006 213.57 26.5006V26.3006C213.084 26.3006 212.667 26.4932 212.323 26.871L212.471 27.0055ZM213.57 26.5006C214.003 26.5006 214.332 26.6386 214.571 26.907L214.72 26.7741C214.438 26.4559 214.05 26.3006 213.57 26.3006V26.5006ZM214.571 26.907C214.81 27.1759 214.913 27.5216 214.872 27.9552L215.071 27.9741C215.117 27.4954 215.003 27.0916 214.72 26.7741L214.571 26.907ZM214.872 27.9505C214.842 28.1639 214.733 28.4844 214.538 28.9174L214.721 28.9995C214.917 28.5636 215.036 28.2216 215.07 27.9788L214.872 27.9505ZM214.538 28.9174C214.343 29.3513 214.236 29.6841 214.236 29.9034H214.436C214.436 29.7317 214.525 29.4345 214.721 28.9995L214.538 28.9174ZM214.236 29.8987C214.213 30.4006 214.414 30.8118 214.83 31.1238L214.95 30.9638C214.584 30.6894 214.416 30.3402 214.436 29.908L214.236 29.8987ZM214.833 31.1256C215.257 31.424 215.834 31.5674 216.552 31.5674V31.3674C215.858 31.3674 215.327 31.2284 214.948 30.962L214.833 31.1256ZM216.552 31.5674C217.417 31.5674 218.196 31.235 218.885 30.5786L218.747 30.4338C218.09 31.059 217.36 31.3674 216.552 31.3674V31.5674ZM218.884 30.5803C219.597 29.9333 219.974 29.1481 220.008 28.229L219.808 28.2217C219.776 29.0838 219.426 29.8192 218.749 30.4321L218.884 30.5803ZM220.008 28.2321C220.053 27.5653 219.838 26.802 219.377 25.9459L219.201 26.0408C219.652 26.8791 219.85 27.6037 219.808 28.2186L220.008 28.2321ZM219.378 25.9473C218.928 25.0816 218.364 24.2657 217.686 23.4995L217.536 23.6322C218.204 24.3866 218.759 25.189 219.2 26.0394L219.378 25.9473ZM217.686 23.4996C217.03 22.7574 216.486 21.9291 216.056 21.0143L215.875 21.0995C216.313 22.0311 216.867 22.8754 217.536 23.6321L217.686 23.4996ZM216.056 21.0143C215.626 20.1015 215.436 19.2711 215.479 18.521L215.279 18.5097C215.234 19.302 215.435 20.1659 215.875 21.0995L216.056 21.0143ZM215.478 18.5234C215.574 17.3392 216.143 16.3881 217.195 15.6653L217.082 15.5004C215.984 16.2547 215.379 17.2586 215.279 18.5074L215.478 18.5234ZM217.197 15.664C218.298 14.8725 219.527 14.4772 220.885 14.4772V14.2772C219.485 14.2772 218.216 14.6856 217.08 15.5016L217.197 15.664ZM220.885 14.4772C222.124 14.4772 223.107 14.85 223.845 15.5884L223.986 15.4469C223.204 14.6647 222.167 14.2772 220.885 14.2772V14.4772ZM223.847 15.5898C224.623 16.3342 224.988 17.1551 224.956 18.0557L225.156 18.0627C225.19 17.0951 224.794 16.2217 223.985 15.4455L223.847 15.5898ZM224.956 18.0545C224.936 18.5004 224.786 18.8985 224.505 19.2515L224.662 19.3759C224.968 18.9903 225.133 18.552 225.156 18.0638L224.956 18.0545ZM224.506 19.2503C224.231 19.5873 223.894 19.7513 223.492 19.7513V19.9513C223.959 19.9513 224.35 19.7569 224.661 19.377L224.506 19.2503ZM223.492 19.7513C223.046 19.7513 222.735 19.6385 222.538 19.432C222.341 19.2253 222.24 18.906 222.256 18.4537L222.056 18.4467C222.039 18.9285 222.145 19.3097 222.393 19.57C222.642 19.8306 223.015 19.9513 223.492 19.9513V19.7513ZM222.256 18.459C222.286 18.1136 222.428 17.8027 222.686 17.5243L222.539 17.3885C222.254 17.6966 222.091 18.0483 222.057 18.4414L222.256 18.459ZM222.691 17.5181C222.851 17.3144 222.973 17.1325 223.056 16.9729C223.137 16.8149 223.185 16.6705 223.185 16.5441H222.985C222.985 16.624 222.954 16.7348 222.878 16.8809C222.803 17.0255 222.689 17.1965 222.534 17.3947L222.691 17.5181ZM223.185 16.5488C223.208 16.0538 222.982 15.6183 222.529 15.245L222.402 15.3993C222.819 15.7429 223.005 16.122 222.985 16.5393L223.185 16.5488ZM222.529 15.245C222.075 14.8698 221.514 14.6845 220.853 14.6845V14.8845C221.474 14.8845 221.988 15.0577 222.402 15.3993L222.529 15.245ZM220.853 14.6845C219.963 14.6845 219.202 14.9408 218.574 15.4567L218.701 15.6112C219.289 15.1279 220.005 14.8845 220.853 14.8845V14.6845ZM218.574 15.4567C217.941 15.976 217.62 16.667 217.609 17.5202L217.809 17.5229C217.819 16.7252 218.116 16.0911 218.701 15.6112L218.574 15.4567ZM217.609 17.514C217.563 18.1176 217.78 18.8492 218.24 19.7032L218.416 19.6084C217.963 18.768 217.767 18.0768 217.808 17.5291L217.609 17.514ZM218.24 19.7046C218.711 20.5468 219.301 21.3989 220.01 22.2609L220.164 22.1338C219.462 21.2797 218.879 20.4374 218.415 19.607L218.24 19.7046ZM220.011 22.2622C220.69 23.0601 221.256 23.9062 221.709 24.8003L221.887 24.71C221.427 23.8012 220.852 22.942 220.163 22.1325L220.011 22.2622ZM221.709 24.8003C222.161 25.6941 222.359 26.4465 222.317 27.0618L222.517 27.0754C222.562 26.4091 222.347 25.6192 221.887 24.71L221.709 24.8003ZM222.317 27.0614C222.222 28.3779 221.612 29.4994 220.48 30.4289L220.607 30.5835C221.777 29.6232 222.417 28.453 222.517 27.0758L222.317 27.0614ZM220.479 30.4299C219.371 31.3674 217.94 31.8399 216.177 31.8399V32.0399C217.977 32.0399 219.457 31.5566 220.608 30.5825L220.479 30.4299ZM235.418 10.9071L235.487 10.9789L235.489 10.9778L235.418 10.9071ZM232.876 10.9071L232.804 10.9767L232.807 10.9789L232.876 10.9071ZM232.876 8.38182L232.806 8.3111L232.804 8.31224L232.876 8.38182ZM226.245 19.9165L226.162 19.8613L226.1 19.9554L226.201 20.0059L226.245 19.9165ZM233.854 15.5828L233.754 15.5788L233.754 15.5794L233.854 15.5828ZM233.284 18.0918L233.189 18.0593L233.189 18.0599L233.284 18.0918ZM229.879 28.2253L229.973 28.2582L229.973 28.2572L229.879 28.2253ZM231.687 29.2191L231.614 29.151L231.613 29.1516L231.687 29.2191ZM233.854 26.2214L233.899 26.132L233.815 26.0902L233.768 26.1707L233.854 26.2214ZM234.147 26.3681L234.235 26.4161L234.285 26.325L234.192 26.2786L234.147 26.3681ZM227.207 28.3231L227.112 28.2916L227.112 28.2924L227.207 28.3231ZM230.514 18.3524L230.419 18.3203L230.419 18.321L230.514 18.3524ZM231.084 16.2834L230.985 16.2982L230.986 16.303L231.084 16.2834ZM226.539 20.0631L226.494 20.1525L226.571 20.191L226.62 20.1208L226.539 20.0631ZM235.348 10.8352C235.02 11.1532 234.622 11.3121 234.147 11.3121V11.5121C234.672 11.5121 235.121 11.3343 235.487 10.9789L235.348 10.8352ZM234.147 11.3121C233.672 11.3121 233.274 11.1532 232.946 10.8352L232.807 10.9789C233.174 11.3343 233.622 11.5121 234.147 11.5121V11.3121ZM232.948 10.8375C232.63 10.5088 232.471 10.1157 232.471 9.65258H232.271C232.271 10.167 232.449 10.6102 232.804 10.9766L232.948 10.8375ZM232.471 9.65258C232.471 9.178 232.63 8.77964 232.948 8.4514L232.804 8.31224C232.449 8.67911 232.271 9.12793 232.271 9.65258H232.471ZM232.947 8.45253C233.275 8.12406 233.673 7.96048 234.147 7.96048V7.76048C233.621 7.76048 233.172 7.94445 232.806 8.3111L232.947 8.45253ZM234.147 7.96048C234.621 7.96048 235.019 8.12406 235.347 8.45253L235.489 8.3111C235.122 7.94445 234.673 7.76048 234.147 7.76048V7.96048ZM235.347 8.45253C235.676 8.78099 235.839 9.179 235.839 9.65258H236.039C236.039 9.12693 235.855 8.67776 235.489 8.3111L235.347 8.45253ZM235.839 9.65258C235.839 10.1146 235.676 10.5074 235.347 10.8363L235.489 10.9778C235.855 10.6116 236.039 10.168 236.039 9.65258H235.839ZM226.329 19.9717C227.548 18.1291 228.687 16.7525 229.744 15.8377C230.803 14.922 231.77 14.4772 232.648 14.4772V14.2772C231.702 14.2772 230.689 14.7557 229.614 15.6864C228.537 16.618 227.387 18.0111 226.162 19.8613L226.329 19.9717ZM232.648 14.4772C233.052 14.4772 233.331 14.5744 233.506 14.7493C233.68 14.9235 233.77 15.193 233.754 15.5788L233.954 15.5869C233.971 15.169 233.875 14.8357 233.648 14.6079C233.421 14.381 233.08 14.2772 232.648 14.2772V14.4772ZM233.754 15.5794C233.733 16.1947 233.546 17.0201 233.189 18.0593L233.378 18.1243C233.738 17.0781 233.932 16.2309 233.954 15.5863L233.754 15.5794ZM233.189 18.0599L229.784 28.1935L229.973 28.2572L233.378 18.1236L233.189 18.0599ZM229.784 28.1925C229.523 28.9424 229.388 29.5049 229.388 29.8708H229.588C229.588 29.5416 229.713 29.0071 229.973 28.2582L229.784 28.1925ZM229.388 29.8708C229.388 30.06 229.435 30.2203 229.547 30.3325C229.659 30.4448 229.82 30.4922 230.009 30.4922V30.2922C229.851 30.2922 229.75 30.2526 229.689 30.1911C229.627 30.1296 229.588 30.0292 229.588 29.8708H229.388ZM230.009 30.4922C230.24 30.4922 230.501 30.3808 230.787 30.1809C231.075 29.9795 231.4 29.6805 231.761 29.2867L231.613 29.1516C231.257 29.5398 230.944 29.8272 230.673 30.0169C230.399 30.208 230.179 30.2922 230.009 30.2922V30.4922ZM231.76 29.2873C232.494 28.4986 233.221 27.493 233.94 26.2722L233.768 26.1707C233.053 27.3827 232.335 28.3757 231.614 29.151L231.76 29.2873ZM233.809 26.3109L234.102 26.4575L234.192 26.2786L233.899 26.132L233.809 26.3109ZM234.059 26.32C233.063 28.1387 232.033 29.5071 230.97 30.4307L231.101 30.5817C232.188 29.6372 233.232 28.2468 234.235 26.4161L234.059 26.32ZM230.97 30.4307C229.9 31.36 228.984 31.8073 228.217 31.8073V32.0073C229.057 32.0073 230.02 31.5206 231.101 30.5817L230.97 30.4307ZM228.217 31.8073C227.869 31.8073 227.598 31.7353 227.397 31.6002C227.197 31.4662 227.056 31.2637 226.977 30.9841C226.817 30.417 226.917 29.5455 227.302 28.3538L227.112 28.2924C226.725 29.4901 226.608 30.4107 226.785 31.0384C226.874 31.3561 227.04 31.6017 227.285 31.7663C227.529 31.93 227.843 32.0073 228.217 32.0073V31.8073ZM227.302 28.3546L230.609 18.3839L230.419 18.321L227.112 28.2916L227.302 28.3546ZM230.609 18.3846C230.815 17.7757 230.967 17.297 231.062 16.9494C231.11 16.7757 231.145 16.6331 231.165 16.5225C231.185 16.4174 231.195 16.3258 231.182 16.2638L230.986 16.303C230.99 16.3224 230.988 16.3781 230.969 16.4862C230.95 16.5887 230.917 16.7251 230.87 16.8963C230.775 17.2383 230.625 17.7127 230.419 18.3203L230.609 18.3846ZM231.183 16.2685C231.164 16.1418 231.113 16.0348 231.02 15.9609C230.929 15.8879 230.811 15.8575 230.677 15.8575V16.0575C230.782 16.0575 230.851 16.0815 230.895 16.1171C230.939 16.1518 230.972 16.2077 230.985 16.2982L231.183 16.2685ZM230.677 15.8575C230.444 15.8575 230.184 15.9534 229.901 16.1292C229.617 16.3057 229.301 16.5678 228.953 16.9129C228.257 17.6032 227.425 18.635 226.457 20.0054L226.62 20.1208C227.586 18.7541 228.41 17.7332 229.094 17.0549C229.436 16.7158 229.74 16.4648 230.007 16.2991C230.275 16.1327 230.497 16.0575 230.677 16.0575V15.8575ZM226.583 19.9737L226.29 19.827L226.201 20.0059L226.494 20.1525L226.583 19.9737ZM252.589 14.7194H252.489L252.49 14.724L252.589 14.7194ZM252.215 15.8272L252.144 15.7565L252.143 15.758L252.215 15.8272ZM251.123 16.2182L251.118 16.3181L251.121 16.3182L251.123 16.2182ZM250.162 15.762L250.103 15.8428L250.104 15.8436L250.162 15.762ZM249.38 15.3222L249.374 15.4222H249.38V15.3222ZM248.109 16.5115L248.016 16.4747L247.998 16.5207L248.024 16.5631L248.109 16.5115ZM248.924 19.4929H248.824L248.824 19.4947L248.924 19.4929ZM247.115 24.3967L247.038 24.333L247.038 24.3332L247.115 24.3967ZM239.637 25.4557L239.705 25.3822L239.662 25.3421L239.606 25.3609L239.637 25.4557ZM237.845 27.0686L237.745 27.0735L237.745 27.0739L237.845 27.0686ZM238.416 28.1439L238.351 28.2202L238.353 28.2222L238.416 28.1439ZM240.501 29.1703L240.54 29.0781L240.537 29.0769L240.501 29.1703ZM245.242 31.1742L245.282 31.0824L245.281 31.0821L245.242 31.1742ZM247.832 32.8196L247.758 32.8868L247.759 32.8875L247.832 32.8196ZM248.647 34.9702L248.547 34.9714L248.547 34.9729L248.647 34.9702ZM246.887 37.9679L246.831 37.885L246.83 37.8856L246.887 37.9679ZM236.037 38.0168L236.084 37.9286L236.084 37.9285L236.037 38.0168ZM233.805 35.1331L233.705 35.1343L233.705 35.135L233.805 35.1331ZM234.929 32.7545L234.861 32.6812L234.861 32.6812L234.929 32.7545ZM237.91 31.3045L237.932 31.4022L238.219 31.3393L237.953 31.214L237.91 31.3045ZM235.809 28.5675L235.709 28.5688V28.5691L235.809 28.5675ZM236.803 26.4821L236.869 26.5569L236.869 26.5568L236.803 26.4821ZM239.409 25.2602L239.429 25.3583L239.602 25.3244L239.484 25.1933L239.409 25.2602ZM238.041 21.4968L237.941 21.4986V21.4989L238.041 21.4968ZM239.768 16.5929L239.69 16.5304L239.768 16.5929ZM247.881 16.1856L247.799 16.2426L247.916 16.4107L247.977 16.2155L247.881 16.1856ZM249.136 14.1003L249.203 14.1737L249.203 14.1737L249.136 14.1003ZM250.993 13.3183L250.995 13.2183L250.994 13.2183L250.993 13.3183ZM252.182 13.7256L252.113 13.7977L252.182 13.7256ZM245.209 23.126L245.122 23.077L245.122 23.077L245.209 23.126ZM246.855 17.5541H246.755L246.755 17.5561L246.855 17.5541ZM241.706 17.8474L241.62 17.7977L241.619 17.7983L241.706 17.8474ZM240.11 23.2563H240.01L240.01 23.2581L240.11 23.2563ZM244.118 33.8623L244.157 33.7704L244.155 33.7696L244.118 33.8623ZM239.279 31.9073L239.241 31.9996L239.242 32L239.279 31.9073ZM238.301 31.5L238.34 31.4077L238.301 31.3917L238.263 31.4077L238.301 31.5ZM236.493 32.9174L236.411 32.8609L236.409 32.8626L236.493 32.9174ZM235.907 34.905L235.807 34.9081L235.807 34.9095L235.907 34.905ZM237.601 37.7235L237.654 37.6387L237.653 37.6384L237.601 37.7235ZM246.382 36.2735L246.282 36.2701L246.282 36.2722L246.382 36.2735ZM252.49 14.724C252.51 15.1695 252.391 15.5091 252.144 15.7565L252.285 15.8979C252.581 15.6022 252.712 15.2032 252.689 14.7147L252.49 14.724ZM252.143 15.758C251.906 16.0046 251.572 16.1286 251.126 16.1182L251.121 16.3182C251.609 16.3295 252.002 16.1929 252.287 15.8965L252.143 15.758ZM251.128 16.1183C250.931 16.109 250.632 15.9732 250.22 15.6805L250.104 15.8436C250.518 16.1374 250.859 16.3057 251.118 16.3181L251.128 16.1183ZM250.221 15.6813C250.019 15.5336 249.849 15.4211 249.714 15.345C249.646 15.3069 249.586 15.277 249.532 15.2564C249.48 15.2363 249.428 15.2222 249.38 15.2222V15.4222C249.392 15.4222 249.417 15.4264 249.46 15.443C249.502 15.459 249.553 15.484 249.616 15.5193C249.741 15.5898 249.903 15.6972 250.103 15.8428L250.221 15.6813ZM249.386 15.2224C248.795 15.1854 248.345 15.641 248.016 16.4747L248.202 16.5482C248.525 15.731 248.922 15.3937 249.374 15.422L249.386 15.2224ZM248.024 16.5631C248.557 17.4485 248.824 18.4243 248.824 19.4929H249.024C249.024 18.3892 248.748 17.3774 248.195 16.4599L248.024 16.5631ZM248.824 19.4947C248.856 21.2388 248.263 22.8507 247.038 24.333L247.192 24.4604C248.444 22.9451 249.057 21.2877 249.024 19.491L248.824 19.4947ZM247.038 24.3332C245.85 25.778 244.379 26.4961 242.619 26.4961V26.6961C244.443 26.6961 245.969 25.9481 247.193 24.4602L247.038 24.3332ZM242.619 26.4961C241.481 26.4961 240.511 26.1248 239.705 25.3822L239.57 25.5293C240.414 26.3072 241.433 26.6961 242.619 26.6961V26.4961ZM239.606 25.3609C238.986 25.5693 238.515 25.8123 238.202 26.0942C237.886 26.3784 237.727 26.7058 237.745 27.0735L237.945 27.0637C237.931 26.7688 238.054 26.4962 238.336 26.2428C238.62 25.987 239.062 25.7549 239.669 25.5505L239.606 25.3609ZM237.745 27.0739C237.769 27.518 237.975 27.9009 238.351 28.2201L238.48 28.0676C238.14 27.7786 237.965 27.4447 237.945 27.0634L237.745 27.0739ZM238.353 28.2222C238.736 28.5259 239.444 28.8725 240.465 29.2636L240.537 29.0769C239.516 28.686 238.834 28.3484 238.478 28.0656L238.353 28.2222ZM240.462 29.2624L245.203 31.2663L245.281 31.0821L240.54 29.0781L240.462 29.2624ZM245.202 31.2659C246.402 31.785 247.251 32.3266 247.758 32.8868L247.906 32.7525C247.371 32.1614 246.492 31.606 245.282 31.0824L245.202 31.2659ZM247.759 32.8875C248.273 33.4432 248.536 34.1356 248.547 34.9714L248.747 34.9689C248.736 34.0887 248.456 33.3473 247.906 32.7518L247.759 32.8875ZM248.547 34.9729C248.578 36.1145 248.016 37.0845 246.831 37.885L246.943 38.0507C248.17 37.222 248.781 36.1936 248.747 34.9674L248.547 34.9729ZM246.83 37.8856C245.658 38.696 244.088 39.1061 242.114 39.1061V39.3061C244.114 39.3061 245.728 38.8907 246.944 38.0502L246.83 37.8856ZM242.114 39.1061C239.548 39.1061 237.541 38.7106 236.084 37.9286L235.99 38.1049C237.487 38.9086 239.531 39.3061 242.114 39.3061V39.1061ZM236.084 37.9285C234.633 37.1549 233.926 36.2202 233.905 35.1312L233.705 35.135C233.728 36.3269 234.508 37.3145 235.99 38.105L236.084 37.9285ZM233.905 35.1319C233.894 34.2854 234.253 33.5183 234.997 32.8278L234.861 32.6812C234.084 33.4026 233.694 34.2212 233.705 35.1343L233.905 35.1319ZM234.997 32.8278C235.731 32.1474 236.707 31.6708 237.932 31.4022L237.889 31.2068C236.638 31.4813 235.626 31.9713 234.861 32.6812L234.997 32.8278ZM237.953 31.214C237.199 30.8585 236.677 30.4865 236.376 30.1024L236.219 30.2258C236.548 30.6454 237.101 31.0337 237.868 31.395L237.953 31.214ZM236.376 30.1024C236.078 29.7222 235.919 29.2131 235.909 28.5658L235.709 28.5691C235.72 29.2469 235.887 29.8022 236.219 30.2258L236.376 30.1024ZM235.909 28.5661C235.898 27.8064 236.214 27.1379 236.869 26.5569L236.736 26.4073C236.044 27.021 235.698 27.7428 235.709 28.5688L235.909 28.5661ZM236.869 26.5568C237.538 25.9624 238.389 25.5619 239.429 25.3583L239.39 25.1621C238.322 25.3713 237.436 25.7853 236.736 26.4074L236.869 26.5568ZM239.484 25.1933C238.623 24.2365 238.173 23.0063 238.141 21.4947L237.941 21.4989C237.974 23.0501 238.437 24.3289 239.335 25.3271L239.484 25.1933ZM238.141 21.495C238.109 19.7276 238.676 18.1155 239.846 16.6555L239.69 16.5304C238.492 18.0246 237.908 19.6818 237.941 21.4986L238.141 21.495ZM239.846 16.6555C241.012 15.2006 242.477 14.4772 244.248 14.4772V14.2772C242.413 14.2772 240.891 15.0309 239.69 16.5304L239.846 16.6555ZM244.248 14.4772C245.804 14.4772 246.983 15.0664 247.799 16.2426L247.963 16.1286C247.107 14.8936 245.863 14.2772 244.248 14.2772V14.4772ZM247.977 16.2155C248.244 15.3602 248.654 14.6812 249.203 14.1737L249.068 14.0268C248.488 14.562 248.061 15.2733 247.786 16.1558L247.977 16.2155ZM249.203 14.1737C249.764 13.6555 250.359 13.4079 250.991 13.4182L250.994 13.2183C250.302 13.2069 249.659 13.4806 249.068 14.0268L249.203 14.1737ZM250.991 13.4182C251.497 13.4288 251.865 13.5601 252.113 13.7977L252.251 13.6534C251.956 13.3696 251.532 13.2295 250.995 13.2183L250.991 13.4182ZM252.113 13.7977C252.363 14.0381 252.489 14.3427 252.489 14.7194H252.689C252.689 14.2923 252.544 13.9343 252.251 13.6534L252.113 13.7977ZM241.869 26.1585C242.465 26.1585 243.048 25.9002 243.618 25.4005C244.186 24.9015 244.745 24.1578 245.296 23.1749L245.122 23.077C244.577 24.0492 244.031 24.7717 243.486 25.2502C242.941 25.7281 242.403 25.9585 241.869 25.9585V26.1585ZM245.296 23.175C246.432 21.1554 246.988 19.2805 246.955 17.5522L246.755 17.5561C246.787 19.2383 246.246 21.0779 245.122 23.077L245.296 23.175ZM246.955 17.5541C246.955 16.6777 246.814 16.0032 246.519 15.545C246.219 15.0792 245.767 14.8474 245.177 14.8474V15.0474C245.705 15.0474 246.092 15.2501 246.351 15.6532C246.616 16.064 246.755 16.6928 246.755 17.5541H246.955ZM245.177 14.8474C243.913 14.8474 242.73 15.8594 241.62 17.7977L241.793 17.8971C242.898 15.9688 244.029 15.0474 245.177 15.0474V14.8474ZM241.619 17.7983C240.549 19.6993 240.01 21.5191 240.01 23.2563H240.21C240.21 21.5614 240.735 19.7752 241.794 17.8965L241.619 17.7983ZM240.01 23.2581C240.026 24.1992 240.182 24.9214 240.49 25.4111C240.802 25.9085 241.266 26.1585 241.869 26.1585V25.9585C241.332 25.9585 240.933 25.7415 240.659 25.3048C240.38 24.8605 240.226 24.1816 240.21 23.2546L240.01 23.2581ZM244.155 33.7696L239.316 31.8146L239.242 32L244.08 33.955L244.155 33.7696ZM239.317 31.815L238.34 31.4077L238.263 31.5923L239.241 31.9996L239.317 31.815ZM238.263 31.4077C237.466 31.74 236.846 32.2239 236.411 32.8609L236.576 32.9739C236.987 32.3727 237.573 31.9117 238.34 31.5923L238.263 31.4077ZM236.409 32.8626C235.986 33.5082 235.784 34.1908 235.807 34.9081L236.007 34.9019C235.985 34.229 236.174 33.5865 236.577 32.9722L236.409 32.8626ZM235.807 34.9095C235.863 36.1605 236.446 37.1295 237.548 37.8086L237.653 37.6384C236.605 36.9924 236.059 36.0825 236.006 34.9005L235.807 34.9095ZM237.548 37.8083C238.646 38.4959 240.215 38.8336 242.244 38.8336V38.6336C240.233 38.6336 238.707 38.2979 237.654 37.6387L237.548 37.8083ZM242.244 38.8336C243.482 38.8336 244.494 38.6202 245.274 38.1856L245.177 38.0109C244.436 38.4234 243.461 38.6336 242.244 38.6336V38.8336ZM245.274 38.1856C246.062 37.7466 246.471 37.1076 246.482 36.2749L246.282 36.2722C246.272 37.0252 245.91 37.6026 245.177 38.0109L245.274 38.1856ZM246.482 36.277C246.517 35.2647 245.706 34.4356 244.157 33.7704L244.078 33.9542C245.614 34.6141 246.313 35.3924 246.282 36.2701L246.482 36.277ZM262.022 28.1602L262.115 28.197L262.117 28.1939L262.022 28.1602ZM264.499 21.2524L264.405 21.2175L264.405 21.2187L264.499 21.2524ZM265.542 17.0491L265.442 17.0515V17.0516L265.542 17.0491ZM254.577 31.5V31.6H254.643L254.669 31.5391L254.577 31.5ZM252.182 31.5L252.087 31.4694L252.045 31.6H252.182V31.5ZM256.418 18.2547L256.323 18.2213L256.321 18.2295L256.418 18.2547ZM256.711 17.2772L256.615 17.2512L256.614 17.2547L256.711 17.2772ZM256.842 16.5115L256.742 16.5024L256.742 16.5067L256.842 16.5115ZM256.776 15.9738L256.687 16.0186L256.689 16.0217L256.776 15.9738ZM254.691 16.9676L254.62 16.8974V16.8974L254.691 16.9676ZM252.378 19.9491L252.333 20.0385L252.413 20.0787L252.462 20.0029L252.378 19.9491ZM252.117 19.8187L252.032 19.7664L251.975 19.8594L252.072 19.9082L252.117 19.8187ZM259.285 17.7822L259.381 17.8125L259.382 17.8094L259.285 17.7822ZM257.249 23.5984L257.155 23.5645L257.155 23.5652L257.249 23.5984ZM256.157 26.6939L256.063 26.6606L256.029 26.7566L256.126 26.7888L256.157 26.6939ZM256.255 26.7265L256.224 26.8213L256.309 26.85L256.346 26.7674L256.255 26.7265ZM262.088 16.4137L262.16 16.4822L262.161 16.4818L262.088 16.4137ZM263.994 14.8171L264.04 14.9058L264.041 14.9055L263.994 14.8171ZM266.959 14.6868L266.907 14.7721L266.909 14.7733L266.959 14.6868ZM267.806 15.5991L267.719 15.6475L267.72 15.6502L267.806 15.5991ZM267.594 19.8513L267.5 19.8181L267.5 19.8189L267.594 19.8513ZM264.89 27.7366L264.984 27.7698L264.984 27.769L264.89 27.7366ZM264.287 30.1315L264.386 30.1173L264.384 30.1081L264.287 30.1315ZM266.389 29.3006L266.459 29.3713L266.461 29.37L266.389 29.3006ZM268.637 26.4006L268.686 26.3132L268.602 26.2666L268.552 26.3485L268.637 26.4006ZM268.93 26.5636L269.016 26.6151L269.069 26.5264L268.979 26.4761L268.93 26.5636ZM263.016 31.8725C262.645 31.8725 262.357 31.7889 262.143 31.6312C261.929 31.4741 261.778 31.2357 261.696 30.9055L261.502 30.954C261.593 31.319 261.765 31.6019 262.024 31.7923C262.282 31.9822 262.616 32.0725 263.016 32.0725V31.8725ZM261.696 30.9055C261.53 30.2408 261.662 29.3415 262.115 28.197L261.929 28.1233C261.471 29.2814 261.32 30.2286 261.502 30.954L261.696 30.9055ZM262.117 28.1939L264.593 21.2861L264.405 21.2187L261.928 28.1264L262.117 28.1939ZM264.593 21.2873C265.309 19.3647 265.664 17.9475 265.641 17.0466L265.442 17.0516C265.463 17.9102 265.122 19.2952 264.405 21.2175L264.593 21.2873ZM265.641 17.0467C265.63 16.5884 265.52 16.2269 265.294 15.9797C265.065 15.7303 264.735 15.6132 264.32 15.6132V15.8132C264.697 15.8132 264.967 15.9187 265.146 16.1146C265.327 16.3127 265.431 16.6192 265.442 17.0515L265.641 17.0467ZM264.32 15.6132C263.773 15.6132 263.167 15.9668 262.504 16.6291C261.837 17.2948 261.097 18.2889 260.284 19.6074C258.656 22.245 256.723 26.1971 254.485 31.4609L254.669 31.5391C256.906 26.2783 258.834 22.3371 260.454 19.7124C261.264 18.3997 261.994 17.4205 262.645 16.7706C263.299 16.1173 263.856 15.8132 264.32 15.8132V15.6132ZM254.577 31.4H252.182V31.6H254.577V31.4ZM252.277 31.5306C255.035 22.9534 256.449 18.5333 256.515 18.2799L256.321 18.2295C256.257 18.4757 254.847 22.8858 252.087 31.4694L252.277 31.5306ZM256.512 18.288C256.644 17.9163 256.743 17.5867 256.809 17.2997L256.614 17.2547C256.55 17.5324 256.453 17.8545 256.324 18.2214L256.512 18.288ZM256.808 17.3032C256.885 17.0157 256.93 16.7532 256.942 16.5162L256.742 16.5067C256.731 16.7259 256.689 16.9739 256.615 17.2512L256.808 17.3032ZM256.941 16.5205C256.964 16.275 256.944 16.0716 256.864 15.9259L256.689 16.0217C256.74 16.115 256.763 16.27 256.742 16.5024L256.941 16.5205ZM256.866 15.9291C256.826 15.8496 256.771 15.7852 256.698 15.7415C256.625 15.6978 256.541 15.6783 256.451 15.6783V15.8783C256.512 15.8783 256.559 15.8914 256.595 15.913C256.63 15.9344 256.662 15.9678 256.687 16.0186L256.866 15.9291ZM256.451 15.6783C256.225 15.6783 255.96 15.7913 255.661 15.9928C255.361 16.1962 255.013 16.4986 254.62 16.8974L254.762 17.0379C255.151 16.6438 255.488 16.3516 255.773 16.1585C256.062 15.9636 256.286 15.8783 256.451 15.8783V15.6783ZM254.62 16.8974C253.843 17.6856 253.067 18.6854 252.293 19.8952L252.462 20.0029C253.23 18.8016 253.997 17.8137 254.762 17.0379L254.62 16.8974ZM252.422 19.8596L252.162 19.7293L252.072 19.9082L252.333 20.0385L252.422 19.8596ZM252.202 19.871C253.313 18.0614 254.373 16.7101 255.381 15.8123C256.389 14.9141 257.337 14.4772 258.226 14.4772V14.2772C257.269 14.2772 256.276 14.7473 255.248 15.6629C254.219 16.5789 253.148 17.9484 252.032 19.7664L252.202 19.871ZM258.226 14.4772C258.55 14.4772 258.803 14.5453 258.995 14.6732C259.185 14.8003 259.323 14.9926 259.406 15.2582C259.573 15.7964 259.509 16.6235 259.189 17.7551L259.382 17.8094C259.703 16.6709 259.782 15.7956 259.597 15.1988C259.503 14.8969 259.34 14.6635 259.106 14.5069C258.872 14.351 258.577 14.2772 258.226 14.2772V14.4772ZM259.19 17.752C258.898 18.673 258.219 20.6099 257.155 23.5645L257.343 23.6323C258.407 20.6785 259.087 18.7379 259.381 17.8125L259.19 17.752ZM257.155 23.5652L256.063 26.6606L256.252 26.7271L257.343 23.6317L257.155 23.5652ZM256.126 26.7888L256.224 26.8213L256.287 26.6316L256.189 26.599L256.126 26.7888ZM256.346 26.7674C258.693 21.5314 260.631 18.1085 262.16 16.4822L262.015 16.3452C260.46 17.999 258.51 21.4513 256.164 26.6856L256.346 26.7674ZM262.161 16.4818C262.886 15.7029 263.512 15.1804 264.04 14.9058L263.948 14.7284C263.39 15.0186 262.745 15.5605 262.014 16.3456L262.161 16.4818ZM264.041 14.9055C264.579 14.6204 265.176 14.4772 265.835 14.4772V14.2772C265.146 14.2772 264.516 14.4273 263.947 14.7287L264.041 14.9055ZM265.835 14.4772C266.23 14.4772 266.586 14.5758 266.907 14.772L267.011 14.6015C266.658 14.3851 266.265 14.2772 265.835 14.2772V14.4772ZM266.909 14.7733C267.227 14.9579 267.497 15.2473 267.719 15.6475L267.894 15.5508C267.659 15.1255 267.364 14.8066 267.009 14.6003L266.909 14.7733ZM267.72 15.6502C267.945 16.0289 268.053 16.5772 268.032 17.3068L268.232 17.3127C268.254 16.5652 268.145 15.9731 267.892 15.548L267.72 15.6502ZM268.032 17.3068C268.011 18.032 267.834 18.8687 267.5 19.8181L267.689 19.8845C268.028 18.9223 268.21 18.0646 268.232 17.3127L268.032 17.3068ZM267.5 19.8189L264.795 27.7041L264.984 27.769L267.689 19.8837L267.5 19.8189ZM264.796 27.7033C264.562 28.3671 264.393 28.9012 264.292 29.3047C264.241 29.5064 264.207 29.6773 264.189 29.8165C264.172 29.9532 264.169 30.0687 264.19 30.1548L264.384 30.1081C264.372 30.0585 264.371 29.9724 264.387 29.8417C264.404 29.7134 264.436 29.551 264.486 29.3535C264.585 28.9587 264.751 28.4312 264.984 27.7698L264.796 27.7033ZM264.188 30.1456C264.207 30.2788 264.262 30.3905 264.36 30.467C264.457 30.5422 264.583 30.5736 264.727 30.5736V30.3736C264.61 30.3736 264.533 30.348 264.483 30.3091C264.435 30.2717 264.4 30.2122 264.386 30.1173L264.188 30.1456ZM264.727 30.5736C264.923 30.5736 265.165 30.459 265.444 30.2621C265.728 30.0619 266.067 29.7642 266.459 29.3713L266.318 29.2299C265.929 29.619 265.599 29.9078 265.329 30.0987C265.054 30.2927 264.856 30.3736 264.727 30.3736V30.5736ZM266.461 29.37C267.334 28.4634 268.088 27.491 268.722 26.4527L268.552 26.3485C267.926 27.3739 267.181 28.3348 266.317 29.2312L266.461 29.37ZM268.588 26.4881L268.882 26.651L268.979 26.4761L268.686 26.3132L268.588 26.4881ZM268.845 26.512C268.045 27.8405 267.062 29.0886 265.894 30.2563L266.036 30.3977C267.214 29.2193 268.208 27.9584 269.016 26.6151L268.845 26.512ZM265.894 30.2563C264.803 31.348 263.844 31.8725 263.016 31.8725V32.0725C263.926 32.0725 264.934 31.4999 266.036 30.3977L265.894 30.2563ZM277.972 22.7838L277.999 22.8801L278 22.8798L277.972 22.7838ZM274.046 23.8917L274.019 23.7954L273.961 23.8117L273.948 23.8701L274.046 23.8917ZM274.453 29.4798L274.371 29.537L274.372 29.5384L274.453 29.4798ZM282.176 26.5636L282.218 26.4731L282.14 26.4365L282.093 26.5078L282.176 26.5636ZM282.452 26.6939L282.54 26.7427L282.592 26.6491L282.495 26.6034L282.452 26.6939ZM279.341 30.4736L279.406 30.5492L279.407 30.5489L279.341 30.4736ZM272.172 30.5062L272.091 30.5643L272.092 30.5662L272.172 30.5062ZM272.27 20.9592L272.361 20.9997L272.362 20.9991L272.27 20.9592ZM275.74 16.2834L275.805 16.3599L275.805 16.3597L275.74 16.2834ZM283.186 15.3873L283.123 15.4654L283.125 15.4668L283.186 15.3873ZM282.843 20.6985L282.901 20.78L282.902 20.7796L282.843 20.6985ZM276.913 17.6193L276.832 17.5615L276.831 17.5618L276.913 17.6193ZM274.144 23.5659L274.047 23.5403L273.999 23.7232L274.177 23.6601L274.144 23.5659ZM279.781 21.0243L279.727 20.9398L279.726 20.9407L279.781 21.0243ZM281.752 15.4525L281.678 15.52L281.679 15.521L281.752 15.4525ZM277.945 22.6876L274.019 23.7954L274.073 23.9879L277.999 22.8801L277.945 22.6876ZM273.948 23.8701C273.719 24.9064 273.604 25.8046 273.604 26.5636H273.804C273.804 25.8237 273.916 24.9406 274.144 23.9133L273.948 23.8701ZM273.604 26.5636C273.604 27.8033 273.856 28.7978 274.371 29.537L274.535 29.4226C274.051 28.7281 273.804 27.7784 273.804 26.5636H273.604ZM274.372 29.5384C274.902 30.2707 275.627 30.6388 276.539 30.6388V30.4388C275.69 30.4388 275.026 30.1009 274.534 29.4212L274.372 29.5384ZM276.539 30.6388C278.565 30.6388 280.47 29.2797 282.259 26.6193L282.093 26.5078C280.318 29.1477 278.465 30.4388 276.539 30.4388V30.6388ZM282.133 26.654L282.41 26.7844L282.495 26.6034L282.218 26.4731L282.133 26.654ZM282.365 26.6451C281.6 28.0136 280.57 29.2647 279.275 30.3984L279.407 30.5489C280.718 29.4016 281.763 28.133 282.54 26.7427L282.365 26.6451ZM279.275 30.3981C278.064 31.4488 276.75 31.9702 275.333 31.9702V32.1702C276.805 32.1702 278.163 31.6272 279.406 30.5492L279.275 30.3981ZM275.333 31.9702C274.039 31.9702 273.015 31.4632 272.252 30.4462L272.092 30.5662C272.894 31.6345 273.977 32.1702 275.333 32.1702V31.9702ZM272.254 30.4481C271.485 29.3699 271.099 28.0982 271.099 26.6287H270.899C270.899 28.1353 271.296 29.4485 272.091 30.5642L272.254 30.4481ZM271.099 26.6287C271.099 24.7761 271.519 22.9 272.361 20.9997L272.179 20.9186C271.326 22.8414 270.899 24.7451 270.899 26.6287H271.099ZM272.362 20.9991C273.159 19.1665 274.307 17.6205 275.805 16.3599L275.676 16.2069C274.154 17.4878 272.988 19.059 272.178 20.9192L272.362 20.9991ZM275.805 16.3597C277.268 15.1228 278.793 14.5098 280.383 14.5098V14.3098C278.737 14.3098 277.167 14.9458 275.676 16.207L275.805 16.3597ZM280.383 14.5098C281.414 14.5098 282.326 14.8281 283.123 15.4654L283.248 15.3092C282.416 14.6432 281.459 14.3098 280.383 14.3098V14.5098ZM283.125 15.4668C283.926 16.0785 284.324 16.8695 284.324 17.8474H284.524C284.524 16.8051 284.096 15.9561 283.246 15.3078L283.125 15.4668ZM284.324 17.8474C284.324 18.9509 283.817 19.8729 282.785 20.6174L282.902 20.7796C283.977 20.0035 284.524 19.0248 284.524 17.8474H284.324ZM282.786 20.617C281.746 21.3568 280.134 22.0482 277.944 22.6879L278 22.8798C280.198 22.2379 281.834 21.539 282.901 20.78L282.786 20.617ZM280.383 14.7823C279.842 14.7823 279.277 15.0239 278.688 15.488C278.1 15.9523 277.481 16.645 276.832 17.5615L276.995 17.6771C277.638 16.769 278.244 16.0931 278.812 15.6451C279.38 15.1968 279.903 14.9823 280.383 14.9823V14.7823ZM276.831 17.5618C275.543 19.3961 274.615 21.3891 274.047 23.5403L274.24 23.5914C274.802 21.4632 275.72 19.4919 276.995 17.6768L276.831 17.5618ZM274.177 23.6601C275.59 23.1602 276.695 22.7357 277.491 22.3867L277.411 22.2035C276.621 22.5496 275.521 22.9723 274.11 23.4716L274.177 23.6601ZM277.491 22.3867C278.289 22.0367 279.071 21.6104 279.836 21.1079L279.726 20.9407C278.97 21.4374 278.198 21.8583 277.411 22.2035L277.491 22.3867ZM279.834 21.1088C281.518 20.0415 282.373 18.6768 282.373 17.0165H282.173C282.173 18.5928 281.367 19.9001 279.727 20.9399L279.834 21.1088ZM282.373 17.0165C282.373 16.3262 282.195 15.7772 281.825 15.384L281.679 15.521C282.004 15.8663 282.173 16.36 282.173 17.0165H282.373ZM281.826 15.385C281.457 14.982 280.973 14.7823 280.383 14.7823V14.9823C280.923 14.9823 281.351 15.1627 281.678 15.52L281.826 15.385ZM285.581 31.5L285.486 31.4683L285.442 31.6H285.581V31.5ZM289.816 18.385L289.912 18.4153L289.912 18.4149L289.816 18.385ZM290.305 16.5929L290.403 16.6134L290.403 16.6122L290.305 16.5929ZM285.972 19.9491L285.919 20.0339L286 20.0847L286.054 20.0055L285.972 19.9491ZM285.711 19.7861L285.627 19.7316L285.572 19.817L285.658 19.8709L285.711 19.7861ZM292.651 18.2221L292.745 18.2561L292.745 18.2557L292.651 18.2221ZM289.914 25.7978L289.82 25.7639L289.782 25.868L289.89 25.8949L289.914 25.7978ZM290.044 25.8304L290.02 25.9274L290.103 25.9481L290.136 25.8699L290.044 25.8304ZM295.258 16.1856L295.331 16.2538L295.331 16.2535L295.258 16.1856ZM296.903 14.7519L296.855 14.6642L296.854 14.6647L296.903 14.7519ZM300.748 16.6581L300.648 16.6613L300.649 16.6668L300.748 16.6581ZM297.555 17.88L297.655 17.8757L297.655 17.8741L297.555 17.88ZM297.734 17.098L297.642 17.0593L297.641 17.0619L297.734 17.098ZM297.392 15.7457L297.41 15.6472L297.407 15.6469L297.392 15.7457ZM295.356 16.9025L295.282 16.8345L295.279 16.8379L295.356 16.9025ZM295.176 17.1143L295.1 17.0497L295.099 17.0512L295.176 17.1143ZM288.171 31.5V31.6H288.24L288.264 31.5357L288.171 31.5ZM285.675 31.5317C286.642 28.6419 288.054 24.2696 289.912 18.4153L289.721 18.3548C287.864 24.2089 286.452 28.5799 285.486 31.4683L285.675 31.5317ZM289.912 18.4149C290.14 17.6857 290.304 17.0849 290.403 16.6134L290.207 16.5724C290.11 17.035 289.949 17.6289 289.721 18.3551L289.912 18.4149ZM290.403 16.6122C290.464 16.3035 290.469 16.0518 290.398 15.8721C290.362 15.7795 290.305 15.7043 290.224 15.6532C290.145 15.6026 290.05 15.5806 289.947 15.5806V15.7806C290.022 15.7806 290.077 15.7966 290.117 15.822C290.156 15.8469 290.189 15.8858 290.212 15.9452C290.261 16.0697 290.266 16.2741 290.207 16.5737L290.403 16.6122ZM289.947 15.5806C289.739 15.5806 289.503 15.6837 289.244 15.8655C288.982 16.0489 288.684 16.3213 288.35 16.6795C287.683 17.3964 286.862 18.4683 285.889 19.8926L286.054 20.0055C287.025 18.5841 287.839 17.5218 288.497 16.8159C288.826 16.4627 289.113 16.2015 289.359 16.0293C289.607 15.8553 289.801 15.7806 289.947 15.7806V15.5806ZM286.025 19.8643L285.764 19.7013L285.658 19.8709L285.919 20.0339L286.025 19.8643ZM285.795 19.8407C287.014 17.965 288.135 16.5636 289.155 15.6322C290.177 14.6991 291.086 14.2491 291.885 14.2491V14.0491C291.012 14.0491 290.056 14.5387 289.02 15.4845C287.982 16.4321 286.851 17.8493 285.627 19.7316L285.795 19.8407ZM291.885 14.2491C292.24 14.2491 292.509 14.3306 292.703 14.4824C292.895 14.6336 293.026 14.864 293.086 15.1859C293.209 15.8367 293.04 16.8331 292.557 18.1886L292.745 18.2557C293.23 16.8958 293.416 15.8557 293.283 15.1489C293.216 14.7919 293.066 14.5132 292.826 14.325C292.587 14.1374 292.27 14.0491 291.885 14.0491V14.2491ZM292.557 18.1881L289.82 25.7639L290.008 25.8318L292.745 18.2561L292.557 18.1881ZM289.89 25.8949L290.02 25.9274L290.069 25.7334L289.938 25.7008L289.89 25.8949ZM290.136 25.8699C291.211 23.3679 292.182 21.3154 293.049 19.7115C293.916 18.1062 294.677 16.9557 295.331 16.2538L295.185 16.1175C294.513 16.8384 293.743 18.0068 292.873 19.6164C292.002 21.2274 291.029 23.2859 289.953 25.791L290.136 25.8699ZM295.331 16.2535C295.981 15.5497 296.521 15.0811 296.952 14.8392L296.854 14.6647C296.395 14.9224 295.838 15.4096 295.184 16.1178L295.331 16.2535ZM296.951 14.8397C297.392 14.5984 297.88 14.4772 298.419 14.4772V14.2772C297.849 14.2772 297.327 14.4058 296.855 14.6642L296.951 14.8397ZM298.419 14.4772C299.103 14.4772 299.635 14.6818 300.025 15.0824L300.168 14.9428C299.733 14.4962 299.146 14.2772 298.419 14.2772V14.4772ZM300.025 15.0824C300.418 15.4856 300.627 16.0091 300.648 16.6613L300.848 16.6549C300.826 15.9603 300.601 15.3868 300.168 14.9428L300.025 15.0824ZM300.649 16.6668C300.701 17.2609 300.545 17.7839 300.181 18.2413L300.338 18.3658C300.734 17.8675 300.904 17.2935 300.848 16.6494L300.649 16.6668ZM300.181 18.2413C299.818 18.6982 299.378 18.9204 298.858 18.9204V19.1204C299.446 19.1204 299.941 18.8648 300.338 18.3658L300.181 18.2413ZM298.858 18.9204C298.454 18.9204 298.163 18.8283 297.971 18.6601C297.781 18.4932 297.67 18.2376 297.655 17.8757L297.455 17.8843C297.472 18.2826 297.596 18.5973 297.839 18.8106C298.082 19.0224 298.427 19.1204 298.858 19.1204V18.9204ZM297.655 17.8741C297.645 17.7118 297.698 17.4677 297.828 17.1341L297.641 17.0619C297.51 17.4016 297.443 17.6789 297.455 17.8859L297.655 17.8741ZM297.826 17.1366C297.897 16.9674 297.951 16.8293 297.988 16.723C298.006 16.67 298.02 16.6236 298.03 16.5846C298.039 16.5472 298.046 16.5104 298.046 16.4789H297.846C297.846 16.4853 297.844 16.5029 297.836 16.5361C297.828 16.5677 297.816 16.6082 297.798 16.6583C297.764 16.7584 297.712 16.8918 297.642 17.0593L297.826 17.1366ZM298.046 16.4789C298.046 16.2535 297.997 16.0627 297.887 15.9176C297.777 15.771 297.613 15.6832 297.41 15.6473L297.375 15.8442C297.54 15.8735 297.654 15.9405 297.728 16.0382C297.803 16.1375 297.846 16.2807 297.846 16.4789H298.046ZM297.407 15.6469C297.096 15.599 296.762 15.6829 296.41 15.8828C296.058 16.0825 295.683 16.4014 295.282 16.8346L295.429 16.9703C295.822 16.5455 296.182 16.2426 296.509 16.0567C296.836 15.871 297.124 15.8056 297.377 15.8446L297.407 15.6469ZM295.279 16.8379L295.1 17.0497L295.253 17.1789L295.432 16.9671L295.279 16.8379ZM295.099 17.0512C294.288 18.0488 293.257 19.8061 292.008 22.3157L292.187 22.4048C293.436 19.8965 294.458 18.1565 295.254 17.1774L295.099 17.0512ZM292.008 22.3157C290.757 24.8284 289.447 27.8781 288.078 31.4643L288.264 31.5357C289.632 27.9535 290.94 24.91 292.187 22.4048L292.008 22.3157ZM288.171 31.4H285.581V31.6H288.171V31.4Z" fill="#105EFB"/>
<path d="M305 44H0V48H305V44Z" fill="#105EFB" mask="url(#path-1-inside-1_584_7861)"/>
</svg>
