<svg width="311" height="46" viewBox="0 0 311 46" fill="none" xmlns="http://www.w3.org/2000/svg">
<path d="M61.3399 23L55.2989 19.5122V26.4878L61.3399 23ZM0 23.6041H55.903V22.3959H0V23.6041Z" fill="#171515"/>
<path d="M83.7567 31.9399C80.9436 31.9399 78.9832 31.0927 77.8753 29.3983C76.7783 27.704 76.6208 25.2548 77.4028 22.0507L80.1725 10.4835C80.3788 9.73404 80.3517 9.13124 80.091 8.67507C79.8303 8.20804 79.3687 7.94193 78.7062 7.87677L78.8039 7.46947H85.9235L85.8583 7.87677C84.4246 7.97452 83.5232 8.83256 83.1539 10.4509L80.3517 22.0507C79.5914 24.8312 79.586 27.0577 80.3354 28.7304C81.0848 30.403 82.5131 31.2393 84.6201 31.2393C86.3797 31.2393 87.9654 30.4899 89.3774 28.991C90.7893 27.4922 91.8483 25.2711 92.5543 22.3277L95.2587 11.0537C95.7041 9.06607 94.9818 8.0071 93.0919 7.87677L93.1897 7.46947H99.739L99.625 7.87677C97.822 7.97452 96.6544 9.03349 96.1222 11.0537L93.1897 22.3277C91.4953 28.7358 88.351 31.9399 83.7567 31.9399ZM113.88 7.46947H120.495L120.397 7.87677C118.79 8.03969 116.797 9.48423 114.418 12.2104L109.123 18.3524L112.691 28.1602C113.039 29.1377 113.44 29.8491 113.897 30.2944C114.353 30.7397 114.918 30.995 115.591 31.0601L115.493 31.5H108.243L108.357 31.0601C109.693 30.7994 109.949 29.4907 109.123 27.1338L106.81 20.6496L101.71 26.5636C100.592 27.9212 100.081 28.9748 100.179 29.7242C100.288 30.4628 100.977 30.9081 102.248 31.0601L102.15 31.5H94.3627L94.4767 31.0601C95.5086 30.9298 96.5838 30.4628 97.7025 29.659C98.843 28.8444 100.233 27.4922 101.873 25.6023L106.614 20.1283L103.486 11.3795C102.965 9.9567 102.541 9.05521 102.215 8.67507C101.846 8.24062 101.319 7.97452 100.635 7.87677L100.749 7.46947H107.787L107.689 7.87677C106.277 8.24605 105.919 9.41363 106.614 11.3795L108.944 17.8148L113.848 12.1778C115.966 9.71232 115.944 8.27863 113.783 7.87677L113.88 7.46947ZM114.402 36.8112L120.739 28.5675L136.298 7.46947H137.227L130.514 16.2182L121.016 29.0236L115.33 36.8112H114.402ZM143.548 31.9399C140.735 31.9399 138.774 31.0927 137.667 29.3983C136.57 27.704 136.412 25.2548 137.194 22.0507L139.964 10.4835C140.17 9.73404 140.143 9.13124 139.882 8.67507C139.622 8.20804 139.16 7.94193 138.497 7.87677L138.595 7.46947H145.715L145.65 7.87677C144.216 7.97452 143.314 8.83256 142.945 10.4509L140.143 22.0507C139.383 24.8312 139.377 27.0577 140.127 28.7304C140.876 30.403 142.304 31.2393 144.411 31.2393C146.171 31.2393 147.757 30.4899 149.169 28.991C150.581 27.4922 151.64 25.2711 152.346 22.3277L155.05 11.0537C155.495 9.06607 154.773 8.0071 152.883 7.87677L152.981 7.46947H159.53L159.416 7.87677C157.613 7.97452 156.446 9.03349 155.913 11.0537L152.981 22.3277C151.287 28.7358 148.142 31.9399 143.548 31.9399ZM155.767 31.5L155.865 31.0601C157.157 30.9298 158.026 30.0283 158.471 28.3557L162.74 10.5161C163.174 8.88686 162.751 8.0071 161.469 7.87677L161.567 7.46947H168.377L168.279 7.87677C167.616 7.93107 167.079 8.15373 166.666 8.54473C166.253 8.92488 165.944 9.58198 165.737 10.5161L161.436 28.4045C161.23 29.154 161.241 29.7676 161.469 30.2455C161.708 30.7234 162.121 30.995 162.707 31.0601L162.609 31.5H155.767ZM196.79 17.6193C196.79 19.9871 196.182 22.2353 194.965 24.3642C193.716 26.5147 192.081 28.2362 190.061 29.5287C188.008 30.8429 185.847 31.5 183.577 31.5H173.835L173.932 31.0927C174.486 31.0384 175.008 30.7723 175.496 30.2944C175.985 29.8165 176.333 29.1703 176.539 28.3557L180.775 10.6464C181.22 8.95203 180.807 8.03969 179.537 7.90935L179.651 7.46947H187.846C190.561 7.46947 192.733 8.39268 194.362 10.2391C195.981 12.0638 196.79 14.5239 196.79 17.6193ZM183.642 30.995C185.63 30.995 187.422 30.2618 189.019 28.7955C190.615 27.3619 191.837 25.5372 192.684 23.3215C193.531 21.1166 193.955 18.8847 193.955 16.6255C193.933 14.1926 193.526 12.2973 192.733 10.9396C191.951 9.58198 190.724 8.69679 189.051 8.28406C188.247 8.0777 186.711 7.97452 184.441 7.97452L179.048 30.5388C180.503 30.8429 182.035 30.995 183.642 30.995ZM205.115 22.7838L201.189 23.8917C200.96 24.9235 200.846 25.8141 200.846 26.5636C200.846 27.7909 201.096 28.763 201.596 29.4798C202.106 30.1858 202.801 30.5388 203.681 30.5388C205.658 30.5388 207.537 29.2137 209.318 26.5636L209.595 26.6939C208.824 28.0733 207.787 29.3332 206.483 30.4736C205.256 31.538 203.92 32.0702 202.476 32.0702C201.151 32.0702 200.097 31.5489 199.315 30.5062C198.533 29.4092 198.142 28.1167 198.142 26.6287C198.142 24.7606 198.566 22.8707 199.413 20.9592C200.216 19.1127 201.373 17.5541 202.883 16.2834C204.36 15.0343 205.908 14.4098 207.526 14.4098C208.58 14.4098 209.514 14.7357 210.328 15.3873C211.154 16.0173 211.567 16.8373 211.567 17.8474C211.567 18.9878 211.04 19.9382 209.986 20.6985C208.933 21.4479 207.309 22.143 205.115 22.7838ZM207.526 14.8823C206.505 14.8823 205.348 15.7946 204.056 17.6193C202.774 19.444 201.851 21.4262 201.286 23.5659C202.698 23.0662 203.801 22.6426 204.594 22.2951C205.386 21.9475 206.163 21.5239 206.923 21.0243C208.585 19.9708 209.416 18.6348 209.416 17.0165C209.416 16.3431 209.242 15.8218 208.895 15.4525C208.547 15.0723 208.091 14.8823 207.526 14.8823ZM216.177 31.9399C214.863 31.9399 213.798 31.5815 212.984 30.8646C212.18 30.1478 211.811 29.2463 211.876 28.1602C211.898 27.704 212.072 27.2967 212.397 26.9383C212.723 26.5799 213.114 26.4006 213.57 26.4006C214.027 26.4006 214.385 26.5473 214.646 26.8405C214.906 27.1338 215.015 27.5085 214.972 27.9647C214.939 28.1927 214.825 28.524 214.629 28.9585C214.434 29.3929 214.336 29.7079 214.336 29.9034C214.314 30.3704 214.499 30.7506 214.89 31.0438C215.292 31.3262 215.846 31.4674 216.552 31.4674C217.388 31.4674 218.143 31.147 218.816 30.5062C219.512 29.8762 219.875 29.116 219.908 28.2253C219.951 27.5845 219.745 26.8405 219.289 25.9933C218.844 25.1353 218.284 24.3261 217.611 23.5659C216.948 22.8164 216.4 21.9801 215.965 21.0569C215.531 20.1337 215.335 19.2865 215.379 18.5154C215.477 17.2989 216.063 16.3214 217.138 15.5828C218.257 14.7791 219.506 14.3772 220.885 14.3772C222.145 14.3772 223.155 14.7574 223.916 15.5177C224.709 16.2779 225.089 17.1251 225.056 18.0592C225.034 18.5262 224.877 18.9444 224.584 19.3137C224.29 19.6721 223.927 19.8513 223.492 19.8513C222.569 19.8513 222.124 19.3843 222.156 18.4502C222.189 18.0809 222.341 17.7496 222.612 17.4564C222.927 17.0545 223.085 16.7504 223.085 16.544C223.107 16.0879 222.9 15.6806 222.466 15.3222C222.031 14.9637 221.494 14.7845 220.853 14.7845C219.984 14.7845 219.245 15.0343 218.637 15.534C218.029 16.0336 217.719 16.6961 217.709 17.5216C217.665 18.0972 217.871 18.8086 218.328 19.6558C218.795 20.4921 219.381 21.3393 220.087 22.1973C220.771 23.0011 221.342 23.8537 221.798 24.7552C222.254 25.6566 222.46 26.4278 222.417 27.0686C222.319 28.4154 221.695 29.5613 220.543 30.5062C219.414 31.462 217.958 31.9399 216.177 31.9399ZM235.418 10.9071C235.07 11.2438 234.647 11.4121 234.147 11.4121C233.647 11.4121 233.224 11.2438 232.876 10.9071C232.54 10.5595 232.371 10.1413 232.371 9.65258C232.371 9.15296 232.54 8.72938 232.876 8.38182C233.224 8.03426 233.647 7.86048 234.147 7.86048C234.647 7.86048 235.07 8.03426 235.418 8.38182C235.765 8.72938 235.939 9.15296 235.939 9.65258C235.939 10.1413 235.765 10.5595 235.418 10.9071ZM226.246 19.9165C228.689 16.2236 230.824 14.3772 232.648 14.3772C233.485 14.3772 233.886 14.7791 233.854 15.5828C233.832 16.2128 233.642 17.0491 233.284 18.0918L229.879 28.2253C229.618 28.9748 229.488 29.5233 229.488 29.8708C229.488 30.2184 229.661 30.3922 230.009 30.3922C230.411 30.3922 230.97 30.0011 231.687 29.2191C232.415 28.4371 233.137 27.4379 233.854 26.2214L234.147 26.3681C233.148 28.1927 232.111 29.5721 231.035 30.5062C229.96 31.4403 229.021 31.9073 228.217 31.9073C226.772 31.9073 226.436 30.7126 227.207 28.3231L230.514 18.3524C230.927 17.136 231.117 16.4463 231.084 16.2834C231.052 16.0662 230.916 15.9575 230.677 15.9575C229.851 15.9575 228.472 17.3261 226.539 20.0631L226.246 19.9165ZM252.589 14.7194C252.611 15.1864 252.486 15.5557 252.215 15.8272C251.954 16.0987 251.59 16.2291 251.123 16.2182C250.895 16.2074 250.575 16.0553 250.162 15.762C249.76 15.4688 249.499 15.3222 249.38 15.3222C248.859 15.2896 248.435 15.686 248.109 16.5115C248.652 17.413 248.924 18.4068 248.924 19.4929C248.956 21.2633 248.354 22.8979 247.115 24.3967C245.91 25.863 244.411 26.5961 242.619 26.5961C241.457 26.5961 240.463 26.216 239.637 25.4557C238.41 25.8684 237.813 26.4061 237.845 27.0686C237.867 27.4813 238.057 27.8398 238.416 28.1439C238.785 28.4371 239.48 28.7793 240.501 29.1703L245.242 31.1742C246.447 31.6955 247.311 32.244 247.832 32.8196C248.364 33.3953 248.636 34.1121 248.647 34.9702C248.679 36.154 248.093 37.1533 246.887 37.9679C245.693 38.7933 244.101 39.2061 242.114 39.2061C239.54 39.2061 237.514 38.8096 236.037 38.0168C234.571 37.2347 233.827 36.2735 233.805 35.1331C233.794 34.2533 234.169 33.4605 234.929 32.7545C235.679 32.0594 236.672 31.576 237.91 31.3045C237.15 30.9461 236.613 30.5659 236.298 30.1641C235.983 29.7622 235.82 29.23 235.809 28.5675C235.798 27.7746 236.129 27.0795 236.803 26.4821C237.487 25.8739 238.356 25.4666 239.409 25.2602C238.53 24.2827 238.073 23.0282 238.041 21.4968C238.008 19.7047 238.584 18.0701 239.768 16.5929C240.952 15.1158 242.445 14.3772 244.248 14.3772C245.834 14.3772 247.045 14.98 247.881 16.1856C248.153 15.3167 248.571 14.6216 249.136 14.1003C249.711 13.5681 250.33 13.3074 250.993 13.3183C251.514 13.3291 251.911 13.4649 252.182 13.7256C252.454 13.9862 252.589 14.3175 252.589 14.7194ZM241.869 26.0585C242.999 26.0585 244.112 25.081 245.209 23.126C246.339 21.1166 246.887 19.2594 246.855 17.5541C246.855 15.8163 246.295 14.9474 245.177 14.9474C243.971 14.9474 242.814 15.9141 241.706 17.8474C240.642 19.7373 240.11 21.5402 240.11 23.2563C240.142 25.1244 240.729 26.0585 241.869 26.0585ZM244.118 33.8623L239.279 31.9073L238.301 31.5C237.519 31.8258 236.917 32.2983 236.493 32.9174C236.08 33.5473 235.885 34.2099 235.907 34.905C235.961 36.1215 236.526 37.061 237.601 37.7235C238.676 38.3969 240.224 38.7336 242.244 38.7336C243.471 38.7336 244.465 38.5218 245.226 38.0982C245.986 37.6746 246.371 37.0664 246.382 36.2735C246.415 35.3286 245.66 34.5249 244.118 33.8623ZM263.016 31.9725C262.245 31.9725 261.773 31.6249 261.599 30.9298C261.425 30.2347 261.566 29.3115 262.022 28.1602L264.499 21.2524C265.216 19.33 265.563 17.9289 265.542 17.0491C265.52 16.1585 265.113 15.7132 264.32 15.7132C262.299 15.7132 259.052 20.9754 254.577 31.5H252.182C254.941 22.9196 256.353 18.5045 256.418 18.2547C256.548 17.8854 256.646 17.5596 256.711 17.2772C256.787 16.9948 256.831 16.7396 256.842 16.5115C256.863 16.2725 256.842 16.0933 256.776 15.9738C256.711 15.8435 256.603 15.7783 256.451 15.7783C256.06 15.7783 255.473 16.1748 254.691 16.9676C253.92 17.7496 253.149 18.7435 252.378 19.9491L252.117 19.8187C254.344 16.1911 256.38 14.3772 258.226 14.3772C259.573 14.3772 259.926 15.5122 259.285 17.7822C258.992 18.7054 258.313 20.6442 257.249 23.5984L256.157 26.6939L256.255 26.7265C258.601 21.4914 260.545 18.0538 262.088 16.4137C262.815 15.6317 263.451 15.0995 263.994 14.8171C264.548 14.5239 265.161 14.3772 265.835 14.3772C266.248 14.3772 266.622 14.4804 266.959 14.6868C267.296 14.8823 267.578 15.1864 267.806 15.5991C268.045 16.001 268.154 16.5712 268.132 17.3098C268.11 18.0483 267.931 18.8955 267.594 19.8513L264.89 27.7366C264.423 29.0616 264.222 29.86 264.287 30.1315C264.32 30.3596 264.466 30.4736 264.727 30.4736C265.053 30.4736 265.607 30.0826 266.389 29.3006C267.258 28.3991 268.007 27.4325 268.637 26.4006L268.93 26.5636C268.127 27.8995 267.138 29.154 265.965 30.327C264.868 31.424 263.885 31.9725 263.016 31.9725ZM277.972 22.7838L274.046 23.8917C273.818 24.9235 273.704 25.8141 273.704 26.5636C273.704 27.7909 273.954 28.763 274.453 29.4798C274.964 30.1858 275.659 30.5388 276.539 30.5388C278.515 30.5388 280.394 29.2137 282.176 26.5636L282.452 26.6939C281.681 28.0733 280.644 29.3332 279.341 30.4736C278.113 31.538 276.777 32.0702 275.333 32.0702C274.008 32.0702 272.954 31.5489 272.172 30.5062C271.39 29.4092 270.999 28.1167 270.999 26.6287C270.999 24.7606 271.423 22.8707 272.27 20.9592C273.074 19.1127 274.231 17.5541 275.74 16.2834C277.217 15.0343 278.765 14.4098 280.383 14.4098C281.437 14.4098 282.371 14.7357 283.186 15.3873C284.011 16.0173 284.424 16.8373 284.424 17.8474C284.424 18.9878 283.897 19.9382 282.844 20.6985C281.79 21.4479 280.166 22.143 277.972 22.7838ZM280.383 14.8823C279.362 14.8823 278.206 15.7946 276.913 17.6193C275.632 19.444 274.708 21.4262 274.144 23.5659C275.556 23.0662 276.658 22.6426 277.451 22.2951C278.244 21.9475 279.02 21.5239 279.781 21.0243C281.442 19.9708 282.273 18.6348 282.273 17.0165C282.273 16.3431 282.1 15.8218 281.752 15.4525C281.404 15.0723 280.948 14.8823 280.383 14.8823ZM285.581 31.5C286.547 28.6109 287.959 24.2393 289.816 18.385C290.045 17.6573 290.207 17.06 290.305 16.5929C290.425 15.9847 290.305 15.6806 289.947 15.6806C289.241 15.6806 287.916 17.1034 285.972 19.9491L285.711 19.7861C288.155 16.0281 290.213 14.1491 291.885 14.1491C293.363 14.1491 293.618 15.5068 292.651 18.2221L289.914 25.7978L290.045 25.8304C292.195 20.8234 293.933 17.6085 295.258 16.1856C295.91 15.4796 296.458 15.0018 296.903 14.7519C297.36 14.5021 297.865 14.3772 298.419 14.3772C299.125 14.3772 299.684 14.589 300.097 15.0126C300.509 15.4362 300.727 15.9847 300.748 16.6581C300.803 17.2772 300.64 17.8257 300.26 18.3036C299.879 18.7815 299.412 19.0204 298.858 19.0204C298.022 19.0204 297.588 18.6403 297.555 17.88C297.544 17.6953 297.604 17.4347 297.734 17.098C297.875 16.7613 297.946 16.5549 297.946 16.4789C297.946 16.0553 297.761 15.8109 297.392 15.7457C296.827 15.6589 296.149 16.0444 295.356 16.9025L295.176 17.1143C294.373 18.1026 293.346 19.8513 292.097 22.3603C290.848 24.8692 289.539 27.9158 288.171 31.5H285.581Z" fill="#171515"/>
<path d="M311 45.07H0V46.93H311V45.07Z" fill="#171515" mask="url(#path-1-inside-1_584_7864)"/>
</svg>
