<svg width="33" height="26" viewBox="0 0 33 26" fill="none" xmlns="http://www.w3.org/2000/svg">
<path d="M27.1622 0.68689H2.00143C1.47061 0.68689 0.961544 0.897754 0.586204 1.27309C0.210864 1.64843 0 2.1575 0 2.68832V23.2744C0 23.8052 0.210864 24.3143 0.586204 24.6896C0.961544 25.065 1.47061 25.2758 2.00143 25.2758H27.1622C27.693 25.2758 28.2021 25.065 28.5774 24.6896C28.9528 24.3143 29.1636 23.8052 29.1636 23.2744V2.68832C29.1636 2.1575 28.9528 1.64843 28.5774 1.27309C28.2021 0.897754 27.693 0.68689 27.1622 0.68689ZM27.4481 23.2744C27.4481 23.3502 27.418 23.423 27.3644 23.4766C27.3108 23.5302 27.238 23.5603 27.1622 23.5603H2.00143C1.9256 23.5603 1.85287 23.5302 1.79925 23.4766C1.74563 23.423 1.71551 23.3502 1.71551 23.2744V2.68832C1.71551 2.61249 1.74563 2.53976 1.79925 2.48614C1.85287 2.43252 1.9256 2.4024 2.00143 2.4024H27.1622C27.238 2.4024 27.3108 2.43252 27.3644 2.48614C27.418 2.53976 27.4481 2.61249 27.4481 2.68832V23.2744ZM22.3016 8.40668C22.3016 8.63417 22.2112 8.85234 22.0504 9.0132C21.8895 9.17406 21.6713 9.26443 21.4438 9.26443H7.71978C7.49229 9.26443 7.27412 9.17406 7.11326 9.0132C6.9524 8.85234 6.86203 8.63417 6.86203 8.40668C6.86203 8.17918 6.9524 7.96101 7.11326 7.80015C7.27412 7.63929 7.49229 7.54892 7.71978 7.54892H21.4438C21.6713 7.54892 21.8895 7.63929 22.0504 7.80015C22.2112 7.96101 22.3016 8.17918 22.3016 8.40668ZM22.3016 12.9814C22.3016 13.2089 22.2112 13.427 22.0504 13.5879C21.8895 13.7487 21.6713 13.8391 21.4438 13.8391H7.71978C7.49229 13.8391 7.27412 13.7487 7.11326 13.5879C6.9524 13.427 6.86203 13.2089 6.86203 12.9814C6.86203 12.7539 6.9524 12.5357 7.11326 12.3748C7.27412 12.214 7.49229 12.1236 7.71978 12.1236H21.4438C21.6713 12.1236 21.8895 12.214 22.0504 12.3748C22.2112 12.5357 22.3016 12.7539 22.3016 12.9814ZM22.3016 17.5561C22.3016 17.7835 22.2112 18.0017 22.0504 18.1626C21.8895 18.3234 21.6713 18.4138 21.4438 18.4138H7.71978C7.49229 18.4138 7.27412 18.3234 7.11326 18.1626C6.9524 18.0017 6.86203 17.7835 6.86203 17.5561C6.86203 17.3286 6.9524 17.1104 7.11326 16.9495C7.27412 16.7887 7.49229 16.6983 7.71978 16.6983H21.4438C21.6713 16.6983 21.8895 16.7887 22.0504 16.9495C22.2112 17.1104 22.3016 17.3286 22.3016 17.5561Z" fill="#505050"/>
</svg>
