<svg width="33" height="29" viewBox="0 0 33 29" fill="none" xmlns="http://www.w3.org/2000/svg">
<path d="M30.5798 0.821045H2.25325C1.65565 0.821045 1.08253 1.05844 0.65996 1.48101C0.237395 1.90357 0 2.47669 0 3.07429V26.2505C0 26.8481 0.237395 27.4212 0.65996 27.8438C1.08253 28.2664 1.65565 28.5038 2.25325 28.5038H4.40831C4.59105 28.5037 4.77002 28.4518 4.92444 28.3541C5.07885 28.2564 5.20237 28.1169 5.28064 27.9517C5.93275 26.5745 6.96246 25.4108 8.25001 24.5959C9.53756 23.7809 11.03 23.3483 12.5538 23.3483C14.0776 23.3483 15.57 23.7809 16.8576 24.5959C18.1451 25.4108 19.1748 26.5745 19.827 27.9517C19.9052 28.1169 20.0287 28.2564 20.1832 28.3541C20.3376 28.4518 20.5165 28.5037 20.6993 28.5038H30.5798C31.1774 28.5038 31.7505 28.2664 32.173 27.8438C32.5956 27.4212 32.833 26.8481 32.833 26.2505V3.07429C32.833 2.47669 32.5956 1.90357 32.173 1.48101C31.7505 1.05844 31.1774 0.821045 30.5798 0.821045ZM8.3692 17.2375C8.3692 16.4099 8.61462 15.6009 9.07443 14.9127C9.53424 14.2246 10.1878 13.6882 10.9524 13.3715C11.7171 13.0548 12.5584 12.9719 13.3702 13.1334C14.1819 13.2948 14.9275 13.6934 15.5128 14.2786C16.098 14.8638 16.4965 15.6094 16.658 16.4212C16.8195 17.2329 16.7366 18.0743 16.4199 18.8389C16.1031 19.6036 15.5668 20.2571 14.8786 20.7169C14.1905 21.1767 13.3814 21.4221 12.5538 21.4221C11.444 21.4221 10.3796 20.9813 9.59484 20.1965C8.81007 19.4117 8.3692 18.3474 8.3692 17.2375ZM30.9017 26.2505C30.9017 26.3359 30.8677 26.4178 30.8074 26.4781C30.747 26.5385 30.6651 26.5724 30.5798 26.5724H21.2883C20.1623 24.5513 18.3724 22.9815 16.2218 22.1287C17.2491 21.3588 18.008 20.2851 18.3911 19.0597C18.7742 17.8344 18.762 16.5196 18.3562 15.3017C17.9504 14.0837 17.1717 13.0242 16.1303 12.2735C15.0889 11.5228 13.8376 11.1188 12.5538 11.1188C11.27 11.1188 10.0187 11.5228 8.97733 12.2735C7.93591 13.0242 7.15715 14.0837 6.75138 15.3017C6.3456 16.5196 6.3334 17.8344 6.71649 19.0597C7.09958 20.2851 7.85854 21.3588 8.88583 22.1287C6.73515 22.9815 4.94526 24.5513 3.81925 26.5724H2.25325C2.16787 26.5724 2.086 26.5385 2.02563 26.4781C1.96527 26.4178 1.93135 26.3359 1.93135 26.2505V3.07429C1.93135 2.98892 1.96527 2.90704 2.02563 2.84668C2.086 2.78631 2.16787 2.7524 2.25325 2.7524H30.5798C30.6651 2.7524 30.747 2.78631 30.8074 2.84668C30.8677 2.90704 30.9017 2.98892 30.9017 3.07429V26.2505ZM27.6827 6.937V22.3878C27.6827 22.6439 27.581 22.8896 27.3999 23.0707C27.2188 23.2518 26.9732 23.3535 26.7171 23.3535H24.1419C23.8858 23.3535 23.6402 23.2518 23.4591 23.0707C23.278 22.8896 23.1762 22.6439 23.1762 22.3878C23.1762 22.1317 23.278 21.8861 23.4591 21.705C23.6402 21.5239 23.8858 21.4221 24.1419 21.4221H25.7514V7.90267H7.08163V9.51213C7.08163 9.76825 6.97989 10.0139 6.79879 10.195C6.61769 10.3761 6.37207 10.4778 6.11595 10.4778C5.85984 10.4778 5.61421 10.3761 5.43312 10.195C5.25202 10.0139 5.15028 9.76825 5.15028 9.51213V6.937C5.15028 6.68088 5.25202 6.43526 5.43312 6.25416C5.61421 6.07306 5.85984 5.97132 6.11595 5.97132H26.7171C26.9732 5.97132 27.2188 6.07306 27.3999 6.25416C27.581 6.43526 27.6827 6.68088 27.6827 6.937Z" fill="#505050"/>
</svg>
