<svg width="33" height="26" viewBox="0 0 33 26" fill="none" xmlns="http://www.w3.org/2000/svg">
<path d="M27.1622 0.962769H2.00143C1.47061 0.962769 0.961544 1.17363 0.586204 1.54897C0.210864 1.92431 0 2.43338 0 2.96419V23.5502C0 24.0811 0.210864 24.5901 0.586204 24.9655C0.961544 25.3408 1.47061 25.5517 2.00143 25.5517H27.1622C27.693 25.5517 28.2021 25.3408 28.5774 24.9655C28.9528 24.5901 29.1636 24.0811 29.1636 23.5502V2.96419C29.1636 2.43338 28.9528 1.92431 28.5774 1.54897C28.2021 1.17363 27.693 0.962769 27.1622 0.962769ZM2.00143 2.67827H27.1622C27.238 2.67827 27.3108 2.7084 27.3644 2.76202C27.418 2.81564 27.4481 2.88836 27.4481 2.96419V8.96846H1.71551V2.96419C1.71551 2.88836 1.74563 2.81564 1.79925 2.76202C1.85287 2.7084 1.9256 2.67827 2.00143 2.67827ZM1.71551 23.5502V10.684H10.293V23.8362H2.00143C1.9256 23.8362 1.85287 23.806 1.79925 23.7524C1.74563 23.6988 1.71551 23.6261 1.71551 23.5502ZM27.1622 23.8362H12.0086V10.684H27.4481V23.5502C27.4481 23.6261 27.418 23.6988 27.3644 23.7524C27.3108 23.806 27.238 23.8362 27.1622 23.8362Z" fill="#505050"/>
</svg>
