<svg width="33" height="30" viewBox="0 0 33 30" fill="none" xmlns="http://www.w3.org/2000/svg">
<path d="M21.7709 17.8537C21.7391 17.822 21.7156 17.7829 21.7024 17.74C21.6892 17.6971 21.6867 17.6516 21.6952 17.6074C21.7027 17.563 21.7214 17.5212 21.7496 17.4861C21.7777 17.4509 21.8144 17.4235 21.8562 17.4066L28.0146 14.7236C28.3663 14.5645 28.6621 14.3035 28.8637 13.9743C29.0652 13.6451 29.1632 13.263 29.145 12.8774C29.1267 12.4918 28.9931 12.1207 28.7614 11.812C28.5296 11.5033 28.2105 11.2713 27.8454 11.1462L5.82022 3.95024C5.48328 3.84245 5.12317 3.82953 4.77938 3.91289C4.43559 3.99626 4.12139 4.17269 3.87125 4.42283C3.62111 4.67298 3.44468 4.98718 3.36132 5.33098C3.27795 5.67477 3.29087 6.03489 3.39866 6.37183L10.5945 28.3973C10.7131 28.7684 10.9427 29.0942 11.2521 29.3309C11.5616 29.5675 11.9362 29.7037 12.3254 29.7209C12.3571 29.7209 12.3873 29.7209 12.419 29.7209C12.7921 29.7212 13.1571 29.612 13.4687 29.4068C13.7803 29.2016 14.0248 28.9094 14.1718 28.5665L16.8493 22.408C16.8663 22.3662 16.8937 22.3295 16.9288 22.3014C16.964 22.2732 17.0058 22.2545 17.0502 22.247C17.0943 22.2385 17.1398 22.241 17.1827 22.2542C17.2257 22.2674 17.2647 22.2909 17.2965 22.3227L24.1291 29.1568C24.308 29.3357 24.5204 29.4776 24.7541 29.5744C24.9878 29.6712 25.2383 29.721 25.4913 29.721C25.7442 29.721 25.9947 29.6712 26.2284 29.5744C26.4622 29.4776 26.6745 29.3357 26.8534 29.1568L28.5994 27.4108C28.7783 27.2319 28.9202 27.0195 29.017 26.7858C29.1138 26.5521 29.1636 26.3016 29.1636 26.0486C29.1636 25.7956 29.1138 25.5451 29.017 25.3114C28.9202 25.0777 28.7783 24.8653 28.5994 24.6865L21.7709 17.8537ZM27.4368 26.2467L25.6921 27.9914C25.6666 28.017 25.6362 28.0373 25.6028 28.0511C25.5694 28.065 25.5336 28.0721 25.4974 28.0721C25.4613 28.0721 25.4255 28.065 25.3921 28.0511C25.3587 28.0373 25.3283 28.017 25.3028 27.9914L18.4687 21.1587C18.2468 20.9366 17.974 20.7721 17.674 20.6796C17.374 20.5871 17.056 20.5692 16.7475 20.6277C16.4391 20.6862 16.1496 20.8191 15.9043 21.015C15.659 21.2109 15.4652 21.4638 15.34 21.7517L12.6584 27.9075C12.6394 27.9594 12.6037 28.0035 12.5568 28.0329C12.51 28.0623 12.4547 28.0753 12.3997 28.0698C12.3444 28.0697 12.2906 28.0515 12.2467 28.0179C12.2027 27.9844 12.1709 27.9374 12.1562 27.8841L4.96855 5.85999C4.95635 5.8199 4.95347 5.77756 4.96012 5.73618C4.96678 5.69481 4.98279 5.6555 5.00695 5.62126C5.0311 5.58702 5.06276 5.55875 5.0995 5.5386C5.13624 5.51845 5.1771 5.50696 5.21896 5.50501C5.24933 5.50579 5.27945 5.51088 5.30839 5.52014L27.3322 12.712C27.3855 12.7267 27.4325 12.7585 27.4661 12.8025C27.4996 12.8465 27.5178 12.9002 27.5179 12.9555C27.5232 13.0105 27.5101 13.0657 27.4808 13.1125C27.4514 13.1593 27.4074 13.195 27.3556 13.2142L21.1971 15.8917C20.9093 16.017 20.6564 16.2107 20.4605 16.456C20.2646 16.7013 20.1316 16.9908 20.0732 17.2993C20.0147 17.6077 20.0325 17.9258 20.1251 18.2258C20.2176 18.5258 20.3821 18.7986 20.6041 19.0205L27.4368 25.8546C27.4623 25.8802 27.4826 25.9105 27.4965 25.9439C27.5103 25.9773 27.5175 26.0131 27.5175 26.0493C27.5175 26.0855 27.5103 26.1213 27.4965 26.1547C27.4826 26.1881 27.4623 26.2184 27.4368 26.244V26.2467ZM11.0073 2.47802V1.3773C11.0073 1.15835 11.0943 0.948372 11.2491 0.793553C11.4039 0.638734 11.6139 0.551758 11.8328 0.551758C12.0518 0.551758 12.2618 0.638734 12.4166 0.793553C12.5714 0.948372 12.6584 1.15835 12.6584 1.3773V2.47802C12.6584 2.69697 12.5714 2.90695 12.4166 3.06177C12.2618 3.21659 12.0518 3.30356 11.8328 3.30356C11.6139 3.30356 11.4039 3.21659 11.2491 3.06177C11.0943 2.90695 11.0073 2.69697 11.0073 2.47802ZM0.000221938 12.3845C0.000221938 12.1656 0.0871973 11.9556 0.242014 11.8008C0.396832 11.646 0.606809 11.559 0.825753 11.559H1.92646C2.14541 11.559 2.35538 11.646 2.5102 11.8008C2.66502 11.9556 2.75199 12.1656 2.75199 12.3845C2.75199 12.6035 2.66502 12.8134 2.5102 12.9683C2.35538 13.1231 2.14541 13.2101 1.92646 13.2101H0.825753C0.606809 13.2101 0.396832 13.1231 0.242014 12.9683C0.0871973 12.8134 0.000221938 12.6035 0.000221938 12.3845ZM15.4968 3.21L16.5975 1.00856C16.6955 0.8126 16.8673 0.66359 17.0752 0.594308C17.283 0.525027 17.5099 0.541149 17.7058 0.639128C17.9018 0.737107 18.0508 0.908916 18.1201 1.11676C18.1893 1.32461 18.1732 1.55146 18.0752 1.74742L16.9745 3.94886C16.9261 4.04589 16.859 4.13243 16.7772 4.20354C16.6953 4.27465 16.6002 4.32894 16.4974 4.36331C16.3945 4.39768 16.2859 4.41146 16.1777 4.40385C16.0696 4.39624 15.964 4.3674 15.8669 4.31898C15.7699 4.27056 15.6834 4.20349 15.6123 4.12163C15.5411 4.03976 15.4869 3.94468 15.4525 3.84183C15.4181 3.73898 15.4043 3.63037 15.412 3.5222C15.4196 3.41402 15.4484 3.30841 15.4968 3.21138V3.21ZM3.76602 16.4187C3.81447 16.5157 3.84334 16.6213 3.85096 16.7295C3.85858 16.8377 3.84481 16.9463 3.81044 17.0492C3.77607 17.152 3.72177 17.2471 3.65064 17.329C3.57952 17.4108 3.49296 17.4779 3.39591 17.5263L1.19449 18.627C0.998535 18.7248 0.771757 18.7407 0.564044 18.6713C0.356331 18.6019 0.184698 18.4528 0.0869027 18.2569C-0.0108925 18.0609 -0.0268393 17.8341 0.0425704 17.6264C0.11198 17.4187 0.261061 17.2471 0.457016 17.1493L2.65843 16.0485C2.75545 16.0001 2.86107 15.9712 2.96925 15.9636C3.07743 15.956 3.18605 15.9698 3.28891 16.0041C3.39177 16.0385 3.48684 16.0928 3.56871 16.1639C3.65057 16.2351 3.71762 16.3216 3.76602 16.4187Z" fill="#505050"/>
</svg>
