<svg width="33" height="30" viewBox="0 0 33 30" fill="none" xmlns="http://www.w3.org/2000/svg">
<path d="M24.7788 5.04143C23.4394 3.68016 21.8438 2.59754 20.0839 1.85603C18.3241 1.11451 16.4348 0.728775 14.5251 0.721065C12.6154 0.713355 10.7231 1.08383 8.95729 1.81111C7.19149 2.53839 5.58716 3.60809 4.23684 4.9585C2.88652 6.30891 1.81694 7.91332 1.08978 9.67917C0.362619 11.445 -0.00772022 13.3374 0.00012199 15.2471C0.00796419 17.1567 0.393832 19.046 1.13547 20.8058C1.87711 22.5656 2.95983 24.1612 4.3212 25.5005C5.66057 26.8617 7.25621 27.9444 9.01608 28.6859C10.7759 29.4274 12.6652 29.8131 14.5749 29.8208C16.4846 29.8285 18.3769 29.4581 20.1427 28.7308C21.9085 28.0035 23.5128 26.9338 24.8632 25.5834C26.2135 24.233 27.2831 22.6286 28.0102 20.8627C28.7374 19.0969 29.1077 17.2045 29.0999 15.2948C29.092 13.3852 28.7062 11.4959 27.9645 9.73609C27.2229 7.97627 26.1402 6.38071 24.7788 5.04143ZM9.16045 26.8464C8.06841 26.3359 7.05457 25.6726 6.14939 24.8764L9.16045 21.8639V26.8464ZM13.699 28.0038C12.7373 27.9421 11.7858 27.7718 10.8624 27.496V20.162L13.699 17.3254V28.0038ZM18.2376 27.496C17.3143 27.772 16.3627 27.9424 15.401 28.0038V15.6234L18.2376 12.7868V27.496ZM22.7762 25.0282C21.9158 25.7582 20.9618 26.3701 19.9396 26.8479V11.0848L22.7762 8.24822V25.0282ZM4.94383 23.6723C2.81007 21.2353 1.6826 18.0782 1.78987 14.8408C1.89715 11.6035 3.23116 8.52797 5.52157 6.23755C7.81199 3.94714 10.8875 2.61313 14.1248 2.50585C17.3622 2.39857 20.5193 3.52605 22.9563 5.65981L4.94383 23.6723ZM24.4781 23.2936V7.24689C26.3136 9.51812 27.3149 12.35 27.3149 15.2702C27.3149 18.1904 26.3136 21.0224 24.4781 23.2936Z" fill="#505050"/>
</svg>
