<svg width="33" height="26" viewBox="0 0 33 26" fill="none" xmlns="http://www.w3.org/2000/svg">
<path d="M29.6649 4.88609H27.0728V3.44605C27.0728 2.60582 26.739 1.8 26.1449 1.20587C25.5508 0.611735 24.745 0.277954 23.9047 0.277954H3.1681C2.32787 0.277954 1.52205 0.611735 0.927914 1.20587C0.333781 1.8 0 2.60582 0 3.44605V17.2705C0 18.1107 0.333781 18.9165 0.927914 19.5107C1.52205 20.1048 2.32787 20.4386 3.1681 20.4386H19.5846V21.8786C19.5846 22.7188 19.9184 23.5247 20.5125 24.1188C21.1066 24.7129 21.9125 25.0467 22.7527 25.0467H29.6649C30.5051 25.0467 31.311 24.7129 31.9051 24.1188C32.4992 23.5247 32.833 22.7188 32.833 21.8786V8.05419C32.833 7.21396 32.4992 6.40814 31.9051 5.81401C31.311 5.21987 30.5051 4.88609 29.6649 4.88609ZM3.1681 18.7105C2.78617 18.7105 2.41989 18.5588 2.14983 18.2887C1.87977 18.0187 1.72805 17.6524 1.72805 17.2705V3.44605C1.72805 3.06413 1.87977 2.69785 2.14983 2.42779C2.41989 2.15773 2.78617 2.00601 3.1681 2.00601H23.9047C24.2867 2.00601 24.6529 2.15773 24.923 2.42779C25.1931 2.69785 25.3448 3.06413 25.3448 3.44605V4.88609H22.7527C21.9125 4.88609 21.1066 5.21987 20.5125 5.81401C19.9184 6.40814 19.5846 7.21396 19.5846 8.05419V18.7105H3.1681ZM31.105 21.8786C31.105 22.2605 30.9532 22.6268 30.6832 22.8969C30.4131 23.1669 30.0468 23.3187 29.6649 23.3187H22.7527C22.3708 23.3187 22.0045 23.1669 21.7344 22.8969C21.4644 22.6268 21.3127 22.2605 21.3127 21.8786V8.05419C21.3127 7.67227 21.4644 7.30599 21.7344 7.03593C22.0045 6.76587 22.3708 6.61415 22.7527 6.61415H29.6649C30.0468 6.61415 30.4131 6.76587 30.6832 7.03593C30.9532 7.30599 31.105 7.67227 31.105 8.05419V21.8786ZM16.7045 24.1827C16.7045 24.4118 16.6135 24.6316 16.4514 24.7936C16.2894 24.9557 16.0696 25.0467 15.8405 25.0467H10.0803C9.85115 25.0467 9.63139 24.9557 9.46935 24.7936C9.30731 24.6316 9.21628 24.4118 9.21628 24.1827C9.21628 23.9535 9.30731 23.7338 9.46935 23.5717C9.63139 23.4097 9.85115 23.3187 10.0803 23.3187H15.8405C16.0696 23.3187 16.2894 23.4097 16.4514 23.5717C16.6135 23.7338 16.7045 23.9535 16.7045 24.1827ZM28.2249 10.3583C28.2249 10.5874 28.1338 10.8072 27.9718 10.9692C27.8098 11.1313 27.59 11.2223 27.3608 11.2223H25.0568C24.8276 11.2223 24.6078 11.1313 24.4458 10.9692C24.2838 10.8072 24.1927 10.5874 24.1927 10.3583C24.1927 10.1291 24.2838 9.90934 24.4458 9.7473C24.6078 9.58527 24.8276 9.49424 25.0568 9.49424H27.3608C27.59 9.49424 27.8098 9.58527 27.9718 9.7473C28.1338 9.90934 28.2249 10.1291 28.2249 10.3583Z" fill="#505050"/>
</svg>
