<svg width="33" height="26" viewBox="0 0 33 26" fill="none" xmlns="http://www.w3.org/2000/svg">
<path d="M24.8756 17.3085C23.8872 17.3096 22.9295 17.6546 22.1638 18.2852C21.3982 18.9158 20.8715 19.7934 20.6725 20.7702H6.57631C5.28716 20.7702 4.05081 20.2535 3.13924 19.3338C2.22767 18.4141 1.71556 17.1668 1.71556 15.8661C1.71556 14.5655 2.22767 13.3181 3.13924 12.3984C4.05081 11.4787 5.28716 10.962 6.57631 10.962H20.3008C21.7416 10.962 23.1234 10.3846 24.1422 9.35669C25.161 8.3288 25.7334 6.93468 25.7334 5.48102C25.7334 4.02737 25.161 2.63325 24.1422 1.60536C23.1234 0.577464 21.7416 2.16612e-08 20.3008 0H6.57631C6.34881 0 6.13063 0.0911783 5.96977 0.253477C5.8089 0.415776 5.71853 0.6359 5.71853 0.865425C5.71853 1.09495 5.8089 1.31507 5.96977 1.47737C6.13063 1.63967 6.34881 1.73085 6.57631 1.73085H20.3008C21.2866 1.73085 22.232 2.12596 22.9291 2.82925C23.6262 3.53254 24.0178 4.48642 24.0178 5.48102C24.0178 6.47563 23.6262 7.4295 22.9291 8.1328C22.232 8.83609 21.2866 9.2312 20.3008 9.2312H6.57631C4.83216 9.2312 3.15945 9.93023 1.92616 11.1745C0.692859 12.4188 0 14.1064 0 15.8661C0 17.6258 0.692859 19.3134 1.92616 20.5577C3.15945 21.802 4.83216 22.501 6.57631 22.501H20.6725C20.8348 23.3032 21.2193 24.0425 21.7814 24.633C22.3435 25.2235 23.0601 25.6409 23.848 25.8369C24.6359 26.0329 25.4628 25.9994 26.2325 25.7402C27.0023 25.481 27.6833 25.0068 28.1966 24.3727C28.7099 23.7386 29.0344 22.9705 29.1323 22.1578C29.2302 21.3451 29.0976 20.521 28.7498 19.7812C28.4021 19.0415 27.8534 18.4165 27.1677 17.9788C26.4819 17.5411 25.6871 17.3087 24.8756 17.3085ZM24.8756 24.2319C24.3666 24.2319 23.8691 24.0796 23.4459 23.7943C23.0228 23.5091 22.6929 23.1036 22.4982 22.6292C22.3034 22.1548 22.2524 21.6327 22.3517 21.1291C22.451 20.6255 22.6961 20.1629 23.056 19.7998C23.4159 19.4367 23.8744 19.1894 24.3736 19.0892C24.8728 18.9891 25.3902 19.0405 25.8604 19.237C26.3306 19.4335 26.7325 19.7663 27.0153 20.1932C27.298 20.6202 27.4489 21.1221 27.4489 21.6356C27.4489 22.3242 27.1778 22.9846 26.6952 23.4715C26.2126 23.9584 25.5581 24.2319 24.8756 24.2319Z" fill="#505050"/>
</svg>
