<svg width="33" height="26" viewBox="0 0 33 26" fill="none" xmlns="http://www.w3.org/2000/svg">
<path d="M22.5875 5.53746H2.00143C1.47061 5.53746 0.961544 5.74832 0.586204 6.12366C0.210864 6.499 0 7.00807 0 7.53888V23.5503C0 24.0811 0.210864 24.5902 0.586204 24.9655C0.961544 25.3409 1.47061 25.5517 2.00143 25.5517H22.5875C23.1183 25.5517 23.6274 25.3409 24.0027 24.9655C24.3781 24.5902 24.5889 24.0811 24.5889 23.5503V7.53888C24.5889 7.00807 24.3781 6.499 24.0027 6.12366C23.6274 5.74832 23.1183 5.53746 22.5875 5.53746ZM22.8734 23.5503C22.8734 23.6261 22.8433 23.6988 22.7897 23.7525C22.7361 23.8061 22.6633 23.8362 22.5875 23.8362H2.00143C1.9256 23.8362 1.85287 23.8061 1.79925 23.7525C1.74563 23.6988 1.71551 23.6261 1.71551 23.5503V7.53888C1.71551 7.46305 1.74563 7.39033 1.79925 7.33671C1.85287 7.28309 1.9256 7.25296 2.00143 7.25296H22.5875C22.6633 7.25296 22.7361 7.28309 22.7897 7.33671C22.8433 7.39033 22.8734 7.46305 22.8734 7.53888V23.5503ZM29.1636 2.96419V20.1193C29.1636 20.3468 29.0733 20.5649 28.9124 20.7258C28.7515 20.8867 28.5334 20.977 28.3059 20.977C28.0784 20.977 27.8602 20.8867 27.6994 20.7258C27.5385 20.5649 27.4481 20.3468 27.4481 20.1193V2.96419C27.4481 2.88836 27.418 2.81564 27.3644 2.76202C27.3108 2.7084 27.238 2.67828 27.1622 2.67828H5.43244C5.20495 2.67828 4.98678 2.58791 4.82592 2.42705C4.66506 2.26619 4.57469 2.04801 4.57469 1.82052C4.57469 1.59303 4.66506 1.37486 4.82592 1.214C4.98678 1.05314 5.20495 0.962769 5.43244 0.962769H27.1622C27.693 0.962769 28.2021 1.17363 28.5774 1.54897C28.9528 1.92431 29.1636 2.43338 29.1636 2.96419Z" fill="#505050"/>
</svg>
