<svg width="38" height="26" viewBox="0 0 38 26" fill="none" xmlns="http://www.w3.org/2000/svg">
<path d="M5.86075 14.4387C5.86075 14.6977 5.75784 14.9462 5.57465 15.1294C5.39147 15.3125 5.14302 15.4155 4.88396 15.4155H0.976791C0.71773 15.4155 0.469279 15.3125 0.286095 15.1294C0.102912 14.9462 0 14.6977 0 14.4387C0 14.1796 0.102912 13.9312 0.286095 13.748C0.469279 13.5648 0.71773 13.4619 0.976791 13.4619H2.60478V2.39157H0.976791C0.71773 2.39157 0.469279 2.28866 0.286095 2.10548C0.102912 1.92229 0 1.67384 0 1.41478C0 1.15572 0.102912 0.90727 0.286095 0.724087C0.469279 0.540903 0.71773 0.437991 0.976791 0.437991H3.58157C3.74699 0.43759 3.9098 0.479205 4.05474 0.558935C4.19967 0.638665 4.32199 0.753897 4.41021 0.893827L10.0935 9.99101L15.7768 0.897083C15.8646 0.756549 15.9868 0.640673 16.1318 0.56036C16.2767 0.480046 16.4397 0.437936 16.6055 0.437991H19.2102C19.4693 0.437991 19.7177 0.540903 19.9009 0.724087C20.0841 0.90727 20.187 1.15572 20.187 1.41478C20.187 1.67384 20.0841 1.92229 19.9009 2.10548C19.7177 2.28866 19.4693 2.39157 19.2102 2.39157H17.5822V13.4619H19.2102C19.4693 13.4619 19.7177 13.5648 19.9009 13.748C20.0841 13.9312 20.187 14.1796 20.187 14.4387C20.187 14.6977 20.0841 14.9462 19.9009 15.1294C19.7177 15.3125 19.4693 15.4155 19.2102 15.4155H15.3031C15.044 15.4155 14.7956 15.3125 14.6124 15.1294C14.4292 14.9462 14.3263 14.6977 14.3263 14.4387C14.3263 14.1796 14.4292 13.9312 14.6124 13.748C14.7956 13.5648 15.044 13.4619 15.3031 13.4619H15.6287V4.82053L10.9222 12.3516C10.8344 12.4922 10.7123 12.6082 10.5673 12.6886C10.4223 12.769 10.2593 12.8112 10.0935 12.8112C9.92774 12.8112 9.76469 12.769 9.61972 12.6886C9.47475 12.6082 9.35264 12.4922 9.26487 12.3516L4.55836 4.82053V13.4619H4.88396C5.14302 13.4619 5.39147 13.5648 5.57465 13.748C5.75784 13.9312 5.86075 14.1796 5.86075 14.4387ZM24.4198 10.2059H36.1413C36.4003 10.2059 36.6488 10.103 36.832 9.91981C37.0152 9.73662 37.1181 9.48817 37.1181 9.22911C37.1181 8.97005 37.0152 8.7216 36.832 8.53842C36.6488 8.35523 36.4003 8.25232 36.1413 8.25232H24.4198C24.1607 8.25232 23.9123 8.35523 23.7291 8.53842C23.5459 8.7216 23.443 8.97005 23.443 9.22911C23.443 9.48817 23.5459 9.73662 23.7291 9.91981C23.9123 10.103 24.1607 10.2059 24.4198 10.2059ZM36.1413 13.4619H24.4198C24.1607 13.4619 23.9123 13.5648 23.7291 13.748C23.5459 13.9312 23.443 14.1796 23.443 14.4387C23.443 14.6977 23.5459 14.9462 23.7291 15.1294C23.9123 15.3125 24.1607 15.4155 24.4198 15.4155H36.1413C36.4003 15.4155 36.6488 15.3125 36.832 15.1294C37.0152 14.9462 37.1181 14.6977 37.1181 14.4387C37.1181 14.1796 37.0152 13.9312 36.832 13.748C36.6488 13.5648 36.4003 13.4619 36.1413 13.4619ZM36.1413 18.6714H8.79112C8.53206 18.6714 8.28361 18.7743 8.10043 18.9575C7.91724 19.1407 7.81433 19.3892 7.81433 19.6482C7.81433 19.9073 7.91724 20.1557 8.10043 20.3389C8.28361 20.5221 8.53206 20.625 8.79112 20.625H36.1413C36.4003 20.625 36.6488 20.5221 36.832 20.3389C37.0152 20.1557 37.1181 19.9073 37.1181 19.6482C37.1181 19.3892 37.0152 19.1407 36.832 18.9575C36.6488 18.7743 36.4003 18.6714 36.1413 18.6714ZM36.1413 23.881H8.79112C8.53206 23.881 8.28361 23.9839 8.10043 24.1671C7.91724 24.3503 7.81433 24.5987 7.81433 24.8578C7.81433 25.1168 7.91724 25.3653 8.10043 25.5485C8.28361 25.7317 8.53206 25.8346 8.79112 25.8346H36.1413C36.4003 25.8346 36.6488 25.7317 36.832 25.5485C37.0152 25.3653 37.1181 25.1168 37.1181 24.8578C37.1181 24.5987 37.0152 24.3503 36.832 24.1671C36.6488 23.9839 36.4003 23.881 36.1413 23.881Z" fill="#505050"/>
</svg>
