<svg width="33" height="23" viewBox="0 0 33 23" fill="none" xmlns="http://www.w3.org/2000/svg">
<path d="M32.8444 10.9329C32.7971 10.8244 31.6395 8.2575 29.0546 5.67256C26.6561 3.27682 22.5352 0.419189 16.5 0.419189C10.4648 0.419189 6.3439 3.27682 3.94539 5.67256C1.36046 8.2575 0.20294 10.8202 0.155638 10.9329C0.108074 11.0397 0.0834961 11.1554 0.0834961 11.2723C0.0834961 11.3893 0.108074 11.505 0.155638 11.6118C0.20294 11.7189 1.36046 14.2858 3.94539 16.8707C6.3439 19.2665 10.4648 22.1227 16.5 22.1227C22.5352 22.1227 26.6561 19.2665 29.0546 16.8707C31.6395 14.2858 32.7971 11.7231 32.8444 11.6118C32.8919 11.505 32.9165 11.3893 32.9165 11.2723C32.9165 11.1554 32.8919 11.0397 32.8444 10.9329ZM16.5 20.4532C12.1343 20.4532 8.32225 18.8644 5.1683 15.7327C3.84616 14.4187 2.72736 12.9149 1.84878 11.271C2.7271 9.62723 3.84594 8.12387 5.1683 6.8106C8.32225 3.6775 12.1343 2.08869 16.5 2.08869C20.8657 2.08869 24.6777 3.6775 27.8317 6.8106C29.1541 8.12387 30.2729 9.62723 31.1512 11.271C30.265 12.9697 25.8214 20.4532 16.5 20.4532ZM16.5 4.8712C15.2343 4.8712 13.9969 5.24654 12.9445 5.94975C11.8921 6.65296 11.0718 7.65247 10.5874 8.82187C10.103 9.99128 9.9763 11.2781 10.2232 12.5195C10.4702 13.7609 11.0797 14.9012 11.9747 15.7963C12.8697 16.6913 14.01 17.3008 15.2515 17.5477C16.4929 17.7947 17.7797 17.6679 18.9491 17.1836C20.1185 16.6992 21.118 15.8789 21.8212 14.8265C22.5244 13.774 22.8997 12.5367 22.8997 11.271C22.8975 9.57431 22.2226 7.94779 21.0229 6.74808C19.8232 5.54837 18.1966 4.8734 16.5 4.8712ZM16.5 16.0012C15.5644 16.0012 14.6499 15.7238 13.872 15.204C13.0941 14.6843 12.4879 13.9455 12.1298 13.0811C11.7718 12.2168 11.6781 11.2657 11.8607 10.3481C12.0432 9.43055 12.4937 8.5877 13.1552 7.92616C13.8168 7.26462 14.6596 6.81411 15.5772 6.63159C16.4948 6.44907 17.4458 6.54275 18.3102 6.90077C19.1745 7.25879 19.9133 7.86508 20.433 8.64297C20.9528 9.42085 21.2302 10.3354 21.2302 11.271C21.2302 12.5255 20.7319 13.7287 19.8448 14.6158C18.9577 15.5028 17.7545 16.0012 16.5 16.0012Z" fill="#505050"/>
</svg>
