<svg width="15" height="8" viewBox="0 0 15 8" fill="none" xmlns="http://www.w3.org/2000/svg">
<path id="Arrow 1" d="M0.999999 3.79177C0.723857 3.79177 0.5 4.01562 0.5 4.29177C0.5 4.56791 0.723858 4.79177 1 4.79177L0.999999 3.79177ZM14.8536 4.6453C15.0488 4.45004 15.0488 4.13346 14.8536 3.9382L11.6716 0.756219C11.4763 0.560957 11.1597 0.560957 10.9645 0.756219C10.7692 0.951482 10.7692 1.26806 10.9645 1.46333L13.7929 4.29175L10.9645 7.12018C10.7692 7.31544 10.7692 7.63203 10.9645 7.82729C11.1597 8.02255 11.4763 8.02255 11.6716 7.82729L14.8536 4.6453ZM1 4.79177L14.5 4.79175L14.5 3.79175L0.999999 3.79177L1 4.79177Z" fill="#171515"/>
</svg>
