<svg width="26" height="26" viewBox="0 0 26 26" fill="none" xmlns="http://www.w3.org/2000/svg">
<path id="Vector (Stroke)" fill-rule="evenodd" clip-rule="evenodd" d="M0.497918 0.497918C1.16181 -0.165973 2.23819 -0.165973 2.90208 0.497918L12.7 10.2958L22.4979 0.497918C23.1618 -0.165973 24.2382 -0.165973 24.9021 0.497918C25.566 1.16181 25.566 2.23819 24.9021 2.90208L15.1042 12.7L24.9021 22.4979C25.566 23.1618 25.566 24.2382 24.9021 24.9021C24.2382 25.566 23.1618 25.566 22.4979 24.9021L12.7 15.1042L2.90208 24.9021C2.23819 25.566 1.16181 25.566 0.497918 24.9021C-0.165973 24.2382 -0.165973 23.1618 0.497918 22.4979L10.2958 12.7L0.497918 2.90208C-0.165973 2.23819 -0.165973 1.16181 0.497918 0.497918Z" fill="#0A0A0A"/>
</svg>
