<svg width="31" height="25" viewBox="0 0 31 25" fill="none" xmlns="http://www.w3.org/2000/svg">
<path id="Union" fill-rule="evenodd" clip-rule="evenodd" d="M0.599622 2.46495C0.599622 1.52607 1.36074 0.764954 2.29962 0.764954H29.2996C30.2385 0.764954 30.9996 1.52607 30.9996 2.46495C30.9996 3.40384 30.2385 4.16495 29.2996 4.16495H2.29962C1.36074 4.16495 0.599622 3.40384 0.599622 2.46495ZM0.599622 12.465C0.599622 11.5261 1.36074 10.765 2.29962 10.765H29.2996C30.2385 10.765 30.9996 11.5261 30.9996 12.465C30.9996 13.4038 30.2385 14.165 29.2996 14.165H2.29962C1.36074 14.165 0.599622 13.4038 0.599622 12.465ZM2.29962 20.765C1.36074 20.765 0.599622 21.5261 0.599622 22.465C0.599622 23.4038 1.36074 24.165 2.29962 24.165H29.2996C30.2385 24.165 30.9996 23.4038 30.9996 22.465C30.9996 21.5261 30.2385 20.765 29.2996 20.765H2.29962Z" fill="#0A0A0A"/>
</svg>
