<svg width="68" height="68" viewBox="0 0 68 68" fill="none" xmlns="http://www.w3.org/2000/svg">
<path d="M62.3333 0.896484H5.66667C4.16377 0.896484 2.72243 1.48473 1.65973 2.5318C0.597022 3.57888 0 4.99903 0 6.47982V62.3132C0 63.7939 0.597022 65.2141 1.65973 66.2612C2.72243 67.3082 4.16377 67.8965 5.66667 67.8965H62.3333C63.8362 67.8965 65.2776 67.3082 66.3403 66.2612C67.403 65.2141 68 63.7939 68 62.3132V6.47982C68 4.99903 67.403 3.57888 66.3403 2.5318C65.2776 1.48473 63.8362 0.896484 62.3333 0.896484ZM62.3333 62.3132H5.66667V6.47982H62.3333V62.3132ZM20.6621 47.5383C20.3986 47.279 20.1897 46.9711 20.0471 46.6322C19.9045 46.2933 19.8311 45.93 19.8311 45.5632C19.8311 45.1963 19.9045 44.833 20.0471 44.4941C20.1897 44.1552 20.3986 43.8473 20.6621 43.588L38.4944 26.0215H28.3333C27.5819 26.0215 26.8612 25.7274 26.3299 25.2038C25.7985 24.6803 25.5 23.9702 25.5 23.2298C25.5 22.4894 25.7985 21.7794 26.3299 21.2558C26.8612 20.7323 27.5819 20.4382 28.3333 20.4382H45.3333C46.0848 20.4382 46.8055 20.7323 47.3368 21.2558C47.8682 21.7794 48.1667 22.4894 48.1667 23.2298V39.9798C48.1667 40.7202 47.8682 41.4303 47.3368 41.9538C46.8055 42.4774 46.0848 42.7715 45.3333 42.7715C44.5819 42.7715 43.8612 42.4774 43.3299 41.9538C42.7985 41.4303 42.5 40.7202 42.5 39.9798V29.9682L24.6713 47.5383C24.4081 47.7978 24.0956 48.0037 23.7517 48.1442C23.4077 48.2847 23.039 48.357 22.6667 48.357C22.2943 48.357 21.9256 48.2847 21.5817 48.1442C21.2377 48.0037 20.9252 47.7978 20.6621 47.5383Z" fill="white"/>
</svg>
