<svg width="269" height="179" viewBox="0 0 269 179" fill="none" xmlns="http://www.w3.org/2000/svg">
<path d="M268.227 85.8753C267.834 84.9914 258.341 63.9701 237.236 42.9041C209.114 14.8346 173.595 0 134.5 0C95.4053 0 59.8861 14.8346 31.7643 42.9041C10.659 63.9701 1.12073 85.025 0.773268 85.8753C0.263436 87.0199 0 88.2585 0 89.5112C0 90.7638 0.263436 92.0025 0.773268 93.1471C1.16556 94.0309 10.659 115.041 31.7643 136.107C59.8861 164.165 95.4053 179 134.5 179C173.595 179 209.114 164.165 237.236 136.107C258.341 115.041 267.834 94.0309 268.227 93.1471C268.737 92.0025 269 90.7638 269 89.5112C269 88.2585 268.737 87.0199 268.227 85.8753ZM134.5 161.1C100.001 161.1 69.8615 148.581 44.9117 123.902C34.6745 113.74 25.965 102.153 19.0541 89.5C25.9631 76.8463 34.6729 65.2587 44.9117 55.0984C69.8615 30.4188 100.001 17.9 134.5 17.9C168.999 17.9 199.139 30.4188 224.088 55.0984C234.345 65.2562 243.074 76.8438 250.002 89.5C241.921 104.558 206.715 161.1 134.5 161.1ZM134.5 35.8C123.859 35.8 113.458 38.9495 104.61 44.8501C95.7629 50.7507 88.8672 59.1375 84.7952 68.9499C80.7232 78.7623 79.6578 89.5596 81.7337 99.9763C83.8096 110.393 88.9336 119.962 96.4576 127.472C103.982 134.982 113.568 140.096 124.004 142.168C134.44 144.24 145.258 143.177 155.088 139.112C164.919 135.048 173.321 128.165 179.233 119.334C185.145 110.503 188.3 100.121 188.3 89.5C188.285 75.2624 182.612 61.6122 172.526 51.5447C162.44 41.4772 148.764 35.8148 134.5 35.8ZM134.5 125.3C127.406 125.3 120.472 123.2 114.574 119.267C108.675 115.333 104.078 109.742 101.363 103.2C98.6488 96.6585 97.9386 89.4603 99.3225 82.5158C100.706 75.5712 104.122 69.1923 109.138 64.1856C114.154 59.1789 120.545 55.7692 127.503 54.3879C134.46 53.0065 141.672 53.7155 148.226 56.4251C154.779 59.1347 160.381 63.7233 164.322 69.6106C168.263 75.4979 170.367 82.4194 170.367 89.5C170.367 98.9947 166.588 108.101 159.862 114.814C153.135 121.528 144.012 125.3 134.5 125.3Z" fill="#171515"/>
</svg>
