<svg width="107" height="138" viewBox="0 0 107 138" fill="none" xmlns="http://www.w3.org/2000/svg">
<path fill-rule="evenodd" clip-rule="evenodd" d="M107 53.5C107 23.9528 83.0473 0 53.5 0C23.9528 0 0 23.9528 0 53.5C0 83.0473 23.9528 107 53.5 107H53.5029C83.0489 106.998 107 83.0462 107 53.5ZM23.1556 58.85C23.8358 70.8688 26.7832 81.7175 31.2368 90.0611C18.9214 82.546 10.7 68.9832 10.7 53.5C10.7 38.0168 18.9214 24.4541 31.2368 16.9388C26.7832 25.2825 23.8358 36.1312 23.1556 48.15H33.8746C34.5771 37.16 37.4005 27.6916 41.2327 20.9685C43.5931 16.8272 45.9859 14.2364 48.15 12.6931V48.15H58.85V12.6931C61.0141 14.2364 63.4069 16.8272 65.7673 20.9685C69.5995 27.6916 72.423 37.16 73.1254 48.15H83.8444C83.1644 36.1312 80.2168 25.2825 75.7632 16.9389C88.0787 24.4542 96.3 38.0171 96.3 53.5C96.3 68.9829 88.0787 82.546 75.7632 90.0611C80.2168 81.7175 83.1644 70.8688 83.8444 58.85H73.1254C72.423 69.84 69.5995 79.3084 65.7673 86.0315C63.4069 90.1727 61.0141 92.7637 58.85 94.3069V58.85H48.15V94.3069C45.9859 92.7637 43.5931 90.1727 41.2327 86.0315C37.4005 79.3084 34.5771 69.84 33.8746 58.85H23.1556Z" fill="#0D292C" fill-opacity="0.8"/>
<path d="M4.1266 114.077H0.865234L5.69308 132.413H9.0058L12.7551 118.391H12.8064L16.4787 132.413H19.74L24.799 114.077H21.5376L18.1222 128.098H18.0708L14.4756 114.077H11.1886L7.49068 128.098H7.43932L4.1266 114.077Z" fill="#0D292C" fill-opacity="0.8"/>
<path fill-rule="evenodd" clip-rule="evenodd" d="M36.4669 130.23C36.3813 130.076 36.3385 129.819 36.3385 129.459V122.628C36.3385 121.926 36.1844 121.336 35.8762 120.856C35.5681 120.36 35.1572 119.958 34.6436 119.649C34.1471 119.341 33.5821 119.119 32.9487 118.982C32.3153 118.845 31.6733 118.776 31.0227 118.776C30.2865 118.776 29.5675 118.845 28.8656 118.982C28.1637 119.119 27.5302 119.358 26.9653 119.701C26.4174 120.043 25.9638 120.497 25.6042 121.062C25.2447 121.627 25.0393 122.337 24.9879 123.193H27.9154C27.9839 122.474 28.2835 121.944 28.8142 121.601C29.3449 121.259 30.0212 121.088 30.8429 121.088C31.134 121.088 31.4421 121.113 31.7674 121.165C32.0927 121.199 32.3837 121.284 32.6405 121.421C32.9145 121.541 33.137 121.721 33.3082 121.961C33.4965 122.2 33.5907 122.509 33.5907 122.885C33.5907 123.313 33.4794 123.638 33.2569 123.861C33.0514 124.066 32.7604 124.221 32.3837 124.323C32.0242 124.426 31.6048 124.503 31.1254 124.554C30.6461 124.589 30.141 124.657 29.6103 124.76C28.994 124.828 28.3777 124.931 27.7613 125.068C27.1621 125.188 26.6143 125.393 26.1178 125.684C25.6385 125.975 25.2447 126.378 24.9366 126.891C24.6455 127.405 24.5 128.073 24.5 128.894C24.5 129.545 24.6198 130.118 24.8595 130.615C25.1163 131.094 25.4502 131.497 25.861 131.822C26.289 132.13 26.7769 132.361 27.3248 132.515C27.8726 132.686 28.4461 132.772 29.0453 132.772C29.8329 132.772 30.6461 132.644 31.4849 132.387C32.3409 132.13 33.06 131.719 33.6421 131.154C33.7619 131.753 34.0187 132.173 34.4125 132.412C34.8062 132.652 35.3027 132.772 35.9019 132.772C36.0217 132.772 36.1673 132.763 36.3385 132.746C36.5097 132.729 36.6809 132.703 36.8521 132.669C37.0233 132.635 37.1859 132.592 37.34 132.541C37.5112 132.507 37.6481 132.472 37.7509 132.438V130.409C37.5968 130.444 37.4598 130.461 37.34 130.461H37.0318C36.7579 130.461 36.5696 130.384 36.4669 130.23ZM31.7674 126.301C32.418 126.232 32.9658 126.052 33.4109 125.761V127.944C33.4109 128.406 33.2997 128.8 33.0771 129.125C32.8545 129.434 32.5721 129.69 32.2297 129.896C31.9044 130.101 31.5534 130.247 31.1768 130.332C30.8001 130.418 30.4492 130.461 30.1239 130.461C29.8671 130.461 29.5761 130.435 29.2508 130.384C28.9426 130.332 28.6516 130.247 28.3777 130.127C28.1209 129.99 27.8983 129.81 27.71 129.588C27.5217 129.365 27.4275 129.091 27.4275 128.766C27.4275 128.389 27.4874 128.073 27.6073 127.816C27.7442 127.542 27.924 127.328 28.1465 127.174C28.3691 127.003 28.6259 126.874 28.9169 126.789C29.208 126.686 29.5076 126.609 29.8157 126.557C30.4663 126.438 31.1169 126.352 31.7674 126.301Z" fill="#0D292C" fill-opacity="0.8"/>
<path d="M38.0244 119.136H41.2344L44.7012 129.048H44.7526L48.1167 119.136H51.1726L46.0109 133.131C45.7712 133.731 45.5315 134.304 45.2919 134.852C45.0693 135.4 44.7868 135.879 44.4444 136.29C44.1191 136.718 43.7083 137.052 43.2118 137.291C42.7153 137.548 42.0819 137.677 41.3115 137.677C40.6267 137.677 39.9504 137.625 39.2827 137.523V135.057C39.5224 135.092 39.7535 135.126 39.9761 135.16C40.1987 135.211 40.4298 135.237 40.6695 135.237C41.0119 135.237 41.2943 135.194 41.5169 135.109C41.7395 135.023 41.9192 134.895 42.0562 134.724C42.2103 134.569 42.3387 134.381 42.4414 134.159C42.5441 133.936 42.6383 133.679 42.7239 133.388L43.0577 132.361L38.0244 119.136Z" fill="#0D292C" fill-opacity="0.8"/>
<path d="M54.1916 119.136H52.0088V121.319H54.1916V132.413H57.1191V121.319H59.6101V119.136H57.1191V117.775C57.1191 117.227 57.2561 116.859 57.53 116.671C57.821 116.483 58.1634 116.388 58.5572 116.388C58.8482 116.388 59.0965 116.405 59.3019 116.44C59.5245 116.457 59.7299 116.491 59.9182 116.542V114.257C59.4902 114.137 58.8054 114.077 57.8638 114.077C57.3845 114.077 56.9222 114.129 56.4771 114.231C56.0491 114.317 55.6639 114.505 55.3215 114.796C54.9791 115.07 54.7052 115.472 54.4997 116.003C54.2943 116.517 54.1916 117.193 54.1916 118.032V119.136Z" fill="#0D292C" fill-opacity="0.8"/>
<path fill-rule="evenodd" clip-rule="evenodd" d="M72.5377 129.459C72.5377 129.819 72.5805 130.076 72.6661 130.23C72.7688 130.384 72.9571 130.461 73.2311 130.461H73.5392C73.6591 130.461 73.796 130.444 73.9501 130.409V132.438C73.8474 132.472 73.7104 132.507 73.5392 132.541C73.3851 132.592 73.2225 132.635 73.0513 132.669C72.8801 132.703 72.7089 132.729 72.5377 132.746C72.3665 132.763 72.221 132.772 72.1011 132.772C71.5019 132.772 71.0055 132.652 70.6117 132.412C70.2179 132.173 69.9611 131.753 69.8413 131.154C69.2592 131.719 68.5402 132.13 67.6842 132.387C66.8453 132.644 66.0321 132.772 65.2446 132.772C64.6454 132.772 64.0719 132.686 63.524 132.515C62.9762 132.361 62.4883 132.13 62.0603 131.822C61.6494 131.497 61.3155 131.094 61.0587 130.615C60.8191 130.118 60.6992 129.545 60.6992 128.894C60.6992 128.073 60.8447 127.405 61.1358 126.891C61.4439 126.378 61.8377 125.975 62.3171 125.684C62.8135 125.393 63.3614 125.188 63.9606 125.068C64.5769 124.931 65.1932 124.828 65.8095 124.76C66.3403 124.657 66.8453 124.589 67.3247 124.554C67.804 124.503 68.2235 124.426 68.583 124.323C68.9596 124.221 69.2507 124.066 69.4561 123.861C69.6787 123.638 69.7899 123.313 69.7899 122.885C69.7899 122.509 69.6958 122.2 69.5075 121.961C69.3363 121.721 69.1137 121.541 68.8398 121.421C68.583 121.284 68.2919 121.199 67.9667 121.165C67.6414 121.113 67.3332 121.088 67.0422 121.088C66.2204 121.088 65.5442 121.259 65.0135 121.601C64.4827 121.944 64.1831 122.474 64.1147 123.193H61.1871C61.2385 122.337 61.4439 121.627 61.8035 121.062C62.163 120.497 62.6167 120.043 63.1645 119.701C63.7295 119.358 64.3629 119.119 65.0648 118.982C65.7667 118.845 66.4858 118.776 67.2219 118.776C67.8725 118.776 68.5145 118.845 69.1479 118.982C69.7814 119.119 70.3463 119.341 70.8428 119.649C71.3564 119.958 71.7673 120.36 72.0755 120.856C72.3836 121.336 72.5377 121.926 72.5377 122.628V129.459ZM69.6102 125.761C69.1651 126.052 68.6172 126.232 67.9667 126.301C67.3161 126.352 66.6655 126.438 66.015 126.557C65.7068 126.609 65.4072 126.686 65.1162 126.789C64.8251 126.874 64.5683 127.003 64.3458 127.174C64.1232 127.328 63.9435 127.542 63.8065 127.816C63.6867 128.073 63.6267 128.389 63.6267 128.766C63.6267 129.091 63.7209 129.365 63.9092 129.588C64.0975 129.81 64.3201 129.99 64.5769 130.127C64.8508 130.247 65.1419 130.332 65.45 130.384C65.7753 130.435 66.0663 130.461 66.3231 130.461C66.6484 130.461 66.9994 130.418 67.376 130.332C67.7527 130.247 68.1036 130.101 68.4289 129.896C68.7713 129.69 69.0538 129.434 69.2763 129.125C69.4989 128.8 69.6102 128.406 69.6102 127.944V125.761Z" fill="#0D292C" fill-opacity="0.8"/>
<path d="M78.4362 119.136H75.6885V132.412H78.616V126.095C78.616 125.359 78.7102 124.708 78.8985 124.143C79.0868 123.579 79.3436 123.108 79.6689 122.731C79.9942 122.337 80.3708 122.046 80.7988 121.858C81.2439 121.653 81.7147 121.55 82.2112 121.55C82.4166 121.55 82.6221 121.567 82.8275 121.601C83.0501 121.618 83.2641 121.644 83.4695 121.678V118.853L83.0586 118.802C82.9388 118.785 82.7077 118.776 82.3653 118.776C81.9202 118.776 81.4836 118.862 81.0556 119.033C80.6276 119.204 80.2338 119.435 79.8743 119.727C79.5319 120 79.2323 120.309 78.9755 120.651C78.7358 120.993 78.5732 121.344 78.4876 121.704H78.4362V119.136Z" fill="#0D292C" fill-opacity="0.8"/>
<path fill-rule="evenodd" clip-rule="evenodd" d="M86.5506 126.532C86.5506 127.045 86.619 127.542 86.756 128.021C86.9101 128.501 87.1326 128.92 87.4237 129.279C87.7147 129.639 88.0828 129.93 88.5279 130.153C88.973 130.358 89.5038 130.461 90.1201 130.461C90.9761 130.461 91.6609 130.281 92.1745 129.921C92.7052 129.545 93.099 128.988 93.3558 128.252H96.1292C95.9751 128.971 95.7098 129.613 95.3331 130.178C94.9565 130.743 94.5028 131.223 93.9721 131.616C93.4414 131.993 92.8422 132.275 92.1745 132.464C91.5239 132.669 90.8391 132.772 90.1201 132.772C89.0758 132.772 88.1513 132.601 87.3467 132.258C86.542 131.916 85.8572 131.437 85.2922 130.82C84.7444 130.204 84.325 129.468 84.0339 128.612C83.76 127.756 83.623 126.814 83.623 125.787C83.623 124.845 83.7686 123.955 84.0596 123.116C84.3678 122.26 84.7958 121.516 85.3436 120.882C85.9086 120.232 86.5848 119.718 87.3723 119.341C88.1598 118.965 89.0501 118.776 90.043 118.776C91.0874 118.776 92.0204 118.999 92.8422 119.444C93.681 119.872 94.3744 120.446 94.9222 121.165C95.4701 121.884 95.8638 122.714 96.1035 123.656C96.3603 124.58 96.4288 125.539 96.309 126.532H86.5506ZM93.3815 124.606C93.3472 124.143 93.2445 123.698 93.0733 123.27C92.9192 122.842 92.6966 122.474 92.4056 122.166C92.1317 121.841 91.7893 121.584 91.3784 121.396C90.9846 121.19 90.5395 121.088 90.043 121.088C89.5294 121.088 89.0586 121.182 88.6306 121.37C88.2198 121.541 87.8602 121.789 87.5521 122.115C87.261 122.423 87.0214 122.791 86.833 123.219C86.6618 123.647 86.5677 124.109 86.5506 124.606H93.3815Z" fill="#0D292C" fill-opacity="0.8"/>
<path d="M101.282 119.136H98.5342V132.412H101.462V126.095C101.462 125.359 101.556 124.708 101.744 124.143C101.932 123.579 102.189 123.108 102.515 122.731C102.84 122.337 103.216 122.046 103.644 121.858C104.09 121.653 104.56 121.55 105.057 121.55C105.262 121.55 105.468 121.567 105.673 121.601C105.896 121.618 106.11 121.644 106.315 121.678V118.853L105.904 118.802C105.785 118.785 105.553 118.776 105.211 118.776C104.766 118.776 104.329 118.862 103.901 119.033C103.473 119.204 103.08 119.435 102.72 119.727C102.378 120 102.078 120.309 101.821 120.651C101.582 120.993 101.419 121.344 101.333 121.704H101.282V119.136Z" fill="#0D292C" fill-opacity="0.8"/>
</svg>
