<svg width="33" height="32" viewBox="0 0 33 32" fill="none" xmlns="http://www.w3.org/2000/svg">
<path d="M25.4135 0H8.23255C7.56803 0 6.93073 0.230704 6.46085 0.641359C5.99097 1.05201 5.72699 1.60898 5.72699 2.18974V5.00511H2.50556C1.84104 5.00511 1.20374 5.23582 0.733861 5.64647C0.263978 6.05713 0 6.6141 0 7.19485V30.9691C1.85325e-05 31.1416 0.0544159 31.3107 0.157219 31.4579C0.260023 31.6052 0.407256 31.7248 0.582751 31.8036C0.758245 31.8825 0.955214 31.9176 1.15203 31.905C1.34884 31.8925 1.53789 31.8327 1.69841 31.7324L11.096 25.8655L20.4955 31.7324C20.656 31.8323 20.8448 31.8917 21.0414 31.904C21.2379 31.9163 21.4345 31.8811 21.6097 31.8023C21.7849 31.7235 21.9319 31.6041 22.0347 31.4571C22.1374 31.3102 22.1918 31.1413 22.1921 30.9691V24.2122L26.2207 26.7273C26.3812 26.8276 26.5702 26.8873 26.767 26.8999C26.9639 26.9125 27.1608 26.8774 27.3363 26.7985C27.5118 26.7196 27.659 26.6 27.7619 26.4528C27.8647 26.3056 27.9191 26.1365 27.9191 25.964V2.18974C27.9191 1.60898 27.6551 1.05201 27.1852 0.641359C26.7153 0.230704 26.078 0 25.4135 0ZM20.0445 29.1454L11.7189 23.9495C11.5363 23.8349 11.3172 23.7733 11.0925 23.7733C10.8677 23.7733 10.6486 23.8349 10.4661 23.9495L2.14762 29.1454V7.19485C2.14762 7.11189 2.18533 7.03232 2.25246 6.97365C2.31958 6.91499 2.41063 6.88203 2.50556 6.88203H19.6865C19.7815 6.88203 19.8725 6.91499 19.9396 6.97365C20.0067 7.03232 20.0445 7.11189 20.0445 7.19485V29.1454ZM25.7714 24.1403L22.1921 21.9068V7.19485C22.1921 6.6141 21.9281 6.05713 21.4582 5.64647C20.9883 5.23582 20.351 5.00511 19.6865 5.00511H7.87461V2.18974C7.87461 2.10677 7.91232 2.0272 7.97945 1.96854C8.04657 1.90987 8.13762 1.87692 8.23255 1.87692H25.4135C25.5084 1.87692 25.5995 1.90987 25.6666 1.96854C25.7337 2.0272 25.7714 2.10677 25.7714 2.18974V24.1403Z" fill="#505050"/>
</svg>
