<svg width="33" height="34" viewBox="0 0 33 34" fill="none" xmlns="http://www.w3.org/2000/svg">
<path d="M24.5101 20.3864C24.4743 20.3506 24.4479 20.3067 24.433 20.2583C24.4182 20.21 24.4154 20.1588 24.4249 20.1091C24.4333 20.0591 24.4544 20.012 24.4861 19.9725C24.5178 19.9329 24.5591 19.9021 24.6061 19.883L31.5394 16.8624C31.9354 16.6833 32.2684 16.3894 32.4953 16.0188C32.7222 15.6482 32.8325 15.218 32.812 14.7839C32.7915 14.3499 32.641 13.932 32.3801 13.5845C32.1192 13.2369 31.76 12.9758 31.3489 12.8349L6.55252 4.73355C6.17319 4.6122 5.76777 4.59765 5.38072 4.69151C4.99368 4.78536 4.63995 4.98399 4.35833 5.26561C4.07672 5.54723 3.87809 5.90096 3.78424 6.28801C3.69039 6.67506 3.70493 7.08049 3.82628 7.45982L11.9275 32.2565C12.0611 32.6743 12.3195 33.0411 12.6679 33.3076C13.0163 33.574 13.438 33.7273 13.8762 33.7467C13.9118 33.7467 13.9459 33.7467 13.9815 33.7467C14.4016 33.747 14.8125 33.6241 15.1633 33.393C15.5141 33.162 15.7894 32.8331 15.9549 32.447L18.9693 25.5136C18.9884 25.4666 19.0192 25.4253 19.0588 25.3936C19.0984 25.3619 19.1454 25.3408 19.1955 25.3324C19.2451 25.3229 19.2963 25.3257 19.3447 25.3405C19.393 25.3554 19.437 25.3818 19.4727 25.4176L27.1651 33.1116C27.3664 33.313 27.6055 33.4727 27.8686 33.5817C28.1318 33.6907 28.4138 33.7468 28.6986 33.7468C28.9834 33.7468 29.2654 33.6907 29.5285 33.5817C29.7916 33.4727 30.0307 33.313 30.2321 33.1116L32.1978 31.1459C32.3992 30.9445 32.5589 30.7054 32.6679 30.4423C32.7769 30.1792 32.833 29.8971 32.833 29.6123C32.833 29.3275 32.7769 29.0455 32.6679 28.7824C32.5589 28.5193 32.3992 28.2802 32.1978 28.0788L24.5101 20.3864ZM30.8889 29.8354L28.9247 31.7996C28.8959 31.8284 28.8618 31.8512 28.8242 31.8668C28.7866 31.8824 28.7463 31.8904 28.7055 31.8904C28.6648 31.8904 28.6245 31.8824 28.5869 31.8668C28.5493 31.8512 28.5151 31.8284 28.4864 31.7996L20.7925 24.1071C20.5426 23.8571 20.2355 23.672 19.8978 23.5678C19.56 23.4636 19.2019 23.4436 18.8547 23.5094C18.5074 23.5752 18.1815 23.7249 17.9054 23.9454C17.6292 24.166 17.4111 24.4507 17.27 24.7748L14.251 31.7051C14.2297 31.7635 14.1895 31.8132 14.1367 31.8463C14.084 31.8794 14.0218 31.894 13.9598 31.8878C13.8976 31.8877 13.837 31.8672 13.7875 31.8295C13.738 31.7917 13.7022 31.7387 13.6857 31.6787L5.59369 6.88359C5.57996 6.83845 5.57671 6.79078 5.5842 6.7442C5.5917 6.69762 5.60973 6.65337 5.63692 6.61482C5.66411 6.57627 5.69975 6.54444 5.74112 6.52176C5.78248 6.49908 5.82848 6.48614 5.87561 6.48394C5.90981 6.48482 5.94371 6.49055 5.97629 6.50098L30.7711 14.5977C30.8311 14.6143 30.8841 14.6501 30.9219 14.6996C30.9596 14.7491 30.9801 14.8096 30.9802 14.8719C30.9862 14.9338 30.9714 14.9959 30.9384 15.0486C30.9053 15.1012 30.8558 15.1415 30.7975 15.1631L23.8641 18.1775C23.5401 18.3185 23.2554 18.5366 23.0348 18.8128C22.8143 19.089 22.6646 19.4149 22.5988 19.7622C22.533 20.1094 22.553 20.4675 22.6572 20.8052C22.7614 21.143 22.9465 21.4501 23.1965 21.6999L30.8889 29.3939C30.9177 29.4227 30.9405 29.4569 30.9561 29.4945C30.9717 29.5321 30.9797 29.5724 30.9797 29.6131C30.9797 29.6538 30.9717 29.6941 30.9561 29.7317C30.9405 29.7694 30.9177 29.8035 30.8889 29.8323V29.8354ZM12.3922 3.0761V1.83688C12.3922 1.59039 12.4902 1.35399 12.6645 1.17969C12.8388 1.00539 13.0752 0.907471 13.3216 0.907471C13.5681 0.907471 13.8045 1.00539 13.9788 1.17969C14.1531 1.35399 14.251 1.59039 14.251 1.83688V3.0761C14.251 3.32259 14.1531 3.55899 13.9788 3.73329C13.8045 3.90759 13.5681 4.00551 13.3216 4.00551C13.0752 4.00551 12.8388 3.90759 12.6645 3.73329C12.4902 3.55899 12.3922 3.32259 12.3922 3.0761ZM0.000249864 14.229C0.000249864 13.9825 0.0981685 13.7461 0.272465 13.5718C0.446761 13.3975 0.683158 13.2996 0.92965 13.2996H2.16885C2.41534 13.2996 2.65174 13.3975 2.82603 13.5718C3.00033 13.7461 3.09825 13.9825 3.09825 14.229C3.09825 14.4755 3.00033 14.7119 2.82603 14.8862C2.65174 15.0605 2.41534 15.1584 2.16885 15.1584H0.92965C0.683158 15.1584 0.446761 15.0605 0.272465 14.8862C0.0981685 14.7119 0.000249864 14.4755 0.000249864 14.229ZM17.4466 3.90017L18.6858 1.42174C18.7961 1.20113 18.9896 1.03337 19.2236 0.955375C19.4575 0.877376 19.7129 0.895527 19.9336 1.00583C20.1542 1.11614 20.3219 1.30957 20.3999 1.54356C20.4779 1.77756 20.4598 2.03295 20.3495 2.25357L19.1103 4.732C19.0557 4.84123 18.9802 4.93866 18.8881 5.01872C18.7959 5.09878 18.6889 5.1599 18.5731 5.19859C18.4573 5.23729 18.335 5.2528 18.2132 5.24423C18.0915 5.23567 17.9725 5.2032 17.8633 5.14868C17.7541 5.09417 17.6567 5.01867 17.5766 4.9265C17.4965 4.83433 17.4354 4.72729 17.3967 4.6115C17.358 4.49571 17.3425 4.37343 17.3511 4.25165C17.3597 4.12987 17.3921 4.01096 17.4466 3.90172V3.90017ZM4.23986 18.7708C4.29441 18.88 4.3269 18.9989 4.33548 19.1207C4.34407 19.2425 4.32857 19.3648 4.28987 19.4806C4.25117 19.5964 4.19004 19.7034 4.10997 19.7956C4.02989 19.8877 3.93244 19.9632 3.82318 20.0177L1.34478 21.2569C1.12417 21.367 0.868859 21.385 0.635012 21.3068C0.401164 21.2287 0.207937 21.0609 0.0978369 20.8402C-0.012263 20.6196 -0.0302162 20.3643 0.0479266 20.1305C0.126069 19.8966 0.293907 19.7034 0.514518 19.5933L2.99292 18.3541C3.10215 18.2995 3.22105 18.267 3.34284 18.2584C3.46463 18.2499 3.58692 18.2654 3.70272 18.3041C3.81852 18.3428 3.92556 18.4039 4.01772 18.484C4.10989 18.564 4.18537 18.6615 4.23986 18.7708Z" fill="#505050"/>
</svg>
