<svg width="33" height="32" viewBox="0 0 33 32" fill="none" xmlns="http://www.w3.org/2000/svg">
<path d="M22.2245 14.0455C22.2245 14.2986 22.1181 14.5412 21.9286 14.7202C21.7392 14.8991 21.4822 14.9996 21.2143 14.9996H10.4388C10.1709 14.9996 9.9139 14.8991 9.72445 14.7202C9.535 14.5412 9.42857 14.2986 9.42857 14.0455C9.42857 13.7925 9.535 13.5498 9.72445 13.3709C9.9139 13.192 10.1709 13.0915 10.4388 13.0915H21.2143C21.4822 13.0915 21.7392 13.192 21.9286 13.3709C22.1181 13.5498 22.2245 13.7925 22.2245 14.0455ZM21.2143 18.1799H10.4388C10.1709 18.1799 9.9139 18.2804 9.72445 18.4593C9.535 18.6383 9.42857 18.8809 9.42857 19.134C9.42857 19.387 9.535 19.6297 9.72445 19.8086C9.9139 19.9875 10.1709 20.088 10.4388 20.088H21.2143C21.4822 20.088 21.7392 19.9875 21.9286 19.8086C22.1181 19.6297 22.2245 19.387 22.2245 19.134C22.2245 18.8809 22.1181 18.6383 21.9286 18.4593C21.7392 18.2804 21.4822 18.1799 21.2143 18.1799ZM33 15.9537C32.9951 20.0852 31.2551 24.0462 28.1618 26.9677C25.0686 29.8891 20.8746 31.5324 16.5 31.537H2.30158C1.6913 31.5366 1.10614 31.3075 0.67461 30.8999C0.243076 30.4923 0.000445949 29.9397 0 29.3633V15.9537C6.52086e-08 11.8207 1.73839 7.85706 4.83274 4.93461C7.92709 2.01217 12.1239 0.370361 16.5 0.370361C20.8761 0.370361 25.0729 2.01217 28.1673 4.93461C31.2616 7.85706 33 11.8207 33 15.9537ZM30.9796 15.9537C30.9796 12.3268 29.4541 8.84848 26.7386 6.28389C24.0232 3.7193 20.3402 2.27852 16.5 2.27852C12.6598 2.27852 8.97683 3.7193 6.26138 6.28389C3.54593 8.84848 2.02041 12.3268 2.02041 15.9537V29.3633C2.02041 29.4337 2.05003 29.5013 2.10276 29.5511C2.15549 29.6009 2.22701 29.6289 2.30158 29.6289H16.5C20.3389 29.6247 24.0192 28.1825 26.7337 25.6189C29.4482 23.0552 30.9751 19.5793 30.9796 15.9537Z" fill="#505050"/>
</svg>
