<svg width="41" height="40" viewBox="0 0 41 40" fill="none" xmlns="http://www.w3.org/2000/svg">
<path d="M16.767 23.936L16.9331 23.9708C16.9433 23.9222 16.9537 23.8737 16.9646 23.8253C16.9176 23.8092 16.8707 23.7929 16.824 23.7762L16.767 23.936ZM24.0354 23.8253C24.0462 23.8737 24.0567 23.9222 24.0669 23.9708L24.2329 23.936L24.176 23.7762C24.1292 23.7929 24.0824 23.8092 24.0354 23.8253ZM20.3915 17.8723C20.4279 17.9026 20.464 17.9331 20.5 17.9638C20.5359 17.9331 20.5721 17.9026 20.6085 17.8723L20.5 17.7419L20.3915 17.8723ZM25.8277 23.0447C25.2183 20.6591 23.9249 18.4998 22.1045 16.8277C23.4489 16.0439 24.9484 15.555 26.5017 15.3953C28.079 15.2331 29.6725 15.4145 31.1707 15.9259C30.834 17.429 30.1783 18.8445 29.2465 20.078C28.3283 21.2935 27.1634 22.3039 25.8277 23.0447ZM33.286 14.7262C33.3191 14.3534 33.3372 13.9753 33.3372 13.5922C33.3372 10.2164 31.9843 6.97914 29.5767 4.59254C27.1692 2.20599 23.9041 0.865507 20.5 0.865507C17.0958 0.865507 13.8308 2.20599 11.4233 4.59254C9.01568 6.97914 7.66283 10.2164 7.66283 13.5922C7.66283 13.9753 7.68088 14.3534 7.71395 14.7262C6.15951 15.4777 4.7738 16.5332 3.64042 17.8295C2.48099 19.1556 1.6107 20.7052 1.0843 22.381C0.557903 24.0567 0.386805 25.8223 0.581779 27.5667C0.776752 29.3112 1.33357 30.9968 2.21719 32.5176C3.10081 34.0383 4.2921 35.3614 5.71614 36.4037C7.14018 37.446 8.7662 38.1851 10.492 38.5745C12.2179 38.9639 14.0063 38.9953 15.7449 38.6667C17.4459 38.3452 19.0633 37.6859 20.5 36.7289C21.9367 37.6859 23.5541 38.3452 25.2551 38.6667C26.9937 38.9953 28.7821 38.9639 30.5079 38.5745C32.2338 38.1851 33.8598 37.446 35.2838 36.4037C36.7079 35.3614 37.8992 34.0383 38.7828 32.5176C39.6664 30.9968 40.2232 29.3112 40.4182 27.5667C40.6132 25.8223 40.4421 24.0567 39.9157 22.381C39.3893 20.7052 38.519 19.1556 37.3596 17.8295C36.2262 16.5332 34.8405 15.4777 33.286 14.7262ZM9.58557 13.5922C9.58557 10.7236 10.7351 7.97225 12.7818 5.94341C14.8285 3.91452 17.6048 2.77444 20.5 2.77444C23.3951 2.77444 26.1714 3.91452 28.2182 5.94341C30.2649 7.97225 31.4144 10.7236 31.4144 13.5922C31.4144 13.7286 31.4144 13.8602 31.4092 13.9892C29.6044 13.4359 27.6975 13.2851 25.8253 13.5487C23.9191 13.817 22.0989 14.508 20.5 15.5697C18.901 14.508 17.0809 13.817 15.1747 13.5487C13.3025 13.2851 11.3956 13.4359 9.59074 13.9892C9.58563 13.8602 9.58557 13.7286 9.58557 13.5922ZM18.8996 16.8145C17.0806 18.4882 15.7892 20.6487 15.182 23.0347C13.8464 22.294 12.6816 21.2837 11.7634 20.0682C10.8316 18.8347 10.1759 17.4192 9.83915 15.9161C11.3374 15.4047 12.9308 15.2233 14.5082 15.3855C16.0593 15.545 17.5567 16.0326 18.8996 16.8145ZM13.3747 36.967C10.9405 36.9654 8.57692 36.1573 6.65951 34.6715C4.74212 33.1858 3.38096 31.1076 2.792 28.7674C2.20305 26.4273 2.42001 23.9591 3.40846 21.7552C4.36739 19.617 5.99916 17.8463 8.05687 16.7064C8.51084 18.4771 9.34279 20.1315 10.4974 21.5575C11.6737 23.0102 13.1558 24.1899 14.8395 25.0146C14.8064 25.3876 14.7883 25.7659 14.7883 26.1492C14.788 27.9395 15.1695 29.7096 15.9076 31.3434C16.6142 32.9072 17.6322 34.3122 18.8996 35.4747C17.2272 36.4524 15.3193 36.9686 13.3747 36.967ZM27.6254 36.967C25.6807 36.9686 23.7728 36.4524 22.1004 35.4747C23.3678 34.3122 24.3858 32.9072 25.0923 31.3434C25.8305 29.7096 26.212 27.9395 26.2117 26.1492C26.2117 25.7659 26.1936 25.3876 26.1605 25.0146C27.8442 24.1899 29.3263 23.0102 30.5026 21.5575C31.6572 20.1315 32.4891 18.4771 32.9431 16.7064C35.0008 17.8463 36.6326 19.617 37.5915 21.7552C38.58 23.9591 38.7969 26.4273 38.208 28.7674C37.619 31.1076 36.2579 33.1858 34.3405 34.6715C32.4231 36.1573 30.0595 36.9654 27.6254 36.967Z" fill="white" stroke="white" stroke-width="0.339299"/>
</svg>
