<svg width="39" height="34" viewBox="0 0 39 34" fill="none" xmlns="http://www.w3.org/2000/svg">
<path d="M9.73255 7.03834L9.73224 7.03744C9.66696 6.84779 9.54295 6.68391 9.37864 6.56826C9.21441 6.45267 9.01792 6.39086 8.81684 6.39086C8.61577 6.39086 8.41928 6.45267 8.25504 6.56826C8.09074 6.68391 7.96673 6.84779 7.90144 7.03743L7.90114 7.03834L0.779458 27.9835L0.779351 27.9838C0.730723 28.1274 0.717513 28.2805 0.740912 28.4303C0.764308 28.5801 0.823571 28.7219 0.913447 28.8442C1.00331 28.9664 1.12112 29.0656 1.25689 29.1339C1.39264 29.2021 1.54269 29.2377 1.69477 29.238H1.69517H15.9385H15.9389C16.091 29.2377 16.241 29.2021 16.3768 29.1339C16.5126 29.0656 16.6304 28.9664 16.7202 28.8442C16.8101 28.7219 16.8694 28.5801 16.8928 28.4303C16.9162 28.2805 16.903 28.1274 16.8543 27.9838L16.8542 27.9835L9.73255 7.03834ZM33.9972 9.43497V9.4347C33.9972 7.72621 33.4804 6.05652 32.5127 4.63678C31.5451 3.21711 30.1704 2.11137 28.5629 1.45861C26.9554 0.805866 25.1869 0.635153 23.4808 0.967856C21.7746 1.30056 20.2067 2.12191 18.9756 3.3288C17.7445 4.53575 16.9055 6.0741 16.5655 7.74962C16.2255 9.42518 16.4001 11.1619 17.0668 12.7399C17.7335 14.3178 18.8622 15.6657 20.3093 16.6137C21.7564 17.5616 23.4572 18.0672 25.1967 18.0672H25.197C27.5286 18.0649 29.765 17.1558 31.4152 15.538C33.0656 13.9201 33.9948 11.7253 33.9972 9.43497ZM14.5951 27.3327H3.03861L8.81684 10.3387L14.5951 27.3327ZM18.3295 9.4347C18.3295 8.10532 18.7316 6.80536 19.4855 5.69919C20.2395 4.59296 21.3117 3.73 22.5671 3.22022C23.8225 2.71041 25.2043 2.57695 26.5374 2.83691C27.8704 3.09686 29.0943 3.73839 30.0543 4.6796C31.0144 5.62076 31.6676 6.81925 31.9321 8.12324C32.1967 9.42719 32.061 10.7788 31.5419 12.0074C31.0227 13.2361 30.1432 14.2871 29.0139 15.0269C27.8844 15.7668 26.556 16.1619 25.1967 16.1619C23.3738 16.1619 21.6265 15.452 20.3391 14.1898C19.0518 12.9278 18.3295 11.2172 18.3295 9.4347ZM37.3036 21.7473H21.6359C21.3811 21.7473 21.1358 21.8465 20.9541 22.0246C20.7723 22.2028 20.6692 22.4457 20.6692 22.7V32.4744C20.6692 32.7287 20.7723 32.9715 20.9541 33.1498C21.1358 33.3278 21.3811 33.427 21.6359 33.427H37.3036C37.5583 33.427 37.8036 33.3278 37.9853 33.1498C38.1671 32.9715 38.2702 32.7287 38.2702 32.4744V22.7C38.2702 22.4457 38.1671 22.2028 37.9853 22.0246C37.8036 21.8465 37.5583 21.7473 37.3036 21.7473ZM36.3369 31.5217H22.6025V23.6526H36.3369V31.5217Z" fill="white" stroke="white" stroke-width="0.508949"/>
</svg>
