<svg width="31" height="39" viewBox="0 0 31 39" fill="none" xmlns="http://www.w3.org/2000/svg">
<path d="M20.272 34.0024L20.272 34.0023L20.2676 34.0077C18.9205 35.6501 17.3656 36.4311 15.4999 36.4311C13.747 36.4311 12.0654 35.7295 10.8253 34.48C9.58512 33.2304 8.88805 31.5352 8.88805 29.7672C8.88805 27.9225 8.50388 26.6104 7.92296 25.5751C7.34723 24.549 6.58529 23.8094 5.86379 23.1091L5.85665 23.1022C5.85662 23.1021 5.85659 23.1021 5.85656 23.1021C5.06246 22.3305 4.28561 21.5735 3.69896 20.4111C3.11323 19.2505 2.70832 17.6659 2.70832 15.2386C2.70832 11.8192 4.05646 8.54025 6.45558 6.12296C8.85462 3.70574 12.108 2.34811 15.4999 2.34811C18.8919 2.34811 22.1453 3.70574 24.5443 6.12296C26.9434 8.54025 28.2916 11.8192 28.2916 15.2386C28.2916 15.4889 28.3903 15.7294 28.5665 15.907C28.7429 16.0847 28.9825 16.1849 29.2327 16.1849C29.4829 16.1849 29.7225 16.0847 29.8988 15.907C30.0751 15.7294 30.1738 15.4889 30.1738 15.2386C30.1738 11.3185 28.6283 7.55855 25.8766 4.78604C23.1249 2.01346 19.3923 0.455486 15.4999 0.455486C11.6076 0.455486 7.87502 2.01346 5.12329 4.78604C2.37162 7.55855 0.826092 11.3185 0.826092 15.2386C0.826092 18.0185 1.31583 19.9056 2.03583 21.3148C2.75355 22.7195 3.69164 23.6305 4.54482 24.4591L4.54932 24.4635L4.54937 24.4635C5.23281 25.1269 5.83867 25.7178 6.2812 26.5088C6.71985 27.2929 7.00583 28.2902 7.00583 29.7672V29.7675C7.00817 32.0354 7.90334 34.2101 9.49553 35.8144C11.0878 37.4187 13.2471 38.3214 15.4997 38.3237H15.4999C17.9379 38.3237 20.0346 37.2676 21.7186 35.2124L21.7187 35.2125L21.7226 35.2075C21.8736 35.0134 21.9433 34.7679 21.9173 34.5232C21.8912 34.2785 21.7713 34.0533 21.5824 33.8958C21.3935 33.7382 21.1506 33.6609 20.9055 33.6809C20.6604 33.7009 20.4332 33.8164 20.272 34.0024ZM23.8438 25.4898L23.8434 25.4896C23.6273 25.3639 23.3702 25.3297 23.1289 25.3948C22.8876 25.4598 22.6823 25.6185 22.5577 25.8353L22.5573 25.8359C22.3586 26.1837 22.0516 26.4553 21.6845 26.6088C21.3173 26.7624 20.9102 26.7894 20.5264 26.6858C20.1425 26.5822 19.8029 26.3536 19.5607 26.0352C19.3184 25.7168 19.1872 25.3263 19.1876 24.9246V24.9243C19.1876 23.1741 20.0659 21.9838 21.0598 20.6485L21.06 20.6483L21.0775 20.6247C22.15 19.1817 23.3074 17.6244 23.3074 15.2386C23.3074 13.1533 22.4853 11.1531 21.0213 9.67807C19.5573 8.20295 17.5712 7.37388 15.4999 7.37388C13.4287 7.37388 11.4426 8.20295 9.97854 9.67807C8.51457 11.1531 7.69246 13.1533 7.69246 15.2386C7.69246 15.4889 7.79115 15.7294 7.96743 15.907C8.14377 16.0847 8.38335 16.1849 8.63357 16.1849C8.88379 16.1849 9.12338 16.0847 9.29972 15.907C9.476 15.7294 9.57469 15.4889 9.57469 15.2386C9.57469 13.6541 10.1994 12.1348 11.3108 11.015C12.4222 9.89523 13.9291 9.2665 15.4999 9.2665C17.0708 9.2665 18.5777 9.89523 19.6891 11.015C20.8005 12.1348 21.4252 13.6541 21.4252 15.2386C21.4252 16.9888 20.5469 18.1791 19.553 19.5144L19.5529 19.5146L19.5353 19.5382C18.4628 20.9812 17.3054 22.5385 17.3054 24.9243C17.3054 25.7413 17.573 26.5357 18.0669 27.1842C18.5609 27.8328 19.2537 28.2994 20.0381 28.5112C20.8226 28.723 21.6545 28.668 22.4048 28.3549C23.155 28.0419 23.7813 27.4883 24.187 26.7805L24.187 26.7804C24.3112 26.5634 24.3448 26.3059 24.2807 26.0642C24.2166 25.8225 24.0597 25.6158 23.8438 25.4898Z" fill="white" stroke="white" stroke-width="0.508949"/>
</svg>
