<svg width="47" height="31" viewBox="0 0 47 31" fill="none" xmlns="http://www.w3.org/2000/svg">
<path d="M45.9527 15.1698L45.9515 15.1672C45.8794 15.008 44.2924 11.5374 40.7442 8.03321C37.4546 4.78445 31.79 0.905682 23.5001 0.905682C15.2101 0.905682 9.54554 4.78445 6.25597 8.03321C2.70773 11.5374 1.12072 15.008 1.04863 15.1672L1.04861 15.1672L1.04747 15.1698C0.990533 15.2993 0.961102 15.4391 0.961102 15.5805C0.961102 15.7219 0.990534 15.8617 1.04747 15.9912L1.04747 15.9912L1.04812 15.9927C1.12074 16.1551 2.70791 19.6237 6.25597 23.1278C9.55331 26.3842 15.2121 30.2534 23.5001 30.2534C31.7881 30.2534 37.4546 26.3766 40.7442 23.1278C44.2922 19.6237 45.8794 16.1551 45.952 15.9927L45.9527 15.9912C46.0096 15.8617 46.039 15.7219 46.039 15.5805C46.039 15.4391 46.0096 15.2993 45.9527 15.1698ZM43.8754 15.5795C42.6779 17.8166 41.1496 19.8653 39.3409 21.6582H39.3334L39.2591 21.7313C34.8743 26.0487 29.5725 28.2266 23.4924 28.2266C17.4125 28.2266 12.1183 26.0432 7.72542 21.7311C5.88711 19.9205 4.33618 17.8466 3.12471 15.5796C4.33848 13.312 5.89207 11.238 7.73321 9.42785C12.126 5.11586 17.4203 2.93246 23.5001 2.93246C29.5799 2.93246 34.8742 5.11591 39.2671 9.428C41.1079 11.2383 42.6614 13.3122 43.8754 15.5795ZM23.5004 6.977H23.5001C21.7786 6.977 20.0956 7.48112 18.6637 8.42598C17.2319 9.37086 16.1154 10.7142 15.4559 12.2864C14.7965 13.8587 14.6239 15.589 14.9601 17.2584C15.2963 18.9277 16.1262 20.4607 17.3441 21.6636C18.5621 22.8664 20.1135 23.6852 21.8019 24.0169C23.4904 24.3486 25.2405 24.1784 26.8312 23.5277C28.4219 22.877 29.782 21.7748 30.7392 20.3601C31.6964 18.9453 32.2075 17.2817 32.2075 15.5795V15.5792C32.2048 13.2976 31.2859 11.1107 29.6532 9.49828C28.0206 7.88596 25.8078 6.97959 23.5004 6.977ZM23.5001 22.1553C22.1818 22.1553 20.8935 21.7692 19.7979 21.0463C18.7024 20.3233 17.849 19.2961 17.3452 18.0949C16.8414 16.8938 16.7096 15.5722 16.9664 14.2973C17.2232 13.0223 17.8571 11.8507 18.7885 10.9309C19.72 10.011 20.9071 9.38421 22.1999 9.13025C23.4927 8.87628 24.8327 9.00665 26.0504 9.50475C27.268 10.0028 28.3082 10.8461 29.0398 11.9275C29.7713 13.0088 30.1616 14.2797 30.1616 15.5795C30.1616 17.3225 29.4606 18.9947 28.2116 20.2282C26.9626 21.4617 25.2678 22.1553 23.5001 22.1553Z" fill="white" stroke="white" stroke-width="0.508949"/>
</svg>
