<svg width="35" height="30" viewBox="0 0 35 30" fill="none" xmlns="http://www.w3.org/2000/svg">
<path d="M29.0448 20.1341C27.9034 20.1342 26.8006 20.549 25.9384 21.302C25.1318 22.0065 24.5863 22.9628 24.386 24.0145H8.52018C7.05738 24.0145 5.65406 23.4286 4.61906 22.385C3.58398 21.3413 3.00211 19.9253 3.00211 18.4483C3.00211 16.9714 3.58398 15.5554 4.61906 14.5117C5.65406 13.4681 7.05738 12.8821 8.52018 12.8821H23.9136C25.5128 12.8821 27.046 12.2416 28.1761 11.102C29.3062 9.96256 29.9407 8.41755 29.9407 6.807C29.9407 5.19645 29.3062 3.65144 28.1761 2.51197C27.046 1.37243 25.5128 0.731854 23.9136 0.731854H8.52018C8.28189 0.731854 8.0538 0.827321 7.88596 0.996562C7.71819 1.16573 7.62431 1.39473 7.62431 1.63307C7.62431 1.87141 7.71819 2.10041 7.88596 2.26958C8.0538 2.43882 8.28189 2.53429 8.52018 2.53429H23.9136C25.0362 2.53429 26.1133 2.98393 26.9077 3.78499C27.7022 4.58612 28.1489 5.67313 28.1489 6.807C28.1489 7.94087 27.7022 9.02788 26.9077 9.82901C26.1133 10.6301 25.0362 11.0797 23.9136 11.0797H8.52018C6.58081 11.0797 4.72131 11.8566 3.35062 13.2387C1.98 14.6207 1.21037 16.4947 1.21037 18.4483C1.21037 20.4019 1.98 22.276 3.35062 23.658C4.72131 25.0401 6.58081 25.817 8.52018 25.817H24.386C24.543 26.6416 24.913 27.4115 25.4606 28.0481C26.0563 28.7406 26.8371 29.2461 27.7101 29.5042C28.5831 29.7622 29.5113 29.7618 30.3841 29.5031C31.2569 29.2443 32.0373 28.7381 32.6324 28.0451C33.2275 27.3521 33.6123 26.5016 33.7414 25.5947C33.8705 24.6878 33.7383 23.7626 33.3607 22.9292C32.983 22.0957 32.3755 21.3889 31.6103 20.8933C30.8452 20.3976 29.9546 20.134 29.0448 20.1341ZM29.0448 27.895C28.4613 27.895 27.8908 27.7205 27.4053 27.3934C26.9198 27.0663 26.541 26.6012 26.3173 26.0565C26.0936 25.5119 26.035 24.9125 26.1491 24.3341C26.2632 23.7558 26.5447 23.2249 26.9578 22.8084C27.3709 22.3919 27.8969 22.1085 28.4692 21.9937C29.0415 21.8789 29.6347 21.9378 30.174 22.163C30.7132 22.3882 31.1745 22.7698 31.4992 23.2598C31.8239 23.7498 31.9973 24.3261 31.9973 24.9158C31.9973 25.7066 31.6857 26.4646 31.1318 27.0231C30.5779 27.5816 29.8272 27.895 29.0448 27.895Z" fill="white" stroke="white" stroke-width="0.508949"/>
</svg>
