<svg width="134" height="51" viewBox="0 0 134 51" fill="none" xmlns="http://www.w3.org/2000/svg">
<path d="M18.2069 50.0246H12.9949V44.0761C9.33129 43.6228 6.46087 42.282 4.38359 40.0537C2.30632 37.8253 1.1166 35.3515 0.814453 32.6321L7.15959 30.8759C7.31067 32.651 7.8772 34.2184 8.85918 35.5781C9.84117 36.9 11.2197 37.7687 12.9949 38.1841V27.76L11.9751 27.5334C8.91584 26.8535 6.51752 25.6261 4.78016 23.8509C3.08057 22.0758 2.23078 19.8286 2.23078 17.1092C2.23078 14.3143 3.23165 11.8782 5.23339 9.80097C7.2729 7.68593 9.86005 6.42068 12.9949 6.00522V0H18.2069V6.06187C21.2662 6.55287 23.6267 7.70481 25.2886 9.51771C26.9882 11.2928 28.0646 13.2946 28.5178 15.5229L22.3993 17.4491C21.946 14.7676 20.5486 12.9735 18.2069 12.0671V22.208L18.7168 22.3213C22.0027 23.0389 24.5143 24.3608 26.2517 26.287C28.0268 28.2132 28.9144 30.4793 28.9144 33.0854C28.9144 35.7669 27.9701 38.1464 26.0817 40.2236C24.1933 42.3009 21.5683 43.5662 18.2069 44.0194V50.0246ZM8.85918 16.7126C8.85918 17.7702 9.1991 18.7144 9.87894 19.5453C10.5965 20.3384 11.6352 20.8672 12.9949 21.1316V11.8405C11.6729 12.1804 10.6532 12.8036 9.93559 13.71C9.21799 14.5787 8.85918 15.5796 8.85918 16.7126ZM22.3426 33.4253C22.3426 31.1592 20.964 29.6484 18.2069 28.893V38.1841C19.5666 37.9198 20.5864 37.3532 21.2662 36.4845C21.9838 35.5781 22.3426 34.5583 22.3426 33.4253Z" fill="black"/>
<path d="M43.8646 26.7402L40.7486 21.6981L50.8895 12.6336H34.1769V6.68506H59.6707V12.3504L49.6998 21.0749C52.6458 21.1505 55.214 22.1891 57.4046 24.1908C59.5952 26.1926 60.6905 28.8742 60.6905 32.2356C60.6905 35.5592 59.4441 38.3919 56.9514 40.7335C54.4587 43.0752 51.1161 44.246 46.9238 44.246C42.8448 44.246 39.54 43.1318 37.0095 40.9035C34.5168 38.6374 33.1571 35.8802 32.9305 32.6321L39.5589 31.2725C39.6345 33.3875 40.3521 35.106 41.7117 36.4279C43.1092 37.7498 44.8277 38.4108 46.8672 38.4108C49.02 38.4108 50.7196 37.8065 51.9659 36.5979C53.2123 35.3893 53.8355 33.9163 53.8355 32.1789C53.8355 30.2149 53.1745 28.7231 51.8526 27.7033C50.5685 26.6458 49.0577 26.117 47.3204 26.117C45.8474 26.117 44.6955 26.3248 43.8646 26.7402Z" fill="black"/>
<path d="M64.4739 33.2553L70.8757 31.6124C71.0267 33.6141 71.7821 35.2571 73.1418 36.5412C74.5015 37.8253 76.2199 38.4674 78.2972 38.4674C80.2612 38.4674 81.9041 37.8631 83.226 36.6545C84.5857 35.4081 85.2655 33.7841 85.2655 31.7823C85.2655 29.6295 84.5857 27.9677 83.226 26.7969C81.8663 25.5883 80.1856 24.984 78.1839 24.984C75.6156 24.984 73.5761 25.8338 72.0654 27.5334L65.6636 25.2106L70.1958 6.68506H90.3076V12.6336H74.7847L72.5186 21.9247C74.1426 20.2251 76.4843 19.3753 79.5436 19.3753C83.2827 19.3753 86.3042 20.4706 88.6081 22.6612C90.9497 24.8518 92.1205 27.8355 92.1205 31.6124C92.1205 35.1626 90.8553 38.1653 88.3248 40.6202C85.7943 43.0752 82.4518 44.3027 78.2972 44.3027C74.4448 44.3027 71.2345 43.2263 68.6662 41.0734C66.0979 38.8829 64.7005 36.2768 64.4739 33.2553Z" fill="black"/>
<path d="M106.045 3.22922H119.868C123.645 3.22922 126.629 4.23009 128.819 6.23183C131.01 8.23357 132.105 10.8396 132.105 14.05C132.105 16.1272 131.558 17.9401 130.462 19.4886C129.367 20.9994 127.932 22.0758 126.157 22.7179C128.309 23.2844 130.047 24.4363 131.369 26.1737C132.691 27.9111 133.352 29.9506 133.352 32.2922C133.352 35.5403 132.2 38.203 129.896 40.2803C127.592 42.3576 124.589 43.3962 120.888 43.3962H106.045V3.22922ZM112.787 20.2251H118.962C120.926 20.2251 122.474 19.7153 123.607 18.6955C124.74 17.6757 125.307 16.3161 125.307 14.6165C125.307 12.8791 124.721 11.5194 123.551 10.5375C122.418 9.51771 120.831 9.00783 118.792 9.00783H112.787V20.2251ZM112.787 37.6176H119.698C121.738 37.6176 123.362 37.1077 124.57 36.088C125.817 35.0305 126.44 33.6141 126.44 31.839C126.44 30.0639 125.854 28.6475 124.684 27.59C123.551 26.4947 121.964 25.9471 119.925 25.9471H112.787V37.6176Z" fill="black"/>
</svg>
