<svg width="171" height="51" viewBox="0 0 171 51" fill="none" xmlns="http://www.w3.org/2000/svg">
<path d="M16.7369 30.3468H0.760742V24.5116H16.7369V30.3468Z" fill="black"/>
<path d="M39.3454 50.6286H34.1334V44.6801C30.4698 44.2268 27.5994 42.886 25.5221 40.6577C23.4448 38.4293 22.2551 35.9555 21.953 33.2361L28.2981 31.4799C28.4492 33.255 29.0157 34.8224 29.9977 36.1821C30.9797 37.504 32.3582 38.3727 34.1334 38.7881V28.364L33.1136 28.1374C30.0543 27.4575 27.656 26.2301 25.9187 24.4549C24.2191 22.6798 23.3693 20.4326 23.3693 17.7132C23.3693 14.9183 24.3702 12.4823 26.3719 10.405C28.4114 8.28993 30.9986 7.02468 34.1334 6.60922V0.604004H39.3454V6.66588C42.4047 7.15687 44.7652 8.30882 46.4271 10.1217C48.1267 11.8968 49.2031 13.8986 49.6563 16.1269L43.5378 18.0531C43.0845 15.3716 41.6871 13.5775 39.3454 12.6711V22.812L39.8553 22.9253C43.1412 23.6429 45.6528 24.9648 47.3902 26.891C49.1653 28.8172 50.0529 31.0833 50.0529 33.6894C50.0529 36.3709 49.1086 38.7504 47.2202 40.8277C45.3318 42.9049 42.7068 44.1702 39.3454 44.6234V50.6286ZM29.9977 17.3166C29.9977 18.3742 30.3376 19.3184 31.0174 20.1493C31.735 20.9424 32.7737 21.4712 34.1334 21.7356V12.4445C32.8115 12.7844 31.7917 13.4076 31.0741 14.314C30.3565 15.1827 29.9977 16.1836 29.9977 17.3166ZM43.4811 34.0293C43.4811 31.7632 42.1026 30.2524 39.3454 29.497V38.7881C40.7051 38.5238 41.7249 37.9572 42.4047 37.0886C43.1223 36.1821 43.4811 35.1623 43.4811 34.0293Z" fill="black"/>
<path d="M61.9345 21.0557L55.3628 20.6025C55.2494 19.5828 55.1928 18.884 55.1928 18.5064C55.1928 15.1827 56.3636 12.3501 58.7053 10.0084C61.0847 7.62898 64.2762 6.43926 68.2796 6.43926C72.2076 6.43926 75.3424 7.55344 77.684 9.78179C80.0257 12.0101 81.1965 14.7484 81.1965 17.9965C81.1965 22.6798 78.836 26.4756 74.1149 29.3837L66.9766 33.8027C64.8993 35.049 63.653 36.4465 63.2375 37.995H81.4231V44.0002H54.8529C54.9284 40.7143 55.6271 37.8439 56.949 35.389C58.2709 32.934 60.4804 30.7434 63.5774 28.8172L69.6393 25.0215C72.7741 23.0575 74.3415 20.7536 74.3415 18.1098C74.3415 16.4857 73.7939 15.1261 72.6986 14.0308C71.6411 12.9355 70.1303 12.3878 68.1663 12.3878C66.0891 12.3878 64.5028 13.0299 63.4075 14.314C62.3122 15.5604 61.7645 17.1845 61.7645 19.1862L61.9345 21.0557Z" fill="black"/>
<path d="M95.9299 27.3442L92.8139 22.3021L102.955 13.2376H86.2422V7.28906H111.736V12.9544L101.765 21.6789C104.711 21.7545 107.279 22.7931 109.47 24.7948C111.661 26.7966 112.756 29.4782 112.756 32.8396C112.756 36.1632 111.509 38.9959 109.017 41.3375C106.524 43.6792 103.181 44.85 98.9891 44.85C94.9101 44.85 91.6053 43.7358 89.0748 41.5075C86.5821 39.2414 85.2224 36.4843 84.9958 33.2361L91.6242 31.8765C91.6998 33.9915 92.4174 35.71 93.777 37.0319C95.1745 38.3538 96.893 39.0148 98.9325 39.0148C101.085 39.0148 102.785 38.4105 104.031 37.2019C105.278 35.9933 105.901 34.5203 105.901 32.7829C105.901 30.8189 105.24 29.3271 103.918 28.3073C102.634 27.2498 101.123 26.7211 99.3857 26.7211C97.9127 26.7211 96.7608 26.9288 95.9299 27.3442Z" fill="black"/>
<path d="M170.962 44.0002H164.22V14.4273L151.7 44.0002H145.808L133.401 14.5406V44.0002H126.773V3.83323H135.837L148.867 34.4825L161.728 3.83323H170.962V44.0002Z" fill="black"/>
</svg>
