<svg width="124" height="41" viewBox="0 0 124 41" fill="none" xmlns="http://www.w3.org/2000/svg">
<path d="M16.0474 40.167H9.3623V15.0131H0.467773V10.3675C3.03604 10.3297 5.18886 9.66878 6.92622 8.38465C8.66358 7.06274 9.73999 5.41981 10.1554 3.45584H16.0474V40.167Z" fill="black"/>
<path d="M24.8379 39.2039C23.9692 38.2974 23.5348 37.2022 23.5348 35.918C23.5348 34.6339 23.9692 33.5386 24.8379 32.6321C25.7443 31.7257 26.8396 31.2725 28.1237 31.2725C29.4079 31.2725 30.5032 31.7257 31.4096 32.6321C32.3161 33.5386 32.7693 34.6339 32.7693 35.918C32.7693 37.2022 32.3161 38.2974 31.4096 39.2039C30.5032 40.0726 29.4079 40.5069 28.1237 40.5069C26.8396 40.5069 25.7443 40.0726 24.8379 39.2039Z" fill="black"/>
<path d="M45.4538 17.2225L38.8821 16.7693C38.7688 15.7495 38.7121 15.0508 38.7121 14.6731C38.7121 11.3495 39.8829 8.51684 42.2246 6.17518C44.604 3.79575 47.7955 2.60604 51.799 2.60604C55.7269 2.60604 58.8617 3.72022 61.2034 5.94857C63.545 8.17692 64.7158 10.9152 64.7158 14.1633C64.7158 18.8466 62.3553 22.6423 57.6342 25.5505L50.4959 29.9695C48.4187 31.2158 47.1723 32.6133 46.7568 34.1618H64.9425V40.167H38.3722C38.4477 36.8811 39.1464 34.0107 40.4683 31.5557C41.7903 29.1008 43.9997 26.9102 47.0968 24.984L53.1586 21.1882C56.2934 19.2243 57.8608 16.9204 57.8608 14.2766C57.8608 12.6525 57.3132 11.2928 56.2179 10.1975C55.1604 9.10225 53.6496 8.55461 51.6856 8.55461C49.6084 8.55461 48.0221 9.19668 46.9268 10.4808C45.8315 11.7272 45.2839 13.3512 45.2839 15.353L45.4538 17.2225Z" fill="black"/>
<path d="M123.474 40.167H116.732V10.5941L104.212 40.167H98.3199L85.9129 10.7074V40.167H79.2845V0H88.349L101.379 30.6493L114.239 0H123.474V40.167Z" fill="black"/>
</svg>
