<svg width="127" height="42" viewBox="0 0 127 42" fill="none" xmlns="http://www.w3.org/2000/svg">
<path d="M27.5758 3.45584V9.4044C26.6694 10.1598 25.7818 10.9529 24.9131 11.7838C24.0822 12.6147 22.9303 13.9933 21.4573 15.9195C19.9843 17.8079 18.7002 19.8097 17.6049 21.9247C16.5096 24.002 15.4521 26.6836 14.4323 29.9695C13.4503 33.2176 12.8083 36.6167 12.5061 40.167H5.48115C5.7833 36.3524 6.48202 32.6888 7.57731 29.1763C8.6726 25.6261 9.90008 22.7179 11.2598 20.4517C12.6194 18.1479 13.9413 16.1272 15.2255 14.3899C16.5474 12.6525 17.6615 11.3873 18.568 10.5941L19.871 9.4044H0.155762V3.45584H27.5758Z" fill="black"/>
<path d="M26.1608 39.2039C25.2921 38.2974 24.8578 37.2022 24.8578 35.918C24.8578 34.6339 25.2921 33.5386 26.1608 32.6321C27.0673 31.7257 28.1626 31.2725 29.4467 31.2725C30.7308 31.2725 31.8261 31.7257 32.7326 32.6321C33.639 33.5386 34.0923 34.6339 34.0923 35.918C34.0923 37.2022 33.639 38.2974 32.7326 39.2039C31.8261 40.0726 30.7308 40.5069 29.4467 40.5069C28.1626 40.5069 27.0673 40.0726 26.1608 39.2039Z" fill="black"/>
<path d="M66.8585 4.41894L64.9323 9.97093C63.1194 8.98895 61.0232 8.49796 58.6438 8.49796C55.1691 8.49796 52.2798 9.57436 49.9759 11.7272C47.7098 13.8422 46.4256 16.6749 46.1235 20.2251C48.0119 17.3169 51.1278 15.8628 55.4712 15.8628C59.1726 15.8628 62.1752 16.9959 64.4791 19.262C66.783 21.5281 67.9349 24.5308 67.9349 28.2699C67.9349 32.009 66.5941 35.0682 63.9125 37.4477C61.231 39.8271 57.9262 41.0168 53.9983 41.0168C49.466 41.0168 45.878 39.3927 43.2342 36.1446C40.6282 32.8965 39.3251 28.8364 39.3251 23.9642C39.3251 17.4302 41.1569 12.2371 44.8205 8.38465C48.484 4.53224 53.224 2.60604 59.0404 2.60604C62.364 2.60604 64.9701 3.21034 66.8585 4.41894ZM46.86 28.3832C46.86 30.4227 47.5587 32.0845 48.9561 33.3686C50.3914 34.615 52.0721 35.2382 53.9983 35.2382C56 35.2382 57.6807 34.615 59.0404 33.3686C60.4378 32.1223 61.1365 30.4604 61.1365 28.3832C61.1365 26.3059 60.4378 24.6441 59.0404 23.3977C57.6807 22.1513 56 21.5281 53.9983 21.5281C51.9965 21.5281 50.2969 22.1513 48.8995 23.3977C47.5398 24.6441 46.86 26.3059 46.86 28.3832Z" fill="black"/>
<path d="M126.18 40.167H119.438V10.5941L106.918 40.167H101.026L88.619 10.7074V40.167H81.9906V0H91.0551L104.085 30.6493L116.946 0H126.18V40.167Z" fill="black"/>
</svg>
